<?xml version="1.0" encoding="UTF-8"?><svg xmlns="http://www.w3.org/2000/svg" viewBox="0 0 612.6 777.22"><defs><style>.d{stroke:gray;}.d,.e,.f,.g,.h,.i{stroke-miterlimit:10;}.j{fill:#f2f2f2;}.k{fill:#eaeaea;}.l{fill:#e6e6e6;}.m{fill:#edcf21;}.n{fill:#e5e5e5;}.o{fill:#ff4800;}.p,.e{fill:#ff6d00;}.q{fill:#996d41;}.r{fill:#c1d9e5;}.s{fill:#b7854f;}.t,.u{fill:#32373a;}.v{fill:#333;}.w{fill:#bc9871;}.x{fill:#cfd0d1;}.y{fill:#c4c4c4;}.a`{fill:#e08d3b;}.aa{fill:#db5c05;}.ab{fill:#d6b48b;}.ac{fill:#222628;}.ad{fill:gray;}.ae{fill:#2a66bc;}.af{fill:#493a30;}.e{stroke:#000;}.e,.f,.g,.h{stroke-width:4px;}.ag{stroke:#996d41;}.ag,.ah{stroke-linecap:round;stroke-linejoin:round;stroke-width:2px;}.ag,.ah,.f,.g,.h,.i{fill:none;}.ah{stroke:#bc9871;}.u{opacity:.2;}.f{stroke:#f46245;}.g{stroke:#6b5237;}.h{stroke:#e08d3b;}.ai{opacity:.42;}.i{stroke:#ff4800;stroke-width:9px;}</style></defs><g id="a"/><g id="b"><g id="c"><g><path class="s" d="M50.55,393.83c-.06-.17-.02-5.3-.06-.17,0,.27-.77,.48-1.2,1.86-2.33,7.38,.41,19.91,.41,19.91,0,0,1.4,7.99,3.72,11.69,2.32,3.71,.8,8.49-3.41,5.98-4.21-2.51-14.68-15.66-18.18-31.89-1.18-5.47-1.15-11.14-.6-16.26,.15-1.41,.34-2.77,.56-4.08l18.48-4.7,.12,5.26"/><polygon class="u" points="31.19 384.63 31.72 380.88 50.26 376.16 50.26 382.18 31.19 384.63"/></g><path class="af" d="M156.38,44.01s2.65-15.09-5.3-26.55C143.13,6,137.4,0,125.1,0h-12.68c-12.3,0-18.03,6-25.98,17.46-7.95,11.46-5.3,26.55-5.3,26.55"/><polygon class="af" points="81.14 44.01 81.53 52.48 156.99 51.83 156.86 41.67 117.76 34.89 81.14 44.01"/><path class="s" d="M150.9,50.91s1.82-1.96,5.17-1.42c4.82,.78,.65,13.55,.65,13.55,0,0,.52,6.26-2.22,7.3s-5.21-6.39-5.21-6.39l1.61-13.05Z"/><path class="s" d="M86.81,50.91s-1.82-1.96-5.17-1.42c-4.82,.78-.65,13.55-.65,13.55,0,0-.52,6.26,2.22,7.3,2.74,1.04,5.21-6.39,5.21-6.39l-1.61-13.05Z"/><rect class="q" x="96.89" y="91.6" width="45.26" height="37.15"/><polygon class="p" points="124.64 661.87 181.11 664.99 189.25 393.22 120.25 394.05 124.64 661.87"/><path class="t" d="M176.26,676.96s6.3-7.03,7.03-12.23c.73-5.2,1.32-98.07,1.32-98.07l-61.69,.37s.5,94.32,1.47,98.48c.97,4.16,7.03,9.63,7.03,9.63l44.84,1.82Z"/><polygon class="x" points="184.4 601.3 184.24 627.08 123.35 626.97 123.14 601.19 184.4 601.3"/><polygon class="x" points="186.92 486.26 185.9 513.69 122.2 513.32 121.69 485.9 186.92 486.26"/><path d="M178.09,674.72s-1.37,20.36-3.84,42.79c-2.46,22.43-40.23,17.65-41.33,2.65-1.1-15-3.22-46.45-3.22-46.45l48.38,1.01Z"/><path d="M127.2,701.6h53.47v24.77c0,14.76-11.98,26.73-26.73,26.73h0c-14.76,0-26.73-11.98-26.73-26.73v-24.77h0Z" transform="translate(307.87 1454.71) rotate(180)"/><path class="p" d="M187.92,381.35l-141.4,.36,5.42-82.45-2.41-118.97c0-33.31,1.2-58.96,39.66-58.96l57.85,.42c46.63,1.7,38.19,25.23,38.19,58.54l-2.38,118.97,5.06,82.09Z"/><path class="p" d="M215.79,383.56l-33.9-10.43s19.74-84.48,16.72-99.44c-1.64-8.14-9.51-58.73-22.31-96.43-12.05-35.51-29.74-50.71-29.74-50.71l23.23-.99c26.69-1.13,49.97,17.95,54.13,44.33l16.12,110.59-24.26,103.08Z"/><path class="p" d="M88.03,123.32l-1.27-20.98s23.32,5.47,33.5,5.47,30.1-4.56,30.1-4.56l.42,20.07-33.92,5.47-28.83-5.47Z"/><polygon class="p" points="189.25 394.79 50.3 402.07 50.6 373.44 189.51 370.05 189.25 394.79"/><polygon class="p" points="114.97 663.24 58.49 666.37 50.41 392.05 119.35 395.42 114.97 663.24"/><polygon class="t" points="187.92 381.35 182.86 299.26 121.02 283.71 51.94 299.26 46.52 381.71 187.92 381.35"/><polygon class="x" points="182.86 299.26 121.02 283.71 51.94 299.26 51.58 281.54 120.29 265.27 183.31 281.99 182.86 299.26"/><polygon class="x" points="186.21 353.81 121.02 335.82 48.33 352.87 49.74 334.11 120.29 317.38 185.04 335.52 186.21 353.81"/><path class="x" d="M180.14,125.33l4.56,81.56s17.25-68.54,18.39-73.38c-11.1-7.4-22.95-8.18-22.95-8.18Z"/><polygon class="t" points="218.93 278.12 198.95 275.35 182.92 374.88 201.92 379.43 218.93 278.12"/><polygon class="x" points="190.2 230.64 193.31 248.08 234.17 238.75 231.4 219.95 190.2 230.64"/><polygon class="x" points="191.3 316.33 187.96 331.46 227.3 339.34 230.54 323.61 191.3 316.33"/><path class="p" d="M24.26,383.56l33.9-10.43s-19.74-84.48-16.72-99.44c1.64-8.14,9.51-58.73,22.31-96.43,12.05-35.51,29.74-50.71,29.74-50.71l-23.23-.99c-26.69-1.13-49.97,17.95-54.13,44.33L0,280.48l24.26,103.08Z"/><path class="x" d="M59.91,125.33l-4.56,81.56s-17.25-68.54-18.39-73.38c11.1-7.4,22.95-8.18,22.95-8.18Z"/><polygon class="t" points="21.11 278.12 41.1 275.35 57.13 374.88 38.13 379.43 21.11 278.12"/><polygon class="x" points="49.84 230.64 46.74 248.08 5.88 238.75 8.65 219.95 49.84 230.64"/><polygon class="x" points="48.74 316.33 52.09 331.46 12.75 339.34 9.51 323.61 48.74 316.33"/><path class="t" d="M63.34,678.34s-6.3-7.03-7.03-12.23c-.73-5.2-1.32-98.07-1.32-98.07l61.69,.37s-.5,94.32-1.47,98.48c-.97,4.16-7.03,9.63-7.03,9.63l-44.84,1.82Z"/><polygon class="x" points="55.2 602.68 55.36 628.46 116.26 628.35 116.46 602.57 55.2 602.68"/><polygon class="x" points="52.68 487.64 53.7 515.07 117.4 514.7 117.91 487.27 52.68 487.64"/><path class="aa" d="M77.21,414.12l-27.53,59.65s2.09,1.79,7.76,2.39c5.67,.6,22.49-2.94,22.49-2.94l.34-58.24-3.07-.85Z"/><path d="M61.51,676.1s1.37,20.36,3.84,42.79c2.46,22.43,40.23,17.65,41.33,2.65,1.1-15,3.22-46.45,3.22-46.45l-48.38,1.01Z"/><path d="M85.67,702.98h0c14.76,0,26.73,11.98,26.73,26.73v24.77H58.93v-24.77c0-14.76,11.98-26.73,26.73-26.73Z"/><path class="t" d="M87.17,109.3l-.41-6.96s23.32,5.47,33.5,5.47,30.1-4.56,30.1-4.56l.14,6.75s-15.83,5.22-30.66,5.22-32.67-5.93-32.67-5.93Z"/><line class="e" x1="119.23" y1="108.08" x2="119.95" y2="381.25"/><path class="ac" d="M135.76,309.15l.58,46.51,38.37,5.23,.84-6.27-4.88-8.87-32.59-38.37s-2.31,2.36-2.31,1.78Z"/><path class="t" d="M137.15,304.82l.58,46.51,38.37,5.23v-45.64s-38.95-5.52-38.95-6.1Z"/><polygon class="x" points="137.5 321.02 137.73 338.65 176.06 348.08 176.13 330.36 137.5 321.02"/><path class="ac" d="M104.27,308.46l-.58,46.51-38.37,5.23-.84-6.27,4.88-8.87,32.59-38.37s2.31,2.36,2.31,1.78Z"/><path class="t" d="M102.88,304.13l-.58,46.51-38.37,5.23v-45.64s38.95-5.52,38.95-6.1Z"/><polygon class="x" points="102.53 320.33 102.3 337.97 63.97 347.39 63.9 329.67 102.53 320.33"/><ellipse class="s" cx="118.9" cy="60.09" rx="34.25" ry="47.11"/><path class="ag" d="M117.24,55.35s-4.95,16.03-3.39,19.94c1.56,3.91,9.25,0,9.25,0"/><path class="ag" d="M112.42,82.98s7.69,4.17,13.68-.78"/><path class="af" d="M148.16,30.44s-28.92,4.56-37.96-19l20.29-.89,13.44,7,4.78,13.24"/><path class="x" d="M479.11,481.01c-2.76,0-8.74,3.45-14.71,8.28-12.64,25.98,1.38,48.74,1.38,48.74l19.54-.23s-17.93-16.32-6.21-56.79Z"/><path class="n" d="M525.06,696.91l3.77,44.31s-1.32,10.22,12.22,10.77c13.54,.55,70.35,1.69,70.35,1.69,0,0,4.15-9.84-3.02-11.67s-44-8.22-49.33-12.67l-.67-33.78-33.33,1.35Z"/><polygon class="ab" points="525.06 696.91 523.98 685.24 558.38 683.59 558.38 695.55 525.06 696.91"/><line class="f" x1="558.52" y1="702.51" x2="525.65" y2="703.85"/><line class="f" x1="558.52" y1="709.45" x2="526.24" y2="710.77"/><path class="n" d="M419.58,722.67l-1.84,37.11s6.46,4.9,6.21,9.23c-.25,4.33-1.5,8.22-6.21,8.22h-38.65c-4.7,0-3.96-3.89-4.21-8.22s12.12-9.23,12.12-9.23l-1.97-37.11"/><path class="y" d="M392.98,759.28c6.06-3.05,13.68-2.82,19.79,0-6.71-.06-13.04-.33-19.79,0h0Z"/><polygon class="ab" points="385.04 722.67 383.71 701.42 420.51 699.72 419.62 722.67 385.04 722.67"/><line class="f" x1="419.37" y1="731.75" x2="385.84" y2="732.25"/><path class="s" d="M189.15,394.11c.06-.17,.02-5.3,.06-.17,0,.27,.77,.48,1.2,1.86,2.33,7.38-.41,19.91-.41,19.91,0,0-1.4,7.99-3.72,11.69-2.32,3.71-.8,8.49,3.41,5.98,4.21-2.51,14.68-15.66,18.18-31.89,1.18-5.47,1.15-11.14,.6-16.26-.15-1.41-.34-2.77-.56-4.08l-18.48-4.7-.12,5.26"/><line class="f" x1="418.82" y1="738.24" x2="386.32" y2="738.72"/><polygon class="u" points="208.51 384.91 207.98 381.16 189.44 376.44 189.44 382.46 208.51 384.91"/><g><rect class="m" x="50.39" y="374.42" width="10.2" height="19.07" transform="translate(-22.81 3.99) rotate(-3.42)"/><rect class="ae" x="42.05" y="388.51" width="30.14" height="53.31" rx="9.14" ry="9.14" transform="translate(-24.67 4.15) rotate(-3.42)"/><ellipse class="m" cx="56.6" cy="404.17" rx="7.44" ry="8.32" transform="translate(-24.01 4.1) rotate(-3.42)"/></g><g><rect x="65.76" y="142.38" width="23.8" height="50.16" transform="translate(-16.18 8.5) rotate(-5.67)"/><rect class="l" x="67.76" y="147.03" width="16.69" height="9.35" transform="translate(-14.63 8.27) rotate(-5.67)"/><circle class="v" cx="71.41" cy="163.17" r="1.87"/><circle class="o" cx="78.29" cy="171.58" r="3.54"/><circle class="v" cx="77.25" cy="162.59" r="1.87"/><circle class="v" cx="83.1" cy="162.01" r="1.87"/><rect x="81.88" y="117.22" width="2.95" height="25.73" transform="translate(-12.45 8.88) rotate(-5.67)"/><line class="d" x1="71.81" y1="182" x2="86.21" y2="180.57"/><line class="d" x1="72.04" y1="184.27" x2="86.44" y2="182.83"/><line class="d" x1="72.26" y1="186.53" x2="86.66" y2="185.1"/><line class="d" x1="72.49" y1="188.8" x2="86.89" y2="187.37"/></g><g><polygon class="ad" points="167.55 362.63 158.21 312.98 155.43 313.16 165.62 362.25 167.55 362.63"/><g><path class="ad" d="M164.68,306.84l2.88,55.8s-12.47,.18-15.64-2.44c-2.58-2.14-4.2-14.89-1.22-18.86,2.61-3.48,12.04-5.31,12.04-5.31l-.16-3.06s-9.47-1.12-12.24-3.09c-2.76-1.97-4.04-15.57-.98-19.04,3.06-3.46,15.32-3.99,15.32-3.99Z"/><path d="M162.86,309l.96,22.16s-9.34-.7-12.13-2.97c-2.79-2.28-3.68-13.71-.6-16.41,3.09-2.7,11.77-2.78,11.77-2.78Z"/><path d="M165.5,360.21l-1.33-22.14s-9.22,1.65-11.76,4.2c-2.54,2.55-2.26,14.01,1.09,16.38,3.35,2.37,11.99,1.55,11.99,1.55Z"/></g></g><g><g><path class="t" d="M542.86,535.7s12.32,3.37,21.85,5.58c9.53,2.22,17.53,2.61,19.4,1.82,1.87-.79,5.03-3.94,.37-6.46-4.66-2.52-20.73-4.08-13.67-5.28,7.06-1.21,17.88,3.33,17.88,3.33,0,0,6.96,2.55,9.9,5.38,2.94,2.83,7.51,2.04,5.98-2.47-1.53-4.52-11.58-16.76-25.61-22.59-14.03-5.83-34.25-1.77-34.25-1.77l-1.87,22.46Z"/><path class="p" d="M568.33,542.06c7.88,1.53,14.16,1.74,15.79,1.05,1.87-.79,5.1-4.34-.13-5.02-3.8-.49-9.95-1.48-13.51-2.43"/><path class="p" d="M543.84,523.92l.89-10.68s12.63-2.64,23.19-.93l-1.14,8.73-22.94,2.88Z"/><path class="p" d="M591.26,522.27c-3.57-2.77-7.71-5.35-12.28-7.25-1.3-.54-2.65-1-4.04-1.38l-1.96,8.48,15.46,5.69,2.82-5.54c1.4,1.09,0,0,0,0Z"/><path class="p" d="M603.27,541.6c1.32-.41,2.08-1.73,1.32-3.99-.84-2.47-4.21-7.24-9.39-12.01l-3.14,4.7,11.22,11.31Z"/></g><path class="p" d="M567.16,513.88l-40.32,5.71s-13.82-99.24-16.42-112.94c-1.41-7.45-7.87-53.76-19.61-88.29-11.05-32.52-28.28-46.47-28.28-46.47l23.21-.85c26.66-.97,49.38,16.53,52.8,40.68l13.05,101.23,15.57,100.93Z"/><polygon class="t" points="522.69 401.19 510.42 406.65 526.84 519.59 540.08 517.72 522.69 401.19"/><polygon class="x" points="504.75 373.59 507.55 389.52 547.48 380.93 545.27 363.42 504.75 373.59"/><polygon class="x" points="516.69 448.6 518.77 462.6 558.35 456.05 555.97 441.58 516.69 448.6"/><path class="p" d="M361.64,409.03c.32-7.71,4.32-55.07,13.77-91.05,8.89-33.89,25.17-49.59,25.17-49.59l-23.21,1.28c-26.67,1.48-48.18,21.27-50,46l-6.37,103.53"/><polygon class="x" points="366.25 368.53 364.69 384.91 323.19 380.16 324.3 362.56 366.25 368.53"/><polygon class="a`" points="397.03 185.71 397.42 194.18 472.88 193.53 472.75 183.36 433.65 176.58 397.03 185.71"/><path class="ab" d="M466.79,192.6s1.82-1.96,5.17-1.42c4.82,.78,.65,13.55,.65,13.55,0,0,.52,6.26-2.22,7.3-2.74,1.04-5.21-6.39-5.21-6.39l1.61-13.05Z"/><path class="ab" d="M402.7,192.6s-1.82-1.96-5.17-1.42c-4.82,.78-.65,13.55-.65,13.55,0,0-.52,6.26,2.22,7.3s5.21-6.39,5.21-6.39l-1.61-13.05Z"/><rect class="w" x="412.77" y="233.29" width="45.26" height="37.15"/><polygon class="x" points="502.81 491.2 501.79 516.61 438.09 516.27 437.58 490.86 502.81 491.2"/><path class="p" d="M503.81,504.61l-141.4,.34,5.42-76.39-2.41-110.22c0-30.86,1.2-54.63,39.66-54.63l57.85,.39c46.63,1.57,38.19,23.37,38.19,54.23l-2.38,110.22,5.06,76.06Z"/><path class="p" d="M403.92,265.54l-1.27-19.44s23.32,5.07,33.5,5.07,30.1-4.23,30.1-4.23l.42,18.6-33.92,5.07-28.83-5.07Z"/><polygon class="p" points="504.65 537.81 366.19 538.21 366.49 498.81 505.4 494.15 504.65 537.81"/><polygon class="t" points="503.81 504.61 498.74 428.55 436.9 414.15 367.83 428.55 362.41 504.95 503.81 504.61"/><polygon class="x" points="498.74 428.55 436.9 414.15 367.83 428.55 367.47 412.14 436.18 397.06 499.2 412.56 498.74 428.55"/><polygon class="x" points="502.1 479.09 436.9 462.43 364.22 478.22 365.63 460.84 436.18 445.34 500.93 462.15 502.1 479.09"/><path class="t" d="M403.06,252.55l-.41-6.45s23.32,5.07,33.5,5.07,30.1-4.23,30.1-4.23l.14,6.26s-15.83,4.84-30.66,4.84-32.67-5.49-32.67-5.49Z"/><path class="x" d="M485.74,271.04l13.35,74.73s9.92-66.01,10.43-70.55c-11.94-5.14-23.78-4.18-23.78-4.18Z"/><line class="e" x1="435.12" y1="251.43" x2="435.84" y2="504.52"/><path class="ac" d="M451.65,437.72l.58,43.09,38.37,4.85,.84-5.81-4.88-8.22-32.59-35.55s-2.31,2.18-2.31,1.64Z"/><path class="t" d="M453.04,433.7l.58,43.09,38.37,4.85v-42.28s-38.95-5.12-38.95-5.66Z"/><polygon class="x" points="453.39 448.71 453.62 465.05 491.94 473.79 492.01 457.37 453.39 448.71"/><path class="ac" d="M420.16,437.08l-.58,43.09-38.37,4.85-.84-5.81,4.88-8.22,32.59-35.55s2.31,2.18,2.31,1.64Z"/><path class="t" d="M418.77,433.07l-.58,43.09-38.37,4.85v-42.28s38.95-5.12,38.95-5.66Z"/><polygon class="x" points="418.41 448.08 418.19 464.42 379.86 473.15 379.79 456.73 418.41 448.08"/><ellipse class="ab" cx="434.79" cy="201.79" rx="34.25" ry="47.11"/><path class="ah" d="M433.13,197.05s-4.95,16.03-3.39,19.94c1.56,3.91,9.25,0,9.25,0"/><ellipse class="ai" cx="419.61" cy="195.86" rx="2.13" ry="3.4"/><ellipse class="ai" cx="449.5" cy="195.75" rx="2.13" ry="3.4"/><path class="h" d="M407.97,188.84s7.17-5.08,18.11-4.69"/><path class="h" d="M460.36,188.84s-7.17-5.08-18.11-4.69"/><path class="ah" d="M428.31,224.67s7.69,4.17,13.68-.78"/><path class="p" d="M509.34,672.94l56.53-1.88s-7.48-138.8-9.5-150.95c-13.68-104.75-117.66-11.31-117.66-11.31l56.15,23.42,14.49,140.71Z"/><path class="t" d="M562.1,683.41s5.66-7.56,5.92-12.8c.26-5.25-7.35-97.8-7.35-97.8l-61.41,5.82s8.83,93.9,10.16,97.96,7.85,8.97,7.85,8.97l44.83-2.15Z"/><polygon class="x" points="563.53 607.33 565.64 633.03 504.97 638.29 502.49 612.63 563.53 607.33"/><path class="p" d="M320.54,418.31l78.13,82.78,26.35-27.56s-64.12-58.36-63.83-65.39"/><polygon class="t" points="341.35 414.14 361.09 408.57 425.05 473.46 410.9 488.58 341.35 414.14"/><polygon class="x" points="379.32 426.46 389.88 436.28 362.06 463.24 351.29 452.91 379.32 426.46"/><g><path class="t" d="M394.23,482.26s7.59,10.28,13.7,17.92c6.11,7.64,12.15,12.91,14.1,13.45,1.96,.54,6.39,.02,4.29-4.84-2.1-4.86-13.75-16.04-7.45-12.61,6.29,3.43,11.98,13.69,11.98,13.69,0,0,3.88,6.31,4.44,10.36,.55,4.04,4.63,6.26,6.23,1.76,1.6-4.49,1.29-20.33-6.11-33.59-7.4-13.27-25.79-22.61-25.79-22.61l-15.38,16.48Z"/><path class="p" d="M410.29,503.02c5.24,6.08,10.04,10.14,11.74,10.6,1.96,.54,6.69-.25,3.01-4.02-2.68-2.74-6.89-7.32-9.11-10.28"/><path class="p" d="M402.3,473.61l7.31-7.83s11.55,5.75,18.78,13.63l-6.3,6.15-19.79-11.95Z"/><path class="p" d="M440.56,501.69c-1.08-4.38-2.74-8.98-5.15-13.3-.69-1.23-1.47-2.42-2.32-3.58l-6.79,5.44,8.62,14.04,5.64-2.6c.43,1.73,0,0,0,0Z"/><path class="p" d="M438.01,524.3c1.29,.5,2.71-.07,3.51-2.32,.87-2.45,1.18-8.29,.07-15.25l-5.38,1.74,1.8,15.83Z"/></g><path class="p" d="M431.16,686.5l-56.47,3.12s-7.59-116.82-8.35-153.77c-5.71-75.05,67.43-87.24,77.33-26.67,1.9,19.05-12.5,177.31-12.5,177.31Z"/><path class="t" d="M379.53,701.59s-6.3-7.03-7.03-12.23c-.73-5.2-3.87-98.22-3.87-98.22l70.63-1.5s-6.89,96.34-7.86,100.51c-.97,4.16-7.03,9.63-7.03,9.63l-44.84,1.82Z"/><polygon class="x" points="369.38 625.95 370.13 652.25 434.75 651.75 436.75 625.45 369.38 625.95"/><path class="x" d="M367.05,270.45l2.6,75.66s-23.18-61.59-24.73-65.94c10.41-7.88,22.14-9.71,22.14-9.71Z"/></g><g><path class="j" d="M476.74,188.04s-11.01-8.81-41.09-8.3-41.14,8.3-41.14,8.3v-4.21c0-26.21,18.41-47.45,41.11-47.45h0c22.71,0,41.11,21.25,41.11,47.45v4.21Z"/><rect class="t" x="425.32" y="157.86" width="19.41" height="13.54"/><path class="t" d="M474.47,167.06c-1.79-.79-19-8.28-39.1-7.89-20.1,.39-37.31,6.84-39.37,8.42-2.34,5-1.93,11.97-1.93,11.97,0,0,19.14-9.99,41.02-9.99s41.71,10.12,41.71,10.12c0,0-.14-8.42-2.34-12.62Z"/></g><g><g><path class="r" d="M83.39,45.67l70.71,.22s-.63,16.51-4.17,20.52c-2.88,3.26-19.1,4.48-23.92,.25-4.22-3.71-5.34-11.67-5.34-11.67l-4.98,.13s-1.51,7.66-4.19,11.17c-2.68,3.51-19.96,4.22-24.13-.07-4.17-4.29-3.99-20.56-3.99-20.56Z"/><path class="r" d="M86,48.23l28.07,.33s-1.52,12.31-4.59,15.83c-3.07,3.52-17.58,3.89-20.78-.39-3.2-4.28-2.7-15.77-2.7-15.77Z"/><path class="r" d="M150.9,48.43l-28.08,.16s1.46,12.32,4.5,15.86c3.05,3.54,17.56,3.99,20.78-.26s2.79-15.75,2.79-15.75Z"/></g><ellipse class="ai" cx="103.73" cy="54.17" rx="2.13" ry="3.4"/><ellipse class="ai" cx="133.61" cy="54.06" rx="2.13" ry="3.4"/><path class="g" d="M92.09,47.14s7.17-5.08,18.11-4.69"/><path class="g" d="M144.48,47.14s-7.17-5.08-18.11-4.69"/></g><g><ellipse class="i" cx="435.4" cy="324.41" rx="15.04" ry="13.94"/><path class="t" d="M367.06,400.31s53.25-6.47,67.7-6.66,64.78,7.1,64.78,7.1l.53-19.59-17.67-57.73,11.38-56.34-20.85-2.12-11.8,52.91-18.71-1.25-.3,15.82,19.61,.97,4.49,.28,13.78,45.52s-28.12-4.7-44.04-4.72c-15.92-.02-51.23,5.83-51.23,5.83l20.97-45.8,22.53-2.38-.11-15.49-23.33,1.22-9.65-53.43-21.2,2.64,12.28,59.12-19.3,55.72,.12,18.39Z"/><polygon class="k" points="444.63 374.02 443.81 395.13 468.72 397.87 469.87 377.06 444.63 374.02"/></g><g><path d="M178.09,674.72s-1.37,20.36-3.84,42.79c-2.46,22.43-40.23,17.65-41.33,2.65-1.1-15-3.22-46.45-3.22-46.45l48.38,1.01Z"/><path d="M127.2,701.6h53.47v24.77c0,14.76-11.98,26.73-26.73,26.73h0c-14.76,0-26.73-11.98-26.73-26.73v-24.77h0Z" transform="translate(307.87 1454.71) rotate(180)"/></g><path d="M61.51,676.1s1.37,20.36,3.84,42.79c2.46,22.43,40.23,17.65,41.33,2.65,1.1-15,3.22-46.45,3.22-46.45l-48.38,1.01Z"/><path d="M85.67,702.98h0c14.76,0,26.73,11.98,26.73,26.73v24.77H58.93v-24.77c0-14.76,11.98-26.73,26.73-26.73Z"/><path class="p" d="M41.54,414.82l3.88,57.93s2.09,1.79,7.76,2.39c5.67,.6,23.59-3.28,23.59-3.28l.6-58.52-35.83,1.49Z"/></g></g></svg>