<?xml version="1.0" encoding="UTF-8"?><svg xmlns="http://www.w3.org/2000/svg" viewBox="0 0 278.23 225.41"><defs><style>.d{fill:#19192d;font-size:22.73px;}.d,.e{font-family:Gilroy-Bold, Gilroy-Bold;}.f{letter-spacing:.1em;}.g{letter-spacing:.1em;}.h{font-family:Gilroy-Medium, Gilroy-Medium;font-size:31.28px;}.h,.i{fill:#e9a72d;}.j{letter-spacing:-.03em;}.k{fill:#fff;}.l{fill:#fbedd5;}.m{fill:#2e2e4f;}.n{letter-spacing:0em;}.o{letter-spacing:.03em;}.p{letter-spacing:.03em;}.q{letter-spacing:.03em;}.r{opacity:.2;}.s{letter-spacing:0em;}.t{letter-spacing:.03em;}.u{letter-spacing:.03em;}.v{letter-spacing:0em;}.w{letter-spacing:.03em;}.x{fill:none;stroke:#111;stroke-linecap:round;stroke-linejoin:round;stroke-width:3px;}.y{letter-spacing:.02em;}.e{fill:#fcfcfc;font-size:31px;}</style></defs><g id="a"/><g id="b"><g id="c"><g><g><rect class="m" x="23.17" y="-16.44" width="218.68" height="265.02" rx="31.86" ry="31.86" transform="translate(16.44 248.58) rotate(-90)"/><text class="h" transform="translate(77.45 97.4)"><tspan class="q" x="0" y="0">O4</tspan><tspan class="n" x="45.04" y="0">D</tspan><tspan class="q" x="67.81" y="0">3</tspan><tspan class="j" x="85.48" y="0">6</tspan><tspan class="q" x="101.37" y="0">7</tspan></text><text class="e" transform="translate(24.22 59.72)"><tspan class="v" x="0" y="0">R</tspan><tspan class="y" x="19.19" y="0">o</tspan><tspan class="s" x="38.19" y="0">t</tspan><tspan class="o" x="50.34" y="0">or b</tspan><tspan class="u" x="110.67" y="0">e</tspan><tspan class="p" x="129.49" y="0">arin</tspan><tspan class="w" x="189.19" y="0">g</tspan><tspan class="o" x="209.4" y="0">s</tspan></text></g><g><rect class="i" x="36.92" y="146.92" width="195.26" height="35.34" rx="16.42" ry="16.42"/><g class="r"><path class="l" d="M215.25,140.8c12.21,0,22.12,9.9,22.12,22.12v3.35c0,12.21-9.9,22.12-22.12,22.12H52.6c-12.21,0-22.12-9.9-22.12-22.12v-3.35c0-12.21,9.9-22.12,22.12-22.12H215.25m0-17H52.6c-21.57,0-39.12,17.55-39.12,39.12v3.35c0,21.57,17.55,39.12,39.12,39.12H215.25c21.57,0,39.12-17.55,39.12-39.12v-3.35c0-21.57-17.55-39.12-39.12-39.12h0Z"/></g><text class="d" transform="translate(91.8 172.74)"><tspan class="g" x="0" y="0">RE</tspan><tspan class="t" x="30.54" y="0">P</tspan><tspan class="f" x="44.61" y="0">AIR</tspan></text></g><g><circle class="k" cx="257.63" cy="20.6" r="20.6"/><line class="x" x1="250.55" y1="27.68" x2="264.7" y2="13.53"/><line class="x" x1="264.7" y1="27.68" x2="250.55" y2="13.53"/></g></g></g></g></svg>