<?xml version="1.0" encoding="UTF-8"?><svg xmlns="http://www.w3.org/2000/svg" viewBox="0 0 278.23 225.41"><defs><style>.d{fill:#19192d;font-size:22.73px;}.d,.e{font-family:Gilroy-Bold, Gilroy-Bold;}.f{letter-spacing:.1em;}.g{letter-spacing:.1em;}.h{font-family:Gilroy-Medium, Gilroy-Medium;font-size:31.28px;}.h,.i{fill:#e9a72d;}.j{letter-spacing:0em;}.k{fill:#fff;}.l{fill:#fbedd5;}.m{fill:#2e2e4f;}.n{letter-spacing:.02em;}.o{letter-spacing:.03em;}.p{letter-spacing:.03em;}.q{opacity:.2;}.r{letter-spacing:0em;}.s{letter-spacing:.03em;}.t{letter-spacing:.03em;}.u{fill:none;stroke:#111;stroke-linecap:round;stroke-linejoin:round;stroke-width:3px;}.v{letter-spacing:.02em;}.e{fill:#fcfcfc;font-size:31px;}</style></defs><g id="a"/><g id="b"><g id="c"><g><g><rect class="m" x="23.17" y="-16.44" width="218.68" height="265.02" rx="31.86" ry="31.86" transform="translate(16.44 248.58) rotate(-90)"/><text class="h" transform="translate(85.02 97.4)"><tspan class="n" x="0" y="0">O</tspan><tspan class="p" x="25.65" y="0">1Z8</tspan><tspan class="r" x="73.38" y="0">8</tspan><tspan class="p" x="90.43" y="0">1</tspan></text><text class="e" transform="translate(20.71 59.72)"><tspan class="o" x="0" y="0">M</tspan><tspan class="v" x="26.19" y="0">o</tspan><tspan class="j" x="45.2" y="0">t</tspan><tspan class="o" x="57.35" y="0">or b</tspan><tspan class="t" x="117.67" y="0">e</tspan><tspan class="o" x="136.49" y="0">arin</tspan><tspan class="t" x="196.2" y="0">g</tspan><tspan class="o" x="216.41" y="0">s</tspan></text></g><g><rect class="i" x="36.92" y="146.92" width="195.26" height="35.34" rx="16.42" ry="16.42"/><g class="q"><path class="l" d="M215.25,140.8c12.21,0,22.12,9.9,22.12,22.12v3.35c0,12.21-9.9,22.12-22.12,22.12H52.6c-12.21,0-22.12-9.9-22.12-22.12v-3.35c0-12.21,9.9-22.12,22.12-22.12H215.25m0-17H52.6c-21.57,0-39.12,17.55-39.12,39.12v3.35c0,21.57,17.55,39.12,39.12,39.12H215.25c21.57,0,39.12-17.55,39.12-39.12v-3.35c0-21.57-17.55-39.12-39.12-39.12h0Z"/></g><text class="d" transform="translate(91.8 172.74)"><tspan class="g" x="0" y="0">RE</tspan><tspan class="s" x="30.54" y="0">P</tspan><tspan class="f" x="44.61" y="0">AIR</tspan></text></g><g><circle class="k" cx="257.63" cy="20.6" r="20.6"/><line class="u" x1="250.55" y1="27.68" x2="264.7" y2="13.53"/><line class="u" x1="264.7" y1="27.68" x2="250.55" y2="13.53"/></g></g></g></g></svg>