<?xml version="1.0" encoding="UTF-8"?><svg xmlns="http://www.w3.org/2000/svg" viewBox="0 0 278.23 225.41"><defs><style>.d{fill:#19192d;font-size:22.73px;}.d,.e{font-family:Gilroy-Bold, Gilroy-Bold;}.f{letter-spacing:.1em;}.g{letter-spacing:.1em;}.h{font-family:Gilroy-Medium, Gilroy-Medium;font-size:31.28px;}.h,.i{fill:#e9a72d;}.j{letter-spacing:.03em;}.k{fill:#fff;}.l{fill:#fbedd5;}.m{fill:#2e2e4f;}.n{letter-spacing:.01em;}.o{letter-spacing:.03em;}.p{letter-spacing:.03em;}.q{letter-spacing:.03em;}.e{fill:#fcfcfc;font-size:33.99px;}.r{opacity:.2;}.s{letter-spacing:0em;}.t{letter-spacing:.03em;}.u{letter-spacing:.03em;}.v{fill:none;stroke:#111;stroke-linecap:round;stroke-linejoin:round;stroke-width:3px;}</style></defs><g id="a"/><g id="b"><g id="c"><g><g><rect class="m" x="23.17" y="-16.44" width="218.68" height="265.02" rx="31.86" ry="31.86" transform="translate(16.44 248.58) rotate(-90)"/><text class="h" transform="translate(82.63 97.4)"><tspan class="n" x="0" y="0">O</tspan><tspan class="q" x="25.34" y="0">2E</tspan><tspan class="n" x="60.27" y="0">8</tspan><tspan class="j" x="77.95" y="0">2</tspan><tspan class="q" x="95.21" y="0">1</tspan></text><text class="e" transform="translate(64.16 59.73)"><tspan class="o" x="0" y="0">G</tspan><tspan class="u" x="27.71" y="0">e</tspan><tspan class="p" x="48.34" y="0">arb</tspan><tspan class="s" x="106.06" y="0">o</tspan><tspan class="p" x="126.08" y="0">x</tspan></text></g><g><rect class="i" x="36.92" y="146.92" width="195.26" height="35.34" rx="16.42" ry="16.42"/><g class="r"><path class="l" d="M215.25,140.8c12.21,0,22.12,9.9,22.12,22.12v3.35c0,12.21-9.9,22.12-22.12,22.12H52.6c-12.21,0-22.12-9.9-22.12-22.12v-3.35c0-12.21,9.9-22.12,22.12-22.12H215.25m0-17H52.6c-21.57,0-39.12,17.55-39.12,39.12v3.35c0,21.57,17.55,39.12,39.12,39.12H215.25c21.57,0,39.12-17.55,39.12-39.12v-3.35c0-21.57-17.55-39.12-39.12-39.12h0Z"/></g><text class="d" transform="translate(91.8 172.74)"><tspan class="g" x="0" y="0">RE</tspan><tspan class="t" x="30.54" y="0">P</tspan><tspan class="f" x="44.61" y="0">AIR</tspan></text></g><g><circle class="k" cx="257.63" cy="20.6" r="20.6"/><line class="v" x1="250.55" y1="27.68" x2="264.7" y2="13.53"/><line class="v" x1="264.7" y1="27.68" x2="250.55" y2="13.53"/></g></g></g></g></svg>