<?xml version="1.0" encoding="UTF-8"?><svg xmlns="http://www.w3.org/2000/svg" viewBox="0 0 320.1 312.4"><defs><style>.e{fill:#fff;}.f{fill:#e9a72d;}.g{fill:#32325b;}.h{fill:none;stroke:#fff;stroke-linecap:round;stroke-linejoin:round;stroke-width:3.12px;}.i{fill:#232323;isolation:isolate;opacity:.5;}</style></defs><g id="a"/><g id="b"><g id="c"><g id="d"><g><path class="g" d="M320.1,31.9v248.6c0,17.6-14.3,31.9-31.9,31.9H31.9c-17.6-.1-31.9-14.4-31.9-32V31.9C0,14.3,14.3,0,31.9,0H288.3c17.5,0,31.8,14.3,31.8,31.9Z"/><path class="i" d="M320.1,31.9v248.6c0,17.6-14.3,31.9-31.9,31.9H31.9c-17.6-.1-31.9-14.4-31.9-32V31.9C0,14.3,14.3,0,31.9,0H288.3c17.5,0,31.8,14.3,31.8,31.9Z"/><g><path class="e" d="M106.8,226v1.9h-4.5v13.1h-2v-13.2h-4.4v-1.8h10.9Z"/><path class="e" d="M114.6,230c1.3,0,2.3,.4,3,1.2s1.1,1.9,1.1,3.2v6.6h-1.9v-6.5c0-.9-.2-1.6-.7-2-.5-.5-1.1-.7-2-.7s-1.7,.3-2.3,.9c-.6,.6-.9,1.5-.9,2.7v5.7h-1.9v-15.1h1.9v5.9c1-1.3,2.1-1.9,3.7-1.9Z"/><path class="e" d="M123.3,236.5c.2,1,.6,1.7,1.3,2.2,.7,.5,1.6,.8,2.6,.8,1.4,0,2.5-.5,3.1-1.6l1.6,.9c-1,1.6-2.6,2.4-4.7,2.4-1.7,0-3.1-.5-4.2-1.6s-1.6-2.4-1.6-4.1c0-1.6,.5-3,1.6-4,1-1.1,2.4-1.6,4.1-1.6,1.6,0,2.9,.6,3.9,1.7,1,1.1,1.5,2.4,1.5,4,0,.3,0,.6-.1,.8h-9.1v.1Zm3.7-4.8c-1,0-1.8,.3-2.5,.8-.7,.6-1.1,1.3-1.2,2.3h7.2c-.2-1-.6-1.8-1.2-2.3-.6-.5-1.4-.8-2.3-.8Z"/><path class="e" d="M150.1,230.3h1.8v10.3c0,1.6-.5,2.8-1.6,3.7s-2.4,1.3-3.9,1.3c-1.2,0-2.2-.2-3.1-.7-.9-.5-1.5-1.1-2-1.9l1.6-.9c.6,1.2,1.8,1.8,3.5,1.8,1.1,0,2-.3,2.6-.9,.6-.6,1-1.4,1-2.4v-1.6c-.9,1.4-2.3,2.2-4,2.2-1.5,0-2.8-.5-3.9-1.6-1.1-1.1-1.6-2.4-1.6-4s.5-2.9,1.6-4,2.4-1.6,3.9-1.6c1.8,0,3.1,.7,4,2.1v-1.8h.1Zm-6.5,8c.7,.7,1.6,1.1,2.7,1.1s2-.4,2.7-1.1,1.1-1.6,1.1-2.7-.4-2-1.1-2.7-1.6-1.1-2.7-1.1-2,.4-2.7,1.1-1.1,1.6-1.1,2.7,.4,2,1.1,2.7Z"/><path class="e" d="M156.8,236.5c.2,1,.6,1.7,1.3,2.2s1.6,.8,2.6,.8c1.4,0,2.5-.5,3.1-1.6l1.6,.9c-1,1.6-2.6,2.4-4.7,2.4-1.7,0-3.1-.5-4.2-1.6-1.1-1.1-1.6-2.4-1.6-4.1,0-1.6,.5-3,1.6-4,1-1.1,2.4-1.6,4.1-1.6,1.6,0,2.9,.6,3.9,1.7,1,1.1,1.5,2.4,1.5,4,0,.3,0,.6-.1,.8h-9.1v.1Zm3.7-4.8c-1,0-1.8,.3-2.5,.8-.7,.6-1.1,1.3-1.2,2.3h7.2c-.2-1-.6-1.8-1.2-2.3-.7-.5-1.4-.8-2.3-.8Z"/><path class="e" d="M177.5,230.3h1.9v10.7h-1.9v-1.8c-.9,1.4-2.3,2.1-4.1,2.1-1.5,0-2.8-.5-3.8-1.6-1.1-1.1-1.6-2.4-1.6-4s.5-2.9,1.6-4,2.3-1.6,3.8-1.6c1.8,0,3.1,.7,4.1,2.1v-1.9Zm-3.8,9.2c1.1,0,2-.4,2.7-1.1s1.1-1.7,1.1-2.7-.4-2-1.1-2.7-1.6-1.1-2.7-1.1-2,.4-2.7,1.1-1.1,1.7-1.1,2.7,.4,2,1.1,2.7,1.6,1.1,2.7,1.1Z"/><path class="e" d="M184.8,232.1c.6-1.3,1.7-2,3.4-2v2c-.9,0-1.7,.2-2.4,.7s-1,1.4-1,2.6v5.7h-1.9v-10.8h1.9v1.8Z"/><path class="e" d="M196.5,230c1.5,0,2.8,.5,3.8,1.6,1.1,1.1,1.6,2.4,1.6,4s-.5,2.9-1.6,4-2.3,1.6-3.8,1.6c-1.8,0-3.1-.7-4.1-2.1v1.8h-1.9v-14.9h1.9v6.2c1-1.5,2.4-2.2,4.1-2.2Zm-.2,9.5c1.1,0,2-.4,2.7-1.1s1.1-1.7,1.1-2.7-.4-2-1.1-2.7-1.6-1.1-2.7-1.1-2,.4-2.7,1.1-1.1,1.7-1.1,2.7,.4,2,1.1,2.7,1.6,1.1,2.7,1.1Z"/><path class="e" d="M213.9,239.7c-1.1,1.1-2.4,1.6-4,1.6s-2.9-.5-4-1.6-1.6-2.4-1.6-4,.5-2.9,1.6-4,2.4-1.6,4-1.6,2.9,.5,4,1.6,1.7,2.4,1.7,4-.6,2.9-1.7,4Zm-4-.2c1.1,0,2-.4,2.7-1.1s1.1-1.6,1.1-2.7-.4-2-1.1-2.7-1.6-1.1-2.7-1.1-2,.4-2.7,1.1-1.1,1.6-1.1,2.7,.4,2,1.1,2.7,1.6,1.1,2.7,1.1Z"/><path class="e" d="M227,241h-2.2l-3-4.1-3,4.1h-2.2l4.1-5.5-3.9-5.2h2.2l2.8,3.7,2.8-3.7h2.2l-3.9,5.2,4.1,5.5Z"/><path class="e" d="M87.1,255.8c1.3,0,2.3,.4,3,1.2s1.1,1.9,1.1,3.2v6.6h-1.9v-6.5c0-.9-.2-1.6-.7-2-.5-.5-1.1-.7-2-.7s-1.7,.3-2.3,.9c-.6,.6-.9,1.5-.9,2.7v5.7h-1.9v-10.8h1.9v1.5c1-1.2,2.1-1.8,3.7-1.8Z"/><path class="e" d="M95.8,262.3c.2,1,.6,1.7,1.3,2.2,.7,.5,1.6,.8,2.6,.8,1.4,0,2.5-.5,3.1-1.6l1.6,.9c-1,1.6-2.6,2.4-4.7,2.4-1.7,0-3.1-.5-4.2-1.6s-1.6-2.4-1.6-4.1c0-1.6,.5-3,1.6-4,1-1.1,2.4-1.6,4.1-1.6,1.6,0,2.9,.6,3.9,1.7s1.5,2.4,1.5,4c0,.3,0,.6-.1,.8h-9.1v.1Zm3.8-4.7c-1,0-1.8,.3-2.5,.8-.7,.6-1.1,1.3-1.2,2.3h7.2c-.2-1-.6-1.8-1.2-2.3-.7-.6-1.5-.8-2.3-.8Z"/><path class="e" d="M109,262.3c.2,1,.6,1.7,1.3,2.2,.7,.5,1.6,.8,2.6,.8,1.4,0,2.5-.5,3.1-1.6l1.6,.9c-1,1.6-2.6,2.4-4.7,2.4-1.7,0-3.1-.5-4.2-1.6s-1.6-2.4-1.6-4.1c0-1.6,.5-3,1.6-4,1-1.1,2.4-1.6,4.1-1.6,1.6,0,2.9,.6,3.9,1.7s1.5,2.4,1.5,4c0,.3,0,.6-.1,.8h-9.1v.1Zm3.7-4.7c-1,0-1.8,.3-2.5,.8-.7,.6-1.1,1.3-1.2,2.3h7.2c-.2-1-.6-1.8-1.2-2.3-.7-.6-1.4-.8-2.3-.8Z"/><path class="e" d="M129.8,251.8h1.9v15.1h-1.9v-1.9c-.9,1.4-2.3,2.1-4.1,2.1-1.5,0-2.8-.5-3.8-1.6-1.1-1.1-1.6-2.4-1.6-4s.5-2.9,1.6-4,2.3-1.6,3.8-1.6c1.8,0,3.1,.7,4.1,2.1v-6.2Zm-3.9,13.5c1.1,0,2-.4,2.7-1.1,.7-.7,1.1-1.7,1.1-2.7s-.4-2-1.1-2.7-1.6-1.1-2.7-1.1-2,.4-2.7,1.1-1.1,1.7-1.1,2.7,.4,2,1.1,2.7,1.6,1.1,2.7,1.1Z"/><path class="e" d="M136.7,258.9c0,.4,.2,.7,.6,1,.4,.2,.9,.5,1.5,.6,.6,.2,1.2,.3,1.8,.5s1.1,.5,1.5,1,.6,1.1,.6,1.8c0,1-.4,1.8-1.1,2.3-.8,.6-1.7,.9-2.9,.9-1,0-1.9-.2-2.7-.7-.7-.5-1.3-1.1-1.6-1.8l1.6-.9c.2,.5,.5,.9,1,1.2,.5,.3,1,.5,1.7,.5,.6,0,1.1-.1,1.5-.4s.6-.6,.6-1.1c0-.4-.2-.7-.6-1-.4-.3-.9-.5-1.5-.6-.6-.2-1.2-.4-1.8-.5-.6-.2-1.1-.5-1.5-1s-.6-1-.6-1.8c0-.9,.4-1.7,1.1-2.3,.7-.6,1.6-.9,2.7-.9,.9,0,1.7,.2,2.3,.6,.7,.4,1.2,.9,1.5,1.6l-1.6,.9c-.4-.9-1.2-1.4-2.3-1.4-.5,0-1,.1-1.4,.4-.2,.4-.4,.7-.4,1.1Z"/><path class="e" d="M153.2,258.9c0,.4,.2,.7,.6,1,.4,.2,.9,.5,1.5,.6,.6,.2,1.2,.3,1.8,.5s1.1,.5,1.5,1,.6,1.1,.6,1.8c0,1-.4,1.8-1.1,2.3-.8,.6-1.7,.9-2.9,.9-1,0-1.9-.2-2.7-.7-.7-.5-1.3-1.1-1.6-1.8l1.6-.9c.2,.5,.5,.9,1,1.2,.5,.3,1,.5,1.7,.5,.6,0,1.1-.1,1.5-.4s.6-.6,.6-1.1c0-.4-.2-.7-.6-1-.4-.3-.9-.5-1.5-.6-.6-.2-1.2-.4-1.8-.5-.6-.2-1.1-.5-1.5-1s-.6-1-.6-1.8c0-.9,.4-1.7,1.1-2.3,.7-.6,1.6-.9,2.7-.9,.9,0,1.7,.2,2.3,.6,.7,.4,1.2,.9,1.5,1.6l-1.6,.9c-.4-.9-1.2-1.4-2.3-1.4-.5,0-1,.1-1.4,.4-.2,.4-.4,.7-.4,1.1Z"/><path class="e" d="M163.1,262.3c.2,1,.6,1.7,1.3,2.2s1.6,.8,2.6,.8c1.4,0,2.5-.5,3.1-1.6l1.6,.9c-1,1.6-2.6,2.4-4.7,2.4-1.7,0-3.1-.5-4.2-1.6-1.1-1.1-1.6-2.4-1.6-4.1,0-1.6,.5-3,1.6-4,1-1.1,2.4-1.6,4.1-1.6,1.6,0,2.9,.6,3.9,1.7s1.5,2.4,1.5,4c0,.3,0,.6-.1,.8h-9.1v.1Zm3.7-4.7c-1,0-1.8,.3-2.5,.8-.7,.6-1.1,1.3-1.2,2.3h7.2c-.2-1-.6-1.8-1.2-2.3-.7-.6-1.4-.8-2.3-.8Z"/><path class="e" d="M176.9,257.9c.6-1.3,1.7-2,3.4-2v2c-.9,0-1.7,.2-2.4,.7s-1,1.4-1,2.6v5.7h-1.9v-10.8h1.9v1.8Z"/><path class="e" d="M190.2,256.1h2l-4.3,10.8h-2.2l-4.3-10.8h2l3.4,8.7,3.4-8.7Z"/><path class="e" d="M195.4,254.1c-.4,0-.7-.1-.9-.4-.2-.2-.4-.5-.4-.9,0-.3,.1-.6,.4-.9,.2-.2,.5-.4,.9-.4,.3,0,.6,.1,.9,.4,.2,.3,.4,.5,.4,.9,0,.3-.1,.6-.4,.9-.2,.3-.5,.4-.9,.4Zm-.9,12.7v-10.8h1.9v10.8h-1.9Z"/><path class="e" d="M204.9,267.1c-1.6,0-3-.5-4-1.6-1.1-1.1-1.6-2.4-1.6-4s.5-3,1.6-4c1.1-1.1,2.4-1.6,4-1.6,1.1,0,2,.3,2.9,.8,.8,.5,1.5,1.2,1.9,2.1l-1.6,.9c-.3-.6-.7-1-1.3-1.4-.6-.3-1.2-.5-1.9-.5-1.1,0-2,.4-2.7,1.1s-1.1,1.6-1.1,2.7,.4,2,1.1,2.7,1.6,1.1,2.7,1.1c.7,0,1.4-.2,1.9-.5s1-.8,1.3-1.4l1.6,.9c-.5,.8-1.1,1.5-2,2s-1.8,.7-2.8,.7Z"/><path class="e" d="M213.2,254.1c-.4,0-.7-.1-.9-.4-.2-.2-.4-.5-.4-.9,0-.3,.1-.6,.4-.9,.2-.2,.5-.4,.9-.4,.3,0,.6,.1,.9,.4,.2,.3,.4,.5,.4,.9,0,.3-.1,.6-.4,.9s-.6,.4-.9,.4Zm-1,12.7v-10.8h1.9v10.8h-1.9Z"/><path class="e" d="M223,255.8c1.3,0,2.3,.4,3,1.2s1.1,1.9,1.1,3.2v6.6h-1.9v-6.5c0-.9-.2-1.6-.7-2-.5-.5-1.1-.7-2-.7s-1.7,.3-2.3,.9-.9,1.5-.9,2.7v5.7h-1.9v-10.8h1.9v1.5c.9-1.2,2.1-1.8,3.7-1.8Z"/><path class="e" d="M239.3,256.1h1.8v10.3c0,1.6-.5,2.8-1.6,3.7s-2.4,1.3-3.9,1.3c-1.2,0-2.2-.2-3.1-.7-.9-.5-1.5-1.1-2-1.9l1.6-.9c.6,1.2,1.8,1.8,3.5,1.8,1.1,0,2-.3,2.6-.9s1-1.4,1-2.4v-1.5c-.9,1.4-2.3,2.2-4,2.2-1.5,0-2.8-.5-3.9-1.6-1.1-1.1-1.6-2.4-1.6-4s.5-2.9,1.6-4,2.4-1.6,3.9-1.6c1.8,0,3.1,.7,4,2.1v-1.9h.1Zm-6.5,8c.7,.7,1.6,1.1,2.7,1.1s2-.4,2.7-1.1,1.1-1.6,1.1-2.7-.4-2-1.1-2.7-1.6-1.1-2.7-1.1-2,.4-2.7,1.1-1.1,1.6-1.1,2.7,.3,2,1.1,2.7Z"/></g><g><path class="f" d="M117.2,194.3c-2.9,2.9-6.5,4.4-10.7,4.4s-7.8-1.5-10.7-4.4c-2.9-2.9-4.4-6.5-4.4-10.7s1.5-7.8,4.4-10.7,6.5-4.4,10.7-4.4,7.8,1.5,10.7,4.4c2.9,2.9,4.4,6.5,4.4,10.7s-1.5,7.7-4.4,10.7Zm-18.8-2.7c2.2,2.2,4.8,3.3,8,3.3s5.9-1.1,8-3.3c2.2-2.2,3.2-4.9,3.2-8.1s-1.1-5.9-3.2-8.1c-2.2-2.2-4.8-3.3-8-3.3s-5.9,1.1-8,3.3c-2.2,2.2-3.2,4.9-3.2,8.1,0,3.2,1,5.9,3.2,8.1Z"/><path class="f" d="M125,198.1v-3.1l10.3-10.5c2.8-2.8,4.1-5.1,4.1-7.1,0-1.6-.5-2.9-1.5-3.8-1-.9-2.2-1.4-3.7-1.4-2.8,0-4.8,1.3-6,3.9l-3.3-1.9c.9-1.9,2.2-3.3,3.8-4.3s3.4-1.5,5.4-1.5c2.4,0,4.6,.8,6.4,2.4,1.8,1.6,2.7,3.8,2.7,6.5,0,2.9-1.7,6.2-5.2,9.6l-7.4,7.4h13.2v3.8h-18.8Z"/><path class="f" d="M153.8,194.5h13.6v3.7h-17.4v-29.2h17.2v3.7h-13.3v9h12.3v3.6h-12.3v9.2h-.1Z"/><path class="f" d="M187.1,183c1.4,.7,2.5,1.7,3.3,2.9s1.2,2.6,1.2,4.2c0,2.7-.9,4.8-2.8,6.3-1.9,1.5-4.3,2.3-7.2,2.3s-5.3-.8-7.2-2.3-2.8-3.6-2.8-6.3c0-1.6,.4-2.9,1.2-4.2,.8-1.2,1.9-2.2,3.3-2.9-2.4-1.5-3.6-3.6-3.6-6.4,0-2.6,.9-4.7,2.6-6.1,1.8-1.4,3.9-2.1,6.4-2.1s4.6,.7,6.4,2.1c1.8,1.4,2.6,3.5,2.6,6.1,.2,2.8-1,4.9-3.4,6.4Zm-5.4,12c1.9,0,3.4-.4,4.5-1.3,1.1-.9,1.7-2.1,1.7-3.8,0-1.6-.6-2.9-1.7-3.7-1.1-.9-2.6-1.3-4.5-1.3-1.8,0-3.3,.4-4.4,1.3-1.1,.9-1.7,2.1-1.7,3.7s.6,2.9,1.7,3.8c1,.8,2.5,1.3,4.4,1.3Zm0-22.9c-1.5,0-2.7,.4-3.7,1.2s-1.5,1.9-1.5,3.5c0,1.5,.5,2.6,1.5,3.4,1,.8,2.2,1.2,3.7,1.2,1.4,0,2.7-.4,3.7-1.2s1.5-2,1.5-3.4c0-1.5-.5-2.7-1.5-3.5s-2.2-1.2-3.7-1.2Z"/><path class="f" d="M195.2,198.1v-3.1l10.3-10.5c2.8-2.8,4.1-5.1,4.1-7.1,0-1.6-.5-2.9-1.5-3.8-1-.9-2.2-1.4-3.7-1.4-2.8,0-4.8,1.3-6,3.9l-3.3-1.9c.9-1.9,2.2-3.3,3.8-4.3s3.4-1.5,5.4-1.5c2.4,0,4.6,.8,6.4,2.4,1.8,1.6,2.7,3.8,2.7,6.5,0,2.9-1.7,6.2-5.2,9.6l-7.4,7.4h13.2v3.8h-18.8Z"/><path class="f" d="M224.9,168.9h3.3v29.2h-3.8v-25l-6.2,1.8-1-3.3,7.7-2.7Z"/></g><g><path class="e" d="M58.1,126.4h-11.7v6.9h11.3v5.5h-11.3v11.3h-5.8v-29.2h17.4v5.5h.1Z"/><path class="e" d="M79.1,129.3h5.4v20.9h-5.4v-2.5c-1.6,2-3.9,3-6.8,3s-5.2-1.1-7.2-3.2c-2-2.1-3-4.7-3-7.8s1-5.7,3-7.8,4.4-3.2,7.2-3.2,5.2,1,6.8,3v-2.4Zm-9.9,14.6c1.1,1.1,2.5,1.6,4.1,1.6s3.1-.5,4.1-1.6c1.1-1.1,1.6-2.5,1.6-4.2s-.5-3.1-1.6-4.2-2.5-1.6-4.1-1.6-3,.5-4.1,1.6-1.6,2.5-1.6,4.2,.5,3.1,1.6,4.2Z"/><path class="e" d="M104.4,129.3h5.4v20.9h-5.4v-2.3c-1.3,1.9-3.4,2.9-6.2,2.9-2.3,0-4.2-.8-5.7-2.3s-2.2-3.6-2.2-6.3v-12.8h5.4v12.1c0,1.4,.4,2.5,1.1,3.2,.8,.7,1.8,1.1,3,1.1,1.4,0,2.5-.4,3.3-1.3,.8-.9,1.3-2.2,1.3-3.9v-11.3h0Z"/><path class="e" d="M116,150.1v-30.4h5.4v30.4h-5.4Z"/><path class="e" d="M139.4,134.4h-4.7v8.7c0,.7,.2,1.3,.5,1.6,.4,.3,.9,.5,1.6,.6h2.6v4.9c-3.7,.4-6.3,.1-7.8-1s-2.3-3.1-2.3-6v-8.7h-3.6v-5.2h3.6v-4.2l5.4-1.6v5.8h4.7v5.1Z"/><path class="e" d="M167.7,125.5c-2.9-.2-4.4,1-4.4,3.5v.2h4.4v5.2h-4.4v15.7h-5.4v-15.7h-3v-5.2h3v-.2c0-2.9,.8-5.2,2.5-6.7,1.6-1.5,4.1-2.2,7.3-2v5.2h0Z"/><path class="e" d="M188.4,147.5c-2.1,2.1-4.8,3.2-7.8,3.2s-5.7-1.1-7.8-3.2-3.2-4.7-3.2-7.8,1.1-5.7,3.2-7.8,4.7-3.2,7.8-3.2,5.7,1.1,7.8,3.2,3.2,4.7,3.2,7.8-1.1,5.7-3.2,7.8Zm-11.9-3.7c1.1,1.1,2.4,1.6,4,1.6s3-.5,4-1.6c1.1-1.1,1.6-2.5,1.6-4.1s-.5-3-1.6-4.1-2.4-1.6-4-1.6-3,.5-4,1.6c-1.1,1.1-1.6,2.5-1.6,4.1s.6,3,1.6,4.1Z"/><path class="e" d="M210.4,129.3h5.4v20.9h-5.4v-2.3c-1.3,1.9-3.4,2.9-6.2,2.9-2.3,0-4.2-.8-5.7-2.3s-2.2-3.6-2.2-6.3v-12.8h5.4v12.1c0,1.4,.4,2.5,1.1,3.2,.8,.7,1.8,1.1,3,1.1,1.4,0,2.5-.4,3.3-1.3,.8-.9,1.3-2.2,1.3-3.9v-11.3h0Z"/><path class="e" d="M233.6,128.7c2.3,0,4.2,.8,5.7,2.3s2.2,3.6,2.2,6.3v12.8h-5.4v-12.1c0-1.4-.4-2.5-1.1-3.2-.8-.7-1.8-1.1-3-1.1-1.4,0-2.5,.4-3.3,1.3-.8,.9-1.3,2.2-1.3,3.9v11.3h-5.4v-20.9h5.4v2.3c1.3-1.9,3.3-2.9,6.2-2.9Z"/><path class="e" d="M263.1,120.9h5.4v29.2h-5.4v-2.5c-1.6,2-3.8,3-6.8,3-2.8,0-5.2-1.1-7.2-3.2-2-2.1-3-4.7-3-7.8s1-5.7,3-7.8,4.4-3.2,7.2-3.2,5.2,1,6.8,3v-10.7Zm-9.9,23c1.1,1.1,2.5,1.6,4.1,1.6s3-.5,4.1-1.6,1.6-2.5,1.6-4.2-.5-3.1-1.6-4.2-2.5-1.6-4.1-1.6-3.1,.5-4.1,1.6c-1.1,1.1-1.6,2.5-1.6,4.2-.1,1.7,.5,3.1,1.6,4.2Z"/><path class="e" d="M280.3,149.6c-.7,.7-1.5,1-2.5,1s-1.8-.3-2.5-1-1-1.5-1-2.5,.3-1.8,1-2.5,1.5-1,2.5-1,1.8,.3,2.5,1,1,1.5,1,2.5-.3,1.8-1,2.5Zm-4.7-9.3l-1.1-11.1v-8.3h6.5v8.3l-1.1,11.1h-4.3Z"/></g><circle class="f" cx="161.4" cy="61.9" r="30.7"/><polyline class="h" points="147.8 64.6 155 71.9 175 51.9"/></g></g></g></g></svg>