<?xml version="1.0" encoding="UTF-8"?><svg xmlns="http://www.w3.org/2000/svg" viewBox="0 0 41.2 41.2"><defs><style>.f{fill:#fff;}.g{isolation:isolate;}</style></defs><g id="a"/><g id="b"><g id="c"><g id="d"><g id="e"><g><circle class="f" cx="20.6" cy="20.6" r="20.6"/><g class="g" transform="translate(14.3 27.93)"><g class="g"><path d="M18.65,22.69c0-.65,.2-1.28,.59-1.87s.82-1.07,1.28-1.44,.89-.79,1.28-1.28,.59-.98,.59-1.47c0-.52-.18-.92-.54-1.2-.36-.28-.85-.42-1.49-.42-1.25,0-2.13,.66-2.65,1.98l-2.63-1.52c.45-1.1,1.16-1.95,2.13-2.55,.97-.6,2.06-.9,3.27-.9,1.35,0,2.52,.39,3.51,1.17,.99,.78,1.48,1.85,1.48,3.22,0,.62-.13,1.2-.39,1.74s-.57,.99-.94,1.37-.73,.74-1.09,1.07c-.36,.33-.68,.68-.94,1.04-.26,.36-.39,.71-.39,1.07h-3.08Zm2.88,4.97c-.37,.37-.82,.56-1.34,.56s-.97-.19-1.34-.56c-.37-.37-.56-.82-.56-1.34s.19-.97,.56-1.34c.37-.37,.82-.56,1.34-.56s.97,.19,1.34,.56c.37,.37,.56,.82,.56,1.34s-.19,.97-.56,1.34Z"/></g></g></g></g></g></g></g></svg>