<?xml version="1.0" encoding="UTF-8"?><svg xmlns="http://www.w3.org/2000/svg" viewBox="0 0 292.06 640.84"><defs><style>.d{fill:#f2f2f2;}.e{fill:#eaeaea;}.f{fill:#e5e5e5;}.g,.h{fill:#ff6d00;}.i{fill:#32373a;}.j{fill:#bc9871;}.k{fill:#cfd0d1;}.l{fill:#c4c4c4;}.m{fill:#e08d3b;}.n{fill:#d6b48b;}.o{fill:#222628;}.h{stroke:#000;}.h,.p,.q{stroke-width:4px;}.h,.p,.q,.r{stroke-miterlimit:10;}.s{stroke:#bc9871;stroke-linecap:round;stroke-linejoin:round;stroke-width:2px;}.s,.p,.q,.r{fill:none;}.p{stroke:#f46245;}.q{stroke:#e08d3b;}.t{opacity:.42;}.r{stroke:#ff4800;stroke-width:9px;}</style></defs><g id="a"/><g id="b"><g id="c"><path class="k" d="M158.56,344.63c-2.76,0-8.74,3.45-14.71,8.28-12.64,25.98,1.38,48.74,1.38,48.74l19.54-.23s-17.93-16.32-6.21-56.79Z"/><path class="f" d="M204.52,560.53l3.77,44.31s-1.32,10.22,12.22,10.77c13.54,.55,70.35,1.69,70.35,1.69,0,0,4.15-9.84-3.02-11.67s-44-8.22-49.33-12.67l-.67-33.78-33.33,1.35Z"/><polygon class="n" points="204.52 560.53 203.44 548.86 237.84 547.21 237.84 559.18 204.52 560.53"/><line class="p" x1="237.98" y1="566.13" x2="205.11" y2="567.47"/><line class="p" x1="237.98" y1="573.07" x2="205.7" y2="574.4"/><path class="f" d="M99.04,586.29l-1.84,37.11s6.46,4.9,6.21,9.23c-.25,4.33-1.5,8.22-6.21,8.22H58.56c-4.7,0-3.96-3.89-4.21-8.22s12.12-9.23,12.12-9.23l-1.97-37.11"/><path class="l" d="M72.44,622.9c6.06-3.05,13.68-2.82,19.79,0-6.71-.06-13.04-.33-19.79,0h0Z"/><polygon class="n" points="64.5 586.29 63.17 565.04 99.97 563.34 99.08 586.29 64.5 586.29"/><line class="p" x1="98.83" y1="595.37" x2="65.3" y2="595.87"/><line class="p" x1="98.27" y1="601.86" x2="65.78" y2="602.34"/><g><g><path class="i" d="M222.32,399.33s12.32,3.37,21.85,5.58c9.53,2.22,17.53,2.61,19.4,1.82,1.87-.79,5.03-3.94,.37-6.46-4.66-2.52-20.73-4.08-13.67-5.28,7.06-1.21,17.88,3.33,17.88,3.33,0,0,6.96,2.55,9.9,5.38,2.94,2.83,7.51,2.04,5.98-2.47-1.53-4.52-11.58-16.76-25.61-22.59-14.03-5.83-34.25-1.77-34.25-1.77l-1.87,22.46Z"/><path class="g" d="M247.79,405.68c7.88,1.53,14.16,1.74,15.79,1.05,1.87-.79,5.1-4.34-.13-5.02-3.8-.49-9.95-1.48-13.51-2.43"/><path class="g" d="M223.3,387.54l.89-10.68s12.63-2.64,23.19-.93l-1.14,8.73-22.94,2.88Z"/><path class="g" d="M270.72,385.89c-3.57-2.77-7.71-5.35-12.28-7.25-1.3-.54-2.65-1-4.04-1.38l-1.96,8.48,15.46,5.69,2.82-5.54c1.4,1.09,0,0,0,0Z"/><path class="g" d="M282.73,405.22c1.32-.41,2.08-1.73,1.32-3.99-.84-2.47-4.21-7.24-9.39-12.01l-3.14,4.7,11.22,11.31Z"/></g><path class="g" d="M246.61,377.5l-40.32,5.71s-13.82-99.24-16.42-112.94c-1.41-7.45-7.87-53.76-19.61-88.29-11.05-32.52-28.28-46.47-28.28-46.47l23.21-.85c26.66-.97,49.38,16.53,52.8,40.68l13.05,101.23,15.57,100.93Z"/><polygon class="i" points="202.15 264.82 189.88 270.27 206.3 383.21 219.54 381.34 202.15 264.82"/><polygon class="k" points="184.21 237.21 187.01 253.14 226.94 244.55 224.73 227.05 184.21 237.21"/><polygon class="k" points="196.15 312.22 198.23 326.22 237.81 319.67 235.42 305.2 196.15 312.22"/><path class="g" d="M41.1,272.66c.32-7.71,4.32-55.07,13.77-91.05,8.89-33.89,25.17-49.59,25.17-49.59l-23.21,1.28c-26.67,1.48-48.18,21.27-50,46L.45,282.83"/><polygon class="k" points="45.71 232.16 44.15 248.53 2.65 243.78 3.76 226.18 45.71 232.16"/><polygon class="m" points="76.49 49.33 76.88 57.8 152.34 57.15 152.2 46.98 113.11 40.21 76.49 49.33"/><path class="n" d="M146.25,56.22s1.82-1.96,5.17-1.42c4.82,.78,.65,13.55,.65,13.55,0,0,.52,6.26-2.22,7.3-2.74,1.04-5.21-6.39-5.21-6.39l1.61-13.05Z"/><path class="n" d="M82.16,56.22s-1.82-1.96-5.17-1.42c-4.82,.78-.65,13.55-.65,13.55,0,0-.52,6.26,2.22,7.3s5.21-6.39,5.21-6.39l-1.61-13.05Z"/><rect class="j" x="92.23" y="96.92" width="45.26" height="37.15"/><polygon class="k" points="182.27 354.82 181.25 380.23 117.55 379.9 117.04 354.48 182.27 354.82"/><path class="g" d="M183.27,368.23l-141.4,.34,5.42-76.39-2.41-110.22c0-30.86,1.2-54.63,39.66-54.63l57.85,.39c46.63,1.57,38.19,23.37,38.19,54.23l-2.38,110.22,5.06,76.06Z"/><path class="g" d="M83.38,129.16l-1.27-19.44s23.32,5.07,33.5,5.07,30.1-4.23,30.1-4.23l.42,18.6-33.92,5.07-28.83-5.07Z"/><polygon class="g" points="184.11 401.43 45.65 401.83 45.95 362.43 184.86 357.77 184.11 401.43"/><polygon class="i" points="183.27 368.23 178.2 292.18 116.36 277.77 47.29 292.18 41.87 368.57 183.27 368.23"/><polygon class="k" points="178.2 292.18 116.36 277.77 47.29 292.18 46.93 275.76 115.64 260.68 178.66 276.18 178.2 292.18"/><polygon class="k" points="181.56 342.71 116.36 326.05 43.68 341.84 45.09 324.46 115.64 308.96 180.39 325.77 181.56 342.71"/><path class="i" d="M82.52,116.17l-.41-6.45s23.32,5.07,33.5,5.07,30.1-4.23,30.1-4.23l.14,6.26s-15.83,4.84-30.66,4.84-32.67-5.49-32.67-5.49Z"/><path class="k" d="M165.2,134.66l13.35,74.73s9.92-66.01,10.43-70.55c-11.94-5.14-23.78-4.18-23.78-4.18Z"/><line class="h" x1="114.58" y1="115.05" x2="115.29" y2="368.14"/><path class="o" d="M131.11,301.34l.58,43.09,38.37,4.85,.84-5.81-4.88-8.22-32.59-35.55s-2.31,2.18-2.31,1.64Z"/><path class="i" d="M132.5,297.32l.58,43.09,38.37,4.85v-42.28s-38.95-5.12-38.95-5.66Z"/><polygon class="k" points="132.85 312.33 133.07 328.67 171.4 337.41 171.47 320.99 132.85 312.33"/><path class="o" d="M99.62,300.7l-.58,43.09-38.37,4.85-.84-5.81,4.88-8.22,32.59-35.55s2.31,2.18,2.31,1.64Z"/><path class="i" d="M98.23,296.69l-.58,43.09-38.37,4.85v-42.28s38.95-5.12,38.95-5.66Z"/><polygon class="k" points="97.87 311.7 97.65 328.04 59.32 336.77 59.25 320.35 97.87 311.7"/><ellipse class="n" cx="114.25" cy="65.41" rx="34.25" ry="47.11"/><path class="s" d="M112.59,60.67s-4.95,16.03-3.39,19.94c1.56,3.91,9.25,0,9.25,0"/><ellipse class="t" cx="99.07" cy="59.48" rx="2.13" ry="3.4"/><ellipse class="t" cx="128.96" cy="59.38" rx="2.13" ry="3.4"/><path class="q" d="M87.43,52.46s7.17-5.08,18.11-4.69"/><path class="q" d="M139.82,52.46s-7.17-5.08-18.11-4.69"/><path class="s" d="M107.76,88.3s7.69,4.17,13.68-.78"/><path class="g" d="M188.8,536.56l56.53-1.88s-7.48-138.8-9.5-150.95c-13.68-104.75-117.66-11.31-117.66-11.31l56.15,23.42,14.49,140.71Z"/><path class="i" d="M241.56,547.03s5.66-7.56,5.92-12.8c.26-5.25-7.35-97.8-7.35-97.8l-61.41,5.82s8.83,93.9,10.16,97.96,7.85,8.97,7.85,8.97l44.83-2.15Z"/><polygon class="k" points="242.99 470.95 245.1 496.65 184.43 501.92 181.95 476.25 242.99 470.95"/><path class="g" d="M0,281.93l78.13,82.78,26.35-27.56s-64.12-58.36-63.83-65.39"/><polygon class="i" points="20.81 277.76 40.55 272.19 104.51 337.09 90.36 352.2 20.81 277.76"/><polygon class="k" points="58.78 290.08 69.33 299.9 41.52 326.86 30.75 316.53 58.78 290.08"/><g><path class="i" d="M73.69,345.88s7.59,10.28,13.7,17.92c6.11,7.64,12.15,12.91,14.1,13.45,1.96,.54,6.39,.02,4.29-4.84-2.1-4.86-13.75-16.04-7.45-12.61,6.29,3.43,11.98,13.69,11.98,13.69,0,0,3.88,6.31,4.44,10.36,.55,4.04,4.63,6.26,6.23,1.76,1.6-4.49,1.29-20.33-6.11-33.59-7.4-13.27-25.79-22.61-25.79-22.61l-15.38,16.48Z"/><path class="g" d="M89.75,366.64c5.24,6.08,10.04,10.14,11.74,10.6,1.96,.54,6.69-.25,3.01-4.02-2.68-2.74-6.89-7.32-9.11-10.28"/><path class="g" d="M81.76,337.24l7.31-7.83s11.55,5.75,18.78,13.63l-6.3,6.15-19.79-11.95Z"/><path class="g" d="M120.02,365.31c-1.08-4.38-2.74-8.98-5.15-13.3-.69-1.23-1.47-2.42-2.32-3.58l-6.79,5.44,8.62,14.04,5.64-2.6c.43,1.73,0,0,0,0Z"/><path class="g" d="M117.47,387.93c1.29,.5,2.71-.07,3.51-2.32,.87-2.45,1.18-8.29,.07-15.25l-5.38,1.74,1.8,15.83Z"/></g><path class="g" d="M110.61,550.12l-56.47,3.12s-7.59-116.82-8.35-153.77c-5.71-75.05,67.43-87.24,77.33-26.67,1.9,19.05-12.5,177.31-12.5,177.31Z"/><path class="i" d="M58.99,565.21s-6.3-7.03-7.03-12.23c-.73-5.2-3.87-98.22-3.87-98.22l70.63-1.5s-6.89,96.34-7.86,100.51c-.97,4.16-7.03,9.63-7.03,9.63l-44.84,1.82Z"/><polygon class="k" points="48.84 489.57 49.59 515.87 114.21 515.37 116.21 489.07 48.84 489.57"/><path class="k" d="M46.51,134.07l2.6,75.66s-23.18-61.59-24.73-65.94c10.41-7.88,22.14-9.71,22.14-9.71Z"/></g><g><path class="d" d="M156.2,51.66s-11.01-8.81-41.09-8.3-41.14,8.3-41.14,8.3v-4.21C73.97,21.25,92.38,0,115.09,0h0c22.71,0,41.11,21.25,41.11,47.45v4.21Z"/><rect class="i" x="104.78" y="21.48" width="19.41" height="13.54"/><path class="i" d="M153.93,30.68c-1.79-.79-19-8.28-39.1-7.89-20.1,.39-37.31,6.84-39.37,8.42-2.34,5-1.93,11.97-1.93,11.97,0,0,19.14-9.99,41.02-9.99s41.71,10.12,41.71,10.12c0,0-.14-8.42-2.34-12.62Z"/></g><g><ellipse class="r" cx="114.86" cy="188.04" rx="15.04" ry="13.94"/><path class="i" d="M46.52,263.93s53.25-6.47,67.7-6.66,64.78,7.1,64.78,7.1l.53-19.59-17.67-57.73,11.38-56.34-20.85-2.12-11.8,52.91-18.71-1.25-.3,15.82,19.61,.97,4.49,.28,13.78,45.52s-28.12-4.7-44.04-4.72c-15.92-.02-51.23,5.83-51.23,5.83l20.97-45.8,22.53-2.38-.11-15.49-23.33,1.22-9.65-53.43-21.2,2.64,12.28,59.12-19.3,55.72,.12,18.39Z"/><polygon class="e" points="124.09 237.65 123.27 258.75 148.18 261.49 149.33 240.68 124.09 237.65"/></g></g></g></svg>