<?xml version="1.0" encoding="UTF-8"?><svg xmlns="http://www.w3.org/2000/svg" viewBox="0 0 240.05 754.48"><defs><style>.d{stroke:gray;}.d,.e,.f{stroke-miterlimit:10;}.g{fill:#e6e6e6;}.h{fill:#edcf21;}.i{fill:#ff4800;}.j,.e{fill:#ff6d00;}.k{fill:#996d41;}.l{fill:#c1d9e5;}.m{fill:#b7854f;}.n,.o{fill:#32373a;}.p{fill:#333;}.q{fill:#cfd0d1;}.r{fill:#db5c05;}.s{fill:#222628;}.t{fill:gray;}.u{fill:#2a66bc;}.v{fill:#493a30;}.e{stroke:#000;}.e,.f{stroke-width:4px;}.w{stroke:#996d41;stroke-linecap:round;stroke-linejoin:round;stroke-width:2px;}.w,.f{fill:none;}.o{opacity:.2;}.f{stroke:#6b5237;}.x{opacity:.42;}</style></defs><g id="a"/><g id="b"><g id="c"><g><path class="m" d="M50.55,393.83c-.06-.17-.02-5.3-.06-.17,0,.27-.77,.48-1.2,1.86-2.33,7.38,.41,19.91,.41,19.91,0,0,1.4,7.99,3.72,11.69,2.32,3.71,.8,8.49-3.41,5.98-4.21-2.51-14.68-15.66-18.18-31.89-1.18-5.47-1.15-11.14-.6-16.26,.15-1.41,.34-2.77,.56-4.08l18.48-4.7,.12,5.26"/><polygon class="o" points="31.19 384.63 31.72 380.88 50.26 376.16 50.26 382.18 31.19 384.63"/></g><path class="v" d="M156.38,44.01s2.65-15.09-5.3-26.55C143.13,6,137.4,0,125.1,0h-12.68c-12.3,0-18.03,6-25.98,17.46-7.95,11.46-5.3,26.55-5.3,26.55"/><polygon class="v" points="81.14 44.01 81.53 52.48 156.99 51.83 156.86 41.67 117.76 34.89 81.14 44.01"/><path class="m" d="M150.9,50.91s1.82-1.96,5.17-1.42c4.82,.78,.65,13.55,.65,13.55,0,0,.52,6.26-2.22,7.3s-5.21-6.39-5.21-6.39l1.61-13.05Z"/><path class="m" d="M86.81,50.91s-1.82-1.96-5.17-1.42c-4.82,.78-.65,13.55-.65,13.55,0,0-.52,6.26,2.22,7.3,2.74,1.04,5.21-6.39,5.21-6.39l-1.61-13.05Z"/><rect class="k" x="96.89" y="91.6" width="45.26" height="37.15"/><polygon class="j" points="124.64 661.87 181.11 664.99 189.25 393.22 120.25 394.05 124.64 661.87"/><path class="n" d="M176.26,676.96s6.3-7.03,7.03-12.23c.73-5.2,1.32-98.07,1.32-98.07l-61.69,.37s.5,94.32,1.47,98.48c.97,4.16,7.03,9.63,7.03,9.63l44.84,1.82Z"/><polygon class="q" points="184.4 601.3 184.24 627.08 123.35 626.97 123.14 601.19 184.4 601.3"/><polygon class="q" points="186.92 486.26 185.9 513.69 122.2 513.32 121.69 485.9 186.92 486.26"/><path d="M178.09,674.72s-1.37,20.36-3.84,42.79c-2.46,22.43-40.23,17.65-41.33,2.65-1.1-15-3.22-46.45-3.22-46.45l48.38,1.01Z"/><path d="M127.2,701.6h53.47v24.77c0,14.76-11.98,26.73-26.73,26.73h0c-14.76,0-26.73-11.98-26.73-26.73v-24.77h0Z" transform="translate(307.87 1454.71) rotate(180)"/><path class="j" d="M187.92,381.35l-141.4,.36,5.42-82.45-2.41-118.97c0-33.31,1.2-58.96,39.66-58.96l57.85,.42c46.63,1.7,38.19,25.23,38.19,58.54l-2.38,118.97,5.06,82.09Z"/><path class="j" d="M215.79,383.56l-33.9-10.43s19.74-84.48,16.72-99.44c-1.64-8.14-9.51-58.73-22.31-96.43-12.05-35.51-29.74-50.71-29.74-50.71l23.23-.99c26.69-1.13,49.97,17.95,54.13,44.33l16.12,110.59-24.26,103.08Z"/><path class="j" d="M88.03,123.32l-1.27-20.98s23.32,5.47,33.5,5.47,30.1-4.56,30.1-4.56l.42,20.07-33.92,5.47-28.83-5.47Z"/><polygon class="j" points="189.25 394.79 50.3 402.07 50.6 373.44 189.51 370.05 189.25 394.79"/><polygon class="j" points="114.97 663.24 58.49 666.37 50.41 392.05 119.35 395.42 114.97 663.24"/><polygon class="n" points="187.92 381.35 182.86 299.26 121.02 283.71 51.94 299.26 46.52 381.71 187.92 381.35"/><polygon class="q" points="182.86 299.26 121.02 283.71 51.94 299.26 51.58 281.54 120.29 265.27 183.31 281.99 182.86 299.26"/><polygon class="q" points="186.21 353.81 121.02 335.82 48.33 352.87 49.74 334.11 120.29 317.38 185.04 335.52 186.21 353.81"/><path class="q" d="M180.14,125.33l4.56,81.56s17.25-68.54,18.39-73.38c-11.1-7.4-22.95-8.18-22.95-8.18Z"/><polygon class="n" points="218.93 278.12 198.95 275.35 182.92 374.88 201.92 379.43 218.93 278.12"/><polygon class="q" points="190.2 230.64 193.31 248.08 234.17 238.75 231.4 219.95 190.2 230.64"/><polygon class="q" points="191.3 316.33 187.96 331.46 227.3 339.34 230.54 323.61 191.3 316.33"/><path class="j" d="M24.26,383.56l33.9-10.43s-19.74-84.48-16.72-99.44c1.64-8.14,9.51-58.73,22.31-96.43,12.05-35.51,29.74-50.71,29.74-50.71l-23.23-.99c-26.69-1.13-49.97,17.95-54.13,44.33L0,280.48l24.26,103.08Z"/><path class="q" d="M59.91,125.33l-4.56,81.56s-17.25-68.54-18.39-73.38c11.1-7.4,22.95-8.18,22.95-8.18Z"/><polygon class="n" points="21.11 278.12 41.1 275.35 57.13 374.88 38.13 379.43 21.11 278.12"/><polygon class="q" points="49.84 230.64 46.74 248.08 5.88 238.75 8.65 219.95 49.84 230.64"/><polygon class="q" points="48.74 316.33 52.09 331.46 12.75 339.34 9.51 323.61 48.74 316.33"/><path class="n" d="M63.34,678.34s-6.3-7.03-7.03-12.23c-.73-5.2-1.32-98.07-1.32-98.07l61.69,.37s-.5,94.32-1.47,98.48c-.97,4.16-7.03,9.63-7.03,9.63l-44.84,1.82Z"/><polygon class="q" points="55.2 602.68 55.36 628.46 116.26 628.35 116.46 602.57 55.2 602.68"/><polygon class="q" points="52.68 487.64 53.7 515.07 117.4 514.7 117.91 487.27 52.68 487.64"/><path class="r" d="M77.21,414.12l-27.53,59.65s2.09,1.79,7.76,2.39c5.67,.6,22.49-2.94,22.49-2.94l.34-58.24-3.07-.85Z"/><path d="M61.51,676.1s1.37,20.36,3.84,42.79c2.46,22.43,40.23,17.65,41.33,2.65,1.1-15,3.22-46.45,3.22-46.45l-48.38,1.01Z"/><path d="M85.67,702.98h0c14.76,0,26.73,11.98,26.73,26.73v24.77H58.93v-24.77c0-14.76,11.98-26.73,26.73-26.73Z"/><path class="n" d="M87.17,109.3l-.41-6.96s23.32,5.47,33.5,5.47,30.1-4.56,30.1-4.56l.14,6.75s-15.83,5.22-30.66,5.22-32.67-5.93-32.67-5.93Z"/><line class="e" x1="119.23" y1="108.08" x2="119.95" y2="381.25"/><path class="s" d="M135.76,309.15l.58,46.51,38.37,5.23,.84-6.27-4.88-8.87-32.59-38.37s-2.31,2.36-2.31,1.78Z"/><path class="n" d="M137.15,304.82l.58,46.51,38.37,5.23v-45.64s-38.95-5.52-38.95-6.1Z"/><polygon class="q" points="137.5 321.02 137.73 338.65 176.06 348.08 176.13 330.36 137.5 321.02"/><path class="s" d="M104.27,308.46l-.58,46.51-38.37,5.23-.84-6.27,4.88-8.87,32.59-38.37s2.31,2.36,2.31,1.78Z"/><path class="n" d="M102.88,304.13l-.58,46.51-38.37,5.23v-45.64s38.95-5.52,38.95-6.1Z"/><polygon class="q" points="102.53 320.33 102.3 337.97 63.97 347.39 63.9 329.67 102.53 320.33"/><ellipse class="m" cx="118.9" cy="60.09" rx="34.25" ry="47.11"/><path class="w" d="M117.24,55.35s-4.95,16.03-3.39,19.94c1.56,3.91,9.25,0,9.25,0"/><path class="w" d="M112.42,82.98s7.69,4.17,13.68-.78"/><path class="v" d="M148.16,30.44s-28.92,4.56-37.96-19l20.29-.89,13.44,7,4.78,13.24"/><path class="m" d="M189.15,394.11c.06-.17,.02-5.3,.06-.17,0,.27,.77,.48,1.2,1.86,2.33,7.38-.41,19.91-.41,19.91,0,0-1.4,7.99-3.72,11.69-2.32,3.71-.8,8.49,3.41,5.98,4.21-2.51,14.68-15.66,18.18-31.89,1.18-5.47,1.15-11.14,.6-16.26-.15-1.41-.34-2.77-.56-4.08l-18.48-4.7-.12,5.26"/><polygon class="o" points="208.51 384.91 207.98 381.16 189.44 376.44 189.44 382.46 208.51 384.91"/><g><rect class="h" x="50.39" y="374.42" width="10.2" height="19.07" transform="translate(-22.81 3.99) rotate(-3.42)"/><rect class="u" x="42.05" y="388.51" width="30.14" height="53.31" rx="9.14" ry="9.14" transform="translate(-24.67 4.15) rotate(-3.42)"/><ellipse class="h" cx="56.6" cy="404.17" rx="7.44" ry="8.32" transform="translate(-24.01 4.1) rotate(-3.42)"/></g><g><rect x="65.76" y="142.38" width="23.8" height="50.16" transform="translate(-16.18 8.5) rotate(-5.67)"/><rect class="g" x="67.76" y="147.03" width="16.69" height="9.35" transform="translate(-14.63 8.27) rotate(-5.67)"/><circle class="p" cx="71.41" cy="163.17" r="1.87"/><circle class="i" cx="78.29" cy="171.58" r="3.54"/><circle class="p" cx="77.25" cy="162.59" r="1.87"/><circle class="p" cx="83.1" cy="162.01" r="1.87"/><rect x="81.88" y="117.22" width="2.95" height="25.73" transform="translate(-12.45 8.88) rotate(-5.67)"/><line class="d" x1="71.81" y1="182" x2="86.21" y2="180.57"/><line class="d" x1="72.04" y1="184.27" x2="86.44" y2="182.83"/><line class="d" x1="72.26" y1="186.53" x2="86.66" y2="185.1"/><line class="d" x1="72.49" y1="188.8" x2="86.89" y2="187.37"/></g><g><polygon class="t" points="167.55 362.63 158.21 312.98 155.43 313.16 165.62 362.25 167.55 362.63"/><g><path class="t" d="M164.68,306.84l2.88,55.8s-12.47,.18-15.64-2.44c-2.58-2.14-4.2-14.89-1.22-18.86,2.61-3.48,12.04-5.31,12.04-5.31l-.16-3.06s-9.47-1.12-12.24-3.09c-2.76-1.97-4.04-15.57-.98-19.04,3.06-3.46,15.32-3.99,15.32-3.99Z"/><path d="M162.86,309l.96,22.16s-9.34-.7-12.13-2.97c-2.79-2.28-3.68-13.71-.6-16.41,3.09-2.7,11.77-2.78,11.77-2.78Z"/><path d="M165.5,360.21l-1.33-22.14s-9.22,1.65-11.76,4.2c-2.54,2.55-2.26,14.01,1.09,16.38,3.35,2.37,11.99,1.55,11.99,1.55Z"/></g></g><g><g><path class="l" d="M83.39,45.67l70.71,.22s-.63,16.51-4.17,20.52c-2.88,3.26-19.1,4.48-23.92,.25-4.22-3.71-5.34-11.67-5.34-11.67l-4.98,.13s-1.51,7.66-4.19,11.17c-2.68,3.51-19.96,4.22-24.13-.07-4.17-4.29-3.99-20.56-3.99-20.56Z"/><path class="l" d="M86,48.23l28.07,.33s-1.52,12.31-4.59,15.83c-3.07,3.52-17.58,3.89-20.78-.39-3.2-4.28-2.7-15.77-2.7-15.77Z"/><path class="l" d="M150.9,48.43l-28.08,.16s1.46,12.32,4.5,15.86c3.05,3.54,17.56,3.99,20.78-.26s2.79-15.75,2.79-15.75Z"/></g><ellipse class="x" cx="103.73" cy="54.17" rx="2.13" ry="3.4"/><ellipse class="x" cx="133.61" cy="54.06" rx="2.13" ry="3.4"/><path class="f" d="M92.09,47.14s7.17-5.08,18.11-4.69"/><path class="f" d="M144.48,47.14s-7.17-5.08-18.11-4.69"/></g><g><path d="M178.09,674.72s-1.37,20.36-3.84,42.79c-2.46,22.43-40.23,17.65-41.33,2.65-1.1-15-3.22-46.45-3.22-46.45l48.38,1.01Z"/><path d="M127.2,701.6h53.47v24.77c0,14.76-11.98,26.73-26.73,26.73h0c-14.76,0-26.73-11.98-26.73-26.73v-24.77h0Z" transform="translate(307.87 1454.71) rotate(180)"/></g><path d="M61.51,676.1s1.37,20.36,3.84,42.79c2.46,22.43,40.23,17.65,41.33,2.65,1.1-15,3.22-46.45,3.22-46.45l-48.38,1.01Z"/><path d="M85.67,702.98h0c14.76,0,26.73,11.98,26.73,26.73v24.77H58.93v-24.77c0-14.76,11.98-26.73,26.73-26.73Z"/><path class="j" d="M41.54,414.82l3.88,57.93s2.09,1.79,7.76,2.39c5.67,.6,23.59-3.28,23.59-3.28l.6-58.52-35.83,1.49Z"/></g></g></svg>