<?xml version="1.0" encoding="UTF-8"?><svg xmlns="http://www.w3.org/2000/svg" viewBox="0 0 223.41 287.76"><defs><style>.d{letter-spacing:.02em;}.e{fill:#54b5b1;stroke:#fff;stroke-width:5px;}.e,.f{stroke-miterlimit:10;}.g{fill:#e9a72d;}.h,.f{fill:#19192d;}.i{letter-spacing:.07em;}.j{font-size:65.75px;letter-spacing:.02em;}.j,.k{fill:#fff;font-family:Gilroy-Bold, Gilroy-Bold;}.k{font-size:15px;}.f{opacity:.23;stroke:#19192d;stroke-width:28px;}</style></defs><g id="a"/><g id="b"><g id="c"><g><text class="k" transform="translate(55.23 12.75)"><tspan class="i" x="0" y="0">TEMPER</tspan><tspan class="d" x="61.03" y="0">A</tspan><tspan class="i" x="71.41" y="0">TURE</tspan></text><rect class="h" y="27.46" width="223.41" height="260.3" rx="23.44" ry="23.44"/><g><path class="f" d="M169.73,189.37V71.3c0-8.78-7.18-15.96-15.96-15.96s-15.96,7.18-15.96,15.96v118.06c-12.48,5.96-21.1,18.7-21.1,33.45,0,20.47,16.59,37.06,37.06,37.06s37.06-16.59,37.06-37.06c0-14.75-8.62-27.49-21.1-33.45Z"/><g><path class="e" d="M170.54,189.37V71.3c0-8.78-7.18-15.96-15.96-15.96s-15.96,7.18-15.96,15.96v118.06c-12.48,5.96-21.1,18.7-21.1,33.45,0,20.47,16.59,37.06,37.06,37.06s37.06-16.59,37.06-37.06c0-14.75-8.62-27.49-21.1-33.45Z"/><path class="h" d="M159.06,73.61c0-2.47-2-4.48-4.48-4.48s-4.48,2-4.48,4.48v91.37h8.96V73.61Z"/><g><circle class="g" cx="153.77" cy="220.38" r="16.77"/><path class="g" d="M150.1,172.37v44.42c0,2.47,2,4.48,4.48,4.48s4.48-2,4.48-4.48v-44.42h-8.96Z"/></g><circle class="g" cx="154.58" cy="178.78" r="16.77"/></g></g><text class="j" transform="translate(40.56 125.24)"><tspan x="0" y="0">9°</tspan></text></g></g></g></svg>