<?xml version="1.0" encoding="UTF-8"?><svg xmlns="http://www.w3.org/2000/svg" viewBox="0 0 274.15 133.59"><defs><style>.d{fill:#54b5b1;stroke:#fff;stroke-miterlimit:10;stroke-width:5px;}.e{fill:#fff;}.f{fill:#e9a72d;}.g{fill:#19192d;}</style></defs><g id="a"/><g id="b"><g id="c"><rect class="g" y="22.18" width="274.15" height="111.41" rx="23.44" ry="23.44"/><g><path class="e" d="M104.93,10.71L101.4,.21h2.25l2.57,8.07L108.77,.21h2.26l-3.54,10.5h-2.56Z"/><path class="e" d="M113.16,.21h2.07V10.71h-2.07V.21Z"/><path class="e" d="M121.73,10.92c-1.04,0-1.92-.23-2.62-.7s-1.21-1.1-1.5-1.9l1.77-1.04c.41,1.07,1.21,1.6,2.42,1.6,.58,0,1-.1,1.27-.31,.27-.21,.41-.47,.41-.79,0-.37-.17-.66-.5-.86s-.92-.43-1.77-.67c-.47-.14-.87-.28-1.19-.42-.32-.14-.65-.33-.97-.56-.33-.23-.57-.53-.74-.89s-.25-.78-.25-1.26c0-.95,.34-1.71,1.01-2.27,.68-.57,1.49-.85,2.44-.85,.85,0,1.6,.21,2.24,.62,.64,.42,1.15,.99,1.51,1.73l-1.74,1.01c-.42-.9-1.09-1.35-2.01-1.35-.43,0-.77,.1-1.01,.29-.25,.19-.37,.45-.37,.76,0,.33,.14,.6,.41,.8,.27,.21,.8,.43,1.58,.67,.32,.1,.56,.18,.73,.23s.39,.14,.67,.25c.29,.12,.5,.22,.66,.32,.16,.1,.33,.24,.53,.41,.2,.17,.35,.34,.46,.52,.1,.18,.2,.4,.27,.65,.08,.25,.11,.53,.11,.83,0,.97-.35,1.74-1.06,2.31-.71,.57-1.62,.85-2.75,.85Z"/><path class="e" d="M127.94,.21h2.07V10.71h-2.07V.21Z"/><path class="e" d="M139.43,5.26c.92,.53,1.38,1.33,1.38,2.4,0,.89-.32,1.62-.95,2.19-.63,.57-1.4,.86-2.32,.86h-4.46V.21h4.14c.9,0,1.66,.28,2.27,.83,.62,.56,.92,1.26,.92,2.12s-.33,1.57-.99,2.1Zm-2.21-3.12h-2.07v2.31h2.07c.32,0,.59-.11,.8-.33,.21-.22,.32-.5,.32-.83s-.11-.6-.32-.83c-.21-.22-.48-.33-.81-.33Zm.32,6.63c.35,0,.64-.12,.87-.35,.23-.24,.35-.53,.35-.89s-.12-.64-.35-.88c-.23-.23-.52-.35-.87-.35h-2.39v2.48h2.39Z"/><path class="e" d="M143.28,.21h2.07V10.71h-2.07V.21Z"/><path class="e" d="M150.5,8.73h4v1.98h-6.07V.21h2.07V8.73Z"/><path class="e" d="M156.8,.21h2.07V10.71h-2.07V.21Z"/><path class="e" d="M168.89,.21v1.98h-2.83V10.71h-2.07V2.19h-2.82V.21h7.72Z"/><path class="e" d="M179.48,.21l-3.6,6.41v4.09h-2.06V6.62l-3.58-6.41h2.34l2.28,4.37,2.29-4.37h2.34Z"/></g><g><rect class="d" x="53.31" y="46.23" width="175.74" height="32.89" rx="16.45" ry="16.45"/><path class="g" d="M207.37,67.48c3.53,0,6.39-1.97,6.39-4.39s-2.86-4.39-6.39-4.39H106.85v8.79h100.52Z"/><path class="f" d="M105.26,58.69h-37.18c-1.35,0-2.44,1.97-2.44,4.39s1.09,4.39,2.44,4.39h37.18v-8.79Z"/><circle class="f" cx="101.36" cy="63.55" r="16.45"/></g><g><path class="e" d="M116.8,110.53h7.65v3.78h-11.6v-20.05h3.95v16.27Z"/><path class="e" d="M143.04,111.69c-2.02,2.01-4.49,3.02-7.39,3.02s-5.36-1.01-7.38-3.02c-2.02-2.01-3.02-4.48-3.02-7.4s1.01-5.39,3.02-7.4c2.01-2.01,4.47-3.02,7.38-3.02s5.37,1.01,7.39,3.02c2.02,2.01,3.04,4.48,3.04,7.4s-1.01,5.39-3.04,7.4Zm-12-2.69c1.24,1.23,2.78,1.85,4.61,1.85s3.37-.62,4.61-1.85c1.24-1.23,1.86-2.8,1.86-4.71s-.62-3.48-1.86-4.73c-1.24-1.24-2.78-1.86-4.61-1.86s-3.37,.62-4.61,1.86c-1.24,1.24-1.86,2.82-1.86,4.73s.62,3.48,1.86,4.71Z"/><path class="e" d="M152.56,114.31l-5.31-20.05h4.13l3.86,14.87,4.18-14.87h3.42l4.2,14.83,3.81-14.83h3.81l-5.27,20.05h-4.5l-3.8-13.3-3.77,13.3h-4.77Z"/></g></g></g></svg>