<?xml version="1.0" encoding="UTF-8"?><svg xmlns="http://www.w3.org/2000/svg" viewBox="0 0 223.41 285.72"><defs><style>.d{fill:#fff;}.e{fill:#19192d;}.f{stroke:#fff;}.f,.g{fill:none;stroke-miterlimit:10;stroke-width:5px;}.g{stroke:#54b5b1;}</style></defs><g id="a"/><g id="b"><g id="c"><g><g><path class="d" d="M60.23,10.71L57.45,.21h2.17l2.02,7.79L63.83,.21h1.79l2.2,7.76,1.99-7.76h1.99l-2.76,10.5h-2.36l-1.99-6.97-1.98,6.97h-2.5Z"/><path class="d" d="M80.61,10.71l-.67-1.89h-4.31l-.63,1.89h-2.23L76.44,.21h2.56l3.71,10.5h-2.1Zm-4.31-3.83h2.96l-1.52-4.29-1.44,4.29Z"/><path class="d" d="M86.85,10.71L83.33,.21h2.25l2.57,8.07L90.69,.21h2.26l-3.54,10.5h-2.57Z"/><path class="d" d="M97.16,8.73h4.43v1.98h-6.5V.21h6.42v1.98h-4.35v2.23h3.98v1.95h-3.98v2.35Z"/><path class="d" d="M115.01,.21h2.05V10.71h-2.05V6.36h-3.9v4.35h-2.07V.21h2.07V4.38h3.9V.21Z"/><path class="d" d="M122.21,8.73h4.43v1.98h-6.5V.21h6.42v1.98h-4.35v2.23h3.98v1.95h-3.98v2.35Z"/><path class="d" d="M129.21,.21h2.07V10.71h-2.07V.21Z"/><path class="d" d="M144.66,5.07v.81c0,1.5-.48,2.71-1.44,3.65-.96,.93-2.2,1.39-3.72,1.39-1.62,0-2.96-.53-4.03-1.58-1.06-1.06-1.6-2.34-1.6-3.86s.53-2.82,1.58-3.88c1.05-1.06,2.36-1.59,3.92-1.59,.98,0,1.88,.22,2.68,.67,.81,.45,1.44,1.04,1.89,1.78l-1.77,1.02c-.25-.43-.63-.78-1.13-1.05-.5-.27-1.07-.41-1.69-.41-1,0-1.82,.33-2.47,.98-.65,.66-.97,1.48-.97,2.48s.33,1.81,.98,2.45c.66,.64,1.52,.97,2.6,.97,.8,0,1.46-.18,1.99-.53,.53-.35,.88-.84,1.07-1.46h-3.18v-1.83h5.26Z"/><path class="d" d="M153.23,.21h2.06V10.71h-2.06V6.36h-3.9v4.35h-2.07V.21h2.07V4.38h3.9V.21Z"/><path class="d" d="M165.3,.21v1.98h-2.83V10.71h-2.07V2.19h-2.82V.21h7.72Z"/></g><rect class="e" y="25.42" width="223.41" height="260.3" rx="23.44" ry="23.44"/><g><path class="d" d="M59.94,240.22c-5.74,0-10.25-2.18-13.51-6.54-3.27-4.36-4.9-10.16-4.9-17.39s1.63-13.03,4.9-17.39c3.26-4.36,7.77-6.54,13.51-6.54s10.3,2.18,13.54,6.54c3.24,4.36,4.87,10.16,4.87,17.39s-1.62,13.03-4.87,17.39c-3.24,4.36-7.76,6.54-13.54,6.54Zm-6.97-12.72c1.58,2.56,3.9,3.85,6.97,3.85s5.4-1.29,7-3.88c1.6-2.58,2.4-6.31,2.4-11.18s-.8-8.66-2.4-11.24c-1.6-2.59-3.93-3.88-7-3.88s-5.39,1.29-6.97,3.88c-1.58,2.59-2.37,6.33-2.37,11.24s.79,8.65,2.37,11.21Z"/><path class="d" d="M93.08,238.51c-1.1,1.1-2.41,1.64-3.94,1.64s-2.85-.55-3.95-1.64c-1.1-1.09-1.64-2.41-1.64-3.95s.55-2.85,1.64-3.95,2.41-1.64,3.95-1.64,2.85,.55,3.94,1.64c1.1,1.1,1.64,2.41,1.64,3.95s-.55,2.85-1.64,3.95Z"/><path class="d" d="M112.41,193.28h7.89v46.03h-9.07v-36.43l-8.68,2.43-2.24-7.76,12.1-4.27Z"/><path class="d" d="M166.92,205.51c3.77,0,6.78,1.23,9.04,3.68,2.26,2.46,3.39,5.74,3.39,9.86v20.25h-8.48v-19.66c0-1.97-.48-3.51-1.45-4.6-.96-1.09-2.32-1.64-4.08-1.64-1.93,0-3.43,.64-4.5,1.91-1.07,1.27-1.61,3.11-1.61,5.52v18.48h-8.48v-19.66c0-1.97-.48-3.51-1.45-4.6-.96-1.09-2.32-1.64-4.08-1.64-1.88,0-3.39,.64-4.5,1.91-1.12,1.27-1.68,3.11-1.68,5.52v18.48h-8.48v-32.88h8.48v3.48c1.97-2.94,5.02-4.41,9.14-4.41s7.01,1.58,8.94,4.73c2.19-3.16,5.46-4.73,9.8-4.73Z"/></g></g><path class="g" d="M31.29,68.56c21.1,0,21.1,20,42.21,20s21.1-20,42.21-20,21.11,20,42.21,20,21.11-20,42.21-20"/><path class="f" d="M31.29,99.76c21.1,0,21.1,20,42.21,20s21.1-20,42.21-20,21.11,20,42.21,20,21.11-20,42.21-20"/><path class="g" d="M31.29,130.96c21.1,0,21.1,20,42.21,20s21.1-20,42.21-20,21.11,20,42.21,20,21.11-20,42.21-20"/></g></g></svg>