<?xml version="1.0" encoding="UTF-8"?><svg xmlns="http://www.w3.org/2000/svg" viewBox="0 0 275.44 140.87"><defs><style>.d{fill:#fff;}.e{fill:#19192d;}</style></defs><g id="a"/><g id="b"><g id="c"><g><path class="d" d="M93.33,10.71L90.55,.21h2.17l2.02,7.79L96.92,.21h1.79l2.2,7.77,1.99-7.77h1.99l-2.76,10.5h-2.35l-1.99-6.97-1.98,6.97h-2.5Z"/><path class="d" d="M107.41,.21h2.07V10.71h-2.07V.21Z"/><path class="d" d="M118.63,.21h2.07V10.71h-1.58l-4.5-6.42v6.42h-2.07V.21h1.57l4.5,6.4V.21Z"/><path class="d" d="M127.94,.21c1.44,0,2.64,.51,3.61,1.52s1.45,2.26,1.45,3.73-.48,2.72-1.45,3.74c-.96,1.01-2.17,1.51-3.61,1.51h-4.17V.21h4.17Zm0,8.52c.91,0,1.65-.3,2.22-.91,.57-.61,.85-1.39,.85-2.36s-.29-1.76-.85-2.36c-.57-.61-1.31-.91-2.22-.91h-2.1v6.54h2.1Z"/><path class="d" d="M144.05,10.92c-1.04,0-1.92-.23-2.62-.7-.71-.46-1.21-1.1-1.5-1.9l1.77-1.04c.41,1.07,1.21,1.61,2.42,1.61,.58,0,1-.11,1.28-.31,.27-.21,.4-.47,.4-.79,0-.37-.17-.66-.49-.86-.33-.21-.92-.43-1.77-.67-.47-.14-.87-.28-1.19-.42-.33-.14-.65-.33-.97-.56-.33-.23-.57-.53-.74-.89-.17-.36-.25-.78-.25-1.26,0-.95,.34-1.71,1.01-2.27,.67-.57,1.49-.85,2.44-.85,.85,0,1.6,.21,2.24,.62,.65,.42,1.15,.99,1.51,1.73l-1.74,1.01c-.42-.9-1.09-1.35-2.01-1.35-.43,0-.77,.1-1.01,.29-.25,.19-.37,.45-.37,.76,0,.33,.14,.6,.41,.8s.8,.43,1.58,.67c.32,.1,.56,.18,.73,.23s.39,.14,.67,.26,.5,.22,.66,.32c.15,.1,.33,.23,.53,.4s.35,.35,.46,.53c.11,.18,.2,.4,.27,.65s.11,.53,.11,.83c0,.97-.35,1.74-1.06,2.31s-1.62,.86-2.75,.86Z"/><path class="d" d="M154.18,.21c1.01,0,1.86,.34,2.55,1.02,.69,.68,1.04,1.52,1.04,2.51s-.35,1.82-1.04,2.51c-.69,.68-1.54,1.02-2.55,1.02h-1.85v3.45h-2.07V.21h3.92Zm0,5.12c.44,0,.8-.15,1.09-.46s.43-.68,.43-1.13-.14-.84-.43-1.14c-.29-.3-.66-.45-1.09-.45h-1.85v3.18h1.85Z"/><path class="d" d="M162.31,8.73h4.42v1.98h-6.5V.21h6.42v1.98h-4.35v2.23h3.97v1.95h-3.97v2.35Z"/><path class="d" d="M171.38,8.73h4.42v1.98h-6.5V.21h6.42v1.98h-4.35v2.23h3.97v1.95h-3.97v2.35Z"/><path class="d" d="M182.56,.21c1.44,0,2.64,.51,3.61,1.52,.96,1.01,1.45,2.26,1.45,3.73s-.48,2.72-1.45,3.74c-.97,1.01-2.17,1.51-3.61,1.51h-4.17V.21h4.17Zm0,8.52c.91,0,1.65-.3,2.22-.91s.86-1.39,.86-2.36-.29-1.76-.86-2.36c-.57-.61-1.31-.91-2.22-.91h-2.1v6.54h2.1Z"/></g><rect class="e" y="28.37" width="275.44" height="112.5" rx="23.44" ry="23.44"/><path class="d" d="M94.81,117.05v-9.26l21.49-22.12c4.79-5.04,7.19-9.23,7.19-12.59,0-2.46-.76-4.44-2.29-5.93-1.53-1.5-3.49-2.25-5.89-2.25-4.74,0-8.24,2.46-10.52,7.37l-10.43-6.11c1.98-4.32,4.82-7.61,8.54-9.89,3.72-2.28,7.79-3.42,12.23-3.42,5.69,0,10.58,1.78,14.66,5.35,4.08,3.57,6.11,8.38,6.11,14.43-.01,6.52-3.45,13.23-10.33,20.11l-12.35,12.36h23.66v11.96h-42.08Z"/><g><path class="d" d="M171.02,77.3v16.03h-3.14v-10.39l-4.52,7.44h-.37l-4.5-7.4v10.36h-3.16v-16.03h3.25l4.6,7.57,4.57-7.57h3.26Z"/><path class="d" d="M176.29,95.62h-1.3l9.16-20.6h1.31l-9.16,20.6Z"/><path class="d" d="M194.88,93.65c-1.59,0-2.92-.35-4.01-1.06-1.08-.71-1.85-1.67-2.29-2.9l2.7-1.58c.63,1.63,1.85,2.45,3.69,2.45,.88,0,1.53-.16,1.95-.48,.41-.32,.62-.72,.62-1.21,0-.56-.25-1-.76-1.32-.5-.31-1.4-.65-2.7-1.02-.72-.21-1.33-.43-1.82-.64-.5-.21-.99-.5-1.49-.86-.5-.36-.87-.81-1.13-1.36-.26-.55-.39-1.19-.39-1.92,0-1.45,.52-2.61,1.55-3.47s2.27-1.29,3.72-1.29c1.3,0,2.44,.32,3.42,.95,.99,.63,1.75,1.52,2.3,2.64l-2.66,1.54c-.64-1.38-1.66-2.06-3.07-2.06-.66,0-1.17,.15-1.55,.45-.37,.3-.56,.68-.56,1.16,0,.5,.21,.91,.63,1.22,.42,.31,1.22,.65,2.42,1.02,.49,.15,.86,.27,1.11,.36s.59,.21,1.03,.39c.43,.18,.77,.34,1.01,.49,.24,.15,.51,.36,.81,.62,.3,.26,.54,.53,.7,.8s.3,.61,.41,1,.17,.81,.17,1.27c0,1.48-.54,2.66-1.61,3.53-1.08,.87-2.48,1.3-4.2,1.3Z"/></g></g></g></svg>