<?xml version="1.0" encoding="UTF-8"?><svg xmlns="http://www.w3.org/2000/svg" viewBox="0 0 248.87 288.67"><defs><style>.d{fill:#54b5b1;stroke-miterlimit:10;stroke-width:5px;}.d,.e{stroke:#fff;}.f{fill:#fff;}.g,.h{fill:#19192d;}.e{fill:none;stroke-linecap:round;stroke-linejoin:round;stroke-width:3px;}.h{opacity:.23;}</style></defs><g id="a"/><g id="b"><g id="c"><g><rect class="g" y="28.37" width="248.87" height="260.3" rx="23.44" ry="23.44"/><circle class="h" cx="124.44" cy="158.52" r="120.67"/><circle class="d" cx="127.46" cy="158.42" r="79.74"/><path class="g" d="M182.11,161.45l2.93-2.93-2.89-2.89,2.59-3.17-3.05-2.49,2.19-3.27-3.08-2.06,1.77-3.26-3.52-1.92c-.08-.23-.16-.45-.24-.67l1.52-3.71-3.46-1.42,1.09-3.58-3.78-1.16c-.08-.14-.17-.28-.25-.43l.75-3.88-3.64-.71,.38-3.69-3.9-.4c-.07-.08-.14-.16-.22-.25v-3.91h-3.89c-.07-.07-.15-.13-.22-.2l-.39-3.87-3.84,.39s-.06-.04-.09-.06l-.75-3.79-3.64,.72-1.05-3.56-3.66,1.08c-.3-.14-.59-.29-.89-.43l-1.48-3.52-3.45,1.45-1.75-3.3-3.35,1.78c-.24-.06-.47-.12-.71-.17l-2.12-3.15-3.07,2.07-2.34-2.87-2.95,2.4c-.16,0-.33-.02-.49-.02l-2.69-2.69-2.69,2.69c-.14,0-.28,.01-.42,.02l-2.94-2.41-2.4,2.94c-.07,0-.14,.02-.21,.03l-3.16-2.11-2.06,3.08-3.26-1.77-1.82,3.34c-.32,.11-.64,.22-.96,.34l-3.52-1.44-1.42,3.46-3.58-1.09-1.12,3.67c-.19,.11-.38,.23-.57,.34l-3.77-.73-.71,3.64-3.69-.38-.39,3.87c-.09,.08-.18,.16-.27,.25h-3.89v3.91c-.06,.06-.11,.13-.17,.19l-3.9,.39,.39,3.92h0l-3.86,.77,.72,3.64-3.56,1.05,1.12,3.81c-.11,.23-.21,.46-.32,.69l-3.67,1.54,1.45,3.45-3.3,1.75,1.9,3.57c-.03,.12-.06,.24-.09,.36l-3.35,2.26,2.07,3.07-2.87,2.34,2.6,3.19v.02l-2.91,2.91,2.89,2.89-2.59,3.17,3.05,2.49-2.19,3.27,3.08,2.06-1.77,3.26,3.71,2.02c.04,.12,.08,.24,.13,.36l-1.6,3.91,3.46,1.42-1.09,3.58,4.1,1.26-.82,4.21,3.64,.71-.38,3.69,4.12,.42v4.14h4.09l.41,4.07,3.92-.39,.77,3.86,3.64-.72,1.05,3.56,4.24-1.25,.09,.04,1.71,4.08,3.45-1.45,1.75,3.3,3.79-2.01,2.4,3.55,3.07-2.07,2.34,2.87,3.21-2.61,2.93,2.93,2.89-2.89,3.17,2.59,2.49-3.05,3.28,2.19,2.06-3.08,3.26,1.77,2.12-3.89,.08-.03,4.1,1.68,1.42-3.46,3.58,1.09,1.26-4.1,4.21,.82,.71-3.64,3.69,.38,.42-4.12h4.14v-4.09l4.07-.41-.39-3.92,3.86-.77-.72-3.64,3.56-1.05-1.21-4.09c.05-.1,.1-.2,.14-.3l3.93-1.65-1.45-3.45,3.3-1.75-1.97-3.71s.02-.09,.03-.13l3.48-2.35-2.07-3.07,2.87-2.34-2.61-3.21Z"/><path class="e" d="M25.92,129.48c9.87-34.7,37.51-61.92,72.46-71.19"/><path class="e" d="M104.1,258.37c-39.71-8.13-71.08-39.15-79.71-78.67"/><path class="e" d="M223.87,185.24c-10.21,36.75-40.33,65.22-78,73.06"/><path class="e" d="M150.09,57.99c34.62,8.75,62.25,35.07,72.84,68.92"/><g><path class="f" d="M98.28,143.14c1.05-.3,2.22-.2,3.25,.37l50.37,27.93c2.06,1.14,2.81,3.74,1.66,5.81-1.14,2.06-3.74,2.81-5.81,1.66l-50.37-27.93c-2.06-1.14-2.81-3.74-1.66-5.81,.57-1.03,1.51-1.73,2.56-2.03Z"/><path class="f" d="M97.87,142.91l30.04-8.61c2.27-.65,4.63,.66,5.28,2.93,.65,2.27-.66,4.63-2.93,5.28l-25.93,7.43,7.43,25.93c.65,2.27-.66,4.63-2.93,5.28-2.27,.65-4.63-.66-5.28-2.93l-8.61-30.04c-.65-2.27,.66-4.63,2.93-5.28Z"/></g><path class="f" d="M130.98,47.33h3.92v19.88h-2.98l-8.52-12.16v12.16h-3.92v-19.88h2.98l8.52,12.11v-12.11Z"/><path class="f" d="M126.27,269.48c-1.97,0-3.63-.44-4.97-1.32-1.34-.88-2.29-2.08-2.84-3.59l3.35-1.96c.78,2.03,2.3,3.04,4.57,3.04,1.1,0,1.9-.2,2.41-.6,.51-.4,.77-.9,.77-1.51,0-.7-.31-1.24-.94-1.63s-1.74-.81-3.35-1.26c-.89-.27-1.64-.53-2.26-.79s-1.23-.62-1.85-1.07c-.62-.44-1.08-1.01-1.41-1.69-.32-.68-.48-1.48-.48-2.38,0-1.8,.64-3.23,1.92-4.3,1.28-1.07,2.82-1.61,4.62-1.61,1.61,0,3.02,.39,4.25,1.18,1.22,.79,2.17,1.88,2.85,3.28l-3.29,1.9c-.8-1.7-2.06-2.55-3.81-2.55-.81,0-1.45,.18-1.92,.55-.46,.37-.7,.85-.7,1.44,0,.62,.26,1.13,.78,1.52,.52,.39,1.52,.81,3,1.26,.61,.19,1.07,.34,1.38,.44,.31,.1,.74,.27,1.28,.48,.54,.22,.96,.42,1.25,.61,.29,.19,.63,.45,1.01,.77,.38,.32,.67,.65,.87,.99,.2,.34,.37,.75,.51,1.24,.14,.48,.21,1.01,.21,1.58,0,1.84-.67,3.29-2,4.37-1.33,1.08-3.07,1.62-5.21,1.62Z"/><path class="f" d="M16.11,165.78l-5.26-19.88h4.1l3.82,14.74,4.15-14.74h3.4l4.16,14.7,3.77-14.7h3.78l-5.22,19.88h-4.46l-3.77-13.19-3.74,13.19h-4.73Z"/><g><path class="f" d="M63.46,10.71L60.68,.21h2.17l2.02,7.79L67.06,.21h1.79l2.2,7.76,1.99-7.76h1.99l-2.76,10.5h-2.36l-1.99-6.97-1.98,6.97h-2.5Z"/><path class="f" d="M77.54,.21h2.07V10.71h-2.07V.21Z"/><path class="f" d="M88.76,.21h2.07V10.71h-1.58l-4.5-6.42v6.42h-2.07V.21h1.57l4.5,6.4V.21Z"/><path class="f" d="M98.08,.21c1.44,0,2.64,.5,3.61,1.51,.96,1.01,1.45,2.26,1.45,3.74s-.48,2.72-1.45,3.74c-.97,1.01-2.17,1.51-3.61,1.51h-4.17V.21h4.17Zm0,8.52c.91,0,1.65-.3,2.22-.91,.57-.6,.86-1.39,.86-2.36s-.29-1.76-.86-2.36c-.57-.61-1.31-.91-2.22-.91h-2.1v6.54h2.1Z"/><path class="f" d="M114.77,.21c1.44,0,2.64,.5,3.61,1.51,.96,1.01,1.45,2.26,1.45,3.74s-.48,2.72-1.45,3.74c-.96,1.01-2.17,1.51-3.61,1.51h-4.17V.21h4.17Zm0,8.52c.91,0,1.65-.3,2.22-.91,.57-.6,.85-1.39,.85-2.36s-.29-1.76-.85-2.36c-.57-.61-1.31-.91-2.22-.91h-2.1v6.54h2.1Z"/><path class="f" d="M122.42,.21h2.07V10.71h-2.07V.21Z"/><path class="f" d="M133.33,10.71l-2.12-3.64h-1.57v3.64h-2.07V.21h4.2c.97,0,1.79,.34,2.47,1.02s1.02,1.5,1.02,2.46c0,.65-.19,1.25-.55,1.81-.37,.56-.86,.97-1.47,1.25l2.33,3.96h-2.24Zm-3.69-8.57v3.11h2.13c.39,0,.72-.15,1-.46,.28-.3,.42-.67,.42-1.1s-.14-.8-.42-1.1-.62-.45-1-.45h-2.13Z"/><path class="f" d="M139.97,8.73h4.42v1.98h-6.5V.21h6.42v1.98h-4.35v2.23h3.97v1.95h-3.97v2.35Z"/><path class="f" d="M151.88,10.92c-1.58,0-2.89-.53-3.92-1.58-1.03-1.05-1.54-2.34-1.54-3.88s.51-2.85,1.54-3.89c1.03-1.04,2.33-1.57,3.92-1.57,.95,0,1.83,.22,2.63,.67,.81,.45,1.43,1.05,1.88,1.81l-1.79,1.04c-.26-.47-.63-.84-1.11-1.1-.48-.26-1.02-.4-1.62-.4-1.02,0-1.84,.32-2.47,.96-.62,.64-.94,1.47-.94,2.49s.31,1.83,.94,2.47c.62,.64,1.45,.96,2.47,.96,.6,0,1.14-.13,1.63-.4,.49-.26,.85-.63,1.1-1.09l1.79,1.04c-.45,.76-1.08,1.36-1.88,1.81-.8,.44-1.68,.67-2.64,.67Z"/><path class="f" d="M165.7,.21v1.98h-2.83V10.71h-2.07V2.19h-2.82V.21h7.73Z"/><path class="f" d="M167.98,.21h2.07V10.71h-2.07V.21Z"/><path class="f" d="M181.96,9.34c-1.06,1.05-2.35,1.58-3.87,1.58s-2.81-.53-3.86-1.58-1.58-2.35-1.58-3.88,.53-2.82,1.58-3.88,2.34-1.58,3.86-1.58,2.81,.53,3.87,1.58c1.06,1.06,1.59,2.35,1.59,3.88s-.53,2.82-1.59,3.88Zm-6.29-1.41c.65,.64,1.46,.97,2.42,.97s1.76-.32,2.42-.97c.65-.65,.97-1.47,.97-2.47s-.33-1.83-.97-2.47-1.46-.98-2.42-.98-1.77,.33-2.42,.98c-.65,.65-.98,1.47-.98,2.47s.33,1.82,.98,2.47Z"/><path class="f" d="M192.2,.21h2.07V10.71h-1.58l-4.5-6.42v6.42h-2.07V.21h1.57l4.5,6.4V.21Z"/></g><polygon class="f" points="49.97 144.65 35.72 118.56 64.57 111.38 49.97 144.65"/></g></g></g></svg>