<?xml version="1.0" encoding="UTF-8"?><svg xmlns="http://www.w3.org/2000/svg" xmlns:xlink="http://www.w3.org/1999/xlink" viewBox="0 0 578.93 379.89"><defs><style>.d{fill:#e9a72d;stroke:#fff;stroke-width:5px;}.d,.e,.f,.g{stroke-miterlimit:10;}.e{fill:#3e3e56;}.e,.f,.g{stroke:#111;stroke-width:2px;}.f{fill:#19192d;}.h{isolation:isolate;}.i{mix-blend-mode:multiply;opacity:.28;}</style></defs><g class="h"><g id="a"/><g id="b"><g id="c"><g><rect class="d" x="2.5" y="12.35" width="573.93" height="302.97" rx="43.56" ry="43.56"/><g><g><path class="g" d="M308.45,130.22c-65.17,70.49-41.78,111.54-41.78,111.54,14.62,11.12,37.27,4.07,37.27,4.07l.74-13.48c-21.19,6.84-27.77,6.41-27.77,6.41-2.19-34.63,50.15-89.39,50.15-89.39l-18.61-19.15Z"/><path class="e" d="M500.19,225.72c3.03-36.81-87.91-120.24-87.91-120.24-7.23-7.68,7.38-24.64,7.38-24.64,11.45-23.3-15.65-41.78-15.65-41.78-13.49-6.55-41.23,30.32-41.23,30.32l-15.12-2.96c-26.25,8.98-51.57,50.71-51.57,50.71-6.26,23.45,26.16,66.36,26.16,66.36-27.5,40.8-21.67,122.94-21.67,122.94,118.67,55.11,204.78-8.92,204.78-8.92l-5.16-71.79Zm-102.61-139.54c-6.11-5.35-12.99-6.83-12.99-6.83,9.17-45.11,25.97-22.96,25.97-22.96,8.4,11.46-12.99,29.79-12.99,29.79Z"/><path class="f" d="M410.42,101.76c-.61,27.2,14.53,54.06,14.53,54.06"/><path class="f" d="M322.24,183.49c10.42,30.26,43.27,53.87,43.27,53.87"/><path class="g" d="M300.79,268.5c111.31,38.6,202.07-1.76,202.07-1.76l1.95,27.16c.52,7.28-2.95,14.27-9.07,18.24-23.23,15.07-78.06,20.63-78.06,20.63-56.69,2.12-88.44-5.82-104.11-11.94-7.7-3.01-12.78-10.41-12.78-18.68v-33.65Z"/><path class="g" d="M296.08,117.13c32.5-26.36,52.29-25.13,52.29-25.13l5.72,15.3c-38.23,8.93-55.72,32.75-55.72,32.75-7.47-9.06-2.29-22.93-2.29-22.93Z"/><path class="g" d="M439.63,132.5c-10.72,2.06-19.08,14.2-19.08,14.2l-5.29-14.2c7.02-8.63,14.29-10.3,14.29-10.3l10.07,10.3Z"/><path class="f" d="M384.6,79.35l-3.06,24.42-23.43-4.85c-.51-13.75,4.65-29.53,4.65-29.53-53.03,9.16,49.76,114.16,49.76,114.16,30.13,29.45,35.48,74.46,35.48,74.46"/><path class="f" d="M397.59,86.18c6.88,8.15,14.69,19.31,14.69,19.31"/><path class="g" d="M303.2,151.95c-45.41,83.96-29.11,132.85-29.11,132.85,10.19,13.24,25.97,4.85,25.97,4.85l.51-16.05c-14.77,8.15-19.35,7.64-19.35,7.64-1.53-41.25,34.95-106.48,34.95-106.48l-12.97-22.81Z"/><path class="g" d="M365.5,126.6c21.14,6.95,44.9-4.4,44.9-4.4l4.86,15.42c-17.42,7.64-34.96,9.08-34.96,9.08l-14.8-20.1Z"/></g></g></g></g></g></g></svg>