<?xml version="1.0" encoding="UTF-8"?><svg xmlns="http://www.w3.org/2000/svg" viewBox="0 0 223.41 287.76"><defs><style>.d{letter-spacing:.02em;}.e{fill:#19192d;}.f{stroke:#fff;}.f,.g{fill:none;stroke-miterlimit:10;stroke-width:5px;}.g{stroke:#54b5b1;}.h{letter-spacing:.07em;}.i{font-size:65.75px;}.i,.j{fill:#fff;font-family:Gilroy-Bold, Gilroy-Bold;}.k{letter-spacing:.03em;}.l{letter-spacing:0em;}.j{font-size:15px;}</style></defs><g id="a"/><g id="b"><g id="c"><g><text class="j" transform="translate(57.23 12.75)"><tspan class="k" x="0" y="0">WA</tspan><tspan class="h" x="26.06" y="0">VE HEIGHT</tspan></text><rect class="e" y="27.46" width="223.41" height="260.3" rx="23.44" ry="23.44"/><text class="i" transform="translate(39.23 241.34)"><tspan class="l" x="0" y="0">0</tspan><tspan class="d" x="41.09" y="0">.1m</tspan></text></g><path class="g" d="M31.29,70.6c21.1,0,21.1,20,42.21,20s21.1-20,42.21-20,21.11,20,42.21,20,21.11-20,42.21-20"/><path class="f" d="M31.29,101.8c21.1,0,21.1,20,42.21,20s21.1-20,42.21-20,21.11,20,42.21,20,21.11-20,42.21-20"/><path class="g" d="M31.29,133c21.1,0,21.1,20,42.21,20s21.1-20,42.21-20,21.11,20,42.21,20,21.11-20,42.21-20"/></g></g></svg>