<?xml version="1.0" encoding="UTF-8"?><svg xmlns="http://www.w3.org/2000/svg" viewBox="0 0 248.87 290.71"><defs><style>.d{letter-spacing:.07em;}.d,.e{font-size:28.4px;}.d,.e,.f,.g{fill:#fff;}.d,.e,.g{font-family:Gilroy-Bold, Gilroy-Bold;}.e{letter-spacing:.08em;}.h{fill:#54b5b1;stroke-miterlimit:10;stroke-width:5px;}.h,.i{stroke:#fff;}.j,.k{fill:#19192d;}.g{font-size:15px;letter-spacing:.07em;}.i{fill:none;stroke-linecap:round;stroke-linejoin:round;stroke-width:3px;}.k{opacity:.23;}</style></defs><g id="a"/><g id="b"><g id="c"><g><rect class="j" y="30.41" width="248.87" height="260.3" rx="23.44" ry="23.44"/><circle class="k" cx="124.44" cy="160.56" r="120.67"/><circle class="h" cx="124.44" cy="160.56" r="79.74"/><path class="j" d="M182.11,163.49l2.93-2.93-2.89-2.89,2.59-3.17-3.05-2.49,2.19-3.27-3.08-2.06,1.77-3.26-3.52-1.92c-.08-.23-.16-.45-.24-.67l1.52-3.71-3.46-1.42,1.09-3.58-3.78-1.16c-.08-.14-.17-.28-.25-.43l.75-3.88-3.64-.71,.38-3.69-3.9-.4c-.07-.08-.14-.16-.22-.25v-3.91h-3.89c-.07-.07-.15-.13-.22-.2l-.39-3.87-3.84,.39s-.06-.04-.09-.06l-.75-3.79-3.64,.72-1.05-3.56-3.66,1.08c-.3-.14-.59-.29-.89-.43l-1.48-3.52-3.45,1.45-1.75-3.3-3.35,1.78c-.24-.06-.47-.12-.71-.17l-2.12-3.15-3.07,2.07-2.34-2.87-2.95,2.4c-.16,0-.33-.02-.49-.02l-2.69-2.69-2.69,2.69c-.14,0-.28,.01-.42,.02l-2.94-2.41-2.4,2.94c-.07,0-.14,.02-.21,.03l-3.16-2.11-2.06,3.08-3.26-1.77-1.82,3.34c-.32,.11-.64,.22-.96,.34l-3.52-1.44-1.42,3.46-3.58-1.09-1.12,3.67c-.19,.11-.38,.23-.57,.34l-3.77-.73-.71,3.64-3.69-.38-.39,3.87c-.09,.08-.18,.16-.27,.25h-3.89v3.91c-.06,.06-.11,.13-.17,.19l-3.9,.39,.39,3.92h0l-3.86,.77,.72,3.64-3.56,1.05,1.12,3.81c-.11,.23-.21,.46-.32,.69l-3.67,1.54,1.45,3.45-3.3,1.75,1.9,3.57c-.03,.12-.06,.24-.09,.36l-3.35,2.26,2.07,3.07-2.87,2.34,2.6,3.19v.02l-2.91,2.91,2.89,2.89-2.59,3.17,3.05,2.49-2.19,3.27,3.08,2.06-1.77,3.26,3.71,2.02c.04,.12,.08,.24,.13,.36l-1.6,3.91,3.46,1.42-1.09,3.58,4.1,1.26-.82,4.21,3.64,.71-.38,3.69,4.12,.42v4.14h4.09l.41,4.07,3.92-.39,.77,3.86,3.64-.72,1.05,3.56,4.24-1.25,.09,.04,1.71,4.08,3.45-1.45,1.75,3.3,3.79-2.01,2.4,3.55,3.07-2.07,2.34,2.87,3.21-2.61,2.93,2.93,2.89-2.89,3.17,2.59,2.49-3.05,3.28,2.19,2.06-3.08,3.26,1.77,2.12-3.89,.08-.03,4.1,1.68,1.42-3.46,3.58,1.09,1.26-4.1,4.21,.82,.71-3.64,3.69,.38,.42-4.12h4.14v-4.09l4.07-.41-.39-3.92,3.86-.77-.72-3.64,3.56-1.05-1.21-4.09c.05-.1,.1-.2,.14-.3l3.93-1.65-1.45-3.45,3.3-1.75-1.97-3.71s.02-.09,.03-.13l3.48-2.35-2.07-3.07,2.87-2.34-2.61-3.21Z"/><path class="i" d="M25.92,131.52c9.87-34.7,37.51-61.92,72.46-71.19"/><path class="i" d="M104.1,260.41c-39.71-8.13-71.08-39.15-79.71-78.67"/><path class="i" d="M223.87,187.28c-10.21,36.75-40.33,65.22-78,73.06"/><path class="i" d="M150.09,60.03c34.62,8.75,62.25,35.07,72.84,68.92"/><g><path class="f" d="M152.31,147.99c-.21,1.07-.83,2.07-1.81,2.72l-47.76,32.18c-1.96,1.32-4.61,.8-5.93-1.15-1.32-1.96-.8-4.61,1.15-5.93l47.76-32.18c1.96-1.32,4.61-.8,5.93,1.15,.66,.98,.86,2.13,.65,3.2Z"/><path class="f" d="M152.71,147.73l-5.98,30.67c-.45,2.32-2.69,3.83-5.01,3.38-2.32-.45-3.83-2.69-3.38-5.01l5.16-26.48-26.48-5.16c-2.32-.45-3.83-2.69-3.38-5.01s2.69-3.83,5.01-3.38l30.67,5.98c2.32,.45,3.83,2.69,3.38,5.01Z"/></g><text class="d" transform="translate(117.63 69.25)"><tspan x="0" y="0">N</tspan></text><text class="e" transform="translate(117.63 271.13)"><tspan x="0" y="0">S</tspan></text><text class="e" transform="translate(10.42 167.82)"><tspan x="0" y="0">W</tspan></text><text class="g" transform="translate(102.46 12.75)"><tspan x="0" y="0">WIND</tspan></text><polygon class="f" points="177.53 102.47 207.2 104.4 197.82 132.61 177.53 102.47"/></g></g></g></svg>