<?xml version="1.0" encoding="utf-8"?>
<!-- Generator: Adobe Illustrator 26.3.1, SVG Export Plug-In . SVG Version: 6.00 Build 0)  -->
<svg version="1.1" id="Layer_1" xmlns="http://www.w3.org/2000/svg" xmlns:xlink="http://www.w3.org/1999/xlink" x="0px" y="0px"
	 viewBox="0 0 284.9 91.7" style="enable-background:new 0 0 284.9 91.7;" xml:space="preserve">
<style type="text/css">
	.st0{fill:#E9A72D;}
	.st1{opacity:0.2;}
	.st2{fill:#FBEDD5;}
	.st3{enable-background:new    ;}
	.st4{fill:#19192D;}
</style>
<g id="a">
</g>
<g id="b">
	<g id="c">
		<g>
			<path class="st0" d="M46.2,24.4h193.9c11.8,0,21.4,9.6,21.4,21.4v0c0,11.8-9.6,21.4-21.4,21.4H46.2c-11.8,0-21.4-9.6-21.4-21.4v0
				C24.8,34,34.4,24.4,46.2,24.4z"/>
			<g class="st1">
				<path class="st2" d="M239,17c15.9,0,28.8,12.9,28.8,28.8S254.9,74.7,239,74.7H45.8C29.9,74.7,17,61.8,17,45.8S29.9,17,45.8,17
					L239,17 M239,0H45.8C33.6,0,22.1,4.8,13.4,13.4S0,33.6,0,45.8s4.8,23.8,13.4,32.4s20.2,13.4,32.4,13.4H239
					c25.3,0,45.8-20.6,45.8-45.8c0-12.2-4.8-23.8-13.4-32.4S251.3,0,239,0C239,0,239,0,239,0z"/>
			</g>
			<g class="st3">
				<path class="st4" d="M82.7,56.1c-2.9,0-5.3-1-7.2-2.9c-1.9-1.9-2.8-4.3-2.8-7.1c0-2.8,0.9-5.2,2.8-7.2c1.9-1.9,4.3-2.9,7.2-2.9
					c1.7,0,3.4,0.4,4.8,1.2c1.5,0.8,2.6,1.9,3.5,3.3l-3.3,1.9c-0.5-0.9-1.2-1.5-2-2c-0.9-0.5-1.9-0.7-3-0.7c-1.9,0-3.4,0.6-4.5,1.8
					c-1.1,1.2-1.7,2.7-1.7,4.6c0,1.9,0.6,3.4,1.7,4.5c1.1,1.2,2.7,1.8,4.5,1.8c1.1,0,2.1-0.2,3-0.7c0.9-0.5,1.6-1.2,2-2l3.3,1.9
					c-0.8,1.4-2,2.5-3.4,3.3C86.1,55.7,84.5,56.1,82.7,56.1z"/>
			</g>
			<g class="st3">
				<path class="st4" d="M112.2,53.2c-1.9,1.9-4.3,2.9-7.1,2.9s-5.2-1-7.1-2.9c-1.9-1.9-2.9-4.3-2.9-7.1c0-2.8,1-5.2,2.9-7.1
					s4.3-2.9,7.1-2.9s5.2,1,7.1,2.9c1.9,1.9,2.9,4.3,2.9,7.1C115.1,48.9,114.1,51.3,112.2,53.2z M100.6,50.6
					c1.2,1.2,2.7,1.8,4.4,1.8c1.8,0,3.2-0.6,4.4-1.8c1.2-1.2,1.8-2.7,1.8-4.5c0-1.8-0.6-3.4-1.8-4.5c-1.2-1.2-2.7-1.8-4.4-1.8
					c-1.8,0-3.2,0.6-4.4,1.8s-1.8,2.7-1.8,4.5C98.8,47.9,99.4,49.4,100.6,50.6z"/>
				<path class="st4" d="M131.7,36.4h3.8v19.3h-2.9l-8.3-11.8v11.8h-3.8V36.4h2.9l8.3,11.8V36.4z"/>
				<path class="st4" d="M153.3,40.1h-7.7v4.6h7.5v3.6h-7.5v7.4h-3.8V36.4h11.5V40.1z"/>
				<path class="st4" d="M158.9,36.4h3.8v19.3h-3.8V36.4z"/>
				<path class="st4" d="M179.6,55.7l-3.9-6.7h-2.9v6.7H169V36.4h7.7c1.8,0,3.3,0.6,4.5,1.9c1.2,1.2,1.9,2.8,1.9,4.5
					c0,1.2-0.3,2.3-1,3.3c-0.7,1-1.6,1.8-2.7,2.3l4.3,7.3H179.6z M172.8,40v5.7h3.9c0.7,0,1.3-0.3,1.8-0.8c0.5-0.6,0.8-1.2,0.8-2
					c0-0.8-0.3-1.5-0.8-2c-0.5-0.6-1.1-0.8-1.8-0.8H172.8z"/>
				<path class="st4" d="M207.6,36.4v19.3h-3.8V43.2l-5.4,9l-0.4,0l-5.4-8.9v12.5h-3.8V36.4h3.9l5.5,9.1l5.5-9.1H207.6z"/>
			</g>
		</g>
	</g>
</g>
</svg>
