<?xml version="1.0" encoding="utf-8"?>
<!-- Generator: Adobe Illustrator 26.3.1, SVG Export Plug-In . SVG Version: 6.00 Build 0)  -->
<svg version="1.1" id="Layer_1" xmlns="http://www.w3.org/2000/svg" xmlns:xlink="http://www.w3.org/1999/xlink" x="0px" y="0px"
	 viewBox="0 0 478.5 279.7" style="enable-background:new 0 0 478.5 279.7;" xml:space="preserve">
<style type="text/css">
	.st0{fill:#19192D;stroke:#FFFFFF;stroke-width:5;stroke-miterlimit:10;}
	.st1{enable-background:new    ;}
	.st2{fill:#FFFFFF;}
	.st3{fill:#E9A72D;}
</style>
<g id="a">
</g>
<g id="b">
	<g id="c">
		<g>
			<path class="st0" d="M46.1,2.5h334.1c24.1,0,43.6,19.5,43.6,43.6v187.6c0,24.1-19.5,43.6-43.6,43.6H46.1
				c-24.1,0-43.6-19.5-43.6-43.6V46.1C2.5,22,22,2.5,46.1,2.5z"/>
			<g class="st1">
				<path class="st2" d="M81.4,143l-5.8-22h4.5l4.2,16.3l4.6-16.3h3.7l4.6,16.2l4.2-16.2h4.2l-5.8,22h-4.9l-4.2-14.6L86.6,143H81.4z
					"/>
			</g>
			<g class="st1">
				<path class="st2" d="M110.8,136.9c0.5,2,2,2.9,4.4,2.9c1.5,0,2.7-0.5,3.5-1.6l3.3,1.9c-1.5,2.2-3.8,3.4-6.8,3.4
					c-2.6,0-4.7-0.8-6.2-2.4c-1.6-1.6-2.4-3.5-2.4-5.9c0-2.4,0.8-4.3,2.3-5.9c1.5-1.6,3.5-2.4,6-2.4c2.3,0,4.2,0.8,5.7,2.4
					c1.5,1.6,2.2,3.6,2.2,5.9c0,0.5-0.1,1.1-0.2,1.7H110.8z M110.7,133.7h8c-0.2-1.1-0.7-1.9-1.4-2.4c-0.7-0.5-1.5-0.8-2.5-0.8
					c-1.1,0-2,0.3-2.7,0.8C111.4,131.9,111,132.7,110.7,133.7z"/>
			</g>
			<g class="st1">
				<path class="st2" d="M138.3,121.1h4v22h-4v-1.9c-1.2,1.5-2.9,2.3-5.1,2.3c-2.1,0-3.9-0.8-5.4-2.4s-2.2-3.6-2.2-5.9
					s0.7-4.3,2.2-5.9c1.5-1.6,3.3-2.4,5.4-2.4c2.2,0,3.9,0.8,5.1,2.3V121.1z M130.8,138.4c0.8,0.8,1.9,1.2,3.1,1.2s2.3-0.4,3.1-1.2
					c0.8-0.8,1.2-1.9,1.2-3.2s-0.4-2.4-1.2-3.2c-0.8-0.8-1.9-1.2-3.1-1.2s-2.3,0.4-3.1,1.2c-0.8,0.8-1.2,1.9-1.2,3.2
					S130,137.5,130.8,138.4z"/>
				<path class="st2" d="M155.7,126.9c1.7,0,3.1,0.6,4.2,1.7c1.1,1.2,1.7,2.7,1.7,4.8v9.6h-4v-9.1c0-1-0.3-1.8-0.8-2.4
					s-1.3-0.8-2.3-0.8c-1,0-1.9,0.3-2.5,1c-0.6,0.6-0.9,1.6-0.9,2.9v8.5h-4v-15.7h4v1.8C152,127.6,153.5,126.9,155.7,126.9z"/>
			</g>
			<g class="st1">
				<path class="st2" d="M169.4,136.9c0.5,2,2,2.9,4.4,2.9c1.5,0,2.7-0.5,3.5-1.6l3.3,1.9c-1.5,2.2-3.8,3.4-6.8,3.4
					c-2.6,0-4.7-0.8-6.2-2.4c-1.6-1.6-2.4-3.5-2.4-5.9c0-2.4,0.8-4.3,2.3-5.9c1.5-1.6,3.5-2.4,6-2.4c2.3,0,4.2,0.8,5.7,2.4
					c1.5,1.6,2.2,3.6,2.2,5.9c0,0.5-0.1,1.1-0.2,1.7H169.4z M169.4,133.7h8c-0.2-1.1-0.7-1.9-1.4-2.4c-0.7-0.5-1.5-0.8-2.5-0.8
					c-1.1,0-2,0.3-2.7,0.8C170.1,131.9,169.6,132.7,169.4,133.7z"/>
			</g>
			<g class="st1">
				<path class="st2" d="M188.3,131.8c0,0.4,0.3,0.8,0.8,1c0.6,0.3,1.2,0.5,2,0.7c0.8,0.2,1.6,0.4,2.4,0.8c0.8,0.3,1.5,0.8,2,1.5
					c0.6,0.7,0.8,1.6,0.8,2.7c0,1.6-0.6,2.8-1.8,3.7s-2.7,1.3-4.5,1.3c-3.2,0-5.4-1.2-6.6-3.7l3.5-2c0.5,1.4,1.5,2,3.1,2
					c1.4,0,2.2-0.4,2.2-1.3c0-0.4-0.3-0.8-0.8-1c-0.6-0.3-1.2-0.5-2-0.7c-0.8-0.2-1.6-0.5-2.4-0.8c-0.8-0.3-1.5-0.8-2-1.5
					c-0.6-0.7-0.8-1.5-0.8-2.6c0-1.5,0.6-2.8,1.7-3.7c1.1-0.9,2.6-1.3,4.2-1.3c1.3,0,2.4,0.3,3.5,0.9c1,0.6,1.9,1.4,2.5,2.5
					l-3.4,1.9c-0.5-1.1-1.3-1.6-2.5-1.6c-0.5,0-1,0.1-1.3,0.3C188.4,131.1,188.3,131.4,188.3,131.8z"/>
			</g>
			<g class="st1">
				<path class="st2" d="M211.6,121.1h4v22h-4v-1.9c-1.2,1.5-2.9,2.3-5.1,2.3c-2.1,0-3.9-0.8-5.4-2.4s-2.2-3.6-2.2-5.9
					s0.7-4.3,2.2-5.9c1.5-1.6,3.3-2.4,5.4-2.4c2.2,0,3.9,0.8,5.1,2.3V121.1z M204.1,138.4c0.8,0.8,1.9,1.2,3.1,1.2s2.3-0.4,3.1-1.2
					c0.8-0.8,1.2-1.9,1.2-3.2s-0.4-2.4-1.2-3.2c-0.8-0.8-1.9-1.2-3.1-1.2s-2.3,0.4-3.1,1.2c-0.8,0.8-1.2,1.9-1.2,3.2
					S203.3,137.5,204.1,138.4z"/>
				<path class="st2" d="M232.1,127.4h4V143h-4v-1.9c-1.2,1.5-2.9,2.3-5.1,2.3c-2.1,0-3.9-0.8-5.4-2.4c-1.5-1.6-2.2-3.6-2.2-5.9
					s0.7-4.3,2.2-5.9c1.5-1.6,3.3-2.4,5.4-2.4c2.2,0,3.9,0.8,5.1,2.3V127.4z M224.7,138.4c0.8,0.8,1.9,1.2,3.1,1.2s2.3-0.4,3.1-1.2
					c0.8-0.8,1.2-1.9,1.2-3.2s-0.4-2.4-1.2-3.2c-0.8-0.8-1.9-1.2-3.1-1.2s-2.3,0.4-3.1,1.2c-0.8,0.8-1.2,1.9-1.2,3.2
					S223.9,137.5,224.7,138.4z"/>
				<path class="st2" d="M251,127.4h4.3l-5.7,15.7c-0.8,2.2-1.9,3.9-3.2,4.9c-1.3,1-3,1.5-5,1.4v-3.8c1.1,0,1.9-0.2,2.6-0.7
					c0.6-0.5,1.1-1.3,1.5-2.3l-6.4-15.2h4.4l4.1,10.5L251,127.4z"/>
				<path class="st2" d="M266.9,143v-22.9h4V143H266.9z"/>
				<path class="st2" d="M288.9,141.1c-1.6,1.6-3.6,2.4-5.9,2.4c-2.3,0-4.3-0.8-5.9-2.4s-2.4-3.6-2.4-5.9s0.8-4.3,2.4-5.9
					c1.6-1.6,3.6-2.4,5.9-2.4c2.3,0,4.3,0.8,5.9,2.4c1.6,1.6,2.4,3.6,2.4,5.9S290.5,139.5,288.9,141.1z M280,138.3
					c0.8,0.8,1.8,1.2,3,1.2s2.2-0.4,3-1.2s1.2-1.9,1.2-3.1c0-1.3-0.4-2.3-1.2-3.1s-1.8-1.2-3-1.2s-2.2,0.4-3,1.2s-1.2,1.8-1.2,3.1
					C278.8,136.4,279.2,137.5,280,138.3z"/>
				<path class="st2" d="M308.4,141.1c-1.6,1.6-3.6,2.4-5.9,2.4c-2.3,0-4.3-0.8-5.9-2.4s-2.4-3.6-2.4-5.9s0.8-4.3,2.4-5.9
					c1.6-1.6,3.6-2.4,5.9-2.4c2.3,0,4.3,0.8,5.9,2.4c1.6,1.6,2.4,3.6,2.4,5.9S310.1,139.5,308.4,141.1z M299.5,138.3
					c0.8,0.8,1.8,1.2,3,1.2s2.2-0.4,3-1.2s1.2-1.9,1.2-3.1c0-1.3-0.4-2.3-1.2-3.1s-1.8-1.2-3-1.2s-2.2,0.4-3,1.2s-1.2,1.8-1.2,3.1
					C298.3,136.4,298.7,137.5,299.5,138.3z"/>
			</g>
			<g class="st1">
				<path class="st2" d="M329.3,143h-4.7l-5.7-7.1v7.1h-4v-22h4v13.2l5.4-6.9h4.8l-6.3,7.7L329.3,143z"/>
			</g>
			<g class="st1">
				<path class="st2" d="M334.9,131.8c0,0.4,0.3,0.8,0.8,1c0.6,0.3,1.2,0.5,2,0.7c0.8,0.2,1.6,0.4,2.4,0.8c0.8,0.3,1.5,0.8,2,1.5
					c0.6,0.7,0.8,1.6,0.8,2.7c0,1.6-0.6,2.8-1.8,3.7s-2.7,1.3-4.5,1.3c-3.2,0-5.4-1.2-6.6-3.7l3.5-2c0.5,1.4,1.5,2,3.1,2
					c1.4,0,2.2-0.4,2.2-1.3c0-0.4-0.3-0.8-0.8-1s-1.2-0.5-2-0.7c-0.8-0.2-1.6-0.5-2.4-0.8c-0.8-0.3-1.5-0.8-2-1.5
					c-0.6-0.7-0.8-1.5-0.8-2.6c0-1.5,0.6-2.8,1.7-3.7s2.6-1.3,4.2-1.3c1.3,0,2.4,0.3,3.5,0.9c1,0.6,1.9,1.4,2.5,2.5l-3.5,1.9
					c-0.5-1.1-1.3-1.6-2.5-1.6c-0.5,0-1,0.1-1.3,0.3C335.1,131.1,334.9,131.4,334.9,131.8z"/>
			</g>
			<g class="st1">
				<path class="st2" d="M104.4,180.7v-22.9h4v22.9H104.4z"/>
				<path class="st2" d="M115.1,163.1c-0.7,0-1.2-0.2-1.7-0.7c-0.5-0.5-0.7-1.1-0.7-1.7s0.2-1.3,0.7-1.8s1.1-0.8,1.7-0.8
					c0.7,0,1.3,0.3,1.8,0.8s0.7,1.1,0.7,1.8s-0.2,1.2-0.7,1.7C116.4,162.9,115.8,163.1,115.1,163.1z M113.1,180.7V165h4v15.7H113.1z
					"/>
			</g>
			<g class="st1">
				<path class="st2" d="M136.2,180.7h-4.7l-5.7-7.1v7.1h-4v-22h4v13.2l5.4-6.9h4.8l-6.3,7.7L136.2,180.7z"/>
			</g>
			<g class="st1">
				<path class="st2" d="M141.5,174.5c0.5,2,2,2.9,4.4,2.9c1.5,0,2.7-0.5,3.5-1.6l3.3,1.9c-1.5,2.2-3.8,3.4-6.8,3.4
					c-2.6,0-4.7-0.8-6.2-2.4c-1.6-1.6-2.4-3.5-2.4-5.9c0-2.4,0.8-4.3,2.3-5.9c1.5-1.6,3.5-2.4,6-2.4c2.3,0,4.2,0.8,5.7,2.4
					s2.2,3.6,2.2,5.9c0,0.5-0.1,1.1-0.2,1.7H141.5z M141.4,171.3h8c-0.2-1.1-0.7-1.9-1.4-2.4c-0.7-0.5-1.5-0.8-2.5-0.8
					c-1.1,0-2,0.3-2.7,0.8C142.1,169.6,141.7,170.3,141.4,171.3z"/>
				<path class="st2" d="M177.9,165h4v15.7h-4v-1.9c-1.2,1.5-2.9,2.3-5.1,2.3c-2.1,0-3.9-0.8-5.4-2.4c-1.5-1.6-2.2-3.6-2.2-5.9
					s0.7-4.3,2.2-5.9c1.5-1.6,3.3-2.4,5.4-2.4c2.2,0,3.9,0.8,5.1,2.3V165z M170.4,176c0.8,0.8,1.9,1.2,3.1,1.2
					c1.3,0,2.3-0.4,3.1-1.2c0.8-0.8,1.2-1.9,1.2-3.2s-0.4-2.4-1.2-3.2c-0.8-0.8-1.9-1.2-3.1-1.2c-1.3,0-2.3,0.4-3.1,1.2
					c-0.8,0.8-1.2,1.9-1.2,3.2S169.6,175.2,170.4,176z"/>
				<path class="st2" d="M209,165v15.7h-4v-11.8h-4.6v11.8h-4v-11.8H194V165h2.3v-0.2c0-4.4,2.5-6.6,7.4-6.6c1.1,0,2.3,0.1,3.7,0.4
					v3.7c-1.4-0.2-2.6-0.2-3.7-0.2c-1.1,0-2,0.2-2.5,0.6s-0.8,1.1-0.8,2.1v0.2H209z"/>
				<path class="st2" d="M222.3,164.5c1.7,0,3.1,0.6,4.2,1.7c1.1,1.2,1.7,2.7,1.7,4.8v9.6h-4v-9.1c0-1-0.3-1.8-0.8-2.4
					s-1.3-0.8-2.3-0.8c-1,0-1.9,0.3-2.5,1c-0.6,0.6-0.9,1.6-0.9,2.9v8.5h-4V165h4v1.8C218.6,165.3,220.2,164.5,222.3,164.5z"/>
				<path class="st2" d="M236,174.5c0.5,2,2,2.9,4.4,2.9c1.5,0,2.7-0.5,3.5-1.6l3.3,1.9c-1.5,2.2-3.8,3.4-6.8,3.4
					c-2.6,0-4.7-0.8-6.2-2.4s-2.4-3.5-2.4-5.9c0-2.4,0.8-4.3,2.3-5.9c1.5-1.6,3.5-2.4,6-2.4c2.3,0,4.2,0.8,5.7,2.4
					c1.5,1.6,2.2,3.6,2.2,5.9c0,0.5-0.1,1.1-0.2,1.7H236z M236,171.3h8c-0.2-1.1-0.7-1.9-1.4-2.4s-1.5-0.8-2.5-0.8
					c-1.1,0-2,0.3-2.7,0.8C236.7,169.6,236.2,170.3,236,171.3z"/>
				<path class="st2" d="M272.4,158.7h4v22h-4v-1.9c-1.2,1.5-2.9,2.3-5.1,2.3c-2.1,0-3.9-0.8-5.4-2.4c-1.5-1.6-2.2-3.6-2.2-5.9
					s0.7-4.3,2.2-5.9c1.5-1.6,3.3-2.4,5.4-2.4c2.2,0,3.9,0.8,5.1,2.3V158.7z M264.9,176c0.8,0.8,1.9,1.2,3.1,1.2
					c1.3,0,2.3-0.4,3.1-1.2c0.8-0.8,1.2-1.9,1.2-3.2s-0.4-2.4-1.2-3.2c-0.8-0.8-1.9-1.2-3.1-1.2c-1.3,0-2.3,0.4-3.1,1.2
					c-0.8,0.8-1.2,1.9-1.2,3.2S264.1,175.2,264.9,176z"/>
				<path class="st2" d="M293,165h4v15.7h-4v-1.9c-1.2,1.5-2.9,2.3-5.1,2.3c-2.1,0-3.9-0.8-5.4-2.4c-1.5-1.6-2.2-3.6-2.2-5.9
					s0.7-4.3,2.2-5.9c1.5-1.6,3.3-2.4,5.4-2.4c2.2,0,3.9,0.8,5.1,2.3V165z M285.5,176c0.8,0.8,1.9,1.2,3.1,1.2
					c1.3,0,2.3-0.4,3.1-1.2c0.8-0.8,1.2-1.9,1.2-3.2s-0.4-2.4-1.2-3.2c-0.8-0.8-1.9-1.2-3.1-1.2c-1.3,0-2.3,0.4-3.1,1.2
					c-0.8,0.8-1.2,1.9-1.2,3.2S284.7,175.2,285.5,176z"/>
				<path class="st2" d="M311.8,165h4.3l-5.7,15.7c-0.8,2.2-1.9,3.9-3.2,4.9c-1.3,1-3,1.5-5,1.4v-3.8c1.1,0,1.9-0.2,2.6-0.7
					c0.6-0.5,1.1-1.3,1.5-2.3l-6.4-15.2h4.4l4.1,10.5L311.8,165z"/>
			</g>
			<g class="st1">
				<path class="st2" d="M122,206.5h-3.5v6.5c0,0.5,0.1,0.9,0.4,1.2c0.3,0.3,0.7,0.4,1.2,0.4c0.5,0,1.2,0,1.9,0v3.7
					c-2.8,0.3-4.7,0.1-5.9-0.8s-1.7-2.3-1.7-4.5v-6.5h-2.7v-3.9h2.7v-3.2l4-1.2v4.4h3.5V206.5z"/>
			</g>
			<g class="st1">
				<path class="st2" d="M138.7,216.3c-1.6,1.6-3.6,2.4-5.9,2.4s-4.3-0.8-5.9-2.4c-1.6-1.6-2.4-3.6-2.4-5.9s0.8-4.3,2.4-5.9
					c1.6-1.6,3.6-2.4,5.9-2.4s4.3,0.8,5.9,2.4c1.6,1.6,2.4,3.6,2.4,5.9S140.3,214.7,138.7,216.3z M129.8,213.6
					c0.8,0.8,1.8,1.2,3,1.2c1.2,0,2.2-0.4,3-1.2s1.2-1.9,1.2-3.1c0-1.3-0.4-2.3-1.2-3.1s-1.8-1.2-3-1.2c-1.2,0-2.2,0.4-3,1.2
					c-0.8,0.8-1.2,1.8-1.2,3.1C128.6,211.7,129,212.7,129.8,213.6z"/>
				<path class="st2" d="M162.4,202.2c1.7,0,3.1,0.6,4.2,1.7c1.1,1.2,1.7,2.7,1.7,4.8v9.6h-4v-9.1c0-1-0.3-1.8-0.8-2.4
					s-1.3-0.8-2.3-0.8c-1,0-1.9,0.3-2.5,1c-0.6,0.6-0.9,1.6-0.9,2.9v8.5h-4v-22h4v8C158.7,202.9,160.2,202.2,162.4,202.2z"/>
			</g>
			<g class="st1">
				<path class="st2" d="M176.2,212.1c0.5,2,2,2.9,4.4,2.9c1.5,0,2.7-0.5,3.5-1.6l3.3,1.9c-1.5,2.2-3.8,3.4-6.8,3.4
					c-2.6,0-4.7-0.8-6.2-2.4c-1.6-1.6-2.4-3.5-2.4-5.9c0-2.4,0.8-4.3,2.3-5.9c1.5-1.6,3.5-2.4,6-2.4c2.3,0,4.2,0.8,5.7,2.4
					c1.5,1.6,2.2,3.6,2.2,5.9c0,0.5-0.1,1.1-0.2,1.7H176.2z M176.1,209h8c-0.2-1.1-0.7-1.9-1.4-2.4c-0.7-0.5-1.5-0.8-2.5-0.8
					c-1.1,0-2,0.3-2.7,0.8C176.8,207.2,176.3,208,176.1,209z"/>
			</g>
			<g class="st1">
				<path class="st2" d="M203.7,202.6h4v15.7h-4v-1.9c-1.2,1.5-2.9,2.3-5.1,2.3c-2.1,0-3.9-0.8-5.4-2.4c-1.5-1.6-2.2-3.6-2.2-5.9
					s0.7-4.3,2.2-5.9c1.5-1.6,3.3-2.4,5.4-2.4c2.2,0,3.9,0.8,5.1,2.3V202.6z M196.2,213.6c0.8,0.8,1.9,1.2,3.1,1.2s2.3-0.4,3.1-1.2
					c0.8-0.8,1.2-1.9,1.2-3.2s-0.4-2.4-1.2-3.2c-0.8-0.8-1.9-1.2-3.1-1.2s-2.3,0.4-3.1,1.2c-0.8,0.8-1.2,1.9-1.2,3.2
					S195.4,212.8,196.2,213.6z"/>
				<path class="st2" d="M224.2,196.3h4v22h-4v-1.9c-1.2,1.5-2.9,2.3-5.1,2.3c-2.1,0-3.9-0.8-5.4-2.4s-2.2-3.6-2.2-5.9
					s0.7-4.3,2.2-5.9c1.5-1.6,3.3-2.4,5.4-2.4c2.2,0,3.9,0.8,5.1,2.3V196.3z M216.7,213.6c0.8,0.8,1.9,1.2,3.1,1.2s2.3-0.4,3.1-1.2
					c0.8-0.8,1.2-1.9,1.2-3.2s-0.4-2.4-1.2-3.2c-0.8-0.8-1.9-1.2-3.1-1.2s-2.3,0.4-3.1,1.2c-0.8,0.8-1.2,1.9-1.2,3.2
					S215.9,212.8,216.7,213.6z"/>
				<path class="st2" d="M233,210.8v-3.9h11.8v3.9H233z"/>
				<path class="st2" d="M263,216.3c-1.6,1.6-3.6,2.4-5.9,2.4c-2.3,0-4.3-0.8-5.9-2.4c-1.6-1.6-2.4-3.6-2.4-5.9s0.8-4.3,2.4-5.9
					c1.6-1.6,3.6-2.4,5.9-2.4c2.3,0,4.3,0.8,5.9,2.4c1.6,1.6,2.4,3.6,2.4,5.9S264.6,214.7,263,216.3z M254,213.6
					c0.8,0.8,1.8,1.2,3,1.2c1.2,0,2.2-0.4,3-1.2s1.2-1.9,1.2-3.1c0-1.3-0.4-2.3-1.2-3.1s-1.8-1.2-3-1.2c-1.2,0-2.2,0.4-3,1.2
					c-0.8,0.8-1.2,1.8-1.2,3.1C252.8,211.7,253.2,212.7,254,213.6z"/>
				<path class="st2" d="M279.5,202.6h4v15.7h-4v-1.8c-1,1.5-2.5,2.2-4.7,2.2c-1.7,0-3.1-0.6-4.2-1.7c-1.1-1.1-1.7-2.7-1.7-4.8v-9.6
					h4v9.1c0,1,0.3,1.8,0.8,2.4c0.6,0.6,1.3,0.8,2.3,0.8c1,0,1.9-0.3,2.5-1c0.6-0.6,0.9-1.6,0.9-2.9V202.6z"/>
				<path class="st2" d="M297.1,206.5h-3.5v6.5c0,0.5,0.1,0.9,0.4,1.2c0.3,0.3,0.7,0.4,1.2,0.4s1.2,0,1.9,0v3.7
					c-2.8,0.3-4.7,0.1-5.9-0.8s-1.7-2.3-1.7-4.5v-6.5h-2.7v-3.9h2.7v-3.2l4-1.2v4.4h3.5V206.5z"/>
				<path class="st2" d="M305.4,217.9c-0.5,0.5-1.2,0.8-1.9,0.8c-0.7,0-1.4-0.3-1.9-0.8s-0.8-1.1-0.8-1.9c0-0.7,0.3-1.4,0.8-1.9
					c0.5-0.5,1.1-0.8,1.9-0.8c0.7,0,1.4,0.3,1.9,0.8c0.5,0.5,0.8,1.2,0.8,1.9C306.1,216.8,305.9,217.4,305.4,217.9z M301.9,210.9
					l-0.8-8.3v-6.3h4.9v6.3l-0.8,8.3H301.9z"/>
			</g>
			<path class="st2" d="M423,97.6c0,0,59.4-25.3,55.3-86.4c-0.2-3.3-4.2-4.7-6.5-2.3c-8.5,9.4-23.3,26.5-47.3,30.7"/>
			<g class="st1">
				<path class="st3" d="M182.9,90l-2.3-6.5h-14.8l-2.2,6.5h-7.7l12.6-36.1h8.8L190.1,90H182.9z M168,76.9h10.2L173,62.1L168,76.9z"
					/>
			</g>
			<g class="st1">
				<path class="st3" d="M210.1,64.2h7.1l-9.4,25.9c-1.3,3.7-3.1,6.4-5.3,8c-2.2,1.7-5,2.4-8.3,2.2v-6.2c1.8,0,3.2-0.3,4.3-1.1
					c1-0.8,1.9-2.1,2.5-3.8l-10.6-25h7.3l6.7,17.4L210.1,64.2z"/>
			</g>
			<g class="st1">
				<path class="st3" d="M226.5,79.9c0.9,3.2,3.3,4.9,7.3,4.9c2.5,0,4.5-0.9,5.8-2.6l5.4,3.1c-2.5,3.7-6.3,5.5-11.3,5.5
					c-4.3,0-7.7-1.3-10.3-3.9s-3.9-5.8-3.9-9.8c0-3.9,1.3-7.1,3.8-9.7c2.5-2.6,5.8-3.9,9.8-3.9c3.8,0,6.9,1.3,9.4,3.9
					c2.5,2.6,3.7,5.9,3.7,9.7c0,0.9-0.1,1.8-0.3,2.7H226.5z M226.4,74.7h13.2c-0.4-1.8-1.2-3.1-2.3-3.9s-2.5-1.3-4.1-1.3
					c-1.8,0-3.3,0.5-4.4,1.4C227.5,71.8,226.8,73.1,226.4,74.7z"/>
				<path class="st3" d="M259.4,89.4c-0.9,0.9-1.9,1.3-3.1,1.3s-2.2-0.4-3.1-1.3c-0.9-0.9-1.3-1.9-1.3-3.1c0-1.2,0.4-2.2,1.3-3.1
					c0.9-0.9,1.9-1.3,3.1-1.3s2.2,0.4,3.1,1.3c0.9,0.9,1.3,1.9,1.3,3.1C260.7,87.5,260.2,88.6,259.4,89.4z M253.6,77.9l-1.4-13.7
					V53.9h8v10.3l-1.3,13.7H253.6z"/>
			</g>
		</g>
	</g>
</g>
</svg>
