<?xml version="1.0" encoding="utf-8"?>
<!-- Generator: Adobe Illustrator 26.3.1, SVG Export Plug-In . SVG Version: 6.00 Build 0)  -->
<svg version="1.1" id="Layer_1" xmlns="http://www.w3.org/2000/svg" xmlns:xlink="http://www.w3.org/1999/xlink" x="0px" y="0px"
	 viewBox="0 0 478.5 279.7" style="enable-background:new 0 0 478.5 279.7;" xml:space="preserve">
<style type="text/css">
	.st0{fill:#BC1E44;stroke:#FFFFFF;stroke-width:5;stroke-miterlimit:10;}
	.st1{enable-background:new    ;}
	.st2{fill:#FFFFFF;}
	.st3{fill:#E9A72D;}
</style>
<g id="a">
</g>
<g id="b">
	<g id="c">
		<g>
			<g>
				<path class="st0" d="M46.1,2.5h334.1c24.1,0,43.6,19.5,43.6,43.6v187.6c0,24.1-19.5,43.6-43.6,43.6H46.1
					c-24.1,0-43.6-19.5-43.6-43.6V46.1C2.5,22,22,2.5,46.1,2.5z"/>
				<g class="st1">
					<path class="st2" d="M140.2,121.6l-7.4-22h4.7l5.4,16.9l5.3-16.9h4.7l-7.4,22H140.2z"/>
				</g>
				<g class="st1">
					<path class="st2" d="M157.2,104c-0.7,0-1.2-0.2-1.7-0.7c-0.5-0.5-0.7-1.1-0.7-1.7s0.2-1.3,0.7-1.8s1.1-0.8,1.7-0.8
						c0.7,0,1.3,0.3,1.8,0.8s0.7,1.1,0.7,1.8s-0.2,1.2-0.7,1.7C158.5,103.8,157.9,104,157.2,104z M155.2,121.6v-15.7h4v15.7H155.2z"
						/>
				</g>
				<g class="st1">
					<path class="st2" d="M167.5,110.3c0,0.4,0.3,0.8,0.8,1c0.6,0.3,1.2,0.5,2,0.7c0.8,0.2,1.6,0.4,2.4,0.8c0.8,0.3,1.5,0.8,2,1.5
						c0.6,0.7,0.8,1.6,0.8,2.7c0,1.6-0.6,2.8-1.8,3.7s-2.7,1.3-4.5,1.3c-3.2,0-5.4-1.2-6.6-3.7l3.5-2c0.5,1.4,1.5,2,3.1,2
						c1.4,0,2.2-0.4,2.2-1.3c0-0.4-0.3-0.8-0.8-1c-0.6-0.3-1.2-0.5-2-0.7c-0.8-0.2-1.6-0.5-2.4-0.8c-0.8-0.3-1.5-0.8-2-1.5
						c-0.6-0.7-0.8-1.5-0.8-2.6c0-1.5,0.6-2.8,1.7-3.7c1.1-0.9,2.6-1.3,4.2-1.3c1.3,0,2.4,0.3,3.5,0.9c1,0.6,1.9,1.4,2.5,2.5
						l-3.4,1.9c-0.5-1.1-1.3-1.6-2.5-1.6c-0.5,0-1,0.1-1.3,0.3C167.7,109.6,167.5,109.9,167.5,110.3z"/>
				</g>
				<g class="st1">
					<path class="st2" d="M181.2,104c-0.7,0-1.2-0.2-1.7-0.7c-0.5-0.5-0.7-1.1-0.7-1.7s0.2-1.3,0.7-1.8s1.1-0.8,1.7-0.8
						c0.7,0,1.3,0.3,1.8,0.8s0.7,1.1,0.7,1.8s-0.2,1.2-0.7,1.7C182.4,103.8,181.9,104,181.2,104z M179.2,121.6v-15.7h4v15.7H179.2z"
						/>
					<path class="st2" d="M196,105.5c2.1,0,3.9,0.8,5.4,2.4c1.5,1.6,2.2,3.6,2.2,5.9s-0.7,4.3-2.2,5.9c-1.5,1.6-3.3,2.4-5.4,2.4
						c-2.2,0-3.9-0.8-5.1-2.3v1.9h-4v-22h4v8.1C192.1,106.2,193.8,105.5,196,105.5z M192.2,116.9c0.8,0.8,1.9,1.2,3.1,1.2
						s2.3-0.4,3.1-1.2c0.8-0.8,1.2-1.9,1.2-3.2s-0.4-2.4-1.2-3.2c-0.8-0.8-1.9-1.2-3.1-1.2s-2.3,0.4-3.1,1.2
						c-0.8,0.8-1.2,1.9-1.2,3.2S191.4,116.1,192.2,116.9z"/>
					<path class="st2" d="M208.5,104c-0.7,0-1.2-0.2-1.7-0.7c-0.5-0.5-0.7-1.1-0.7-1.7s0.2-1.3,0.7-1.8s1.1-0.8,1.7-0.8
						c0.7,0,1.3,0.3,1.8,0.8s0.7,1.1,0.7,1.8s-0.2,1.2-0.7,1.7C209.8,103.8,209.2,104,208.5,104z M206.5,121.6v-15.7h4v15.7H206.5z"
						/>
					<path class="st2" d="M214.3,121.6V98.7h4v22.9H214.3z"/>
					<path class="st2" d="M224,104c-0.7,0-1.2-0.2-1.7-0.7c-0.5-0.5-0.7-1.1-0.7-1.7s0.2-1.3,0.7-1.8s1.1-0.8,1.7-0.8
						c0.7,0,1.3,0.3,1.8,0.8s0.7,1.1,0.7,1.8s-0.2,1.2-0.7,1.7C225.3,103.8,224.7,104,224,104z M222,121.6v-15.7h4v15.7H222z"/>
				</g>
				<g class="st1">
					<path class="st2" d="M243.4,109.8h-3.5v6.5c0,0.5,0.1,0.9,0.4,1.2c0.3,0.3,0.7,0.4,1.2,0.4s1.2,0,1.9,0v3.7
						c-2.8,0.3-4.7,0.1-5.9-0.8s-1.7-2.3-1.7-4.5v-6.5h-2.7v-3.9h2.7v-3.2l4-1.2v4.4h3.5V109.8z"/>
				</g>
				<g class="st1">
					<path class="st2" d="M257.8,105.9h4.3l-5.7,15.7c-0.8,2.2-1.9,3.9-3.2,4.9c-1.3,1-3,1.5-5,1.4v-3.8c1.1,0,1.9-0.2,2.6-0.7
						c0.6-0.5,1.1-1.3,1.5-2.3l-6.4-15.2h4.4l4.1,10.5L257.8,105.9z"/>
				</g>
				<g class="st1">
					<path class="st2" d="M275.8,104c-0.7,0-1.2-0.2-1.7-0.7c-0.5-0.5-0.7-1.1-0.7-1.7s0.2-1.3,0.7-1.8s1.1-0.8,1.7-0.8
						c0.7,0,1.3,0.3,1.8,0.8s0.7,1.1,0.7,1.8s-0.2,1.2-0.7,1.7C277.1,103.8,276.5,104,275.8,104z M273.8,121.6v-15.7h4v15.7H273.8z"
						/>
				</g>
				<g class="st1">
					<path class="st2" d="M286.1,110.3c0,0.4,0.3,0.8,0.8,1c0.6,0.3,1.2,0.5,2,0.7c0.8,0.2,1.6,0.4,2.4,0.8c0.8,0.3,1.5,0.8,2,1.5
						c0.6,0.7,0.8,1.6,0.8,2.7c0,1.6-0.6,2.8-1.8,3.7s-2.7,1.3-4.5,1.3c-3.2,0-5.4-1.2-6.6-3.7l3.5-2c0.5,1.4,1.5,2,3.1,2
						c1.4,0,2.2-0.4,2.2-1.3c0-0.4-0.3-0.8-0.8-1s-1.2-0.5-2-0.7c-0.8-0.2-1.6-0.5-2.4-0.8c-0.8-0.3-1.5-0.8-2-1.5
						c-0.6-0.7-0.8-1.5-0.8-2.6c0-1.5,0.6-2.8,1.7-3.7s2.6-1.3,4.2-1.3c1.3,0,2.4,0.3,3.5,0.9c1,0.6,1.9,1.4,2.5,2.5l-3.5,1.9
						c-0.5-1.1-1.3-1.6-2.5-1.6c-0.5,0-1,0.1-1.3,0.3C286.2,109.6,286.1,109.9,286.1,110.3z"/>
				</g>
				<g class="st1">
					<path class="st2" d="M94.8,143.1c2.1,0,3.9,0.8,5.4,2.4c1.5,1.6,2.2,3.6,2.2,5.9s-0.7,4.3-2.2,5.9c-1.5,1.6-3.3,2.4-5.4,2.4
						c-2.2,0-3.9-0.8-5.1-2.3v8.1h-4v-22h4v1.8C90.9,143.8,92.6,143.1,94.8,143.1z M91,154.5c0.8,0.8,1.9,1.2,3.1,1.2
						s2.3-0.4,3.1-1.2c0.8-0.8,1.2-1.9,1.2-3.2s-0.4-2.4-1.2-3.2c-0.8-0.8-1.9-1.2-3.1-1.2s-2.3,0.4-3.1,1.2
						c-0.8,0.8-1.2,1.9-1.2,3.2S90.1,153.7,91,154.5z"/>
					<path class="st2" d="M119.6,157.2c-1.6,1.6-3.6,2.4-5.9,2.4s-4.3-0.8-5.9-2.4c-1.6-1.6-2.4-3.6-2.4-5.9s0.8-4.3,2.4-5.9
						c1.6-1.6,3.6-2.4,5.9-2.4s4.3,0.8,5.9,2.4c1.6,1.6,2.4,3.6,2.4,5.9S121.2,155.6,119.6,157.2z M110.7,154.5
						c0.8,0.8,1.8,1.2,3,1.2c1.2,0,2.2-0.4,3-1.2s1.2-1.9,1.2-3.1c0-1.3-0.4-2.3-1.2-3.1s-1.8-1.2-3-1.2c-1.2,0-2.2,0.4-3,1.2
						c-0.8,0.8-1.2,1.8-1.2,3.1C109.5,152.6,109.9,153.6,110.7,154.5z"/>
					<path class="st2" d="M139.1,157.2c-1.6,1.6-3.6,2.4-5.9,2.4s-4.3-0.8-5.9-2.4c-1.6-1.6-2.4-3.6-2.4-5.9s0.8-4.3,2.4-5.9
						c1.6-1.6,3.6-2.4,5.9-2.4s4.3,0.8,5.9,2.4c1.6,1.6,2.4,3.6,2.4,5.9S140.7,155.6,139.1,157.2z M130.2,154.5
						c0.8,0.8,1.8,1.2,3,1.2c1.2,0,2.2-0.4,3-1.2s1.2-1.9,1.2-3.1c0-1.3-0.4-2.3-1.2-3.1s-1.8-1.2-3-1.2c-1.2,0-2.2,0.4-3,1.2
						c-0.8,0.8-1.2,1.8-1.2,3.1C129,152.6,129.4,153.6,130.2,154.5z"/>
					<path class="st2" d="M149.4,146.2c0.4-1,1-1.8,1.9-2.3c0.9-0.5,1.8-0.8,2.9-0.8v4.5c-1.2-0.1-2.3,0.1-3.3,0.8
						c-1,0.6-1.5,1.7-1.5,3.2v7.5h-4v-15.7h4V146.2z"/>
					<path class="st2" d="M179.5,157.2c-1.6,1.6-3.6,2.4-5.9,2.4s-4.3-0.8-5.9-2.4c-1.6-1.6-2.4-3.6-2.4-5.9s0.8-4.3,2.4-5.9
						c1.6-1.6,3.6-2.4,5.9-2.4s4.3,0.8,5.9,2.4c1.6,1.6,2.4,3.6,2.4,5.9S181.1,155.6,179.5,157.2z M170.6,154.5
						c0.8,0.8,1.8,1.2,3,1.2c1.2,0,2.2-0.4,3-1.2s1.2-1.9,1.2-3.1c0-1.3-0.4-2.3-1.2-3.1s-1.8-1.2-3-1.2c-1.2,0-2.2,0.4-3,1.2
						c-0.8,0.8-1.2,1.8-1.2,3.1C169.4,152.6,169.8,153.6,170.6,154.5z"/>
					<path class="st2" d="M194.4,143.1c1.7,0,3.1,0.6,4.2,1.7c1.1,1.2,1.7,2.7,1.7,4.8v9.6h-4v-9.1c0-1-0.3-1.8-0.8-2.4
						s-1.3-0.8-2.3-0.8c-1,0-1.9,0.3-2.5,1c-0.6,0.6-0.9,1.6-0.9,2.9v8.5h-4v-15.7h4v1.8C190.7,143.8,192.3,143.1,194.4,143.1z"/>
				</g>
				<g class="st1">
					<path class="st2" d="M228.4,137.2v4.1h-5.9v17.8h-4.3v-17.8h-5.9v-4.1H228.4z"/>
				</g>
				<g class="st1">
					<path class="st2" d="M239.4,143.5h4v15.7h-4v-1.8c-1,1.5-2.5,2.2-4.7,2.2c-1.7,0-3.1-0.6-4.2-1.7c-1.1-1.1-1.7-2.7-1.7-4.8
						v-9.6h4v9.1c0,1,0.3,1.8,0.8,2.4c0.6,0.6,1.3,0.8,2.3,0.8c1,0,1.9-0.3,2.5-1c0.6-0.6,0.9-1.6,0.9-2.9V143.5z"/>
				</g>
				<g class="st1">
					<path class="st2" d="M251.5,153c0.5,2,2,2.9,4.4,2.9c1.5,0,2.7-0.5,3.5-1.6l3.3,1.9c-1.5,2.2-3.8,3.4-6.8,3.4
						c-2.6,0-4.7-0.8-6.2-2.4c-1.6-1.6-2.4-3.5-2.4-5.9c0-2.4,0.8-4.3,2.3-5.9c1.5-1.6,3.5-2.4,6-2.4c2.3,0,4.2,0.8,5.7,2.4
						s2.2,3.6,2.2,5.9c0,0.5-0.1,1.1-0.2,1.7H251.5z M251.4,149.9h8c-0.2-1.1-0.7-1.9-1.4-2.4c-0.7-0.5-1.5-0.8-2.5-0.8
						c-1.1,0-2,0.3-2.7,0.8C252.1,148.1,251.7,148.9,251.4,149.9z"/>
				</g>
				<g class="st1">
					<path class="st2" d="M270.3,148c0,0.4,0.3,0.8,0.8,1c0.6,0.3,1.2,0.5,2,0.7c0.8,0.2,1.6,0.4,2.4,0.8c0.8,0.3,1.5,0.8,2,1.5
						s0.8,1.6,0.8,2.7c0,1.6-0.6,2.8-1.8,3.7s-2.7,1.3-4.5,1.3c-3.2,0-5.4-1.2-6.6-3.7l3.5-2c0.5,1.4,1.5,2,3.1,2
						c1.4,0,2.2-0.4,2.2-1.3c0-0.4-0.3-0.8-0.8-1c-0.6-0.3-1.2-0.5-2-0.7c-0.8-0.2-1.6-0.5-2.4-0.8c-0.8-0.3-1.5-0.8-2-1.5
						c-0.6-0.7-0.8-1.5-0.8-2.6c0-1.5,0.6-2.8,1.7-3.7c1.1-0.9,2.6-1.3,4.2-1.3c1.3,0,2.4,0.3,3.5,0.9c1,0.6,1.9,1.4,2.5,2.5
						l-3.4,1.9c-0.5-1.1-1.3-1.6-2.5-1.6c-0.5,0-1,0.1-1.3,0.3C270.5,147.3,270.3,147.6,270.3,148z"/>
				</g>
				<g class="st1">
					<path class="st2" d="M293.6,137.2h4v22h-4v-1.9c-1.2,1.5-2.9,2.3-5.1,2.3c-2.1,0-3.9-0.8-5.4-2.4c-1.5-1.6-2.2-3.6-2.2-5.9
						s0.7-4.3,2.2-5.9c1.5-1.6,3.3-2.4,5.4-2.4c2.2,0,3.9,0.8,5.1,2.3V137.2z M286.2,154.5c0.8,0.8,1.9,1.2,3.1,1.2
						c1.3,0,2.3-0.4,3.1-1.2c0.8-0.8,1.2-1.9,1.2-3.2s-0.4-2.4-1.2-3.2c-0.8-0.8-1.9-1.2-3.1-1.2c-1.3,0-2.3,0.4-3.1,1.2
						c-0.8,0.8-1.2,1.9-1.2,3.2S285.4,153.7,286.2,154.5z"/>
					<path class="st2" d="M314.2,143.5h4v15.7h-4v-1.9c-1.2,1.5-2.9,2.3-5.1,2.3c-2.1,0-3.9-0.8-5.4-2.4c-1.5-1.6-2.2-3.6-2.2-5.9
						s0.7-4.3,2.2-5.9c1.5-1.6,3.3-2.4,5.4-2.4c2.2,0,3.9,0.8,5.1,2.3V143.5z M306.7,154.5c0.8,0.8,1.9,1.2,3.1,1.2
						c1.3,0,2.3-0.4,3.1-1.2c0.8-0.8,1.2-1.9,1.2-3.2s-0.4-2.4-1.2-3.2c-0.8-0.8-1.9-1.2-3.1-1.2c-1.3,0-2.3,0.4-3.1,1.2
						c-0.8,0.8-1.2,1.9-1.2,3.2S305.9,153.7,306.7,154.5z"/>
				</g>
				<g class="st1">
					<path class="st2" d="M333.1,143.5h4.3l-5.7,15.7c-0.8,2.2-1.9,3.9-3.2,4.9c-1.3,1-3,1.5-5,1.4v-3.8c1.1,0,1.9-0.2,2.6-0.7
						c0.6-0.5,1.1-1.3,1.5-2.3l-6.4-15.2h4.4l4.1,10.5L333.1,143.5z"/>
				</g>
				<g class="st1">
					<path class="st2" d="M341.7,158.8c-0.5,0.5-1.2,0.8-1.9,0.8s-1.4-0.3-1.9-0.8c-0.5-0.5-0.8-1.1-0.8-1.9c0-0.7,0.3-1.4,0.8-1.9
						c0.5-0.5,1.1-0.8,1.9-0.8s1.4,0.3,1.9,0.8c0.5,0.5,0.8,1.2,0.8,1.9C342.5,157.7,342.2,158.3,341.7,158.8z"/>
				</g>
				<g class="st1">
					<path class="st2" d="M36.8,174.9h2.9v22h-2.9V174.9z"/>
					<path class="st2" d="M49.1,174.8l-2,7.6h-2.4l1.3-7.6H49.1z"/>
					<path class="st2" d="M70.8,180.7c1.8,0,3.2,0.6,4.3,1.7c1.1,1.1,1.6,2.7,1.6,4.6v9.8H74v-9.7c0-1.2-0.3-2.2-0.9-2.8
						c-0.6-0.7-1.5-1-2.5-1c-1.2,0-2.1,0.4-2.8,1.2c-0.7,0.8-1.1,2-1.1,3.6v8.7H64v-9.7c0-1.2-0.3-2.2-0.9-2.8c-0.6-0.7-1.4-1-2.4-1
						c-1.1,0-2.1,0.4-2.9,1.2c-0.8,0.8-1.1,2-1.1,3.6v8.7h-2.7v-15.7h2.7v2.1c1.1-1.7,2.6-2.5,4.7-2.5c2.1,0,3.6,0.9,4.6,2.7
						C67,181.6,68.6,180.7,70.8,180.7z"/>
					<path class="st2" d="M98,180.7c1.8,0,3.3,0.6,4.4,1.7c1.1,1.2,1.7,2.7,1.7,4.7v9.6h-2.7v-9.5c0-1.3-0.3-2.3-1-3
						c-0.7-0.7-1.6-1-2.9-1c-1.4,0-2.5,0.4-3.3,1.3c-0.8,0.8-1.3,2.1-1.3,3.9v8.3h-2.7v-15.7h2.7v2.3C94,181.6,95.7,180.7,98,180.7z
						"/>
				</g>
				<g class="st1">
					<path class="st2" d="M122.2,194.9c-1.6,1.6-3.6,2.4-5.9,2.4c-2.3,0-4.2-0.8-5.8-2.4c-1.6-1.6-2.4-3.5-2.4-5.9s0.8-4.3,2.4-5.9
						c1.6-1.6,3.5-2.4,5.8-2.4c2.3,0,4.3,0.8,5.9,2.4c1.6,1.6,2.4,3.5,2.4,5.9S123.8,193.3,122.2,194.9z M116.3,194.6
						c1.6,0,2.9-0.5,4-1.6c1.1-1.1,1.6-2.4,1.6-4s-0.5-2.9-1.6-4c-1.1-1.1-2.4-1.6-4-1.6c-1.5,0-2.9,0.5-3.9,1.6
						c-1.1,1.1-1.6,2.4-1.6,4s0.5,2.9,1.6,4C113.4,194,114.8,194.6,116.3,194.6z"/>
				</g>
				<g class="st1">
					<path class="st2" d="M136.9,183.8h-4.2v8.5c0,0.8,0.2,1.3,0.5,1.6s0.8,0.5,1.4,0.5c0.6,0,1.4,0,2.3,0v2.4
						c-2.4,0.3-4.1,0.1-5.2-0.6c-1.1-0.7-1.7-2-1.7-4v-8.5h-3.1v-2.6h3.1v-3.6l2.7-0.8v4.4h4.2V183.8z"/>
					<path class="st2" d="M158.6,180.7c2.2,0,4.1,0.8,5.6,2.4c1.5,1.6,2.3,3.5,2.3,5.8s-0.8,4.2-2.3,5.8c-1.5,1.6-3.4,2.4-5.6,2.4
						c-2.6,0-4.6-1-5.9-3.1v9h-2.7v-22h2.7v2.7C154,181.8,156,180.7,158.6,180.7z M158.2,194.6c1.6,0,2.9-0.5,4-1.6
						c1.1-1.1,1.6-2.4,1.6-4s-0.5-2.9-1.6-4c-1.1-1.1-2.4-1.6-4-1.6c-1.6,0-2.9,0.5-4,1.6c-1.1,1.1-1.6,2.4-1.6,4s0.5,2.9,1.6,4
						C155.3,194.1,156.6,194.6,158.2,194.6z"/>
					<path class="st2" d="M172.1,178.3c-0.5,0-1-0.2-1.3-0.5s-0.5-0.8-0.5-1.3s0.2-0.9,0.5-1.3c0.4-0.4,0.8-0.5,1.3-0.5
						c0.5,0,0.9,0.2,1.3,0.5c0.4,0.4,0.5,0.8,0.5,1.3s-0.2,0.9-0.5,1.3C173,178.1,172.6,178.3,172.1,178.3z M170.7,196.8v-15.7h2.7
						v15.7H170.7z"/>
					<path class="st2" d="M178.5,196.8v-22.9h2.7v22.9H178.5z"/>
				</g>
				<g class="st1">
					<path class="st2" d="M199.7,194.9c-1.6,1.6-3.6,2.4-5.9,2.4c-2.3,0-4.2-0.8-5.8-2.4c-1.6-1.6-2.4-3.5-2.4-5.9s0.8-4.3,2.4-5.9
						c1.6-1.6,3.5-2.4,5.8-2.4c2.3,0,4.3,0.8,5.9,2.4c1.6,1.6,2.4,3.5,2.4,5.9S201.3,193.3,199.7,194.9z M193.8,194.6
						c1.6,0,2.9-0.5,4-1.6c1.1-1.1,1.6-2.4,1.6-4s-0.5-2.9-1.6-4c-1.1-1.1-2.4-1.6-4-1.6c-1.5,0-2.9,0.5-3.9,1.6
						c-1.1,1.1-1.6,2.4-1.6,4s0.5,2.9,1.6,4C191,194,192.3,194.6,193.8,194.6z"/>
				</g>
				<g class="st1">
					<path class="st2" d="M214.5,183.8h-4.2v8.5c0,0.8,0.2,1.3,0.5,1.6s0.8,0.5,1.4,0.5c0.6,0,1.4,0,2.3,0v2.4
						c-2.4,0.3-4.1,0.1-5.2-0.6c-1.1-0.7-1.7-2-1.7-4v-8.5h-3.1v-2.6h3.1v-3.6l2.7-0.8v4.4h4.2V183.8z"/>
				</g>
				<g class="st1">
					<path class="st2" d="M220,178.3c-0.5,0-1-0.2-1.3-0.5s-0.5-0.8-0.5-1.3s0.2-0.9,0.5-1.3c0.4-0.4,0.8-0.5,1.3-0.5
						c0.5,0,0.9,0.2,1.3,0.5c0.4,0.4,0.5,0.8,0.5,1.3s-0.2,0.9-0.5,1.3C220.9,178.1,220.5,178.3,220,178.3z M218.6,196.8v-15.7h2.7
						v15.7H218.6z"/>
					<path class="st2" d="M234.2,180.7c1.8,0,3.3,0.6,4.4,1.7c1.1,1.2,1.7,2.7,1.7,4.7v9.6h-2.7v-9.5c0-1.3-0.3-2.3-1-3
						c-0.7-0.7-1.6-1-2.9-1c-1.4,0-2.5,0.4-3.3,1.3c-0.8,0.8-1.3,2.1-1.3,3.9v8.3h-2.7v-15.7h2.7v2.3
						C230.3,181.6,232,180.7,234.2,180.7z"/>
					<path class="st2" d="M258,181.2h2.7v15c0,2.3-0.8,4.1-2.4,5.4c-1.6,1.3-3.5,1.9-5.6,1.9c-1.8,0-3.3-0.3-4.5-1
						c-1.3-0.7-2.2-1.6-2.9-2.8l2.4-1.3c0.9,1.8,2.6,2.6,5.1,2.6c1.6,0,2.9-0.4,3.8-1.3c0.9-0.9,1.4-2,1.4-3.5v-2.2
						c-1.4,2.1-3.3,3.1-5.9,3.1c-2.2,0-4.1-0.8-5.7-2.4c-1.5-1.6-2.3-3.5-2.3-5.8c0-2.3,0.8-4.2,2.3-5.8c1.5-1.6,3.4-2.4,5.7-2.4
						c2.6,0,4.5,1,5.9,3.1V181.2z M248.5,192.9c1.1,1.1,2.4,1.6,4,1.6s2.9-0.5,4-1.6s1.6-2.4,1.6-4c0-1.6-0.5-2.9-1.6-4
						s-2.4-1.6-4-1.6s-2.9,0.5-4,1.6s-1.6,2.4-1.6,4C246.9,190.5,247.4,191.8,248.5,192.9z"/>
				</g>
				<g class="st1">
					<path class="st2" d="M283.2,183.8H279v8.5c0,0.8,0.2,1.3,0.5,1.6c0.3,0.3,0.8,0.5,1.4,0.5c0.6,0,1.4,0,2.3,0v2.4
						c-2.4,0.3-4.1,0.1-5.2-0.6c-1.1-0.7-1.7-2-1.7-4v-8.5h-3.1v-2.6h3.1v-3.6l2.7-0.8v4.4h4.2V183.8z"/>
				</g>
				<g class="st1">
					<path class="st2" d="M295.2,180.7c1.8,0,3.3,0.6,4.4,1.7c1.1,1.2,1.7,2.7,1.7,4.7v9.6h-2.7v-9.5c0-1.3-0.3-2.3-1-3
						c-0.7-0.7-1.6-1-2.9-1c-1.4,0-2.5,0.4-3.3,1.3c-0.8,0.8-1.3,2.1-1.3,3.9v8.3h-2.7v-22h2.7v8.5
						C291.2,181.6,292.9,180.7,295.2,180.7z"/>
					<path class="st2" d="M307.9,190.2c0.3,1.4,0.9,2.5,1.9,3.3c1,0.8,2.3,1.2,3.7,1.2c2.1,0,3.6-0.8,4.5-2.3l2.3,1.3
						c-1.5,2.4-3.8,3.5-6.9,3.5c-2.5,0-4.5-0.8-6.1-2.3s-2.3-3.5-2.3-5.9c0-2.4,0.8-4.3,2.3-5.9c1.5-1.6,3.5-2.4,5.9-2.4
						c2.3,0,4.2,0.8,5.6,2.4c1.5,1.6,2.2,3.6,2.2,5.8c0,0.4,0,0.8-0.1,1.2H307.9z M313.3,183.3c-1.5,0-2.7,0.4-3.6,1.2
						c-1,0.8-1.6,1.9-1.8,3.3h10.5c-0.2-1.5-0.8-2.6-1.8-3.4C315.7,183.7,314.6,183.3,313.3,183.3z"/>
				</g>
				<g class="st1">
					<path class="st2" d="M336.4,185.3c0,0.6,0.3,1.1,0.9,1.4c0.6,0.4,1.3,0.7,2.2,0.9c0.9,0.3,1.7,0.5,2.6,0.8
						c0.9,0.3,1.6,0.7,2.2,1.4c0.6,0.7,0.9,1.6,0.9,2.7c0,1.4-0.5,2.6-1.6,3.4s-2.5,1.3-4.2,1.3c-1.5,0-2.8-0.3-3.9-1
						c-1.1-0.7-1.9-1.6-2.3-2.7l2.4-1.3c0.3,0.8,0.7,1.3,1.4,1.8c0.7,0.4,1.5,0.7,2.5,0.7c0.9,0,1.6-0.2,2.2-0.5
						c0.6-0.3,0.9-0.9,0.9-1.6c0-0.6-0.3-1.1-0.9-1.5c-0.6-0.4-1.3-0.7-2.2-0.9c-0.9-0.3-1.7-0.5-2.6-0.8s-1.6-0.7-2.2-1.4
						c-0.6-0.7-0.9-1.5-0.9-2.6c0-1.4,0.5-2.5,1.6-3.4s2.4-1.3,4-1.3c1.3,0,2.4,0.3,3.4,0.9c1,0.6,1.7,1.4,2.2,2.4l-2.3,1.3
						c-0.6-1.3-1.7-2-3.4-2c-0.8,0-1.4,0.2-2,0.5C336.6,184.2,336.4,184.7,336.4,185.3z"/>
				</g>
				<g class="st1">
					<path class="st2" d="M356.9,180.7c1.8,0,3.3,0.6,4.4,1.7c1.1,1.2,1.7,2.7,1.7,4.7v9.6h-2.7v-9.5c0-1.3-0.3-2.3-1-3
						c-0.7-0.7-1.6-1-2.9-1c-1.4,0-2.5,0.4-3.3,1.3s-1.3,2.1-1.3,3.9v8.3h-2.7v-22h2.7v8.5C353,181.6,354.7,180.7,356.9,180.7z"/>
					<path class="st2" d="M369.1,178.3c-0.5,0-1-0.2-1.3-0.5s-0.5-0.8-0.5-1.3s0.2-0.9,0.5-1.3c0.4-0.4,0.8-0.5,1.3-0.5
						c0.5,0,0.9,0.2,1.3,0.5c0.4,0.4,0.5,0.8,0.5,1.3s-0.2,0.9-0.5,1.3S369.6,178.3,369.1,178.3z M367.7,196.8v-15.7h2.7v15.7H367.7
						z"/>
					<path class="st2" d="M384.2,180.7c2.2,0,4.1,0.8,5.6,2.4s2.3,3.5,2.3,5.8s-0.8,4.2-2.3,5.8s-3.4,2.4-5.6,2.4
						c-2.6,0-4.6-1-5.9-3.1v9h-2.7v-22h2.7v2.7C379.6,181.8,381.6,180.7,384.2,180.7z M383.9,194.6c1.6,0,2.9-0.5,4-1.6
						c1.1-1.1,1.6-2.4,1.6-4s-0.5-2.9-1.6-4c-1.1-1.1-2.4-1.6-4-1.6c-1.6,0-2.9,0.5-4,1.6c-1.1,1.1-1.6,2.4-1.6,4s0.5,2.9,1.6,4
						C380.9,194.1,382.3,194.6,383.9,194.6z"/>
				</g>
				<g class="st1">
					<path class="st2" d="M60.7,215.9c-0.5,0-1-0.2-1.3-0.5s-0.5-0.8-0.5-1.3s0.2-0.9,0.5-1.3c0.4-0.4,0.8-0.5,1.3-0.5
						c0.5,0,0.9,0.2,1.3,0.5c0.4,0.4,0.5,0.8,0.5,1.3s-0.2,0.9-0.5,1.3C61.6,215.7,61.2,215.9,60.7,215.9z M59.3,234.5v-15.7h2.7
						v15.7H59.3z"/>
					<path class="st2" d="M75,218.4c1.8,0,3.3,0.6,4.4,1.7c1.1,1.2,1.7,2.7,1.7,4.7v9.6h-2.7V225c0-1.3-0.3-2.3-1-3
						c-0.7-0.7-1.6-1-2.9-1c-1.4,0-2.5,0.4-3.3,1.3c-0.8,0.8-1.3,2.1-1.3,3.9v8.3h-2.7v-15.7h2.7v2.3C71,219.3,72.7,218.4,75,218.4z
						"/>
				</g>
				<g class="st1">
					<path class="st2" d="M103.1,221.4h-4.2v8.5c0,0.8,0.2,1.3,0.5,1.6s0.8,0.5,1.4,0.5c0.6,0,1.4,0,2.3,0v2.4
						c-2.4,0.3-4.1,0.1-5.2-0.6c-1.1-0.7-1.7-2-1.7-4v-8.5h-3.1v-2.6h3.1v-3.6l2.7-0.8v4.4h4.2V221.4z"/>
				</g>
				<g class="st1">
					<path class="st2" d="M115.1,218.4c1.8,0,3.3,0.6,4.4,1.7c1.1,1.2,1.7,2.7,1.7,4.7v9.6h-2.7V225c0-1.3-0.3-2.3-1-3
						c-0.7-0.7-1.6-1-2.9-1c-1.4,0-2.5,0.4-3.3,1.3c-0.8,0.8-1.3,2.1-1.3,3.9v8.3h-2.7v-22h2.7v8.5
						C111.1,219.3,112.8,218.4,115.1,218.4z"/>
				</g>
				<g class="st1">
					<path class="st2" d="M139.1,232.5c-1.6,1.6-3.6,2.4-5.9,2.4c-2.3,0-4.2-0.8-5.8-2.4c-1.6-1.6-2.4-3.5-2.4-5.9s0.8-4.3,2.4-5.9
						c1.6-1.6,3.5-2.4,5.8-2.4c2.3,0,4.3,0.8,5.9,2.4c1.6,1.6,2.4,3.5,2.4,5.9S140.8,230.9,139.1,232.5z M133.3,232.2
						c1.6,0,2.9-0.5,4-1.6c1.1-1.1,1.6-2.4,1.6-4s-0.5-2.9-1.6-4c-1.1-1.1-2.4-1.6-4-1.6c-1.5,0-2.9,0.5-3.9,1.6
						c-1.1,1.1-1.6,2.4-1.6,4s0.5,2.9,1.6,4C130.4,231.7,131.7,232.2,133.3,232.2z"/>
				</g>
				<g class="st1">
					<path class="st2" d="M147.7,223c0,0.6,0.3,1.1,0.9,1.4c0.6,0.4,1.3,0.7,2.2,0.9c0.9,0.3,1.7,0.5,2.6,0.8
						c0.9,0.3,1.6,0.7,2.2,1.4c0.6,0.7,0.9,1.6,0.9,2.7c0,1.4-0.5,2.6-1.6,3.4s-2.5,1.3-4.2,1.3c-1.5,0-2.8-0.3-3.9-1
						c-1.1-0.7-1.9-1.6-2.3-2.7l2.4-1.3c0.3,0.8,0.7,1.3,1.4,1.8c0.7,0.4,1.5,0.7,2.5,0.7c0.9,0,1.6-0.2,2.2-0.5
						c0.6-0.3,0.9-0.9,0.9-1.6c0-0.6-0.3-1.1-0.9-1.5c-0.6-0.4-1.3-0.7-2.2-0.9c-0.9-0.3-1.7-0.5-2.6-0.8c-0.9-0.3-1.6-0.7-2.2-1.4
						c-0.6-0.7-0.9-1.5-0.9-2.6c0-1.4,0.5-2.5,1.6-3.4s2.4-1.3,4-1.3c1.3,0,2.4,0.3,3.4,0.9c1,0.6,1.7,1.4,2.2,2.4l-2.3,1.3
						c-0.6-1.3-1.7-2-3.4-2c-0.8,0-1.4,0.2-2,0.5C148,221.8,147.7,222.3,147.7,223z"/>
				</g>
				<g class="st1">
					<path class="st2" d="M162.2,227.9c0.3,1.4,0.9,2.5,1.9,3.3s2.3,1.2,3.7,1.2c2.1,0,3.6-0.8,4.5-2.3l2.3,1.3
						c-1.5,2.4-3.8,3.5-6.9,3.5c-2.5,0-4.5-0.8-6.1-2.3s-2.3-3.5-2.3-5.9c0-2.4,0.8-4.3,2.3-5.9c1.5-1.6,3.5-2.4,5.9-2.4
						c2.3,0,4.2,0.8,5.6,2.4c1.5,1.6,2.2,3.6,2.2,5.8c0,0.4,0,0.8-0.1,1.2H162.2z M167.6,220.9c-1.5,0-2.7,0.4-3.6,1.2
						s-1.6,1.9-1.8,3.3h10.5c-0.2-1.5-0.8-2.6-1.8-3.4S168.8,220.9,167.6,220.9z"/>
				</g>
				<g class="st1">
					<path class="st2" d="M195.6,234.9c-2.4,0-4.3-0.8-5.9-2.4c-1.6-1.6-2.4-3.5-2.4-5.9s0.8-4.3,2.4-5.9c1.6-1.6,3.5-2.4,5.9-2.4
						c1.5,0,2.9,0.4,4.2,1.1c1.2,0.7,2.2,1.7,2.8,3l-2.3,1.3c-0.4-0.8-1-1.5-1.8-2c-0.8-0.5-1.8-0.8-2.8-0.8c-1.6,0-2.9,0.5-3.9,1.6
						c-1.1,1.1-1.6,2.4-1.6,4c0,1.6,0.5,2.9,1.6,4c1.1,1.1,2.4,1.6,3.9,1.6c1,0,2-0.2,2.8-0.7c0.8-0.5,1.5-1.2,1.9-2l2.3,1.3
						c-0.7,1.2-1.6,2.2-2.9,3C198.5,234.5,197.2,234.9,195.6,234.9z"/>
				</g>
				<g class="st1">
					<path class="st2" d="M219.3,232.5c-1.6,1.6-3.6,2.4-5.9,2.4c-2.3,0-4.2-0.8-5.8-2.4c-1.6-1.6-2.4-3.5-2.4-5.9s0.8-4.3,2.4-5.9
						c1.6-1.6,3.5-2.4,5.8-2.4c2.3,0,4.3,0.8,5.9,2.4c1.6,1.6,2.4,3.5,2.4,5.9S220.9,230.9,219.3,232.5z M213.5,232.2
						c1.6,0,2.9-0.5,4-1.6s1.6-2.4,1.6-4s-0.5-2.9-1.6-4c-1.1-1.1-2.4-1.6-4-1.6c-1.5,0-2.9,0.5-3.9,1.6c-1.1,1.1-1.6,2.4-1.6,4
						s0.5,2.9,1.6,4C210.6,231.7,211.9,232.2,213.5,232.2z"/>
					<path class="st2" d="M233.7,218.4c1.8,0,3.3,0.6,4.4,1.7c1.1,1.2,1.7,2.7,1.7,4.7v9.6h-2.7V225c0-1.3-0.3-2.3-1-3
						c-0.7-0.7-1.6-1-2.9-1c-1.4,0-2.5,0.4-3.3,1.3c-0.8,0.8-1.3,2.1-1.3,3.9v8.3h-2.7v-15.7h2.7v2.3
						C229.7,219.3,231.4,218.4,233.7,218.4z"/>
					<path class="st2" d="M257.5,212.5h2.7v22h-2.7v-2.7c-1.4,2.1-3.3,3.1-5.9,3.1c-2.2,0-4.1-0.8-5.6-2.4c-1.5-1.6-2.3-3.5-2.3-5.8
						s0.8-4.2,2.3-5.8c1.5-1.6,3.4-2.4,5.6-2.4c2.6,0,4.6,1,5.9,3.1V212.5z M251.9,232.2c1.6,0,2.9-0.5,4-1.6c1.1-1.1,1.6-2.4,1.6-4
						s-0.5-2.9-1.6-4c-1.1-1.1-2.4-1.6-4-1.6c-1.6,0-2.9,0.5-4,1.6c-1.1,1.1-1.6,2.4-1.6,4s0.5,2.9,1.6,4
						C249,231.7,250.3,232.2,251.9,232.2z"/>
					<path class="st2" d="M266.6,215.9c-0.5,0-1-0.2-1.3-0.5s-0.5-0.8-0.5-1.3s0.2-0.9,0.5-1.3c0.4-0.4,0.8-0.5,1.3-0.5
						c0.5,0,0.9,0.2,1.3,0.5c0.4,0.4,0.5,0.8,0.5,1.3s-0.2,0.9-0.5,1.3C267.6,215.7,267.1,215.9,266.6,215.9z M265.2,234.5v-15.7
						h2.7v15.7H265.2z"/>
				</g>
				<g class="st1">
					<path class="st2" d="M281.7,221.4h-4.2v8.5c0,0.8,0.2,1.3,0.5,1.6c0.3,0.3,0.8,0.5,1.4,0.5c0.6,0,1.4,0,2.3,0v2.4
						c-2.4,0.3-4.1,0.1-5.2-0.6c-1.1-0.7-1.7-2-1.7-4v-8.5h-3.1v-2.6h3.1v-3.6l2.7-0.8v4.4h4.2V221.4z"/>
				</g>
				<g class="st1">
					<path class="st2" d="M287.3,215.9c-0.5,0-1-0.2-1.3-0.5s-0.5-0.8-0.5-1.3s0.2-0.9,0.5-1.3c0.4-0.4,0.8-0.5,1.3-0.5
						c0.5,0,0.9,0.2,1.3,0.5c0.4,0.4,0.5,0.8,0.5,1.3s-0.2,0.9-0.5,1.3S287.8,215.9,287.3,215.9z M285.9,234.5v-15.7h2.7v15.7H285.9
						z"/>
					<path class="st2" d="M306.9,232.5c-1.6,1.6-3.6,2.4-5.9,2.4c-2.3,0-4.2-0.8-5.8-2.4c-1.6-1.6-2.4-3.5-2.4-5.9s0.8-4.3,2.4-5.9
						c1.6-1.6,3.5-2.4,5.8-2.4c2.3,0,4.3,0.8,5.9,2.4c1.6,1.6,2.4,3.5,2.4,5.9S308.5,230.9,306.9,232.5z M301.1,232.2
						c1.6,0,2.9-0.5,4-1.6s1.6-2.4,1.6-4s-0.5-2.9-1.6-4c-1.1-1.1-2.4-1.6-4-1.6c-1.5,0-2.9,0.5-3.9,1.6c-1.1,1.1-1.6,2.4-1.6,4
						s0.5,2.9,1.6,4C298.2,231.7,299.5,232.2,301.1,232.2z"/>
					<path class="st2" d="M321.3,218.4c1.8,0,3.3,0.6,4.4,1.7c1.1,1.2,1.7,2.7,1.7,4.7v9.6h-2.7V225c0-1.3-0.3-2.3-1-3
						c-0.7-0.7-1.6-1-2.9-1c-1.4,0-2.5,0.4-3.3,1.3s-1.3,2.1-1.3,3.9v8.3h-2.7v-15.7h2.7v2.3C317.3,219.3,319,218.4,321.3,218.4z"/>
					<path class="st2" d="M334.4,223c0,0.6,0.3,1.1,0.9,1.4c0.6,0.4,1.3,0.7,2.2,0.9c0.9,0.3,1.7,0.5,2.6,0.8
						c0.9,0.3,1.6,0.7,2.2,1.4c0.6,0.7,0.9,1.6,0.9,2.7c0,1.4-0.5,2.6-1.6,3.4s-2.5,1.3-4.2,1.3c-1.5,0-2.8-0.3-3.9-1
						c-1.1-0.7-1.9-1.6-2.3-2.7l2.4-1.3c0.3,0.8,0.7,1.3,1.4,1.8c0.7,0.4,1.5,0.7,2.5,0.7c0.9,0,1.6-0.2,2.2-0.5
						c0.6-0.3,0.9-0.9,0.9-1.6c0-0.6-0.3-1.1-0.9-1.5c-0.6-0.4-1.3-0.7-2.2-0.9c-0.9-0.3-1.7-0.5-2.6-0.8s-1.6-0.7-2.2-1.4
						c-0.6-0.7-0.9-1.5-0.9-2.6c0-1.4,0.5-2.5,1.6-3.4s2.4-1.3,4-1.3c1.3,0,2.4,0.3,3.4,0.9c1,0.6,1.7,1.4,2.2,2.4l-2.3,1.3
						c-0.6-1.3-1.7-2-3.4-2c-0.8,0-1.4,0.2-2,0.5C334.7,221.8,334.4,222.3,334.4,223z"/>
					<path class="st2" d="M349.1,234.8c-0.6,0-1-0.2-1.4-0.6c-0.4-0.4-0.6-0.9-0.6-1.4s0.2-1,0.6-1.4s0.9-0.6,1.4-0.6
						c0.6,0,1.1,0.2,1.5,0.6c0.4,0.4,0.6,0.9,0.6,1.4s-0.2,1-0.6,1.4C350.1,234.6,349.7,234.8,349.1,234.8z M348,228l-0.6-9.3v-6.3
						h3.3v6.3l-0.6,9.3H348z"/>
				</g>
				<path class="st2" d="M423,97.6c0,0,59.4-25.3,55.3-86.4c-0.2-3.3-4.2-4.7-6.5-2.3c-8.5,9.4-23.3,26.5-47.3,30.7"/>
			</g>
			<g>
				<circle class="st3" cx="210.3" cy="53.6" r="26.4"/>
				<g class="st1">
					<path class="st2" d="M212.2,63.5c-0.5,0.5-1.2,0.8-1.9,0.8c-0.7,0-1.4-0.3-1.9-0.8c-0.5-0.5-0.8-1.1-0.8-1.9
						c0-0.7,0.3-1.4,0.8-1.9c0.5-0.5,1.1-0.8,1.9-0.8c0.7,0,1.4,0.3,1.9,0.8c0.5,0.5,0.8,1.2,0.8,1.9C213,62.3,212.7,63,212.2,63.5z
						 M208.7,56.5l-0.8-8.3v-6.3h4.9v6.3l-0.8,8.3H208.7z"/>
				</g>
			</g>
		</g>
	</g>
</g>
</svg>
