<?xml version="1.0" encoding="utf-8"?>
<!-- Generator: Adobe Illustrator 26.3.1, SVG Export Plug-In . SVG Version: 6.00 Build 0)  -->
<svg version="1.1" id="Layer_1" xmlns="http://www.w3.org/2000/svg" xmlns:xlink="http://www.w3.org/1999/xlink" x="0px" y="0px"
	 viewBox="0 0 478.5 279.7" style="enable-background:new 0 0 478.5 279.7;" xml:space="preserve">
<style type="text/css">
	.st0{fill:#BC1E44;stroke:#FFFFFF;stroke-width:5;stroke-miterlimit:10;}
	.st1{enable-background:new    ;}
	.st2{fill:#FFFFFF;}
	.st3{fill:#E9A72D;}
</style>
<g id="a">
</g>
<g id="b">
	<g id="c">
		<g>
			<g>
				<path class="st0" d="M46.1,2.5h334.1c24.1,0,43.6,19.5,43.6,43.6v187.6c0,24.1-19.5,43.6-43.6,43.6H46.1
					c-24.1,0-43.6-19.5-43.6-43.6V46.1C2.5,22,22,2.5,46.1,2.5z"/>
				<g class="st1">
					<path class="st2" d="M98,102.1h4.3v22H98V102.1z"/>
					<path class="st2" d="M127.7,102.1h4v22h-4v-1.9c-1.2,1.5-2.9,2.3-5.1,2.3c-2.1,0-3.9-0.8-5.4-2.4s-2.2-3.6-2.2-5.9
						s0.7-4.3,2.2-5.9c1.5-1.6,3.3-2.4,5.4-2.4c2.2,0,3.9,0.8,5.1,2.3V102.1z M120.3,119.4c0.8,0.8,1.9,1.2,3.1,1.2s2.3-0.4,3.1-1.2
						c0.8-0.8,1.2-1.9,1.2-3.2s-0.4-2.4-1.2-3.2c-0.8-0.8-1.9-1.2-3.1-1.2s-2.3,0.4-3.1,1.2c-0.8,0.8-1.2,1.9-1.2,3.2
						S119.5,118.5,120.3,119.4z"/>
					<path class="st2" d="M149.7,122.1c-1.6,1.6-3.6,2.4-5.9,2.4s-4.3-0.8-5.9-2.4c-1.6-1.6-2.4-3.6-2.4-5.9s0.8-4.3,2.4-5.9
						c1.6-1.6,3.6-2.4,5.9-2.4s4.3,0.8,5.9,2.4c1.6,1.6,2.4,3.6,2.4,5.9S151.4,120.5,149.7,122.1z M140.8,119.3
						c0.8,0.8,1.8,1.2,3,1.2c1.2,0,2.2-0.4,3-1.2s1.2-1.9,1.2-3.1c0-1.3-0.4-2.3-1.2-3.1s-1.8-1.2-3-1.2c-1.2,0-2.2,0.4-3,1.2
						c-0.8,0.8-1.2,1.8-1.2,3.1C139.6,117.4,140,118.5,140.8,119.3z"/>
				</g>
				<g class="st1">
					<path class="st2" d="M164.8,107.9c1.7,0,3.1,0.6,4.2,1.7c1.1,1.2,1.7,2.7,1.7,4.8v9.6h-4v-9.1c0-1-0.3-1.8-0.8-2.4
						s-1.3-0.8-2.3-0.8c-1,0-1.9,0.3-2.5,1c-0.6,0.6-0.9,1.6-0.9,2.9v8.5h-4v-15.7h4v1.8C161.1,108.6,162.6,107.9,164.8,107.9z"/>
				</g>
				<g class="st1">
					<path class="st2" d="M178.8,102l-2.4,8.7h-3.3l1.3-8.7H178.8z"/>
					<path class="st2" d="M192.1,112.2h-3.5v6.5c0,0.5,0.1,0.9,0.4,1.2c0.3,0.3,0.7,0.4,1.2,0.4c0.5,0,1.2,0,1.9,0v3.7
						c-2.8,0.3-4.7,0.1-5.9-0.8s-1.7-2.3-1.7-4.5v-6.5h-2.7v-3.9h2.7v-3.2l4-1.2v4.4h3.5V112.2z"/>
				</g>
				<g class="st1">
					<path class="st2" d="M213.9,112.2h-3.5v6.5c0,0.5,0.1,0.9,0.4,1.2c0.3,0.3,0.7,0.4,1.2,0.4c0.5,0,1.2,0,1.9,0v3.7
						c-2.8,0.3-4.7,0.1-5.9-0.8s-1.7-2.3-1.7-4.5v-6.5h-2.7v-3.9h2.7v-3.2l4-1.2v4.4h3.5V112.2z"/>
				</g>
				<g class="st1">
					<path class="st2" d="M226.4,107.9c1.7,0,3.1,0.6,4.2,1.7c1.1,1.2,1.7,2.7,1.7,4.8v9.6h-4v-9.1c0-1-0.3-1.8-0.8-2.4
						s-1.3-0.8-2.3-0.8c-1,0-1.9,0.3-2.5,1c-0.6,0.6-0.9,1.6-0.9,2.9v8.5h-4v-22h4v8C222.7,108.6,224.3,107.9,226.4,107.9z"/>
					<path class="st2" d="M238.7,106.5c-0.7,0-1.2-0.2-1.7-0.7c-0.5-0.5-0.7-1.1-0.7-1.7s0.2-1.3,0.7-1.8s1.1-0.8,1.7-0.8
						c0.7,0,1.3,0.3,1.8,0.8c0.5,0.5,0.7,1.1,0.7,1.8s-0.2,1.2-0.7,1.7C240,106.2,239.4,106.5,238.7,106.5z M236.7,124v-15.7h4V124
						H236.7z"/>
					<path class="st2" d="M254.1,107.9c1.7,0,3.1,0.6,4.2,1.7c1.1,1.2,1.7,2.7,1.7,4.8v9.6h-4v-9.1c0-1-0.3-1.8-0.8-2.4
						s-1.3-0.8-2.3-0.8c-1,0-1.9,0.3-2.5,1c-0.6,0.6-0.9,1.6-0.9,2.9v8.5h-4v-15.7h4v1.8C250.4,108.6,251.9,107.9,254.1,107.9z"/>
					<path class="st2" d="M278.8,124h-4.7l-5.7-7.1v7.1h-4v-22h4v13.2l5.4-6.9h4.8l-6.3,7.7L278.8,124z"/>
				</g>
				<g class="st1">
					<path class="st2" d="M294.4,112.8c0,0.4,0.3,0.8,0.8,1c0.6,0.3,1.2,0.5,2,0.7c0.8,0.2,1.6,0.4,2.4,0.8c0.8,0.3,1.5,0.8,2,1.5
						s0.8,1.6,0.8,2.7c0,1.6-0.6,2.8-1.8,3.7c-1.2,0.9-2.7,1.3-4.5,1.3c-3.2,0-5.4-1.2-6.6-3.7l3.5-2c0.5,1.4,1.5,2,3.1,2
						c1.4,0,2.2-0.4,2.2-1.3c0-0.4-0.3-0.8-0.8-1s-1.2-0.5-2-0.7c-0.8-0.2-1.6-0.5-2.4-0.8c-0.8-0.3-1.5-0.8-2-1.5
						c-0.6-0.7-0.8-1.5-0.8-2.6c0-1.5,0.6-2.8,1.7-3.7s2.6-1.3,4.2-1.3c1.3,0,2.4,0.3,3.5,0.9c1,0.6,1.9,1.4,2.5,2.5l-3.5,1.9
						c-0.5-1.1-1.3-1.6-2.5-1.6c-0.5,0-1,0.1-1.3,0.3C294.5,112.1,294.4,112.4,294.4,112.8z"/>
				</g>
				<g class="st1">
					<path class="st2" d="M319.1,122.1c-1.6,1.6-3.6,2.4-5.9,2.4c-2.3,0-4.3-0.8-5.9-2.4s-2.4-3.6-2.4-5.9s0.8-4.3,2.4-5.9
						c1.6-1.6,3.6-2.4,5.9-2.4c2.3,0,4.3,0.8,5.9,2.4c1.6,1.6,2.4,3.6,2.4,5.9S320.8,120.5,319.1,122.1z M310.2,119.3
						c0.8,0.8,1.8,1.2,3,1.2s2.2-0.4,3-1.2s1.2-1.9,1.2-3.1c0-1.3-0.4-2.3-1.2-3.1s-1.8-1.2-3-1.2s-2.2,0.4-3,1.2s-1.2,1.8-1.2,3.1
						C309,117.4,309.4,118.5,310.2,119.3z"/>
					<path class="st2" d="M329.6,123.6c-0.5,0.5-1.2,0.8-1.9,0.8c-0.7,0-1.4-0.3-1.9-0.8s-0.8-1.1-0.8-1.9c0-0.7,0.3-1.4,0.8-1.9
						c0.5-0.5,1.1-0.8,1.9-0.8c0.7,0,1.4,0.3,1.9,0.8c0.5,0.5,0.8,1.2,0.8,1.9C330.3,122.5,330.1,123.1,329.6,123.6z M326.1,116.7
						l-0.8-8.3v-6.3h4.9v6.3l-0.8,8.3H326.1z"/>
				</g>
				<g class="st1">
					<path class="st2" d="M93.6,139.7v2.8h-6.5v19.2h-2.9v-19.2h-6.5v-2.8H93.6z"/>
					<path class="st2" d="M105,145.6c1.8,0,3.3,0.6,4.4,1.7c1.1,1.2,1.7,2.7,1.7,4.7v9.6h-2.7v-9.5c0-1.3-0.3-2.3-1-3
						c-0.7-0.7-1.6-1-2.9-1c-1.4,0-2.5,0.4-3.3,1.3s-1.3,2.1-1.3,3.9v8.3h-2.7v-22h2.7v8.5C101,146.5,102.7,145.6,105,145.6z"/>
					<path class="st2" d="M117.7,155.1c0.3,1.4,0.9,2.5,1.9,3.3c1,0.8,2.3,1.2,3.7,1.2c2.1,0,3.6-0.8,4.5-2.3l2.3,1.3
						c-1.5,2.4-3.8,3.5-6.9,3.5c-2.5,0-4.5-0.8-6.1-2.3s-2.3-3.5-2.3-5.9c0-2.4,0.8-4.3,2.3-5.9c1.5-1.6,3.5-2.4,5.9-2.4
						c2.3,0,4.2,0.8,5.6,2.4s2.2,3.6,2.2,5.8c0,0.4,0,0.8-0.1,1.2H117.7z M123.1,148.1c-1.5,0-2.7,0.4-3.6,1.2
						c-1,0.8-1.6,1.9-1.8,3.3h10.5c-0.2-1.5-0.8-2.6-1.8-3.4C125.4,148.5,124.3,148.1,123.1,148.1z"/>
				</g>
				<g class="st1">
					<path class="st2" d="M137.8,148.6c0.9-1.9,2.5-2.9,4.9-2.9v2.9c-1.3-0.1-2.5,0.3-3.4,1.1c-1,0.8-1.4,2-1.4,3.7v8.3H135V146h2.7
						V148.6z"/>
				</g>
				<g class="st1">
					<path class="st2" d="M147.3,155.1c0.3,1.4,0.9,2.5,1.9,3.3s2.3,1.2,3.7,1.2c2.1,0,3.6-0.8,4.5-2.3l2.3,1.3
						c-1.5,2.4-3.8,3.5-6.9,3.5c-2.5,0-4.5-0.8-6.1-2.3s-2.3-3.5-2.3-5.9c0-2.4,0.8-4.3,2.3-5.9c1.5-1.6,3.5-2.4,5.9-2.4
						c2.3,0,4.2,0.8,5.6,2.4c1.5,1.6,2.2,3.6,2.2,5.8c0,0.4,0,0.8-0.1,1.2H147.3z M152.8,148.1c-1.5,0-2.7,0.4-3.6,1.2
						s-1.6,1.9-1.8,3.3h10.5c-0.2-1.5-0.8-2.6-1.8-3.4S154,148.1,152.8,148.1z"/>
				</g>
				<g class="st1">
					<path class="st2" d="M166.8,139.7l-2,7.6h-2.4l1.3-7.6H166.8z"/>
				</g>
				<g class="st1">
					<path class="st2" d="M171.5,150.2c0,0.6,0.3,1.1,0.9,1.4c0.6,0.4,1.3,0.7,2.2,0.9c0.9,0.3,1.7,0.5,2.6,0.8
						c0.9,0.3,1.6,0.7,2.2,1.4c0.6,0.7,0.9,1.6,0.9,2.7c0,1.4-0.5,2.6-1.6,3.4s-2.5,1.3-4.2,1.3c-1.5,0-2.8-0.3-3.9-1
						c-1.1-0.7-1.9-1.6-2.3-2.7l2.4-1.3c0.3,0.8,0.7,1.3,1.4,1.8c0.7,0.4,1.5,0.7,2.5,0.7c0.9,0,1.6-0.2,2.2-0.5
						c0.6-0.3,0.9-0.9,0.9-1.6c0-0.6-0.3-1.1-0.9-1.5c-0.6-0.4-1.3-0.7-2.2-0.9c-0.9-0.3-1.7-0.5-2.6-0.8c-0.9-0.3-1.6-0.7-2.2-1.4
						c-0.6-0.7-0.9-1.5-0.9-2.6c0-1.4,0.5-2.5,1.6-3.4s2.4-1.3,4-1.3c1.3,0,2.4,0.3,3.4,0.9c1,0.6,1.7,1.4,2.2,2.4l-2.3,1.3
						c-0.6-1.3-1.7-2-3.4-2c-0.8,0-1.4,0.2-2,0.5C171.7,149,171.5,149.5,171.5,150.2z"/>
					<path class="st2" d="M200.9,145.6c1.8,0,3.3,0.6,4.4,1.7c1.1,1.2,1.7,2.7,1.7,4.7v9.6h-2.7v-9.5c0-1.3-0.3-2.3-1-3
						c-0.7-0.7-1.6-1-2.9-1c-1.4,0-2.5,0.4-3.3,1.3c-0.8,0.8-1.3,2.1-1.3,3.9v8.3h-2.7V146h2.7v2.3
						C197,146.5,198.7,145.6,200.9,145.6z"/>
					<path class="st2" d="M225,159.7c-1.6,1.6-3.6,2.4-5.9,2.4c-2.3,0-4.2-0.8-5.8-2.4c-1.6-1.6-2.4-3.5-2.4-5.9s0.8-4.3,2.4-5.9
						c1.6-1.6,3.5-2.4,5.8-2.4c2.3,0,4.3,0.8,5.9,2.4c1.6,1.6,2.4,3.5,2.4,5.9S226.6,158.1,225,159.7z M219.1,159.4
						c1.6,0,2.9-0.5,4-1.6c1.1-1.1,1.6-2.4,1.6-4s-0.5-2.9-1.6-4c-1.1-1.1-2.4-1.6-4-1.6c-1.5,0-2.9,0.5-3.9,1.6
						c-1.1,1.1-1.6,2.4-1.6,4s0.5,2.9,1.6,4C216.3,158.9,217.6,159.4,219.1,159.4z"/>
				</g>
				<g class="st1">
					<path class="st2" d="M247.8,162.1c-2.4,0-4.3-0.8-5.9-2.4c-1.6-1.6-2.4-3.5-2.4-5.9s0.8-4.3,2.4-5.9c1.6-1.6,3.5-2.4,5.9-2.4
						c1.5,0,2.9,0.4,4.2,1.1c1.2,0.7,2.2,1.7,2.8,3l-2.3,1.3c-0.4-0.8-1-1.5-1.8-2c-0.8-0.5-1.8-0.8-2.8-0.8c-1.6,0-2.9,0.5-3.9,1.6
						c-1.1,1.1-1.6,2.4-1.6,4c0,1.6,0.5,2.9,1.6,4c1.1,1.1,2.4,1.6,3.9,1.6c1,0,2-0.2,2.8-0.7c0.8-0.5,1.5-1.2,1.9-2l2.3,1.3
						c-0.7,1.2-1.6,2.2-2.9,3C250.7,161.7,249.3,162.1,247.8,162.1z"/>
				</g>
				<g class="st1">
					<path class="st2" d="M266.3,145.6c1.8,0,3.3,0.6,4.4,1.7c1.1,1.2,1.7,2.7,1.7,4.7v9.6h-2.7v-9.5c0-1.3-0.3-2.3-1-3
						c-0.7-0.7-1.6-1-2.9-1c-1.4,0-2.5,0.4-3.3,1.3c-0.8,0.8-1.3,2.1-1.3,3.9v8.3h-2.7v-22h2.7v8.5
						C262.3,146.5,264,145.6,266.3,145.6z"/>
					<path class="st2" d="M290.1,146h2.7v15.7h-2.7V159c-1.4,2.1-3.3,3.1-5.9,3.1c-2.2,0-4.1-0.8-5.6-2.4s-2.3-3.5-2.3-5.8
						s0.8-4.2,2.3-5.8s3.4-2.4,5.6-2.4c2.6,0,4.6,1,5.9,3.1V146z M284.5,159.4c1.6,0,2.9-0.5,4-1.6c1.1-1.1,1.6-2.4,1.6-4
						s-0.5-2.9-1.6-4c-1.1-1.1-2.4-1.6-4-1.6c-1.6,0-2.9,0.5-4,1.6c-1.1,1.1-1.6,2.4-1.6,4s0.5,2.9,1.6,4
						C281.6,158.9,282.9,159.4,284.5,159.4z"/>
					<path class="st2" d="M305.7,145.6c1.8,0,3.3,0.6,4.4,1.7c1.1,1.2,1.7,2.7,1.7,4.7v9.6H309v-9.5c0-1.3-0.3-2.3-1-3
						c-0.7-0.7-1.6-1-2.9-1c-1.4,0-2.5,0.4-3.3,1.3c-0.8,0.8-1.3,2.1-1.3,3.9v8.3h-2.7V146h2.7v2.3
						C301.7,146.5,303.4,145.6,305.7,145.6z"/>
				</g>
				<g class="st1">
					<path class="st2" d="M323.9,162.1c-2.4,0-4.3-0.8-5.9-2.4c-1.6-1.6-2.4-3.5-2.4-5.9s0.8-4.3,2.4-5.9s3.5-2.4,5.9-2.4
						c1.5,0,2.9,0.4,4.2,1.1c1.2,0.7,2.2,1.7,2.8,3l-2.3,1.3c-0.4-0.8-1-1.5-1.8-2c-0.8-0.5-1.8-0.8-2.8-0.8c-1.6,0-2.9,0.5-3.9,1.6
						c-1.1,1.1-1.6,2.4-1.6,4c0,1.6,0.5,2.9,1.6,4s2.4,1.6,3.9,1.6c1,0,2-0.2,2.8-0.7s1.5-1.2,1.9-2l2.3,1.3c-0.7,1.2-1.6,2.2-2.9,3
						C326.8,161.7,325.4,162.1,323.9,162.1z"/>
				</g>
				<g class="st1">
					<path class="st2" d="M336.3,155.1c0.3,1.4,0.9,2.5,1.9,3.3c1,0.8,2.3,1.2,3.7,1.2c2.1,0,3.6-0.8,4.5-2.3l2.3,1.3
						c-1.5,2.4-3.8,3.5-6.9,3.5c-2.5,0-4.5-0.8-6.1-2.3s-2.3-3.5-2.3-5.9c0-2.4,0.8-4.3,2.3-5.9c1.5-1.6,3.5-2.4,5.9-2.4
						c2.3,0,4.2,0.8,5.6,2.4c1.5,1.6,2.2,3.6,2.2,5.8c0,0.4,0,0.8-0.1,1.2H336.3z M341.7,148.1c-1.5,0-2.7,0.4-3.6,1.2
						c-1,0.8-1.6,1.9-1.8,3.3h10.5c-0.2-1.5-0.8-2.6-1.8-3.4C344.1,148.5,343,148.1,341.7,148.1z"/>
				</g>
				<g class="st1">
					<path class="st2" d="M112.1,183.6h2.6l-4.6,15.7h-2.8l-3.7-11.8l-3.7,11.8h-2.9l-4.6-15.7h2.9l3.4,11.9l3.7-11.9h2.7l3.7,11.9
						L112.1,183.6z"/>
				</g>
				<g class="st1">
					<path class="st2" d="M120,192.7c0.3,1.4,0.9,2.5,1.9,3.3s2.3,1.2,3.7,1.2c2.1,0,3.6-0.8,4.5-2.3l2.3,1.3
						c-1.5,2.4-3.8,3.5-6.9,3.5c-2.5,0-4.5-0.8-6.1-2.3s-2.3-3.5-2.3-5.9c0-2.4,0.8-4.3,2.3-5.9c1.5-1.6,3.5-2.4,5.9-2.4
						c2.3,0,4.2,0.8,5.6,2.4c1.5,1.6,2.2,3.6,2.2,5.8c0,0.4,0,0.8-0.1,1.2H120z M125.4,185.8c-1.5,0-2.7,0.4-3.6,1.2
						s-1.6,1.9-1.8,3.3h10.5c-0.2-1.5-0.8-2.6-1.8-3.4S126.6,185.8,125.4,185.8z"/>
				</g>
				<g class="st1">
					<path class="st2" d="M139.5,177.3l-2,7.6h-2.4l1.3-7.6H139.5z"/>
				</g>
				<g class="st1">
					<path class="st2" d="M147,186.2c0.9-1.9,2.5-2.9,4.9-2.9v2.9c-1.3-0.1-2.5,0.3-3.4,1.1c-1,0.8-1.4,2-1.4,3.7v8.3h-2.7v-15.7
						h2.7V186.2z"/>
				</g>
				<g class="st1">
					<path class="st2" d="M156.6,192.7c0.3,1.4,0.9,2.5,1.9,3.3s2.3,1.2,3.7,1.2c2.1,0,3.6-0.8,4.5-2.3l2.3,1.3
						c-1.5,2.4-3.8,3.5-6.9,3.5c-2.5,0-4.5-0.8-6.1-2.3s-2.3-3.5-2.3-5.9c0-2.4,0.8-4.3,2.3-5.9c1.5-1.6,3.5-2.4,5.9-2.4
						c2.3,0,4.2,0.8,5.6,2.4c1.5,1.6,2.2,3.6,2.2,5.8c0,0.4,0,0.8-0.1,1.2H156.6z M162,185.8c-1.5,0-2.7,0.4-3.6,1.2
						s-1.6,1.9-1.8,3.3H167c-0.2-1.5-0.8-2.6-1.8-3.4S163.2,185.8,162,185.8z"/>
					<path class="st2" d="M195.6,183.6h2.7v15c0,2.3-0.8,4.1-2.4,5.4s-3.4,1.9-5.6,1.9c-1.8,0-3.3-0.3-4.5-1
						c-1.3-0.7-2.2-1.6-2.9-2.8l2.4-1.3c0.9,1.8,2.6,2.6,5.1,2.6c1.6,0,2.9-0.4,3.8-1.3s1.4-2,1.4-3.5v-2.2
						c-1.4,2.1-3.3,3.1-5.9,3.1c-2.2,0-4.1-0.8-5.7-2.4c-1.5-1.6-2.3-3.5-2.3-5.8c0-2.3,0.8-4.2,2.3-5.8c1.5-1.6,3.4-2.4,5.7-2.4
						c2.6,0,4.5,1,5.9,3.1V183.6z M186,195.3c1.1,1.1,2.4,1.6,4,1.6s2.9-0.5,4-1.6s1.6-2.4,1.6-4c0-1.6-0.5-2.9-1.6-4
						s-2.4-1.6-4-1.6s-2.9,0.5-4,1.6c-1.1,1.1-1.6,2.4-1.6,4C184.4,192.9,185,194.3,186,195.3z"/>
					<path class="st2" d="M216.6,197.3c-1.6,1.6-3.6,2.4-5.9,2.4c-2.3,0-4.2-0.8-5.8-2.4c-1.6-1.6-2.4-3.5-2.4-5.9s0.8-4.3,2.4-5.9
						c1.6-1.6,3.5-2.4,5.8-2.4c2.3,0,4.3,0.8,5.9,2.4c1.6,1.6,2.4,3.5,2.4,5.9S218.2,195.7,216.6,197.3z M210.7,197
						c1.6,0,2.9-0.5,4-1.6c1.1-1.1,1.6-2.4,1.6-4s-0.5-2.9-1.6-4c-1.1-1.1-2.4-1.6-4-1.6c-1.5,0-2.9,0.5-3.9,1.6
						c-1.1,1.1-1.6,2.4-1.6,4s0.5,2.9,1.6,4C207.9,196.5,209.2,197,210.7,197z"/>
					<path class="st2" d="M224.5,180.7c-0.5,0-1-0.2-1.3-0.5s-0.5-0.8-0.5-1.3s0.2-0.9,0.5-1.3c0.4-0.4,0.8-0.5,1.3-0.5
						c0.5,0,0.9,0.2,1.3,0.5c0.4,0.4,0.5,0.8,0.5,1.3s-0.2,0.9-0.5,1.3C225.4,180.6,225,180.7,224.5,180.7z M223.1,199.3v-15.7h2.7
						v15.7H223.1z"/>
					<path class="st2" d="M238.8,183.2c1.8,0,3.3,0.6,4.4,1.7c1.1,1.2,1.7,2.7,1.7,4.7v9.6h-2.7v-9.5c0-1.3-0.3-2.3-1-3
						c-0.7-0.7-1.6-1-2.9-1c-1.4,0-2.5,0.4-3.3,1.3c-0.8,0.8-1.3,2.1-1.3,3.9v8.3h-2.7v-15.7h2.7v2.3
						C234.8,184.1,236.5,183.2,238.8,183.2z"/>
					<path class="st2" d="M262.6,183.6h2.7v15c0,2.3-0.8,4.1-2.4,5.4c-1.6,1.3-3.5,1.9-5.6,1.9c-1.8,0-3.3-0.3-4.5-1
						c-1.3-0.7-2.2-1.6-2.9-2.8l2.4-1.3c0.9,1.8,2.6,2.6,5.1,2.6c1.6,0,2.9-0.4,3.8-1.3c0.9-0.9,1.4-2,1.4-3.5v-2.2
						c-1.4,2.1-3.3,3.1-5.9,3.1c-2.2,0-4.1-0.8-5.7-2.4c-1.5-1.6-2.3-3.5-2.3-5.8c0-2.3,0.8-4.2,2.3-5.8c1.5-1.6,3.4-2.4,5.7-2.4
						c2.6,0,4.5,1,5.9,3.1V183.6z M253,195.3c1.1,1.1,2.4,1.6,4,1.6s2.9-0.5,4-1.6s1.6-2.4,1.6-4c0-1.6-0.5-2.9-1.6-4
						s-2.4-1.6-4-1.6s-2.9,0.5-4,1.6s-1.6,2.4-1.6,4C251.4,192.9,251.9,194.3,253,195.3z"/>
					<path class="st2" d="M292.3,197.3c-1.6,1.6-3.6,2.4-5.9,2.4s-4.2-0.8-5.8-2.4s-2.4-3.5-2.4-5.9s0.8-4.3,2.4-5.9
						s3.5-2.4,5.8-2.4s4.3,0.8,5.9,2.4c1.6,1.6,2.4,3.5,2.4,5.9S293.9,195.7,292.3,197.3z M286.4,197c1.6,0,2.9-0.5,4-1.6
						c1.1-1.1,1.6-2.4,1.6-4s-0.5-2.9-1.6-4c-1.1-1.1-2.4-1.6-4-1.6c-1.5,0-2.9,0.5-3.9,1.6c-1.1,1.1-1.6,2.4-1.6,4s0.5,2.9,1.6,4
						S284.9,197,286.4,197z"/>
					<path class="st2" d="M309.7,183.6h2.7v15.7h-2.7V197c-1.1,1.8-2.8,2.7-5.1,2.7c-1.8,0-3.3-0.6-4.4-1.7
						c-1.1-1.2-1.7-2.7-1.7-4.7v-9.6h2.7v9.5c0,1.3,0.3,2.3,1,3c0.7,0.7,1.6,1.1,2.9,1.1c1.4,0,2.5-0.4,3.3-1.3
						c0.8-0.8,1.3-2.1,1.3-3.9V183.6z"/>
					<path class="st2" d="M326,186.2h-4.2v8.5c0,0.8,0.2,1.3,0.5,1.6c0.3,0.3,0.8,0.5,1.4,0.5c0.6,0,1.4,0,2.3,0v2.4
						c-2.4,0.3-4.1,0.1-5.2-0.6c-1.1-0.7-1.7-2-1.7-4v-8.5H316v-2.6h3.1V180l2.7-0.8v4.4h4.2V186.2z"/>
				</g>
				<g class="st1">
					<path class="st2" d="M105.3,218.4c-0.5,0-1-0.2-1.3-0.5s-0.5-0.8-0.5-1.3s0.2-0.9,0.5-1.3c0.4-0.4,0.8-0.5,1.3-0.5
						c0.5,0,0.9,0.2,1.3,0.5c0.4,0.4,0.5,0.8,0.5,1.3s-0.2,0.9-0.5,1.3C106.2,218.2,105.8,218.4,105.3,218.4z M103.9,236.9v-15.7
						h2.7v15.7H103.9z"/>
					<path class="st2" d="M119.5,220.8c1.8,0,3.3,0.6,4.4,1.7c1.1,1.2,1.7,2.7,1.7,4.7v9.6h-2.7v-9.5c0-1.3-0.3-2.3-1-3
						c-0.7-0.7-1.6-1-2.9-1c-1.4,0-2.5,0.4-3.3,1.3c-0.8,0.8-1.3,2.1-1.3,3.9v8.3h-2.7v-15.7h2.7v2.3
						C115.6,221.7,117.2,220.8,119.5,220.8z"/>
				</g>
				<g class="st1">
					<path class="st2" d="M147.7,223.9h-4.2v8.5c0,0.8,0.2,1.3,0.5,1.6s0.8,0.5,1.4,0.5c0.6,0,1.4,0,2.3,0v2.4
						c-2.4,0.3-4.1,0.1-5.2-0.6c-1.1-0.7-1.7-2-1.7-4v-8.5h-3.1v-2.6h3.1v-3.6l2.7-0.8v4.4h4.2V223.9z"/>
				</g>
				<g class="st1">
					<path class="st2" d="M159.7,220.8c1.8,0,3.3,0.6,4.4,1.7c1.1,1.2,1.7,2.7,1.7,4.7v9.6H163v-9.5c0-1.3-0.3-2.3-1-3
						c-0.7-0.7-1.6-1-2.9-1c-1.4,0-2.5,0.4-3.3,1.3c-0.8,0.8-1.3,2.1-1.3,3.9v8.3h-2.7v-22h2.7v8.5
						C155.7,221.7,157.4,220.8,159.7,220.8z"/>
				</g>
				<g class="st1">
					<path class="st2" d="M183.7,234.9c-1.6,1.6-3.6,2.4-5.9,2.4c-2.3,0-4.2-0.8-5.8-2.4c-1.6-1.6-2.4-3.5-2.4-5.9s0.8-4.3,2.4-5.9
						c1.6-1.6,3.5-2.4,5.8-2.4c2.3,0,4.3,0.8,5.9,2.4c1.6,1.6,2.4,3.5,2.4,5.9S185.3,233.3,183.7,234.9z M177.9,234.7
						c1.6,0,2.9-0.5,4-1.6c1.1-1.1,1.6-2.4,1.6-4s-0.5-2.9-1.6-4c-1.1-1.1-2.4-1.6-4-1.6c-1.5,0-2.9,0.5-3.9,1.6
						c-1.1,1.1-1.6,2.4-1.6,4s0.5,2.9,1.6,4C175,234.1,176.3,234.7,177.9,234.7z"/>
				</g>
				<g class="st1">
					<path class="st2" d="M192.3,225.4c0,0.6,0.3,1.1,0.9,1.4c0.6,0.4,1.3,0.7,2.2,0.9c0.9,0.3,1.7,0.5,2.6,0.8
						c0.9,0.3,1.6,0.7,2.2,1.4c0.6,0.7,0.9,1.6,0.9,2.7c0,1.4-0.5,2.6-1.6,3.4s-2.5,1.3-4.2,1.3c-1.5,0-2.8-0.3-3.9-1
						c-1.1-0.7-1.9-1.6-2.3-2.7l2.4-1.3c0.3,0.8,0.7,1.3,1.4,1.8c0.7,0.4,1.5,0.7,2.5,0.7c0.9,0,1.6-0.2,2.2-0.5
						c0.6-0.3,0.9-0.9,0.9-1.6c0-0.6-0.3-1.1-0.9-1.5c-0.6-0.4-1.3-0.7-2.2-0.9c-0.9-0.3-1.7-0.5-2.6-0.8c-0.9-0.3-1.6-0.7-2.2-1.4
						c-0.6-0.7-0.9-1.5-0.9-2.6c0-1.4,0.5-2.5,1.6-3.4s2.4-1.3,4-1.3c1.3,0,2.4,0.3,3.4,0.9c1,0.6,1.7,1.4,2.2,2.4l-2.3,1.3
						c-0.6-1.3-1.7-2-3.4-2c-0.8,0-1.4,0.2-2,0.5C192.6,224.3,192.3,224.8,192.3,225.4z"/>
				</g>
				<g class="st1">
					<path class="st2" d="M206.7,230.3c0.3,1.4,0.9,2.5,1.9,3.3c1,0.8,2.3,1.2,3.7,1.2c2.1,0,3.6-0.8,4.5-2.3l2.3,1.3
						c-1.5,2.4-3.8,3.5-6.9,3.5c-2.5,0-4.5-0.8-6.1-2.3s-2.3-3.5-2.3-5.9c0-2.4,0.8-4.3,2.3-5.9c1.5-1.6,3.5-2.4,5.9-2.4
						c2.3,0,4.2,0.8,5.6,2.4s2.2,3.6,2.2,5.8c0,0.4,0,0.8-0.1,1.2H206.7z M212.2,223.4c-1.5,0-2.7,0.4-3.6,1.2
						c-1,0.8-1.6,1.9-1.8,3.3h10.5c-0.2-1.5-0.8-2.6-1.8-3.4C214.5,223.8,213.4,223.4,212.2,223.4z"/>
					<path class="st2" d="M251.2,221.2h2.6l-4.6,15.7h-2.8l-3.7-11.8l-3.7,11.8h-2.9l-4.6-15.7h2.9l3.4,11.9l3.7-11.9h2.7l3.7,11.9
						L251.2,221.2z"/>
					<path class="st2" d="M259.2,218.4c-0.5,0-1-0.2-1.3-0.5s-0.5-0.8-0.5-1.3s0.2-0.9,0.5-1.3c0.4-0.4,0.8-0.5,1.3-0.5
						c0.5,0,0.9,0.2,1.3,0.5c0.4,0.4,0.5,0.8,0.5,1.3s-0.2,0.9-0.5,1.3S259.7,218.4,259.2,218.4z M257.8,236.9v-15.7h2.7v15.7H257.8
						z"/>
					<path class="st2" d="M273.4,220.8c1.8,0,3.3,0.6,4.4,1.7c1.1,1.2,1.7,2.7,1.7,4.7v9.6h-2.7v-9.5c0-1.3-0.3-2.3-1-3
						c-0.7-0.7-1.6-1-2.9-1c-1.4,0-2.5,0.4-3.3,1.3s-1.3,2.1-1.3,3.9v8.3h-2.7v-15.7h2.7v2.3C269.5,221.7,271.2,220.8,273.4,220.8z"
						/>
				</g>
				<g class="st1">
					<path class="st2" d="M297.4,215h2.7v22h-2.7v-2.7c-1.4,2.1-3.3,3.1-5.9,3.1c-2.2,0-4.1-0.8-5.6-2.4c-1.5-1.6-2.3-3.5-2.3-5.8
						s0.8-4.2,2.3-5.8c1.5-1.6,3.4-2.4,5.6-2.4c2.6,0,4.6,1,5.9,3.1V215z M291.8,234.7c1.6,0,2.9-0.5,4-1.6c1.1-1.1,1.6-2.4,1.6-4
						s-0.5-2.9-1.6-4c-1.1-1.1-2.4-1.6-4-1.6c-1.6,0-2.9,0.5-4,1.6c-1.1,1.1-1.6,2.4-1.6,4s0.5,2.9,1.6,4
						C288.9,234.1,290.2,234.7,291.8,234.7z"/>
				</g>
				<g class="st1">
					<path class="st2" d="M307.5,225.4c0,0.6,0.3,1.1,0.9,1.4c0.6,0.4,1.3,0.7,2.2,0.9c0.9,0.3,1.7,0.5,2.6,0.8
						c0.9,0.3,1.6,0.7,2.2,1.4c0.6,0.7,0.9,1.6,0.9,2.7c0,1.4-0.5,2.6-1.6,3.4s-2.5,1.3-4.2,1.3c-1.5,0-2.8-0.3-3.9-1
						s-1.9-1.6-2.3-2.7l2.4-1.3c0.3,0.8,0.7,1.3,1.4,1.8c0.7,0.4,1.5,0.7,2.5,0.7c0.9,0,1.6-0.2,2.2-0.5c0.6-0.3,0.9-0.9,0.9-1.6
						c0-0.6-0.3-1.1-0.9-1.5c-0.6-0.4-1.3-0.7-2.2-0.9c-0.9-0.3-1.7-0.5-2.6-0.8c-0.9-0.3-1.6-0.7-2.2-1.4c-0.6-0.7-0.9-1.5-0.9-2.6
						c0-1.4,0.5-2.5,1.6-3.4s2.4-1.3,4-1.3c1.3,0,2.4,0.3,3.4,0.9c1,0.6,1.7,1.4,2.2,2.4l-2.3,1.3c-0.6-1.3-1.7-2-3.4-2
						c-0.8,0-1.4,0.2-2,0.5C307.8,224.3,307.5,224.8,307.5,225.4z"/>
					<path class="st2" d="M322.1,237.3c-0.6,0-1-0.2-1.4-0.6c-0.4-0.4-0.6-0.9-0.6-1.4s0.2-1,0.6-1.4c0.4-0.4,0.9-0.6,1.4-0.6
						c0.6,0,1.1,0.2,1.5,0.6s0.6,0.9,0.6,1.4s-0.2,1-0.6,1.4C323.2,237.1,322.7,237.3,322.1,237.3z M321.1,230.5l-0.6-9.3V215h3.3
						v6.3l-0.6,9.3H321.1z"/>
				</g>
				<path class="st2" d="M423,97.6c0,0,59.4-25.3,55.3-86.4c-0.2-3.3-4.2-4.7-6.5-2.3c-8.5,9.4-23.3,26.5-47.3,30.7"/>
			</g>
			<g>
				<circle class="st3" cx="210.3" cy="53.6" r="26.4"/>
				<g class="st1">
					<path class="st2" d="M212.2,63.5c-0.5,0.5-1.2,0.8-1.9,0.8c-0.7,0-1.4-0.3-1.9-0.8c-0.5-0.5-0.8-1.1-0.8-1.9
						c0-0.7,0.3-1.4,0.8-1.9c0.5-0.5,1.1-0.8,1.9-0.8c0.7,0,1.4,0.3,1.9,0.8c0.5,0.5,0.8,1.2,0.8,1.9C213,62.3,212.7,63,212.2,63.5z
						 M208.7,56.5l-0.8-8.3v-6.3h4.9v6.3l-0.8,8.3H208.7z"/>
				</g>
			</g>
		</g>
	</g>
</g>
</svg>
