<?xml version="1.0" encoding="utf-8"?>
<!-- Generator: Adobe Illustrator 26.3.1, SVG Export Plug-In . SVG Version: 6.00 Build 0)  -->
<svg version="1.1" id="Layer_1" xmlns="http://www.w3.org/2000/svg" xmlns:xlink="http://www.w3.org/1999/xlink" x="0px" y="0px"
	 viewBox="0 0 1923.1 1080.9" style="enable-background:new 0 0 1923.1 1080.9;" xml:space="preserve">
<style type="text/css">
	.st0{fill:#323244;}
	.st1{opacity:0.2;}
	.st2{fill:#FBEDD5;}
	.st3{opacity:0.2;enable-background:new    ;}
	.st4{fill:#E9A72D;}
	.st5{enable-background:new    ;}
	.st6{fill:none;stroke:#FFFFFF;stroke-miterlimit:10;}
	.st7{fill:none;stroke:#FFFFFF;stroke-width:6;stroke-miterlimit:10;}
	.st8{fill:#FFFFFF;}
	.st9{fill:#FF6D00;}
	.st10{fill:#D6B48B;}
	.st11{fill:#BC9871;}
	.st12{fill:#32373A;}
	.st13{fill:#CFD0D1;}
	.st14{fill:#4E5051;}
	.st15{fill:#DB5C05;}
	.st16{fill:none;stroke:#000000;stroke-width:4;stroke-miterlimit:10;}
	.st17{fill:#3B3C3D;}
	.st18{fill:none;stroke:#BC9871;stroke-width:2;stroke-linecap:round;stroke-linejoin:round;}
</style>
<g>
	<g id="a">
	</g>
	<g id="b">
		<g id="c">
			<rect x="2.4" width="1920" height="1080"/>
			<path class="st0" d="M1772.8,959.4H172.2c-25.4,0-46-20.6-46-46V207.1h1646.5c24.1,0,43.6,19.5,43.6,43.6v665
				C1816.4,939.8,1796.8,959.4,1772.8,959.4z"/>
			<g>
				<g class="st1">
					<path class="st2" d="M227.7,36.2c15.3,0,27.8,12.4,27.8,27.8v67.1c0,15.3-12.4,27.8-27.8,27.8H60.2
						c-15.3,0-27.8-12.4-27.8-27.8V64c0-15.3,12.4-27.8,27.8-27.8L227.7,36.2 M227.7,19.2H60.2c-24.7,0-44.8,20.1-44.8,44.8v67.1
						c0,24.7,20.1,44.8,44.8,44.8h167.4c24.7,0,44.8-20.1,44.8-44.8V64C272.4,39.3,252.4,19.2,227.7,19.2L227.7,19.2z"/>
				</g>
				<path class="st3" d="M52.7,55.2H216c11.2,0,20.2,9.1,20.2,20.2v62c0,11.2-9.1,20.2-20.2,20.2H52.7c-11.2,0-20.2-9.1-20.2-20.2
					v-62C32.5,64.3,41.5,55.2,52.7,55.2z"/>
				<path class="st4" d="M61.6,46.3h166.9c11.2,0,20.2,9.1,20.2,20.2v62c0,11.2-9.1,20.2-20.2,20.2H61.6c-11.2,0-20.2-9.1-20.2-20.2
					v-62C41.4,55.3,50.4,46.3,61.6,46.3z"/>
				<g class="st5">
					<path d="M75.9,108.7l1.1-0.1c0.1,0.4,0.2,0.8,0.4,1.1s0.5,0.5,0.9,0.7s0.8,0.3,1.3,0.3c0.4,0,0.8-0.1,1.1-0.2s0.6-0.3,0.7-0.5
						s0.2-0.5,0.2-0.7c0-0.3-0.1-0.5-0.2-0.7s-0.4-0.4-0.8-0.5c-0.2-0.1-0.7-0.2-1.5-0.4s-1.3-0.4-1.7-0.5c-0.4-0.2-0.7-0.5-0.9-0.8
						s-0.3-0.7-0.3-1.1c0-0.4,0.1-0.8,0.4-1.2s0.6-0.7,1.1-0.9s1-0.3,1.6-0.3c0.6,0,1.2,0.1,1.7,0.3s0.9,0.5,1.1,0.9
						s0.4,0.8,0.4,1.4l-1.1,0.1c-0.1-0.5-0.3-1-0.6-1.2s-0.8-0.4-1.5-0.4c-0.7,0-1.2,0.1-1.5,0.4s-0.5,0.6-0.5,0.9
						c0,0.3,0.1,0.6,0.3,0.8c0.2,0.2,0.8,0.4,1.7,0.6s1.6,0.4,1.9,0.5c0.5,0.2,0.9,0.5,1.1,0.9s0.4,0.8,0.4,1.2
						c0,0.5-0.1,0.9-0.4,1.3s-0.6,0.7-1.1,0.9s-1,0.3-1.7,0.3c-0.8,0-1.4-0.1-2-0.3s-0.9-0.6-1.2-1S75.9,109.3,75.9,108.7z"/>
				</g>
				<g class="st5">
					<path d="M104,111.5v-8.6h6.2v1h-5.1v2.6h4.8v1h-4.8v2.9h5.3v1H104z"/>
					<path d="M113.1,111.5v-8.6h3.2c0.7,0,1.2,0.1,1.6,0.3s0.7,0.4,0.9,0.8s0.3,0.7,0.3,1.1c0,0.4-0.1,0.7-0.3,1s-0.5,0.6-0.9,0.8
						c0.5,0.2,0.9,0.4,1.2,0.8s0.4,0.8,0.4,1.3c0,0.4-0.1,0.8-0.3,1.1s-0.4,0.6-0.6,0.8s-0.6,0.3-0.9,0.4s-0.8,0.1-1.4,0.1H113.1z
						 M114.2,106.5h1.9c0.5,0,0.9,0,1.1-0.1c0.3-0.1,0.5-0.2,0.7-0.4s0.2-0.4,0.2-0.8c0-0.3-0.1-0.5-0.2-0.8s-0.3-0.4-0.6-0.4
						s-0.7-0.1-1.3-0.1h-1.7V106.5z M114.2,110.5h2.1c0.4,0,0.6,0,0.8,0c0.3,0,0.5-0.1,0.7-0.2s0.3-0.3,0.4-0.5s0.2-0.5,0.2-0.7
						c0-0.3-0.1-0.6-0.2-0.8s-0.4-0.4-0.7-0.5s-0.7-0.1-1.3-0.1h-2V110.5z"/>
				</g>
				<g class="st5">
					<path d="M159.6,106.8c-0.4-0.2-0.8-0.4-1-0.7s-0.3-0.7-0.3-1.1c0-0.6,0.2-1.2,0.7-1.6s1-0.6,1.8-0.6c0.8,0,1.4,0.2,1.8,0.7
						s0.7,1,0.7,1.6c0,0.4-0.1,0.7-0.3,1s-0.5,0.5-1,0.7c0.5,0.2,0.9,0.4,1.2,0.8s0.4,0.8,0.4,1.4c0,0.7-0.3,1.4-0.8,1.9
						s-1.2,0.8-2.1,0.8s-1.5-0.3-2.1-0.8s-0.8-1.1-0.8-1.9c0-0.6,0.1-1,0.4-1.4S159.1,107,159.6,106.8z M159.1,109
						c0,0.3,0.1,0.6,0.2,0.9s0.4,0.5,0.6,0.7s0.6,0.2,0.9,0.2c0.5,0,0.9-0.2,1.2-0.5s0.5-0.7,0.5-1.2c0-0.5-0.2-0.9-0.5-1.3
						s-0.8-0.5-1.3-0.5c-0.5,0-0.9,0.2-1.2,0.5S159.1,108.5,159.1,109z M159.4,105c0,0.4,0.1,0.7,0.4,1s0.6,0.4,1,0.4
						c0.4,0,0.7-0.1,1-0.4s0.4-0.6,0.4-0.9c0-0.4-0.1-0.7-0.4-1s-0.6-0.4-1-0.4c-0.4,0-0.7,0.1-1,0.4S159.4,104.7,159.4,105z"/>
				</g>
				<g class="st5">
					<path d="M189.5,111.5v-2.1h-3.7v-1l3.9-5.6h0.9v5.6h1.2v1h-1.2v2.1H189.5z M189.5,108.5v-3.9l-2.7,3.9H189.5z"/>
				</g>
			</g>
			<g>
				<g>
					<line class="st6" x1="962.4" y1="0" x2="962.4" y2="83.3"/>
					<line class="st6" x1="962.4" y1="997.7" x2="962.4" y2="1080.9"/>
				</g>
				<line class="st6" x1="0" y1="540.5" x2="83.3" y2="540.5"/>
				<line class="st6" x1="1839.8" y1="540.5" x2="1923.1" y2="540.5"/>
			</g>
			<g class="st1">
				<path class="st2" d="M1866.3,36.2c12.7,0,23,10.3,23,23v76.7c0,12.7-10.3,23-23,23h-69.5c-12.7,0-23-10.3-23-23V59.2
					c0-12.7,10.3-23,23-23H1866.3 M1866.3,19.2h-69.5c-22,0-40,17.9-40,40v76.7c0,22,17.9,40,40,40h69.5c22,0,40-17.9,40-40V59.2
					C1906.3,37.1,1888.4,19.2,1866.3,19.2L1866.3,19.2z"/>
			</g>
			<path class="st7" d="M1663.2,83.3h136.9c24.1,0,43.6,19.5,43.6,43.6v835.3c0,24.1-19.5,43.6-43.6,43.6H124.7
				c-24.1,0-43.6-19.5-43.6-43.6V126.8c0-24.1,19.5-43.6,43.6-43.6h1064"/>
			<g>
				<g class="st1">
					<path class="st2" d="M227.7,36.2c15.3,0,27.8,12.4,27.8,27.8v67.1c0,15.3-12.4,27.8-27.8,27.8H60.2
						c-15.3,0-27.8-12.4-27.8-27.8V64c0-15.3,12.4-27.8,27.8-27.8L227.7,36.2 M227.7,19.2H60.2c-24.7,0-44.8,20.1-44.8,44.8v67.1
						c0,24.7,20.1,44.8,44.8,44.8h167.4c24.7,0,44.8-20.1,44.8-44.8V64C272.4,39.3,252.4,19.2,227.7,19.2L227.7,19.2z"/>
				</g>
				<path class="st3" d="M52.7,55.2H216c11.2,0,20.2,9.1,20.2,20.2v62c0,11.2-9.1,20.2-20.2,20.2H52.7c-11.2,0-20.2-9.1-20.2-20.2
					v-62C32.5,64.3,41.5,55.2,52.7,55.2z"/>
				<path class="st4" d="M61.6,46.3h166.9c11.2,0,20.2,9.1,20.2,20.2v62c0,11.2-9.1,20.2-20.2,20.2H61.6c-11.2,0-20.2-9.1-20.2-20.2
					v-62C41.4,55.3,50.4,46.3,61.6,46.3z"/>
			</g>
			<g class="st5">
				<path class="st8" d="M1242.9,97.5l-2.3-8.6h1.2l1.3,5.6c0.1,0.6,0.3,1.2,0.4,1.8c0.2-0.9,0.3-1.4,0.4-1.6l1.6-5.8h1.4l1.2,4.3
					c0.3,1.1,0.5,2.1,0.7,3c0.1-0.5,0.3-1.2,0.4-1.9l1.3-5.5h1.1l-2.4,8.6h-1.1l-1.8-6.5c-0.2-0.5-0.2-0.9-0.3-1
					c-0.1,0.4-0.2,0.7-0.3,1l-1.8,6.5H1242.9z"/>
			</g>
			<g class="st5">
				<path class="st8" d="M1286.3,97.5v-8.6h6.2v1h-5.1v2.6h4.8v1h-4.8v2.9h5.3v1H1286.3z"/>
			</g>
			<g class="st5">
				<path class="st8" d="M1311.5,97.5l3.3-8.6h1.2l3.5,8.6h-1.3l-1-2.6h-3.6l-0.9,2.6H1311.5z M1314,94h2.9l-0.9-2.4
					c-0.3-0.7-0.5-1.3-0.6-1.8c-0.1,0.6-0.3,1.1-0.5,1.6L1314,94z"/>
			</g>
			<g class="st5">
				<path class="st8" d="M1343.9,97.5V90h-2.8v-1h6.8v1h-2.8v7.6H1343.9z"/>
				<path class="st8" d="M1350.3,97.5v-8.6h1.1v3.5h4.5v-3.5h1.1v8.6h-1.1v-4h-4.5v4H1350.3z"/>
				<path class="st8" d="M1360.1,97.5v-8.6h6.2v1h-5.1v2.6h4.8v1h-4.8v2.9h5.3v1H1360.1z"/>
				<path class="st8" d="M1369.3,97.5v-8.6h3.8c0.8,0,1.3,0.1,1.7,0.2s0.7,0.4,1,0.8s0.4,0.8,0.4,1.3c0,0.6-0.2,1.1-0.6,1.5
					s-1,0.7-1.8,0.8c0.3,0.1,0.5,0.3,0.7,0.4c0.3,0.3,0.6,0.7,0.9,1.1l1.5,2.3h-1.4l-1.1-1.8c-0.3-0.5-0.6-0.9-0.8-1.2
					s-0.4-0.5-0.6-0.6s-0.3-0.2-0.5-0.2c-0.1,0-0.3,0-0.6,0h-1.3v3.8H1369.3z M1370.5,92.7h2.4c0.5,0,0.9-0.1,1.2-0.2
					s0.5-0.3,0.7-0.5s0.2-0.5,0.2-0.8c0-0.4-0.1-0.7-0.4-1s-0.8-0.4-1.4-0.4h-2.7V92.7z"/>
			</g>
			<g class="st5">
				<path class="st8" d="M1474.3,94.5l1.1,0.3c-0.2,0.9-0.7,1.6-1.3,2.1s-1.4,0.7-2.3,0.7c-0.9,0-1.7-0.2-2.3-0.6s-1-0.9-1.3-1.6
					s-0.5-1.5-0.5-2.3c0-0.9,0.2-1.7,0.5-2.3s0.8-1.2,1.5-1.5s1.3-0.5,2.1-0.5c0.9,0,1.6,0.2,2.2,0.7s1,1.1,1.2,1.8l-1.1,0.3
					c-0.2-0.6-0.5-1.1-0.9-1.4s-0.9-0.4-1.4-0.4c-0.7,0-1.2,0.2-1.7,0.5s-0.8,0.7-0.9,1.3s-0.3,1.1-0.3,1.6c0,0.7,0.1,1.4,0.3,1.9
					s0.5,1,1,1.2s0.9,0.4,1.5,0.4c0.6,0,1.2-0.2,1.6-0.6S1474.2,95.2,1474.3,94.5z"/>
			</g>
			<g class="st5">
				<path class="st8" d="M1501.6,97.5v-8.6h1.1v3.5h4.5v-3.5h1.1v8.6h-1.1v-4h-4.5v4H1501.6z"/>
			</g>
			<g class="st5">
				<path class="st8" d="M1532.8,97.5v-8.6h6.2v1h-5.1v2.6h4.8v1h-4.8v2.9h5.3v1H1532.8z"/>
			</g>
			<g class="st5">
				<path class="st8" d="M1564.5,94.5l1.1,0.3c-0.2,0.9-0.7,1.6-1.3,2.1s-1.4,0.7-2.3,0.7c-0.9,0-1.7-0.2-2.3-0.6s-1-0.9-1.3-1.6
					s-0.5-1.5-0.5-2.3c0-0.9,0.2-1.7,0.5-2.3s0.8-1.2,1.5-1.5s1.3-0.5,2.1-0.5c0.9,0,1.6,0.2,2.2,0.7s1,1.1,1.2,1.8l-1.1,0.3
					c-0.2-0.6-0.5-1.1-0.9-1.4s-0.9-0.4-1.4-0.4c-0.7,0-1.2,0.2-1.7,0.5s-0.8,0.7-0.9,1.3s-0.3,1.1-0.3,1.6c0,0.7,0.1,1.4,0.3,1.9
					s0.5,1,1,1.2s0.9,0.4,1.5,0.4c0.6,0,1.2-0.2,1.6-0.6S1564.3,95.2,1564.5,94.5z"/>
			</g>
			<g class="st5">
				<path class="st8" d="M1591.7,97.5v-8.6h1.1v4.3l4.3-4.3h1.5l-3.6,3.5l3.8,5.1h-1.5l-3.1-4.3l-1.4,1.4v3H1591.7z"/>
			</g>
			<line class="st7" x1="1663.2" y1="46.3" x2="1663.2" y2="125.3"/>
			<line class="st7" x1="1188.7" y1="46.3" x2="1188.7" y2="125.3"/>
			<circle class="st8" cx="51" cy="1019.9" r="6.8"/>
			<circle class="st8" cx="1882.5" cy="1019.9" r="6.8"/>
			<path class="st3" d="M1794.1,55.2h61.2c11.2,0,20.2,9.1,20.2,20.2v62c0,11.2-9.1,20.2-20.2,20.2h-61.2
				c-11.2,0-20.2-9.1-20.2-20.2v-62C1773.9,64.3,1782.9,55.2,1794.1,55.2z"/>
			<path class="st4" d="M1801.3,46.3h61.2c11.2,0,20.2,9.1,20.2,20.2v62c0,11.2-9.1,20.2-20.2,20.2h-61.2
				c-11.2,0-20.2-9.1-20.2-20.2v-62C1781.1,55.3,1790.2,46.3,1801.3,46.3z"/>
			<path d="M1859.1,90.3c-0.3,0.8-1.1,1.4-2,1.4h-4.2V119c0,3.5-2.8,6.3-6.3,6.3h-6.3c-1.2,0-2.1-0.9-2.1-2.1v-12.6
				c0-3.5-2.8-6.3-6.3-6.3s-6.3,2.8-6.3,6.3v12.6c0,1.2-0.9,2.1-2.1,2.1h-6.3c-3.5,0-6.3-2.8-6.3-6.3V91.7h-4.2
				c-0.9,0-1.7-0.6-2-1.4c-0.3-0.8-0.1-1.8,0.6-2.3l25.2-21c0.8-0.7,1.9-0.7,2.7,0l25.2,21C1859.2,88.5,1859.4,89.4,1859.1,90.3
				L1859.1,90.3z"/>
			<g>
				<circle class="st8" cx="1683.2" cy="65.7" r="3.4"/>
				<circle class="st8" cx="1683.2" cy="105.9" r="3.4"/>
			</g>
			<g>
				<circle class="st8" cx="1165.9" cy="65.7" r="3.4"/>
				<circle class="st8" cx="1165.9" cy="105.9" r="3.4"/>
			</g>
			<g>
				<circle class="st8" cx="1683.2" cy="65.7" r="3.4"/>
				<circle class="st8" cx="1683.2" cy="105.9" r="3.4"/>
			</g>
			<g>
				<circle class="st8" cx="1165.9" cy="65.7" r="3.4"/>
				<circle class="st8" cx="1165.9" cy="105.9" r="3.4"/>
			</g>
			<g>
				<polygon class="st9" points="1740.2,599.2 1594.3,602.5 1594.6,572.1 1740.5,568.5 				"/>
				<polygon points="1627,222.9 1627.4,231.9 1707.4,231.2 1707.2,220.4 1665.8,213.2 				"/>
				<path class="st10" d="M1700.9,230.2c0,0,1.9-2.1,5.5-1.5c5.1,0.8,0.7,14.4,0.7,14.4s0.6,6.6-2.3,7.7s-5.5-6.8-5.5-6.8
					L1700.9,230.2L1700.9,230.2z"/>
				<path class="st10" d="M1633,230.2c0,0-1.9-2.1-5.5-1.5c-5.1,0.8-0.7,14.4-0.7,14.4s-0.6,6.6,2.3,7.7s5.5-6.8,5.5-6.8L1633,230.2
					L1633,230.2z"/>
				<rect x="1643.7" y="273.3" class="st11" width="48" height="39.4"/>
				<polygon class="st9" points="1673.1,877.9 1732.9,881.2 1741.9,594 1668.4,594 				"/>
				<path class="st12" d="M1727.8,893.9c0,0,6.7-7.5,7.4-13c0.8-5.5,1.4-104,1.4-104l-65.4,0.4c0,0,0.5,100,1.6,104.4
					c1,4.4,7.4,10.2,7.4,10.2L1727.8,893.9L1727.8,893.9z"/>
				<polygon class="st13" points="1736.4,813.7 1736.3,841 1671.7,840.9 1671.5,813.6 				"/>
				<polygon class="st13" points="1739.1,691.7 1738,720.8 1670.5,720.4 1669.9,691.3 				"/>
				<path d="M1729.7,891.5c0,0-1.4,21.6-4.1,45.4c-2.6,23.8-42.7,18.7-43.8,2.8c-1.2-15.9-3.4-49.2-3.4-49.2L1729.7,891.5z"/>
				<path d="M1732.5,974.6h-56.7v-27.4c0-15,12.2-27.2,27.2-27.2h2.3c15,0,27.2,12.2,27.2,27.2L1732.5,974.6L1732.5,974.6
					L1732.5,974.6z"/>
				<path class="st10" d="M1746.1,598.1c0,0-0.4,14.8-0.3,26.2s1.7,20.5,3,22.4s5.3,4.6,6.7-1.3c1.4-6-1-24.5,2-16.9s1,21.1,1,21.1
					s-0.9,8.5-3.1,12.6c-2.2,4.1-0.2,9,4.1,6.1s14.4-17.7,16.9-35.1c2.5-17.4-6.7-39.1-6.7-39.1L1746.1,598.1L1746.1,598.1z"/>
				<path class="st10" d="M1589.6,598.1c0,0,0.4,14.8,0.3,26.2s-1.7,20.5-3,22.4s-5.3,4.6-6.7-1.3c-1.4-6,1-24.5-2-16.9
					s-1,21.1-1,21.1s0.9,8.5,3.1,12.6c2.2,4.1,0.2,9-4.1,6.1s-14.4-17.7-16.9-35.1c-2.5-17.4,6.7-39.1,6.7-39.1L1589.6,598.1
					L1589.6,598.1z"/>
				<path class="st14" d="M1740.2,580.5l-149.9,0.4l5.8-87.4l-2.6-126.1c0-35.3,1.3-62.5,42.1-62.5l61.3,0.5
					c49.4,1.8,40.5,26.7,40.5,62.1l-2.5,126.1L1740.2,580.5L1740.2,580.5z"/>
				<path class="st14" d="M1776.3,602.3L1739,602c0,0-0.7-116.9-1.4-133c-0.4-8.8-0.3-63.1-7.5-104.7c-6.8-39.2-22.8-58-22.8-58
					l24.5,2.8c28.1,3.2,49.4,27,49.4,55.4l-1.3,118.5L1776.3,602.3L1776.3,602.3z"/>
				<path class="st14" d="M1634.3,307l-1.3-22.2c0,0,24.7,5.8,35.5,5.8s31.9-4.8,31.9-4.8l0.4,21.3l-36,5.8L1634.3,307L1634.3,307z"
					/>
				<polygon class="st9" points="1662.8,879.3 1602.9,882.7 1593.9,595.4 1667.5,595.4 				"/>
				<path class="st14" d="M1556.6,602l37.2-0.6c0,0-0.2-116.3,0.4-132.5c0.4-8.8,0.3-63.1,7.5-104.7c6.8-39.2,23.2-58.6,23.2-58.6
					l-24.9,3.4c-28.1,3.2-49.4,27-49.4,55.4l1.3,118.5L1556.6,602L1556.6,602z"/>
				<path class="st12" d="M1608.1,895.4c0,0-6.7-7.5-7.4-13c-0.8-5.5-1.4-104-1.4-104l65.4,0.4c0,0-0.5,100-1.6,104.4
					c-1,4.4-7.4,10.2-7.4,10.2L1608.1,895.4L1608.1,895.4z"/>
				<polygon class="st13" points="1599.5,815.2 1599.6,842.5 1664.2,842.4 1664.4,815 				"/>
				<polygon class="st13" points="1596.8,693.2 1597.9,722.3 1665.4,721.9 1665.9,692.8 				"/>
				<path class="st15" d="M1622.8,615.2l-29.2,63.2c0,0,2.2,1.9,8.2,2.5s23.8-3.1,23.8-3.1l0.4-61.8L1622.8,615.2L1622.8,615.2z"/>
				<path class="st9" d="M1585,616l4.1,61.4c0,0,2.2,1.9,8.2,2.5s25-3.5,25-3.5l0.6-62L1585,616L1585,616z"/>
				<path d="M1606.2,893c0,0,1.4,21.6,4.1,45.4c2.6,23.8,42.7,18.7,43.8,2.8c1.2-15.9,3.4-49.2,3.4-49.2L1606.2,893z"/>
				<path d="M1630.6,921.5h2.3c15,0,27.2,12.2,27.2,27.2v27.4h-56.7v-27.4C1603.4,933.7,1615.6,921.5,1630.6,921.5L1630.6,921.5z"/>
				<line class="st16" x1="1667.3" y1="290.8" x2="1668.1" y2="580.4"/>
				<path class="st17" d="M1684.9,504l0.6,49.3l40.7,5.5l0.9-6.6l-5.2-9.4l-34.6-40.7C1687.3,502.1,1684.9,504.6,1684.9,504
					L1684.9,504z"/>
				<path class="st14" d="M1686.3,499.4l0.6,49.3l40.7,5.5v-48.4C1727.6,505.8,1686.3,500,1686.3,499.4L1686.3,499.4z"/>
				<path class="st17" d="M1651.5,503.2l-0.6,49.3l-40.7,5.5l-0.9-6.6l5.2-9.4l34.6-40.7C1649,501.4,1651.5,503.9,1651.5,503.2
					L1651.5,503.2z"/>
				<path class="st14" d="M1650,498.6l-0.6,49.3l-40.7,5.5v-48.4C1608.7,505.1,1650,499.3,1650,498.6L1650,498.6z"/>
				<ellipse class="st10" cx="1667" cy="237.1" rx="36.3" ry="49.9"/>
				<path class="st18" d="M1665.2,234.9c0,0-5.2,17-3.6,21.1c1.7,4.1,9.8,0,9.8,0"/>
				<ellipse cx="1650.9" cy="233.6" rx="2.2" ry="3.6"/>
				<ellipse cx="1682.6" cy="233.5" rx="2.2" ry="3.6"/>
				<path class="st16" d="M1638.6,228.2c0,0,7.6-5.4,19.2-5"/>
				<path class="st16" d="M1694.1,223.2c0,0-7.6-5.4-19.2-5"/>
				<path class="st18" d="M1674.6,265.1c0,0-8.2-4.4-14.5,0.8"/>
				<path d="M1666.4,177.1c-19.7-1.3-31.6,13.8-34.7,20c-3.1,6.2-5.6,20.7-4.7,26.5c0.9,5.8,48.3-17.3,51.9-24.6
					c8.5,19.8,24.6,24.3,24.6,24.3l3.8-1.6c0,0,0.7-24.6-10.6-32.4c-8.3-5.8-9.9-3.5-12.8-5.3C1679,181,1676.3,177.8,1666.4,177.1
					L1666.4,177.1z"/>
				<path class="st9" d="M1707.5,225.1c0,0-8.1-14.1-40-13.5c-31.9,0.5-40.5,15.1-40.5,15.1s-2.6,0.5-2.1-10.2
					c0.1-25.6,17.5-42.3,41.6-42.3l0,0c24.1,0,42.8,16,42.6,43.5C1709.2,224.4,1707.5,225.1,1707.5,225.1L1707.5,225.1z"/>
				<path class="st15" d="M1708.6,213.1l-0.2-3.9c0,0-13.8-12-41.1-11.2c-31.1,0.7-42.4,15.1-42.4,15.1l0.3,5.6l41.5-12.7
					L1708.6,213.1L1708.6,213.1z"/>
				<path class="st9" d="M1627,226.7c0,0,18.3-14.1,40.5-15.1s40,13.5,40,13.5s0.8,0.9,2-0.2s2-8.8,1.7-10.8
					c-1.6-3.5-14.5-15.6-43.7-15.1s-43.3,15.5-43.9,17.3s-0.1,8.6,0.8,9.9S1627,226.7,1627,226.7L1627,226.7z"/>
			</g>
		</g>
	</g>
</g>
</svg>
