<?xml version="1.0" encoding="UTF-8"?><svg xmlns="http://www.w3.org/2000/svg" viewBox="0 0 578.93 598.9"><defs><style>.d{letter-spacing:.03em;}.e{stroke-width:6px;}.e,.f,.g,.h,.i{fill:none;}.e,.f,.h{stroke:#fff;}.e,.f,.h,.i{stroke-miterlimit:10;}.j{letter-spacing:.02em;}.k{letter-spacing:0em;}.l{fill:#bc1e44;}.m{fill:#cfd0d1;}.n{fill:#19192d;}.o{fill:#a3a3a3;}.f{stroke-width:5px;}.p{letter-spacing:.02em;}.g{stroke:#32325b;stroke-linecap:round;stroke-linejoin:round;}.g,.i{stroke-width:4px;}.q{opacity:.2;}.q,.r{fill:#32325b;}.s{letter-spacing:.02em;}.h{stroke-width:2px;}.i{stroke:#0f0f0f;}.t{letter-spacing:0em;}.u{letter-spacing:.02em;}.v{letter-spacing:.01em;}.w{fill:#fff;opacity:.5;}.r{opacity:.3;}.x{fill:#f9b438;font-family:Gilroy-Bold, Gilroy-Bold;font-size:32px;}</style></defs><g id="a"/><g id="b"><g id="c"><g><rect class="w" x=".92" y="2.5" width="573.93" height="593.9" rx="43.98" ry="43.98"/><path class="q" d="M361.61,119.35c-39.61-55.94-92.04-47.33-92.04-47.33-2.98-.23-7.56,3.87-7.56,3.87-8.24,5.98-12.82,4.6-12.82,4.6-9.84,.23-17.63-6.24-17.63-6.24h-15.04c-4.18,6.7-4.19,19.75-4.19,19.75,0,15.11,5.95,16.48,5.95,16.48h14.28l-.02-.09c3.33-.53,5.43-3.58,5.43-3.58,15.34-10.76,29.08,.46,29.08,.46,8.93,8.24,9.39,17.17,9.39,17.17v87.67c-1.09,8.76-2.04,18.47-2.86,28.75v.11c-5.6,70.02-5.31,141.07-5.31,141.07,.31,37.05-7.94,51.73-7.94,51.73-3.77,4.95,1.83,8.22,1.83,8.22,24.73,6.81,39.47,1.91,39.47,1.91,10.09-3.87,9.07-8.27,9.07-8.27,.92-4.29-3.05-18.68-3.05-18.68-3.05-65.52,.61-95.95,.61-95.95,1.13-26.34-1.63-58.88-3.93-80.07,0-.02,0-.04,0-.06-1.44-13.26-2.69-22.06-2.69-22.06V124.44c0-19.92,8.93-21.06,8.93-21.06,18.32-3.21,39.61,24.73,39.61,24.73l8.24,9.62c3.21,4.58,7.78,2.52,7.78,2.52l-1.15-2.75,2.98,1.37c2.98-8.7-6.41-19.52-6.41-19.52Z"/><g><path class="m" d="M361.61,100.42c-39.61-55.94-92.04-47.33-92.04-47.33-2.98-.23-7.56,3.87-7.56,3.87-8.24,5.98-12.82,4.6-12.82,4.6-9.84,.23-17.63-6.24-17.63-6.24h-15.04c-4.18,6.7-4.19,19.75-4.19,19.75,0,15.11,5.95,16.48,5.95,16.48h13.28c3.89,0,6.41-3.66,6.41-3.66,15.34-10.76,29.08,.46,29.08,.46,8.93,8.24,9.39,17.17,9.39,17.17v87.67c-1.09,8.76-2.04,18.47-2.86,28.75h30.74c-1.44-13.26-2.69-22.06-2.69-22.06V105.52c0-19.92,8.93-21.06,8.93-21.06,18.32-3.21,39.61,24.73,39.61,24.73l8.24,9.62c3.2,4.58,7.78,2.52,7.78,2.52l-1.14-2.75,2.98,1.37c2.98-8.7-6.41-19.52-6.41-19.52Z"/><path class="r" d="M216.52,55.32c-3.95,29.14,1.76,36.23,1.76,36.23h14.28s-5.12-18.12-1-36.23h-15.04Z"/><path class="g" d="M237.74,66.74c21.98,3.82,30.68-9.78,30.68-9.78"/><path class="g" d="M245.99,71.86c25.41-2.98,40.2,15.33,40.2,15.33"/><path class="l" d="M273.57,222.05c-5.59,70.02-5.31,141.07-5.31,141.07,.31,37.05-7.94,51.73-7.94,51.73-3.77,4.95,1.83,8.22,1.83,8.22,24.73,6.81,39.47,1.91,39.47,1.91,10.09-3.87,9.07-8.27,9.07-8.27,.92-4.29-3.05-18.68-3.05-18.68-3.05-65.52,.61-95.95,.61-95.95,1.13-26.34-1.63-58.88-3.93-80.07-8.46,.05-21.09,.1-30.75,.05Z"/><path class="o" d="M273.57,222.05c9.66,.05,22.29,0,30.75-.05v-.06h-30.74s0,.07,0,.11Z"/><line class="g" x1="294.6" y1="99.86" x2="294.6" y2="203.32"/></g><path class="i" d="M361.61,100.42c-39.61-55.94-92.04-47.33-92.04-47.33-2.98-.23-7.56,3.87-7.56,3.87-8.24,5.98-12.82,4.6-12.82,4.6-9.84,.23-17.63-6.24-17.63-6.24h-15.04c-4.18,6.7-4.19,19.75-4.19,19.75,0,15.11,5.95,16.48,5.95,16.48h14.28l-.02-.09c3.33-.53,5.43-3.58,5.43-3.58,15.34-10.76,29.08,.46,29.08,.46,8.93,8.24,9.39,17.17,9.39,17.17v87.67c-1.09,8.76-2.04,18.47-2.86,28.75v.11c-5.6,70.02-5.31,141.07-5.31,141.07,.31,37.05-7.94,51.73-7.94,51.73-3.77,4.95,1.83,8.22,1.83,8.22,24.73,6.81,39.47,1.91,39.47,1.91,10.09-3.87,9.07-8.27,9.07-8.27,.92-4.29-3.05-18.68-3.05-18.68-3.05-65.52,.61-95.95,.61-95.95,1.13-26.34-1.63-58.88-3.93-80.07,0-.02,0-.04,0-.06-1.44-13.26-2.69-22.06-2.69-22.06V105.52c0-19.92,8.93-21.06,8.93-21.06,18.32-3.21,39.61,24.73,39.61,24.73l8.24,9.62c3.21,4.58,7.78,2.52,7.78,2.52l-1.15-2.75,2.98,1.37c2.98-8.7-6.41-19.52-6.41-19.52Z"/><line class="e" x1="565.15" y1="16.14" x2="4.63" y2="461.29"/><line class="e" x1="13.81" y1="19.1" x2="574.33" y2="464.24"/><path class="n" d="M576.43,460.13v92.28c0,24.29-19.69,43.98-43.98,43.98H46.48c-24.29,0-43.98-19.69-43.98-43.98v-92.28"/><rect class="f" x="2.5" y="2.5" width="573.93" height="593.9" rx="43.98" ry="43.98"/><line class="h" x1="2.5" y1="461.29" x2="573.93" y2="461.29"/><text class="x" transform="translate(129.77 521.26)"><tspan class="j" x="0" y="0">N</tspan><tspan class="v" x="22.34" y="0">o</tspan><tspan class="j" x="41.79" y="0">t </tspan><tspan class="u" x="63.71" y="0">s</tspan><tspan class="d" x="79.23" y="0">u</tspan><tspan class="t" x="98.5" y="0">r</tspan><tspan class="d" x="110.08" y="0">e </tspan><tspan class="s" x="138.27" y="0">t</tspan><tspan class="j" x="151.14" y="0">he teddy</tspan><tspan class="p" x="-45.23" y="38.4">i</tspan><tspan class="j" x="-36.65" y="38.4">s </tspan><tspan class="s" x="-12.17" y="38.4">t</tspan><tspan class="j" x=".69" y="38.4">he right </tspan><tspan class="k" x="131.06" y="38.4">t</tspan><tspan class="j" x="143.44" y="38.4">ool </tspan><tspan class="t" x="200.56" y="38.4">f</tspan><tspan class="j" x="211.25" y="38.4">or </tspan><tspan class="s" x="252.05" y="38.4">t</tspan><tspan class="j" x="264.91" y="38.4">he job!</tspan></text></g></g></g></svg>