<?xml version="1.0" encoding="UTF-8"?><svg xmlns="http://www.w3.org/2000/svg" xmlns:xlink="http://www.w3.org/1999/xlink" viewBox="0 0 578.93 598.9"><defs><style>.e,.f,.g,.h,.i{fill:none;}.j{letter-spacing:.03em;}.k{letter-spacing:.09em;}.l{letter-spacing:.1em;}.m,.n,.o{letter-spacing:.1em;}.p{letter-spacing:.02em;}.q{letter-spacing:-.02em;}.r{fill:#32325b;}.s{fill:#19192f;}.t,.u{stroke:#0f0f0f;}.t,.u,.f,.g,.h{stroke-miterlimit:10;}.t,.v,.n{fill:#e9a72d;}.t,.g{stroke-width:2px;}.w{letter-spacing:.02em;}.u{fill:#bc1e44;stroke-width:4px;}.x{letter-spacing:.02em;}.f{stroke-width:5px;}.f,.g,.h,.i{stroke:#fff;}.y{font-size:41.84px;letter-spacing:.1em;}.y,.a`,.o,.aa{fill:#fff;}.y,.ab{font-family:Gilroy-Bold, Gilroy-Bold;}.a`{font-size:32px;}.v,.n,.o{font-size:15.59px;}.ac{letter-spacing:0em;}.ad{letter-spacing:0em;}.ae{letter-spacing:.02em;}.af{clip-path:url(#d);}.ag{letter-spacing:0em;}.ah{letter-spacing:.04em;}.ai{letter-spacing:.01em;}.aa{opacity:.5;}.i{stroke-linecap:round;stroke-linejoin:round;stroke-width:3px;}.aj{letter-spacing:.02em;}</style><clipPath id="d"><rect class="e" x="5.73" y="137.46" width="568.24" height="237.21"/></clipPath></defs><g id="a"/><g id="b"><g id="c"><g><rect class="aa" x="5.73" y="137.46" width="568.24" height="237.21"/><text class="ab" transform="translate(45.88 417.47)"><tspan class="n"><tspan x="0" y="0">GOOD FOR</tspan></tspan><tspan class="a`"><tspan class="q" x="0" y="38.4">K</tspan><tspan class="x" x="19.04" y="38.4">e</tspan><tspan class="p" x="38.3" y="38.4">eping m</tspan><tspan class="ag" x="164.19" y="38.4">o</tspan><tspan class="p" x="183.36" y="38.4">ving pa</tspan><tspan class="ah" x="300.48" y="38.4">r</tspan><tspan class="ac" x="313.12" y="38.4">t</tspan><tspan class="p" x="325.63" y="38.4">s running</tspan></tspan><tspan class="o"><tspan x="0" y="78.4"></tspan></tspan><tspan class="v"><tspan class="m" x="0" y="97.11">U</tspan><tspan class="k" x="11.74" y="97.11">S</tspan><tspan class="l" x="22.32" y="97.11">ED FOR</tspan></tspan><tspan class="a`"><tspan class="ae" x="0" y="135.51">L</tspan><tspan class="p" x="16.1" y="135.51">ubri</tspan><tspan class="ai" x="77.09" y="135.51">c</tspan><tspan class="p" x="94.66" y="135.51">a</tspan><tspan class="aj" x="115.49" y="135.51">t</tspan><tspan class="p" x="128.35" y="135.51">ing b</tspan><tspan class="x" x="206.78" y="135.51">e</tspan><tspan class="j" x="226.05" y="135.51">arin</tspan><tspan class="w" x="287.04" y="135.51">g</tspan><tspan class="j" x="307.74" y="135.51">s and g</tspan><tspan class="x" x="422.78" y="135.51">e</tspan><tspan class="j" x="442.04" y="135.51">a</tspan><tspan class="ad" x="462.88" y="135.51">r</tspan><tspan class="j" x="474.55" y="135.51">s</tspan></tspan></text><text class="y" transform="translate(240.98 94.93)"><tspan x="0" y="0">OIL</tspan></text><rect class="f" x="2.5" y="2.5" width="573.93" height="593.9" rx="43.98" ry="43.98"/><line class="h" x1="2.53" y1="483.01" x2="573.96" y2="483.01"/><line class="g" x1="2.53" y1="374.68" x2="573.96" y2="374.68"/><line class="g" x1="2.53" y1="138.49" x2="573.96" y2="138.49"/><path class="t" d="M474.72,209.18s10.94,10.22,9.16,19.56c-1.78,9.33-8.38,10.22-8.38,10.22h-1.57s-6.6-.89-8.38-10.22c-1.78-9.33,9.16-19.56,9.16-19.56"/><g class="af"><g><path class="r" d="M186.9,234.25c.64,.39,1.42,.56,2.22,.41,1.71-.31,2.83-1.95,2.52-3.66l-5.95-32.21c-.12-.64-.43-1.22-.89-1.67l-42.49-41.72c-1.24-1.22-3.23-1.2-4.44,.04-1.22,1.24-1.2,3.23,.04,4.44l41.78,41.02,5.77,31.24c.17,.91,.71,1.66,1.44,2.11Z"/><polygon class="r" points="410.42 190.33 474.61 191.55 474.72 200.05 412 203.02 249.46 237.64 246.8 225.16 410.41 190.31 410.42 190.33"/><rect class="s" x="218.3" y="198.43" width="21.77" height="74.02" rx="8.75" ry="8.75" transform="translate(46.66 508.65) rotate(-102.03)"/><rect class="s" x="173.94" y="183" width="9.43" height="45.55" rx="3.79" ry="3.79" transform="translate(222.88 474.67) rotate(-148.38)"/><path class="s" d="M51.91,219.56c-9.07,14.72-4.46,34.07,10.26,43.14,11.15,6.86,24.95,5.89,34.93-1.38,0,0,13.03-12.03,25.38-24.83,25.08-26.02,38.28-14.54,43.67-11.22l-8.77-8.58-8.5-5.24c-2.83,.64-5.94,1.88-9.32,3.72-6.15,3.36-13.37,8.78-21.44,16.12-2.91,2.65-5.71,5.34-8.33,7.95-5.37,5.36-12.82,13.57-12.73,13.47-.04-.03-.09-.06-.13-.09-7.84,8.65-21,10.79-31.29,4.45-11.61-7.15-15.24-22.41-8.09-34.02,1.55-2.51,3.47-4.65,5.66-6.39,0,0,9.27-7.62,15.92-11.99,2.02-1.33,4.17-2.66,6.4-3.92,7.12-4.04,13.71-6.65,19.58-7.78,6.96-1.33,12.89-.53,17.63,2.39l26.13,16.09c4.31-.97,7.97-.55,10.94,1.28l-2.44,3.95,9.04,5.56,3.69-6-43.67-26.89c-6.18-3.8-13.7-4.89-22.36-3.22-6.63,1.28-13.95,4.17-21.76,8.61-11.21,6.37-20.09,13.99-22.68,16.29-3,2.27-5.63,5.13-7.72,8.52Zm44.85,33.48l-.19,.21,.19-.21Zm-.25,.29l-.16,.19,.16-.19Zm-3.66,4.22l.04-.05-.04,.05Zm3.27-3.77l.14-.16-.14,.16Zm-.22,.25l.13-.15-.13,.15Zm-.22,.25l.14-.16-.14,.16Zm-.22,.25l.15-.17-.15,.17Zm-.2,.23l.15-.17-.15,.17Zm-.23,.27l.18-.21-.18,.21Zm-.19,.22l.19-.21-.19,.21Zm-.17,.2l.14-.16-.14,.16Zm-.16,.19l.1-.12-.1,.12Zm-.16,.18l.08-.09-.08,.09Zm-.16,.18l.1-.11-.1,.11Zm-.14,.16l.08-.1-.08,.1Zm-.13,.15l.06-.07-.06,.07Zm-.13,.15l.06-.07-.06,.07Zm-.12,.14l.05-.06-.05,.06Zm-.24,.28c.06-.06,.11-.13,.18-.21-.06,.07-.12,.14-.18,.21Zm-.2,.24l.02-.03-.02,.03Zm-.08,.09l.03-.03-.03,.03Zm-.06,.07h0Zm-.11,.13h0Z"/><rect class="s" x="163.71" y="188.55" width="14.94" height="72.12" rx="6.01" ry="6.01" transform="translate(-109.84 252.6) rotate(-58.38)"/><rect class="s" x="163.49" y="231.9" width="59.87" height="50.74" rx="20.4" ry="20.4" transform="translate(223.22 577.75) rotate(-148.38)"/><path class="u" d="M71.8,233.37H206.88c4.38,0,7.93,3.55,7.93,7.93v146.37c0,33.5-27.2,60.7-60.7,60.7h-29.56c-33.5,0-60.7-27.2-60.7-60.7V241.3c0-4.38,3.55-7.93,7.93-7.93Z" transform="translate(79.26 704.18) rotate(-148.38)"/><line class="i" x1="211.91" y1="351.65" x2="97.05" y2="280.91"/></g></g></g></g></g></svg>