<?xml version="1.0" encoding="UTF-8"?><svg xmlns="http://www.w3.org/2000/svg" viewBox="0 0 578.93 598.9"><defs><style>.d{letter-spacing:.03em;}.e{stroke-width:6px;}.e,.f,.g,.h,.i{stroke-miterlimit:10;}.e,.g,.h{stroke:#fff;}.e,.g,.h,.i{fill:none;}.j{letter-spacing:.02em;}.k{fill:#bc1e44;}.l{fill:#cfd0d1;}.m{fill:#19192d;}.n,.f{fill:#19192f;}.o{letter-spacing:.01em;}.f{stroke:#19192f;}.f,.h{stroke-width:2px;}.p{letter-spacing:.02em;}.g{stroke-width:5px;}.q{letter-spacing:.04em;}.r{letter-spacing:-.06em;}.s{fill:#32325b;opacity:.2;}.i{stroke:#0f0f0f;stroke-width:4px;}.t{letter-spacing:.02em;}.u{letter-spacing:0em;}.v{letter-spacing:.01em;}.w{fill:#fff;opacity:.5;}.x{letter-spacing:-.03em;}.y{letter-spacing:.02em;}.a`{fill:#f9b438;font-family:Gilroy-Bold, Gilroy-Bold;font-size:32px;}</style></defs><g id="a"/><g id="b"><g id="c"><g><rect class="w" x="3.63" y="2.5" width="573.93" height="593.9" rx="43.98" ry="43.98"/><path class="s" d="M356.69,85.05h-86.46v-2.35h-22.02v15.22h5.43v6.9h-10.31c-.71,0-1.29,.58-1.29,1.29v1.94c0,.49,.29,.91,.7,1.13l-1.2,1.21,1.42,1.44-1.42,1.44,1.42,1.44-1.42,1.44,1.42,1.44-1.42,1.44,1.3,1.32-1.3,1.32,1.42,1.44-1.42,1.44,1.42,1.44-1.42,1.44,1.42,1.44-1.42,1.44,1.42,1.44-1.42,1.44,1.42,1.44-1.42,1.44,1.42,1.44-1.42,1.44,1.42,1.44-1.42,1.44,1.3,1.32-1.3,1.32,1.42,1.44-1.42,1.44,1.42,1.44-1.42,1.44,1.42,1.44-1.42,1.44,1.39,1.41-1.39,1.41,1.42,1.44-1.42,1.44,1.42,1.44-1.42,1.44,1.42,1.44-1.42,1.44,1.3,1.32-1.3,1.32,1.42,1.44-1.42,1.44,1.42,1.44-1.42,1.44,1.42,1.44-1.42,1.44,1.42,1.44-1.42,1.44,1.42,1.44-1.42,1.44,1.42,1.44-1.42,1.44,1.42,1.44-1.42,1.44,1.3,1.32-1.3,1.32,1.42,1.44-1.42,1.44,1.42,1.44-1.42,1.44,1.42,1.44-1.42,1.44,1.26,1.27-1.26,1.27,1.42,1.44-1.42,1.44,1.42,1.44-1.42,1.44,1.42,1.44-1.42,1.44,1.3,1.32-1.3,1.32,1.42,1.44-1.42,1.44,1.42,1.44-1.42,1.44,1.42,1.44-1.42,1.44,1.42,1.44-1.42,1.44,1.42,1.44-1.42,1.44,1.42,1.44-1.42,1.44,1.42,1.44-1.42,1.44,1.3,1.32-1.3,1.32,1.42,1.44-1.42,1.44,1.42,1.44-1.42,1.44,1.42,1.44-1.42,1.44,1.39,1.41-1.39,1.41,1.42,1.44-1.42,1.44,1.42,1.44-1.42,1.44,1.42,1.44-1.42,1.44,1.3,1.32-1.3,1.32,1.42,1.44-1.42,1.44,1.42,1.44-1.42,1.44,1.42,1.44-1.42,1.44,1.42,1.44-1.42,1.44,1.42,1.44-1.42,1.44,1.42,1.44-1.42,1.44,1.42,1.44-1.42,1.44,1.3,1.32-1.3,1.32,1.42,1.44-1.42,1.44,1.42,1.44-1.42,1.44,1.42,1.44-1.42,1.44,.75,.76c-.15,.12-.25,.29-.25,.49v3.24c0,.35,.29,.64,.64,.64h10.96v2.35h-5.43v15.22h5.11c-.85,7.27-1.58,14.02-2.21,20.3h-1.87c-14.82,85.98-7.41,107.09-7.41,107.09,5.01,6.84,14.14,7.23,17.88,7.07,3.74,.16,12.87-.22,17.88-7.07,0,0,7.41-21.12-7.41-107.09h-1.87c-.63-6.27-1.36-13.02-2.21-20.3h4.14v-1.98h86.46c26.66,0,48.36-21.69,48.36-48.36V133.4c0-26.66-21.69-48.36-48.36-48.36Zm37.55,176.41c0,20.7-16.84,37.55-37.55,37.55h-86.46v-2.42h-5.43v-2.35h10.96c.35,0,.64-.29,.64-.64v-3.24c0-.35-.29-.64-.64-.64h-10.96c0-2.81-2.28-5.08-5.08-5.08h-.99c-2.81,0-5.08,2.28-5.08,5.08h-10.05l-.2-180.38h10.24c0,2.72,2.2,4.92,4.92,4.92h1.33c2.72,0,4.92-2.2,4.92-4.92h10.31c.71,0,1.29-.58,1.29-1.29v-1.94c0-.71-.58-1.29-1.29-1.29h-10.31v-6.9h5.43v-2.05h86.46c20.7,0,37.55,16.84,37.55,37.55v128.05Z"/><g><path class="l" d="M270.23,292.18v-10.81h86.46c20.7,0,37.55-16.84,37.55-37.55V115.77c0-20.7-16.84-37.55-37.55-37.55h-86.46v-10.81h86.46c26.66,0,48.36,21.69,48.36,48.36V243.82c0,26.66-21.69,48.36-48.36,48.36h-86.46Z"/><polygon class="f" points="243.39 90.86 241.53 92.74 242.95 94.18 241.53 95.62 242.95 97.05 241.53 98.49 242.95 99.93 241.53 101.36 242.83 102.68 241.53 104 242.95 105.44 241.53 106.88 242.95 108.31 241.53 109.75 242.95 111.19 241.53 112.62 242.95 114.06 241.53 115.5 242.95 116.93 241.53 118.37 242.95 119.81 241.53 121.24 242.95 122.68 241.53 124.12 242.83 125.44 241.53 126.76 242.95 128.19 241.53 129.63 242.95 131.07 241.53 132.5 242.95 133.94 241.53 135.38 242.92 136.79 241.53 138.2 242.95 139.63 241.53 141.07 242.95 142.51 241.53 143.94 242.95 145.38 241.53 146.82 242.83 148.14 241.53 149.46 242.95 150.89 241.53 152.33 242.95 153.77 241.53 155.2 242.95 156.64 241.53 158.08 242.95 159.51 241.53 160.95 242.95 162.39 241.53 163.82 242.95 165.26 241.53 166.7 242.95 168.13 241.53 169.57 242.83 170.89 241.53 172.21 242.95 173.65 241.53 175.08 242.95 176.52 241.53 177.96 242.95 179.39 241.53 180.83 242.79 182.1 241.53 183.38 242.95 184.81 241.53 186.25 242.95 187.69 241.53 189.12 242.95 190.56 241.53 192 242.83 193.32 241.53 194.64 242.95 196.07 241.53 197.51 242.95 198.95 241.53 200.38 242.95 201.82 241.53 203.26 242.95 204.69 241.53 206.13 242.95 207.57 241.53 209 242.95 210.44 241.53 211.88 242.95 213.31 241.53 214.75 242.83 216.07 241.53 217.39 242.95 218.83 241.53 220.26 242.95 221.7 241.53 223.14 242.95 224.57 241.53 226.01 242.92 227.42 241.53 228.83 242.95 230.26 241.53 231.7 242.95 233.14 241.53 234.57 242.95 236.01 241.53 237.45 242.83 238.77 241.53 240.09 242.95 241.52 241.53 242.96 242.95 244.4 241.53 245.83 242.95 247.27 241.53 248.71 242.95 250.14 241.53 251.58 242.95 253.02 241.53 254.45 242.95 255.89 241.53 257.33 242.95 258.76 241.53 260.2 242.83 261.52 241.53 262.84 242.95 264.28 241.53 265.71 242.95 267.15 241.53 268.59 242.95 270.02 241.53 271.46 243.59 273.55 243.39 90.86"/><rect class="n" x="256.95" y="72.25" width="4.53" height="34.37" rx="1.29" ry="1.29" transform="translate(348.65 -169.78) rotate(90)"/><path class="n" d="M242.03,273.55v-.83c0-.35,.29-.64,.64-.64h33.09c.35,0,.64,.29,.64,.64v3.24c0,.35-.29,.64-.64,.64h-33.09c-.35,0-.64-.29-.64-.64v-2.41"/><path class="l" d="M256.76,88.57h0c2.71,0,4.92,2.2,4.92,4.92v1.33c0,2.71-2.2,4.92-4.92,4.92h0v-11.16h0Z" transform="translate(353.37 -165.06) rotate(90)"/><path class="l" d="M261.76,263.95h0v11.16h0c-2.81,0-5.08-2.28-5.08-5.08v-.99c0-2.81,2.28-5.08,5.08-5.08Z" transform="translate(528.75 10.31) rotate(90)"/><rect class="n" x="251.61" y="61.66" width="15.22" height="22.02" transform="translate(331.88 -186.55) rotate(90)"/><rect class="n" x="251.61" y="275.54" width="15.22" height="22.02" transform="translate(545.77 27.34) rotate(90)"/><path class="l" d="M263.05,314.46h5.24c-.63-6.27-1.36-13.02-2.21-20.3h-12.77c-.85,7.27-1.58,14.02-2.21,20.3h11.94Z"/><path class="k" d="M277.57,421.55s7.41-21.12-7.41-107.09h-20.93c-14.82,85.98-7.41,107.09-7.41,107.09,5.01,6.84,14.14,7.23,17.88,7.07,3.74,.16,12.87-.22,17.88-7.07Z"/><rect class="l" x="255.77" y="78.14" width="6.9" height="11.16" transform="translate(342.94 -175.49) rotate(90)"/><rect class="l" x="258.04" y="272.19" width="2.35" height="11.16" transform="translate(536.99 18.56) rotate(90)"/></g><path class="i" d="M356.69,67.41h-86.46v-2.35h-22.02v15.22h5.43v6.9h-10.31c-.71,0-1.29,.58-1.29,1.29v1.94c0,.49,.29,.91,.7,1.13l-1.2,1.21,1.42,1.44-1.42,1.44,1.42,1.44-1.42,1.44,1.42,1.44-1.42,1.44,1.3,1.32-1.3,1.32,1.42,1.44-1.42,1.44,1.42,1.44-1.42,1.44,1.42,1.44-1.42,1.44,1.42,1.44-1.42,1.44,1.42,1.44-1.42,1.44,1.42,1.44-1.42,1.44,1.42,1.44-1.42,1.44,1.3,1.32-1.3,1.32,1.42,1.44-1.42,1.44,1.42,1.44-1.42,1.44,1.42,1.44-1.42,1.44,1.39,1.41-1.39,1.41,1.42,1.44-1.42,1.44,1.42,1.44-1.42,1.44,1.42,1.44-1.42,1.44,1.3,1.32-1.3,1.32,1.42,1.44-1.42,1.44,1.42,1.44-1.42,1.44,1.42,1.44-1.42,1.44,1.42,1.44-1.42,1.44,1.42,1.44-1.42,1.44,1.42,1.44-1.42,1.44,1.42,1.44-1.42,1.44,1.3,1.32-1.3,1.32,1.42,1.44-1.42,1.44,1.42,1.44-1.42,1.44,1.42,1.44-1.42,1.44,1.26,1.27-1.26,1.27,1.42,1.44-1.42,1.44,1.42,1.44-1.42,1.44,1.42,1.44-1.42,1.44,1.3,1.32-1.3,1.32,1.42,1.44-1.42,1.44,1.42,1.44-1.42,1.44,1.42,1.44-1.42,1.44,1.42,1.44-1.42,1.44,1.42,1.44-1.42,1.44,1.42,1.44-1.42,1.44,1.42,1.44-1.42,1.44,1.3,1.32-1.3,1.32,1.42,1.44-1.42,1.44,1.42,1.44-1.42,1.44,1.42,1.44-1.42,1.44,1.39,1.41-1.39,1.41,1.42,1.44-1.42,1.44,1.42,1.44-1.42,1.44,1.42,1.44-1.42,1.44,1.3,1.32-1.3,1.32,1.42,1.44-1.42,1.44,1.42,1.44-1.42,1.44,1.42,1.44-1.42,1.44,1.42,1.44-1.42,1.44,1.42,1.44-1.42,1.44,1.42,1.44-1.42,1.44,1.42,1.44-1.42,1.44,1.3,1.32-1.3,1.32,1.42,1.44-1.42,1.44,1.42,1.44-1.42,1.44,1.42,1.44-1.42,1.44,.75,.76c-.15,.12-.25,.29-.25,.49v3.24c0,.35,.29,.64,.64,.64h10.96v2.35h-5.43v15.22h5.11c-.85,7.27-1.58,14.02-2.21,20.3h-1.87c-14.82,85.98-7.41,107.09-7.41,107.09,5.01,6.84,14.14,7.23,17.88,7.07,3.74,.16,12.87-.22,17.88-7.07,0,0,7.41-21.12-7.41-107.09h-1.87c-.63-6.27-1.36-13.02-2.21-20.3h4.14v-1.98h86.46c26.66,0,48.36-21.69,48.36-48.36V115.77c0-26.66-21.69-48.36-48.36-48.36Zm37.55,176.41c0,20.7-16.84,37.55-37.55,37.55h-86.46v-2.42h-5.43v-2.35h10.96c.35,0,.64-.29,.64-.64v-3.24c0-.35-.29-.64-.64-.64h-10.96c0-2.81-2.28-5.08-5.08-5.08h-.99c-2.81,0-5.08,2.28-5.08,5.08h-10.05l-.2-180.38h10.24c0,2.72,2.2,4.92,4.92,4.92h1.33c2.72,0,4.92-2.2,4.92-4.92h10.31c.71,0,1.29-.58,1.29-1.29v-1.94c0-.71-.58-1.29-1.29-1.29h-10.31v-6.9h5.43v-2.05h86.46c20.7,0,37.55,16.84,37.55,37.55V243.82Z"/><line class="e" x1="564.86" y1="16.14" x2="4.34" y2="461.29"/><line class="e" x1="13.52" y1="19.1" x2="574.04" y2="464.24"/><path class="m" d="M576.81,460.13v92.28c0,24.29-19.69,43.98-43.98,43.98H46.86c-24.29,0-43.98-19.69-43.98-43.98v-92.28"/><rect class="g" x="2.5" y="2.5" width="573.93" height="593.9" rx="43.98" ry="43.98"/><line class="h" x1="2.5" y1="461.29" x2="573.93" y2="461.29"/><text class="a`" transform="translate(183.72 520.64)"><tspan class="t" x="0" y="0">L</tspan><tspan class="o" x="15.94" y="0">e</tspan><tspan class="q" x="34.85" y="0">t</tspan><tspan class="r" x="48.32" y="0">’</tspan><tspan class="j" x="55.46" y="0">s hope </tspan><tspan class="u" x="168.03" y="0">w</tspan><tspan class="d" x="192.83" y="0">e</tspan><tspan class="d" x="-48.18" y="38.4">do</tspan><tspan class="x" x="-7.54" y="38.4">n</tspan><tspan class="d" x="10.1" y="38.4">’t n</tspan><tspan class="p" x="60.98" y="38.4">ee</tspan><tspan class="j" x="99.5" y="38.4">d </tspan><tspan class="y" x="129.13" y="38.4">t</tspan><tspan class="j" x="142" y="38.4">he </tspan><tspan class="v" x="189.46" y="38.4">s</tspan><tspan class="j" x="204.75" y="38.4">aw!</tspan></text></g></g></g></svg>