<?xml version="1.0" encoding="UTF-8"?><svg xmlns="http://www.w3.org/2000/svg" xmlns:xlink="http://www.w3.org/1999/xlink" viewBox="0 0 885.12 818.59"><defs><style>.e,.f,.g,.h,.i,.j{fill:none;}.k{letter-spacing:.03em;}.l{letter-spacing:.1em;}.m{letter-spacing:.09em;}.n{letter-spacing:.1em;}.f,.o,.g,.h,.i,.p{stroke-miterlimit:10;}.f,.o,.p{stroke:#0f0f0f;}.f,.p,.j{stroke-width:3px;}.q{letter-spacing:.1em;}.r,.s,.t{letter-spacing:.1em;}.u{letter-spacing:.02em;}.v{letter-spacing:0em;}.o{fill:#a5a5a5;stroke-width:4px;}.w{letter-spacing:.02em;}.g{stroke-width:5px;}.g,.h,.i{stroke:#fff;}.x{font-size:32px;}.x,.t,.y,.a`{fill:#fff;}.aa,.s{fill:#e9a72d;}.aa,.s,.t{font-size:15.59px;}.ab{letter-spacing:0em;}.ac{fill:#32325b;opacity:.2;}.h{stroke-width:2px;}.ad{letter-spacing:0em;}.ae{letter-spacing:.02em;}.af{letter-spacing:0em;}.ag{clip-path:url(#d);}.p{fill:#cfd0d1;}.ah{letter-spacing:.03em;}.ai{letter-spacing:0em;}.y{font-size:41.84px;}.y,.aj{font-family:Gilroy-Bold, Gilroy-Bold;}.a`{opacity:.5;}.j{stroke:#19192f;stroke-linecap:round;stroke-linejoin:round;}.ak{letter-spacing:.02em;}</style><clipPath id="d"><rect class="e" x="311.92" y="137.46" width="568.24" height="237.21"/></clipPath></defs><g id="a"/><g id="b"><g id="c"><g><rect class="a`" x="311.92" y="137.46" width="568.24" height="237.21"/><text class="aj" transform="translate(352.07 417.47)"><tspan class="s"><tspan x="0" y="0">GOOD FOR</tspan></tspan><tspan class="x"><tspan class="af" x="0" y="38.4">R</tspan><tspan class="u" x="19.65" y="38.4">em</tspan><tspan class="ai" x="67.1" y="38.4">o</tspan><tspan class="k" x="86.27" y="38.4">ving la</tspan><tspan class="ad" x="191.26" y="38.4">r</tspan><tspan class="u" x="202.85" y="38.4">ge bol</tspan><tspan class="ad" x="301.21" y="38.4">t</tspan><tspan class="k" x="313.72" y="38.4">s</tspan></tspan><tspan class="t"><tspan x="0" y="75.83"></tspan></tspan><tspan class="aa"><tspan class="r" x="0" y="94.54">U</tspan><tspan class="m" x="11.74" y="94.54">S</tspan><tspan class="n" x="22.32" y="94.54">ED FOR</tspan></tspan><tspan class="x"><tspan class="af" x="0" y="132.94">R</tspan><tspan class="u" x="19.65" y="132.94">em</tspan><tspan class="ai" x="67.1" y="132.94">o</tspan><tspan class="k" x="86.27" y="132.94">ving </tspan><tspan class="ak" x="161.73" y="132.94">t</tspan><tspan class="u" x="174.59" y="132.94">he gene</tspan><tspan class="ab" x="300.93" y="132.94">r</tspan><tspan class="u" x="312.51" y="132.94">a</tspan><tspan class="v" x="333.34" y="132.94">t</tspan><tspan class="u" x="345.73" y="132.94">or ho</tspan><tspan class="w" x="425.6" y="132.94">u</tspan><tspan class="ae" x="444.73" y="132.94">s</tspan><tspan class="u" x="460.25" y="132.94">ing</tspan></tspan></text><text class="y" transform="translate(478.16 94.93)"><tspan class="l" x="0" y="0">S</tspan><tspan class="ah" x="28.37" y="0">P</tspan><tspan class="q" x="54.27" y="0">ANNER</tspan></text><line class="i" x1="308.72" y1="483.01" x2="880.15" y2="483.01"/><line class="h" x1="308.72" y1="138.49" x2="880.15" y2="138.49"/><path class="ac" d="M784.56,307.36l26.46-26.46c2.12-2.12,2.94-5.2,2.17-8.09l-9.69-36.15c-.77-2.89-3.03-5.15-5.92-5.92l-36.15-9.69c-2.89-.77-5.98,.05-8.09,2.17l-26.46,26.46c-2.12,2.12-2.94,5.2-2.17,8.09l9.69,36.15c.77,2.89,3.03,5.15,5.92,5.92l36.15,9.69c2.89,.77,5.98-.05,8.09-2.17Z"/><path class="p" d="M784.56,291.7l26.46-26.46c2.12-2.12,2.94-5.2,2.17-8.09l-9.69-36.15c-.77-2.89-3.03-5.15-5.92-5.92l-36.15-9.69c-2.89-.77-5.98,.05-8.09,2.17l-26.46,26.46c-2.12,2.12-2.94,5.2-2.17,8.09l9.69,36.15c.77,2.89,3.03,5.15,5.92,5.92l36.15,9.69c2.89,.77,5.98-.05,8.09-2.17Z"/><line class="f" x1="882.4" y1="188.34" x2="308.47" y2="188.34"/><line class="f" x1="882.4" y1="326.34" x2="308.47" y2="326.34"/><rect class="g" x="308.69" y="2.5" width="573.93" height="593.9" rx="43.98" ry="43.98"/><path class="ac" d="M585.45,307.36l26.46-26.46c2.12-2.12,2.94-5.2,2.17-8.09l-9.69-36.15c-.77-2.89-3.03-5.15-5.92-5.92l-36.15-9.69c-2.89-.77-5.98,.05-8.09,2.17l-26.46,26.46c-2.12,2.12-2.94,5.2-2.17,8.09l9.69,36.15c.77,2.89,3.03,5.15,5.92,5.92l36.15,9.69c2.89,.77,5.98-.05,8.09-2.17Z"/><g class="ag"><g><path class="o" d="M470.37,302.14L134.04,638.47c-34.41-15.72-76.41-9.42-104.73,18.9-21.08,21.08-29.96,49.74-26.64,77.2,.36,3,4,4.28,6.14,2.15l56.43-56.43,22.36,5.99,24.77,6.64c6.49,1.74,11.56,6.81,13.3,13.3l6.64,24.77,5.99,22.36-56.43,56.43c-2.14,2.14-.85,5.78,2.15,6.14,27.47,3.32,56.12-5.56,77.2-26.64,28.32-28.32,34.62-70.32,18.9-104.73l336.33-336.33c34.41,15.72,76.41,9.42,104.73-18.9,21.49-21.49,30.29-50.85,26.43-78.79-.32-2.34-3.21-3.28-4.88-1.61l-61.86,61.86-24.9-6.67-20.75-5.56c-7.41-1.98-13.19-7.77-15.18-15.18l-5.56-20.75-6.67-24.9,61.86-61.86c1.67-1.67,.73-4.56-1.61-4.88-27.95-3.86-57.31,4.95-78.79,26.43-28.32,28.32-34.62,70.32-18.9,104.73Z"/><rect class="j" x="301.86" y="266.15" width="45.79" height="455.16" rx="10.93" ry="10.93" transform="translate(205.27 1072.49) rotate(-135)"/></g></g><path class="p" d="M585.45,291.7l26.46-26.46c2.12-2.12,2.94-5.2,2.17-8.09l-9.69-36.15c-.77-2.89-3.03-5.15-5.92-5.92l-36.15-9.69c-2.89-.77-5.98,.05-8.09,2.17l-26.46,26.46c-2.12,2.12-2.94,5.2-2.17,8.09l9.69,36.15c.77,2.89,3.03,5.15,5.92,5.92l36.15,9.69c2.89,.77,5.98-.05,8.09-2.17Z"/><line class="h" x1="308.72" y1="374.68" x2="880.15" y2="374.68"/></g></g></g></svg>