<?xml version="1.0" encoding="UTF-8"?><svg xmlns="http://www.w3.org/2000/svg" viewBox="0 0 320.09 312.83"><defs><style>.f{fill:#fff;}.g{fill:#e9a72d;}.h{fill:#32325b;}.i{fill:#cfd0d1;}.j{fill:#232323;opacity:.3;}.j,.k{isolation:isolate;}.l{stroke:#fff;stroke-miterlimit:10;stroke-width:2px;}.l,.m{fill:none;}.m{stroke:#19192f;stroke-linecap:round;stroke-linejoin:round;stroke-width:3px;}</style></defs><g id="a"/><g id="b"><g id="c"><g id="d"><g id="e"><g><rect class="h" width="320.09" height="312.28" rx="31.86" ry="31.86"/><path class="j" d="M320.09,143.58v142.75c0,14.63-11.86,26.5-26.5,26.5H26.5c-14.63,0-26.5-11.86-26.5-26.5V143.58"/><line class="l" x1=".7" y1="143.58" x2="320.09" y2="143.58"/><g class="k" transform="translate(55.73 278.1)"><g class="k"><path class="f" d="M68.46,278.1l-4.07-6.96h-4.29v6.96h-2.42v-18.19h7.28c1.56,0,2.89,.55,4,1.65,1.11,1.1,1.66,2.43,1.66,3.99,0,1.18-.35,2.25-1.05,3.22s-1.61,1.65-2.72,2.05l4.29,7.28h-2.68Zm-8.37-15.93v6.78h4.86c.9,0,1.67-.33,2.3-1,.63-.67,.95-1.47,.95-2.4s-.32-1.73-.95-2.39c-.63-.66-1.4-.99-2.3-.99h-4.86Z"/></g><g class="k"><path class="f" d="M75.04,272.64c.22,1.16,.76,2.06,1.6,2.7,.84,.64,1.88,.96,3.11,.96,1.71,0,2.96-.63,3.74-1.9l1.92,1.09c-1.27,1.96-3.17,2.94-5.72,2.94-2.06,0-3.74-.65-5.03-1.94-1.29-1.29-1.94-2.92-1.94-4.9s.63-3.59,1.9-4.89,2.9-1.95,4.91-1.95c1.91,0,3.46,.67,4.67,2.01s1.81,2.96,1.81,4.85c0,.33-.03,.67-.08,1.01h-10.89Zm4.5-5.74c-1.21,0-2.22,.34-3.01,1.03-.8,.68-1.29,1.6-1.48,2.74h8.68c-.19-1.23-.68-2.17-1.46-2.81-.78-.64-1.69-.96-2.73-.96Z"/><path class="f" d="M96.53,264.77c1.82,0,3.37,.66,4.65,1.99s1.92,2.94,1.92,4.85-.64,3.52-1.92,4.85-2.83,1.99-4.65,1.99c-2.15,0-3.79-.86-4.91-2.57v7.43h-2.26v-18.19h2.26v2.24c1.13-1.72,2.76-2.57,4.91-2.57Zm-.29,11.49c1.3,0,2.39-.45,3.28-1.34s1.33-2,1.33-3.31-.44-2.42-1.33-3.31c-.88-.89-1.98-1.34-3.28-1.34s-2.42,.45-3.3,1.34c-.88,.89-1.33,2-1.33,3.31s.44,2.42,1.33,3.31c.88,.89,1.98,1.34,3.3,1.34Z"/><path class="f" d="M117.33,265.1h2.26v13h-2.26v-2.24c-1.13,1.72-2.76,2.57-4.91,2.57-1.82,0-3.37-.66-4.65-1.99s-1.92-2.94-1.92-4.85,.64-3.52,1.92-4.85,2.83-1.99,4.65-1.99c2.15,0,3.79,.86,4.91,2.57v-2.24Zm-4.63,11.15c1.32,0,2.42-.45,3.3-1.34,.88-.89,1.33-2,1.33-3.31s-.44-2.42-1.33-3.31c-.88-.89-1.98-1.34-3.3-1.34s-2.39,.45-3.28,1.34c-.88,.89-1.33,2-1.33,3.31s.44,2.42,1.33,3.31,1.98,1.34,3.28,1.34Z"/><path class="f" d="M124.92,262.74c-.43,0-.8-.15-1.09-.44-.29-.29-.44-.65-.44-1.07s.15-.78,.44-1.08c.29-.3,.66-.46,1.09-.46s.77,.15,1.07,.46c.29,.3,.44,.66,.44,1.08s-.15,.77-.44,1.07c-.29,.29-.65,.44-1.07,.44Zm-1.14,15.36v-13h2.26v13h-2.26Z"/><path class="f" d="M132.5,267.29c.74-1.61,2.1-2.42,4.05-2.42v2.36c-1.11-.05-2.06,.24-2.86,.88-.8,.64-1.2,1.67-1.2,3.09v6.89h-2.26v-13h2.26v2.18Z"/><path class="f" d="M153.95,264.77c1.82,0,3.37,.66,4.65,1.99s1.92,2.94,1.92,4.85-.64,3.52-1.92,4.85-2.83,1.99-4.65,1.99c-2.15,0-3.79-.86-4.91-2.57v2.24h-2.26v-18.19h2.26v7.43c1.13-1.72,2.76-2.57,4.91-2.57Zm-.29,11.49c1.3,0,2.39-.45,3.28-1.34s1.33-2,1.33-3.31-.44-2.42-1.33-3.31c-.88-.89-1.98-1.34-3.28-1.34s-2.42,.45-3.3,1.34c-.88,.89-1.33,2-1.33,3.31s.44,2.42,1.33,3.31c.88,.89,1.98,1.34,3.3,1.34Z"/><path class="f" d="M174.95,276.46c-1.33,1.32-2.95,1.98-4.86,1.98s-3.52-.66-4.85-1.98c-1.33-1.32-1.99-2.94-1.99-4.86s.66-3.54,1.99-4.86c1.33-1.32,2.94-1.98,4.85-1.98s3.53,.66,4.86,1.98c1.33,1.32,2,2.94,2,4.86s-.67,3.54-2,4.86Zm-4.86-.23c1.3,0,2.39-.44,3.27-1.33,.88-.88,1.33-1.98,1.33-3.3s-.44-2.42-1.33-3.3c-.88-.88-1.97-1.33-3.27-1.33s-2.37,.44-3.25,1.33c-.88,.88-1.33,1.98-1.33,3.3s.44,2.42,1.33,3.3c.88,.88,1.97,1.33,3.25,1.33Z"/><path class="f" d="M180.38,278.1v-18.97h2.26v18.97h-2.26Z"/><path class="f" d="M193.92,267.29h-3.46v7.04c0,.64,.12,1.1,.38,1.36,.25,.27,.64,.41,1.16,.42s1.16,0,1.92-.04v2.03c-1.97,.26-3.42,.1-4.34-.48-.92-.58-1.38-1.68-1.38-3.29v-7.04h-2.57v-2.18h2.57v-2.96l2.26-.68v3.64h3.46v2.18Z"/><path class="f" d="M206.63,268.57c0,.49,.25,.89,.77,1.18,.51,.3,1.12,.55,1.82,.75,.71,.21,1.42,.42,2.13,.63,.71,.21,1.32,.6,1.81,1.18,.5,.58,.74,1.32,.74,2.22,0,1.18-.46,2.12-1.37,2.83-.91,.71-2.08,1.07-3.5,1.07-1.26,0-2.35-.28-3.25-.83-.9-.55-1.54-1.29-1.92-2.21l1.95-1.12c.21,.62,.6,1.12,1.17,1.48,.57,.36,1.26,.55,2.05,.55,.75,0,1.36-.14,1.84-.43,.49-.29,.73-.73,.73-1.34,0-.5-.25-.9-.75-1.21-.5-.3-1.11-.56-1.81-.77s-1.42-.43-2.13-.64c-.71-.21-1.32-.6-1.82-1.15-.5-.55-.75-1.26-.75-2.13,0-1.13,.44-2.05,1.31-2.78,.87-.73,1.97-1.09,3.29-1.09,1.06,0,2,.24,2.82,.71,.82,.48,1.44,1.14,1.86,1.99l-1.9,1.07c-.47-1.11-1.39-1.66-2.78-1.66-.64,0-1.19,.15-1.64,.44-.45,.3-.68,.72-.68,1.26Z"/><path class="f" d="M223.81,264.77c1.52,0,2.75,.48,3.66,1.44,.92,.96,1.38,2.27,1.38,3.91v7.98h-2.26v-7.85c0-1.06-.29-1.88-.86-2.46-.57-.58-1.36-.87-2.37-.87-1.13,0-2.04,.35-2.73,1.05-.69,.7-1.04,1.78-1.04,3.24v6.89h-2.26v-13h2.26v1.87c.92-1.47,2.32-2.21,4.21-2.21Z"/><path class="f" d="M243.5,265.1h2.26v13h-2.26v-2.24c-1.13,1.72-2.76,2.57-4.91,2.57-1.82,0-3.37-.66-4.65-1.99s-1.92-2.94-1.92-4.85,.64-3.52,1.92-4.85,2.83-1.99,4.65-1.99c2.15,0,3.79,.86,4.91,2.57v-2.24Zm-4.63,11.15c1.32,0,2.42-.45,3.3-1.34s1.33-2,1.33-3.31-.44-2.42-1.33-3.31c-.88-.89-1.98-1.34-3.3-1.34s-2.39,.45-3.27,1.34c-.88,.89-1.33,2-1.33,3.31s.44,2.42,1.33,3.31,1.97,1.34,3.27,1.34Z"/><path class="f" d="M257.12,264.77c1.82,0,3.37,.66,4.65,1.99s1.92,2.94,1.92,4.85-.64,3.52-1.92,4.85-2.83,1.99-4.65,1.99c-2.15,0-3.79-.86-4.91-2.57v7.43h-2.26v-18.19h2.26v2.24c1.13-1.72,2.76-2.57,4.91-2.57Zm-.29,11.49c1.3,0,2.39-.45,3.28-1.34s1.33-2,1.33-3.31-.44-2.42-1.33-3.31c-.88-.89-1.98-1.34-3.28-1.34s-2.42,.45-3.3,1.34c-.88,.89-1.33,2-1.33,3.31s.44,2.42,1.33,3.31c.88,.89,1.98,1.34,3.3,1.34Z"/></g></g><g class="k" transform="translate(77.89 118.05)"><g class="k"><path class="g" d="M107.04,113.93c-3.12,3.13-6.92,4.7-11.42,4.7s-8.29-1.57-11.4-4.7c-3.1-3.13-4.66-6.93-4.66-11.39s1.55-8.3,4.66-11.42c3.1-3.12,6.9-4.68,11.4-4.68s8.3,1.56,11.42,4.68c3.12,3.12,4.68,6.92,4.68,11.42s-1.56,8.26-4.68,11.39Zm-19.95-2.82c2.29,2.32,5.14,3.48,8.54,3.48s6.24-1.16,8.54-3.48c2.29-2.32,3.44-5.18,3.44-8.58s-1.15-6.3-3.44-8.62c-2.29-2.32-5.14-3.48-8.54-3.48s-6.24,1.16-8.54,3.48c-2.29,2.32-3.44,5.2-3.44,8.62s1.15,6.26,3.44,8.58Z"/><path class="g" d="M139.43,108.29v3.86h-3.77v5.9h-4.12v-5.9h-15.83v-3.86l11.13-21.28h4.43l-11.13,21.28h11.4v-8.78h4.12v8.78h3.77Z"/></g><g class="k"><path class="g" d="M157.17,87.01c4.23,0,7.74,1.5,10.53,4.5,2.79,3,4.19,6.67,4.19,11.02s-1.4,8.02-4.19,11.02c-2.79,3-6.3,4.5-10.53,4.5h-12.1v-31.04h12.1Zm0,27.14c3.16,0,5.75-1.11,7.76-3.33,2.01-2.22,3.02-4.98,3.02-8.29s-1.01-6.08-3.02-8.29c-2.01-2.22-4.6-3.33-7.76-3.33h-7.98v23.23h7.98Z"/></g><g class="k"><path class="g" d="M188.02,99.73c2.37,.44,4.31,1.47,5.82,3.06s2.27,3.62,2.27,6.08c0,3.02-1.04,5.4-3.1,7.14-2.07,1.75-4.58,2.62-7.54,2.62-2.37,0-4.46-.54-6.3-1.62-1.83-1.08-3.13-2.64-3.9-4.68l3.46-2.04c.92,2.87,3.16,4.3,6.74,4.3,1.92,0,3.49-.5,4.7-1.51,1.21-1,1.82-2.41,1.82-4.21s-.61-3.21-1.82-4.23c-1.21-1.02-2.78-1.53-4.7-1.53h-1.06l-1.64-2.53,7.18-9.71h-13.79v-3.86h18.62l-.02,3.62-6.73,9.1Z"/></g><g class="k"><path class="g" d="M211,97.74c3.1,0,5.66,.97,7.67,2.9,2.01,1.94,3.02,4.44,3.02,7.52s-1.01,5.59-3.02,7.54c-2.01,1.95-4.57,2.93-7.67,2.93s-5.7-.98-7.69-2.93c-2-1.95-2.99-4.46-2.99-7.54,0-2.39,.62-4.46,1.86-6.21l9.98-14.94h4.7l-7.33,10.82c.66-.06,1.15-.09,1.48-.09Zm-4.77,15.14c1.23,1.2,2.82,1.8,4.77,1.8s3.54-.6,4.77-1.8c1.23-1.2,1.84-2.77,1.84-4.72s-.61-3.52-1.84-4.7c-1.23-1.18-2.82-1.77-4.77-1.77s-3.58,.59-4.79,1.77c-1.21,1.18-1.82,2.75-1.82,4.7s.61,3.53,1.84,4.72Z"/></g><g class="k"><path class="g" d="M222.4,87.01h19.38v3.68l-11.31,27.36h-4.3l11.21-27.14h-14.99v-3.9Z"/></g></g><g class="k" transform="translate(45.34 61.3)"><g class="k"><path class="f" d="M66.76,36.11h-12.42v7.36h12.06v5.85h-12.06v11.97h-6.12V30.26h18.53v5.85Z"/><path class="f" d="M89.1,39.13h5.72v22.17h-5.72v-2.62c-1.71,2.16-4.12,3.24-7.23,3.24s-5.49-1.13-7.6-3.39c-2.11-2.26-3.17-5.03-3.17-8.31s1.06-6.05,3.17-8.31c2.11-2.26,4.65-3.39,7.6-3.39,3.1,0,5.51,1.08,7.23,3.24v-2.62Zm-10.55,15.58c1.15,1.17,2.62,1.75,4.39,1.75s3.24-.58,4.41-1.75c1.17-1.17,1.75-2.67,1.75-4.5s-.58-3.33-1.75-4.5c-1.17-1.17-2.64-1.75-4.41-1.75s-3.24,.58-4.39,1.75c-1.15,1.17-1.73,2.67-1.73,4.5s.58,3.33,1.73,4.5Z"/><path class="f" d="M115.93,39.13h5.72v22.17h-5.72v-2.48c-1.39,2.07-3.59,3.1-6.61,3.1-2.42,0-4.43-.81-6.01-2.44-1.58-1.62-2.37-3.87-2.37-6.74v-13.61h5.72v12.9c0,1.48,.4,2.61,1.2,3.39,.8,.78,1.86,1.17,3.19,1.17,1.48,0,2.66-.46,3.55-1.37s1.33-2.29,1.33-4.12v-11.97Z"/><path class="f" d="M128.17,61.3V28.93h5.72V61.3h-5.72Z"/><path class="f" d="M153.08,44.63h-5.01v9.22c0,.77,.19,1.33,.58,1.68,.38,.36,.95,.55,1.69,.6,.74,.04,1.65,.04,2.75-.02v5.19c-3.93,.44-6.7,.07-8.31-1.11-1.61-1.18-2.42-3.3-2.42-6.34v-9.22h-3.86v-5.5h3.86v-4.48l5.72-1.73v6.21h5.01v5.5Z"/></g><g class="k"><path class="f" d="M181.95,61.92c-3.34,0-6.13-1.12-8.36-3.37-2.23-2.25-3.35-5.03-3.35-8.34s1.12-6.09,3.35-8.34c2.23-2.25,5.02-3.37,8.36-3.37,2.16,0,4.12,.52,5.9,1.55,1.77,1.04,3.12,2.42,4.03,4.17l-4.92,2.88c-.44-.92-1.12-1.64-2.02-2.17-.9-.53-1.92-.8-3.04-.8-1.71,0-3.13,.57-4.26,1.71-1.12,1.14-1.69,2.59-1.69,4.37s.56,3.19,1.69,4.32c1.12,1.14,2.54,1.71,4.26,1.71,1.15,0,2.18-.26,3.08-.78,.9-.52,1.57-1.23,2.02-2.15l4.97,2.84c-.98,1.74-2.35,3.14-4.12,4.19-1.77,1.05-3.74,1.57-5.9,1.57Z"/></g><g class="k"><path class="f" d="M214.85,58.53c-2.28,2.26-5.05,3.39-8.34,3.39s-6.05-1.13-8.31-3.39c-2.26-2.26-3.39-5.03-3.39-8.31s1.13-6.05,3.39-8.31c2.26-2.26,5.03-3.39,8.31-3.39s6.06,1.13,8.34,3.39c2.28,2.26,3.41,5.03,3.41,8.31s-1.14,6.05-3.41,8.31Zm-12.61-3.92c1.14,1.15,2.56,1.73,4.28,1.73s3.15-.58,4.3-1.73,1.73-2.62,1.73-4.39-.58-3.24-1.73-4.39c-1.15-1.15-2.59-1.73-4.3-1.73s-3.14,.58-4.28,1.73c-1.14,1.15-1.71,2.62-1.71,4.39s.57,3.24,1.71,4.39Z"/><path class="f" d="M240.39,30.26h5.72v31.04h-5.72v-2.62c-1.69,2.16-4.08,3.24-7.18,3.24s-5.54-1.13-7.65-3.39c-2.11-2.26-3.17-5.03-3.17-8.31s1.06-6.05,3.17-8.31c2.11-2.26,4.66-3.39,7.65-3.39s5.5,1.08,7.18,3.24v-11.48Zm-10.53,24.45c1.17,1.17,2.64,1.75,4.41,1.75s3.24-.58,4.39-1.75c1.15-1.17,1.73-2.67,1.73-4.5s-.58-3.33-1.73-4.5c-1.15-1.17-2.62-1.75-4.39-1.75s-3.24,.58-4.41,1.75c-1.17,1.17-1.75,2.67-1.75,4.5s.58,3.33,1.75,4.5Z"/><path class="f" d="M257.46,52.56c.77,2.78,2.85,4.17,6.25,4.17,2.19,0,3.84-.74,4.97-2.22l4.61,2.66c-2.19,3.16-5.41,4.75-9.67,4.75-3.67,0-6.61-1.11-8.82-3.33-2.22-2.22-3.33-5.01-3.33-8.38s1.09-6.13,3.28-8.36c2.19-2.23,5-3.35,8.42-3.35,3.25,0,5.93,1.12,8.05,3.37,2.11,2.25,3.17,5.03,3.17,8.34,0,.74-.07,1.52-.22,2.35h-16.72Zm-.09-4.43h11.31c-.33-1.51-1-2.63-2.02-3.37-1.02-.74-2.18-1.11-3.48-1.11-1.54,0-2.81,.39-3.81,1.17-1.01,.78-1.67,1.88-2,3.3Z"/></g></g><g><path class="i" d="M224.69,192.56H95.83c-4.61-12.35-16.51-21.15-30.47-21.15-10.39,0-19.64,4.87-25.59,12.46-.65,.83-.07,2.04,.98,2.04h27.81l4.03,6.99,4.47,7.74c1.17,2.03,1.17,4.53,0,6.55l-4.47,7.74-4.03,6.99h-27.81c-1.05,0-1.63,1.21-.98,2.04,5.95,7.59,15.2,12.46,25.59,12.46,13.96,0,25.86-8.8,30.47-21.15H224.69c4.61,12.35,16.51,21.15,30.47,21.15,10.59,0,19.99-5.06,25.93-12.9,.5-.66,.02-1.6-.81-1.6h-30.49l-4.49-7.78-3.74-6.48c-1.34-2.31-1.34-5.17,0-7.48l3.74-6.48,4.49-7.78h30.49c.82,0,1.3-.94,.81-1.6-5.93-7.84-15.34-12.9-25.93-12.9-13.96,0-25.86,8.8-30.47,21.15h0Z"/><rect class="m" x="99.19" y="195.91" width="121.72" height="15.96" rx="7.98" ry="7.98"/></g></g></g></g></g></g></svg>