<?xml version="1.0" encoding="UTF-8"?><svg xmlns="http://www.w3.org/2000/svg" viewBox="0 0 278.23 225.41"><defs><style>.f{fill:#fcfcfc;}.g{fill:#fff;}.h{fill:#e9a72d;}.i{fill:#fbedd5;}.j{fill:#19192d;}.k{fill:#2e2e4f;}.l{opacity:.2;}.m{isolation:isolate;}.n{fill:none;stroke:#111;stroke-linecap:round;stroke-linejoin:round;stroke-width:3px;}</style></defs><g id="a"/><g id="b"><g id="c"><g id="d"><g id="e"><g><g><rect class="k" y="6.73" width="265.02" height="218.68" rx="31.86" ry="31.86"/><g class="m" transform="translate(75.54 97.4)"><g class="m"><path class="h" d="M96.11,94.49c-2.2,2.21-4.88,3.32-8.05,3.32s-5.85-1.1-8.04-3.32c-2.19-2.21-3.28-4.89-3.28-8.04s1.09-5.85,3.28-8.05c2.19-2.2,4.87-3.3,8.04-3.3s5.85,1.1,8.05,3.3c2.2,2.2,3.3,4.89,3.3,8.05s-1.1,5.83-3.3,8.04Zm-14.08-1.99c1.62,1.64,3.62,2.46,6.02,2.46s4.4-.82,6.02-2.46c1.62-1.64,2.42-3.65,2.42-6.05s-.81-4.45-2.42-6.08c-1.62-1.64-3.62-2.46-6.02-2.46s-4.41,.82-6.02,2.46c-1.62,1.64-2.42,3.67-2.42,6.08s.81,4.42,2.42,6.05Z"/><path class="h" d="M109.89,83.07c2.19,0,3.99,.68,5.41,2.05,1.42,1.37,2.13,3.13,2.13,5.3s-.71,3.94-2.13,5.32c-1.42,1.38-3.22,2.06-5.41,2.06s-4.02-.69-5.43-2.06c-1.41-1.38-2.11-3.15-2.11-5.32,0-1.69,.44-3.15,1.31-4.38l7.04-10.54h3.32l-5.17,7.63c.46-.04,.81-.06,1.04-.06Zm-3.36,10.68c.87,.84,1.99,1.27,3.36,1.27s2.5-.42,3.36-1.27c.87-.84,1.3-1.95,1.3-3.33s-.43-2.48-1.3-3.32c-.87-.83-1.99-1.25-3.36-1.25s-2.52,.42-3.38,1.25c-.86,.83-1.28,1.94-1.28,3.32s.43,2.49,1.3,3.33Z"/><path class="h" d="M135.16,75.5h2.91v21.9h-2.35l-11.26-16.36v16.36h-2.91v-21.9h2.25l11.36,16.44v-16.44Z"/></g><g class="m"><path class="h" d="M142.54,97.4v-2.38l7.73-7.88c2.06-2.06,3.1-3.84,3.1-5.32,0-1.23-.38-2.19-1.13-2.88-.75-.69-1.67-1.03-2.75-1.03-2.06,0-3.57,.98-4.5,2.94l-2.44-1.44c.69-1.42,1.64-2.49,2.86-3.22,1.22-.73,2.57-1.09,4.05-1.09,1.83,0,3.43,.61,4.79,1.81,1.36,1.21,2.03,2.84,2.03,4.88,0,2.21-1.3,4.62-3.91,7.23l-5.58,5.56h9.9v2.82h-14.14Z"/></g><g class="m"><path class="h" d="M174.6,94.71c-1.48,2.06-3.55,3.1-6.22,3.1s-4.74-1.03-6.22-3.1-2.22-4.82-2.22-8.26,.74-6.19,2.22-8.26,3.55-3.1,6.22-3.1,4.74,1.03,6.22,3.1,2.22,4.82,2.22,8.26-.74,6.19-2.22,8.26Zm-10.32-1.97c.96,1.48,2.33,2.22,4.1,2.22s3.14-.74,4.11-2.22c.97-1.48,1.46-3.58,1.46-6.29s-.49-4.81-1.46-6.3c-.97-1.49-2.34-2.24-4.11-2.24s-3.14,.74-4.1,2.22-1.44,3.59-1.44,6.32,.48,4.81,1.44,6.29Z"/></g><g class="m"><path class="h" d="M187.51,84.04c2.07,0,3.81,.61,5.24,1.83,1.43,1.22,2.14,2.9,2.14,5.05s-.73,3.81-2.19,5.04-3.23,1.84-5.32,1.84c-1.67,0-3.16-.4-4.47-1.2-1.31-.8-2.23-1.96-2.75-3.49l2.47-1.41c.29,1.06,.86,1.87,1.69,2.42s1.86,.83,3.07,.83c1.38,0,2.49-.35,3.35-1.06s1.28-1.7,1.28-2.97-.43-2.27-1.28-2.99c-.86-.72-1.95-1.08-3.28-1.08h-6.19l.78-11.36h12.01v2.72h-9.35l-.38,5.82h3.19Z"/></g></g><g class="m" transform="translate(50.48 59.73)"><g class="m"><path class="f" d="M76.04,46.95v1.84c0,3.4-1.09,6.15-3.26,8.26s-4.99,3.16-8.43,3.16c-3.67,0-6.71-1.19-9.13-3.59-2.41-2.39-3.62-5.31-3.62-8.75s1.19-6.4,3.59-8.8c2.39-2.4,5.35-3.6,8.89-3.6,2.22,0,4.25,.5,6.08,1.51,1.84,1.01,3.26,2.35,4.28,4.03l-4.01,2.31c-.57-.97-1.42-1.77-2.57-2.38-1.14-.61-2.42-.92-3.82-.92-2.27,0-4.13,.74-5.59,2.23-1.46,1.48-2.19,3.36-2.19,5.63s.74,4.1,2.23,5.56c1.48,1.46,3.45,2.19,5.9,2.19,1.81,0,3.31-.4,4.5-1.21,1.19-.8,2-1.91,2.43-3.31h-7.21v-4.15h11.93Z"/><path class="f" d="M83.89,53.03c.59,2.13,2.19,3.2,4.79,3.2,1.68,0,2.95-.57,3.81-1.7l3.54,2.04c-1.68,2.42-4.15,3.64-7.41,3.64-2.81,0-5.06-.85-6.76-2.55s-2.55-3.84-2.55-6.42,.84-4.7,2.52-6.41,3.83-2.57,6.46-2.57c2.49,0,4.55,.86,6.17,2.58,1.62,1.72,2.43,3.85,2.43,6.39,0,.57-.06,1.17-.17,1.8h-12.81Zm-.07-3.4h8.67c-.25-1.16-.76-2.02-1.55-2.58-.78-.57-1.67-.85-2.67-.85-1.18,0-2.15,.3-2.92,.9-.77,.6-1.28,1.44-1.53,2.53Z"/><path class="f" d="M110.4,42.26c1.86,0,3.39,.62,4.61,1.87,1.21,1.25,1.82,2.97,1.82,5.17v10.43h-4.38v-9.89c0-1.13-.31-2-.92-2.6s-1.43-.9-2.45-.9c-1.13,0-2.04,.35-2.72,1.05-.68,.7-1.02,1.76-1.02,3.16v9.18h-4.38v-17h4.38v1.9c1.06-1.59,2.75-2.38,5.06-2.38Z"/><path class="f" d="M125.29,53.03c.59,2.13,2.19,3.2,4.79,3.2,1.68,0,2.95-.57,3.81-1.7l3.54,2.04c-1.68,2.42-4.15,3.64-7.41,3.64-2.81,0-5.06-.85-6.76-2.55s-2.55-3.84-2.55-6.42,.84-4.7,2.52-6.41,3.83-2.57,6.46-2.57c2.49,0,4.55,.86,6.17,2.58,1.62,1.72,2.43,3.85,2.43,6.39,0,.57-.06,1.17-.17,1.8h-12.81Zm-.07-3.4h8.67c-.25-1.16-.76-2.02-1.55-2.58-.78-.57-1.67-.85-2.67-.85-1.18,0-2.15,.3-2.92,.9-.77,.6-1.28,1.44-1.53,2.53Z"/></g><g class="m"><path class="f" d="M146.75,45.66c.41-1.09,1.08-1.9,2.02-2.45,.94-.54,1.99-.82,3.14-.82v4.89c-1.34-.16-2.53,.11-3.59,.82-1.05,.7-1.58,1.87-1.58,3.5v8.12h-4.38v-17h4.38v2.92Z"/></g><g class="m"><path class="f" d="M167.76,42.73h4.38v17h-4.38v-2.01c-1.31,1.66-3.16,2.48-5.54,2.48s-4.21-.87-5.83-2.6-2.43-3.86-2.43-6.37,.81-4.64,2.43-6.37c1.62-1.73,3.56-2.6,5.83-2.6,2.38,0,4.23,.83,5.54,2.48v-2.01Zm-8.09,11.95c.88,.9,2.01,1.34,3.37,1.34s2.49-.45,3.38-1.34c.9-.89,1.34-2.04,1.34-3.45s-.45-2.55-1.34-3.45-2.02-1.34-3.38-1.34-2.48,.45-3.37,1.34-1.33,2.04-1.33,3.45,.44,2.55,1.33,3.45Z"/></g><g class="m"><path class="f" d="M186.87,46.95h-3.84v7.07c0,.59,.15,1.02,.44,1.29,.29,.27,.72,.42,1.29,.46s1.27,.03,2.11-.02v3.98c-3.01,.34-5.14,.06-6.37-.85s-1.85-2.53-1.85-4.86v-7.07h-2.96v-4.21h2.96v-3.43l4.38-1.33v4.76h3.84v4.21Z"/></g><g class="m"><path class="f" d="M204.95,57.61c-1.75,1.73-3.88,2.6-6.39,2.6s-4.64-.87-6.37-2.6c-1.73-1.73-2.6-3.86-2.6-6.37s.87-4.64,2.6-6.37c1.73-1.73,3.86-2.6,6.37-2.6s4.64,.87,6.39,2.6c1.74,1.73,2.62,3.86,2.62,6.37s-.87,4.64-2.62,6.37Zm-9.67-3.01c.87,.88,1.96,1.33,3.28,1.33s2.41-.44,3.3-1.33c.88-.88,1.33-2,1.33-3.36s-.44-2.48-1.33-3.37c-.88-.88-1.98-1.33-3.3-1.33s-2.41,.44-3.28,1.33c-.87,.88-1.31,2-1.31,3.37s.44,2.48,1.31,3.36Z"/><path class="f" d="M216.06,45.66c.41-1.09,1.08-1.9,2.02-2.45,.94-.54,1.99-.82,3.14-.82v4.89c-1.34-.16-2.53,.11-3.59,.82-1.05,.7-1.58,1.87-1.58,3.5v8.12h-4.38v-17h4.38v2.92Z"/></g></g></g><g><rect class="h" x="36.92" y="146.92" width="195.26" height="35.34" rx="16.42" ry="16.42"/><g class="l"><path class="i" d="M215.25,140.8c12.21,0,22.12,9.9,22.12,22.12v3.35c0,12.21-9.9,22.12-22.12,22.12H52.6c-12.21,0-22.12-9.9-22.12-22.12v-3.35c0-12.21,9.9-22.12,22.12-22.12H215.25m0-17H52.6c-21.57,0-39.12,17.55-39.12,39.12v3.35c0,21.57,17.55,39.12,39.12,39.12H215.25c21.57,0,39.12-17.55,39.12-39.12v-3.35c0-21.57-17.55-39.12-39.12-39.12h0Z"/></g><g class="m" transform="translate(91.8 172.74)"><g class="m"><path class="j" d="M102.01,172.74l-3.22-5.52h-2.38v5.52h-3.14v-15.91h6.36c1.47,0,2.72,.52,3.75,1.55,1.03,1.03,1.55,2.27,1.55,3.73,0,.99-.28,1.9-.84,2.74s-1.3,1.47-2.23,1.9l3.52,6h-3.39Zm-5.59-12.98v4.71h3.23c.59,0,1.1-.23,1.52-.69,.42-.46,.64-1.02,.64-1.67s-.21-1.21-.64-1.66c-.42-.46-.93-.68-1.52-.68h-3.23Z"/><path class="j" d="M112.64,169.74h6.71v3h-9.84v-15.91h9.73v3h-6.59v3.39h6.02v2.95h-6.02v3.57Z"/></g><g class="m"><path class="j" d="M129.75,156.83c1.53,0,2.82,.52,3.86,1.55,1.05,1.03,1.57,2.3,1.57,3.8s-.52,2.77-1.57,3.8c-1.05,1.03-2.33,1.55-3.86,1.55h-2.8v5.23h-3.14v-15.91h5.93Zm0,7.75c.67,0,1.22-.23,1.66-.69,.44-.46,.66-1.03,.66-1.72s-.22-1.27-.66-1.73c-.44-.46-.99-.68-1.66-.68h-2.8v4.82h2.8Z"/></g><g class="m"><path class="j" d="M148.35,172.74l-1.01-2.86h-6.54l-.95,2.86h-3.39l5.57-15.91h3.89l5.61,15.91h-3.18Zm-6.53-5.8h4.48l-2.3-6.5-2.18,6.5Z"/><path class="j" d="M155.34,156.83h3.14v15.91h-3.14v-15.91Z"/><path class="j" d="M172.44,172.74l-3.22-5.52h-2.38v5.52h-3.14v-15.91h6.36c1.47,0,2.72,.52,3.75,1.55,1.03,1.03,1.55,2.27,1.55,3.73,0,.99-.28,1.9-.84,2.74s-1.3,1.47-2.23,1.9l3.52,6h-3.39Zm-5.59-12.98v4.71h3.23c.59,0,1.1-.23,1.52-.69,.42-.46,.64-1.02,.64-1.67s-.21-1.21-.64-1.66c-.42-.46-.93-.68-1.52-.68h-3.23Z"/></g></g></g><g><circle class="g" cx="257.63" cy="20.6" r="20.6"/><line class="n" x1="250.55" y1="27.68" x2="264.7" y2="13.53"/><line class="n" x1="264.7" y1="27.68" x2="250.55" y2="13.53"/></g></g></g></g></g></g></svg>