<?xml version="1.0" encoding="UTF-8"?><svg xmlns="http://www.w3.org/2000/svg" viewBox="0 0 278.23 225.41"><defs><style>.f{fill:#fcfcfc;}.g{fill:#fff;}.h{fill:#e9a72d;}.i{fill:#fbedd5;}.j{fill:#19192d;}.k{fill:#2e2e4f;}.l{opacity:.2;}.m{isolation:isolate;}.n{fill:none;stroke:#111;stroke-linecap:round;stroke-linejoin:round;stroke-width:3px;}</style></defs><g id="a"/><g id="b"><g id="c"><g id="d"><g id="e"><g><g><rect class="k" y="6.73" width="265.02" height="218.68" rx="31.86" ry="31.86"/><g class="m" transform="translate(77.45 97.4)"><g class="m"><path class="h" d="M98.02,94.49c-2.2,2.21-4.88,3.32-8.05,3.32s-5.85-1.1-8.04-3.32c-2.19-2.21-3.28-4.89-3.28-8.04s1.09-5.85,3.28-8.05c2.19-2.2,4.87-3.3,8.04-3.3s5.85,1.1,8.05,3.3c2.2,2.2,3.3,4.89,3.3,8.05s-1.1,5.83-3.3,8.04Zm-14.08-1.99c1.62,1.64,3.62,2.46,6.02,2.46s4.4-.82,6.02-2.46c1.62-1.64,2.42-3.65,2.42-6.05s-.81-4.45-2.42-6.08c-1.62-1.64-3.62-2.46-6.02-2.46s-4.41,.82-6.02,2.46c-1.62,1.64-2.42,3.67-2.42,6.08s.81,4.42,2.42,6.05Z"/><path class="h" d="M120.87,90.52v2.72h-2.66v4.16h-2.91v-4.16h-11.17v-2.72l7.85-15.01h3.13l-7.85,15.01h8.04v-6.19h2.91v6.19h2.66Z"/></g><g class="m"><path class="h" d="M133.38,75.5c2.98,0,5.46,1.06,7.43,3.18s2.96,4.71,2.96,7.77-.99,5.66-2.96,7.77-4.45,3.17-7.43,3.17h-8.54v-21.9h8.54Zm0,19.14c2.23,0,4.06-.78,5.47-2.35,1.42-1.56,2.13-3.51,2.13-5.85s-.71-4.29-2.13-5.85c-1.42-1.56-3.24-2.35-5.47-2.35h-5.63v16.39h5.63Z"/></g><g class="m"><path class="h" d="M155.13,84.47c1.67,.31,3.04,1.03,4.1,2.16s1.6,2.56,1.6,4.29c0,2.13-.73,3.81-2.19,5.04s-3.23,1.84-5.32,1.84c-1.67,0-3.15-.38-4.44-1.14-1.29-.76-2.21-1.86-2.75-3.3l2.44-1.44c.65,2.02,2.23,3.03,4.75,3.03,1.36,0,2.46-.35,3.32-1.06,.86-.71,1.28-1.7,1.28-2.97s-.43-2.27-1.28-2.99c-.85-.72-1.96-1.08-3.32-1.08h-.75l-1.16-1.78,5.07-6.85h-9.73v-2.72h13.14l-.02,2.55-4.75,6.42Z"/></g><g class="m"><path class="h" d="M171.34,83.07c2.19,0,3.99,.68,5.41,2.05,1.42,1.37,2.13,3.13,2.13,5.3s-.71,3.94-2.13,5.32c-1.42,1.38-3.22,2.06-5.41,2.06s-4.02-.69-5.43-2.06c-1.41-1.38-2.11-3.15-2.11-5.32,0-1.69,.44-3.15,1.31-4.38l7.04-10.54h3.32l-5.17,7.63c.46-.04,.81-.06,1.04-.06Zm-3.36,10.68c.87,.84,1.99,1.27,3.36,1.27s2.5-.42,3.36-1.27c.87-.84,1.3-1.95,1.3-3.33s-.43-2.48-1.3-3.32c-.87-.83-1.99-1.25-3.36-1.25s-2.52,.42-3.38,1.25-1.28,1.94-1.28,3.32,.43,2.49,1.3,3.33Z"/></g><g class="m"><path class="h" d="M179.38,75.5h13.67v2.6l-7.98,19.3h-3.03l7.91-19.14h-10.57v-2.75Z"/></g></g><g class="m" transform="translate(24.22 59.72)"><g class="m"><path class="f" d="M38.14,59.72l-4.39-7.53h-3.24v7.53h-4.28v-21.7h8.68c2,0,3.71,.7,5.12,2.11,1.41,1.41,2.11,3.1,2.11,5.08,0,1.34-.38,2.59-1.15,3.74-.76,1.15-1.78,2.01-3.04,2.59l4.8,8.18h-4.62Zm-7.63-17.7v6.42h4.4c.81,0,1.5-.31,2.08-.95,.58-.63,.87-1.39,.87-2.28s-.29-1.64-.87-2.26c-.58-.62-1.27-.93-2.08-.93h-4.4Z"/></g><g class="m"><path class="f" d="M58.45,57.78c-1.59,1.58-3.53,2.37-5.83,2.37s-4.23-.79-5.81-2.37-2.37-3.52-2.37-5.81,.79-4.23,2.37-5.81,3.52-2.37,5.81-2.37,4.24,.79,5.83,2.37c1.59,1.58,2.39,3.52,2.39,5.81s-.8,4.23-2.39,5.81Zm-8.82-2.74c.8,.81,1.79,1.21,2.99,1.21s2.2-.4,3.01-1.21c.81-.81,1.21-1.83,1.21-3.07s-.4-2.26-1.21-3.07c-.81-.81-1.81-1.21-3.01-1.21s-2.2,.4-2.99,1.21c-.8,.81-1.19,1.83-1.19,3.07s.4,2.26,1.19,3.07Z"/></g><g class="m"><path class="f" d="M73.1,48.06h-3.5v6.45c0,.54,.13,.93,.4,1.18,.27,.25,.66,.39,1.18,.42s1.16,.03,1.92-.02v3.63c-2.75,.31-4.69,.05-5.81-.78-1.13-.83-1.69-2.3-1.69-4.43v-6.45h-2.7v-3.84h2.7v-3.13l4-1.21v4.34h3.5v3.84Z"/></g><g class="m"><path class="f" d="M89.6,57.78c-1.59,1.58-3.53,2.37-5.83,2.37s-4.23-.79-5.81-2.37-2.37-3.52-2.37-5.81,.79-4.23,2.37-5.81,3.52-2.37,5.81-2.37,4.24,.79,5.83,2.37c1.59,1.58,2.39,3.52,2.39,5.81s-.8,4.23-2.39,5.81Zm-8.82-2.74c.8,.81,1.79,1.21,2.99,1.21s2.2-.4,3.01-1.21c.81-.81,1.21-1.83,1.21-3.07s-.4-2.26-1.21-3.07c-.81-.81-1.81-1.21-3.01-1.21s-2.2,.4-2.99,1.21c-.8,.81-1.19,1.83-1.19,3.07s.4,2.26,1.19,3.07Z"/><path class="f" d="M99.73,46.89c.37-.99,.99-1.74,1.84-2.23,.86-.5,1.81-.74,2.87-.74v4.46c-1.22-.14-2.31,.1-3.27,.74s-1.44,1.7-1.44,3.19v7.41h-4v-15.5h4v2.67Z"/><path class="f" d="M125.4,43.79c2.09,0,3.87,.79,5.35,2.37s2.22,3.52,2.22,5.81-.74,4.23-2.22,5.81-3.26,2.37-5.35,2.37-3.84-.75-5.02-2.26v1.83h-4v-21.7h4v8.03c1.18-1.51,2.85-2.26,5.02-2.26Zm-3.81,11.33c.81,.82,1.83,1.22,3.07,1.22s2.27-.41,3.08-1.22,1.22-1.87,1.22-3.15-.41-2.33-1.22-3.15-1.84-1.22-3.08-1.22-2.26,.41-3.07,1.22c-.81,.82-1.21,1.87-1.21,3.15s.4,2.33,1.21,3.15Z"/></g><g class="m"><path class="f" d="M140.1,53.61c.54,1.94,1.99,2.91,4.37,2.91,1.53,0,2.69-.52,3.47-1.55l3.22,1.86c-1.53,2.21-3.78,3.32-6.76,3.32-2.56,0-4.62-.77-6.17-2.32-1.55-1.55-2.33-3.5-2.33-5.86s.76-4.28,2.29-5.84c1.53-1.56,3.49-2.34,5.89-2.34,2.27,0,4.15,.79,5.63,2.36,1.48,1.57,2.22,3.51,2.22,5.83,0,.52-.05,1.06-.15,1.64h-11.69Zm-.06-3.1h7.9c-.23-1.05-.7-1.84-1.41-2.36-.71-.52-1.52-.77-2.43-.77-1.07,0-1.96,.27-2.67,.82-.7,.55-1.17,1.32-1.39,2.31Z"/></g><g class="m"><path class="f" d="M167.32,44.22h4v15.5h-4v-1.83c-1.2,1.51-2.88,2.26-5.05,2.26s-3.84-.79-5.32-2.37-2.22-3.52-2.22-5.81,.74-4.23,2.22-5.81,3.25-2.37,5.32-2.37c2.17,0,3.85,.75,5.05,2.26v-1.83Zm-7.38,10.9c.81,.82,1.83,1.22,3.07,1.22s2.27-.41,3.08-1.22,1.22-1.87,1.22-3.15-.41-2.33-1.22-3.15-1.84-1.22-3.08-1.22-2.26,.41-3.07,1.22c-.81,.82-1.21,1.87-1.21,3.15s.4,2.33,1.21,3.15Z"/><path class="f" d="M179.87,46.89c.37-.99,.99-1.74,1.84-2.23,.86-.5,1.81-.74,2.87-.74v4.46c-1.22-.14-2.31,.1-3.27,.74s-1.44,1.7-1.44,3.19v7.41h-4v-15.5h4v2.67Z"/><path class="f" d="M189.82,42.36c-.66,0-1.24-.24-1.72-.73-.49-.49-.73-1.06-.73-1.72s.24-1.24,.73-1.74,1.06-.74,1.72-.74,1.27,.25,1.75,.74c.49,.5,.73,1.08,.73,1.74s-.24,1.23-.73,1.72-1.07,.73-1.75,.73Zm-1.98,17.36v-15.5h4v15.5h-4Z"/><path class="f" d="M205.04,43.79c1.69,0,3.09,.57,4.2,1.71,1.11,1.14,1.66,2.71,1.66,4.71v9.52h-4v-9.02c0-1.03-.28-1.82-.84-2.37-.56-.55-1.3-.82-2.23-.82-1.03,0-1.86,.32-2.48,.96s-.93,1.6-.93,2.88v8.37h-4v-15.5h4v1.74c.97-1.45,2.51-2.17,4.62-2.17Z"/></g><g class="m"><path class="f" d="M227.11,44.22h3.91v14.76c0,2.4-.79,4.23-2.37,5.49-1.58,1.26-3.49,1.89-5.72,1.89-1.67,0-3.15-.32-4.42-.96-1.27-.64-2.25-1.58-2.93-2.82l3.41-1.95c.79,1.45,2.14,2.17,4.06,2.17,1.26,0,2.25-.33,2.98-.99,.72-.66,1.08-1.6,1.08-2.82v-1.67c-1.18,1.57-2.83,2.36-4.96,2.36s-4.03-.77-5.5-2.31c-1.48-1.54-2.22-3.42-2.22-5.63s.74-4.06,2.23-5.61c1.49-1.55,3.32-2.32,5.49-2.32s3.78,.79,4.96,2.36v-1.92Zm-7.46,10.56c.82,.8,1.85,1.19,3.12,1.19s2.3-.4,3.12-1.19c.82-.8,1.22-1.81,1.22-3.05s-.41-2.23-1.22-3.02c-.82-.79-1.86-1.19-3.12-1.19s-2.3,.4-3.12,1.19c-.82,.8-1.22,1.8-1.22,3.02s.41,2.26,1.22,3.05Z"/></g><g class="m"><path class="f" d="M239.14,48.62c0,.41,.27,.75,.82,1.01,.55,.26,1.21,.49,2,.68,.79,.2,1.57,.44,2.36,.74s1.45,.8,2,1.5c.55,.7,.82,1.58,.82,2.63,0,1.59-.59,2.82-1.78,3.67s-2.67,1.29-4.45,1.29c-3.18,0-5.35-1.23-6.51-3.69l3.47-1.95c.45,1.34,1.47,2.01,3.04,2.01,1.43,0,2.14-.44,2.14-1.33,0-.41-.27-.75-.82-1.01-.55-.26-1.21-.49-2-.7-.79-.21-1.57-.46-2.36-.77-.79-.31-1.45-.8-2-1.47-.55-.67-.82-1.51-.82-2.53,0-1.53,.56-2.73,1.69-3.61,1.13-.88,2.53-1.32,4.2-1.32,1.26,0,2.41,.28,3.44,.85,1.03,.57,1.85,1.38,2.45,2.43l-3.41,1.86c-.5-1.05-1.32-1.58-2.48-1.58-.52,0-.95,.11-1.29,.34-.34,.23-.51,.54-.51,.93Z"/></g></g></g><g><rect class="h" x="36.92" y="146.92" width="195.26" height="35.34" rx="16.42" ry="16.42"/><g class="l"><path class="i" d="M215.25,140.8c12.21,0,22.12,9.9,22.12,22.12v3.35c0,12.21-9.9,22.12-22.12,22.12H52.6c-12.21,0-22.12-9.9-22.12-22.12v-3.35c0-12.21,9.9-22.12,22.12-22.12H215.25m0-17H52.6c-21.57,0-39.12,17.55-39.12,39.12v3.35c0,21.57,17.55,39.12,39.12,39.12H215.25c21.57,0,39.12-17.55,39.12-39.12v-3.35c0-21.57-17.55-39.12-39.12-39.12h0Z"/></g><g class="m" transform="translate(91.8 172.74)"><g class="m"><path class="j" d="M102.01,172.74l-3.22-5.52h-2.38v5.52h-3.14v-15.91h6.36c1.47,0,2.72,.52,3.75,1.55,1.03,1.03,1.55,2.27,1.55,3.73,0,.99-.28,1.9-.84,2.74s-1.3,1.47-2.23,1.9l3.52,6h-3.39Zm-5.59-12.98v4.71h3.23c.59,0,1.1-.23,1.52-.69,.42-.46,.64-1.02,.64-1.67s-.21-1.21-.64-1.66c-.42-.46-.93-.68-1.52-.68h-3.23Z"/><path class="j" d="M112.64,169.74h6.71v3h-9.84v-15.91h9.73v3h-6.59v3.39h6.02v2.95h-6.02v3.57Z"/></g><g class="m"><path class="j" d="M129.75,156.83c1.53,0,2.82,.52,3.86,1.55,1.05,1.03,1.57,2.3,1.57,3.8s-.52,2.77-1.57,3.8c-1.05,1.03-2.33,1.55-3.86,1.55h-2.8v5.23h-3.14v-15.91h5.93Zm0,7.75c.67,0,1.22-.23,1.66-.69,.44-.46,.66-1.03,.66-1.72s-.22-1.27-.66-1.73c-.44-.46-.99-.68-1.66-.68h-2.8v4.82h2.8Z"/></g><g class="m"><path class="j" d="M148.35,172.74l-1.01-2.86h-6.54l-.95,2.86h-3.39l5.57-15.91h3.89l5.61,15.91h-3.18Zm-6.53-5.8h4.48l-2.3-6.5-2.18,6.5Z"/><path class="j" d="M155.34,156.83h3.14v15.91h-3.14v-15.91Z"/><path class="j" d="M172.44,172.74l-3.22-5.52h-2.38v5.52h-3.14v-15.91h6.36c1.47,0,2.72,.52,3.75,1.55,1.03,1.03,1.55,2.27,1.55,3.73,0,.99-.28,1.9-.84,2.74s-1.3,1.47-2.23,1.9l3.52,6h-3.39Zm-5.59-12.98v4.71h3.23c.59,0,1.1-.23,1.52-.69,.42-.46,.64-1.02,.64-1.67s-.21-1.21-.64-1.66c-.42-.46-.93-.68-1.52-.68h-3.23Z"/></g></g></g><g><circle class="g" cx="257.63" cy="20.6" r="20.6"/><line class="n" x1="250.55" y1="27.68" x2="264.7" y2="13.53"/><line class="n" x1="264.7" y1="27.68" x2="250.55" y2="13.53"/></g></g></g></g></g></g></svg>