<?xml version="1.0" encoding="utf-8"?>
<!-- Generator: Adobe Illustrator 26.3.1, SVG Export Plug-In . SVG Version: 6.00 Build 0)  -->
<svg version="1.1" id="Layer_1" xmlns="http://www.w3.org/2000/svg" xmlns:xlink="http://www.w3.org/1999/xlink" x="0px" y="0px"
	 viewBox="0 0 1923.1 1080.9" style="enable-background:new 0 0 1923.1 1080.9;" xml:space="preserve">
<style type="text/css">
	.st0{fill:#19192D;}
	.st1{fill:none;stroke:#FFFFFF;stroke-width:6;stroke-miterlimit:10;}
	.st2{fill:none;stroke:#FFFFFF;stroke-miterlimit:10;}
	.st3{fill:#FFFFFF;}
	.st4{opacity:0.4;}
	.st5{fill:none;stroke:#FFFFFF;stroke-width:5;stroke-miterlimit:10;}
	.st6{enable-background:new    ;}
	.st7{fill:#E9A72D;}
	.st8{opacity:0.2;}
	.st9{fill:#FBEDD5;}
	.st10{fill:#54B5B1;}
	.st11{opacity:5.000000e-02;}
	.st12{fill:none;stroke:#19192D;stroke-width:4;stroke-miterlimit:10;}
</style>
<g id="a">
</g>
<g id="b">
	<g id="c">
		<rect x="2.4" class="st0" width="1920" height="1080"/>
		<path class="st1" d="M124.7,83.3h1675.5c24.1,0,43.6,19.5,43.6,43.6v826.3c0,24.1-19.5,43.6-43.6,43.6H124.7
			c-24.1,0-43.6-19.5-43.6-43.6V126.8C81.1,102.8,100.6,83.3,124.7,83.3z"/>
		<g>
			<g>
				<line class="st2" x1="962.4" y1="0" x2="962.4" y2="83.3"/>
				<line class="st2" x1="962.4" y1="997.7" x2="962.4" y2="1080.9"/>
			</g>
			<line class="st2" x1="0" y1="540.5" x2="83.3" y2="540.5"/>
			<line class="st2" x1="1839.8" y1="540.5" x2="1923.1" y2="540.5"/>
		</g>
		<g>
			<g>
				<circle class="st3" cx="51" cy="63.9" r="6.8"/>
				<circle class="st3" cx="51" cy="1019.9" r="6.8"/>
			</g>
			<g>
				<circle class="st3" cx="1882.5" cy="63.9" r="6.8"/>
				<circle class="st3" cx="1882.5" cy="1019.9" r="6.8"/>
			</g>
		</g>
		<g class="st4">
			<g>
				<path class="st3" d="M261.6,360.2H276v4.2h-18.8v-33.4h4.4V360.2z"/>
				<path class="st3" d="M310.7,360c-3.4,3.4-7.5,5-12.3,5s-8.9-1.7-12.2-5c-3.3-3.4-5-7.5-5-12.2s1.7-8.9,5-12.3
					c3.3-3.4,7.4-5,12.2-5s8.9,1.7,12.3,5c3.4,3.4,5,7.5,5,12.3S314.1,356.6,310.7,360z M289.3,357c2.5,2.5,5.5,3.7,9.2,3.7
					s6.7-1.2,9.2-3.7c2.5-2.5,3.7-5.6,3.7-9.2s-1.2-6.8-3.7-9.3c-2.5-2.5-5.5-3.7-9.2-3.7s-6.7,1.2-9.2,3.7
					c-2.5,2.5-3.7,5.6-3.7,9.3S286.8,354.5,289.3,357z"/>
				<path class="st3" d="M341.6,365c-5,0-9.2-1.7-12.5-5s-4.9-7.4-4.9-12.3s1.6-9,4.9-12.3s7.5-5,12.5-5c3,0,5.9,0.7,8.4,2.2
					c2.6,1.5,4.5,3.4,6,5.9l-3.9,2.2c-1-1.8-2.4-3.3-4.3-4.4c-1.9-1.1-4-1.6-6.3-1.6c-3.9,0-7,1.2-9.4,3.7c-2.4,2.5-3.6,5.6-3.6,9.3
					s1.2,6.8,3.6,9.2s5.6,3.7,9.4,3.7c2.3,0,4.4-0.5,6.3-1.6c1.9-1.1,3.3-2.5,4.3-4.4l3.9,2.2c-1.4,2.5-3.4,4.5-6,5.9
					C347.4,364.3,344.6,365,341.6,365L341.6,365z"/>
				<path class="st3" d="M387.3,364.4l-2.7-7.5h-15l-2.7,7.5h-4.7l12.5-33.4h5l12.5,33.4H387.3L387.3,364.4z M371.1,352.8h12
					l-6-16.5L371.1,352.8L371.1,352.8z"/>
				<path class="st3" d="M419.7,331v4.2h-9.9v29.2h-4.4v-29.2h-9.8V331H419.7L419.7,331z"/>
				<path class="st3" d="M428.9,331h4.4v33.4h-4.4V331z"/>
				<path class="st3" d="M466,331h4.4v33.4h-3.6l-17.2-24.9v24.9h-4.4V331h3.4l17.3,25.1L466,331L466,331z"/>
				<path class="st3" d="M514.5,347.9v2c0,4.4-1.5,8-4.5,10.9c-3,2.9-7,4.3-11.9,4.3s-9.3-1.7-12.6-5c-3.3-3.4-5-7.5-5-12.3
					s1.7-8.9,5-12.3c3.3-3.4,7.5-5,12.5-5c3.1,0,5.9,0.7,8.5,2.2c2.6,1.5,4.6,3.4,6,5.8l-3.8,2.2c-1-1.8-2.4-3.3-4.3-4.4
					c-1.9-1.1-4-1.6-6.4-1.6c-3.8,0-7,1.2-9.4,3.7c-2.5,2.5-3.7,5.6-3.7,9.3s1.2,6.8,3.7,9.2c2.5,2.5,5.6,3.7,9.6,3.7
					c3.3,0,6-0.8,8.1-2.5c2.1-1.6,3.3-3.8,3.8-6.4h-12.2v-4L514.5,347.9L514.5,347.9z"/>
				<path class="st3" d="M317.6,392.5h-14.8v10.8H317v4.2h-14.2v14.2h-4.4v-33.4h19.2L317.6,392.5L317.6,392.5z"/>
				<path class="st3" d="M348.3,421.6l-2.7-7.5h-15l-2.7,7.5h-4.7l12.5-33.4h5l12.5,33.4H348.3L348.3,421.6z M332.1,410h12l-6-16.5
					L332.1,410L332.1,410z"/>
				<path class="st3" d="M381.9,419c-2.3,2.1-5.3,3.2-9,3.2s-6.7-1.1-9-3.2s-3.5-5-3.5-8.6v-22.2h4.4v22c0,2.4,0.7,4.2,2.1,5.6
					s3.4,2.1,6,2.1s4.6-0.7,6-2.1c1.4-1.4,2.1-3.2,2.1-5.6v-22h4.4v22.2C385.4,414,384.2,416.9,381.9,419L381.9,419z"/>
				<path class="st3" d="M401.4,417.5h14.4v4.2h-18.8v-33.4h4.4V417.5z"/>
				<path class="st3" d="M442.9,388.3v4.2h-9.9v29.2h-4.4v-29.2h-9.8v-4.2H442.9L442.9,388.3z"/>
				<path class="st3" d="M461.9,422.3c-3.1,0-5.8-0.7-8-2.2s-3.8-3.5-4.6-6l3.8-2.2c1.3,4,4.3,6.1,8.9,6.1c2.3,0,4-0.5,5.2-1.4
					s1.8-2.2,1.8-3.7s-0.6-2.8-1.8-3.6c-1.2-0.8-3.2-1.6-6-2.5c-1.4-0.5-2.5-0.8-3.2-1.1c-0.7-0.2-1.7-0.7-2.8-1.2
					c-1.1-0.6-1.9-1.1-2.5-1.7c-0.5-0.6-1-1.4-1.5-2.3c-0.4-1-0.6-2-0.6-3.2c0-2.9,1-5.2,3-6.9s4.5-2.5,7.4-2.5c2.6,0,4.9,0.7,6.9,2
					s3.4,3.1,4.4,5.3l-3.7,2.1c-1.4-3.4-4-5.1-7.6-5.1c-1.8,0-3.3,0.4-4.4,1.3c-1.1,0.9-1.7,2.1-1.7,3.6s0.5,2.6,1.6,3.3
					c1,0.8,2.9,1.6,5.4,2.4c0.9,0.3,1.5,0.5,1.9,0.7s1,0.4,1.8,0.6s1.4,0.5,1.8,0.7s0.9,0.5,1.5,0.8s1.1,0.7,1.5,1
					c0.3,0.3,0.7,0.7,1.1,1.2s0.7,0.9,0.9,1.4s0.4,1,0.5,1.6s0.2,1.3,0.2,2c0,2.9-1.1,5.2-3.2,7
					C468.1,421.4,465.4,422.3,461.9,422.3L461.9,422.3z"/>
			</g>
		</g>
		<g class="st4">
			<path class="st5" d="M463.5,223.9h134.1c36.8,0,66.7,29.9,66.7,66.7v158.3c0,36.8-29.8,66.7-66.7,66.7H171.1
				c-36.8,0-66.7-29.9-66.7-66.7V290.6c0-36.8,29.9-66.7,66.7-66.7h101.8"/>
			<line class="st1" x1="463.5" y1="196.7" x2="463.5" y2="254.8"/>
			<line class="st1" x1="276.9" y1="196.7" x2="276.9" y2="254.8"/>
			<g>
				<circle class="st3" cx="478.2" cy="210.9" r="2.5"/>
				<circle class="st3" cx="478.2" cy="240.5" r="2.5"/>
			</g>
			<g>
				<circle class="st3" cx="260.2" cy="210.9" r="2.5"/>
				<circle class="st3" cx="260.2" cy="240.5" r="2.5"/>
			</g>
		</g>
		<path class="st5" d="M1061,223.9h112.7c36.8,0,66.7,29.9,66.7,66.7v158.3c0,36.8-29.8,66.7-66.7,66.7H747.2
			c-36.8,0-66.7-29.9-66.7-66.7V290.6c0-36.8,29.8-66.7,66.7-66.7h111"/>
		<line class="st1" x1="1061" y1="196.7" x2="1061" y2="254.8"/>
		<line class="st1" x1="859.2" y1="196.7" x2="859.2" y2="254.8"/>
		<g>
			<circle class="st3" cx="1079.6" cy="210.9" r="2.5"/>
			<circle class="st3" cx="1079.6" cy="240.5" r="2.5"/>
		</g>
		<g>
			<circle class="st3" cx="842.5" cy="210.9" r="2.5"/>
			<circle class="st3" cx="842.5" cy="240.5" r="2.5"/>
		</g>
		<g class="st4">
			<g class="st6">
				<path class="st7" d="M347.5,265c-9.4,0-16.7-3.6-22.1-10.7c-5.3-7.1-8-16.6-8-28.4c0-11.8,2.7-21.3,8-28.4
					c5.3-7.1,12.7-10.7,22.1-10.7c9.5,0,16.8,3.6,22.1,10.7c5.3,7.1,8,16.6,8,28.4c0,11.8-2.7,21.3-8,28.4
					C364.4,261.4,357,265,347.5,265z M336.1,244.2c2.6,4.2,6.4,6.3,11.4,6.3c5,0,8.8-2.1,11.4-6.3c2.6-4.2,3.9-10.3,3.9-18.3
					c0-8-1.3-14.1-3.9-18.4c-2.6-4.2-6.4-6.3-11.4-6.3c-5,0-8.8,2.1-11.4,6.3c-2.6,4.2-3.9,10.4-3.9,18.4
					C332.3,233.9,333.6,240,336.1,244.2z"/>
			</g>
			<g class="st6">
				<path class="st7" d="M408.3,188.2h12.9v75.2h-14.8v-59.5l-14.2,4l-3.7-12.7L408.3,188.2z"/>
			</g>
		</g>
		<g class="st6">
			<path class="st7" d="M926.5,265c-9.4,0-16.7-3.6-22.1-10.7c-5.3-7.1-8-16.6-8-28.4c0-11.8,2.7-21.3,8-28.4
				c5.3-7.1,12.7-10.7,22.1-10.7c9.5,0,16.8,3.6,22.1,10.7c5.3,7.1,8,16.6,8,28.4c0,11.8-2.7,21.3-8,28.4
				C943.4,261.4,936,265,926.5,265z M915.1,244.2c2.6,4.2,6.4,6.3,11.4,6.3c5,0,8.8-2.1,11.4-6.3c2.6-4.2,3.9-10.3,3.9-18.3
				c0-8-1.3-14.1-3.9-18.4c-2.6-4.2-6.4-6.3-11.4-6.3c-5,0-8.8,2.1-11.4,6.3c-2.6,4.2-3.9,10.4-3.9,18.4
				C911.3,233.9,912.6,240,915.1,244.2z"/>
		</g>
		<g class="st6">
			<path class="st7" d="M969.4,263.5v-11.1l25.7-26.4c5.7-6,8.6-11,8.6-15c0-2.9-0.9-5.3-2.7-7.1c-1.8-1.8-4.2-2.7-7-2.7
				c-5.7,0-9.9,2.9-12.6,8.8l-12.5-7.3c2.4-5.2,5.8-9.1,10.2-11.8c4.4-2.7,9.3-4.1,14.6-4.1c6.8,0,12.6,2.1,17.5,6.4
				c4.9,4.3,7.3,10,7.3,17.2c0,7.8-4.1,15.8-12.3,24l-14.8,14.8h28.3v14.3H969.4z"/>
		</g>
		<g>
			<g class="st8">
				<path class="st9" d="M1026.2,487.7c14.7,0,26.6,11.9,26.6,26.6v5c0,14.7-11.9,26.6-26.6,26.6H902.3c-14.7,0-26.6-11.9-26.6-26.6
					v-5c0-14.7,11.9-26.6,26.6-26.6L1026.2,487.7 M1026.2,457.7H902.3c-31.2,0-56.6,25.4-56.6,56.6v5c0,31.2,25.4,56.6,56.6,56.6
					h123.9c31.2,0,56.6-25.4,56.6-56.6v-5C1082.8,483.1,1057.4,457.7,1026.2,457.7L1026.2,457.7z"/>
			</g>
			<path class="st7" d="M904.3,495.2h121c10.9,0,19.8,8.8,19.8,19.8v3.7c0,10.9-8.8,19.8-19.8,19.8h-121c-10.9,0-19.8-8.8-19.8-19.8
				v-3.7C884.5,504,893.4,495.2,904.3,495.2z"/>
			<g class="st6">
				<path class="st0" d="M937.3,507.3c1.9,0,3.4,0.6,4.7,1.9c1.3,1.3,1.9,2.8,1.9,4.6s-0.6,3.4-1.9,4.6s-2.9,1.9-4.7,1.9h-3.4v6.4
					h-3.8v-19.5H937.3z M937.3,516.8c0.8,0,1.5-0.3,2-0.8c0.5-0.6,0.8-1.3,0.8-2.1c0-0.9-0.3-1.6-0.8-2.1c-0.5-0.6-1.2-0.8-2-0.8
					h-3.4v5.9H937.3z"/>
			</g>
			<g class="st6">
				<path class="st0" d="M953.1,523.1h7.4v3.7h-11.3v-19.5h3.8V523.1z"/>
			</g>
			<g class="st6">
				<path class="st0" d="M978.8,526.8l-1.2-3.5h-8l-1.2,3.5h-4.1l6.8-19.5h4.8l6.9,19.5H978.8z M970.8,519.7h5.5l-2.8-8L970.8,519.7
					z"/>
			</g>
			<g class="st6">
				<path class="st0" d="M1000.3,507.3l-6.7,11.9v7.6h-3.8v-7.6l-6.6-11.9h4.3l4.2,8.1l4.2-8.1H1000.3z"/>
			</g>
		</g>
		<g>
			<path class="st10" d="M293.8,495.2h195.9c10.9,0,19.8,8.8,19.8,19.8v3.7c0,10.9-8.8,19.8-19.8,19.8H293.8
				c-10.9,0-19.8-8.8-19.8-19.8v-3.7C274,504,282.9,495.2,293.8,495.2z"/>
			<g class="st6">
				<path class="st0" d="M323.2,527.1c-2.9,0-5.3-1-7.3-2.9c-1.9-1.9-2.9-4.3-2.9-7.2c0-2.9,1-5.3,2.9-7.2c1.9-1.9,4.3-2.9,7.3-2.9
					c1.8,0,3.4,0.4,4.9,1.2c1.5,0.8,2.7,1.9,3.5,3.4l-3.3,1.9c-0.5-0.9-1.2-1.6-2.1-2c-0.9-0.5-1.9-0.7-3-0.7
					c-1.9,0-3.4,0.6-4.6,1.8s-1.7,2.7-1.7,4.6c0,1.9,0.6,3.4,1.7,4.6s2.7,1.8,4.6,1.8c1.1,0,2.1-0.2,3-0.7c0.9-0.5,1.6-1.2,2-2
					l3.3,1.9c-0.8,1.4-2,2.5-3.5,3.4C326.6,526.7,324.9,527.1,323.2,527.1z"/>
			</g>
			<g class="st6">
				<path class="st0" d="M352.9,524.2c-2,2-4.4,2.9-7.2,2.9c-2.8,0-5.2-1-7.2-2.9c-2-2-2.9-4.4-2.9-7.2s1-5.2,2.9-7.2
					c2-2,4.3-2.9,7.2-2.9c2.8,0,5.2,1,7.2,2.9c2,2,2.9,4.4,2.9,7.2S354.8,522.3,352.9,524.2z M341.2,521.6c1.2,1.2,2.7,1.8,4.5,1.8
					s3.3-0.6,4.5-1.8c1.2-1.2,1.8-2.7,1.8-4.6c0-1.9-0.6-3.4-1.8-4.6c-1.2-1.2-2.7-1.8-4.5-1.8s-3.3,0.6-4.5,1.8s-1.8,2.7-1.8,4.6
					C339.4,518.9,340,520.4,341.2,521.6z"/>
				<path class="st0" d="M380.3,507.3v19.5h-3.8v-12.6l-5.5,9l-0.4,0l-5.5-9v12.6h-3.8v-19.5h3.9l5.6,9.2l5.6-9.2H380.3z"/>
				<path class="st0" d="M394,507.3c1.9,0,3.4,0.6,4.7,1.9c1.3,1.3,1.9,2.8,1.9,4.6s-0.6,3.4-1.9,4.6s-2.9,1.9-4.7,1.9h-3.4v6.4
					h-3.8v-19.5H394z M394,516.8c0.8,0,1.5-0.3,2-0.8c0.5-0.6,0.8-1.3,0.8-2.1c0-0.9-0.3-1.6-0.8-2.1c-0.5-0.6-1.2-0.8-2-0.8h-3.4
					v5.9H394z"/>
				<path class="st0" d="M409.8,523.1h7.4v3.7h-11.3v-19.5h3.8V523.1z"/>
				<path class="st0" d="M426,523.1h8.2v3.7h-12v-19.5H434v3.7H426v4.1h7.4v3.6H426V523.1z"/>
				<path class="st0" d="M452.5,507.3v3.7h-5.3v15.8h-3.8V511h-5.2v-3.7H452.5z"/>
				<path class="st0" d="M461.3,523.1h8.2v3.7h-12v-19.5h11.9v3.7h-8.1v4.1h7.4v3.6h-7.4V523.1z"/>
			</g>
		</g>
		<g>
			<path class="st3" d="M816.9,323c4.5,0,8.3,1.6,11.3,4.8s4.5,7.2,4.5,11.9s-1.5,8.6-4.5,11.9c-3,3.2-6.8,4.8-11.3,4.8h-13V323
				H816.9z M816.9,352.2c3.4,0,6.2-1.2,8.3-3.6c2.2-2.4,3.2-5.4,3.2-8.9s-1.1-6.5-3.2-8.9c-2.2-2.4-4.9-3.6-8.3-3.6h-8.6v25
				L816.9,352.2L816.9,352.2z"/>
			<path class="st3" d="M842.9,323h4.4v33.4h-4.4V323z"/>
			<path class="st3" d="M881.2,356.4l-2.7-7.5h-15l-2.7,7.5H856l12.5-33.4h5l12.5,33.4H881.2L881.2,356.4z M865,344.8h12l-6-16.5
				L865,344.8L865,344.8z"/>
			<path class="st3" d="M925.6,339.9v2c0,4.4-1.5,8-4.5,10.9s-7,4.3-11.9,4.3s-9.3-1.7-12.6-5s-5-7.5-5-12.3s1.7-8.9,5-12.3
				c3.3-3.4,7.5-5,12.5-5c3.1,0,5.9,0.7,8.5,2.2c2.6,1.5,4.6,3.4,6,5.8l-3.8,2.2c-1-1.8-2.4-3.3-4.3-4.4c-1.9-1.1-4-1.6-6.4-1.6
				c-3.8,0-7,1.2-9.4,3.7c-2.5,2.5-3.7,5.6-3.7,9.3s1.2,6.8,3.7,9.2c2.5,2.5,5.7,3.7,9.6,3.7c3.3,0,6-0.8,8.1-2.5
				c2.1-1.6,3.3-3.8,3.8-6.4H909v-4L925.6,339.9L925.6,339.9z"/>
			<path class="st3" d="M956.5,323h4.4v33.4h-3.6l-17.2-24.9v24.9h-4.4V323h3.4l17.3,25.1L956.5,323L956.5,323z"/>
			<path class="st3" d="M1000.7,352c-3.3,3.4-7.5,5-12.3,5s-8.9-1.7-12.2-5c-3.3-3.4-5-7.5-5-12.2s1.7-8.9,5-12.3
				c3.3-3.4,7.4-5,12.2-5s8.9,1.7,12.3,5c3.3,3.4,5,7.5,5,12.3S1004,348.6,1000.7,352z M979.2,349c2.5,2.5,5.5,3.7,9.2,3.7
				s6.7-1.2,9.2-3.7c2.5-2.5,3.7-5.6,3.7-9.2s-1.2-6.8-3.7-9.3c-2.5-2.5-5.5-3.7-9.2-3.7s-6.7,1.2-9.2,3.7c-2.5,2.5-3.7,5.6-3.7,9.3
				S976.7,346.5,979.2,349z"/>
			<path class="st3" d="M1025.4,357c-3.1,0-5.8-0.7-8-2.2c-2.2-1.5-3.8-3.5-4.7-6l3.8-2.2c1.3,4,4.3,6.1,8.9,6.1
				c2.3,0,4-0.5,5.2-1.4s1.8-2.2,1.8-3.7s-0.6-2.8-1.8-3.6c-1.2-0.8-3.2-1.6-6.1-2.5c-1.4-0.5-2.5-0.8-3.2-1.1
				c-0.7-0.2-1.7-0.7-2.8-1.2c-1.1-0.6-1.9-1.1-2.5-1.7c-0.5-0.6-1-1.4-1.5-2.3c-0.4-1-0.6-2-0.6-3.2c0-2.9,1-5.2,3-6.9
				c2-1.7,4.5-2.5,7.4-2.5c2.6,0,4.9,0.7,6.9,2c2,1.3,3.4,3.1,4.4,5.3l-3.7,2.1c-1.4-3.4-4-5.1-7.6-5.1c-1.8,0-3.3,0.4-4.4,1.3
				c-1.1,0.9-1.7,2.1-1.7,3.6s0.5,2.6,1.6,3.3s2.9,1.6,5.4,2.4c0.9,0.3,1.6,0.5,1.9,0.7c0.4,0.1,1,0.4,1.8,0.6s1.4,0.5,1.8,0.7
				s0.9,0.5,1.6,0.8s1.1,0.7,1.4,1s0.7,0.7,1.1,1.2s0.7,0.9,0.9,1.4s0.4,1,0.5,1.6s0.2,1.3,0.2,2c0,2.9-1.1,5.2-3.2,7
				C1031.6,356.2,1028.8,357.1,1025.4,357L1025.4,357z"/>
			<path class="st3" d="M1046.7,323h4.4v33.4h-4.4V323z"/>
			<path class="st3" d="M1083.8,323h4.4v33.4h-3.6l-17.2-24.9v24.9h-4.4V323h3.4l17.3,25.1L1083.8,323L1083.8,323z"/>
			<path class="st3" d="M1132.3,339.9v2c0,4.4-1.5,8-4.5,10.9s-6.9,4.3-11.9,4.3s-9.3-1.7-12.6-5s-5-7.5-5-12.3s1.7-8.9,5-12.3
				c3.3-3.4,7.5-5,12.5-5c3.1,0,5.9,0.7,8.5,2.2s4.6,3.4,6,5.8l-3.8,2.2c-0.9-1.8-2.4-3.3-4.3-4.4c-1.9-1.1-4-1.6-6.4-1.6
				c-3.8,0-6.9,1.2-9.4,3.7c-2.4,2.5-3.7,5.6-3.7,9.3s1.2,6.8,3.7,9.2s5.7,3.7,9.6,3.7c3.3,0,6-0.8,8.1-2.5c2.1-1.6,3.3-3.8,3.8-6.4
				h-12.2v-4L1132.3,339.9L1132.3,339.9z"/>
			<path class="st3" d="M899.9,384.5h-14.8v10.8h14.2v4.2h-14.2v14.2h-4.4v-33.4h19.2L899.9,384.5L899.9,384.5z"/>
			<path class="st3" d="M930.5,413.6l-2.7-7.5h-15l-2.7,7.5h-4.7l12.5-33.4h5l12.5,33.4H930.5L930.5,413.6z M914.3,402h12l-6-16.5
				L914.3,402L914.3,402z"/>
			<path class="st3" d="M964.2,411c-2.3,2.1-5.3,3.2-9,3.2s-6.7-1.1-9-3.2c-2.3-2.1-3.5-5-3.5-8.6v-22.2h4.4v22
				c0,2.4,0.7,4.2,2.1,5.6c1.4,1.4,3.4,2.1,6,2.1s4.6-0.7,6-2.1s2.1-3.2,2.1-5.6v-22h4.4v22.2C967.6,406,966.5,408.9,964.2,411
				L964.2,411z"/>
			<path class="st3" d="M983.6,409.5H998v4.2h-18.8v-33.4h4.4V409.5z"/>
			<path class="st3" d="M1025.2,380.3v4.2h-9.9v29.2h-4.4v-29.2h-9.8v-4.2H1025.2z"/>
			<path class="st3" d="M1044.2,414.3c-3.1,0-5.8-0.7-8-2.2s-3.8-3.5-4.7-6l3.8-2.2c1.3,4,4.3,6.1,8.9,6.1c2.3,0,4-0.5,5.2-1.4
				s1.8-2.2,1.8-3.7s-0.6-2.8-1.8-3.6c-1.2-0.8-3.2-1.6-6.1-2.5c-1.4-0.5-2.4-0.8-3.2-1.1s-1.7-0.7-2.8-1.2
				c-1.1-0.6-1.9-1.1-2.5-1.7c-0.5-0.6-1-1.4-1.4-2.3s-0.6-2-0.6-3.2c0-2.9,1-5.2,3.1-6.9s4.5-2.5,7.4-2.5c2.6,0,4.9,0.7,6.9,2
				s3.4,3.1,4.4,5.3l-3.7,2.1c-1.4-3.4-4-5.1-7.6-5.1c-1.8,0-3.3,0.4-4.4,1.3c-1.1,0.9-1.7,2.1-1.7,3.6s0.5,2.6,1.6,3.3
				c1.1,0.8,2.9,1.6,5.4,2.4c0.9,0.3,1.6,0.5,1.9,0.7c0.4,0.1,1,0.4,1.8,0.6s1.4,0.5,1.8,0.7s0.9,0.5,1.6,0.8s1.1,0.7,1.4,1
				c0.3,0.3,0.7,0.7,1.1,1.2s0.7,0.9,0.9,1.4s0.4,1,0.5,1.6s0.2,1.3,0.2,2c0,2.9-1.1,5.2-3.2,7
				C1050.4,413.4,1047.6,414.3,1044.2,414.3L1044.2,414.3z"/>
		</g>
		<path class="st5" d="M1641.3,223.9H1754c36.8,0,66.7,29.9,66.7,66.7v158.3c0,36.8-29.8,66.7-66.7,66.7h-426.5
			c-36.8,0-66.7-29.9-66.7-66.7V290.6c0-36.8,29.8-66.7,66.7-66.7h111"/>
		<line class="st1" x1="1641.3" y1="196.7" x2="1641.3" y2="254.8"/>
		<line class="st1" x1="1439.5" y1="196.7" x2="1439.5" y2="254.8"/>
		<g>
			<circle class="st3" cx="1659.9" cy="210.9" r="2.5"/>
			<circle class="st3" cx="1659.9" cy="240.5" r="2.5"/>
		</g>
		<g>
			<circle class="st3" cx="1422.8" cy="210.9" r="2.5"/>
			<circle class="st3" cx="1422.8" cy="240.5" r="2.5"/>
		</g>
		<g class="st6">
			<path class="st7" d="M1510.9,265c-9.4,0-16.7-3.6-22.1-10.7c-5.3-7.1-8-16.6-8-28.4c0-11.8,2.7-21.3,8-28.4
				c5.3-7.1,12.7-10.7,22.1-10.7c9.5,0,16.8,3.6,22.1,10.7c5.3,7.1,8,16.6,8,28.4c0,11.8-2.7,21.3-8,28.4
				C1527.7,261.4,1520.3,265,1510.9,265z M1499.5,244.2c2.6,4.2,6.4,6.3,11.4,6.3c5,0,8.8-2.1,11.4-6.3c2.6-4.2,3.9-10.3,3.9-18.3
				c0-8-1.3-14.1-3.9-18.4c-2.6-4.2-6.4-6.3-11.4-6.3c-5,0-8.8,2.1-11.4,6.3c-2.6,4.2-3.9,10.4-3.9,18.4
				C1495.6,233.9,1496.9,240,1499.5,244.2z"/>
		</g>
		<g class="st6">
			<path class="st7" d="M1587.7,218.7c5.1,1.5,9.2,4.1,12.4,7.9c3.2,3.8,4.8,8.3,4.8,13.6c0,7.7-2.6,13.8-7.8,18.2
				c-5.2,4.4-11.6,6.6-19.1,6.6c-5.9,0-11.1-1.3-15.7-4c-4.6-2.7-8-6.6-10-11.9l12.7-7.3c1.9,5.8,6.2,8.7,13.1,8.7
				c3.8,0,6.8-0.9,8.9-2.7c2.1-1.8,3.2-4.3,3.2-7.5c0-3.1-1.1-5.6-3.2-7.4c-2.1-1.9-5.1-2.8-8.9-2.8h-3.2l-5.7-8.6l14.8-19.3h-29.4
				v-13.9h47.3v12.2L1587.7,218.7z"/>
		</g>
		<g class="st6">
			<path class="st3" d="M1424.5,357.1c-5.1,0-9.2-1.7-12.5-5c-3.3-3.3-4.9-7.4-4.9-12.3c0-4.9,1.6-9,4.9-12.3c3.3-3.3,7.5-5,12.5-5
				c3.1,0,5.9,0.7,8.4,2.2c2.6,1.5,4.6,3.4,6,5.9l-3.9,2.2c-1-1.8-2.4-3.3-4.3-4.4c-1.9-1.1-4-1.6-6.3-1.6c-3.8,0-7,1.2-9.4,3.7
				s-3.6,5.6-3.6,9.3c0,3.7,1.2,6.8,3.6,9.2c2.4,2.5,5.6,3.7,9.4,3.7c2.3,0,4.4-0.5,6.3-1.6c1.9-1.1,3.3-2.6,4.3-4.4l3.9,2.2
				c-1.4,2.5-3.4,4.5-6,5.9C1430.4,356.3,1427.6,357.1,1424.5,357.1z"/>
		</g>
		<g class="st6">
			<path class="st3" d="M1469.3,323.1h4.4v33.4h-4.4v-15h-16.2v15h-4.4v-33.4h4.4v14.2h16.2V323.1z"/>
			<path class="st3" d="M1513.4,352c-3.4,3.4-7.4,5.1-12.3,5.1s-8.9-1.7-12.3-5.1c-3.3-3.4-5-7.5-5-12.3c0-4.8,1.7-8.9,5-12.3
				c3.3-3.4,7.4-5,12.3-5s8.9,1.7,12.3,5c3.4,3.4,5,7.4,5,12.3C1518.4,344.5,1516.8,348.6,1513.4,352z M1492,349
				c2.5,2.5,5.5,3.7,9.2,3.7s6.7-1.2,9.2-3.7c2.5-2.5,3.7-5.6,3.7-9.2c0-3.7-1.2-6.8-3.7-9.3c-2.5-2.5-5.5-3.7-9.2-3.7
				s-6.7,1.2-9.2,3.7c-2.5,2.5-3.7,5.6-3.7,9.3C1488.3,343.4,1489.5,346.5,1492,349z"/>
		</g>
		<g class="st6">
			<path class="st3" d="M1556.3,352c-3.4,3.4-7.4,5.1-12.3,5.1c-4.8,0-8.9-1.7-12.3-5.1c-3.3-3.4-5-7.5-5-12.3c0-4.8,1.7-8.9,5-12.3
				c3.3-3.4,7.4-5,12.3-5c4.8,0,8.9,1.7,12.3,5c3.4,3.4,5,7.4,5,12.3C1561.4,344.5,1559.7,348.6,1556.3,352z M1534.9,349
				c2.5,2.5,5.5,3.7,9.2,3.7s6.7-1.2,9.2-3.7c2.5-2.5,3.7-5.6,3.7-9.2c0-3.7-1.2-6.8-3.7-9.3c-2.5-2.5-5.5-3.7-9.2-3.7
				s-6.7,1.2-9.2,3.7c-2.5,2.5-3.7,5.6-3.7,9.3C1531.2,343.4,1532.4,346.5,1534.9,349z"/>
		</g>
		<g class="st6">
			<path class="st3" d="M1581.1,357.1c-3.1,0-5.8-0.7-8-2.2c-2.2-1.5-3.8-3.5-4.6-6l3.8-2.2c1.3,4,4.3,6.1,8.9,6.1
				c2.3,0,4-0.5,5.2-1.4c1.2-0.9,1.8-2.2,1.8-3.7c0-1.6-0.6-2.8-1.8-3.6s-3.2-1.6-6.1-2.5c-1.4-0.5-2.4-0.8-3.2-1.1
				c-0.7-0.3-1.7-0.7-2.8-1.2c-1.1-0.6-1.9-1.1-2.5-1.7c-0.5-0.6-1-1.4-1.5-2.3c-0.4-1-0.6-2-0.6-3.2c0-2.9,1-5.2,3.1-6.9
				c2-1.7,4.5-2.6,7.4-2.6c2.6,0,4.9,0.7,6.9,2c2,1.3,3.4,3.1,4.4,5.3l-3.7,2.1c-1.4-3.4-4-5.1-7.6-5.1c-1.8,0-3.3,0.4-4.4,1.3
				c-1.1,0.9-1.7,2.1-1.7,3.6c0,1.5,0.5,2.6,1.6,3.3s2.9,1.6,5.4,2.4c0.9,0.3,1.5,0.5,1.9,0.7s1,0.4,1.8,0.6
				c0.8,0.3,1.4,0.5,1.8,0.7c0.4,0.2,0.9,0.5,1.5,0.8c0.7,0.4,1.1,0.7,1.5,1c0.3,0.3,0.7,0.7,1.1,1.2s0.7,0.9,0.9,1.4s0.4,1,0.5,1.6
				c0.1,0.6,0.2,1.3,0.2,2c0,2.9-1.1,5.3-3.2,7C1587.3,356.2,1584.5,357.1,1581.1,357.1z"/>
		</g>
		<g class="st6">
			<path class="st3" d="M1602.4,323.1h4.4v33.4h-4.4V323.1z"/>
			<path class="st3" d="M1639.5,323.1h4.4v33.4h-3.6l-17.2-24.9v24.9h-4.4v-33.4h3.4l17.3,25.1V323.1z"/>
			<path class="st3" d="M1688,339.9v2c0,4.4-1.5,8-4.5,10.8c-3,2.9-6.9,4.3-11.9,4.3c-5.1,0-9.3-1.7-12.6-5c-3.3-3.4-5-7.4-5-12.3
				c0-4.8,1.7-8.9,5-12.3c3.3-3.4,7.5-5,12.5-5c3.1,0,5.9,0.7,8.5,2.2c2.6,1.5,4.6,3.4,6,5.8l-3.8,2.2c-1-1.8-2.4-3.3-4.3-4.4
				c-1.9-1.1-4-1.6-6.4-1.6c-3.8,0-6.9,1.2-9.4,3.7c-2.4,2.5-3.7,5.6-3.7,9.3c0,3.7,1.2,6.8,3.7,9.2c2.5,2.5,5.6,3.7,9.6,3.7
				c3.3,0,6-0.8,8.1-2.5c2.1-1.6,3.3-3.8,3.8-6.4h-12.3v-4H1688z"/>
		</g>
		<g class="st6">
			<path class="st3" d="M1487.9,380.3v4.2h-9.9v29.2h-4.4v-29.2h-9.8v-4.2H1487.9z"/>
		</g>
		<g class="st6">
			<path class="st3" d="M1522.9,409.2c-3.4,3.4-7.4,5.1-12.3,5.1c-4.8,0-8.9-1.7-12.3-5.1c-3.3-3.4-5-7.5-5-12.3
				c0-4.8,1.7-8.9,5-12.3c3.3-3.4,7.4-5,12.3-5c4.8,0,8.9,1.7,12.3,5c3.4,3.4,5,7.4,5,12.3C1527.9,401.8,1526.3,405.8,1522.9,409.2z
				 M1501.5,406.2c2.5,2.5,5.5,3.7,9.2,3.7s6.7-1.2,9.2-3.7c2.5-2.5,3.7-5.6,3.7-9.2c0-3.7-1.2-6.8-3.7-9.3
				c-2.5-2.5-5.5-3.7-9.2-3.7s-6.7,1.2-9.2,3.7c-2.5,2.5-3.7,5.6-3.7,9.3C1497.8,400.6,1499,403.7,1501.5,406.2z"/>
			<path class="st3" d="M1565.8,409.2c-3.4,3.4-7.4,5.1-12.3,5.1s-8.9-1.7-12.3-5.1c-3.3-3.4-5-7.5-5-12.3c0-4.8,1.7-8.9,5-12.3
				c3.3-3.4,7.4-5,12.3-5s8.9,1.7,12.3,5c3.4,3.4,5,7.4,5,12.3C1570.9,401.8,1569.2,405.8,1565.8,409.2z M1544.4,406.2
				c2.5,2.5,5.5,3.7,9.2,3.7c3.7,0,6.7-1.2,9.2-3.7c2.5-2.5,3.7-5.6,3.7-9.2c0-3.7-1.2-6.8-3.7-9.3c-2.5-2.5-5.5-3.7-9.2-3.7
				c-3.7,0-6.7,1.2-9.2,3.7c-2.5,2.5-3.7,5.6-3.7,9.3C1540.7,400.6,1541.9,403.7,1544.4,406.2z"/>
		</g>
		<g class="st6">
			<path class="st3" d="M1585.4,409.5h14.4v4.2H1581v-33.4h4.4V409.5z"/>
		</g>
		<g class="st6">
			<path class="st3" d="M1618.9,414.3c-3.1,0-5.8-0.7-8-2.2c-2.2-1.5-3.8-3.5-4.6-6l3.8-2.2c1.3,4,4.3,6.1,8.9,6.1
				c2.3,0,4-0.5,5.2-1.4c1.2-0.9,1.8-2.2,1.8-3.7c0-1.6-0.6-2.8-1.8-3.6c-1.2-0.8-3.2-1.6-6.1-2.5c-1.4-0.5-2.4-0.8-3.2-1.1
				c-0.7-0.3-1.7-0.7-2.8-1.2c-1.1-0.6-1.9-1.1-2.5-1.7s-1-1.4-1.5-2.3c-0.4-1-0.6-2-0.6-3.2c0-2.9,1-5.2,3.1-6.9
				c2-1.7,4.5-2.6,7.4-2.6c2.6,0,4.9,0.7,6.9,2s3.4,3.1,4.4,5.3l-3.7,2.1c-1.4-3.4-4-5.1-7.6-5.1c-1.8,0-3.3,0.4-4.4,1.3
				c-1.1,0.9-1.7,2.1-1.7,3.6c0,1.5,0.5,2.6,1.6,3.3s2.9,1.6,5.4,2.4c0.9,0.3,1.5,0.5,1.9,0.7s1,0.4,1.8,0.6
				c0.8,0.3,1.4,0.5,1.8,0.7s0.9,0.5,1.5,0.8c0.7,0.4,1.1,0.7,1.5,1c0.3,0.3,0.7,0.7,1.1,1.2s0.7,0.9,0.9,1.4c0.2,0.5,0.4,1,0.5,1.6
				c0.1,0.6,0.2,1.3,0.2,2c0,2.9-1.1,5.3-3.2,7C1625.1,413.4,1622.3,414.3,1618.9,414.3z"/>
		</g>
		<path class="st5" d="M463.5,628h134.1c36.8,0,66.7,29.8,66.7,66.7V853c0,36.8-29.8,66.7-66.7,66.7H171.1
			c-36.8,0-66.7-29.8-66.7-66.7V694.7c0-36.8,29.9-66.7,66.7-66.7h101.8"/>
		<g class="st6">
			<path class="st3" d="M274.2,760.6l-9.3-33.4h4.7l7.6,27.5l8.1-27.5h4.5l8.1,27.5l7.6-27.5h4.4l-9.3,33.4h-5.1l-7.9-26.7
				l-7.9,26.7H274.2z"/>
		</g>
		<g class="st6">
			<path class="st3" d="M324.1,756.4h15.5v4.2h-19.9v-33.4h19.7v4.2h-15.3v10.3h14.1v4.1h-14.1V756.4z"/>
		</g>
		<g class="st6">
			<path class="st3" d="M372.2,760.6l-2.7-7.5h-15l-2.7,7.5h-4.7l12.4-33.4h5l12.4,33.4H372.2z M356,748.9h12l-6-16.5L356,748.9z"/>
		</g>
		<g class="st6">
			<path class="st3" d="M404.6,727.2v4.2h-9.9v29.2h-4.4v-29.2h-9.8v-4.2H404.6z"/>
			<path class="st3" d="M434.4,727.2h4.4v33.4h-4.4v-15h-16.2v15h-4.4v-33.4h4.4v14.2h16.2V727.2z"/>
			<path class="st3" d="M455.1,756.4h15.5v4.2h-19.9v-33.4h19.7v4.2h-15.3v10.3h14.1v4.1h-14.1V756.4z"/>
			<path class="st3" d="M500.5,760.6l-7.5-12.8h-7.9v12.8h-4.4v-33.4h13.4c2.9,0,5.3,1,7.3,3c2,2,3.1,4.5,3.1,7.3
				c0,2.2-0.6,4.1-1.9,5.9c-1.3,1.8-2.9,3-5,3.8l7.9,13.4H500.5z M485.2,731.3v12.4h8.9c1.7,0,3.1-0.6,4.2-1.8
				c1.2-1.2,1.7-2.7,1.7-4.4s-0.6-3.2-1.7-4.4c-1.2-1.2-2.6-1.8-4.2-1.8H485.2z"/>
		</g>
		<g class="st6">
			<path class="st3" d="M316.9,818.4c-5.1,0-9.2-1.7-12.5-5c-3.3-3.3-4.9-7.4-4.9-12.3c0-4.9,1.6-9,4.9-12.3c3.3-3.3,7.5-5,12.5-5
				c3.1,0,5.9,0.7,8.4,2.2c2.6,1.5,4.6,3.4,6,5.9l-3.9,2.2c-1-1.8-2.4-3.3-4.3-4.4c-1.9-1.1-4-1.6-6.3-1.6c-3.8,0-7,1.2-9.4,3.7
				c-2.4,2.5-3.6,5.6-3.6,9.3c0,3.7,1.2,6.8,3.6,9.2c2.4,2.5,5.6,3.7,9.4,3.7c2.3,0,4.4-0.5,6.3-1.6c1.9-1.1,3.3-2.6,4.3-4.4
				l3.9,2.2c-1.4,2.5-3.4,4.5-6,5.9C322.8,817.7,319.9,818.4,316.9,818.4z"/>
		</g>
		<g class="st6">
			<path class="st3" d="M361.7,784.4h4.4v33.4h-4.4v-15h-16.2v15h-4.4v-33.4h4.4v14.2h16.2V784.4z"/>
		</g>
		<g class="st6">
			<path class="st3" d="M382.5,813.6H398v4.2H378v-33.4h19.7v4.2h-15.3v10.3h14.1v4.1h-14.1V813.6z"/>
		</g>
		<g class="st6">
			<path class="st3" d="M423.5,818.4c-5.1,0-9.2-1.7-12.5-5c-3.3-3.3-4.9-7.4-4.9-12.3c0-4.9,1.6-9,4.9-12.3c3.3-3.3,7.5-5,12.5-5
				c3.1,0,5.9,0.7,8.4,2.2c2.6,1.5,4.6,3.4,6,5.9l-3.9,2.2c-1-1.8-2.4-3.3-4.3-4.4c-1.9-1.1-4-1.6-6.3-1.6c-3.8,0-7,1.2-9.4,3.7
				c-2.4,2.5-3.6,5.6-3.6,9.3c0,3.7,1.2,6.8,3.6,9.2c2.4,2.5,5.6,3.7,9.4,3.7c2.3,0,4.4-0.5,6.3-1.6c1.9-1.1,3.3-2.6,4.3-4.4
				l3.9,2.2c-1.4,2.5-3.4,4.5-6,5.9C429.4,817.7,426.6,818.4,423.5,818.4z"/>
		</g>
		<g class="st6">
			<path class="st3" d="M472,817.8h-5.4l-14.4-16v16h-4.4v-33.4h4.4v15.1l13.9-15.1h5.4l-14.7,16.2L472,817.8z"/>
		</g>
		<line class="st1" x1="463.5" y1="600.9" x2="463.5" y2="658.9"/>
		<line class="st1" x1="276.9" y1="600.9" x2="276.9" y2="658.9"/>
		<g>
			<circle class="st3" cx="478.2" cy="615.1" r="2.5"/>
			<circle class="st3" cx="478.2" cy="644.7" r="2.5"/>
		</g>
		<g>
			<circle class="st3" cx="260.2" cy="615.1" r="2.5"/>
			<circle class="st3" cx="260.2" cy="644.7" r="2.5"/>
		</g>
		<path class="st5" d="M1061,628h112.7c36.8,0,66.7,29.8,66.7,66.7V853c0,36.8-29.8,66.7-66.7,66.7H747.2
			c-36.8,0-66.7-29.8-66.7-66.7V694.7c0-36.8,29.8-66.7,66.7-66.7h111"/>
		<line class="st1" x1="1061" y1="600.9" x2="1061" y2="658.9"/>
		<line class="st1" x1="859.2" y1="600.9" x2="859.2" y2="658.9"/>
		<g>
			<circle class="st3" cx="1079.6" cy="615.1" r="2.5"/>
			<circle class="st3" cx="1079.6" cy="644.7" r="2.5"/>
		</g>
		<g>
			<circle class="st3" cx="842.5" cy="615.1" r="2.5"/>
			<circle class="st3" cx="842.5" cy="644.7" r="2.5"/>
		</g>
		<g class="st6">
			<path class="st7" d="M332.5,669.1c-9.4,0-16.7-3.6-22.1-10.7c-5.3-7.1-8-16.6-8-28.4c0-11.8,2.7-21.3,8-28.4
				c5.3-7.1,12.7-10.7,22.1-10.7c9.5,0,16.8,3.6,22.1,10.7c5.3,7.1,8,16.6,8,28.4c0,11.8-2.7,21.3-8,28.4
				C349.4,665.5,342,669.1,332.5,669.1z M321.1,648.3c2.6,4.2,6.4,6.3,11.4,6.3c5,0,8.8-2.1,11.4-6.3c2.6-4.2,3.9-10.3,3.9-18.3
				c0-8-1.3-14.1-3.9-18.4c-2.6-4.2-6.4-6.3-11.4-6.3c-5,0-8.8,2.1-11.4,6.3c-2.6,4.2-3.9,10.4-3.9,18.4
				C317.3,638,318.6,644.1,321.1,648.3z"/>
			<path class="st7" d="M435.8,641v13.8h-8.1v12.8h-14.9v-12.8h-35.6V641l25-48.7h15.9L393.3,641h19.5v-17.8h14.9V641H435.8z"/>
		</g>
		<g class="st6">
			<path class="st7" d="M928.5,669.1c-9.4,0-16.7-3.6-22.1-10.7c-5.3-7.1-8-16.6-8-28.4c0-11.8,2.7-21.3,8-28.4
				c5.3-7.1,12.7-10.7,22.1-10.7c9.5,0,16.8,3.6,22.1,10.7c5.3,7.1,8,16.6,8,28.4c0,11.8-2.7,21.3-8,28.4
				C945.4,665.5,938,669.1,928.5,669.1z M917.1,648.3c2.6,4.2,6.4,6.3,11.4,6.3c5,0,8.8-2.1,11.4-6.3c2.6-4.2,3.9-10.3,3.9-18.3
				c0-8-1.3-14.1-3.9-18.4c-2.6-4.2-6.4-6.3-11.4-6.3c-5,0-8.8,2.1-11.4,6.3c-2.6,4.2-3.9,10.4-3.9,18.4
				C913.3,638,914.6,644.1,917.1,648.3z"/>
		</g>
		<g class="st6">
			<path class="st7" d="M999.7,619.8c7.2,0,13.3,2.2,18.3,6.5c4.9,4.3,7.4,10.4,7.4,18.1c0,7.7-2.6,13.8-7.8,18.2
				c-5.2,4.4-11.6,6.6-19.1,6.6c-6.1,0-11.5-1.4-16.1-4.1c-4.7-2.7-8-6.7-10.1-12l12.7-7.4c1.9,6,6.4,9,13.5,9
				c3.8,0,6.8-0.9,8.9-2.7c2.1-1.8,3.2-4.3,3.2-7.5c0-3.1-1-5.6-3.1-7.4c-2.1-1.9-4.9-2.8-8.5-2.8h-22.8l3-41.8h42.7v13.9h-28.9
				l-1,13.5H999.7z"/>
		</g>
		<g class="st6">
			<path class="st3" d="M744.9,743.3c1.5,0.7,2.7,1.8,3.6,3.1c0.9,1.4,1.4,2.9,1.4,4.7c0,2.7-0.9,4.9-2.8,6.7
				c-1.9,1.8-4.2,2.7-6.9,2.7h-14.4v-33.4h13.4c2.6,0,4.8,0.9,6.6,2.6c1.8,1.7,2.7,3.9,2.7,6.5C748.5,739.3,747.3,741.6,744.9,743.3
				z M739.2,731.3h-8.9v10.2h8.9c1.4,0,2.6-0.5,3.5-1.5s1.4-2.2,1.4-3.6c0-1.4-0.5-2.6-1.5-3.6C741.7,731.8,740.5,731.3,739.2,731.3
				z M740.2,756.4c1.5,0,2.7-0.5,3.8-1.6c1-1,1.5-2.3,1.5-3.9c0-1.5-0.5-2.8-1.5-3.8c-1-1-2.3-1.6-3.7-1.6h-10v10.8H740.2z"/>
		</g>
		<g class="st6">
			<path class="st3" d="M780.8,758c-2.3,2.1-5.3,3.2-9,3.2c-3.7,0-6.7-1.1-9-3.2s-3.5-5-3.5-8.6v-22.2h4.4v22c0,2.4,0.7,4.2,2.1,5.6
				c1.4,1.4,3.4,2.1,6,2.1s4.6-0.7,6-2.1c1.4-1.4,2.1-3.2,2.1-5.6v-22h4.4v22.2C784.3,753,783.1,755.8,780.8,758z"/>
			<path class="st3" d="M808.8,727.2c4.5,0,8.3,1.6,11.3,4.8s4.5,7.2,4.5,11.8c0,4.7-1.5,8.6-4.5,11.8c-3,3.2-6.8,4.8-11.3,4.8h-13
				v-33.4H808.8z M808.8,756.4c3.4,0,6.2-1.2,8.3-3.6c2.2-2.4,3.2-5.4,3.2-8.9c0-3.6-1.1-6.5-3.2-8.9c-2.2-2.4-4.9-3.6-8.3-3.6h-8.6
				v25H808.8z"/>
		</g>
		<g class="st6">
			<path class="st3" d="M847.8,727.2c4.5,0,8.3,1.6,11.3,4.8s4.5,7.2,4.5,11.8c0,4.7-1.5,8.6-4.5,11.8c-3,3.2-6.8,4.8-11.3,4.8h-13
				v-33.4H847.8z M847.8,756.4c3.4,0,6.2-1.2,8.3-3.6c2.2-2.4,3.2-5.4,3.2-8.9c0-3.6-1.1-6.5-3.2-8.9c-2.2-2.4-4.9-3.6-8.3-3.6h-8.6
				v25H847.8z"/>
		</g>
		<g class="st6">
			<path class="st3" d="M896.2,727.2l-11.8,19.9v13.5H880V747l-11.8-19.8h5l9.1,15.7l9-15.7H896.2z"/>
		</g>
		<g class="st6">
			<path class="st3" d="M926.1,756.4h15.5v4.2h-19.9v-33.4h19.7v4.2h-15.3v10.3h14.1v4.1h-14.1V756.4z"/>
			<path class="st3" d="M984.2,743.9c0,4.6-1.6,8.5-4.7,11.9l3.7,3.7l-3.1,2.8l-3.8-3.8c-2.9,1.9-6,2.8-9.4,2.8
				c-4.8,0-8.8-1.7-12.2-5.1c-3.4-3.4-5.1-7.5-5.1-12.3c0-4.8,1.7-8.9,5.1-12.3c3.4-3.4,7.4-5.1,12.2-5.1c4.8,0,8.8,1.7,12.2,5.1
				C982.5,735,984.2,739.1,984.2,743.9z M966.9,756.9c2.3,0,4.4-0.5,6.3-1.6l-6.7-6.7l3.1-2.7l6.9,6.9c2.2-2.4,3.3-5.4,3.3-8.8
				c0-3.7-1.2-6.7-3.7-9.2s-5.5-3.8-9.1-3.8s-6.6,1.3-9.1,3.8c-2.5,2.5-3.7,5.6-3.7,9.2c0,3.6,1.2,6.7,3.7,9.2
				C960.3,755.6,963.3,756.9,966.9,756.9z"/>
		</g>
		<g class="st6">
			<path class="st3" d="M1015.5,758c-2.3,2.1-5.3,3.2-9,3.2c-3.7,0-6.7-1.1-9-3.2c-2.3-2.1-3.5-5-3.5-8.6v-22.2h4.4v22
				c0,2.4,0.7,4.2,2.1,5.6c1.4,1.4,3.4,2.1,6,2.1s4.6-0.7,6-2.1c1.4-1.4,2.1-3.2,2.1-5.6v-22h4.4v22.2
				C1019,753,1017.8,755.8,1015.5,758z"/>
			<path class="st3" d="M1030.5,727.2h4.4v33.4h-4.4V727.2z"/>
			<path class="st3" d="M1059,727.2c3.1,0,5.7,1,7.7,3.1c2.1,2.1,3.1,4.6,3.1,7.7c0,3-1,5.6-3.1,7.6c-2,2.1-4.6,3.1-7.7,3.1h-7.7
				v11.9h-4.4v-33.4H1059z M1059,744.5c1.8,0,3.4-0.6,4.6-1.9s1.8-2.8,1.8-4.7c0-1.9-0.6-3.5-1.8-4.7c-1.2-1.2-2.7-1.9-4.6-1.9h-7.7
				v13.2H1059z"/>
			<path class="st3" d="M1111,727.2v33.4h-4.4v-26.1l-10.9,18.2l-0.5,0l-11-18.2v26.1h-4.4v-33.4h5l10.7,17.7l10.6-17.7H1111z"/>
			<path class="st3" d="M1127.3,756.4h15.5v4.2h-19.9v-33.4h19.7v4.2h-15.3v10.3h14.1v4.1h-14.1V756.4z"/>
			<path class="st3" d="M1173.7,727.2h4.4v33.4h-3.6l-17.2-24.9v24.9h-4.4v-33.4h3.4l17.3,25.1V727.2z"/>
			<path class="st3" d="M1211.4,727.2v4.2h-9.9v29.2h-4.4v-29.2h-9.8v-4.2H1211.4z"/>
		</g>
		<g class="st6">
			<path class="st3" d="M899.1,818.4c-5.1,0-9.2-1.7-12.5-5c-3.3-3.3-4.9-7.4-4.9-12.3c0-4.9,1.6-9,4.9-12.3c3.3-3.3,7.5-5,12.5-5
				c3.1,0,5.9,0.7,8.4,2.2c2.6,1.5,4.6,3.4,6,5.9l-3.9,2.2c-1-1.8-2.4-3.3-4.3-4.4c-1.9-1.1-4-1.6-6.3-1.6c-3.8,0-7,1.2-9.4,3.7
				c-2.4,2.5-3.6,5.6-3.6,9.3c0,3.7,1.2,6.8,3.6,9.2c2.4,2.5,5.6,3.7,9.4,3.7c2.3,0,4.4-0.5,6.3-1.6c1.9-1.1,3.3-2.6,4.3-4.4
				l3.9,2.2c-1.4,2.5-3.4,4.5-6,5.9C905,817.7,902.2,818.4,899.1,818.4z"/>
		</g>
		<g class="st6">
			<path class="st3" d="M944,784.4h4.4v33.4H944v-15h-16.2v15h-4.4v-33.4h4.4v14.2H944V784.4z"/>
		</g>
		<g class="st6">
			<path class="st3" d="M964.7,813.6h15.5v4.2h-19.9v-33.4h19.7v4.2h-15.3v10.3h14.1v4.1h-14.1V813.6z"/>
		</g>
		<g class="st6">
			<path class="st3" d="M1005.8,818.4c-5.1,0-9.2-1.7-12.5-5c-3.3-3.3-4.9-7.4-4.9-12.3c0-4.9,1.6-9,4.9-12.3c3.3-3.3,7.5-5,12.5-5
				c3.1,0,5.9,0.7,8.4,2.2c2.6,1.5,4.6,3.4,6,5.9l-3.9,2.2c-1-1.8-2.4-3.3-4.3-4.4c-1.9-1.1-4-1.6-6.3-1.6c-3.8,0-7,1.2-9.4,3.7
				s-3.6,5.6-3.6,9.3c0,3.7,1.2,6.8,3.6,9.2c2.4,2.5,5.6,3.7,9.4,3.7c2.3,0,4.4-0.5,6.3-1.6c1.9-1.1,3.3-2.6,4.3-4.4l3.9,2.2
				c-1.4,2.5-3.4,4.5-6,5.9C1011.6,817.7,1008.8,818.4,1005.8,818.4z"/>
		</g>
		<g class="st6">
			<path class="st3" d="M1054.2,817.8h-5.4l-14.4-16v16h-4.4v-33.4h4.4v15.1l13.9-15.1h5.4l-14.7,16.2L1054.2,817.8z"/>
		</g>
		<path class="st5" d="M1399,628h355c36.8,0,66.7,29.8,66.7,66.7V853c0,36.8-29.8,66.7-66.7,66.7h-426.5
			c-36.8,0-66.7-29.8-66.7-66.7V694.7c0-36.8,29.8-66.7,66.7-66.7h111"/>
		<path class="st5" d="M1399,628h355c36.8,0,66.7,29.8,66.7,66.7V853c0,36.8-29.8,66.7-66.7,66.7h-426.5
			c-36.8,0-66.7-29.8-66.7-66.7V694.7c0-36.8,29.8-66.7,66.7-66.7h111"/>
		<g class="st6">
			<path class="st3" d="M1503.8,721.2h4.4v33.4h-4.4v-15h-16.2v15h-4.4v-33.4h4.4v14.2h16.2V721.2z"/>
		</g>
		<g class="st6">
			<path class="st3" d="M1524.6,750.4h15.5v4.2h-19.9v-33.4h19.7v4.2h-15.3v10.3h14.1v4.1h-14.1V750.4z"/>
		</g>
		<g class="st6">
			<path class="st3" d="M1572.7,754.6l-2.7-7.5h-15l-2.7,7.5h-4.7l12.4-33.4h5l12.4,33.4H1572.7z M1556.5,742.9h12l-6-16.5
				L1556.5,742.9z"/>
			<path class="st3" d="M1599.1,721.2c4.5,0,8.3,1.6,11.3,4.8s4.5,7.2,4.5,11.8c0,4.7-1.5,8.6-4.5,11.8c-3,3.2-6.8,4.8-11.3,4.8h-13
				v-33.4H1599.1z M1599.1,750.4c3.4,0,6.2-1.2,8.3-3.6c2.2-2.4,3.2-5.4,3.2-8.9c0-3.6-1.1-6.5-3.2-8.9c-2.2-2.4-4.9-3.6-8.3-3.6
				h-8.6v25H1599.1z"/>
		</g>
		<g class="st6">
			<path class="st3" d="M1428.3,807.4c-3.4,3.4-7.4,5.1-12.3,5.1c-4.8,0-8.9-1.7-12.3-5.1c-3.3-3.4-5-7.5-5-12.3
				c0-4.8,1.7-8.9,5-12.3c3.3-3.4,7.4-5,12.3-5c4.8,0,8.9,1.7,12.3,5c3.4,3.4,5,7.4,5,12.3C1433.3,799.9,1431.6,804,1428.3,807.4z
				 M1406.8,804.3c2.5,2.5,5.5,3.7,9.2,3.7c3.7,0,6.7-1.2,9.2-3.7c2.5-2.5,3.7-5.6,3.7-9.2c0-3.7-1.2-6.8-3.7-9.3
				c-2.5-2.5-5.5-3.7-9.2-3.7c-3.7,0-6.7,1.2-9.2,3.7c-2.5,2.5-3.7,5.6-3.7,9.3C1403.1,798.8,1404.3,801.8,1406.8,804.3z"/>
			<path class="st3" d="M1462.6,782.6h-14.8v10.8h14.2v4.2h-14.2v14.2h-4.4v-33.4h19.2V782.6z"/>
		</g>
		<g class="st6">
			<path class="st3" d="M1492,782.6h-14.8v10.8h14.2v4.2h-14.2v14.2h-4.4v-33.4h19.2V782.6z"/>
		</g>
		<g class="st6">
			<path class="st3" d="M1503.1,799.2v-4h17.4v4H1503.1z"/>
		</g>
		<g class="st6">
			<path class="st3" d="M1542.7,812.4c-3.1,0-5.8-0.7-8-2.2c-2.2-1.5-3.8-3.5-4.6-6l3.8-2.2c1.3,4,4.3,6.1,8.9,6.1
				c2.3,0,4-0.5,5.2-1.4c1.2-0.9,1.8-2.2,1.8-3.7c0-1.6-0.6-2.8-1.8-3.6s-3.2-1.6-6.1-2.5c-1.4-0.5-2.4-0.8-3.2-1.1
				c-0.7-0.3-1.7-0.7-2.8-1.2c-1.1-0.6-1.9-1.1-2.5-1.7c-0.5-0.6-1-1.4-1.5-2.3c-0.4-1-0.6-2-0.6-3.2c0-2.9,1-5.2,3.1-6.9
				c2-1.7,4.5-2.6,7.4-2.6c2.6,0,4.9,0.7,6.9,2c2,1.3,3.4,3.1,4.4,5.3l-3.7,2.1c-1.4-3.4-4-5.1-7.6-5.1c-1.8,0-3.3,0.4-4.4,1.3
				c-1.1,0.9-1.7,2.1-1.7,3.6c0,1.5,0.5,2.6,1.6,3.3s2.9,1.6,5.4,2.4c0.9,0.3,1.5,0.5,1.9,0.7s1,0.4,1.8,0.6
				c0.8,0.3,1.4,0.5,1.8,0.7c0.4,0.2,0.9,0.5,1.5,0.8c0.7,0.4,1.1,0.7,1.5,1c0.3,0.3,0.7,0.7,1.1,1.2s0.7,0.9,0.9,1.4s0.4,1,0.5,1.6
				c0.1,0.6,0.2,1.3,0.2,2c0,2.9-1.1,5.3-3.2,7C1548.9,811.5,1546.1,812.4,1542.7,812.4z"/>
		</g>
		<g class="st6">
			<path class="st3" d="M1584.6,778.4h4.4v33.4h-4.4v-15h-16.2v15h-4.4v-33.4h4.4v14.2h16.2V778.4z"/>
			<path class="st3" d="M1628.7,807.4c-3.4,3.4-7.4,5.1-12.3,5.1c-4.8,0-8.9-1.7-12.3-5.1c-3.3-3.4-5-7.5-5-12.3
				c0-4.8,1.7-8.9,5-12.3c3.3-3.4,7.4-5,12.3-5c4.8,0,8.9,1.7,12.3,5c3.4,3.4,5,7.4,5,12.3C1633.8,799.9,1632.1,804,1628.7,807.4z
				 M1607.3,804.3c2.5,2.5,5.5,3.7,9.2,3.7c3.7,0,6.7-1.2,9.2-3.7c2.5-2.5,3.7-5.6,3.7-9.2c0-3.7-1.2-6.8-3.7-9.3
				c-2.5-2.5-5.5-3.7-9.2-3.7c-3.7,0-6.7,1.2-9.2,3.7c-2.5,2.5-3.7,5.6-3.7,9.3C1603.6,798.8,1604.8,801.8,1607.3,804.3z"/>
			<path class="st3" d="M1663.6,811.8l-7.5-12.8h-7.9v12.8h-4.4v-33.4h13.3c2.9,0,5.3,1,7.3,3c2,2,3.1,4.5,3.1,7.3
				c0,2.2-0.6,4.1-1.9,5.9c-1.3,1.8-2.9,3-5,3.8l7.9,13.4H1663.6z M1648.3,782.6V795h8.9c1.7,0,3.1-0.6,4.2-1.8
				c1.2-1.2,1.7-2.7,1.7-4.4s-0.6-3.2-1.7-4.4c-1.2-1.2-2.6-1.8-4.2-1.8H1648.3z"/>
			<path class="st3" d="M1682.2,807.6h15.5v4.2h-19.9v-33.4h19.7v4.2h-15.3v10.3h14.1v4.1h-14.1V807.6z"/>
		</g>
		<circle class="st3" cx="1316.4" cy="674.9" r="7.3"/>
		<circle class="st3" cx="1316.4" cy="872.4" r="7.3"/>
		<circle class="st3" cx="1784.2" cy="673.6" r="7.3"/>
		<circle class="st3" cx="1783.2" cy="873.7" r="7.3"/>
		<g>
			<g>
				<g class="st11">
					<path class="st9" d="M443.9,890.5c14.7,0,26.6,11.9,26.6,26.6v5c0,14.7-11.9,26.6-26.6,26.6H320c-14.7,0-26.6-11.9-26.6-26.6
						v-5c0-14.7,11.9-26.6,26.6-26.6H443.9 M443.9,860.5H320c-31.2,0-56.6,25.4-56.6,56.6v5c0,31.2,25.4,56.6,56.6,56.6h123.9
						c31.2,0,56.6-25.4,56.6-56.6v-5C500.5,885.9,475.1,860.5,443.9,860.5L443.9,860.5z"/>
				</g>
				<path class="st7" d="M322,898h121c10.9,0,19.8,8.8,19.8,19.8v3.7c0,10.9-8.8,19.8-19.8,19.8H322c-10.9,0-19.8-8.8-19.8-19.8
					v-3.7C302.2,906.9,311.1,898,322,898z"/>
			</g>
			<g>
				<path class="st0" d="M374.2,916.7h19.5c1.1,0,2.1,0.9,2.1,2.1v13.5c0,1.1-0.9,2.1-2.1,2.1h-19.5c-1.1,0-2.1-0.9-2.1-2.1v-13.5
					C372.1,917.6,373,916.7,374.2,916.7z"/>
				<path class="st12" d="M376.6,919.2v-7.5c0-4,3.3-7.3,7.3-7.3s7.3,3.3,7.3,7.3v8"/>
			</g>
		</g>
		<g>
			<g>
				<g class="st11">
					<path class="st9" d="M1026.9,890.5c14.7,0,26.6,11.9,26.6,26.6v5c0,14.7-11.9,26.6-26.6,26.6H903.1
						c-14.7,0-26.6-11.9-26.6-26.6v-5c0-14.7,11.9-26.6,26.6-26.6H1026.9 M1026.9,860.5H903.1c-31.2,0-56.6,25.4-56.6,56.6v5
						c0,31.2,25.4,56.6,56.6,56.6h123.9c31.2,0,56.6-25.4,56.6-56.6v-5C1083.5,885.9,1058.1,860.5,1026.9,860.5L1026.9,860.5z"/>
				</g>
				<path class="st7" d="M905,898h121c10.9,0,19.8,8.8,19.8,19.8v3.7c0,10.9-8.8,19.8-19.8,19.8H905c-10.9,0-19.8-8.8-19.8-19.8
					v-3.7C885.2,906.9,894.1,898,905,898z"/>
			</g>
			<g>
				<path class="st0" d="M957.2,916.7h19.5c1.1,0,2.1,0.9,2.1,2.1v13.5c0,1.1-0.9,2.1-2.1,2.1h-19.5c-1.1,0-2.1-0.9-2.1-2.1v-13.5
					C955.2,917.6,956.1,916.7,957.2,916.7z"/>
				<path class="st12" d="M959.7,919.2v-7.5c0-4,3.3-7.3,7.3-7.3s7.3,3.3,7.3,7.3v8"/>
			</g>
		</g>
		<g>
			<g>
				<g class="st11">
					<path class="st9" d="M1616.3,890.5c14.7,0,26.6,11.9,26.6,26.6v5c0,14.7-11.9,26.6-26.6,26.6h-123.9
						c-14.7,0-26.6-11.9-26.6-26.6v-5c0-14.7,11.9-26.6,26.6-26.6H1616.3 M1616.3,860.5h-123.9c-31.2,0-56.6,25.4-56.6,56.6v5
						c0,31.2,25.4,56.6,56.6,56.6h123.9c31.2,0,56.6-25.4,56.6-56.6v-5C1672.9,885.9,1647.5,860.5,1616.3,860.5L1616.3,860.5z"/>
				</g>
				<path class="st7" d="M1494.3,898h121c10.9,0,19.8,8.8,19.8,19.8v3.7c0,10.9-8.8,19.8-19.8,19.8h-121c-10.9,0-19.8-8.8-19.8-19.8
					v-3.7C1474.6,906.9,1483.4,898,1494.3,898z"/>
			</g>
			<g>
				<path class="st0" d="M1546.6,916.7h19.5c1.1,0,2.1,0.9,2.1,2.1v13.5c0,1.1-0.9,2.1-2.1,2.1h-19.5c-1.1,0-2.1-0.9-2.1-2.1v-13.5
					C1544.5,917.6,1545.4,916.7,1546.6,916.7z"/>
				<path class="st12" d="M1549,919.2v-7.5c0-4,3.3-7.3,7.3-7.3s7.3,3.3,7.3,7.3v8"/>
			</g>
		</g>
		<g>
			<g>
				<g class="st11">
					<path class="st9" d="M1614.3,487.7c14.7,0,26.6,11.9,26.6,26.6v5c0,14.7-11.9,26.6-26.6,26.6h-123.9
						c-14.7,0-26.6-11.9-26.6-26.6v-5c0-14.7,11.9-26.6,26.6-26.6L1614.3,487.7 M1614.3,457.7h-123.9c-31.2,0-56.6,25.4-56.6,56.6v5
						c0,31.2,25.4,56.6,56.6,56.6h123.9c31.2,0,56.6-25.4,56.6-56.6v-5C1670.9,483.1,1645.5,457.7,1614.3,457.7L1614.3,457.7z"/>
				</g>
				<path class="st7" d="M1492.3,495.2h121c10.9,0,19.8,8.8,19.8,19.8v3.7c0,10.9-8.8,19.8-19.8,19.8h-121
					c-10.9,0-19.8-8.8-19.8-19.8v-3.7C1472.6,504,1481.4,495.2,1492.3,495.2z"/>
			</g>
			<g>
				<path class="st0" d="M1544.6,513.8h19.5c1.1,0,2.1,0.9,2.1,2.1v13.5c0,1.1-0.9,2.1-2.1,2.1h-19.5c-1.1,0-2.1-0.9-2.1-2.1v-13.5
					C1542.5,514.8,1543.4,513.8,1544.6,513.8z"/>
				<path class="st0" d="M1563.6,516.8h-4v-8c0-2.9-2.4-5.3-5.3-5.3s-5.3,2.4-5.3,5.3v7.5h-4v-7.5c0-5.1,4.2-9.3,9.3-9.3
					s9.3,4.2,9.3,9.3V516.8L1563.6,516.8z"/>
			</g>
		</g>
	</g>
</g>
</svg>
