<?xml version="1.0" encoding="utf-8"?>
<!-- Generator: Adobe Illustrator 26.3.1, SVG Export Plug-In . SVG Version: 6.00 Build 0)  -->
<svg version="1.1" id="Layer_1" xmlns="http://www.w3.org/2000/svg" xmlns:xlink="http://www.w3.org/1999/xlink" x="0px" y="0px"
	 viewBox="0 0 237.1 118.2" style="enable-background:new 0 0 237.1 118.2;" xml:space="preserve">
<style type="text/css">
	.st0{opacity:0.2;}
	.st1{fill:#FBEDD5;}
	.st2{fill:#E9A72D;}
	.st3{enable-background:new    ;}
	.st4{fill:#19192D;}
</style>
<g id="a">
</g>
<g id="b">
	<g id="c">
		<g>
			<g class="st0">
				<path class="st1" d="M180.5,30c14.7,0,26.6,11.9,26.6,26.6v5c0,14.7-11.9,26.6-26.6,26.6H56.6C41.9,88.2,30,76.3,30,61.6v-5
					C30,41.9,41.9,30,56.6,30H180.5 M180.5,0H56.6C25.4,0,0,25.4,0,56.6v5c0,31.2,25.4,56.6,56.6,56.6h123.9
					c31.2,0,56.6-25.4,56.6-56.6v-5C237.1,25.4,211.7,0,180.5,0L180.5,0z"/>
			</g>
			<path class="st2" d="M58.5,37.5h121c10.9,0,19.8,8.8,19.8,19.8V61c0,10.9-8.8,19.8-19.8,19.8h-121c-10.9,0-19.8-8.8-19.8-19.8
				v-3.7C38.8,46.3,47.6,37.5,58.5,37.5z"/>
			<g class="st3">
				<path class="st4" d="M91.6,49.6c1.9,0,3.4,0.6,4.7,1.9c1.3,1.3,1.9,2.8,1.9,4.6s-0.6,3.4-1.9,4.6s-2.9,1.9-4.7,1.9h-3.4v6.4
					h-3.8V49.6H91.6z M91.6,59.1c0.8,0,1.5-0.3,2-0.8c0.5-0.6,0.8-1.3,0.8-2.1c0-0.9-0.3-1.6-0.8-2.1c-0.5-0.6-1.2-0.8-2-0.8h-3.4
					v5.9H91.6z"/>
			</g>
			<g class="st3">
				<path class="st4" d="M107.3,65.4h7.4v3.7h-11.3V49.6h3.8V65.4z"/>
			</g>
			<g class="st3">
				<path class="st4" d="M133.1,69.1l-1.2-3.5h-8l-1.2,3.5h-4.1l6.8-19.5h4.8l6.9,19.5H133.1z M125.1,62h5.5l-2.8-8L125.1,62z"/>
			</g>
			<g class="st3">
				<path class="st4" d="M154.5,49.6l-6.7,11.9v7.6H144v-7.6l-6.6-11.9h4.3l4.2,8.1l4.2-8.1H154.5z"/>
			</g>
		</g>
	</g>
</g>
</svg>
