<?xml version="1.0" encoding="UTF-8"?><svg xmlns="http://www.w3.org/2000/svg" viewBox="0 0 274.15 135.63"><defs><style>.d{fill:#54b5b1;stroke:#fff;stroke-miterlimit:10;stroke-width:5px;}.e{letter-spacing:.02em;}.f{fill:#e9a72d;}.g{fill:#19192d;}.h{letter-spacing:.07em;}.i{letter-spacing:0em;}.j{letter-spacing:.06em;}.k{letter-spacing:.07em;}.l{font-size:28.64px;}.l,.m{fill:#fff;font-family:Gilroy-Bold, Gilroy-Bold;}.m{font-size:15px;}</style></defs><g id="a"/><g id="b"><g id="c"><rect class="g" y="24.22" width="274.15" height="111.41" rx="23.44" ry="23.44"/><text class="m" transform="translate(101.36 12.75)"><tspan class="h" x="0" y="0">V</tspan><tspan class="j" x="10.83" y="0">I</tspan><tspan class="k" x="15.81" y="0">S</tspan><tspan class="h" x="25.6" y="0">IBILITY</tspan></text><g><rect class="d" x="53.31" y="48.27" width="175.74" height="32.89" rx="16.45" ry="16.45"/><path class="g" d="M207.37,69.52c3.53,0,6.39-1.97,6.39-4.39s-2.86-4.39-6.39-4.39H106.85v8.79h100.52Z"/><path class="f" d="M150.27,60.73H68.08c-1.35,0-2.44,1.97-2.44,4.39s1.09,4.39,2.44,4.39h82.2v-8.79Z"/><circle class="f" cx="160.31" cy="65.59" r="16.45"/></g><text class="l" transform="translate(110.99 116.35)"><tspan class="i" x="0" y="0">F</tspan><tspan class="e" x="14.69" y="0">AIR</tspan></text></g></g></svg>