<?xml version="1.0" encoding="UTF-8"?><svg xmlns="http://www.w3.org/2000/svg" viewBox="0 0 592.35 214.09"><defs><style>.d{fill:#bc1e44;}.e{fill:#cfd0d1;}.f{fill:#a3a3a3;}.g{fill:none;stroke:#32325b;stroke-linecap:round;stroke-linejoin:round;stroke-width:4px;}.h{fill:#32325b;opacity:.3;}</style></defs><g id="a"/><g id="b"><g id="c"><g><path class="e" d="M65.5,9.58C-11.14,63.84,.65,135.67,.65,135.67c-.31,4.08,5.3,10.35,5.3,10.35,8.19,11.29,6.3,17.57,6.3,17.57,.31,13.49-8.55,24.15-8.55,24.15v20.6c9.18,5.72,27.06,5.74,27.06,5.74,20.7,0,22.58-8.16,22.58-8.16v-18.19c0-5.33-5.02-8.78-5.02-8.78-14.74-21.02,.63-39.84,.63-39.84,11.29-12.23,23.52-12.86,23.52-12.86H238.25c12.01,1.5,25.31,2.8,39.38,3.92v-42.11c-18.17,1.97-30.22,3.69-30.22,3.69H72.48c-27.29,0-28.85-12.23-28.85-12.23-4.39-25.09,33.88-54.26,33.88-54.26l13.17-11.29c6.27-4.39,3.45-10.66,3.45-10.66l-3.76,1.57,1.88-4.08c-11.92-4.08-26.74,8.78-26.74,8.78Z"/><path class="h" d="M3.71,208.34c39.92,5.41,49.64-2.41,49.64-2.41v-19.57s-24.82,7.02-49.64,1.37v20.6Z"/><path class="g" d="M19.36,179.27c5.23-30.11-13.4-42.03-13.4-42.03"/><path class="g" d="M26.37,167.98c-4.08-34.82,21.01-55.08,21.01-55.08"/><path class="d" d="M277.78,130.19c95.93,7.66,227.5,7.27,227.5,7.27,50.76-.42,70.86,10.87,70.86,10.87,6.79,5.17,11.26-2.51,11.26-2.51,9.33-33.88,2.62-54.07,2.62-54.07-5.3-13.82-11.33-12.43-11.33-12.43-5.87-1.25-25.59,4.18-25.59,4.18-89.77,4.18-165.69-.84-165.69-.84-36.08-1.54-80.67,2.24-109.69,5.38,.07,11.59,.14,28.9,.06,42.13Z"/><path class="f" d="M277.78,130.19c.07-13.23,0-30.54-.06-42.13h-.08v42.12s.1,0,.15,.01Z"/><line class="g" x1="64.73" y1="101.37" x2="252.13" y2="101.37"/></g></g></g></svg>