<?xml version="1.0" encoding="UTF-8"?><svg xmlns="http://www.w3.org/2000/svg" viewBox="0 0 256.97 156.64"><defs><style>.d{fill:#e9a72d;}.e{fill:#fbedd5;}.f{fill:#19192d;mix-blend-mode:multiply;}.f,.g{opacity:.2;}.h{isolation:isolate;}</style></defs><g class="h"><g id="a"/><g id="b"><g id="c"><g><g class="g"><path class="e" d="M212.2,17c15.34,0,27.77,12.44,27.77,27.77V111.87c0,15.34-12.44,27.77-27.77,27.77H44.77c-15.34,0-27.77-12.44-27.77-27.77V44.77c0-15.34,12.44-27.77,27.77-27.77H212.2m0-17H44.77C20.09,0,0,20.09,0,44.77V111.87c0,24.69,20.09,44.77,44.77,44.77H212.2c24.69,0,44.77-20.09,44.77-44.77V44.77c0-24.69-20.09-44.77-44.77-44.77h0Z"/></g><rect class="f" x="17" y="36.01" width="203.73" height="102.49" rx="20.23" ry="20.23"/><rect class="d" x="25.9" y="27.07" width="207.37" height="102.49" rx="20.23" ry="20.23"/></g></g></g></g></svg>