<?xml version="1.0" encoding="UTF-8"?><svg xmlns="http://www.w3.org/2000/svg" viewBox="0 0 223.41 285.51"><defs><style>.d{fill:#54b5b1;stroke:#fff;stroke-width:5px;}.d,.e{stroke-miterlimit:10;}.f{fill:#fff;}.g{fill:#e9a72d;}.h,.e{fill:#19192d;}.e{opacity:.23;stroke:#19192d;stroke-width:28px;}</style></defs><g id="a"/><g id="b"><g id="c"><g><g><path class="f" d="M63.15,0V1.98h-2.83V10.5h-2.07V1.98h-2.82V0h7.72Z"/><path class="f" d="M67.5,8.52h4.42v1.98h-6.5V0h6.42V1.98h-4.35v2.23h3.97v1.95h-3.97v2.35Z"/><path class="f" d="M84.78,0V10.5h-2.05V3.69l-2.96,4.87h-.24l-2.95-4.85v6.78h-2.07V0h2.13l3.01,4.96,3-4.96h2.14Z"/><path class="f" d="M91.77,0c1.01,0,1.86,.34,2.55,1.02,.69,.68,1.04,1.52,1.04,2.51s-.34,1.82-1.04,2.5c-.69,.68-1.54,1.02-2.55,1.02h-1.84v3.45h-2.07V0h3.92Zm0,5.12c.44,0,.8-.15,1.09-.46,.29-.3,.44-.68,.44-1.13s-.15-.84-.44-1.14-.65-.45-1.09-.45h-1.84v3.18h1.84Z"/><path class="f" d="M99.9,8.52h4.42v1.98h-6.5V0h6.42V1.98h-4.35v2.23h3.97v1.95h-3.97v2.35Z"/><path class="f" d="M112.66,10.5l-2.12-3.64h-1.57v3.64h-2.07V0h4.2c.97,0,1.79,.34,2.47,1.02s1.02,1.5,1.02,2.46c0,.65-.19,1.25-.55,1.81-.37,.56-.86,.97-1.47,1.25l2.33,3.96h-2.24Zm-3.69-8.57v3.11h2.13c.39,0,.72-.15,1-.46,.28-.3,.42-.67,.42-1.1s-.14-.8-.42-1.1-.62-.45-1-.45h-2.13Z"/><path class="f" d="M124.14,10.5l-.67-1.89h-4.31l-.63,1.89h-2.24l3.67-10.5h2.57l3.7,10.5h-2.1Zm-4.31-3.83h2.96l-1.52-4.29-1.44,4.29Z"/><path class="f" d="M134.56,0V1.98h-2.83V10.5h-2.07V1.98h-2.82V0h7.73Z"/><path class="f" d="M140.76,10.71c-1.17,0-2.13-.33-2.88-.99s-1.12-1.54-1.12-2.65V0h2.06V6.9c0,.55,.16,.98,.47,1.3,.31,.32,.81,.48,1.48,.48s1.16-.16,1.48-.48c.31-.32,.47-.75,.47-1.3V0h2.07V7.07c0,1.11-.38,1.99-1.12,2.65s-1.71,.99-2.89,.99Z"/><path class="f" d="M153.52,10.5l-2.12-3.64h-1.57v3.64h-2.07V0h4.2c.97,0,1.79,.34,2.48,1.02,.68,.68,1.02,1.5,1.02,2.46,0,.65-.18,1.25-.55,1.81-.37,.56-.86,.97-1.47,1.25l2.33,3.96h-2.24Zm-3.69-8.57v3.11h2.13c.39,0,.73-.15,1.01-.46,.28-.3,.42-.67,.42-1.1s-.14-.8-.42-1.1c-.28-.3-.62-.45-1.01-.45h-2.13Z"/><path class="f" d="M160.17,8.52h4.43v1.98h-6.5V0h6.42V1.98h-4.35v2.23h3.98v1.95h-3.98v2.35Z"/></g><rect class="h" y="25.21" width="223.41" height="260.3" rx="23.44" ry="23.44"/><g><path class="e" d="M169.73,187.12V69.05c0-8.78-7.18-15.96-15.96-15.96s-15.96,7.18-15.96,15.96v118.06c-12.48,5.96-21.1,18.7-21.1,33.45,0,20.47,16.59,37.06,37.06,37.06s37.06-16.59,37.06-37.06c0-14.75-8.62-27.49-21.1-33.45Z"/><g><path class="d" d="M170.54,187.12V69.05c0-8.78-7.18-15.96-15.96-15.96s-15.96,7.18-15.96,15.96v118.06c-12.48,5.96-21.1,18.7-21.1,33.45,0,20.47,16.59,37.06,37.06,37.06s37.06-16.59,37.06-37.06c0-14.75-8.62-27.49-21.1-33.45Z"/><path class="h" d="M159.06,71.36c0-2.47-2-4.48-4.48-4.48s-4.48,2-4.48,4.48v74.86h8.96V71.36Z"/><g><circle class="g" cx="153.77" cy="218.13" r="16.77"/><path class="g" d="M150.1,110.32v104.22c0,2.47,2,4.48,4.48,4.48s4.48-2,4.48-4.48V110.32h-8.96Z"/></g><circle class="g" cx="153.77" cy="101.12" r="16.77"/></g></g><g><path class="f" d="M31.34,122.99v-6.77l15.71-16.18c3.51-3.68,5.26-6.75,5.26-9.21,0-1.8-.56-3.24-1.68-4.34s-2.55-1.64-4.31-1.64c-3.46,0-6.03,1.8-7.69,5.39l-7.63-4.47c1.45-3.16,3.53-5.57,6.25-7.23,2.72-1.67,5.7-2.5,8.94-2.5,4.16,0,7.74,1.3,10.72,3.91,2.98,2.61,4.47,6.13,4.47,10.55,0,4.77-2.53,9.67-7.55,14.7l-9.03,9.04h17.3v8.74H31.34Z"/><path class="f" d="M67.89,122.99v-6.77l15.71-16.18c3.51-3.68,5.26-6.75,5.26-9.21,0-1.8-.56-3.24-1.68-4.34s-2.55-1.64-4.31-1.64c-3.46,0-6.03,1.8-7.69,5.39l-7.63-4.47c1.45-3.16,3.53-5.57,6.25-7.23,2.72-1.67,5.7-2.5,8.94-2.5,4.16,0,7.74,1.3,10.72,3.91,2.98,2.61,4.47,6.13,4.47,10.55,0,4.77-2.53,9.67-7.55,14.7l-9.03,9.04h17.3v8.74h-30.77Z"/><path class="f" d="M115.23,91.43c-3.16,0-5.79-1.06-7.89-3.19-2.1-2.12-3.16-4.68-3.16-7.66s1.05-5.59,3.16-7.69c2.1-2.1,4.73-3.16,7.89-3.16s5.79,1.05,7.89,3.16c2.1,2.11,3.16,4.67,3.16,7.69s-1.04,5.59-3.12,7.69c-2.08,2.1-4.72,3.16-7.92,3.16Zm-2.79-8.02c.72,.75,1.65,1.12,2.79,1.12s2.07-.37,2.79-1.12,1.08-1.69,1.08-2.83-.36-2.08-1.08-2.83c-.72-.75-1.66-1.12-2.79-1.12s-2.07,.37-2.79,1.12c-.72,.74-1.08,1.69-1.08,2.83s.36,2.08,1.08,2.83Z"/></g></g></g></g></svg>