<?xml version="1.0" encoding="UTF-8"?><svg xmlns="http://www.w3.org/2000/svg" viewBox="0 0 223.41 287.76"><defs><style>.d{fill:#19192d;}.e{stroke:#fff;}.e,.f{fill:none;stroke-miterlimit:10;stroke-width:5px;}.f{stroke:#54b5b1;}.g{letter-spacing:.07em;}.h{font-size:65.75px;letter-spacing:.03em;}.h,.i{fill:#fff;font-family:Gilroy-Bold, Gilroy-Bold;}.j{letter-spacing:.03em;}.i{font-size:15px;}</style></defs><g id="a"/><g id="b"><g id="c"><g><text class="i" transform="translate(57.23 12.75)"><tspan class="j" x="0" y="0">WA</tspan><tspan class="g" x="26.06" y="0">VE HEIGHT</tspan></text><rect class="d" y="27.46" width="223.41" height="260.3" rx="23.44" ry="23.44"/><text class="h" transform="translate(44.23 241.34)"><tspan x="0" y="0">1.5m</tspan></text></g><path class="f" d="M31.29,70.6c21.1,0,21.1,20,42.21,20s21.1-20,42.21-20,21.11,20,42.21,20,21.11-20,42.21-20"/><path class="e" d="M31.29,101.8c21.1,0,21.1,20,42.21,20s21.1-20,42.21-20,21.11,20,42.21,20,21.11-20,42.21-20"/><path class="f" d="M31.29,133c21.1,0,21.1,20,42.21,20s21.1-20,42.21-20,21.11,20,42.21,20,21.11-20,42.21-20"/></g></g></svg>