<?xml version="1.0" encoding="utf-8"?>
<!-- Generator: Adobe Illustrator 26.3.1, SVG Export Plug-In . SVG Version: 6.00 Build 0)  -->
<svg version="1.1" id="Layer_1" xmlns="http://www.w3.org/2000/svg" xmlns:xlink="http://www.w3.org/1999/xlink" x="0px" y="0px"
	 viewBox="0 0 389.9 380.5" style="enable-background:new 0 0 389.9 380.5;" xml:space="preserve">
<style type="text/css">
	.st0{opacity:0.2;fill:#19192D;stroke:#FFFFFF;stroke-width:5;stroke-miterlimit:10;}
	.st1{opacity:0.2;}
	.st2{fill:none;stroke:#E9A72D;stroke-width:3;stroke-linecap:round;stroke-linejoin:round;stroke-miterlimit:10;}
	.st3{fill:none;stroke:#FFFFFF;stroke-width:3;stroke-miterlimit:10;}
	.st4{opacity:0.2;fill:none;stroke:#FFFFFF;stroke-miterlimit:10;}
	.st5{fill:none;stroke:#005DD0;stroke-width:3;stroke-linecap:round;stroke-linejoin:round;stroke-miterlimit:10;}
	.st6{fill:#54B5B1;stroke:#FFFFFF;stroke-width:5;stroke-miterlimit:10;}
	.st7{fill:#FFFFFF;}
	.st8{font-family:'Gilroy-Bold';}
	.st9{font-size:49px;}
	.st10{letter-spacing:1;}
	.st11{font-size:20.2006px;}
	.st12{fill:none;stroke:#FFFFFF;stroke-miterlimit:10;}
</style>
<g>
	<path class="st6" d="M387.4,19.6v341.3c0,9.5-7.7,17.1-17.1,17.1H19.6c-9.5,0-17.1-7.7-17.1-17.1V19.6c0-9.5,7.7-17.1,17.1-17.1
		h350.7C379.8,2.5,387.4,10.2,387.4,19.6z"/>
	<text transform="matrix(1 0 0 1 49.4897 90.8444)" class="st7 st8 st9 st10">Wednesday</text>
	<g>
		<g>
			<path class="st2" d="M145.4,240.1c-8.2-6.7-13.4-16.8-13.4-28.1c0-20,16.2-36.3,36.3-36.3c16.9,0,31.1,11.5,35.1,27.2"/>
			<path class="st3" d="M264.7,248.4c0.6-1.8,0.9-3.8,0.9-5.8c0-10.6-8.6-19.1-19.1-19.1c-3,0-5.9,0.7-8.4,2
				c-3.5-13.2-15.6-22.9-29.9-22.9c-15.8,0-28.8,11.8-30.7,27c-2.5-1.4-5.3-2.2-8.3-2.2c-9.3,0-16.8,7.5-16.8,16.8
				c0,1,0.1,2,0.3,2.9h-1.3c-8.1,0-14.7,6.6-14.7,14.7c0,8.1,6.6,14.7,14.7,14.7h107.4c8.1,0,14.7-6.6,14.7-14.7
				C273.3,255.8,269.7,250.7,264.7,248.4z"/>
			<line class="st2" x1="168.3" y1="148.3" x2="168.3" y2="165.2"/>
			<line class="st2" x1="136.5" y1="156.9" x2="144.9" y2="171.5"/>
			<line class="st2" x1="113.2" y1="180.2" x2="127.8" y2="188.6"/>
			<line class="st2" x1="104.6" y1="212" x2="121.5" y2="212"/>
			<line class="st2" x1="113.2" y1="243.8" x2="127.8" y2="235.4"/>
			<line class="st2" x1="223.5" y1="180.2" x2="208.9" y2="188.6"/>
			<line class="st2" x1="200.2" y1="156.9" x2="191.7" y2="171.5"/>
		</g>
	</g>
	<g>
		<text transform="matrix(1 0 0 1 119.8662 316.9971)"><tspan x="0" y="0" class="st7 st8 st11">Light cloud with</tspan><tspan x="0.8" y="23.9" class="st7 st8 st11">a gentle breeze</tspan></text>
	</g>
	<line class="st12" x1="9.2" y1="134.6" x2="380.7" y2="134.6"/>
</g>
</svg>
