<?xml version="1.0" encoding="UTF-8"?><svg xmlns="http://www.w3.org/2000/svg" viewBox="0 0 389.91 380.52"><defs><style>.d,.e,.f{stroke:#fff;stroke-miterlimit:10;}.d,.f,.g{fill:none;}.d,.g{stroke-width:3px;}.e{fill:#54b5b1;stroke-width:5px;}.h{fill:#fff;}.g{stroke:#e9a72d;stroke-linecap:round;stroke-linejoin:round;}</style></defs><g id="a"/><g id="b"><g id="c"><g><rect class="e" x="7.2" y="-2.2" width="375.52" height="384.91" rx="17.11" ry="17.11" transform="translate(4.7 385.22) rotate(-90)"/><g><path class="h" d="M61.66,90.84l-9.08-34.3h7.07l6.6,25.43,7.15-25.43h5.86l7.18,25.37,6.51-25.37h6.51l-9.01,34.3h-7.69l-6.5-22.76-6.45,22.76h-8.15Z"/><path class="h" d="M107.31,81.19c.85,3.07,3.15,4.61,6.91,4.61,2.42,0,4.25-.82,5.49-2.45l5.1,2.94c-2.42,3.5-5.98,5.24-10.68,5.24-4.05,0-7.3-1.22-9.75-3.67s-3.67-5.54-3.67-9.26,1.21-6.77,3.63-9.24c2.42-2.47,5.52-3.7,9.31-3.7,3.59,0,6.56,1.24,8.89,3.72,2.33,2.48,3.5,5.55,3.5,9.21,0,.82-.08,1.68-.25,2.6h-18.47Zm-.1-4.9h12.5c-.36-1.67-1.1-2.91-2.23-3.72-1.13-.82-2.41-1.22-3.85-1.22-1.7,0-3.1,.43-4.21,1.3-1.11,.87-1.85,2.08-2.21,3.65Z"/><path class="h" d="M150.04,56.54h6.32v34.3h-6.32v-2.89c-1.86,2.38-4.51,3.58-7.94,3.58s-6.12-1.25-8.45-3.75-3.5-5.56-3.5-9.19,1.17-6.69,3.5-9.19,5.15-3.75,8.45-3.75,6.08,1.19,7.94,3.58v-12.69Zm-11.64,27.02c1.29,1.29,2.92,1.94,4.88,1.94s3.58-.64,4.85-1.94c1.27-1.29,1.91-2.95,1.91-4.97s-.64-3.68-1.91-4.97c-1.27-1.29-2.89-1.94-4.85-1.94s-3.58,.65-4.88,1.94-1.94,2.95-1.94,4.97,.64,3.68,1.94,4.97Z"/><path class="h" d="M176.99,65.66c2.68,0,4.89,.9,6.64,2.69,1.75,1.8,2.62,4.28,2.62,7.45v15.04h-6.32v-14.26c0-1.63-.44-2.88-1.32-3.75-.88-.87-2.06-1.3-3.53-1.3-1.63,0-2.94,.51-3.92,1.52-.98,1.01-1.47,2.53-1.47,4.56v13.23h-6.32v-24.5h6.32v2.74c1.54-2.29,3.97-3.43,7.3-3.43Z"/><path class="h" d="M198.2,81.19c.85,3.07,3.15,4.61,6.91,4.61,2.42,0,4.25-.82,5.49-2.45l5.1,2.94c-2.42,3.5-5.98,5.24-10.68,5.24-4.05,0-7.3-1.22-9.75-3.67s-3.67-5.54-3.67-9.26,1.21-6.77,3.63-9.24c2.42-2.47,5.52-3.7,9.31-3.7,3.59,0,6.56,1.24,8.89,3.72s3.5,5.55,3.5,9.21c0,.82-.08,1.68-.25,2.6h-18.47Zm-.1-4.9h12.5c-.36-1.67-1.1-2.91-2.23-3.72-1.13-.82-2.41-1.22-3.85-1.22-1.7,0-3.1,.43-4.21,1.3s-1.85,2.08-2.21,3.65Z"/><path class="h" d="M227.41,73.3c0,.65,.43,1.18,1.3,1.59,.87,.41,1.92,.77,3.16,1.08,1.24,.31,2.48,.7,3.72,1.18s2.29,1.27,3.16,2.38c.87,1.11,1.3,2.5,1.3,4.17,0,2.52-.94,4.45-2.82,5.81s-4.22,2.03-7.03,2.03c-5.03,0-8.46-1.94-10.29-5.83l5.49-3.09c.72,2.12,2.32,3.19,4.8,3.19,2.25,0,3.38-.7,3.38-2.11,0-.65-.43-1.18-1.3-1.59-.87-.41-1.92-.78-3.16-1.1s-2.48-.74-3.72-1.23c-1.24-.49-2.3-1.27-3.16-2.33-.87-1.06-1.3-2.39-1.3-3.99,0-2.42,.89-4.32,2.67-5.71,1.78-1.39,3.99-2.08,6.64-2.08,1.99,0,3.81,.45,5.44,1.35,1.63,.9,2.92,2.18,3.87,3.85l-5.39,2.94c-.78-1.67-2.09-2.5-3.92-2.5-.82,0-1.49,.18-2.03,.54s-.81,.85-.81,1.47Z"/><path class="h" d="M263.57,56.54h6.32v34.3h-6.32v-2.89c-1.86,2.38-4.51,3.58-7.94,3.58s-6.12-1.25-8.45-3.75c-2.34-2.5-3.5-5.56-3.5-9.19s1.17-6.69,3.5-9.19c2.33-2.5,5.15-3.75,8.45-3.75s6.08,1.19,7.94,3.58v-12.69Zm-11.64,27.02c1.29,1.29,2.92,1.94,4.88,1.94s3.58-.64,4.85-1.94c1.27-1.29,1.91-2.95,1.91-4.97s-.64-3.68-1.91-4.97c-1.27-1.29-2.89-1.94-4.85-1.94s-3.59,.65-4.88,1.94-1.94,2.95-1.94,4.97,.64,3.68,1.94,4.97Z"/><path class="h" d="M295.52,66.34h6.32v24.5h-6.32v-2.89c-1.9,2.38-4.56,3.58-7.99,3.58s-6.07-1.25-8.4-3.75c-2.34-2.5-3.5-5.56-3.5-9.19s1.17-6.69,3.5-9.19c2.33-2.5,5.14-3.75,8.4-3.75,3.43,0,6.09,1.19,7.99,3.58v-2.89Zm-11.66,17.22c1.27,1.29,2.89,1.94,4.85,1.94s3.58-.64,4.88-1.94,1.94-2.95,1.94-4.97-.65-3.68-1.94-4.97c-1.29-1.29-2.92-1.94-4.88-1.94s-3.58,.65-4.85,1.94c-1.27,1.29-1.91,2.95-1.91,4.97s.64,3.68,1.91,4.97Z"/><path class="h" d="M324.77,66.34h6.76l-8.93,24.54c-1.27,3.5-2.96,6.04-5.07,7.63-2.1,1.59-4.72,2.3-7.85,2.13v-5.88c1.7,.03,3.05-.33,4.04-1.08,1-.75,1.79-1.96,2.38-3.63l-10.04-23.72h6.91l6.39,16.47,5.42-16.47Z"/></g><g><path class="g" d="M145.41,240.15c-8.16-6.65-13.38-16.79-13.38-28.14,0-20.04,16.25-36.29,36.29-36.29,16.9,0,31.1,11.55,35.14,27.18"/><path class="d" d="M264.66,248.42c.58-1.82,.89-3.76,.89-5.77,0-10.57-8.57-19.14-19.14-19.14-3.03,0-5.89,.72-8.44,1.98-3.55-13.21-15.6-22.94-29.93-22.94-15.78,0-28.79,11.79-30.74,27.03-2.46-1.41-5.3-2.23-8.34-2.23-9.28,0-16.81,7.53-16.81,16.81,0,1,.1,1.97,.27,2.92h-1.25c-8.12,0-14.7,6.58-14.7,14.7s6.58,14.7,14.7,14.7h107.41c8.12,0,14.7-6.58,14.7-14.7,0-5.94-3.54-11.05-8.61-13.37Z"/><line class="g" x1="168.32" y1="148.32" x2="168.32" y2="165.18"/><line class="g" x1="136.48" y1="156.86" x2="144.91" y2="171.45"/><line class="g" x1="113.17" y1="180.16" x2="127.77" y2="188.59"/><line class="g" x1="104.64" y1="212" x2="121.5" y2="212"/><line class="g" x1="113.17" y1="243.84" x2="127.77" y2="235.42"/><line class="g" x1="223.47" y1="180.16" x2="208.87" y2="188.59"/><line class="g" x1="200.16" y1="156.86" x2="191.74" y2="171.45"/></g><line class="f" x1="9.25" y1="134.59" x2="380.66" y2="134.59"/><g><path class="h" d="M124.09,314.33h5.39v2.67h-8.18v-14.14h2.79v11.47Z"/><path class="h" d="M132.73,305.68c-.43,0-.8-.16-1.12-.47s-.47-.69-.47-1.12,.16-.81,.47-1.13,.69-.49,1.12-.49,.83,.16,1.14,.49,.47,.7,.47,1.13-.16,.8-.47,1.12-.7,.47-1.14,.47Zm-1.29,11.31v-10.1h2.61v10.1h-2.61Z"/><path class="h" d="M144.67,306.9h2.54v9.62c0,1.56-.51,2.75-1.54,3.58s-2.27,1.23-3.73,1.23c-1.09,0-2.05-.21-2.88-.63-.83-.42-1.46-1.03-1.91-1.84l2.22-1.27c.51,.94,1.39,1.41,2.65,1.41,.82,0,1.47-.22,1.94-.65,.47-.43,.71-1.04,.71-1.84v-1.09c-.77,1.02-1.85,1.54-3.23,1.54s-2.62-.5-3.59-1.5c-.96-1-1.44-2.23-1.44-3.67s.49-2.65,1.46-3.66,2.16-1.51,3.58-1.51,2.46,.51,3.23,1.54v-1.25Zm-4.86,6.88c.53,.52,1.21,.78,2.03,.78s1.5-.26,2.03-.78c.53-.52,.8-1.18,.8-1.99s-.27-1.45-.8-1.97c-.53-.52-1.21-.78-2.03-.78s-1.5,.26-2.03,.78c-.53,.52-.8,1.18-.8,1.97s.27,1.47,.8,1.99Z"/><path class="h" d="M155.7,306.61c1.1,0,2.02,.37,2.74,1.11,.72,.74,1.08,1.76,1.08,3.07v6.2h-2.61v-5.88c0-.67-.18-1.19-.55-1.55-.36-.36-.85-.54-1.45-.54-.67,0-1.21,.21-1.62,.63-.4,.42-.61,1.04-.61,1.88v5.45h-2.61v-14.14h2.61v5.17c.63-.94,1.64-1.41,3.01-1.41Z"/><path class="h" d="M168.02,309.4h-2.28v4.2c0,.35,.09,.61,.26,.77,.17,.16,.43,.25,.77,.27s.75,.02,1.25,0v2.36c-1.79,.2-3.05,.03-3.79-.5-.73-.54-1.1-1.5-1.1-2.89v-4.2h-1.76v-2.5h1.76v-2.04l2.61-.79v2.83h2.28v2.5Z"/><path class="h" d="M180.89,317.28c-1.52,0-2.79-.51-3.81-1.54s-1.53-2.29-1.53-3.8,.51-2.77,1.53-3.8,2.29-1.54,3.81-1.54c.98,0,1.88,.24,2.69,.71,.81,.47,1.42,1.1,1.84,1.9l-2.24,1.31c-.2-.42-.51-.75-.92-.99-.41-.24-.87-.36-1.38-.36-.78,0-1.43,.26-1.94,.78s-.77,1.18-.77,1.99,.26,1.45,.77,1.97c.51,.52,1.16,.78,1.94,.78,.52,0,.99-.12,1.4-.35s.72-.56,.92-.98l2.26,1.29c-.44,.79-1.07,1.43-1.88,1.91-.81,.48-1.7,.72-2.69,.72Z"/><path class="h" d="M187.34,317v-14.75h2.61v14.75h-2.61Z"/><path class="h" d="M201.43,315.73c-1.04,1.03-2.3,1.55-3.8,1.55s-2.76-.52-3.79-1.55-1.55-2.29-1.55-3.79,.52-2.76,1.55-3.79,2.29-1.54,3.79-1.54,2.76,.51,3.8,1.54,1.56,2.29,1.56,3.79-.52,2.76-1.56,3.79Zm-5.75-1.79c.52,.52,1.17,.79,1.95,.79s1.43-.26,1.96-.79c.53-.53,.79-1.19,.79-2s-.26-1.47-.79-2-1.18-.79-1.96-.79-1.43,.26-1.95,.79-.78,1.19-.78,2,.26,1.47,.78,2Z"/><path class="h" d="M212,306.9h2.61v10.1h-2.61v-1.13c-.63,.94-1.64,1.41-3.01,1.41-1.1,0-2.02-.37-2.74-1.11s-1.08-1.76-1.08-3.07v-6.2h2.61v5.88c0,.67,.18,1.19,.55,1.54,.36,.36,.85,.54,1.45,.54,.67,0,1.21-.21,1.62-.63,.4-.42,.61-1.04,.61-1.88v-5.45Z"/><path class="h" d="M225.15,302.86h2.61v14.14h-2.61v-1.19c-.77,.98-1.86,1.47-3.27,1.47s-2.52-.52-3.48-1.55-1.44-2.29-1.44-3.79,.48-2.76,1.44-3.79,2.12-1.54,3.48-1.54,2.5,.49,3.27,1.47v-5.23Zm-4.8,11.14c.53,.53,1.2,.8,2.01,.8s1.47-.27,2-.8c.53-.53,.79-1.21,.79-2.05s-.26-1.52-.79-2.05-1.19-.8-2-.8-1.48,.27-2.01,.8c-.53,.53-.8,1.22-.8,2.05s.27,1.52,.8,2.05Z"/><path class="h" d="M247.57,306.9h2.5l-2.95,10.1h-2.55l-1.91-6.12-1.91,6.12h-2.55l-2.97-10.1h2.76l1.73,6.2,1.84-6.2h2.47l1.84,6.22,1.71-6.22Z"/><path class="h" d="M253.55,305.68c-.43,0-.81-.16-1.12-.47-.32-.32-.48-.69-.48-1.12s.16-.81,.48-1.13c.32-.32,.69-.49,1.12-.49s.82,.16,1.14,.49,.47,.7,.47,1.13-.16,.8-.47,1.12-.7,.47-1.14,.47Zm-1.29,11.31v-10.1h2.61v10.1h-2.61Z"/><path class="h" d="M263.53,309.4h-2.28v4.2c0,.35,.09,.61,.26,.77,.17,.16,.43,.25,.77,.27,.34,.02,.75,.02,1.25,0v2.36c-1.79,.2-3.05,.03-3.79-.5-.73-.54-1.1-1.5-1.1-2.89v-4.2h-1.76v-2.5h1.76v-2.04l2.61-.79v2.83h2.28v2.5Z"/><path class="h" d="M271.49,306.61c1.1,0,2.02,.37,2.74,1.11,.72,.74,1.08,1.76,1.08,3.07v6.2h-2.61v-5.88c0-.67-.18-1.19-.54-1.55-.36-.36-.85-.54-1.46-.54-.67,0-1.21,.21-1.62,.63-.4,.42-.61,1.04-.61,1.88v5.45h-2.61v-14.14h2.61v5.17c.63-.94,1.64-1.41,3.01-1.41Z"/><path class="h" d="M130.4,330.77h2.61v10.1h-2.61v-1.19c-.78,.98-1.88,1.47-3.29,1.47s-2.5-.52-3.46-1.55-1.44-2.29-1.44-3.79,.48-2.76,1.44-3.79,2.12-1.54,3.46-1.54c1.41,0,2.51,.49,3.29,1.47v-1.19Zm-4.81,7.1c.53,.53,1.19,.8,2,.8s1.48-.27,2.01-.8c.53-.53,.8-1.21,.8-2.05s-.27-1.52-.8-2.05-1.2-.8-2.01-.8-1.47,.27-2,.8-.79,1.22-.79,2.05,.26,1.52,.79,2.05Z"/><path class="h" d="M149.17,330.77h2.54v9.62c0,1.56-.51,2.75-1.54,3.58s-2.27,1.23-3.73,1.23c-1.09,0-2.05-.21-2.88-.63-.83-.42-1.46-1.03-1.91-1.84l2.22-1.27c.51,.94,1.39,1.41,2.65,1.41,.82,0,1.47-.22,1.94-.65,.47-.43,.71-1.04,.71-1.84v-1.09c-.77,1.02-1.85,1.54-3.23,1.54s-2.62-.5-3.59-1.5c-.96-1-1.44-2.23-1.44-3.67s.49-2.65,1.46-3.66,2.16-1.51,3.58-1.51,2.46,.51,3.23,1.54v-1.25Zm-4.86,6.88c.53,.52,1.21,.78,2.03,.78s1.5-.26,2.03-.78c.53-.52,.8-1.18,.8-1.99s-.27-1.45-.8-1.97c-.53-.52-1.21-.78-2.03-.78s-1.5,.26-2.03,.78c-.53,.52-.8,1.18-.8,1.97s.27,1.47,.8,1.99Z"/><path class="h" d="M156.78,336.89c.35,1.27,1.3,1.9,2.85,1.9,1,0,1.75-.34,2.26-1.01l2.1,1.21c-1,1.44-2.46,2.16-4.4,2.16-1.67,0-3.01-.51-4.02-1.52s-1.52-2.28-1.52-3.82,.5-2.79,1.5-3.81c1-1.02,2.28-1.52,3.84-1.52,1.48,0,2.7,.51,3.67,1.54,.96,1.02,1.44,2.29,1.44,3.8,0,.34-.03,.69-.1,1.07h-7.62Zm-.04-2.02h5.15c-.15-.69-.45-1.2-.92-1.54-.46-.34-.99-.5-1.59-.5-.7,0-1.28,.18-1.74,.54-.46,.36-.76,.86-.91,1.5Z"/><path class="h" d="M172.44,330.49c1.1,0,2.02,.37,2.74,1.11,.72,.74,1.08,1.76,1.08,3.07v6.2h-2.61v-5.88c0-.67-.18-1.19-.55-1.55-.36-.36-.85-.54-1.45-.54-.67,0-1.21,.21-1.62,.63-.4,.42-.61,1.04-.61,1.88v5.45h-2.61v-10.1h2.61v1.13c.63-.94,1.64-1.41,3.01-1.41Z"/><path class="h" d="M184.76,333.27h-2.28v4.2c0,.35,.09,.61,.26,.77,.17,.16,.43,.25,.77,.27s.75,.02,1.25,0v2.36c-1.79,.2-3.05,.03-3.79-.5-.73-.54-1.1-1.5-1.1-2.89v-4.2h-1.76v-2.5h1.76v-2.04l2.61-.79v2.83h2.28v2.5Z"/><path class="h" d="M187.1,340.87v-14.75h2.61v14.75h-2.61Z"/><path class="h" d="M194.8,336.89c.35,1.27,1.3,1.9,2.85,1.9,1,0,1.75-.34,2.26-1.01l2.1,1.21c-1,1.44-2.46,2.16-4.4,2.16-1.67,0-3.01-.51-4.02-1.52-1.01-1.01-1.51-2.28-1.51-3.82s.5-2.79,1.5-3.81c1-1.02,2.28-1.52,3.84-1.52,1.48,0,2.7,.51,3.67,1.54s1.44,2.29,1.44,3.8c0,.34-.03,.69-.1,1.07h-7.62Zm-.04-2.02h5.15c-.15-.69-.46-1.2-.92-1.54-.46-.34-.99-.5-1.59-.5-.7,0-1.28,.18-1.74,.54-.46,.36-.76,.86-.91,1.5Z"/><path class="h" d="M216.27,330.49c1.36,0,2.52,.51,3.48,1.54s1.44,2.29,1.44,3.79-.48,2.76-1.44,3.79-2.12,1.55-3.48,1.55-2.5-.49-3.27-1.47v1.19h-2.61v-14.14h2.61v5.23c.77-.98,1.86-1.47,3.27-1.47Zm-2.49,7.38c.53,.53,1.19,.8,2,.8s1.48-.27,2.01-.8c.53-.53,.8-1.21,.8-2.05s-.27-1.52-.8-2.05-1.2-.8-2.01-.8-1.47,.27-2,.8c-.52,.53-.79,1.22-.79,2.05s.26,1.52,.79,2.05Z"/><path class="h" d="M226.15,332.51c.24-.65,.64-1.13,1.2-1.45s1.18-.49,1.87-.49v2.91c-.79-.09-1.5,.07-2.13,.49-.63,.42-.94,1.11-.94,2.08v4.83h-2.61v-10.1h2.61v1.74Z"/><path class="h" d="M233.06,336.89c.35,1.27,1.3,1.9,2.85,1.9,1,0,1.75-.34,2.26-1.01l2.1,1.21c-1,1.44-2.46,2.16-4.4,2.16-1.67,0-3.01-.51-4.02-1.52s-1.52-2.28-1.52-3.82,.5-2.79,1.5-3.81c1-1.02,2.28-1.52,3.84-1.52,1.48,0,2.7,.51,3.67,1.54,.96,1.02,1.44,2.29,1.44,3.8,0,.34-.03,.69-.1,1.07h-7.62Zm-.04-2.02h5.15c-.15-.69-.45-1.2-.92-1.54-.46-.34-.99-.5-1.59-.5-.7,0-1.28,.18-1.74,.54-.46,.36-.76,.86-.91,1.5Z"/><path class="h" d="M245.22,336.89c.35,1.27,1.3,1.9,2.85,1.9,1,0,1.75-.34,2.26-1.01l2.1,1.21c-1,1.44-2.46,2.16-4.4,2.16-1.67,0-3.01-.51-4.02-1.52-1.01-1.01-1.51-2.28-1.51-3.82s.5-2.79,1.5-3.81c1-1.02,2.28-1.52,3.84-1.52,1.48,0,2.7,.51,3.67,1.54s1.44,2.29,1.44,3.8c0,.34-.03,.69-.1,1.07h-7.62Zm-.04-2.02h5.15c-.15-.69-.46-1.2-.92-1.54-.46-.34-.99-.5-1.59-.5-.7,0-1.28,.18-1.74,.54-.46,.36-.76,.86-.91,1.5Z"/><path class="h" d="M257.95,338.43h4.49v2.44h-7.96v-1.73l4.26-5.92h-4.06v-2.44h7.57v1.73l-4.29,5.92Z"/><path class="h" d="M266.45,336.89c.35,1.27,1.3,1.9,2.85,1.9,1,0,1.75-.34,2.26-1.01l2.1,1.21c-1,1.44-2.46,2.16-4.4,2.16-1.67,0-3.01-.51-4.02-1.52s-1.52-2.28-1.52-3.82,.5-2.79,1.5-3.81c1-1.02,2.28-1.52,3.84-1.52,1.48,0,2.7,.51,3.67,1.54,.96,1.02,1.44,2.29,1.44,3.8,0,.34-.03,.69-.1,1.07h-7.62Zm-.04-2.02h5.15c-.15-.69-.45-1.2-.92-1.54-.46-.34-.99-.5-1.59-.5-.7,0-1.28,.18-1.74,.54-.46,.36-.76,.86-.91,1.5Z"/></g></g></g></g></svg>