<?xml version="1.0" encoding="UTF-8"?><svg xmlns="http://www.w3.org/2000/svg" viewBox="0 0 833.72 833.72"><defs><style>.d{fill:#fbedd5;opacity:.1;}.e{fill:#f6f6f6;}.f{fill:#19192d;font-family:Gilroy-Bold, Gilroy-Bold;font-size:54.29px;}.g{fill:none;stroke:#fff;stroke-miterlimit:10;}</style></defs><g id="a"/><g id="b"><g id="c"><circle class="g" cx="416.86" cy="416.86" r="416.36"/><circle class="g" cx="416.86" cy="416.86" r="219.63"/><path class="d" d="M419.44,205.91l-.16-164.36c-22.47,.09-44.61,2.16-66.23,6.08l28.99,162.97c12.19-2.62,24.69-4.2,37.41-4.68Z"/><path class="d" d="M382.03,210.59l-28.99-162.97c-21.98,3.98-43.4,9.86-64.08,17.49l57.28,156.45c11.53-4.65,23.5-8.34,35.79-10.98Z"/><path class="e" d="M206.55,379.78l-160.31-28.27c-3.84,21.25-5.88,43.12-6,65.45H201.86c.49-12.71,2.08-25.13,4.69-37.18Z"/><path class="d" d="M217.53,344.21l-154.01-56.06c-7.53,20.35-13.35,41.52-17.29,63.35l160.31,28.27c2.65-12.28,6.35-24.17,10.99-35.57Z"/><path class="d" d="M234.38,311.29L91.59,228.85c-10.99,18.8-20.41,38.62-28.06,59.31l154.01,56.06c4.68-11.5,10.34-22.51,16.85-32.92Z"/><path class="d" d="M256.45,281.9l-126.98-106.55c-14.11,16.66-26.8,34.55-37.88,53.5l142.8,82.44c6.52-10.43,13.91-20.26,22.06-29.39Z"/><path class="d" d="M346.37,221.78l-57.35-157.57c-20.69,7.49-40.54,16.72-59.37,27.55l83.61,144.81c10.53-5.82,21.6-10.78,33.11-14.79Z"/><path class="d" d="M313.26,236.57L229.65,91.76c-19.01,10.93-36.96,23.48-53.7,37.45l107.05,127.58c9.47-7.55,19.59-14.32,30.26-20.21Z"/><path class="d" d="M283,256.78l-107.05-127.58c-16.8,14.01-32.35,29.46-46.48,46.15l126.98,106.55c8.12-9.1,17.01-17.51,26.55-25.12Z"/><path class="d" d="M419.5,205.91l.16-164.36c22.47,.09,44.61,2.16,66.23,6.08l-28.99,162.97c-12.19-2.62-24.69-4.2-37.41-4.68Z"/><text class="f" transform="translate(93.18 401.38) rotate(-84.71)"><tspan x="0" y="0">1</tspan></text><text class="f" transform="translate(100.42 347.73) rotate(-74.18)"><tspan x="0" y="0">2</tspan></text><text class="f" transform="translate(117.55 294.32) rotate(-63.74)"><tspan x="0" y="0">3</tspan></text><text class="f" transform="translate(142.94 245.87) rotate(-55.24)"><tspan x="0" y="0">4</tspan></text><text class="f" transform="translate(175.91 195.76) rotate(-43.91)"><tspan x="0" y="0">5</tspan></text><text class="f" transform="translate(218.96 158.45) rotate(-33.73)"><tspan x="0" y="0">6</tspan></text><text class="f" transform="translate(272.32 126.69) rotate(-25.53)"><tspan x="0" y="0">7</tspan></text><text class="f" transform="translate(322.35 103.83) rotate(-12.46)"><tspan x="0" y="0">8</tspan></text><text class="f" transform="translate(380.7 92.17) rotate(-2.56)"><tspan x="0" y="0">9</tspan></text><text class="f" transform="translate(435.06 90.03) rotate(7.96)"><tspan x="0" y="0">0</tspan></text></g></g></svg>