<?xml version="1.0" encoding="UTF-8"?><svg xmlns="http://www.w3.org/2000/svg" viewBox="0 0 478.5 279.71"><defs><style>.d{fill:#19192d;stroke:#fff;stroke-miterlimit:10;stroke-width:5px;}.e{fill:#fff;}.f{fill:#e9a72d;}</style></defs><g id="a"/><g id="b"><g id="c"><g><rect class="d" x="2.5" y="2.5" width="421.2" height="274.71" rx="43.56" ry="43.56"/><g><path class="e" d="M81.41,143.02l-5.81-21.95h4.53l4.22,16.28,4.58-16.28h3.75l4.6,16.23,4.17-16.23h4.17l-5.77,21.95h-4.92l-4.16-14.56-4.13,14.56h-5.22Z"/><path class="e" d="M110.78,136.85c.54,1.96,2.02,2.95,4.42,2.95,1.55,0,2.72-.52,3.51-1.57l3.26,1.88c-1.55,2.24-3.83,3.36-6.84,3.36-2.59,0-4.67-.78-6.24-2.35-1.57-1.57-2.35-3.54-2.35-5.93s.77-4.33,2.32-5.91c1.55-1.58,3.53-2.37,5.96-2.37,2.3,0,4.2,.79,5.69,2.38,1.49,1.59,2.24,3.55,2.24,5.89,0,.52-.05,1.08-.16,1.66h-11.82Zm-.06-3.13h8c-.23-1.07-.71-1.86-1.43-2.38-.72-.52-1.54-.78-2.46-.78-1.09,0-1.99,.28-2.7,.83-.71,.55-1.18,1.33-1.41,2.34Z"/><path class="e" d="M138.29,121.07h4.05v21.95h-4.05v-1.85c-1.19,1.53-2.88,2.29-5.08,2.29s-3.92-.8-5.41-2.4c-1.5-1.6-2.24-3.56-2.24-5.88s.75-4.28,2.24-5.88c1.49-1.6,3.3-2.4,5.41-2.4s3.89,.76,5.08,2.29v-8.12Zm-7.45,17.29c.83,.83,1.87,1.24,3.12,1.24s2.29-.41,3.1-1.24,1.22-1.89,1.22-3.18-.41-2.36-1.22-3.18c-.82-.83-1.85-1.24-3.1-1.24s-2.29,.41-3.12,1.24c-.83,.82-1.24,1.89-1.24,3.18s.41,2.36,1.24,3.18Z"/><path class="e" d="M155.69,126.91c1.71,0,3.13,.58,4.25,1.72,1.12,1.15,1.68,2.74,1.68,4.77v9.63h-4.04v-9.12c0-1.04-.28-1.85-.85-2.4-.56-.55-1.32-.83-2.26-.83-1.04,0-1.88,.32-2.51,.97-.63,.65-.94,1.62-.94,2.92v8.47h-4.04v-15.68h4.04v1.76c.98-1.46,2.54-2.2,4.67-2.2Z"/><path class="e" d="M169.43,136.85c.54,1.96,2.02,2.95,4.42,2.95,1.55,0,2.72-.52,3.51-1.57l3.26,1.88c-1.55,2.24-3.83,3.36-6.84,3.36-2.59,0-4.67-.78-6.24-2.35-1.57-1.57-2.35-3.54-2.35-5.93s.77-4.33,2.32-5.91c1.55-1.58,3.53-2.37,5.96-2.37,2.3,0,4.2,.79,5.69,2.38,1.49,1.59,2.24,3.55,2.24,5.89,0,.52-.05,1.08-.16,1.66h-11.82Zm-.06-3.13h8c-.23-1.07-.71-1.86-1.43-2.38-.72-.52-1.54-.78-2.46-.78-1.09,0-1.99,.28-2.7,.83-.71,.55-1.18,1.33-1.41,2.34Z"/><path class="e" d="M188.27,131.8c0,.42,.28,.76,.83,1.02,.55,.26,1.23,.49,2.02,.69,.79,.2,1.59,.45,2.38,.75,.79,.3,1.47,.81,2.02,1.52,.55,.71,.83,1.6,.83,2.67,0,1.61-.6,2.85-1.8,3.72-1.2,.87-2.7,1.3-4.5,1.3-3.22,0-5.42-1.24-6.58-3.73l3.51-1.97c.46,1.36,1.48,2.04,3.07,2.04,1.44,0,2.16-.45,2.16-1.35,0-.42-.28-.76-.83-1.02-.55-.26-1.23-.5-2.02-.71-.79-.21-1.59-.47-2.38-.78-.79-.31-1.47-.81-2.02-1.49s-.83-1.53-.83-2.56c0-1.55,.57-2.76,1.71-3.65s2.56-1.33,4.25-1.33c1.27,0,2.43,.29,3.48,.86,1.04,.57,1.87,1.39,2.48,2.46l-3.45,1.88c-.5-1.07-1.34-1.6-2.51-1.6-.52,0-.96,.12-1.3,.34-.34,.23-.52,.54-.52,.94Z"/><path class="e" d="M211.57,121.07h4.05v21.95h-4.05v-1.85c-1.19,1.53-2.88,2.29-5.08,2.29s-3.92-.8-5.41-2.4c-1.5-1.6-2.24-3.56-2.24-5.88s.75-4.28,2.24-5.88c1.49-1.6,3.3-2.4,5.41-2.4s3.89,.76,5.08,2.29v-8.12Zm-7.45,17.29c.83,.83,1.87,1.24,3.12,1.24s2.29-.41,3.1-1.24,1.22-1.89,1.22-3.18-.41-2.36-1.22-3.18c-.82-.83-1.85-1.24-3.1-1.24s-2.29,.41-3.12,1.24c-.83,.82-1.24,1.89-1.24,3.18s.41,2.36,1.24,3.18Z"/><path class="e" d="M232.18,127.34h4.05v15.68h-4.05v-1.85c-1.21,1.53-2.92,2.29-5.11,2.29s-3.88-.8-5.38-2.4c-1.5-1.6-2.24-3.56-2.24-5.88s.75-4.28,2.24-5.88c1.49-1.6,3.29-2.4,5.38-2.4,2.2,0,3.9,.76,5.11,2.29v-1.85Zm-7.46,11.02c.81,.83,1.85,1.24,3.1,1.24s2.29-.41,3.12-1.24c.83-.83,1.24-1.89,1.24-3.18s-.41-2.36-1.24-3.18c-.83-.83-1.87-1.24-3.12-1.24s-2.29,.41-3.1,1.24c-.82,.82-1.22,1.89-1.22,3.18s.41,2.36,1.22,3.18Z"/><path class="e" d="M251.05,127.34h4.33l-5.72,15.71c-.82,2.24-1.9,3.87-3.24,4.88s-3.02,1.47-5.03,1.37v-3.76c1.09,.02,1.95-.21,2.59-.69,.64-.48,1.14-1.26,1.52-2.32l-6.43-15.18h4.42l4.09,10.54,3.47-10.54Z"/><path class="e" d="M267.02,143.02v-22.89h4.04v22.89h-4.04Z"/><path class="e" d="M289.06,141.07c-1.61,1.6-3.57,2.4-5.9,2.4s-4.28-.8-5.88-2.4c-1.6-1.6-2.4-3.56-2.4-5.88s.8-4.28,2.4-5.88c1.6-1.6,3.56-2.4,5.88-2.4s4.29,.8,5.9,2.4c1.61,1.6,2.42,3.56,2.42,5.88s-.8,4.28-2.42,5.88Zm-8.92-2.78c.8,.81,1.81,1.22,3.03,1.22s2.23-.41,3.04-1.22c.82-.82,1.22-1.85,1.22-3.11s-.41-2.29-1.22-3.1c-.82-.82-1.83-1.22-3.04-1.22s-2.22,.41-3.03,1.22c-.81,.81-1.21,1.85-1.21,3.1s.4,2.29,1.21,3.11Z"/><path class="e" d="M308.63,141.07c-1.61,1.6-3.57,2.4-5.9,2.4s-4.28-.8-5.88-2.4c-1.6-1.6-2.4-3.56-2.4-5.88s.8-4.28,2.4-5.88c1.6-1.6,3.56-2.4,5.88-2.4s4.29,.8,5.9,2.4c1.61,1.6,2.42,3.56,2.42,5.88s-.8,4.28-2.42,5.88Zm-8.92-2.78c.8,.81,1.81,1.22,3.03,1.22s2.23-.41,3.04-1.22c.82-.82,1.22-1.85,1.22-3.11s-.41-2.29-1.22-3.1c-.82-.82-1.83-1.22-3.04-1.22s-2.22,.41-3.03,1.22c-.81,.81-1.21,1.85-1.21,3.1s.4,2.29,1.21,3.11Z"/><path class="e" d="M329.3,143.02h-4.7l-5.71-7.12v7.12h-4.04v-21.95h4.04v13.2l5.39-6.93h4.83l-6.3,7.75,6.49,7.93Z"/><path class="e" d="M334.94,131.8c0,.42,.28,.76,.83,1.02,.55,.26,1.23,.49,2.02,.69,.79,.2,1.59,.45,2.38,.75,.79,.3,1.47,.81,2.02,1.52,.55,.71,.83,1.6,.83,2.67,0,1.61-.6,2.85-1.8,3.72-1.2,.87-2.7,1.3-4.5,1.3-3.22,0-5.42-1.24-6.58-3.73l3.51-1.97c.46,1.36,1.48,2.04,3.07,2.04,1.44,0,2.16-.45,2.16-1.35,0-.42-.28-.76-.83-1.02-.55-.26-1.23-.5-2.02-.71-.79-.21-1.59-.47-2.38-.78-.79-.31-1.47-.81-2.02-1.49s-.83-1.53-.83-2.56c0-1.55,.57-2.76,1.71-3.65s2.56-1.33,4.25-1.33c1.27,0,2.43,.29,3.48,.86,1.04,.57,1.87,1.39,2.48,2.46l-3.45,1.88c-.5-1.07-1.34-1.6-2.51-1.6-.52,0-.96,.12-1.3,.34-.34,.23-.52,.54-.52,.94Z"/><path class="e" d="M92.58,180.66v-22.89h4.04v22.89h-4.04Z"/><path class="e" d="M103.27,163.09c-.67,0-1.25-.24-1.74-.74-.49-.49-.74-1.07-.74-1.74s.25-1.25,.74-1.76c.49-.5,1.07-.75,1.74-.75s1.28,.25,1.77,.75,.74,1.09,.74,1.76-.25,1.25-.74,1.74c-.49,.49-1.08,.74-1.77,.74Zm-2.01,17.56v-15.68h4.04v15.68h-4.04Z"/><path class="e" d="M124.41,180.66h-4.7l-5.71-7.12v7.12h-4.04v-21.95h4.04v13.2l5.39-6.93h4.83l-6.3,7.75,6.49,7.93Z"/><path class="e" d="M129.65,174.48c.54,1.96,2.02,2.95,4.42,2.95,1.55,0,2.72-.52,3.51-1.57l3.26,1.88c-1.55,2.24-3.83,3.36-6.84,3.36-2.59,0-4.67-.79-6.24-2.35-1.57-1.57-2.35-3.54-2.35-5.93s.77-4.33,2.32-5.91c1.55-1.58,3.53-2.37,5.96-2.37,2.3,0,4.2,.79,5.69,2.38,1.49,1.59,2.24,3.55,2.24,5.9,0,.52-.05,1.08-.16,1.66h-11.82Zm-.06-3.14h8c-.23-1.07-.71-1.86-1.43-2.38-.72-.52-1.54-.79-2.46-.79-1.09,0-1.99,.28-2.7,.83-.71,.55-1.18,1.33-1.41,2.34Z"/><path class="e" d="M166.09,164.98h4.05v15.68h-4.05v-1.85c-1.21,1.53-2.92,2.29-5.11,2.29s-3.88-.8-5.38-2.4c-1.5-1.6-2.24-3.56-2.24-5.88s.75-4.28,2.24-5.88c1.49-1.6,3.29-2.4,5.38-2.4,2.2,0,3.9,.76,5.11,2.29v-1.85Zm-7.46,11.02c.81,.83,1.85,1.24,3.1,1.24s2.29-.41,3.12-1.24c.83-.82,1.24-1.88,1.24-3.18s-.41-2.36-1.24-3.18c-.83-.83-1.87-1.24-3.12-1.24s-2.29,.41-3.1,1.24c-.82,.83-1.22,1.89-1.22,3.18s.41,2.36,1.22,3.18Z"/><path class="e" d="M195.53,164.98h3.95v14.93c0,2.43-.8,4.28-2.4,5.55s-3.53,1.91-5.79,1.91c-1.69,0-3.18-.32-4.47-.97-1.29-.65-2.27-1.6-2.96-2.85l3.45-1.98c.79,1.46,2.16,2.2,4.11,2.2,1.27,0,2.28-.33,3.01-1,.73-.67,1.1-1.62,1.1-2.86v-1.69c-1.19,1.59-2.87,2.38-5.02,2.38s-4.07-.78-5.57-2.34c-1.5-1.56-2.24-3.45-2.24-5.69s.75-4.11,2.26-5.68c1.5-1.57,3.36-2.35,5.55-2.35s3.83,.79,5.02,2.38v-1.94Zm-7.54,10.68c.83,.8,1.88,1.21,3.15,1.21s2.33-.4,3.15-1.21,1.24-1.83,1.24-3.09-.41-2.25-1.24-3.06-1.88-1.21-3.15-1.21-2.33,.4-3.15,1.21c-.83,.8-1.24,1.82-1.24,3.06s.41,2.29,1.24,3.09Z"/><path class="e" d="M217.45,178.7c-1.61,1.6-3.57,2.4-5.9,2.4s-4.28-.8-5.88-2.4c-1.6-1.6-2.4-3.56-2.4-5.88s.8-4.28,2.4-5.88c1.6-1.6,3.56-2.4,5.88-2.4s4.29,.8,5.9,2.4c1.61,1.6,2.42,3.56,2.42,5.88s-.8,4.28-2.42,5.88Zm-8.92-2.78c.8,.82,1.81,1.22,3.03,1.22s2.23-.41,3.04-1.22c.82-.81,1.22-1.85,1.22-3.1s-.41-2.29-1.22-3.11c-.82-.81-1.83-1.22-3.04-1.22s-2.22,.41-3.03,1.22c-.81,.82-1.21,1.85-1.21,3.11s.4,2.29,1.21,3.1Z"/><path class="e" d="M237.02,178.7c-1.61,1.6-3.57,2.4-5.9,2.4s-4.28-.8-5.88-2.4c-1.6-1.6-2.4-3.56-2.4-5.88s.8-4.28,2.4-5.88c1.6-1.6,3.56-2.4,5.88-2.4s4.29,.8,5.9,2.4c1.61,1.6,2.42,3.56,2.42,5.88s-.8,4.28-2.42,5.88Zm-8.92-2.78c.8,.82,1.81,1.22,3.03,1.22s2.23-.41,3.04-1.22c.82-.81,1.22-1.85,1.22-3.1s-.41-2.29-1.22-3.11c-.82-.81-1.83-1.22-3.04-1.22s-2.22,.41-3.03,1.22c-.81,.82-1.21,1.85-1.21,3.11s.4,2.29,1.21,3.1Z"/><path class="e" d="M255.11,158.7h4.05v21.95h-4.05v-1.85c-1.19,1.53-2.88,2.29-5.08,2.29s-3.92-.8-5.41-2.4c-1.5-1.6-2.24-3.56-2.24-5.88s.75-4.28,2.24-5.88c1.49-1.6,3.3-2.4,5.41-2.4s3.89,.76,5.08,2.29v-8.12Zm-7.45,17.29c.83,.83,1.87,1.24,3.12,1.24s2.29-.41,3.1-1.24c.82-.82,1.22-1.88,1.22-3.18s-.41-2.36-1.22-3.18-1.85-1.24-3.1-1.24-2.29,.41-3.12,1.24c-.83,.83-1.24,1.89-1.24,3.18s.41,2.36,1.24,3.18Z"/><path class="e" d="M284.47,158.7h4.05v21.95h-4.05v-1.85c-1.19,1.53-2.88,2.29-5.08,2.29s-3.92-.8-5.41-2.4c-1.5-1.6-2.24-3.56-2.24-5.88s.75-4.28,2.24-5.88c1.49-1.6,3.3-2.4,5.41-2.4s3.89,.76,5.08,2.29v-8.12Zm-7.45,17.29c.83,.83,1.87,1.24,3.12,1.24s2.29-.41,3.1-1.24c.82-.82,1.22-1.88,1.22-3.18s-.41-2.36-1.22-3.18-1.85-1.24-3.1-1.24-2.29,.41-3.12,1.24c-.83,.83-1.24,1.89-1.24,3.18s.41,2.36,1.24,3.18Z"/><path class="e" d="M305.07,164.98h4.05v15.68h-4.05v-1.85c-1.21,1.53-2.92,2.29-5.11,2.29s-3.88-.8-5.38-2.4c-1.5-1.6-2.24-3.56-2.24-5.88s.75-4.28,2.24-5.88c1.49-1.6,3.29-2.4,5.38-2.4,2.2,0,3.9,.76,5.11,2.29v-1.85Zm-7.46,11.02c.81,.83,1.85,1.24,3.1,1.24s2.29-.41,3.12-1.24c.83-.82,1.24-1.88,1.24-3.18s-.41-2.36-1.24-3.18c-.83-.83-1.87-1.24-3.12-1.24s-2.29,.41-3.1,1.24c-.82,.83-1.22,1.89-1.22,3.18s.41,2.36,1.22,3.18Z"/><path class="e" d="M323.95,164.98h4.33l-5.72,15.71c-.82,2.24-1.9,3.87-3.24,4.88-1.35,1.01-3.02,1.47-5.03,1.37v-3.76c1.09,.02,1.95-.21,2.59-.69s1.14-1.25,1.52-2.32l-6.43-15.18h4.42l4.09,10.54,3.47-10.54Z"/><path class="e" d="M122.03,206.5h-3.54v6.52c0,.54,.14,.94,.41,1.19,.27,.25,.67,.39,1.19,.42,.52,.03,1.17,.03,1.94-.02v3.67c-2.78,.31-4.74,.05-5.88-.78-1.14-.84-1.71-2.33-1.71-4.48v-6.52h-2.73v-3.89h2.73v-3.17l4.04-1.22v4.39h3.54v3.89Z"/><path class="e" d="M138.71,216.33c-1.61,1.6-3.57,2.4-5.9,2.4s-4.28-.8-5.88-2.4c-1.6-1.6-2.4-3.56-2.4-5.88s.8-4.28,2.4-5.88c1.6-1.6,3.56-2.4,5.88-2.4s4.29,.8,5.9,2.4c1.61,1.6,2.42,3.56,2.42,5.88s-.8,4.28-2.42,5.88Zm-8.92-2.78c.8,.81,1.81,1.22,3.03,1.22s2.23-.41,3.04-1.22c.82-.82,1.22-1.85,1.22-3.11s-.41-2.29-1.22-3.1c-.82-.82-1.83-1.22-3.04-1.22s-2.22,.41-3.03,1.22c-.81,.81-1.21,1.85-1.21,3.1s.4,2.29,1.21,3.11Z"/><path class="e" d="M162.42,202.17c1.71,0,3.13,.58,4.25,1.72,1.12,1.15,1.68,2.74,1.68,4.77v9.63h-4.04v-9.12c0-1.04-.28-1.85-.85-2.4-.56-.55-1.32-.83-2.26-.83-1.04,0-1.88,.32-2.51,.97-.63,.65-.94,1.62-.94,2.92v8.47h-4.04v-21.95h4.04v8.03c.98-1.46,2.54-2.2,4.67-2.2Z"/><path class="e" d="M176.15,212.11c.54,1.96,2.02,2.95,4.42,2.95,1.55,0,2.72-.52,3.51-1.57l3.26,1.88c-1.55,2.24-3.83,3.36-6.84,3.36-2.59,0-4.67-.78-6.24-2.35-1.57-1.57-2.35-3.54-2.35-5.93s.77-4.33,2.32-5.91c1.55-1.58,3.53-2.37,5.96-2.37,2.3,0,4.2,.79,5.69,2.38,1.49,1.59,2.24,3.55,2.24,5.89,0,.52-.05,1.08-.16,1.66h-11.82Zm-.06-3.13h8c-.23-1.07-.71-1.86-1.43-2.38-.72-.52-1.54-.78-2.46-.78-1.09,0-1.99,.28-2.7,.83-.71,.55-1.18,1.33-1.41,2.34Z"/><path class="e" d="M203.69,202.61h4.05v15.68h-4.05v-1.85c-1.21,1.53-2.92,2.29-5.11,2.29s-3.88-.8-5.38-2.4c-1.5-1.6-2.24-3.56-2.24-5.88s.75-4.28,2.24-5.88c1.49-1.6,3.29-2.4,5.38-2.4,2.2,0,3.9,.76,5.11,2.29v-1.85Zm-7.46,11.02c.81,.83,1.85,1.24,3.1,1.24s2.29-.41,3.12-1.24c.83-.83,1.24-1.89,1.24-3.18s-.41-2.36-1.24-3.18c-.83-.83-1.87-1.24-3.12-1.24s-2.29,.41-3.1,1.24c-.82,.82-1.22,1.89-1.22,3.18s.41,2.36,1.22,3.18Z"/><path class="e" d="M224.23,196.34h4.05v21.95h-4.05v-1.85c-1.19,1.53-2.88,2.29-5.08,2.29s-3.92-.8-5.41-2.4c-1.5-1.6-2.24-3.56-2.24-5.88s.75-4.28,2.24-5.88c1.49-1.6,3.3-2.4,5.41-2.4s3.89,.76,5.08,2.29v-8.12Zm-7.45,17.29c.83,.83,1.87,1.24,3.12,1.24s2.29-.41,3.1-1.24,1.22-1.89,1.22-3.18-.41-2.36-1.22-3.18c-.82-.83-1.85-1.24-3.1-1.24s-2.29,.41-3.12,1.24c-.83,.82-1.24,1.89-1.24,3.18s.41,2.36,1.24,3.18Z"/><path class="e" d="M233.1,210.76v-3.89h11.76v3.89h-11.76Z"/><path class="e" d="M263.05,216.33c-1.61,1.6-3.57,2.4-5.9,2.4s-4.28-.8-5.88-2.4c-1.6-1.6-2.4-3.56-2.4-5.88s.8-4.28,2.4-5.88c1.6-1.6,3.56-2.4,5.88-2.4s4.29,.8,5.9,2.4c1.61,1.6,2.42,3.56,2.42,5.88s-.8,4.28-2.42,5.88Zm-8.92-2.78c.8,.81,1.81,1.22,3.03,1.22s2.23-.41,3.04-1.22c.82-.82,1.22-1.85,1.22-3.11s-.41-2.29-1.22-3.1c-.82-.82-1.83-1.22-3.04-1.22s-2.22,.41-3.03,1.22c-.81,.81-1.21,1.85-1.21,3.1s.4,2.29,1.21,3.11Z"/><path class="e" d="M279.61,202.61h4.04v15.68h-4.04v-1.76c-.98,1.46-2.54,2.2-4.67,2.2-1.71,0-3.13-.57-4.25-1.72-1.12-1.15-1.68-2.74-1.68-4.77v-9.63h4.04v9.13c0,1.04,.28,1.84,.85,2.4s1.32,.83,2.26,.83c1.05,0,1.88-.32,2.51-.97,.63-.65,.94-1.62,.94-2.92v-8.47Z"/><path class="e" d="M297.26,206.5h-3.54v6.52c0,.54,.14,.94,.41,1.19,.27,.25,.67,.39,1.19,.42,.52,.03,1.17,.03,1.94-.02v3.67c-2.78,.31-4.74,.05-5.88-.78-1.14-.84-1.71-2.33-1.71-4.48v-6.52h-2.73v-3.89h2.73v-3.17l4.04-1.22v4.39h3.54v3.89Z"/><path class="e" d="M305.54,217.91c-.52,.52-1.15,.78-1.88,.78s-1.36-.26-1.88-.78c-.52-.52-.78-1.15-.78-1.88s.26-1.36,.78-1.88,1.15-.79,1.88-.79,1.36,.26,1.88,.79c.52,.52,.78,1.15,.78,1.88s-.26,1.36-.78,1.88Zm-3.48-6.99l-.85-8.31v-6.27h4.86v6.27l-.82,8.31h-3.2Z"/></g><path class="e" d="M422.96,97.57s59.35-25.3,55.34-86.36c-.22-3.28-4.24-4.7-6.46-2.27-8.54,9.38-23.26,26.45-47.34,30.67"/><g><path class="f" d="M182.85,90.04l-2.3-6.51h-14.85l-2.17,6.51h-7.69l12.65-36.14h8.83l12.75,36.14h-7.22Zm-14.82-13.17h10.17l-5.21-14.77-4.96,14.77Z"/><path class="f" d="M210.06,64.23h7.13l-9.41,25.86c-1.34,3.69-3.12,6.37-5.34,8.04-2.22,1.67-4.98,2.42-8.28,2.25v-6.2c1.79,.04,3.21-.34,4.26-1.13,1.05-.79,1.88-2.07,2.5-3.82l-10.58-24.99h7.28l6.73,17.35,5.71-17.35Z"/><path class="f" d="M226.48,79.87c.89,3.24,3.32,4.85,7.28,4.85,2.55,0,4.47-.86,5.78-2.58l5.37,3.1c-2.55,3.68-6.3,5.52-11.26,5.52-4.27,0-7.69-1.29-10.28-3.87-2.58-2.58-3.87-5.84-3.87-9.76s1.27-7.13,3.82-9.73,5.82-3.9,9.81-3.9c3.79,0,6.91,1.31,9.37,3.92s3.69,5.85,3.69,9.71c0,.86-.09,1.77-.26,2.74h-19.46Zm-.1-5.16h13.17c-.38-1.75-1.16-3.06-2.35-3.92-1.19-.86-2.54-1.29-4.05-1.29-1.79,0-3.27,.46-4.44,1.37s-1.94,2.19-2.32,3.85Z"/><path class="f" d="M259.37,89.42c-.86,.86-1.89,1.29-3.1,1.29s-2.24-.43-3.1-1.29c-.86-.86-1.29-1.89-1.29-3.1s.43-2.24,1.29-3.1c.86-.86,1.89-1.29,3.1-1.29s2.24,.43,3.1,1.29,1.29,1.89,1.29,3.1-.43,2.24-1.29,3.1Zm-5.73-11.51l-1.39-13.68v-10.33h8v10.33l-1.34,13.68h-5.27Z"/></g></g></g></g></svg>