<?xml version="1.0" encoding="UTF-8"?><svg xmlns="http://www.w3.org/2000/svg" viewBox="0 0 478.5 279.71"><defs><style>.d{fill:#bc1e44;stroke:#fff;stroke-miterlimit:10;stroke-width:5px;}.e{fill:#fff;}.f{fill:#e9a72d;}</style></defs><g id="a"/><g id="b"><g id="c"><g><g><rect class="d" x="2.5" y="2.5" width="421.2" height="274.71" rx="43.56" ry="43.56"/><g><path class="e" d="M94.73,119.88h8.37v4.14h-12.7v-21.95h4.33v17.81Z"/><path class="e" d="M109.4,117.85c.54,1.96,2.02,2.95,4.42,2.95,1.55,0,2.72-.52,3.51-1.57l3.26,1.88c-1.55,2.24-3.83,3.36-6.84,3.36-2.59,0-4.67-.78-6.24-2.35-1.57-1.57-2.35-3.54-2.35-5.93s.77-4.33,2.32-5.91c1.55-1.58,3.53-2.37,5.96-2.37,2.3,0,4.2,.79,5.69,2.38,1.49,1.59,2.24,3.55,2.24,5.9,0,.52-.05,1.08-.16,1.66h-11.82Zm-.06-3.14h8c-.23-1.07-.71-1.86-1.43-2.38-.72-.52-1.54-.78-2.46-.78-1.09,0-1.99,.28-2.7,.83-.71,.55-1.18,1.33-1.41,2.34Z"/><path class="e" d="M133.64,112.23h-3.54v6.52c0,.54,.14,.94,.41,1.19,.27,.25,.67,.39,1.19,.42,.52,.03,1.17,.03,1.94-.02v3.67c-2.78,.31-4.74,.05-5.88-.78-1.14-.84-1.71-2.33-1.71-4.48v-6.52h-2.73v-3.89h2.73v-3.17l4.04-1.22v4.39h3.54v3.89Z"/><path class="e" d="M143.37,102.04l-2.35,8.72h-3.29l1.25-8.72h4.39Z"/><path class="e" d="M148.92,112.8c0,.42,.28,.76,.83,1.02,.55,.26,1.23,.49,2.02,.69,.79,.2,1.59,.45,2.38,.75,.79,.3,1.47,.81,2.02,1.52,.55,.71,.83,1.6,.83,2.67,0,1.61-.6,2.85-1.8,3.72-1.2,.87-2.7,1.3-4.5,1.3-3.22,0-5.42-1.24-6.58-3.73l3.51-1.98c.46,1.36,1.48,2.04,3.07,2.04,1.44,0,2.16-.45,2.16-1.35,0-.42-.28-.76-.83-1.02-.55-.26-1.23-.5-2.02-.71-.79-.21-1.59-.47-2.38-.78-.79-.31-1.47-.81-2.02-1.49-.55-.68-.83-1.53-.83-2.56,0-1.55,.57-2.76,1.71-3.65s2.56-1.33,4.25-1.33c1.27,0,2.43,.29,3.48,.86,1.04,.58,1.87,1.4,2.48,2.46l-3.45,1.88c-.5-1.07-1.34-1.6-2.51-1.6-.52,0-.96,.12-1.3,.34-.34,.23-.52,.54-.52,.94Z"/><path class="e" d="M169.49,124.02v-22.89h4.04v22.89h-4.04Z"/><path class="e" d="M191.53,122.06c-1.61,1.6-3.57,2.4-5.9,2.4s-4.28-.8-5.88-2.4c-1.6-1.6-2.4-3.56-2.4-5.88s.8-4.28,2.4-5.88c1.6-1.6,3.56-2.4,5.88-2.4s4.29,.8,5.9,2.4c1.61,1.6,2.42,3.56,2.42,5.88s-.8,4.28-2.42,5.88Zm-8.92-2.78c.8,.82,1.81,1.22,3.03,1.22s2.23-.41,3.04-1.22,1.22-1.85,1.22-3.1-.41-2.29-1.22-3.1-1.83-1.22-3.04-1.22-2.22,.41-3.03,1.22c-.81,.82-1.21,1.85-1.21,3.1s.4,2.29,1.21,3.1Z"/><path class="e" d="M211.1,122.06c-1.61,1.6-3.57,2.4-5.9,2.4s-4.28-.8-5.88-2.4c-1.6-1.6-2.4-3.56-2.4-5.88s.8-4.28,2.4-5.88c1.6-1.6,3.56-2.4,5.88-2.4s4.29,.8,5.9,2.4c1.61,1.6,2.42,3.56,2.42,5.88s-.8,4.28-2.42,5.88Zm-8.92-2.78c.8,.82,1.81,1.22,3.03,1.22s2.23-.41,3.04-1.22,1.22-1.85,1.22-3.1-.41-2.29-1.22-3.1-1.83-1.22-3.04-1.22-2.22,.41-3.03,1.22c-.81,.82-1.21,1.85-1.21,3.1s.4,2.29,1.21,3.1Z"/><path class="e" d="M231.77,124.02h-4.7l-5.71-7.12v7.12h-4.04v-21.95h4.04v13.2l5.39-6.93h4.83l-6.3,7.75,6.49,7.93Z"/><path class="e" d="M255.41,108.34h4.05v15.68h-4.05v-1.85c-1.21,1.53-2.92,2.29-5.11,2.29s-3.88-.8-5.38-2.4c-1.5-1.6-2.24-3.56-2.24-5.88s.75-4.28,2.24-5.88c1.49-1.6,3.29-2.4,5.38-2.4,2.2,0,3.9,.76,5.11,2.29v-1.85Zm-7.46,11.02c.81,.83,1.85,1.24,3.1,1.24s2.29-.41,3.12-1.24,1.24-1.89,1.24-3.18-.41-2.36-1.24-3.18-1.87-1.24-3.12-1.24-2.29,.41-3.1,1.24c-.82,.83-1.22,1.89-1.22,3.18s.41,2.36,1.22,3.18Z"/><path class="e" d="M276.08,108.34h3.95v14.93c0,2.42-.8,4.28-2.4,5.55s-3.53,1.91-5.79,1.91c-1.69,0-3.18-.32-4.47-.97-1.29-.65-2.27-1.6-2.96-2.85l3.45-1.98c.79,1.46,2.16,2.2,4.11,2.2,1.27,0,2.28-.33,3.01-1,.73-.67,1.1-1.62,1.1-2.85v-1.69c-1.19,1.59-2.87,2.38-5.02,2.38s-4.07-.78-5.57-2.34c-1.5-1.56-2.24-3.45-2.24-5.69s.75-4.11,2.26-5.68c1.5-1.57,3.36-2.35,5.55-2.35s3.83,.79,5.02,2.38v-1.94Zm-7.54,10.68c.83,.8,1.88,1.21,3.15,1.21s2.33-.4,3.15-1.21c.83-.8,1.24-1.83,1.24-3.09s-.41-2.25-1.24-3.06c-.83-.8-1.88-1.21-3.15-1.21s-2.33,.4-3.15,1.21c-.83,.8-1.24,1.82-1.24,3.06s.41,2.28,1.24,3.09Z"/><path class="e" d="M296.56,108.34h4.05v15.68h-4.05v-1.85c-1.21,1.53-2.92,2.29-5.11,2.29s-3.88-.8-5.38-2.4c-1.5-1.6-2.24-3.56-2.24-5.88s.75-4.28,2.24-5.88c1.49-1.6,3.29-2.4,5.38-2.4,2.2,0,3.9,.76,5.11,2.29v-1.85Zm-7.46,11.02c.81,.83,1.85,1.24,3.1,1.24s2.29-.41,3.12-1.24,1.24-1.89,1.24-3.18-.41-2.36-1.24-3.18-1.87-1.24-3.12-1.24-2.29,.41-3.1,1.24c-.82,.83-1.22,1.89-1.22,3.18s.41,2.36,1.22,3.18Z"/><path class="e" d="M307.22,106.46c-.67,0-1.25-.25-1.74-.74-.49-.49-.74-1.07-.74-1.74s.25-1.25,.74-1.76c.49-.5,1.07-.75,1.74-.75s1.28,.25,1.77,.75,.74,1.09,.74,1.76-.25,1.25-.74,1.74c-.49,.49-1.08,.74-1.77,.74Zm-2.01,17.56v-15.68h4.04v15.68h-4.04Z"/><path class="e" d="M322.62,107.9c1.71,0,3.13,.58,4.25,1.72,1.12,1.15,1.68,2.74,1.68,4.77v9.63h-4.04v-9.13c0-1.04-.28-1.84-.85-2.4-.56-.55-1.32-.83-2.26-.83-1.04,0-1.88,.32-2.51,.97-.63,.65-.94,1.62-.94,2.92v8.47h-4.04v-15.68h4.04v1.76c.98-1.46,2.54-2.2,4.67-2.2Z"/><path class="e" d="M337.17,123.65c-.52,.52-1.15,.78-1.88,.78s-1.36-.26-1.88-.78-.78-1.15-.78-1.88,.26-1.36,.78-1.88c.52-.52,1.15-.78,1.88-.78s1.36,.26,1.88,.78c.52,.52,.78,1.15,.78,1.88s-.26,1.36-.78,1.88Z"/><path class="e" d="M117.23,139.7h2.92v21.95h-2.92v-21.95Z"/><path class="e" d="M147.27,139.7h2.73v21.95h-2.73v-2.7c-1.36,2.07-3.33,3.1-5.93,3.1-2.2,0-4.07-.8-5.61-2.4-1.55-1.6-2.32-3.55-2.32-5.85s.77-4.25,2.32-5.85c1.55-1.6,3.42-2.4,5.61-2.4,2.59,0,4.57,1.04,5.93,3.11v-8.97Zm-5.58,19.73c1.59,0,2.92-.54,3.98-1.62,1.07-1.08,1.6-2.41,1.6-4s-.53-2.92-1.6-4c-1.07-1.08-2.39-1.62-3.98-1.62s-2.88,.54-3.95,1.62c-1.07,1.08-1.6,2.41-1.6,4s.53,2.92,1.6,4c1.07,1.08,2.38,1.62,3.95,1.62Z"/><path class="e" d="M168.31,159.68c-1.61,1.59-3.56,2.38-5.86,2.38s-4.25-.79-5.85-2.38-2.4-3.54-2.4-5.86,.8-4.28,2.4-5.86,3.55-2.38,5.85-2.38,4.25,.79,5.86,2.38c1.61,1.59,2.41,3.54,2.41,5.86s-.8,4.28-2.41,5.86Zm-5.86-.28c1.57,0,2.88-.53,3.95-1.6,1.07-1.07,1.6-2.39,1.6-3.98s-.53-2.92-1.6-3.98c-1.07-1.07-2.38-1.6-3.95-1.6s-2.85,.53-3.92,1.6c-1.07,1.07-1.6,2.39-1.6,3.98s.53,2.92,1.6,3.98,2.37,1.6,3.92,1.6Z"/><path class="e" d="M182.71,145.57c1.84,0,3.31,.58,4.42,1.74,1.11,1.16,1.66,2.73,1.66,4.72v9.63h-2.73v-9.47c0-1.27-.34-2.26-1.03-2.96-.69-.7-1.64-1.05-2.85-1.05-1.36,0-2.46,.42-3.29,1.27-.84,.85-1.25,2.15-1.25,3.9v8.31h-2.73v-15.68h2.73v2.26c1.11-1.78,2.8-2.67,5.08-2.67Z"/><path class="e" d="M196,139.67l-2.04,7.62h-2.35l1.25-7.62h3.14Z"/><path class="e" d="M209.33,148.61h-4.17v8.5c0,.77,.15,1.32,.46,1.65,.3,.32,.77,.49,1.4,.5,.63,.01,1.4,0,2.32-.05v2.45c-2.38,.31-4.13,.12-5.24-.58s-1.66-2.02-1.66-3.97v-8.5h-3.1v-2.63h3.1v-3.58l2.73-.82v4.39h4.17v2.63Z"/><path class="e" d="M230.43,141.93c-2.76-.23-4.14,.96-4.14,3.58v.47h4.14v2.63h-4.14v13.05h-2.73v-13.05h-2.51v-2.63h2.51v-.47c0-2.11,.59-3.71,1.77-4.8,1.18-1.09,2.88-1.56,5.1-1.41v2.63Z"/><path class="e" d="M245.58,145.98h2.73v15.68h-2.73v-2.7c-1.36,2.07-3.33,3.1-5.93,3.1-2.2,0-4.07-.8-5.61-2.4-1.55-1.6-2.32-3.55-2.32-5.85s.77-4.25,2.32-5.85c1.55-1.6,3.42-2.4,5.61-2.4,2.59,0,4.57,1.04,5.93,3.11v-2.7Zm-5.58,13.45c1.59,0,2.92-.54,3.98-1.62,1.07-1.08,1.6-2.41,1.6-4s-.53-2.92-1.6-4c-1.07-1.08-2.39-1.62-3.98-1.62s-2.88,.54-3.95,1.62c-1.07,1.08-1.6,2.41-1.6,4s.53,2.92,1.6,4c1.07,1.08,2.38,1.62,3.95,1.62Z"/><path class="e" d="M261.2,145.57c1.84,0,3.31,.58,4.42,1.74,1.11,1.16,1.66,2.73,1.66,4.72v9.63h-2.73v-9.47c0-1.27-.34-2.26-1.03-2.96-.69-.7-1.64-1.05-2.85-1.05-1.36,0-2.46,.42-3.29,1.27-.84,.85-1.25,2.15-1.25,3.9v8.31h-2.73v-15.68h2.73v2.26c1.11-1.78,2.8-2.67,5.08-2.67Z"/><path class="e" d="M279.39,162.06c-2.36,0-4.33-.79-5.9-2.37-1.57-1.58-2.35-3.54-2.35-5.88s.78-4.3,2.35-5.88c1.57-1.58,3.53-2.37,5.9-2.37,1.55,0,2.94,.37,4.17,1.11,1.23,.74,2.15,1.74,2.76,3l-2.29,1.32c-.4-.84-1.01-1.51-1.83-2.01-.83-.5-1.76-.75-2.81-.75-1.57,0-2.88,.53-3.94,1.6-1.06,1.07-1.58,2.39-1.58,3.98s.53,2.88,1.58,3.95c1.05,1.07,2.37,1.6,3.94,1.6,1.04,0,1.99-.25,2.82-.74,.84-.49,1.47-1.15,1.91-1.99l2.32,1.35c-.67,1.23-1.63,2.22-2.88,2.96-1.25,.74-2.65,1.11-4.17,1.11Z"/><path class="e" d="M301.06,145.98h2.92l-6.4,16.65c-.67,1.78-1.61,3.13-2.81,4.06-1.2,.93-2.59,1.34-4.16,1.24v-2.54c1.92,.15,3.32-.92,4.22-3.21l.3-.59-6.84-15.62h2.92l5.23,12.02,4.62-12.02Z"/><path class="e" d="M64.2,199.69c-2.36,0-4.33-.79-5.9-2.37-1.57-1.58-2.35-3.54-2.35-5.88s.78-4.3,2.35-5.88c1.57-1.58,3.53-2.37,5.9-2.37,1.55,0,2.94,.37,4.17,1.11,1.23,.74,2.15,1.74,2.76,3l-2.29,1.32c-.4-.84-1.01-1.51-1.83-2.01-.83-.5-1.76-.75-2.81-.75-1.57,0-2.88,.53-3.94,1.6-1.06,1.07-1.58,2.39-1.58,3.98s.53,2.88,1.58,3.95c1.05,1.07,2.37,1.6,3.94,1.6,1.04,0,1.99-.25,2.82-.74,.84-.49,1.47-1.15,1.91-1.99l2.32,1.35c-.67,1.23-1.63,2.22-2.88,2.96-1.25,.74-2.65,1.11-4.17,1.11Z"/><path class="e" d="M74.89,199.29v-22.89h2.73v22.89h-2.73Z"/><path class="e" d="M84.11,180.75c-.52,0-.96-.18-1.32-.53-.36-.36-.53-.78-.53-1.29s.18-.94,.53-1.3c.35-.37,.79-.55,1.32-.55s.93,.18,1.29,.55c.36,.37,.53,.8,.53,1.3s-.18,.93-.53,1.29-.78,.53-1.29,.53Zm-1.38,18.53v-15.68h2.73v15.68h-2.73Z"/><path class="e" d="M107.51,183.2c1.76,0,3.18,.57,4.26,1.71s1.63,2.68,1.63,4.62v9.75h-2.73v-9.66c0-1.21-.31-2.15-.94-2.82-.63-.67-1.46-1-2.51-1-1.17,0-2.11,.39-2.81,1.18-.7,.78-1.05,1.98-1.05,3.59v8.72h-2.73v-9.66c0-1.21-.3-2.15-.89-2.82-.6-.67-1.41-1-2.43-1-1.15,0-2.11,.4-2.87,1.19-.76,.79-1.14,1.99-1.14,3.58v8.72h-2.73v-15.68h2.73v2.1c1.07-1.67,2.62-2.51,4.67-2.51s3.65,.89,4.61,2.67c1.09-1.78,2.73-2.67,4.92-2.67Z"/><path class="e" d="M126.79,183.2c2.2,0,4.07,.8,5.61,2.4,1.55,1.6,2.32,3.55,2.32,5.85s-.77,4.25-2.32,5.85c-1.55,1.6-3.42,2.4-5.61,2.4-2.59,0-4.57-1.03-5.93-3.1v2.7h-2.73v-21.95h2.73v8.97c1.36-2.07,3.33-3.11,5.93-3.11Zm-.34,13.86c1.57,0,2.89-.54,3.95-1.62,1.07-1.08,1.6-2.41,1.6-4s-.53-2.92-1.6-4c-1.07-1.08-2.38-1.62-3.95-1.62s-2.92,.54-3.98,1.62c-1.07,1.08-1.6,2.41-1.6,4s.53,2.92,1.6,4c1.07,1.08,2.39,1.62,3.98,1.62Z"/><path class="e" d="M140.31,180.75c-.52,0-.96-.18-1.32-.53-.36-.36-.53-.78-.53-1.29s.18-.94,.53-1.3c.35-.37,.79-.55,1.32-.55s.93,.18,1.29,.55c.36,.37,.53,.8,.53,1.3s-.18,.93-.53,1.29-.78,.53-1.29,.53Zm-1.38,18.53v-15.68h2.73v15.68h-2.73Z"/><path class="e" d="M154.58,183.2c1.84,0,3.31,.58,4.42,1.74,1.11,1.16,1.66,2.73,1.66,4.72v9.63h-2.73v-9.47c0-1.27-.34-2.26-1.03-2.96-.69-.7-1.64-1.05-2.85-1.05-1.36,0-2.46,.42-3.29,1.27-.84,.85-1.25,2.15-1.25,3.9v8.31h-2.73v-15.68h2.73v2.26c1.11-1.78,2.8-2.67,5.08-2.67Z"/><path class="e" d="M178.41,183.61h2.7v15.02c0,2.32-.78,4.12-2.35,5.41-1.57,1.29-3.45,1.93-5.64,1.93-1.76,0-3.27-.33-4.55-.99-1.28-.66-2.24-1.6-2.89-2.84l2.38-1.35c.86,1.76,2.56,2.63,5.11,2.63,1.63,0,2.91-.43,3.84-1.29,.93-.86,1.4-2.03,1.4-3.51v-2.23c-1.38,2.09-3.34,3.14-5.9,3.14-2.24,0-4.13-.79-5.68-2.38-1.55-1.59-2.32-3.52-2.32-5.8s.77-4.21,2.32-5.79c1.55-1.58,3.44-2.37,5.68-2.37,2.57,0,4.54,1.04,5.9,3.11v-2.7Zm-9.56,11.73c1.07,1.07,2.39,1.6,3.98,1.6s2.92-.53,3.98-1.6,1.6-2.39,1.6-3.98-.53-2.89-1.6-3.95c-1.07-1.07-2.39-1.6-3.98-1.6s-2.92,.53-3.98,1.6c-1.07,1.07-1.6,2.38-1.6,3.95s.53,2.92,1.6,3.98Z"/><path class="e" d="M208.2,197.31c-1.61,1.59-3.56,2.38-5.86,2.38s-4.25-.79-5.85-2.38-2.4-3.54-2.4-5.86,.8-4.28,2.4-5.86,3.55-2.38,5.85-2.38,4.25,.79,5.86,2.38c1.61,1.59,2.41,3.54,2.41,5.86s-.8,4.28-2.41,5.86Zm-5.86-.28c1.57,0,2.88-.53,3.95-1.6s1.6-2.39,1.6-3.98-.53-2.92-1.6-3.98c-1.07-1.07-2.38-1.6-3.95-1.6s-2.85,.53-3.92,1.6c-1.07,1.07-1.6,2.39-1.6,3.98s.53,2.92,1.6,3.98,2.37,1.6,3.92,1.6Z"/><path class="e" d="M230.78,179.25c-2.74-.23-4.11,.96-4.11,3.58v.78h4.11v2.63h-4.11v13.05h-2.73v-13.05h-5.83v13.05h-2.73v-13.05h-2.51v-2.63h2.51v-.47c0-2.11,.59-3.71,1.77-4.8,1.18-1.09,2.88-1.56,5.1-1.41v2.63c-2.76-.23-4.14,.96-4.14,3.58v.47h5.83v-.78c0-2.11,.58-3.71,1.76-4.8,1.17-1.09,2.86-1.56,5.08-1.41v2.63Z"/><path class="e" d="M251.1,186.24h-4.17v8.5c0,.77,.15,1.32,.46,1.65,.3,.32,.77,.49,1.4,.5,.63,.01,1.4,0,2.32-.05v2.45c-2.38,.31-4.13,.12-5.24-.58s-1.66-2.02-1.66-3.97v-8.5h-3.1v-2.63h3.1v-3.58l2.73-.82v4.39h4.17v2.63Z"/><path class="e" d="M263.08,183.2c1.84,0,3.31,.58,4.42,1.74,1.11,1.16,1.66,2.73,1.66,4.72v9.63h-2.73v-9.47c0-1.27-.34-2.26-1.03-2.96-.69-.7-1.64-1.05-2.85-1.05-1.36,0-2.46,.42-3.29,1.27-.84,.85-1.25,2.15-1.25,3.9v8.31h-2.73v-21.95h2.73v8.53c1.11-1.78,2.8-2.67,5.08-2.67Z"/><path class="e" d="M275.81,192.7c.27,1.4,.92,2.49,1.93,3.26s2.26,1.16,3.75,1.16c2.07,0,3.57-.76,4.52-2.29l2.32,1.32c-1.53,2.36-3.83,3.54-6.9,3.54-2.49,0-4.51-.78-6.07-2.34-1.56-1.56-2.34-3.53-2.34-5.91s.76-4.33,2.29-5.9c1.53-1.57,3.5-2.35,5.93-2.35,2.3,0,4.18,.81,5.63,2.43s2.18,3.57,2.18,5.85c0,.4-.03,.8-.09,1.22h-13.14Zm5.43-6.93c-1.46,0-2.68,.41-3.64,1.24-.96,.83-1.56,1.93-1.79,3.31h10.47c-.23-1.48-.82-2.61-1.76-3.39-.94-.77-2.04-1.16-3.29-1.16Z"/><path class="e" d="M310.56,183.2c2.2,0,4.07,.8,5.61,2.4,1.55,1.6,2.32,3.55,2.32,5.85s-.77,4.25-2.32,5.85c-1.55,1.6-3.42,2.4-5.61,2.4-2.59,0-4.57-1.03-5.93-3.1v2.7h-2.73v-21.95h2.73v8.97c1.36-2.07,3.33-3.11,5.93-3.11Zm-.34,13.86c1.57,0,2.89-.54,3.95-1.62,1.07-1.08,1.6-2.41,1.6-4s-.53-2.92-1.6-4c-1.07-1.08-2.38-1.62-3.95-1.62s-2.92,.54-3.98,1.62c-1.07,1.08-1.6,2.41-1.6,4s.53,2.92,1.6,4c1.07,1.08,2.39,1.62,3.98,1.62Z"/><path class="e" d="M335.93,197.31c-1.61,1.59-3.56,2.38-5.86,2.38s-4.25-.79-5.85-2.38c-1.6-1.59-2.4-3.54-2.4-5.86s.8-4.28,2.4-5.86c1.6-1.59,3.55-2.38,5.85-2.38s4.25,.79,5.86,2.38c1.61,1.59,2.41,3.54,2.41,5.86s-.8,4.28-2.41,5.86Zm-5.86-.28c1.57,0,2.88-.53,3.95-1.6s1.6-2.39,1.6-3.98-.53-2.92-1.6-3.98c-1.07-1.07-2.38-1.6-3.95-1.6s-2.85,.53-3.92,1.6c-1.07,1.07-1.6,2.39-1.6,3.98s.53,2.92,1.6,3.98,2.37,1.6,3.92,1.6Z"/><path class="e" d="M355.5,183.61h2.73v15.68h-2.73v-2.7c-1.36,2.07-3.33,3.1-5.93,3.1-2.2,0-4.07-.8-5.61-2.4-1.55-1.6-2.32-3.55-2.32-5.85s.77-4.25,2.32-5.85c1.55-1.6,3.42-2.4,5.61-2.4,2.59,0,4.57,1.04,5.93,3.11v-2.7Zm-5.58,13.45c1.59,0,2.92-.54,3.98-1.62,1.07-1.08,1.6-2.41,1.6-4s-.53-2.92-1.6-4c-1.07-1.08-2.39-1.62-3.98-1.62s-2.88,.54-3.95,1.62c-1.07,1.08-1.6,2.41-1.6,4s.53,2.92,1.6,4c1.07,1.08,2.38,1.62,3.95,1.62Z"/><path class="e" d="M371.83,186.24h-4.17v8.5c0,.77,.15,1.32,.46,1.65,.3,.32,.77,.49,1.4,.5,.63,.01,1.4,0,2.32-.05v2.45c-2.38,.31-4.13,.12-5.24-.58s-1.66-2.02-1.66-3.97v-8.5h-3.1v-2.63h3.1v-3.58l2.73-.82v4.39h4.17v2.63Z"/><path class="e" d="M109.68,218.38c-.52,0-.96-.18-1.32-.53-.36-.36-.53-.78-.53-1.29s.18-.94,.53-1.3c.35-.37,.79-.55,1.32-.55s.93,.18,1.29,.55c.36,.37,.53,.8,.53,1.3s-.18,.93-.53,1.29-.78,.53-1.29,.53Zm-1.38,18.53v-15.68h2.73v15.68h-2.73Z"/><path class="e" d="M123.95,220.83c1.84,0,3.31,.58,4.42,1.74,1.11,1.16,1.66,2.73,1.66,4.72v9.63h-2.73v-9.47c0-1.27-.34-2.26-1.03-2.96-.69-.7-1.64-1.05-2.85-1.05-1.36,0-2.46,.42-3.29,1.27-.84,.85-1.25,2.15-1.25,3.9v8.31h-2.73v-15.68h2.73v2.26c1.11-1.78,2.8-2.67,5.08-2.67Z"/><path class="e" d="M152.08,223.87h-4.17v8.5c0,.77,.15,1.32,.46,1.65,.3,.32,.77,.49,1.4,.5,.63,.01,1.4,0,2.32-.05v2.45c-2.38,.31-4.13,.12-5.24-.58s-1.66-2.02-1.66-3.97v-8.5h-3.1v-2.63h3.1v-3.58l2.73-.82v4.39h4.17v2.63Z"/><path class="e" d="M164.06,220.83c1.84,0,3.31,.58,4.42,1.74,1.11,1.16,1.66,2.73,1.66,4.72v9.63h-2.73v-9.47c0-1.27-.34-2.26-1.03-2.96-.69-.7-1.64-1.05-2.85-1.05-1.36,0-2.46,.42-3.29,1.27-.84,.85-1.25,2.15-1.25,3.9v8.31h-2.73v-21.95h2.73v8.53c1.11-1.78,2.8-2.67,5.08-2.67Z"/><path class="e" d="M188.12,234.94c-1.61,1.59-3.56,2.38-5.86,2.38s-4.25-.79-5.85-2.38-2.4-3.54-2.4-5.86,.8-4.28,2.4-5.86,3.55-2.38,5.85-2.38,4.25,.79,5.86,2.38c1.61,1.59,2.41,3.54,2.41,5.86s-.8,4.28-2.41,5.86Zm-5.86-.28c1.57,0,2.88-.53,3.95-1.6s1.6-2.39,1.6-3.98-.53-2.92-1.6-3.98c-1.07-1.07-2.38-1.6-3.95-1.6s-2.85,.53-3.92,1.6c-1.07,1.07-1.6,2.39-1.6,3.98s.53,2.92,1.6,3.98,2.37,1.6,3.92,1.6Z"/><path class="e" d="M196.71,225.42c0,.59,.31,1.07,.92,1.43,.62,.36,1.35,.66,2.2,.91,.85,.25,1.71,.5,2.57,.75,.86,.25,1.59,.73,2.19,1.42,.6,.7,.9,1.59,.9,2.68,0,1.42-.55,2.56-1.65,3.42s-2.5,1.29-4.22,1.29c-1.53,0-2.83-.33-3.92-1s-1.86-1.56-2.32-2.67l2.35-1.35c.25,.75,.72,1.35,1.41,1.79,.69,.44,1.52,.66,2.48,.66,.9,0,1.64-.17,2.23-.52,.58-.34,.88-.88,.88-1.61,0-.61-.3-1.09-.91-1.46-.61-.37-1.34-.68-2.19-.93-.85-.26-1.71-.51-2.57-.77s-1.6-.72-2.2-1.39c-.61-.67-.91-1.53-.91-2.57,0-1.36,.53-2.48,1.58-3.36,1.05-.88,2.38-1.32,3.97-1.32,1.27,0,2.41,.29,3.4,.86,.99,.58,1.74,1.38,2.24,2.4l-2.29,1.29c-.56-1.34-1.68-2.01-3.36-2.01-.77,0-1.43,.18-1.98,.54-.54,.36-.82,.86-.82,1.52Z"/><path class="e" d="M211.13,230.33c.27,1.4,.92,2.49,1.93,3.26s2.26,1.16,3.75,1.16c2.07,0,3.57-.76,4.52-2.29l2.32,1.32c-1.53,2.36-3.83,3.54-6.9,3.54-2.49,0-4.51-.78-6.07-2.34-1.56-1.56-2.34-3.53-2.34-5.91s.76-4.33,2.29-5.9c1.53-1.57,3.5-2.35,5.93-2.35,2.3,0,4.18,.81,5.63,2.43s2.18,3.57,2.18,5.85c0,.4-.03,.8-.09,1.22h-13.14Zm5.43-6.93c-1.46,0-2.68,.41-3.64,1.24-.96,.83-1.56,1.93-1.79,3.31h10.47c-.23-1.48-.82-2.61-1.76-3.39-.94-.77-2.04-1.16-3.29-1.16Z"/><path class="e" d="M255.7,221.24h2.56l-4.57,15.68h-2.79l-3.74-11.76-3.72,11.76h-2.92l-4.61-15.68h2.86l3.45,11.92,3.7-11.92h2.69l3.69,11.92,3.4-11.92Z"/><path class="e" d="M263.69,218.38c-.52,0-.96-.18-1.32-.53-.36-.36-.53-.78-.53-1.29s.18-.94,.53-1.3c.35-.37,.79-.55,1.32-.55s.93,.18,1.29,.55c.36,.37,.53,.8,.53,1.3s-.18,.93-.53,1.29-.78,.53-1.29,.53Zm-1.38,18.53v-15.68h2.73v15.68h-2.73Z"/><path class="e" d="M277.96,220.83c1.84,0,3.31,.58,4.42,1.74,1.11,1.16,1.66,2.73,1.66,4.72v9.63h-2.73v-9.47c0-1.27-.34-2.26-1.03-2.96-.69-.7-1.64-1.05-2.85-1.05-1.36,0-2.46,.42-3.29,1.27-.84,.85-1.25,2.15-1.25,3.9v8.31h-2.73v-15.68h2.73v2.26c1.11-1.78,2.8-2.67,5.08-2.67Z"/><path class="e" d="M301.76,214.97h2.73v21.95h-2.73v-2.7c-1.36,2.07-3.33,3.1-5.93,3.1-2.2,0-4.07-.8-5.61-2.4-1.55-1.6-2.32-3.55-2.32-5.85s.77-4.25,2.32-5.85c1.55-1.6,3.42-2.4,5.61-2.4,2.59,0,4.57,1.04,5.93,3.11v-8.97Zm-5.58,19.73c1.59,0,2.92-.54,3.98-1.62,1.07-1.08,1.6-2.41,1.6-4s-.53-2.92-1.6-4c-1.07-1.08-2.39-1.62-3.98-1.62s-2.88,.54-3.95,1.62c-1.07,1.08-1.6,2.41-1.6,4s.53,2.92,1.6,4c1.07,1.08,2.38,1.62,3.95,1.62Z"/><path class="e" d="M311.89,225.42c0,.59,.31,1.07,.92,1.43,.62,.36,1.35,.66,2.2,.91,.85,.25,1.71,.5,2.57,.75,.86,.25,1.59,.73,2.19,1.42,.6,.7,.9,1.59,.9,2.68,0,1.42-.55,2.56-1.65,3.42s-2.5,1.29-4.22,1.29c-1.53,0-2.83-.33-3.92-1s-1.86-1.56-2.32-2.67l2.35-1.35c.25,.75,.72,1.35,1.41,1.79,.69,.44,1.52,.66,2.48,.66,.9,0,1.64-.17,2.23-.52,.58-.34,.88-.88,.88-1.61,0-.61-.3-1.09-.91-1.46-.61-.37-1.34-.68-2.19-.93-.85-.26-1.71-.51-2.57-.77s-1.6-.72-2.2-1.39c-.61-.67-.91-1.53-.91-2.57,0-1.36,.53-2.48,1.58-3.36,1.05-.88,2.38-1.32,3.97-1.32,1.27,0,2.41,.29,3.4,.86,.99,.58,1.74,1.38,2.24,2.4l-2.29,1.29c-.56-1.34-1.68-2.01-3.36-2.01-.77,0-1.43,.18-1.98,.54-.54,.36-.82,.86-.82,1.52Z"/><path class="e" d="M326.57,237.26c-.56,0-1.05-.2-1.44-.6-.4-.4-.6-.88-.6-1.44s.2-1.04,.6-1.44,.88-.6,1.44-.6,1.07,.2,1.46,.6c.39,.4,.58,.88,.58,1.44s-.19,1.05-.58,1.44c-.39,.4-.87,.6-1.46,.6Zm-1.04-6.77l-.6-9.25v-6.27h3.29v6.27l-.6,9.25h-2.1Z"/></g><path class="e" d="M422.96,97.57s59.35-25.3,55.34-86.36c-.22-3.28-4.24-4.7-6.46-2.27-8.54,9.38-23.26,26.45-47.34,30.67"/></g><g><circle class="f" cx="210.3" cy="53.64" r="26.41"/><path class="e" d="M212.18,63.49c-.52,.52-1.15,.78-1.88,.78s-1.36-.26-1.88-.78-.78-1.15-.78-1.88,.26-1.36,.78-1.88c.52-.52,1.15-.78,1.88-.78s1.36,.26,1.88,.78c.52,.52,.78,1.15,.78,1.88s-.26,1.36-.78,1.88Zm-3.48-6.99l-.85-8.31v-6.27h4.86v6.27l-.82,8.31h-3.2Z"/></g></g></g></g></svg>