<?xml version="1.0" encoding="UTF-8"?><svg xmlns="http://www.w3.org/2000/svg" viewBox="0 0 332.89 387.84"><defs><style>.d{fill:#fff;}.e{fill:#e9a72d;}.f{fill:#fbedd5;}.g{fill:#e78d00;}.h{fill:#32325b;}.i{fill:#19192d;}.j{stroke-width:2px;}.j,.k{stroke:#fff;stroke-miterlimit:10;}.j,.k,.l{fill:none;}.m{opacity:.2;}.l{stroke:#111;stroke-linecap:round;stroke-linejoin:round;stroke-width:3px;}.n{fill:#232323;opacity:.3;}</style></defs><g id="a"/><g id="b"><g id="c"><g><g><path class="h" d="M320.09,45.87V359.17c0,17.6-14.27,28.12-31.86,28.12H31.86c-17.6,0-31.86-14.27-31.86-31.86V45.87C0,28.28,14.27,14.01,31.86,14.01H288.23c17.6,0,31.86,14.27,31.86,31.86Z"/><path class="n" d="M320.09,126.6v234.75c0,14.63-11.86,26.5-26.5,26.5H26.5c-14.63,0-26.5-11.86-26.5-26.5V126.6"/><line class="j" x1=".7" y1="125.61" x2="320.09" y2="125.61"/><line class="k" x1=".7" y1="185.07" x2="320.09" y2="185.07"/><g><path class="d" d="M239.12,154.84c1.72,0,3.17,.51,4.36,1.52,1.19,1.01,1.78,2.41,1.78,4.2s-.61,3.16-1.82,4.18-2.69,1.53-4.42,1.53c-1.39,0-2.62-.33-3.72-1s-1.85-1.63-2.29-2.9l2.05-1.17c.24,.88,.71,1.56,1.4,2.01,.69,.46,1.54,.69,2.55,.69,1.14,0,2.07-.29,2.78-.88,.71-.59,1.07-1.41,1.07-2.47s-.36-1.88-1.07-2.48c-.71-.6-1.62-.9-2.73-.9h-5.15l.65-9.44h9.98v2.26h-7.77l-.32,4.83h2.65Z"/><path class="d" d="M265.98,147.74v18.19h-2.39v-14.22l-5.95,9.9h-.29l-5.97-9.92v14.23h-2.42v-18.19h2.73l5.82,9.66,5.77-9.66h2.7Z"/><path class="d" d="M274.44,165.94l-5.09-18.19h2.54l4.16,14.97,4.42-14.97h2.44l4.42,14.97,4.16-14.97h2.41l-5.08,18.19h-2.81l-4.33-14.57-4.33,14.57h-2.91Z"/></g><g><path class="d" d="M54.27,72.28c2.72,1.57,4.08,3.93,4.08,7.09,0,2.63-.93,4.79-2.79,6.47-1.86,1.68-4.15,2.53-6.87,2.53h-13.17v-31.04h12.24c2.66,0,4.9,.82,6.72,2.46s2.73,3.73,2.73,6.27-.98,4.64-2.93,6.21Zm-6.52-9.22h-6.12v6.83h6.12c.95,0,1.74-.33,2.37-.98,.64-.65,.95-1.46,.95-2.44s-.31-1.79-.93-2.44-1.42-.97-2.39-.97Zm.93,19.6c1.03,0,1.89-.35,2.57-1.04,.68-.7,1.02-1.57,1.02-2.64s-.34-1.9-1.02-2.59c-.68-.7-1.54-1.04-2.57-1.04h-7.05v7.32h7.05Z"/><path class="d" d="M82.43,72.28c2.72,1.57,4.08,3.93,4.08,7.09,0,2.63-.93,4.79-2.79,6.47-1.86,1.68-4.15,2.53-6.87,2.53h-13.17v-31.04h12.24c2.66,0,4.9,.82,6.72,2.46s2.73,3.73,2.73,6.27-.98,4.64-2.93,6.21Zm-6.52-9.22h-6.12v6.83h6.12c.95,0,1.74-.33,2.37-.98,.64-.65,.95-1.46,.95-2.44s-.31-1.79-.93-2.44-1.42-.97-2.39-.97Zm.93,19.6c1.03,0,1.89-.35,2.57-1.04,.68-.7,1.02-1.57,1.02-2.64s-.34-1.9-1.02-2.59c-.68-.7-1.54-1.04-2.57-1.04h-7.05v7.32h7.05Z"/><path class="d" d="M96.48,57.34h5.32v31.04h-6.12v-24.56l-5.85,1.64-1.51-5.23,8.16-2.88Z"/><path class="d" d="M107.52,88.38v-4.57l10.6-10.91c2.36-2.48,3.55-4.55,3.55-6.21,0-1.21-.38-2.19-1.13-2.93s-1.72-1.11-2.9-1.11c-2.33,0-4.06,1.21-5.19,3.64l-5.14-3.02c.98-2.13,2.38-3.75,4.21-4.88s3.84-1.69,6.03-1.69c2.81,0,5.22,.88,7.23,2.64,2.01,1.76,3.02,4.13,3.02,7.12,0,3.22-1.7,6.52-5.09,9.91l-6.09,6.09h11.67v5.9h-20.75Z"/></g><g><path class="d" d="M40.2,149.73c1.56,0,2.88,.52,3.95,1.57,1.07,1.05,1.6,2.34,1.6,3.87s-.53,2.82-1.6,3.87c-1.07,1.05-2.38,1.58-3.95,1.58h-2.85v5.33h-3.2v-16.21h6.06Zm0,7.9c.68,0,1.25-.24,1.7-.71,.45-.47,.67-1.05,.67-1.75s-.22-1.3-.67-1.76c-.45-.46-1.01-.69-1.7-.69h-2.85v4.91h2.85Z"/><path class="d" d="M61.97,163.82c-1.64,1.63-3.64,2.44-5.99,2.44s-4.34-.81-5.98-2.44-2.45-3.62-2.45-5.99,.82-4.36,2.45-5.99,3.62-2.44,5.98-2.44,4.35,.81,5.99,2.44,2.46,3.62,2.46,5.99-.82,4.36-2.46,5.99Zm-9.73-2.18c1.01,1,2.25,1.49,3.74,1.49s2.73-.5,3.74-1.49c1-1,1.51-2.27,1.51-3.81s-.5-2.82-1.51-3.82c-1.01-1-2.25-1.5-3.74-1.5s-2.73,.5-3.74,1.5c-1.01,1-1.51,2.28-1.51,3.82s.5,2.81,1.51,3.81Z"/><path class="d" d="M69.69,165.94l-4.3-16.21h3.35l3.13,12.02,3.39-12.02h2.78l3.4,11.99,3.08-11.99h3.09l-4.27,16.21h-3.64l-3.08-10.76-3.06,10.76h-3.86Z"/><path class="d" d="M93.52,162.88h6.85v3.06h-10.05v-16.21h9.94v3.06h-6.73v3.45h6.15v3.01h-6.15v3.64Z"/><path class="d" d="M112.11,165.94l-3.28-5.63h-2.43v5.63h-3.2v-16.21h6.5c1.5,0,2.78,.52,3.83,1.57,1.05,1.05,1.58,2.32,1.58,3.8,0,1-.29,1.93-.86,2.79-.57,.86-1.33,1.5-2.27,1.93l3.6,6.11h-3.46Zm-5.71-13.22v4.79h3.3c.6,0,1.12-.24,1.56-.71,.43-.47,.65-1.04,.65-1.7s-.22-1.23-.65-1.69c-.43-.46-.95-.69-1.56-.69h-3.3Z"/><path class="d" d="M121.03,157.37c-.39,.39-.85,.58-1.39,.58s-1.01-.19-1.39-.58c-.39-.39-.58-.85-.58-1.39s.19-1,.58-1.39c.39-.39,.85-.58,1.39-.58s1.01,.19,1.39,.58c.39,.39,.58,.85,.58,1.39s-.19,1-.58,1.39Zm0,8.29c-.39,.39-.85,.58-1.39,.58s-1.01-.19-1.39-.58-.58-.85-.58-1.39,.19-1,.58-1.39,.85-.58,1.39-.58,1.01,.19,1.39,.58c.39,.39,.58,.85,.58,1.39s-.19,1-.58,1.39Z"/></g><circle class="d" cx="281.16" cy="72.54" r="14.67"/><circle class="g" cx="281.16" cy="72.54" r="11.12"/><g><circle class="d" cx="312.29" cy="20.6" r="20.6"/><line class="l" x1="305.21" y1="27.68" x2="319.36" y2="13.53"/><line class="l" x1="319.36" y1="27.68" x2="305.21" y2="13.53"/></g></g><g><path class="d" d="M85.53,206.64v2.29h-5.38v15.91h-2.39v-15.91h-5.35v-2.29h13.13Z"/><path class="d" d="M95.35,211.84h2.26v13h-2.26v-1.87c-.92,1.47-2.32,2.21-4.21,2.21-1.52,0-2.75-.48-3.67-1.44-.92-.96-1.38-2.27-1.38-3.91v-7.98h2.26v7.85c0,1.06,.29,1.88,.86,2.46,.57,.58,1.36,.87,2.37,.87,1.13,0,2.04-.35,2.73-1.05,.69-.7,1.04-1.78,1.04-3.24v-6.89Z"/><path class="d" d="M104.09,214.02c.75-1.61,2.1-2.42,4.05-2.42v2.37c-1.11-.05-2.06,.24-2.86,.88s-1.2,1.67-1.2,3.09v6.89h-2.26v-13h2.26v2.18Z"/><path class="d" d="M118.3,211.5c1.82,0,3.37,.66,4.65,1.99,1.28,1.33,1.92,2.94,1.92,4.85s-.64,3.52-1.92,4.85c-1.28,1.33-2.83,1.99-4.65,1.99-2.15,0-3.79-.86-4.91-2.57v2.23h-2.26v-18.19h2.26v7.43c1.13-1.71,2.76-2.57,4.91-2.57Zm-.29,11.49c1.3,0,2.39-.45,3.27-1.34s1.33-2,1.33-3.31-.44-2.42-1.33-3.31-1.98-1.34-3.27-1.34-2.42,.45-3.3,1.34c-.88,.89-1.33,2-1.33,3.31s.44,2.42,1.33,3.31c.88,.89,1.98,1.34,3.3,1.34Z"/><path class="d" d="M129.51,209.47c-.43,0-.8-.15-1.09-.44-.29-.29-.44-.65-.44-1.06s.15-.78,.44-1.08c.29-.3,.66-.46,1.09-.46s.77,.15,1.07,.46c.29,.3,.44,.66,.44,1.08s-.15,.77-.44,1.06c-.29,.29-.65,.44-1.07,.44Zm-1.14,15.36v-13h2.26v13h-2.26Z"/><path class="d" d="M141.33,211.5c1.52,0,2.75,.48,3.67,1.44,.92,.96,1.38,2.27,1.38,3.91v7.98h-2.26v-7.85c0-1.06-.29-1.88-.86-2.46-.57-.58-1.36-.87-2.37-.87-1.13,0-2.04,.35-2.73,1.05-.69,.7-1.04,1.78-1.04,3.24v6.89h-2.26v-13h2.26v1.87c.92-1.47,2.32-2.21,4.21-2.21Z"/><path class="d" d="M151.88,219.38c.23,1.16,.76,2.06,1.6,2.7,.84,.64,1.88,.96,3.11,.96,1.71,0,2.96-.63,3.74-1.9l1.92,1.09c-1.27,1.96-3.17,2.94-5.72,2.94-2.06,0-3.74-.64-5.03-1.94s-1.94-2.92-1.94-4.9,.63-3.59,1.9-4.89c1.26-1.3,2.9-1.95,4.91-1.95,1.91,0,3.46,.67,4.67,2.02,1.2,1.34,1.81,2.96,1.81,4.85,0,.33-.03,.67-.08,1.01h-10.89Zm4.5-5.74c-1.21,0-2.22,.34-3.02,1.03-.8,.69-1.29,1.6-1.48,2.74h8.68c-.19-1.23-.68-2.17-1.46-2.81-.78-.64-1.69-.96-2.73-.96Z"/><path class="d" d="M179.98,211.5c1.52,0,2.75,.48,3.67,1.44,.92,.96,1.38,2.27,1.38,3.91v7.98h-2.26v-7.85c0-1.06-.29-1.88-.86-2.46-.57-.58-1.36-.87-2.37-.87-1.13,0-2.04,.35-2.73,1.05-.69,.7-1.04,1.78-1.04,3.24v6.89h-2.26v-13h2.26v1.87c.92-1.47,2.32-2.21,4.21-2.21Z"/><path class="d" d="M190.53,219.38c.23,1.16,.76,2.06,1.6,2.7,.84,.64,1.88,.96,3.11,.96,1.71,0,2.96-.63,3.74-1.9l1.92,1.09c-1.27,1.96-3.17,2.94-5.72,2.94-2.06,0-3.74-.64-5.03-1.94s-1.94-2.92-1.94-4.9,.63-3.59,1.9-4.89c1.26-1.3,2.9-1.95,4.91-1.95,1.91,0,3.46,.67,4.67,2.02,1.2,1.34,1.81,2.96,1.81,4.85,0,.33-.03,.67-.08,1.01h-10.89Zm4.5-5.74c-1.21,0-2.22,.34-3.02,1.03-.8,.69-1.29,1.6-1.48,2.74h8.68c-.19-1.23-.68-2.17-1.46-2.81-.78-.64-1.69-.96-2.73-.96Z"/><path class="d" d="M206.44,219.38c.23,1.16,.76,2.06,1.6,2.7,.84,.64,1.88,.96,3.11,.96,1.71,0,2.96-.63,3.74-1.9l1.92,1.09c-1.27,1.96-3.17,2.94-5.72,2.94-2.06,0-3.74-.64-5.03-1.94s-1.94-2.92-1.94-4.9,.63-3.59,1.9-4.89c1.26-1.3,2.9-1.95,4.91-1.95,1.91,0,3.46,.67,4.67,2.02,1.2,1.34,1.81,2.96,1.81,4.85,0,.33-.03,.67-.08,1.01h-10.89Zm4.5-5.74c-1.21,0-2.22,.34-3.02,1.03-.8,.69-1.29,1.6-1.48,2.74h8.68c-.19-1.23-.68-2.17-1.46-2.81-.78-.64-1.69-.96-2.73-.96Z"/><path class="d" d="M231.52,206.64h2.26v18.19h-2.26v-2.23c-1.13,1.71-2.76,2.57-4.91,2.57-1.82,0-3.37-.66-4.65-1.99-1.28-1.32-1.92-2.94-1.92-4.85s.64-3.52,1.92-4.85c1.28-1.32,2.83-1.99,4.65-1.99,2.15,0,3.79,.86,4.91,2.57v-7.43Zm-4.63,16.35c1.32,0,2.42-.45,3.3-1.34s1.33-2,1.33-3.31-.44-2.42-1.33-3.31-1.98-1.34-3.3-1.34-2.39,.45-3.28,1.34-1.33,2-1.33,3.31,.44,2.42,1.33,3.31,1.98,1.34,3.28,1.34Z"/><path class="d" d="M239.92,215.31c0,.49,.25,.88,.77,1.18,.51,.3,1.12,.55,1.82,.76s1.42,.42,2.13,.63c.71,.21,1.32,.6,1.81,1.18,.5,.58,.74,1.32,.74,2.22,0,1.18-.46,2.12-1.36,2.83-.91,.71-2.08,1.06-3.5,1.06-1.26,0-2.35-.28-3.25-.83-.9-.55-1.54-1.29-1.92-2.21l1.95-1.12c.21,.62,.6,1.12,1.17,1.48,.57,.36,1.26,.54,2.05,.54,.75,0,1.36-.14,1.85-.43,.48-.29,.73-.73,.73-1.34,0-.5-.25-.9-.75-1.21s-1.11-.56-1.81-.77c-.71-.21-1.42-.43-2.13-.64s-1.32-.6-1.83-1.15c-.5-.55-.75-1.26-.75-2.13,0-1.12,.44-2.05,1.31-2.78,.87-.73,1.97-1.09,3.29-1.09,1.06,0,2,.24,2.82,.71s1.44,1.14,1.86,1.99l-1.9,1.07c-.47-1.11-1.39-1.66-2.78-1.66-.64,0-1.19,.15-1.64,.45-.45,.3-.68,.72-.68,1.26Z"/><path class="d" d="M110.75,243.03h2.26v13h-2.26v-2.23c-1.13,1.71-2.76,2.57-4.91,2.57-1.82,0-3.37-.66-4.65-1.99-1.28-1.32-1.92-2.94-1.92-4.85s.64-3.52,1.92-4.85c1.28-1.32,2.83-1.99,4.65-1.99,2.15,0,3.79,.86,4.91,2.57v-2.24Zm-4.63,11.15c1.32,0,2.42-.45,3.3-1.34s1.33-2,1.33-3.31-.44-2.42-1.33-3.31-1.98-1.34-3.3-1.34-2.39,.45-3.28,1.34-1.33,2-1.33,3.31,.44,2.42,1.33,3.31,1.98,1.34,3.28,1.34Z"/><path class="d" d="M124.29,245.21h-3.46v7.04c0,.64,.13,1.1,.38,1.36,.25,.27,.64,.41,1.16,.42,.52,0,1.16,0,1.92-.04v2.03c-1.98,.26-3.42,.1-4.34-.48-.92-.58-1.38-1.68-1.38-3.29v-7.04h-2.57v-2.18h2.57v-2.96l2.26-.68v3.64h3.46v2.18Z"/><path class="d" d="M134.15,245.21h-3.46v7.04c0,.64,.13,1.1,.38,1.36,.25,.27,.64,.41,1.16,.42,.52,0,1.16,0,1.92-.04v2.03c-1.98,.26-3.42,.1-4.34-.48-.92-.58-1.38-1.68-1.38-3.29v-7.04h-2.57v-2.18h2.57v-2.96l2.26-.68v3.64h3.46v2.18Z"/><path class="d" d="M138.54,250.57c.23,1.16,.76,2.06,1.6,2.7,.84,.64,1.88,.96,3.11,.96,1.71,0,2.96-.63,3.74-1.9l1.92,1.09c-1.27,1.96-3.17,2.94-5.72,2.94-2.06,0-3.74-.64-5.03-1.94s-1.94-2.92-1.94-4.9,.63-3.59,1.9-4.89c1.26-1.3,2.9-1.95,4.91-1.95,1.91,0,3.46,.67,4.67,2.02,1.2,1.34,1.81,2.96,1.81,4.85,0,.33-.03,.67-.08,1.01h-10.89Zm4.5-5.74c-1.21,0-2.22,.34-3.02,1.03-.8,.69-1.29,1.6-1.48,2.74h8.68c-.19-1.23-.68-2.17-1.46-2.81-.78-.64-1.69-.96-2.73-.96Z"/><path class="d" d="M159.36,242.69c1.52,0,2.75,.48,3.67,1.44,.92,.96,1.38,2.27,1.38,3.91v7.98h-2.26v-7.85c0-1.06-.29-1.88-.86-2.46-.57-.58-1.36-.87-2.37-.87-1.13,0-2.04,.35-2.73,1.05-.69,.7-1.04,1.78-1.04,3.24v6.89h-2.26v-13h2.26v1.87c.92-1.47,2.32-2.21,4.21-2.21Z"/><path class="d" d="M175.39,245.21h-3.46v7.04c0,.64,.13,1.1,.38,1.36,.25,.27,.64,.41,1.16,.42,.52,0,1.16,0,1.92-.04v2.03c-1.98,.26-3.42,.1-4.34-.48-.92-.58-1.38-1.68-1.38-3.29v-7.04h-2.57v-2.18h2.57v-2.96l2.26-.68v3.64h3.46v2.18Z"/><path class="d" d="M179.99,240.66c-.43,0-.8-.15-1.09-.44-.29-.29-.44-.65-.44-1.06s.15-.78,.44-1.08c.29-.3,.66-.46,1.09-.46s.77,.15,1.07,.46c.29,.3,.44,.66,.44,1.08s-.15,.77-.44,1.06c-.29,.29-.65,.44-1.07,.44Zm-1.14,15.36v-13h2.26v13h-2.26Z"/><path class="d" d="M196.32,254.39c-1.33,1.32-2.95,1.97-4.86,1.97s-3.52-.66-4.85-1.97c-1.33-1.32-1.99-2.94-1.99-4.86s.66-3.54,1.99-4.86c1.33-1.32,2.94-1.98,4.85-1.98s3.53,.66,4.86,1.98,2,2.94,2,4.86-.67,3.54-2,4.86Zm-4.86-.23c1.3,0,2.39-.44,3.28-1.33,.88-.88,1.33-1.98,1.33-3.3s-.44-2.42-1.33-3.3c-.88-.88-1.98-1.32-3.28-1.32s-2.37,.44-3.25,1.32c-.88,.88-1.33,1.98-1.33,3.3s.44,2.42,1.33,3.3c.88,.88,1.97,1.33,3.25,1.33Z"/><path class="d" d="M208.25,242.69c1.52,0,2.75,.48,3.67,1.44,.92,.96,1.38,2.27,1.38,3.91v7.98h-2.26v-7.85c0-1.06-.29-1.88-.86-2.46-.57-.58-1.36-.87-2.37-.87-1.13,0-2.04,.35-2.73,1.05-.69,.7-1.04,1.78-1.04,3.24v6.89h-2.26v-13h2.26v1.87c.92-1.47,2.32-2.21,4.21-2.21Z"/><path class="d" d="M218.64,256.31c-.47,0-.87-.17-1.2-.49-.33-.33-.49-.73-.49-1.2s.17-.87,.49-1.2c.33-.33,.73-.49,1.2-.49s.89,.16,1.21,.49c.32,.33,.48,.73,.48,1.2s-.16,.87-.48,1.2c-.32,.33-.72,.49-1.21,.49Z"/></g><g><g class="m"><path class="f" d="M253.87,295.92c14.59,0,26.41,11.83,26.41,26.41h0c0,14.59-11.83,26.41-26.41,26.41H67.6c-14.59,0-26.41-11.83-26.41-26.41h0c0-14.59,11.83-26.41,26.41-26.41H253.87m0-17H67.6c-23.94,0-43.41,19.48-43.41,43.41s19.48,43.41,43.41,43.41H253.87c23.94,0,43.41-19.48,43.41-43.41s-19.48-43.41-43.41-43.41h0Z"/></g><g><rect class="e" x="53.04" y="302.72" width="216.78" height="39.23" rx="19.61" ry="19.61"/><g><path class="i" d="M87.84,316.61v12.87h-2.52v-8.35l-3.63,5.97h-.3l-3.61-5.94v8.32h-2.54v-12.87h2.61l3.69,6.08,3.67-6.08h2.62Z"/><path class="i" d="M100.53,329.48l-.82-2.32h-5.29l-.77,2.32h-2.74l4.5-12.87h3.14l4.54,12.87h-2.57Zm-5.28-4.69h3.62l-1.86-5.26-1.77,5.26Z"/><path class="i" d="M113.25,329.48l-2.6-4.47h-1.92v4.47h-2.54v-12.87h5.15c1.19,0,2.2,.42,3.03,1.25s1.25,1.84,1.25,3.02c0,.8-.23,1.54-.68,2.22-.45,.68-1.05,1.19-1.8,1.54l2.85,4.85h-2.74Zm-4.52-10.5v3.81h2.61c.48,0,.89-.19,1.23-.56,.34-.37,.51-.82,.51-1.35s-.17-.97-.51-1.34c-.34-.37-.75-.55-1.23-.55h-2.61Z"/><path class="i" d="M129.37,329.48h-2.92l-4.6-6.03v6.03h-2.54v-12.87h2.54v5.67l4.41-5.67h2.92l-4.76,6.25,4.95,6.62Z"/><path class="i" d="M146.58,319.04h-5.15v3.05h5v2.43h-5v4.96h-2.54v-12.87h7.69v2.43Z"/><path class="i" d="M161.11,327.8c-1.3,1.29-2.88,1.94-4.74,1.94s-3.44-.65-4.73-1.94c-1.29-1.29-1.94-2.88-1.94-4.75s.65-3.46,1.94-4.75c1.29-1.29,2.87-1.94,4.73-1.94s3.44,.65,4.74,1.94c1.3,1.29,1.95,2.88,1.95,4.75s-.65,3.46-1.95,4.75Zm-7.7-1.73c.8,.79,1.78,1.19,2.96,1.19s2.16-.4,2.96-1.19c.8-.79,1.2-1.8,1.2-3.02s-.4-2.24-1.2-3.03c-.8-.8-1.78-1.19-2.96-1.19s-2.16,.4-2.96,1.19-1.2,1.81-1.2,3.03,.4,2.23,1.2,3.02Z"/><path class="i" d="M173.74,329.48l-2.6-4.47h-1.92v4.47h-2.54v-12.87h5.15c1.19,0,2.2,.42,3.03,1.25s1.25,1.84,1.25,3.02c0,.8-.23,1.54-.68,2.22-.45,.68-1.05,1.19-1.8,1.54l2.85,4.85h-2.74Zm-4.52-10.5v3.81h2.61c.48,0,.89-.19,1.23-.56,.34-.37,.51-.82,.51-1.35s-.17-.97-.51-1.34c-.34-.37-.75-.55-1.23-.55h-2.61Z"/><path class="i" d="M193.3,329.48l-2.6-4.47h-1.92v4.47h-2.54v-12.87h5.15c1.19,0,2.2,.42,3.03,1.25s1.25,1.84,1.25,3.02c0,.8-.23,1.54-.68,2.22-.45,.68-1.05,1.19-1.8,1.54l2.85,4.85h-2.74Zm-4.52-10.5v3.81h2.61c.48,0,.89-.19,1.23-.56,.34-.37,.51-.82,.51-1.35s-.17-.97-.51-1.34c-.34-.37-.75-.55-1.23-.55h-2.61Z"/><path class="i" d="M201.91,327.05h5.42v2.43h-7.96v-12.87h7.87v2.43h-5.33v2.74h4.87v2.39h-4.87v2.89Z"/><path class="i" d="M215.75,316.61c1.24,0,2.28,.42,3.13,1.25,.85,.83,1.27,1.86,1.27,3.07s-.42,2.24-1.27,3.07c-.85,.83-1.89,1.25-3.13,1.25h-2.26v4.23h-2.54v-12.87h4.8Zm0,6.27c.54,0,.99-.19,1.34-.56,.35-.37,.53-.84,.53-1.39s-.18-1.03-.53-1.4c-.36-.37-.8-.55-1.34-.55h-2.26v3.9h2.26Z"/><path class="i" d="M230.8,329.48l-.82-2.32h-5.29l-.77,2.32h-2.74l4.5-12.87h3.14l4.54,12.87h-2.57Zm-5.28-4.69h3.62l-1.86-5.26-1.77,5.26Z"/><path class="i" d="M236.46,316.61h2.54v12.87h-2.54v-12.87Z"/><path class="i" d="M250.29,329.48l-2.6-4.47h-1.92v4.47h-2.54v-12.87h5.15c1.19,0,2.2,.42,3.03,1.25s1.25,1.84,1.25,3.02c0,.8-.23,1.54-.68,2.22-.45,.68-1.05,1.19-1.8,1.54l2.85,4.85h-2.74Zm-4.52-10.5v3.81h2.61c.48,0,.89-.19,1.23-.56,.34-.37,.51-.82,.51-1.35s-.17-.97-.51-1.34c-.34-.37-.75-.55-1.23-.55h-2.61Z"/></g></g></g></g></g></g></svg>