<?xml version="1.0" encoding="utf-8"?>
<!-- Generator: Adobe Illustrator 26.3.1, SVG Export Plug-In . SVG Version: 6.00 Build 0)  -->
<svg version="1.1" xmlns="http://www.w3.org/2000/svg" xmlns:xlink="http://www.w3.org/1999/xlink" x="0px" y="0px"
	 viewBox="0 0 332.9 387.8" style="enable-background:new 0 0 332.9 387.8;" xml:space="preserve">
<style type="text/css">
	.st0{fill:#323244;}
	.st1{fill:#19192D;}
	.st2{fill:#54B5B1;stroke:#FFFFFF;stroke-width:5;stroke-miterlimit:10;}
	.st3{fill:none;stroke:#FFFFFF;stroke-width:6;stroke-miterlimit:10;}
	.st4{fill:none;stroke:#FFFFFF;stroke-miterlimit:10;}
	.st5{fill:#FFFFFF;}
	.st6{opacity:0.2;fill:#1C1C1C;}
	.st7{opacity:0.1;}
	.st8{fill:#FBEDD5;}
	.st9{fill:#6B5237;}
	.st10{fill:#B7854F;}
	.st11{fill:#996D41;}
	.st12{fill:#FF6D00;}
	.st13{fill:#32373A;}
	.st14{fill:#CFD0D1;}
	.st15{fill:#EDCF21;}
	.st16{fill:#2A66BC;}
	.st17{fill:#DB5C05;}
	.st18{fill:#FF6D00;stroke:#000000;stroke-width:4;stroke-miterlimit:10;}
	.st19{fill:none;stroke:#FF4800;stroke-width:9;stroke-miterlimit:10;}
	.st20{fill:#EAEAEA;}
	.st21{fill:#E6E6E6;}
	.st22{fill:#333333;}
	.st23{fill:#FF4800;}
	.st24{stroke:#808080;stroke-miterlimit:10;}
	.st25{fill:#222628;}
	.st26{fill:#808080;}
	.st27{fill:#C1D9E5;}
	.st28{fill:#F2F2F2;}
	.st29{fill:none;stroke:#996D41;stroke-width:2;stroke-linecap:round;stroke-linejoin:round;stroke-miterlimit:10;}
	.st30{opacity:0.42;}
	.st31{fill:none;stroke:#6B5237;stroke-width:4;stroke-miterlimit:10;}
	.st32{fill:#D6B48B;}
	.st33{fill:#BC9871;}
	.st34{fill:none;stroke:#BC9871;stroke-width:2;stroke-linecap:round;stroke-linejoin:round;stroke-miterlimit:10;}
	.st35{fill:none;stroke:#6B5237;stroke-width:2;stroke-miterlimit:10;}
	.st36{fill:#E9A72D;}
	.st37{opacity:0.2;}
	.st38{opacity:0.2;fill:#19192D;}
	.st39{opacity:0.4;}
	.st40{fill:none;stroke:#FFFFFF;stroke-width:5;stroke-miterlimit:10;}
	.st41{fill:#54B5B1;}
	.st42{opacity:5.000000e-02;}
	.st43{fill:none;stroke:#19192D;stroke-width:4;stroke-miterlimit:10;}
	.st44{opacity:0.1;fill:#FBEDD5;}
	.st45{opacity:0.5;fill:#FBEDD5;}
	.st46{fill:#F4D192;}
	.st47{opacity:0.2;fill:#FBEDD5;}
	.st48{fill:#19192D;stroke:#FFFFFF;stroke-width:5;stroke-miterlimit:10;}
	.st49{fill:#19192D;stroke:#E9A72D;stroke-width:5;stroke-miterlimit:10;}
	.st50{clip-path:url(#SVGID_00000175311188461926087400000015497047765574463930_);}
	.st51{fill:none;stroke:#FFFFFF;stroke-width:0.5;stroke-miterlimit:10;}
	.st52{clip-path:url(#SVGID_00000068641526119654887480000002639304886232707715_);}
	.st53{fill:none;stroke:#FFFFFF;stroke-width:3;stroke-linecap:round;stroke-linejoin:round;stroke-miterlimit:10;}
	.st54{opacity:0.8;fill:#19192D;}
	.st55{fill:#B91300;}
	.st56{fill:#E7FF00;}
	.st57{fill:#E78D00;}
	.st58{clip-path:url(#SVGID_00000011711152050255261070000013909330227293320104_);}
	.st59{fill:#00E737;}
	.st60{clip-path:url(#SVGID_00000027602040384023845170000015357249548371326361_);}
	.st61{fill:#00E7FF;}
	.st62{opacity:0.2;fill:#32373A;}
	.st63{fill:#493A30;}
	.st64{fill:#723424;}
	.st65{fill:#2B2B3E;}
	.st66{fill:#19192D;stroke:#32325B;stroke-width:5;stroke-miterlimit:10;}
	.st67{fill:#32325B;}
	.st68{fill:#19192D;stroke:#F7F7F7;stroke-width:5;stroke-miterlimit:10;}
	.st69{fill:#E5E5E5;}
	.st70{fill:none;stroke:#F46245;stroke-width:4;stroke-miterlimit:10;}
	.st71{fill:#C4C4C4;}
	.st72{opacity:0.67;fill:#FFFFFF;}
	.st73{fill:#F7F7F7;}
	.st74{fill:#54B5B1;stroke:#FFFFFF;stroke-width:6;stroke-miterlimit:10;}
	.st75{fill:none;}
	.st76{fill:#E9A72D;stroke:#FFFFFF;stroke-width:5;stroke-miterlimit:10;}
	.st77{opacity:0.26;fill:#19192D;}
	.st78{stroke:#111111;stroke-width:2;stroke-miterlimit:10;}
	.st79{fill:#3E3E56;stroke:#111111;stroke-width:2;stroke-miterlimit:10;}
	.st80{fill:#19192D;stroke:#111111;stroke-width:2;stroke-miterlimit:10;}
	.st81{opacity:0.5;fill:#FFFFFF;}
	.st82{clip-path:url(#SVGID_00000099646735289433930210000004739710314104904578_);}
	.st83{fill:#E9A72D;stroke:#0F0F0F;stroke-width:4;stroke-miterlimit:10;}
	.st84{fill:#545454;stroke:#0F0F0F;stroke-width:4;stroke-miterlimit:10;}
	.st85{fill:#19192D;stroke:#0F0F0F;stroke-width:2;stroke-miterlimit:10;}
	.st86{fill:#BC1E44;stroke:#0F0F0F;stroke-width:4;stroke-miterlimit:10;}
	.st87{fill:none;stroke:#0F0F0F;stroke-width:2;stroke-miterlimit:10;}
	.st88{fill:#19192D;stroke:#0F0F0F;stroke-width:4;stroke-miterlimit:10;}
	.st89{fill:#E9A72D;stroke:#19192D;stroke-width:6;stroke-miterlimit:10;}
	.st90{fill:none;stroke:#FFFFFF;stroke-width:2;stroke-miterlimit:10;}
	.st91{clip-path:url(#SVGID_00000072255127289895154920000013875455374172680092_);}
	.st92{fill:#4E5051;}
	.st93{fill:#3B3C3D;}
	.st94{fill:none;stroke:#000000;stroke-width:4;stroke-miterlimit:10;}
	.st95{fill:none;stroke:#E9A72D;stroke-width:3;stroke-linecap:round;stroke-linejoin:round;stroke-miterlimit:10;}
	.st96{fill:none;stroke:#FFFFFF;stroke-width:3;stroke-miterlimit:10;}
	.st97{opacity:0.2;fill:none;stroke:#FFFFFF;stroke-miterlimit:10;}
	.st98{opacity:0.2;fill:#19192D;stroke:#FFFFFF;stroke-width:5;stroke-miterlimit:10;}
	.st99{fill:none;stroke:#005DD0;stroke-width:3;stroke-linecap:round;stroke-linejoin:round;stroke-miterlimit:10;}
	.st100{opacity:0.23;fill:#19192D;stroke:#19192D;stroke-width:28;stroke-miterlimit:10;}
	.st101{opacity:0.23;fill:#19192D;}
	.st102{fill:none;stroke:#54B5B1;stroke-width:5;stroke-miterlimit:10;}
	.st103{clip-path:url(#SVGID_00000106147672114586872760000015487219903616639934_);}
	.st104{opacity:0.5;fill:#32325B;}
	.st105{opacity:0.3;fill:#232323;}
	.st106{opacity:0.6;fill:none;stroke:#FFFFFF;stroke-width:2;stroke-miterlimit:10;}
	.st107{fill:#F9B438;}
	.st108{fill:none;stroke:#19192F;stroke-width:3;stroke-linecap:round;stroke-linejoin:round;stroke-miterlimit:10;}
	.st109{opacity:0.4;fill:#32325B;}
	.st110{clip-path:url(#SVGID_00000105418520403559496470000017449945506281785761_);}
	.st111{fill:#E9A72D;stroke:#000000;stroke-width:5;stroke-miterlimit:10;}
	.st112{opacity:0.5;fill:#19192D;stroke:#000000;stroke-width:6;stroke-miterlimit:10;}
	.st113{fill:#19192D;stroke:#000000;stroke-width:6;stroke-miterlimit:10;}
	.st114{fill:#19192D;stroke:#000000;stroke-width:2;stroke-miterlimit:10;}
	.st115{fill:#BC1E44;}
	.st116{fill:none;stroke:#000000;stroke-miterlimit:10;}
	.st117{fill:#2E2E4F;}
	.st118{fill:none;stroke:#111111;stroke-width:3;stroke-linecap:round;stroke-linejoin:round;stroke-miterlimit:10;}
	.st119{fill:#E9A72D;stroke:#0F0F0F;stroke-width:2;stroke-miterlimit:10;}
	.st120{clip-path:url(#SVGID_00000088854325572902726690000009278383458994460047_);}
	.st121{fill:#19192F;}
	.st122{fill:#E29820;stroke:#0F0F0F;stroke-width:2;stroke-miterlimit:10;}
	.st123{fill:#EFEFEF;}
	.st124{fill:#F9B438;stroke:#0F0F0F;stroke-width:4;stroke-miterlimit:10;}
	.st125{fill:none;stroke:#32325B;stroke-width:3;stroke-linecap:round;stroke-linejoin:round;stroke-miterlimit:10;}
	.st126{fill:none;stroke:#0F0F0F;stroke-width:4;stroke-miterlimit:10;}
	.st127{opacity:0.2;fill:#32325B;}
	.st128{fill:#19192F;stroke:#19192F;stroke-width:2;stroke-miterlimit:10;}
	.st129{opacity:0.3;fill:#32325B;}
	.st130{fill:none;stroke:#32325B;stroke-width:4;stroke-linecap:round;stroke-linejoin:round;stroke-miterlimit:10;}
	.st131{fill:#A3A3A3;}
	.st132{fill:#DFECF2;}
	.st133{fill:#232323;}
	.st134{fill:none;stroke:#232323;stroke-width:0.75;stroke-miterlimit:10;}
	.st135{fill:#CFD0D1;stroke:#0F0F0F;stroke-width:3;stroke-miterlimit:10;}
	.st136{fill:none;stroke:#0F0F0F;stroke-width:3;stroke-miterlimit:10;}
	.st137{clip-path:url(#SVGID_00000010278798716733021340000009450601296092776068_);}
	.st138{fill:#A5A5A5;stroke:#0F0F0F;stroke-width:4;stroke-miterlimit:10;}
	.st139{clip-path:url(#SVGID_00000152945502044952024000000002984868881730174381_);}
	.st140{clip-path:url(#SVGID_00000050655552976298143530000007340912010020360381_);}
	.st141{clip-path:url(#SVGID_00000116922984910871928300000010432358154982583954_);}
	.st142{opacity:0.2;fill:#19192F;}
	.st143{fill:#BC1E44;stroke:#FFFFFF;stroke-width:5;stroke-miterlimit:10;}
	.st144{opacity:0.67;fill:#FCFCFC;}
	.st145{fill:#E08D3B;}
	.st146{fill:none;stroke:#E08D3B;stroke-width:4;stroke-miterlimit:10;}
	.st147{opacity:0.8;fill:none;stroke:#19192D;stroke-width:2;stroke-miterlimit:10;}
	.st148{opacity:0.8;fill:#BC1E44;}
	.st149{fill:#E29820;}
	.st150{opacity:0.5;fill:#232323;}
	.st151{fill:none;stroke:#FFFFFF;stroke-width:3.1184;stroke-linecap:round;stroke-linejoin:round;stroke-miterlimit:10;}
</style>
<g id="Layer_1">
	<g>
		<g>
			<g>
				<path class="st67" d="M320.1,45.9v313.3c0,17.6-14.3,28.1-31.9,28.1H31.9C14.3,387.3,0,373,0,355.4V45.9C0,28.3,14.3,14,31.9,14
					h256.4C305.8,14,320.1,28.3,320.1,45.9z"/>
				<path class="st150" d="M320.1,126.6v234.8c0,14.6-11.9,26.5-26.5,26.5H26.5C11.9,387.8,0,376,0,361.3V126.6"/>
				<line class="st90" x1="0.7" y1="125.6" x2="320.1" y2="125.6"/>
				<g>
					<g>
						<path class="st5" d="M54.3,72.3c2.7,1.6,4.1,3.9,4.1,7.1c0,2.6-0.9,4.8-2.8,6.5s-4.2,2.5-6.9,2.5H35.5v-31h12.2
							c2.7,0,4.9,0.8,6.7,2.5c1.8,1.6,2.7,3.7,2.7,6.3C57.2,68.6,56.2,70.7,54.3,72.3z M47.8,63.1h-6.1v6.8h6.1c0.9,0,1.7-0.3,2.4-1
							c0.6-0.6,1-1.5,1-2.4s-0.3-1.8-0.9-2.4C49.5,63.4,48.7,63.1,47.8,63.1z M48.7,82.7c1,0,1.9-0.3,2.6-1c0.7-0.7,1-1.6,1-2.6
							c0-1-0.3-1.9-1-2.6c-0.7-0.7-1.5-1-2.6-1h-7.1v7.3H48.7z"/>
						<path class="st5" d="M82.4,72.3c2.7,1.6,4.1,3.9,4.1,7.1c0,2.6-0.9,4.8-2.8,6.5s-4.2,2.5-6.9,2.5H63.7v-31h12.2
							c2.7,0,4.9,0.8,6.7,2.5c1.8,1.6,2.7,3.7,2.7,6.3C85.4,68.6,84.4,70.7,82.4,72.3z M75.9,63.1h-6.1v6.8h6.1c0.9,0,1.7-0.3,2.4-1
							c0.6-0.6,1-1.5,1-2.4s-0.3-1.8-0.9-2.4C77.7,63.4,76.9,63.1,75.9,63.1z M76.8,82.7c1,0,1.9-0.3,2.6-1c0.7-0.7,1-1.6,1-2.6
							c0-1-0.3-1.9-1-2.6c-0.7-0.7-1.5-1-2.6-1h-7.1v7.3H76.8z"/>
						<path class="st5" d="M101.4,68.6c3,0,5.5,0.9,7.5,2.7c2,1.8,3.1,4.3,3.1,7.5c0,3.2-1.1,5.7-3.2,7.5c-2.1,1.8-4.8,2.7-7.9,2.7
							c-2.5,0-4.7-0.6-6.7-1.7s-3.3-2.8-4.2-5l5.2-3.1c0.8,2.5,2.6,3.7,5.6,3.7c1.6,0,2.8-0.4,3.7-1.1c0.9-0.8,1.3-1.8,1.3-3.1
							c0-1.3-0.4-2.3-1.3-3.1c-0.9-0.8-2-1.2-3.5-1.2h-9.4l1.2-17.2h17.6v5.7H98.6l-0.4,5.6H101.4z"/>
					</g>
				</g>
				<circle class="st5" cx="281.2" cy="72.5" r="14.7"/>
				<circle class="st57" cx="281.2" cy="72.5" r="11.1"/>
				<g>
					<circle class="st5" cx="312.3" cy="20.6" r="20.6"/>
					<line class="st118" x1="305.2" y1="27.7" x2="319.4" y2="13.5"/>
					<line class="st118" x1="319.4" y1="27.7" x2="305.2" y2="13.5"/>
				</g>
			</g>
			<g>
				<g>
					<g>
						<g>
							<path class="st5" d="M117,255.8v21h-4.1v-13.6l-5.9,9.7l-0.5,0l-5.9-9.7v13.6h-4.1v-21h4.3l6,9.9l6-9.9H117z"/>
							<path class="st5" d="M137.7,276.8l-1.3-3.8h-8.6l-1.3,3.8H122l7.3-21h5.1l7.4,21H137.7z M129.1,269.1h5.9l-3-8.6L129.1,269.1
								z"/>
							<path class="st5" d="M158.5,276.8l-4.2-7.3h-3.1v7.3H147v-21h8.4c1.9,0,3.6,0.7,5,2c1.4,1.4,2,3,2,4.9c0,1.3-0.4,2.5-1.1,3.6
								c-0.7,1.1-1.7,1.9-2.9,2.5l4.6,7.9H158.5z M151.1,259.6v6.2h4.3c0.8,0,1.5-0.3,2-0.9c0.6-0.6,0.8-1.3,0.8-2.2
								c0-0.9-0.3-1.6-0.8-2.2c-0.6-0.6-1.2-0.9-2-0.9H151.1z"/>
							<path class="st5" d="M184.8,276.8H180l-7.5-9.8v9.8h-4.1v-21h4.1v9.3l7.2-9.3h4.8l-7.8,10.2L184.8,276.8z"/>
							<path class="st5" d="M194,272.8h8.8v4h-13v-21h12.8v4H194v4.5h7.9v3.9H194V272.8z"/>
							<path class="st5" d="M217.1,255.8c2.9,0,5.3,1,7.2,3s2.9,4.5,2.9,7.5c0,3-1,5.4-2.9,7.5c-1.9,2-4.3,3-7.2,3h-8.3v-21H217.1z
								 M217.1,272.8c1.8,0,3.3-0.6,4.4-1.8s1.7-2.8,1.7-4.7c0-1.9-0.6-3.5-1.7-4.7s-2.6-1.8-4.4-1.8h-4.2v13.1H217.1z"/>
							<path class="st5" d="M81.5,295.7h-8.4v5h8.2v4h-8.2v8.1H69v-21h12.5V295.7z"/>
							<path class="st5" d="M105.2,310c-2.1,2.1-4.7,3.2-7.7,3.2c-3,0-5.6-1.1-7.7-3.2c-2.1-2.1-3.2-4.7-3.2-7.8s1.1-5.6,3.2-7.8
								c2.1-2.1,4.7-3.2,7.7-3.2c3,0,5.6,1.1,7.7,3.2c2.1,2.1,3.2,4.7,3.2,7.8S107.4,307.9,105.2,310z M92.7,307.2
								c1.3,1.3,2.9,1.9,4.8,1.9s3.5-0.6,4.8-1.9s2-2.9,2-4.9c0-2-0.7-3.6-2-4.9s-2.9-2-4.8-2s-3.5,0.7-4.8,2s-1.9,3-1.9,4.9
								C90.7,304.2,91.4,305.9,92.7,307.2z"/>
							<path class="st5" d="M125.8,312.7l-4.2-7.3h-3.1v7.3h-4.1v-21h8.4c1.9,0,3.6,0.7,5,2c1.4,1.4,2,3,2,4.9
								c0,1.3-0.4,2.5-1.1,3.6c-0.7,1.1-1.7,1.9-2.9,2.5l4.6,7.9H125.8z M118.5,295.6v6.2h4.3c0.8,0,1.5-0.3,2-0.9
								c0.6-0.6,0.8-1.3,0.8-2.2c0-0.9-0.3-1.6-0.8-2.2c-0.6-0.6-1.2-0.9-2-0.9H118.5z"/>
							<path class="st5" d="M157.8,312.7l-4.2-7.3h-3.1v7.3h-4.1v-21h8.4c1.9,0,3.6,0.7,5,2c1.4,1.4,2,3,2,4.9
								c0,1.3-0.4,2.5-1.1,3.6c-0.7,1.1-1.7,1.9-2.9,2.5l4.6,7.9H157.8z M150.4,295.6v6.2h4.3c0.8,0,1.5-0.3,2-0.9
								c0.6-0.6,0.8-1.3,0.8-2.2c0-0.9-0.3-1.6-0.8-2.2c-0.6-0.6-1.2-0.9-2-0.9H150.4z"/>
							<path class="st5" d="M171.8,308.8h8.8v4h-13v-21h12.8v4h-8.7v4.5h7.9v3.9h-7.9V308.8z"/>
							<path class="st5" d="M194.4,291.7c2,0,3.7,0.7,5.1,2c1.4,1.4,2.1,3,2.1,5c0,2-0.7,3.6-2.1,5c-1.4,1.4-3.1,2-5.1,2h-3.7v6.9
								h-4.1v-21H194.4z M194.4,302c0.9,0,1.6-0.3,2.2-0.9s0.9-1.4,0.9-2.3c0-0.9-0.3-1.7-0.9-2.3c-0.6-0.6-1.3-0.9-2.2-0.9h-3.7
								v6.4H194.4z"/>
							<path class="st5" d="M218.9,312.7l-1.3-3.8H209l-1.3,3.8h-4.5l7.3-21h5.1l7.4,21H218.9z M210.3,305.1h5.9l-3-8.6L210.3,305.1
								z"/>
							<path class="st5" d="M228.2,291.7h4.1v21h-4.1V291.7z"/>
							<path class="st5" d="M250.7,312.7l-4.2-7.3h-3.1v7.3h-4.1v-21h8.4c1.9,0,3.6,0.7,5,2c1.4,1.4,2,3,2,4.9
								c0,1.3-0.4,2.5-1.1,3.6c-0.7,1.1-1.7,1.9-2.9,2.5l4.6,7.9H250.7z M243.3,295.6v6.2h4.3c0.8,0,1.5-0.3,2-0.9
								c0.6-0.6,0.8-1.3,0.8-2.2c0-0.9-0.3-1.6-0.8-2.2c-0.6-0.6-1.2-0.9-2-0.9H243.3z"/>
						</g>
					</g>
				</g>
			</g>
		</g>
		<circle class="st36" cx="161.4" cy="198.7" r="30.7"/>
		<polyline class="st151" points="147.7,201.4 155,208.6 175,188.7 		"/>
	</g>
</g>
<g id="Tools">
</g>
</svg>
