<?xml version="1.0" encoding="UTF-8"?><svg xmlns="http://www.w3.org/2000/svg" viewBox="0 0 332.89 309.84"><defs><style>.d{font-size:23.16px;}.d,.e,.f,.g,.h{fill:#fff;}.d,.g{font-family:Gilroy-Bold, Gilroy-Bold;}.i{letter-spacing:.02em;}.j{letter-spacing:.02em;}.e,.h{font-family:Gilroy-Medium, Gilroy-Medium;font-size:25.99px;}.k{letter-spacing:.02em;}.l{fill:#e7ff00;}.m{fill:#32325b;}.n{letter-spacing:.02em;}.g{font-size:44.34px;}.o{letter-spacing:0em;}.h,.p{letter-spacing:.03em;}.q{stroke-width:2px;}.q,.r{stroke:#fff;stroke-miterlimit:10;}.q,.r,.s{fill:none;}.t{letter-spacing:.03em;}.u{letter-spacing:.03em;}.v{letter-spacing:.03em;}.w{letter-spacing:-.05em;}.x{letter-spacing:.03em;}.s{stroke:#111;stroke-linecap:round;stroke-linejoin:round;stroke-width:3px;}.y{letter-spacing:0em;}.a`{fill:#232323;opacity:.3;}</style></defs><g id="a"/><g id="b"><g id="c"><g><path class="m" d="M320.09,45.87v235.29c0,17.6-14.27,28.12-31.86,28.12H31.86c-17.6,0-31.86-14.27-31.86-31.86V45.87C0,28.28,14.27,14.01,31.86,14.01H288.23c17.6,0,31.86,14.27,31.86,31.86Z"/><path class="a`" d="M320.09,126.6v156.75c0,14.63-11.86,26.5-26.5,26.5H26.5c-14.63,0-26.5-11.86-26.5-26.5V126.6"/><line class="q" x1=".7" y1="125.61" x2="320.09" y2="125.61"/><line class="r" x1=".7" y1="185.07" x2="320.09" y2="185.07"/><text class="h" transform="translate(227.89 165.94)"><tspan x="0" y="0">0MW</tspan></text><text class="e" transform="translate(98.29 237.15)"><tspan class="w" x="0" y="0">T</tspan><tspan class="v" x="12.74" y="0">urbine </tspan><tspan class="x" x="99.86" y="0">i</tspan><tspan class="v" x="106.33" y="0">s </tspan><tspan class="p" x="-36.96" y="31.19">being </tspan><tspan class="k" x="42.65" y="31.19">s</tspan><tspan class="v" x="54.97" y="31.19">ervi</tspan><tspan class="j" x="100.95" y="31.19">c</tspan><tspan class="x" x="115.74" y="31.19">e</tspan><tspan class="p" x="131.65" y="31.19">d. </tspan></text><text class="g" transform="translate(32.63 88.38)"><tspan class="u" x="0" y="0">B</tspan><tspan class="y" x="28.16" y="0">B</tspan><tspan class="t" x="55.2" y="0">15</tspan></text><text class="d" transform="translate(32.63 165.94)"><tspan class="n" x="0" y="0">P</tspan><tspan class="o" x="14.13" y="0">O</tspan><tspan class="i" x="32.33" y="0">WER:</tspan></text><circle class="f" cx="281.16" cy="72.54" r="14.67"/><circle class="l" cx="281.16" cy="72.54" r="11.12"/><g><circle class="f" cx="312.29" cy="20.6" r="20.6"/><line class="s" x1="305.21" y1="27.68" x2="319.36" y2="13.53"/><line class="s" x1="319.36" y1="27.68" x2="305.21" y2="13.53"/></g></g></g></g></svg>