<?xml version="1.0" encoding="UTF-8"?><svg xmlns="http://www.w3.org/2000/svg" viewBox="0 0 178.09 160.22"><defs><style>.d{stroke:#fff;stroke-width:5px;}.d,.e{fill:#19192d;}.d,.f{stroke-miterlimit:10;}.g{fill:#f7f7f7;}.h{fill:#32373a;}.i{fill:#232323;}.j{fill:#54b5b1;}.f{fill:none;stroke:#232323;stroke-width:.75px;}</style></defs><g id="a"/><g id="b"><g id="c"><g><circle class="d" cx="90.08" cy="72.59" r="70.09"/><circle class="j" cx="90.52" cy="72.6" r="59.2"/><g><polygon class="h" points="48.63 49.51 55.8 99.68 94.9 92.22 86.58 45.33 48.63 49.51"/><path class="h" d="M137.01,90.65s-.91-29.29-28.05-24.43-52.21,8.52-52.21,8.52l2.6,17.81,32.61,1.84,45.04-3.75Z"/><polyline class="i" points="54.27 95.87 56.23 105.33 74.44 102.96 74.62 98.9 79.06 97.98 79.87 101.89 138.31 93.74 138.45 83.97 56.07 95.49"/><path class="i" d="M52.15,38.79h30.2c2.25,0,4.08,1.83,4.08,4.08v6.82H48.06v-6.82c0-2.25,1.83-4.08,4.08-4.08Z" transform="translate(-5.69 10.18) rotate(-8.31)"/><circle class="i" cx="82.28" cy="52.69" r="1.83"/><circle class="i" cx="83.16" cy="58.7" r="1.83"/><circle class="i" cx="84.04" cy="64.71" r="1.83"/><line class="f" x1="82.28" y1="52.69" x2="87.75" y2="51.89"/><line class="f" x1="83.16" y1="58.7" x2="88.63" y2="57.9"/><line class="f" x1="84.04" y1="64.71" x2="89.5" y2="63.91"/></g><rect class="g" x="0" y="120.66" width="178.09" height="39.56" rx="19.78" ry="19.78"/><g><path class="e" d="M20.15,149.32c-1.66,0-3.07-.39-4.25-1.17s-2-1.84-2.47-3.2l2.03-1.17c.69,2.15,2.27,3.22,4.74,3.22,1.22,0,2.15-.25,2.79-.75,.64-.5,.96-1.16,.96-1.99s-.32-1.48-.96-1.9c-.64-.42-1.72-.87-3.22-1.34-.74-.25-1.3-.45-1.69-.58-.39-.13-.88-.35-1.46-.65-.58-.3-1.02-.6-1.31-.91-.29-.31-.55-.72-.77-1.23-.23-.51-.34-1.08-.34-1.73,0-1.54,.54-2.76,1.62-3.67,1.08-.91,2.4-1.36,3.96-1.36,1.4,0,2.62,.36,3.67,1.07,1.04,.71,1.82,1.65,2.35,2.82l-1.98,1.14c-.76-1.83-2.11-2.74-4.03-2.74-.96,0-1.74,.24-2.33,.71-.59,.47-.89,1.12-.89,1.93s.28,1.37,.84,1.77c.56,.41,1.52,.83,2.89,1.27,.48,.17,.82,.29,1.03,.37,.21,.07,.53,.19,.96,.34,.43,.15,.75,.28,.95,.38s.48,.25,.82,.43,.6,.36,.77,.53c.17,.17,.37,.38,.6,.62s.39,.5,.49,.75c.1,.25,.19,.55,.27,.88,.08,.33,.11,.68,.11,1.05,0,1.56-.57,2.79-1.7,3.72-1.13,.92-2.61,1.38-4.44,1.38Z"/><path class="e" d="M40.29,136.3h2.21v12.68h-2.21v-2.18c-1.1,1.67-2.7,2.51-4.79,2.51-1.78,0-3.29-.65-4.54-1.94-1.25-1.29-1.88-2.87-1.88-4.73s.63-3.44,1.88-4.73c1.25-1.29,2.76-1.94,4.54-1.94,2.1,0,3.7,.84,4.79,2.51v-2.18Zm-4.52,10.88c1.28,0,2.36-.44,3.22-1.31,.86-.87,1.29-1.95,1.29-3.23s-.43-2.36-1.29-3.24c-.86-.87-1.94-1.31-3.22-1.31s-2.33,.44-3.2,1.31c-.86,.87-1.29,1.95-1.29,3.24s.43,2.36,1.29,3.23c.86,.87,1.93,1.31,3.2,1.31Z"/><path class="e" d="M53,133.03c-2.23-.19-3.35,.78-3.35,2.89v.38h3.35v2.13h-3.35v10.55h-2.21v-10.55h-2.03v-2.13h2.03v-.38c0-1.71,.48-3,1.43-3.88,.96-.88,2.33-1.26,4.12-1.14v2.13Z"/><path class="e" d="M56.17,143.66c.22,1.13,.74,2.01,1.56,2.64,.82,.63,1.83,.94,3.03,.94,1.67,0,2.89-.62,3.65-1.85l1.88,1.07c-1.24,1.91-3.1,2.87-5.58,2.87-2.01,0-3.65-.63-4.91-1.89-1.26-1.26-1.89-2.85-1.89-4.78s.62-3.5,1.85-4.77,2.83-1.9,4.79-1.9c1.86,0,3.38,.66,4.55,1.97,1.17,1.31,1.76,2.89,1.76,4.73,0,.32-.03,.65-.08,.99h-10.63Zm4.39-5.61c-1.18,0-2.16,.33-2.94,1s-1.26,1.56-1.45,2.68h8.47c-.19-1.2-.66-2.11-1.42-2.74s-1.65-.94-2.66-.94Z"/><path class="e" d="M76.57,138.43h-3.37v6.88c0,.63,.12,1.07,.37,1.33,.24,.26,.62,.4,1.13,.41,.51,0,1.13,0,1.88-.04v1.98c-1.93,.25-3.34,.1-4.24-.47s-1.34-1.64-1.34-3.21v-6.88h-2.51v-2.13h2.51v-2.89l2.21-.66v3.55h3.37v2.13Z"/><path class="e" d="M88.95,136.3h2.36l-5.17,13.47c-.54,1.44-1.3,2.53-2.27,3.29-.97,.75-2.09,1.09-3.36,1v-2.06c1.55,.12,2.69-.75,3.41-2.59l.24-.48-5.53-12.63h2.36l4.23,9.72,3.74-9.72Z"/><path class="e" d="M107.77,135.97c1.78,0,3.29,.65,4.54,1.94s1.88,2.87,1.88,4.73-.63,3.44-1.88,4.73c-1.25,1.29-2.76,1.94-4.54,1.94-2.1,0-3.7-.84-4.79-2.51v2.18h-2.21v-17.76h2.21v7.25c1.1-1.67,2.7-2.51,4.79-2.51Zm-.28,11.21c1.27,0,2.33-.44,3.2-1.31,.86-.87,1.29-1.95,1.29-3.23s-.43-2.36-1.29-3.24c-.86-.87-1.93-1.31-3.2-1.31s-2.36,.44-3.22,1.31c-.86,.87-1.29,1.95-1.29,3.24s.43,2.36,1.29,3.23c.86,.87,1.94,1.31,3.22,1.31Z"/><path class="e" d="M128.17,147.39c-1.3,1.29-2.88,1.93-4.74,1.93s-3.44-.64-4.73-1.93c-1.29-1.29-1.94-2.87-1.94-4.74s.65-3.46,1.94-4.74,2.87-1.93,4.73-1.93,3.44,.64,4.74,1.93c1.3,1.29,1.95,2.87,1.95,4.74s-.65,3.46-1.95,4.74Zm-4.74-.23c1.27,0,2.33-.43,3.2-1.29,.86-.86,1.29-1.94,1.29-3.22s-.43-2.36-1.29-3.22c-.86-.86-1.93-1.29-3.2-1.29s-2.31,.43-3.17,1.29-1.29,1.94-1.29,3.22,.43,2.36,1.29,3.22,1.92,1.29,3.17,1.29Z"/><path class="e" d="M144.08,147.39c-1.3,1.29-2.88,1.93-4.74,1.93s-3.44-.64-4.73-1.93c-1.29-1.29-1.94-2.87-1.94-4.74s.65-3.46,1.94-4.74,2.87-1.93,4.73-1.93,3.44,.64,4.74,1.93c1.3,1.29,1.95,2.87,1.95,4.74s-.65,3.46-1.95,4.74Zm-4.74-.23c1.27,0,2.33-.43,3.2-1.29,.86-.86,1.29-1.94,1.29-3.22s-.43-2.36-1.29-3.22c-.86-.86-1.93-1.29-3.2-1.29s-2.31,.43-3.17,1.29-1.29,1.94-1.29,3.22,.43,2.36,1.29,3.22,1.92,1.29,3.17,1.29Z"/><path class="e" d="M155.9,138.43h-3.37v6.88c0,.63,.12,1.07,.37,1.33,.25,.26,.62,.4,1.13,.41s1.13,0,1.88-.04v1.98c-1.93,.25-3.34,.1-4.24-.47s-1.34-1.64-1.34-3.21v-6.88h-2.51v-2.13h2.51v-2.89l2.21-.66v3.55h3.37v2.13Z"/><path class="e" d="M160.44,139.69c0,.48,.25,.86,.75,1.15,.5,.29,1.09,.54,1.78,.74,.69,.2,1.38,.41,2.08,.61,.7,.2,1.29,.59,1.77,1.15,.48,.56,.72,1.29,.72,2.17,0,1.15-.44,2.07-1.33,2.77s-2.03,1.04-3.41,1.04c-1.24,0-2.29-.27-3.17-.81-.88-.54-1.51-1.26-1.88-2.16l1.9-1.09c.2,.61,.58,1.09,1.14,1.45,.56,.36,1.23,.53,2,.53,.73,0,1.33-.14,1.8-.42,.47-.28,.71-.71,.71-1.3,0-.49-.25-.88-.74-1.18-.49-.3-1.08-.55-1.77-.75-.69-.21-1.38-.42-2.08-.62s-1.29-.58-1.78-1.13c-.49-.54-.74-1.23-.74-2.08,0-1.1,.43-2,1.28-2.71,.85-.71,1.92-1.07,3.21-1.07,1.03,0,1.95,.23,2.75,.7,.8,.46,1.41,1.11,1.81,1.94l-1.85,1.04c-.46-1.08-1.36-1.62-2.71-1.62-.63,0-1.16,.14-1.6,.43s-.66,.7-.66,1.23Z"/></g></g></g></g></svg>