<?xml version="1.0" encoding="UTF-8"?><svg xmlns="http://www.w3.org/2000/svg" viewBox="0 0 178.09 160.22"><defs><style>.d{stroke:#fff;stroke-width:5px;}.d,.e{stroke-miterlimit:10;}.d,.f{fill:#19192d;}.g{letter-spacing:.03em;}.h{fill:#f7f7f7;}.i{fill:#32373a;}.j{fill:#232323;}.k{fill:#54b5b1;}.l{letter-spacing:.04em;}.e{fill:none;stroke:#232323;stroke-width:.75px;}.m{letter-spacing:0em;}.n{letter-spacing:.03em;}.o{letter-spacing:0em;}.p{letter-spacing:.01em;}.f{font-family:Gilroy-Medium, Gilroy-Medium;font-size:25.37px;}</style></defs><g id="a"/><g id="b"><g id="c"><g><circle class="d" cx="90.08" cy="72.59" r="70.09"/><circle class="k" cx="90.52" cy="72.6" r="59.2"/><g><polygon class="i" points="48.63 49.51 55.8 99.68 94.9 92.22 86.58 45.33 48.63 49.51"/><path class="i" d="M137.01,90.65s-.91-29.29-28.05-24.43-52.21,8.52-52.21,8.52l2.6,17.81,32.61,1.84,45.04-3.75Z"/><polyline class="j" points="54.27 95.87 56.23 105.33 74.44 102.96 74.62 98.9 79.06 97.98 79.87 101.89 138.31 93.74 138.45 83.97 56.07 95.49"/><path class="j" d="M52.15,38.79h30.2c2.25,0,4.08,1.83,4.08,4.08v6.82H48.06v-6.82c0-2.25,1.83-4.08,4.08-4.08Z" transform="translate(-5.69 10.18) rotate(-8.31)"/><circle class="j" cx="82.28" cy="52.69" r="1.83"/><circle class="j" cx="83.16" cy="58.7" r="1.83"/><circle class="j" cx="84.04" cy="64.71" r="1.83"/><line class="e" x1="82.28" y1="52.69" x2="87.75" y2="51.89"/><line class="e" x1="83.16" y1="58.7" x2="88.63" y2="57.9"/><line class="e" x1="84.04" y1="64.71" x2="89.5" y2="63.91"/></g><rect class="h" x="0" y="120.66" width="178.09" height="39.56" rx="19.78" ry="19.78"/><text class="f" transform="translate(12.51 148.77)"><tspan class="l" x="0" y="0">S</tspan><tspan class="g" x="15.6" y="0">a</tspan><tspan class="o" x="32.29" y="0">f</tspan><tspan class="m" x="40.44" y="0">e</tspan><tspan class="n" x="55.48" y="0">t</tspan><tspan class="g" x="65.91" y="0">y bo</tspan><tspan class="p" x="119.18" y="0">o</tspan><tspan class="o" x="134.81" y="0">t</tspan><tspan class="g" x="144.35" y="0">s</tspan></text></g></g></g></svg>