<?xml version="1.0" encoding="UTF-8"?><svg xmlns="http://www.w3.org/2000/svg" viewBox="0 0 145.18 145.18"><defs><style>.d{fill:#19192d;stroke:#32325b;stroke-miterlimit:10;stroke-width:5px;}.e{fill:#f2f2f2;}.f{fill:#32325b;}</style></defs><g id="a"/><g id="b"><g id="c"><circle class="d" cx="72.59" cy="72.59" r="70.09"/><circle class="f" cx="72.59" cy="72.59" r="59.2"/><path class="e" d="M65.29,82.32c0-2.29,.69-4.47,2.07-6.55,1.38-2.08,2.87-3.76,4.49-5.03,1.61-1.27,3.11-2.77,4.48-4.49,1.38-1.72,2.07-3.43,2.07-5.15,0-1.82-.62-3.22-1.87-4.21-1.25-.99-2.99-1.48-5.23-1.48-4.37,0-7.46,2.31-9.28,6.94l-9.2-5.3c1.56-3.85,4.04-6.83,7.45-8.93,3.4-2.11,7.21-3.16,11.43-3.16,4.73,0,8.83,1.37,12.29,4.1,3.46,2.73,5.19,6.49,5.19,11.27,0,2.18-.46,4.21-1.37,6.08-.91,1.87-2,3.47-3.28,4.8-1.27,1.33-2.55,2.57-3.82,3.74-1.27,1.17-2.37,2.38-3.28,3.63-.91,1.25-1.36,2.5-1.36,3.74h-10.76Zm10.06,17.39c-1.3,1.3-2.86,1.95-4.68,1.95s-3.38-.65-4.68-1.95c-1.3-1.3-1.95-2.86-1.95-4.68s.65-3.38,1.95-4.68c1.3-1.3,2.86-1.95,4.68-1.95s3.38,.65,4.68,1.95c1.3,1.3,1.95,2.86,1.95,4.68s-.65,3.38-1.95,4.68Z"/></g></g></svg>