<?xml version="1.0" encoding="UTF-8"?><svg xmlns="http://www.w3.org/2000/svg" viewBox="0 0 145.18 147.24"><defs><style>.d{stroke:#fff;stroke-miterlimit:10;stroke-width:5px;}.d,.e{fill:#19192d;}.f{fill:#f7f7f7;}.g{fill:#ff6d00;}.h{fill:#32373a;}.i{fill:#54b5b1;}</style></defs><g id="a"/><g id="b"><g id="c"><g><circle class="d" cx="72.59" cy="72.59" r="70.09"/><circle class="i" cx="73.03" cy="73.09" r="59.2"/><g><g><path class="g" d="M108.82,81.82l-.19-.45c-1.13-2.6-4.16-3.78-6.75-2.65l-43.25,18.85,4.29,9.85,43.25-18.85c2.6-1.13,3.78-4.16,2.65-6.75Z"/><path class="g" d="M107.07,43.12l-.37-.31c-2.18-1.81-5.41-1.51-7.22,.67l-30.12,36.31,8.27,6.86,30.12-36.31c1.81-2.18,1.51-5.41-.67-7.22Z"/><path class="g" d="M90.9,28.05l-.45-.19c-2.6-1.13-5.62,.05-6.75,2.65l-18.88,43.24,9.85,4.3,18.88-43.24c1.13-2.6-.05-5.62-2.65-6.75Z"/><path class="g" d="M76.65,28.51c.59-2.77-1.18-5.49-3.96-6.08l-.48-.1c-2.77-.59-5.49,1.18-6.08,3.96l-9.77,46.16,10.51,2.23,9.77-46.16Z"/><path class="g" d="M58.3,36.99c.03-2.83-2.25-5.15-5.08-5.18h-.49c-2.83-.03-5.15,2.24-5.18,5.07l-.47,47.18,10.75,.11,.47-47.18Z"/><polygon class="g" points="65.22 117.17 86.94 75.41 48.88 66.83 44.36 109.84 65.22 117.17"/></g><path class="h" d="M48.36,43.59l-.24,11.95c-.02,1.05,.82,1.91,1.87,1.92l5.48,.05c1.05,0,1.9-.84,1.9-1.89l-.04-12c0-1.04-.85-1.88-1.89-1.88h-5.21c-1.03,0-1.86,.83-1.88,1.85Z"/><path class="h" d="M64.85,34.79l-2.04,10.05c-.21,1.01,.44,2,1.46,2.22l5.51,1.17c1.02,.22,2.02-.43,2.23-1.45l2.18-10.26c.22-1.05-.47-2.07-1.53-2.25l-5.65-.96c-1-.17-1.96,.49-2.16,1.48Z"/><path class="h" d="M80.34,39.28l-4.45,10.13c-.42,.95,.01,2.06,.96,2.48l5.52,2.44c.95,.42,2.06,0,2.49-.96l4.5-10.18c.42-.96-.02-2.08-.98-2.49l-5.58-2.39c-.95-.41-2.05,.03-2.47,.97Z"/><path class="h" d="M94.67,50.3l-7.41,8.84c-.66,.78-.57,1.94,.19,2.62l4.28,3.8c.8,.71,2.02,.61,2.7-.2l7.59-9.1c.68-.81,.55-2.03-.28-2.68l-4.46-3.53c-.8-.63-1.96-.51-2.61,.27Z"/><path class="h" d="M95.54,82.16l-10.4,4.64c-.91,.41-1.35,1.45-.99,2.39l1.9,5.02c.38,1,1.51,1.48,2.49,1.07l11.09-4.68c1.01-.43,1.45-1.63,.94-2.61l-2.59-4.98c-.46-.88-1.53-1.26-2.44-.85Z"/><path class="h" d="M50.6,64.82l6.55-.11c.23,0,.46,.03,.68,.11l25.44,9.27c1.07,.39,1.55,1.63,1.03,2.64l-13.63,26.35c-.43,.82-1.39,1.21-2.27,.92l-19.93-6.59c-.81-.27-1.34-1.05-1.29-1.9l1.05-17.5,.5-11.39c.04-1,.86-1.79,1.85-1.8Z"/></g><rect class="f" x="12.95" y="107.68" width="119.27" height="39.56" rx="19.78" ry="19.78"/><g><path class="e" d="M48.9,127.21v1.07c0,2.32-.79,4.24-2.38,5.77-1.59,1.53-3.7,2.29-6.32,2.29s-4.94-.89-6.71-2.68c-1.77-1.79-2.65-3.96-2.65-6.53s.88-4.75,2.65-6.53c1.77-1.79,3.99-2.68,6.66-2.68,1.64,0,3.15,.39,4.52,1.18,1.37,.79,2.43,1.82,3.17,3.11l-2.03,1.19c-.51-.96-1.27-1.74-2.3-2.32-1.02-.58-2.15-.88-3.39-.88-2.03,0-3.7,.66-5,1.99s-1.95,2.97-1.95,4.93,.66,3.6,1.97,4.92c1.31,1.32,3.01,1.98,5.09,1.98,1.78,0,3.21-.44,4.31-1.31s1.77-2,2-3.39h-6.52v-2.13h8.88Z"/><path class="e" d="M52.17,136.01v-18.52h2.21v18.52h-2.21Z"/><path class="e" d="M69.09,134.41c-1.3,1.29-2.88,1.93-4.74,1.93s-3.44-.64-4.73-1.93c-1.29-1.29-1.94-2.87-1.94-4.74s.65-3.46,1.94-4.74c1.29-1.29,2.87-1.93,4.73-1.93s3.44,.64,4.74,1.93,1.95,2.87,1.95,4.74-.65,3.46-1.95,4.74Zm-4.74-.23c1.27,0,2.33-.43,3.2-1.29,.86-.86,1.29-1.94,1.29-3.22s-.43-2.36-1.29-3.22c-.86-.86-1.93-1.29-3.2-1.29s-2.31,.43-3.17,1.29c-.86,.86-1.29,1.94-1.29,3.22s.43,2.36,1.29,3.22c.86,.86,1.92,1.29,3.17,1.29Z"/><path class="e" d="M82.67,123.33h2.38l-5.07,12.68h-2.59l-5.07-12.68h2.38l3.98,10.3,3.98-10.3Z"/><path class="e" d="M88.6,130.69c.22,1.13,.74,2.01,1.56,2.64,.82,.63,1.83,.94,3.03,.94,1.67,0,2.89-.62,3.65-1.85l1.88,1.06c-1.23,1.91-3.09,2.87-5.58,2.87-2.01,0-3.65-.63-4.91-1.89-1.26-1.26-1.89-2.85-1.89-4.78s.62-3.5,1.85-4.77c1.23-1.27,2.83-1.9,4.79-1.9,1.86,0,3.38,.66,4.55,1.97s1.76,2.89,1.76,4.73c0,.32-.03,.65-.08,.99h-10.63Zm4.39-5.61c-1.18,0-2.17,.33-2.94,1-.78,.67-1.26,1.56-1.45,2.68h8.47c-.19-1.2-.66-2.11-1.42-2.74-.76-.63-1.65-.94-2.66-.94Z"/><path class="e" d="M103.88,126.72c0,.48,.25,.86,.75,1.15,.5,.29,1.09,.54,1.78,.74,.69,.2,1.38,.41,2.08,.61s1.29,.59,1.77,1.15c.48,.56,.73,1.29,.73,2.17,0,1.15-.44,2.07-1.33,2.77-.89,.69-2.03,1.04-3.41,1.04-1.24,0-2.29-.27-3.17-.81s-1.51-1.26-1.88-2.16l1.9-1.09c.2,.61,.58,1.09,1.14,1.45s1.23,.53,2,.53c.73,0,1.33-.14,1.8-.42,.47-.28,.71-.71,.71-1.3,0-.49-.25-.88-.74-1.18-.49-.29-1.08-.55-1.77-.75s-1.38-.41-2.08-.62c-.7-.21-1.29-.58-1.78-1.13-.49-.54-.73-1.23-.73-2.08,0-1.1,.43-2,1.28-2.71,.85-.71,1.92-1.06,3.21-1.06,1.03,0,1.95,.23,2.75,.7,.8,.46,1.41,1.11,1.81,1.94l-1.85,1.04c-.46-1.08-1.36-1.62-2.71-1.62-.63,0-1.16,.14-1.6,.43-.44,.29-.66,.7-.66,1.23Z"/></g></g></g></g></svg>