<?xml version="1.0" encoding="UTF-8"?><svg xmlns="http://www.w3.org/2000/svg" viewBox="0 0 145.18 147.24"><defs><style>.d{stroke:#f7f7f7;stroke-miterlimit:10;stroke-width:5px;}.d,.e{fill:#19192d;}.f{fill:#f7f7f7;}.g{fill:#f2f2f2;}.h{fill:#32373a;}.i{fill:#c4c4c4;}.j{fill:#54b5b1;}</style></defs><g id="a"/><g id="b"><g id="c"><g><circle class="d" cx="72.59" cy="72.59" r="70.09"/><circle class="j" cx="72.6" cy="72.09" r="59.2"/><g><path class="i" d="M32.63,94.23s20.44,8.46,42.66,3.12c0,0,.78-.67,2.5-1.28,1.72-.61,4.39-1.17,8.17-.94,0,0,25.11-5.33,37.56-20,0,0-21.28-14.95-46.64-7.59-25.36,7.37-39.36,10.67-44.25,26.69Z"/><g><path class="g" d="M123.67,75.06s-14.27-7.21-47.54,.37c-33.27,7.58-43.72,18.81-43.72,18.81l-.98-4.67c-6.11-29.09,9.36-56.96,34.56-62.25h0c25.2-5.3,50.59,13.99,56.7,43.07l.98,4.67Z"/><rect class="h" x="60.91" y="51.12" width="22.01" height="15.36" transform="translate(-10.56 16.05) rotate(-11.87)"/><path class="h" d="M116.25,52.3c-2.17-.46-23.02-4.76-45.23,.36-22.21,5.13-39.81,16.29-41.73,18.52-1.43,6.09,.65,13.73,.65,13.73,0,0,18.91-15.55,43.2-20.66,24.29-5.11,48.65,1.51,48.65,1.51,0,0-2.12-9.31-5.54-13.46Z"/></g></g><rect class="f" x="4.68" y="107.68" width="139.26" height="39.56" rx="19.78" ry="19.78"/><g><path class="e" d="M33.49,118.25h2.33v17.76h-2.33v-7.99h-8.62v7.99h-2.36v-17.76h2.36v7.54h8.62v-7.54Z"/><path class="e" d="M50.53,123.33h2.21v12.68h-2.21v-2.18c-1.1,1.67-2.7,2.51-4.79,2.51-1.78,0-3.29-.65-4.54-1.94-1.25-1.29-1.88-2.87-1.88-4.73s.63-3.44,1.88-4.73c1.25-1.29,2.76-1.94,4.54-1.94,2.1,0,3.7,.84,4.79,2.51v-2.18Zm-4.52,10.88c1.28,0,2.36-.44,3.22-1.31,.86-.87,1.29-1.95,1.29-3.23s-.43-2.36-1.29-3.23c-.86-.87-1.94-1.31-3.22-1.31s-2.33,.44-3.2,1.31c-.86,.87-1.29,1.95-1.29,3.23s.43,2.36,1.29,3.23c.86,.87,1.93,1.31,3.2,1.31Z"/><path class="e" d="M58.93,125.46c.73-1.57,2.05-2.36,3.96-2.36v2.31c-1.08-.05-2.01,.24-2.79,.86-.78,.62-1.17,1.63-1.17,3.02v6.72h-2.21v-12.68h2.21v2.13Z"/><path class="e" d="M75.5,118.25h2.21v17.76h-2.21v-2.18c-1.1,1.67-2.7,2.51-4.79,2.51-1.78,0-3.29-.65-4.54-1.94-1.25-1.29-1.88-2.87-1.88-4.73s.62-3.44,1.88-4.73c1.25-1.29,2.77-1.94,4.54-1.94,2.1,0,3.7,.84,4.79,2.51v-7.26Zm-4.52,15.96c1.29,0,2.36-.44,3.22-1.31s1.29-1.95,1.29-3.23-.43-2.36-1.29-3.23-1.94-1.31-3.22-1.31-2.33,.44-3.2,1.31-1.29,1.95-1.29,3.23,.43,2.36,1.29,3.23,1.93,1.31,3.2,1.31Z"/><path class="e" d="M94.98,123c1.49,0,2.68,.47,3.58,1.41,.9,.94,1.34,2.21,1.34,3.82v7.79h-2.21v-7.66c0-1.03-.28-1.83-.84-2.4-.56-.57-1.33-.85-2.31-.85-1.1,0-1.99,.34-2.66,1.03-.68,.69-1.01,1.74-1.01,3.16v6.72h-2.21v-17.76h2.21v6.9c.9-1.44,2.27-2.16,4.11-2.16Z"/><path class="e" d="M114.11,123.33h2.21v12.68h-2.21v-2.18c-1.1,1.67-2.7,2.51-4.79,2.51-1.78,0-3.29-.65-4.54-1.94-1.25-1.29-1.88-2.87-1.88-4.73s.62-3.44,1.88-4.73c1.25-1.29,2.77-1.94,4.54-1.94,2.1,0,3.7,.84,4.79,2.51v-2.18Zm-4.52,10.88c1.29,0,2.36-.44,3.22-1.31s1.29-1.95,1.29-3.23-.43-2.36-1.29-3.23-1.94-1.31-3.22-1.31-2.33,.44-3.2,1.31-1.29,1.95-1.29,3.23,.43,2.36,1.29,3.23,1.93,1.31,3.2,1.31Z"/><path class="e" d="M127.2,125.46h-3.37v6.88c0,.62,.12,1.07,.37,1.33s.62,.4,1.13,.41c.51,0,1.13,0,1.88-.04v1.98c-1.93,.25-3.34,.1-4.24-.47s-1.34-1.64-1.34-3.21v-6.88h-2.51v-2.13h2.51v-2.89l2.21-.66v3.55h3.37v2.13Z"/></g></g></g></g></svg>