<?xml version="1.0" encoding="UTF-8"?><svg xmlns="http://www.w3.org/2000/svg" viewBox="0 0 145.18 153.01"><defs><style>.d{stroke:#fff;stroke-width:5px;}.d,.e{fill:#19192d;}.d,.f{stroke-miterlimit:10;}.g{fill:#f7f7f7;}.h{fill:#eaeaea;}.i{fill:#32373a;}.j{fill:#54b5b1;}.f{fill:none;stroke:#ff4800;stroke-width:9px;}</style></defs><g id="a"/><g id="b"><g id="c"><g><circle class="d" cx="72.59" cy="72.59" r="70.09"/><circle class="j" cx="73.6" cy="72.59" r="59.2"/><ellipse class="f" cx="73.71" cy="66.53" rx="8.8" ry="9.5" transform="translate(-2.32 130.39) rotate(-82.1)"/><path class="i" d="M27.38,106.06s33.87,.57,42.92,1.71c9.06,1.14,39.9,10.07,39.9,10.07l2.03-12.21-6.04-37.64,12.01-34.25-12.86-3.13-11.98,32.07-11.6-2.41-1.56,9.87,12.18,2.31,2.79,.56,4.67,29.67s-17.18-5.38-27.13-6.77c-9.95-1.39-32.55-.8-32.55-.8l17.09-26.82,14.3,.47,1.28-9.7-14.69-1.26-1.4-34.26-13.49-.19,2.55,38.04-16.91,33.17-1.52,11.51Z"/><polygon class="h" points="78.18 96.36 75.84 109.49 91.18 113.36 93.7 100.45 78.18 96.36"/><rect class="g" x="2.53" y="113.46" width="132.36" height="39.56" rx="19.78" ry="19.78"/><g><path class="e" d="M33.46,123.81h2.33v17.76h-2.33v-7.99h-8.62v7.99h-2.36v-17.76h2.36v7.53h8.62v-7.53Z"/><path class="e" d="M50.51,128.88h2.21v12.69h-2.21v-2.18c-1.1,1.67-2.7,2.51-4.79,2.51-1.78,0-3.29-.65-4.54-1.94s-1.88-2.87-1.88-4.73,.62-3.44,1.88-4.73c1.25-1.29,2.77-1.94,4.54-1.94,2.1,0,3.7,.84,4.79,2.51v-2.18Zm-4.52,10.88c1.29,0,2.36-.44,3.22-1.31s1.29-1.95,1.29-3.23-.43-2.36-1.29-3.24c-.86-.87-1.94-1.3-3.22-1.3s-2.33,.44-3.2,1.3c-.86,.87-1.29,1.95-1.29,3.24s.43,2.36,1.29,3.23,1.93,1.31,3.2,1.31Z"/><path class="e" d="M58.91,131.01c.73-1.57,2.05-2.36,3.96-2.36v2.31c-1.08-.05-2.01,.24-2.79,.86-.78,.62-1.17,1.63-1.17,3.02v6.72h-2.21v-12.69h2.21v2.13Z"/><path class="e" d="M71.97,128.55c1.49,0,2.68,.47,3.58,1.41,.9,.94,1.34,2.21,1.34,3.82v7.79h-2.21v-7.66c0-1.03-.28-1.83-.84-2.4-.56-.57-1.33-.85-2.31-.85-1.1,0-1.99,.34-2.66,1.03-.68,.68-1.01,1.74-1.01,3.16v6.72h-2.21v-12.69h2.21v1.83c.9-1.44,2.27-2.16,4.11-2.16Z"/><path class="e" d="M82.15,136.24c.22,1.13,.74,2.01,1.56,2.64,.82,.62,1.83,.94,3.03,.94,1.67,0,2.89-.62,3.65-1.85l1.88,1.07c-1.23,1.91-3.09,2.87-5.58,2.87-2.01,0-3.65-.63-4.91-1.89s-1.89-2.85-1.89-4.78,.62-3.5,1.85-4.77c1.23-1.27,2.83-1.9,4.79-1.9,1.86,0,3.38,.66,4.55,1.97s1.76,2.89,1.76,4.73c0,.32-.03,.65-.08,.99h-10.63Zm4.39-5.61c-1.18,0-2.17,.33-2.94,1-.78,.67-1.26,1.56-1.45,2.68h8.47c-.19-1.2-.66-2.11-1.42-2.74-.76-.62-1.65-.94-2.66-.94Z"/><path class="e" d="M97.42,132.27c0,.48,.25,.86,.75,1.15s1.09,.54,1.78,.74c.69,.2,1.38,.41,2.08,.61,.7,.2,1.29,.59,1.77,1.15s.72,1.29,.72,2.17c0,1.15-.44,2.07-1.33,2.77-.89,.69-2.03,1.04-3.41,1.04-1.24,0-2.29-.27-3.17-.81-.88-.54-1.5-1.26-1.88-2.16l1.9-1.09c.2,.61,.58,1.09,1.14,1.45,.56,.36,1.23,.53,2,.53,.73,0,1.33-.14,1.8-.42,.47-.28,.71-.71,.71-1.3,0-.49-.25-.88-.74-1.18-.49-.3-1.08-.55-1.77-.75-.69-.21-1.38-.42-2.08-.62s-1.29-.58-1.78-1.12c-.49-.54-.74-1.23-.74-2.08,0-1.1,.43-2,1.28-2.71,.85-.71,1.92-1.07,3.21-1.07,1.03,0,1.95,.23,2.75,.7s1.41,1.11,1.81,1.94l-1.85,1.04c-.46-1.08-1.36-1.62-2.71-1.62-.63,0-1.16,.14-1.6,.43-.44,.29-.66,.7-.66,1.23Z"/><path class="e" d="M108.89,132.27c0,.48,.25,.86,.75,1.15s1.09,.54,1.78,.74c.69,.2,1.38,.41,2.08,.61,.7,.2,1.29,.59,1.77,1.15s.72,1.29,.72,2.17c0,1.15-.44,2.07-1.33,2.77-.89,.69-2.03,1.04-3.41,1.04-1.24,0-2.29-.27-3.17-.81-.88-.54-1.5-1.26-1.88-2.16l1.9-1.09c.2,.61,.58,1.09,1.14,1.45,.56,.36,1.23,.53,2,.53,.73,0,1.33-.14,1.8-.42,.47-.28,.71-.71,.71-1.3,0-.49-.25-.88-.74-1.18-.49-.3-1.08-.55-1.77-.75-.69-.21-1.38-.42-2.08-.62s-1.29-.58-1.78-1.12c-.49-.54-.74-1.23-.74-2.08,0-1.1,.43-2,1.28-2.71,.85-.71,1.92-1.07,3.21-1.07,1.03,0,1.95,.23,2.75,.7s1.41,1.11,1.81,1.94l-1.85,1.04c-.46-1.08-1.36-1.62-2.71-1.62-.63,0-1.16,.14-1.6,.43-.44,.29-.66,.7-.66,1.23Z"/></g></g></g></g></svg>