<?xml version="1.0" encoding="UTF-8"?><svg xmlns="http://www.w3.org/2000/svg" viewBox="0 0 145.18 163.45"><defs><style>.d{stroke:#f7f7f7;stroke-width:5px;}.d,.e{stroke-miterlimit:10;}.d,.f{fill:#19192d;}.e{stroke:gray;}.g{fill:#f7f7f7;}.h{fill:#e6e6e6;}.i{fill:#ff4800;}.j{fill:#333;}.k{fill:#54b5b1;}</style></defs><g id="a"/><g id="b"><g id="c"><g><circle class="d" cx="72.59" cy="72.59" r="70.09"/><circle class="k" cx="72.6" cy="72.6" r="59.2"/><g><rect x="51.81" y="50.5" width="33.05" height="69.67" transform="translate(18.37 -11.9) rotate(11.49)"/><rect class="h" x="61.14" y="57.3" width="23.19" height="12.98" transform="translate(14.17 -13.21) rotate(11.49)"/><circle class="j" cx="61.8" cy="77.08" r="2.6"/><circle class="i" cx="67.49" cy="91.07" r="4.92"/><circle class="j" cx="69.79" cy="78.71" r="2.6"/><circle class="j" cx="77.79" cy="80.34" r="2.6"/><rect x="89.16" y="20.2" width="4.09" height="35.74" transform="translate(9.41 -17.41) rotate(11.49)"/><line class="e" x1="54.61" y1="102.23" x2="74.31" y2="106.24"/><line class="e" x1="53.98" y1="105.33" x2="73.68" y2="109.34"/><line class="e" x1="53.35" y1="108.43" x2="73.05" y2="112.44"/><line class="e" x1="52.72" y1="111.53" x2="72.42" y2="115.54"/></g><rect class="g" x="21.84" y="123.89" width="100.16" height="39.56" rx="19.78" ry="19.78"/><g><path class="f" d="M50.18,152.22l-3.98-6.8h-4.19v6.8h-2.36v-17.76h7.1c1.52,0,2.82,.54,3.91,1.61,1.08,1.07,1.62,2.37,1.62,3.89,0,1.15-.34,2.2-1.03,3.15-.69,.95-1.57,1.62-2.65,2l4.19,7.1h-2.61Zm-8.17-15.55v6.62h4.74c.88,0,1.63-.33,2.25-.98,.62-.65,.93-1.43,.93-2.35s-.31-1.69-.93-2.33c-.62-.64-1.37-.96-2.25-.96h-4.74Z"/><path class="f" d="M65.43,139.54h2.21v12.68h-2.21v-2.18c-1.1,1.67-2.7,2.51-4.79,2.51-1.78,0-3.29-.65-4.54-1.94-1.25-1.29-1.88-2.87-1.88-4.73s.62-3.44,1.88-4.73,2.77-1.94,4.54-1.94c2.1,0,3.7,.84,4.79,2.51v-2.18Zm-4.52,10.88c1.29,0,2.36-.44,3.22-1.31s1.29-1.95,1.29-3.23-.43-2.36-1.29-3.24c-.86-.87-1.94-1.31-3.22-1.31s-2.33,.44-3.2,1.31c-.86,.87-1.29,1.95-1.29,3.24s.43,2.36,1.29,3.23c.86,.87,1.93,1.31,3.2,1.31Z"/><path class="f" d="M82.12,134.46h2.21v17.76h-2.21v-2.18c-1.1,1.67-2.7,2.51-4.79,2.51-1.78,0-3.29-.65-4.54-1.94-1.25-1.29-1.88-2.87-1.88-4.73s.63-3.44,1.88-4.73c1.25-1.29,2.76-1.94,4.54-1.94,2.1,0,3.7,.84,4.79,2.51v-7.25Zm-4.52,15.96c1.28,0,2.36-.44,3.22-1.31,.86-.87,1.29-1.95,1.29-3.23s-.43-2.36-1.29-3.24c-.86-.87-1.94-1.31-3.22-1.31s-2.33,.44-3.2,1.31c-.86,.87-1.29,1.95-1.29,3.24s.43,2.36,1.29,3.23c.86,.87,1.93,1.31,3.2,1.31Z"/><path class="f" d="M89.43,137.23c-.42,0-.78-.14-1.07-.43-.29-.29-.43-.63-.43-1.04s.14-.76,.43-1.05c.29-.29,.64-.44,1.07-.44s.75,.15,1.04,.44c.29,.3,.43,.65,.43,1.05s-.14,.75-.43,1.04c-.29,.29-.63,.43-1.04,.43Zm-1.12,14.99v-12.68h2.21v12.68h-2.21Z"/><path class="f" d="M105.23,150.62c-1.3,1.29-2.88,1.93-4.74,1.93s-3.44-.64-4.73-1.93c-1.29-1.29-1.94-2.87-1.94-4.74s.65-3.46,1.94-4.74,2.87-1.93,4.73-1.93,3.44,.64,4.74,1.93c1.3,1.29,1.95,2.87,1.95,4.74s-.65,3.46-1.95,4.74Zm-4.74-.23c1.27,0,2.33-.43,3.2-1.29,.86-.86,1.29-1.94,1.29-3.22s-.43-2.36-1.29-3.22c-.86-.86-1.93-1.29-3.2-1.29s-2.31,.43-3.17,1.29-1.29,1.94-1.29,3.22,.43,2.36,1.29,3.22,1.92,1.29,3.17,1.29Z"/></g></g></g></g></svg>