<?xml version="1.0" encoding="UTF-8"?><svg xmlns="http://www.w3.org/2000/svg" viewBox="0 0 145.18 163.45"><defs><style>.d{stroke:#f7f7f7;stroke-width:5px;}.d,.e{stroke-miterlimit:10;}.d,.f{fill:#19192d;}.g{letter-spacing:.03em;}.e{stroke:gray;}.h{fill:#f7f7f7;}.i{fill:#e6e6e6;}.j{fill:#ff4800;}.k{fill:#333;}.l{fill:#54b5b1;}.f{font-family:Gilroy-Medium, Gilroy-Medium;font-size:25.37px;}</style></defs><g id="a"/><g id="b"><g id="c"><g><circle class="d" cx="72.59" cy="72.59" r="70.09"/><circle class="l" cx="72.6" cy="72.6" r="59.2"/><g><rect x="51.81" y="50.5" width="33.05" height="69.67" transform="translate(18.37 -11.9) rotate(11.49)"/><rect class="i" x="61.14" y="57.3" width="23.19" height="12.98" transform="translate(14.17 -13.21) rotate(11.49)"/><circle class="k" cx="61.8" cy="77.08" r="2.6"/><circle class="j" cx="67.49" cy="91.07" r="4.92"/><circle class="k" cx="69.79" cy="78.71" r="2.6"/><circle class="k" cx="77.79" cy="80.34" r="2.6"/><rect x="89.16" y="20.2" width="4.09" height="35.74" transform="translate(9.41 -17.41) rotate(11.49)"/><line class="e" x1="54.61" y1="102.23" x2="74.31" y2="106.24"/><line class="e" x1="53.98" y1="105.33" x2="73.68" y2="109.34"/><line class="e" x1="53.35" y1="108.43" x2="73.05" y2="112.44"/><line class="e" x1="52.72" y1="111.53" x2="72.42" y2="115.54"/></g><rect class="h" x="21.84" y="123.89" width="100.16" height="39.56" rx="19.78" ry="19.78"/><text class="f" transform="translate(37.75 152)"><tspan x="0" y="0">R</tspan><tspan class="g" x="15.5" y="0">adio</tspan></text></g></g></g></svg>