<?xml version="1.0" encoding="UTF-8"?><svg xmlns="http://www.w3.org/2000/svg" viewBox="0 0 145.18 159.47"><defs><style>.d{stroke:#fff;stroke-miterlimit:10;stroke-width:5px;}.d,.e{fill:#19192d;}.f{fill:#f7f7f7;}.g{fill:#c1d9e5;}.h{fill:#dfecf2;}.i{fill:#54b5b1;}</style></defs><g id="a"/><g id="b"><g id="c"><g><circle class="d" cx="72.59" cy="72.59" r="70.09"/><circle class="i" cx="72.59" cy="72.59" r="59.2"/><rect class="f" x="14.36" y="89.56" width="114.88" height="69.91" rx="19.78" ry="19.78"/><g><path class="e" d="M38.25,120c-1.66,0-3.07-.39-4.25-1.17-1.18-.78-2-1.84-2.47-3.2l2.03-1.17c.69,2.15,2.27,3.22,4.74,3.22,1.22,0,2.15-.25,2.79-.75s.96-1.16,.96-1.99-.32-1.48-.96-1.9-1.72-.87-3.22-1.34c-.74-.25-1.3-.45-1.7-.58-.39-.13-.88-.35-1.46-.65s-1.02-.6-1.31-.91c-.29-.31-.55-.72-.77-1.23-.23-.51-.34-1.08-.34-1.73,0-1.54,.54-2.76,1.62-3.67,1.08-.91,2.4-1.36,3.96-1.36,1.4,0,2.63,.36,3.67,1.07s1.82,1.65,2.35,2.82l-1.98,1.14c-.76-1.83-2.11-2.74-4.03-2.74-.96,0-1.74,.24-2.33,.71-.59,.47-.89,1.12-.89,1.93s.28,1.37,.84,1.77c.56,.41,1.52,.83,2.89,1.27,.48,.17,.82,.29,1.03,.37,.21,.07,.53,.19,.96,.34,.43,.15,.75,.28,.95,.38s.48,.25,.82,.43c.35,.19,.6,.36,.77,.53,.17,.17,.37,.38,.6,.62s.39,.5,.49,.75c.1,.25,.19,.55,.27,.88,.08,.33,.12,.68,.12,1.05,0,1.56-.57,2.79-1.7,3.72-1.13,.92-2.61,1.38-4.44,1.38Z"/><path class="e" d="M58.39,106.99h2.21v12.68h-2.21v-2.18c-1.1,1.67-2.7,2.51-4.79,2.51-1.78,0-3.29-.65-4.54-1.94-1.25-1.29-1.88-2.87-1.88-4.73s.63-3.44,1.88-4.73c1.25-1.29,2.76-1.94,4.54-1.94,2.1,0,3.7,.84,4.79,2.51v-2.18Zm-4.52,10.88c1.28,0,2.36-.44,3.22-1.31,.86-.87,1.29-1.95,1.29-3.23s-.43-2.36-1.29-3.24c-.86-.87-1.94-1.31-3.22-1.31s-2.33,.44-3.2,1.31c-.86,.87-1.29,1.95-1.29,3.24s.43,2.36,1.29,3.23c.86,.87,1.93,1.31,3.2,1.31Z"/><path class="e" d="M71.1,103.71c-2.23-.19-3.35,.78-3.35,2.89v.38h3.35v2.13h-3.35v10.55h-2.21v-10.55h-2.03v-2.13h2.03v-.38c0-1.71,.48-3,1.43-3.88,.96-.88,2.33-1.26,4.12-1.14v2.13Z"/><path class="e" d="M74.27,114.34c.22,1.13,.74,2.01,1.56,2.64,.82,.63,1.83,.94,3.03,.94,1.67,0,2.89-.62,3.65-1.85l1.88,1.07c-1.23,1.91-3.1,2.87-5.58,2.87-2.01,0-3.65-.63-4.91-1.89-1.26-1.26-1.89-2.85-1.89-4.78s.62-3.5,1.85-4.77c1.23-1.27,2.83-1.9,4.79-1.9,1.86,0,3.38,.66,4.55,1.97s1.76,2.89,1.76,4.73c0,.32-.03,.65-.08,.99h-10.63Zm4.39-5.61c-1.18,0-2.17,.33-2.94,1-.78,.67-1.26,1.56-1.45,2.68h8.47c-.19-1.2-.66-2.11-1.42-2.74-.76-.63-1.65-.94-2.66-.94Z"/><path class="e" d="M94.67,109.12h-3.37v6.88c0,.63,.12,1.07,.37,1.33,.25,.26,.62,.4,1.13,.41s1.13,0,1.88-.04v1.98c-1.93,.25-3.34,.1-4.24-.47s-1.34-1.64-1.34-3.21v-6.88h-2.51v-2.13h2.51v-2.89l2.21-.66v3.55h3.37v2.13Z"/><path class="e" d="M107.05,106.99h2.36l-5.17,13.47c-.54,1.44-1.3,2.53-2.27,3.29-.97,.75-2.09,1.09-3.36,1v-2.06c1.55,.12,2.69-.75,3.41-2.59l.24-.48-5.53-12.63h2.36l4.23,9.72,3.74-9.72Z"/><path class="e" d="M41.05,132.99h2.18v12.15c0,1.88-.63,3.34-1.9,4.38s-2.79,1.56-4.57,1.56c-1.42,0-2.65-.27-3.68-.8-1.03-.53-1.81-1.3-2.33-2.3l1.93-1.09c.69,1.42,2.07,2.13,4.14,2.13,1.32,0,2.35-.35,3.11-1.04,.75-.69,1.13-1.64,1.13-2.84v-1.8c-1.12,1.69-2.71,2.54-4.77,2.54-1.81,0-3.34-.64-4.59-1.93-1.25-1.29-1.88-2.85-1.88-4.69s.63-3.4,1.88-4.68c1.25-1.28,2.78-1.92,4.59-1.92,2.08,0,3.67,.84,4.77,2.51v-2.18Zm-7.74,9.49c.86,.86,1.94,1.29,3.22,1.29s2.36-.43,3.22-1.29c.86-.86,1.29-1.94,1.29-3.22s-.43-2.33-1.29-3.2-1.94-1.29-3.22-1.29-2.36,.43-3.22,1.29c-.86,.86-1.29,1.93-1.29,3.2s.43,2.36,1.29,3.22Z"/><path class="e" d="M47.22,145.67v-18.52h2.21v18.52h-2.21Z"/><path class="e" d="M63.94,132.99h2.21v12.68h-2.21v-2.18c-1.1,1.67-2.7,2.51-4.79,2.51-1.78,0-3.29-.65-4.54-1.94-1.25-1.29-1.88-2.87-1.88-4.73s.63-3.44,1.88-4.73c1.25-1.29,2.76-1.94,4.54-1.94,2.1,0,3.7,.84,4.79,2.51v-2.18Zm-4.52,10.88c1.28,0,2.36-.44,3.22-1.31,.86-.87,1.29-1.95,1.29-3.23s-.43-2.36-1.29-3.24c-.86-.87-1.94-1.31-3.22-1.31s-2.33,.44-3.2,1.31c-.86,.87-1.29,1.95-1.29,3.24s.43,2.36,1.29,3.23c.86,.87,1.93,1.31,3.2,1.31Z"/><path class="e" d="M72,136.37c0,.48,.25,.86,.75,1.15,.5,.29,1.09,.54,1.78,.74,.69,.2,1.38,.41,2.08,.61,.7,.2,1.29,.59,1.77,1.15,.48,.56,.73,1.29,.73,2.17,0,1.15-.44,2.07-1.33,2.77-.89,.69-2.03,1.04-3.41,1.04-1.23,0-2.29-.27-3.17-.81-.88-.54-1.5-1.26-1.88-2.16l1.9-1.09c.2,.61,.58,1.09,1.14,1.45,.56,.36,1.23,.53,2,.53,.73,0,1.33-.14,1.8-.42,.47-.28,.71-.71,.71-1.3,0-.49-.25-.88-.74-1.18-.49-.3-1.08-.55-1.77-.75-.69-.21-1.38-.42-2.08-.62-.7-.21-1.29-.58-1.78-1.13-.49-.54-.74-1.23-.74-2.08,0-1.1,.43-2,1.28-2.71,.85-.71,1.92-1.07,3.21-1.07,1.03,0,1.95,.23,2.75,.7,.8,.46,1.41,1.11,1.81,1.94l-1.85,1.04c-.46-1.08-1.36-1.62-2.71-1.62-.63,0-1.16,.14-1.6,.43-.44,.29-.66,.7-.66,1.23Z"/><path class="e" d="M83.47,136.37c0,.48,.25,.86,.75,1.15,.5,.29,1.09,.54,1.78,.74,.69,.2,1.38,.41,2.08,.61,.7,.2,1.29,.59,1.77,1.15,.48,.56,.73,1.29,.73,2.17,0,1.15-.44,2.07-1.33,2.77-.89,.69-2.03,1.04-3.41,1.04-1.23,0-2.29-.27-3.17-.81-.88-.54-1.5-1.26-1.88-2.16l1.9-1.09c.2,.61,.58,1.09,1.14,1.45,.56,.36,1.23,.53,2,.53,.73,0,1.33-.14,1.8-.42,.47-.28,.71-.71,.71-1.3,0-.49-.25-.88-.74-1.18-.49-.3-1.08-.55-1.77-.75-.69-.21-1.38-.42-2.08-.62-.7-.21-1.29-.58-1.78-1.13-.49-.54-.74-1.23-.74-2.08,0-1.1,.43-2,1.28-2.71,.85-.71,1.92-1.07,3.21-1.07,1.03,0,1.95,.23,2.75,.7,.8,.46,1.41,1.11,1.81,1.94l-1.85,1.04c-.46-1.08-1.36-1.62-2.71-1.62-.63,0-1.16,.14-1.6,.43-.44,.29-.66,.7-.66,1.23Z"/><path class="e" d="M95.01,140.34c.22,1.13,.74,2.01,1.56,2.64,.82,.63,1.83,.94,3.03,.94,1.67,0,2.89-.62,3.65-1.85l1.88,1.07c-1.24,1.91-3.09,2.87-5.58,2.87-2.01,0-3.65-.63-4.91-1.89-1.26-1.26-1.89-2.85-1.89-4.78s.62-3.5,1.85-4.77,2.83-1.9,4.79-1.9c1.86,0,3.38,.66,4.55,1.97,1.17,1.31,1.76,2.89,1.76,4.73,0,.32-.03,.65-.08,.99h-10.63Zm4.39-5.61c-1.18,0-2.17,.33-2.94,1-.78,.67-1.26,1.56-1.45,2.68h8.47c-.19-1.2-.66-2.11-1.42-2.74-.76-.63-1.65-.94-2.66-.94Z"/><path class="e" d="M110.28,136.37c0,.48,.25,.86,.75,1.15,.5,.29,1.09,.54,1.78,.74,.69,.2,1.38,.41,2.08,.61,.7,.2,1.29,.59,1.77,1.15,.48,.56,.72,1.29,.72,2.17,0,1.15-.44,2.07-1.33,2.77-.89,.69-2.03,1.04-3.41,1.04-1.23,0-2.29-.27-3.17-.81s-1.5-1.26-1.88-2.16l1.9-1.09c.2,.61,.58,1.09,1.14,1.45s1.23,.53,2,.53c.73,0,1.33-.14,1.8-.42,.47-.28,.71-.71,.71-1.3,0-.49-.25-.88-.74-1.18-.49-.3-1.08-.55-1.77-.75s-1.38-.42-2.08-.62-1.29-.58-1.78-1.13c-.49-.54-.74-1.23-.74-2.08,0-1.1,.43-2,1.28-2.71,.85-.71,1.92-1.07,3.21-1.07,1.03,0,1.95,.23,2.75,.7s1.41,1.11,1.81,1.94l-1.85,1.04c-.46-1.08-1.36-1.62-2.71-1.62-.62,0-1.16,.14-1.6,.43-.44,.29-.66,.7-.66,1.23Z"/></g><g><path class="g" d="M28.81,47.09l93.72,19.35s-5.28,21.72-11.06,26.09c-4.69,3.55-26.54,.79-31.79-6.11-4.6-6.06-3.94-16.91-3.94-16.91l-6.64-1.16s-4.07,9.75-8.57,13.68c-4.5,3.93-27.61,.21-31.98-6.6-4.37-6.82,.25-28.34,.25-28.34Z"/><path class="h" d="M31.57,51.19l37.14,8.01s-5.34,15.91-10.36,19.75-24.36,.41-27.45-6.12c-3.09-6.54,.67-21.64,.67-21.64Z"/><path class="h" d="M117.6,68.96l-37.28-7.36s-1.39,16.73,1.7,22.24c3.09,5.52,22.2,10.03,27.63,5.25,5.43-4.78,7.95-20.14,7.95-20.14Z"/></g></g></g></g></svg>