<?xml version="1.0" encoding="UTF-8"?><svg xmlns="http://www.w3.org/2000/svg" viewBox="0 0 156.67 156.25"><defs><style>.d{stroke:#f7f7f7;stroke-miterlimit:10;stroke-width:5px;}.d,.e{fill:#19192d;}.f{fill:#f7f7f7;}.g{fill:#edcf21;}.h{fill:#2a66bc;}.i{fill:#54b5b1;}</style></defs><g id="a"/><g id="b"><g id="c"><g><circle class="d" cx="78.33" cy="72.59" r="70.09"/><circle class="i" cx="78.33" cy="72.2" r="59.2"/><g><rect class="g" x="69.31" y="25.68" width="13.89" height="25.98" transform="translate(-2.17 4.62) rotate(-3.42)"/><rect class="h" x="57.96" y="44.87" width="41.05" height="72.6" rx="9.14" ry="9.14" transform="translate(-4.7 4.83) rotate(-3.42)"/><ellipse class="g" cx="77.77" cy="66.2" rx="10.13" ry="11.34" transform="translate(-3.81 4.76) rotate(-3.42)"/></g><rect class="f" x="0" y="116.69" width="156.67" height="39.56" rx="19.78" ry="19.78"/><g><path class="e" d="M18.74,138.93c.06,1.03,.29,1.87,.7,2.51,.79,1.21,2.18,1.81,4.17,1.81,.89,0,1.7-.13,2.43-.4,1.42-.51,2.12-1.43,2.12-2.75,0-.99-.3-1.7-.9-2.12-.61-.41-1.56-.77-2.86-1.08l-2.39-.56c-1.56-.36-2.66-.76-3.31-1.2-1.12-.76-1.68-1.9-1.68-3.41,0-1.64,.55-2.98,1.65-4.03s2.66-1.57,4.68-1.57c1.86,0,3.43,.46,4.73,1.38s1.95,2.39,1.95,4.42h-2.32c-.12-.97-.37-1.72-.76-2.24-.72-.95-1.94-1.42-3.67-1.42-1.39,0-2.39,.31-3,.92-.61,.61-.92,1.32-.92,2.13,0,.89,.36,1.54,1.08,1.96,.47,.26,1.54,.59,3.2,.99l2.47,.58c1.19,.28,2.11,.67,2.76,1.15,1.12,.85,1.68,2.08,1.68,3.7,0,2.01-.71,3.46-2.14,4.32-1.43,.87-3.09,1.3-4.98,1.3-2.21,0-3.94-.58-5.18-1.73-1.25-1.15-1.86-2.71-1.84-4.67h2.32Z"/><path class="e" d="M36.62,131.53v8.81c0,.68,.11,1.23,.31,1.66,.39,.79,1.11,1.19,2.16,1.19,1.51,0,2.54-.69,3.09-2.08,.3-.74,.45-1.76,.45-3.06v-6.52h2.23v13.27h-2.11l.02-1.96c-.28,.5-.64,.93-1.06,1.28-.83,.69-1.85,1.04-3.04,1.04-1.86,0-3.12-.63-3.79-1.9-.36-.68-.55-1.58-.55-2.71v-9.02h2.28Z"/><path class="e" d="M49.13,131.53h2.12v1.88c.63-.78,1.29-1.33,1.99-1.67,.7-.34,1.48-.51,2.34-.51,1.88,0,3.15,.66,3.82,1.97,.36,.72,.54,1.75,.54,3.08v8.51h-2.27v-8.36c0-.81-.12-1.46-.36-1.96-.4-.83-1.12-1.24-2.16-1.24-.53,0-.96,.05-1.3,.16-.61,.18-1.15,.54-1.61,1.09-.37,.44-.61,.89-.72,1.36-.11,.47-.17,1.13-.17,2v6.95h-2.23v-13.27Z"/><path class="e" d="M80.32,132.24c.94,.73,1.5,1.98,1.69,3.75h-2.17c-.13-.82-.43-1.5-.9-2.04s-1.23-.81-2.27-.81c-1.42,0-2.44,.69-3.05,2.08-.4,.9-.59,2.01-.59,3.33s.28,2.45,.84,3.35c.56,.91,1.45,1.36,2.65,1.36,.92,0,1.66-.28,2.2-.84s.92-1.33,1.12-2.31h2.17c-.25,1.76-.87,3.04-1.86,3.86-.99,.81-2.26,1.22-3.8,1.22-1.73,0-3.12-.63-4.15-1.9s-1.55-2.85-1.55-4.75c0-2.33,.57-4.14,1.7-5.44,1.13-1.3,2.57-1.94,4.32-1.94,1.5,0,2.71,.36,3.65,1.09Z"/><path class="e" d="M84.94,131.53h2.12v2.29c.17-.45,.6-.99,1.28-1.63,.68-.64,1.46-.96,2.34-.96,.04,0,.11,0,.21,.01,.1,0,.27,.03,.51,.05v2.35c-.13-.02-.25-.04-.37-.05-.11,0-.23-.01-.37-.01-1.12,0-1.99,.36-2.59,1.08-.6,.72-.9,1.55-.9,2.5v7.63h-2.23v-13.27Z"/><path class="e" d="M102.15,131.9c.88,.44,1.55,1.01,2.01,1.72,.44,.67,.74,1.45,.89,2.34,.13,.61,.2,1.59,.2,2.92h-9.65c.04,1.35,.36,2.43,.95,3.25s1.5,1.22,2.74,1.22c1.16,0,2.08-.39,2.76-1.16,.39-.45,.66-.97,.82-1.56h2.19c-.06,.49-.25,1.03-.58,1.63s-.69,1.09-1.09,1.47c-.67,.66-1.5,1.11-2.5,1.34-.53,.13-1.14,.2-1.81,.2-1.64,0-3.03-.6-4.17-1.8-1.14-1.2-1.71-2.88-1.71-5.05s.58-3.86,1.72-5.19c1.15-1.33,2.65-1.99,4.51-1.99,.94,0,1.84,.22,2.72,.66Zm.8,5.21c-.09-.97-.3-1.74-.63-2.32-.61-1.07-1.62-1.61-3.03-1.61-1.02,0-1.87,.37-2.55,1.11-.69,.74-1.05,1.68-1.09,2.82h7.31Z"/><path class="e" d="M115.81,136.77c.51-.07,.85-.28,1.03-.64,.1-.2,.15-.48,.15-.86,0-.76-.27-1.32-.81-1.66-.54-.34-1.31-.52-2.32-.52-1.16,0-1.99,.32-2.47,.95-.27,.35-.45,.87-.53,1.56h-2.08c.04-1.64,.57-2.78,1.59-3.42s2.2-.96,3.54-.96c1.56,0,2.82,.3,3.8,.89,.97,.59,1.45,1.52,1.45,2.78v7.64c0,.23,.05,.42,.14,.56,.09,.14,.29,.21,.6,.21,.1,0,.21,0,.33-.02,.12-.01,.26-.03,.4-.05v1.65c-.35,.1-.61,.16-.79,.19-.18,.02-.43,.04-.74,.04-.77,0-1.33-.27-1.67-.82-.18-.29-.31-.7-.38-1.23-.45,.59-1.11,1.11-1.96,1.55-.85,.44-1.79,.66-2.81,.66-1.23,0-2.24-.37-3.02-1.12-.78-.75-1.17-1.68-1.17-2.8,0-1.23,.38-2.18,1.15-2.86,.77-.68,1.78-1.09,3.02-1.25l3.56-.45Zm-4.69,6.02c.47,.37,1.03,.56,1.67,.56,.78,0,1.54-.18,2.28-.54,1.24-.6,1.86-1.59,1.86-2.96v-1.79c-.27,.17-.62,.32-1.05,.43-.43,.12-.85,.2-1.26,.25l-1.35,.17c-.81,.11-1.42,.28-1.82,.51-.69,.39-1.04,1-1.04,1.85,0,.64,.24,1.15,.71,1.52Z"/><path class="e" d="M123.45,131.53h2.2v1.88c.53-.65,1.01-1.13,1.44-1.42,.73-.5,1.57-.75,2.5-.75,1.06,0,1.91,.26,2.55,.78,.36,.3,.69,.73,.99,1.31,.5-.71,1.08-1.24,1.75-1.58,.67-.34,1.42-.51,2.25-.51,1.78,0,3,.64,3.64,1.93,.35,.69,.52,1.63,.52,2.8v8.83h-2.32v-9.22c0-.88-.22-1.49-.66-1.82-.44-.33-.98-.5-1.62-.5-.88,0-1.63,.29-2.26,.88-.63,.59-.95,1.57-.95,2.94v7.72h-2.27v-8.66c0-.9-.11-1.56-.32-1.97-.34-.62-.97-.93-1.9-.93-.84,0-1.61,.33-2.3,.98-.69,.65-1.03,1.83-1.03,3.54v7.04h-2.23v-13.27Z"/></g></g></g></g></svg>