<?xml version="1.0" encoding="UTF-8"?><svg xmlns="http://www.w3.org/2000/svg" viewBox="0 0 162.92 153.01"><defs><style>.d{stroke:#fff;stroke-miterlimit:10;stroke-width:5px;}.d,.e{fill:#19192d;}.f{fill:#f7f7f7;}.g{fill:gray;}.h{fill:#54b5b1;}</style></defs><g id="a"/><g id="b"><g id="c"><g><circle class="d" cx="83.46" cy="72.59" r="70.09"/><circle class="h" cx="83.46" cy="72.59" r="59.2"/><rect class="f" x="0" y="113.46" width="162.92" height="39.56" rx="19.78" ry="19.78"/><g><path class="e" d="M21.96,141.9c-1.66,0-3.07-.39-4.25-1.17-1.18-.78-2-1.84-2.47-3.2l2.03-1.17c.69,2.15,2.27,3.22,4.74,3.22,1.22,0,2.15-.25,2.79-.75,.64-.5,.96-1.16,.96-1.99s-.32-1.48-.96-1.9c-.64-.42-1.72-.87-3.22-1.34-.74-.25-1.3-.45-1.69-.58-.39-.13-.88-.35-1.46-.65-.58-.29-1.02-.6-1.31-.91s-.54-.72-.77-1.23c-.23-.51-.34-1.08-.34-1.73,0-1.54,.54-2.76,1.62-3.66,1.08-.91,2.4-1.36,3.96-1.36,1.4,0,2.63,.36,3.67,1.06,1.04,.71,1.82,1.65,2.35,2.82l-1.98,1.14c-.76-1.83-2.11-2.74-4.03-2.74-.96,0-1.74,.24-2.33,.71s-.89,1.12-.89,1.93,.28,1.37,.84,1.77c.56,.41,1.52,.83,2.89,1.27,.48,.17,.82,.29,1.03,.37,.21,.07,.53,.19,.96,.34,.43,.15,.75,.28,.95,.38s.48,.25,.82,.43c.35,.19,.6,.37,.77,.53,.17,.17,.37,.38,.6,.62,.23,.25,.39,.5,.49,.75,.1,.25,.19,.55,.27,.88s.11,.68,.11,1.05c0,1.56-.57,2.79-1.7,3.72s-2.61,1.38-4.44,1.38Z"/><path class="e" d="M40.05,128.88h2.21v12.69h-2.21v-1.83c-.9,1.44-2.27,2.16-4.11,2.16-1.49,0-2.68-.47-3.58-1.41-.9-.94-1.34-2.21-1.34-3.82v-7.79h2.21v7.66c0,1.03,.28,1.83,.84,2.4,.56,.57,1.33,.85,2.31,.85,1.1,0,1.99-.34,2.66-1.03,.68-.68,1.01-1.74,1.01-3.16v-6.72Z"/><path class="e" d="M52.56,128.55c1.49,0,2.68,.47,3.58,1.41,.9,.94,1.34,2.21,1.34,3.82v7.79h-2.21v-7.66c0-1.03-.28-1.83-.84-2.4s-1.33-.85-2.31-.85c-1.1,0-1.99,.34-2.66,1.03-.68,.68-1.01,1.74-1.01,3.16v6.72h-2.21v-12.69h2.21v1.83c.9-1.44,2.27-2.16,4.11-2.16Z"/><path class="e" d="M71.71,128.88h2.18v12.15c0,1.88-.63,3.34-1.9,4.38-1.27,1.04-2.79,1.56-4.57,1.56-1.42,0-2.65-.27-3.68-.8-1.03-.53-1.81-1.3-2.33-2.29l1.93-1.09c.69,1.42,2.07,2.13,4.14,2.13,1.32,0,2.35-.35,3.11-1.04,.75-.69,1.13-1.64,1.13-2.84v-1.8c-1.12,1.69-2.71,2.54-4.77,2.54-1.81,0-3.34-.64-4.59-1.93s-1.88-2.85-1.88-4.69,.62-3.4,1.88-4.68,2.78-1.92,4.59-1.92c2.08,0,3.67,.84,4.77,2.51v-2.18Zm-7.74,9.49c.86,.86,1.94,1.29,3.22,1.29s2.36-.43,3.22-1.29c.86-.86,1.29-1.94,1.29-3.22s-.43-2.33-1.29-3.2-1.94-1.29-3.22-1.29-2.36,.43-3.22,1.29c-.86,.86-1.29,1.93-1.29,3.2s.43,2.36,1.29,3.22Z"/><path class="e" d="M77.87,141.57v-18.52h2.21v18.52h-2.21Z"/><path class="e" d="M94.59,128.88h2.21v12.69h-2.21v-2.18c-1.1,1.67-2.7,2.51-4.79,2.51-1.78,0-3.29-.65-4.54-1.94-1.25-1.29-1.88-2.87-1.88-4.73s.63-3.44,1.88-4.73c1.25-1.29,2.76-1.94,4.54-1.94,2.1,0,3.7,.84,4.79,2.51v-2.18Zm-4.52,10.88c1.28,0,2.36-.44,3.22-1.31,.86-.87,1.29-1.95,1.29-3.23s-.43-2.36-1.29-3.24c-.86-.87-1.94-1.3-3.22-1.3s-2.33,.44-3.2,1.3c-.86,.87-1.29,1.95-1.29,3.24s.43,2.36,1.29,3.23c.86,.87,1.93,1.31,3.2,1.31Z"/><path class="e" d="M102.66,132.27c0,.48,.25,.86,.75,1.15s1.09,.54,1.78,.74c.69,.2,1.38,.41,2.08,.61,.7,.2,1.29,.59,1.77,1.15s.73,1.29,.73,2.17c0,1.15-.44,2.07-1.33,2.77-.89,.69-2.03,1.04-3.41,1.04-1.23,0-2.29-.27-3.17-.81-.88-.54-1.5-1.26-1.88-2.16l1.9-1.09c.2,.61,.58,1.09,1.14,1.45,.56,.36,1.23,.53,2,.53,.73,0,1.33-.14,1.8-.42,.47-.28,.71-.71,.71-1.3,0-.49-.25-.88-.74-1.18-.49-.3-1.08-.55-1.77-.75-.69-.21-1.38-.42-2.08-.62-.7-.21-1.29-.58-1.78-1.12s-.74-1.23-.74-2.08c0-1.1,.43-2,1.28-2.71,.85-.71,1.92-1.07,3.21-1.07,1.03,0,1.95,.23,2.75,.7,.8,.46,1.41,1.11,1.81,1.94l-1.85,1.04c-.46-1.08-1.36-1.62-2.71-1.62-.63,0-1.16,.14-1.6,.43-.44,.29-.66,.7-.66,1.23Z"/><path class="e" d="M114.13,132.27c0,.48,.25,.86,.75,1.15s1.09,.54,1.78,.74c.69,.2,1.38,.41,2.08,.61,.7,.2,1.29,.59,1.77,1.15s.73,1.29,.73,2.17c0,1.15-.44,2.07-1.33,2.77-.89,.69-2.03,1.04-3.41,1.04-1.23,0-2.29-.27-3.17-.81-.88-.54-1.5-1.26-1.88-2.16l1.9-1.09c.2,.61,.58,1.09,1.14,1.45,.56,.36,1.23,.53,2,.53,.73,0,1.33-.14,1.8-.42,.47-.28,.71-.71,.71-1.3,0-.49-.25-.88-.74-1.18-.49-.3-1.08-.55-1.77-.75-.69-.21-1.38-.42-2.08-.62-.7-.21-1.29-.58-1.78-1.12s-.74-1.23-.74-2.08c0-1.1,.43-2,1.28-2.71,.85-.71,1.92-1.07,3.21-1.07,1.03,0,1.95,.23,2.75,.7,.8,.46,1.41,1.11,1.81,1.94l-1.85,1.04c-.46-1.08-1.36-1.62-2.71-1.62-.63,0-1.16,.14-1.6,.43-.44,.29-.66,.7-.66,1.23Z"/><path class="e" d="M125.67,136.24c.22,1.13,.74,2.01,1.56,2.64s1.83,.94,3.03,.94c1.67,0,2.89-.62,3.65-1.85l1.88,1.07c-1.24,1.91-3.1,2.87-5.58,2.87-2.01,0-3.65-.63-4.91-1.89-1.26-1.26-1.89-2.85-1.89-4.78s.62-3.5,1.85-4.77c1.23-1.27,2.83-1.9,4.79-1.9,1.86,0,3.38,.66,4.55,1.97,1.17,1.31,1.76,2.89,1.76,4.73,0,.32-.03,.65-.08,.99h-10.63Zm4.39-5.61c-1.18,0-2.16,.33-2.94,1s-1.26,1.56-1.45,2.68h8.47c-.19-1.2-.66-2.11-1.42-2.74-.76-.62-1.65-.94-2.66-.94Z"/><path class="e" d="M140.94,132.27c0,.48,.25,.86,.75,1.15s1.09,.54,1.78,.74c.69,.2,1.38,.41,2.08,.61,.7,.2,1.29,.59,1.77,1.15,.48,.56,.72,1.29,.72,2.17,0,1.15-.44,2.07-1.33,2.77s-2.03,1.04-3.41,1.04c-1.24,0-2.29-.27-3.17-.81-.88-.54-1.51-1.26-1.88-2.16l1.9-1.09c.2,.61,.58,1.09,1.14,1.45,.56,.36,1.23,.53,2,.53,.73,0,1.33-.14,1.8-.42,.47-.28,.71-.71,.71-1.3,0-.49-.25-.88-.74-1.18-.49-.3-1.08-.55-1.77-.75-.69-.21-1.38-.42-2.08-.62s-1.29-.58-1.78-1.12-.74-1.23-.74-2.08c0-1.1,.43-2,1.28-2.71,.85-.71,1.92-1.07,3.21-1.07,1.03,0,1.95,.23,2.75,.7,.8,.46,1.41,1.11,1.81,1.94l-1.85,1.04c-.46-1.08-1.36-1.62-2.71-1.62-.63,0-1.16,.14-1.6,.43s-.66,.7-.66,1.23Z"/></g><g><path class="g" d="M32.77,71.53l96.69-25.58s4.91,21.78,1.48,28.31c-2.79,5.31-24.53,12.84-32.59,9.08-7.07-3.29-13.74-19.14-13.74-19.14l-5.3,1.4s1.52,17.01-.91,22.57c-2.43,5.56-25.8,12.81-32.99,8.73-7.2-4.08-12.64-25.37-12.64-25.37Z"/><path d="M37.22,73.92l38.47-9.83s2.22,16.62-.74,22.34c-2.96,5.72-22.66,11.5-28.53,7.09-5.87-4.41-9.2-19.6-9.2-19.6Z"/><path d="M125.98,50.44l-38.3,10.48s6.29,15.55,11.69,19.05c5.4,3.5,25.38-1.21,28.3-7.95,2.92-6.74-1.69-21.58-1.69-21.58Z"/></g></g></g></g></svg>