<?xml version="1.0" encoding="UTF-8"?><svg xmlns="http://www.w3.org/2000/svg" viewBox="0 0 162.92 153.01"><defs><style>.d{letter-spacing:.02em;}.e{stroke:#fff;stroke-miterlimit:10;stroke-width:5px;}.e,.f{fill:#19192d;}.g{letter-spacing:.03em;}.h{letter-spacing:0em;}.i{letter-spacing:.01em;}.j{fill:#f7f7f7;}.k{fill:gray;}.l{fill:#54b5b1;}.m{letter-spacing:0em;}.f{font-family:Gilroy-Medium, Gilroy-Medium;font-size:25.37px;}</style></defs><g id="a"/><g id="b"><g id="c"><g><circle class="e" cx="83.46" cy="72.59" r="70.09"/><circle class="l" cx="83.46" cy="72.59" r="59.2"/><rect class="j" x="0" y="113.46" width="162.92" height="39.56" rx="19.78" ry="19.78"/><text class="f" transform="translate(14.33 141.57)"><tspan class="g" x="0" y="0">Sungl</tspan><tspan class="d" x="68.09" y="0">a</tspan><tspan class="h" x="84.76" y="0">s</tspan><tspan class="i" x="96.22" y="0">s</tspan><tspan class="m" x="108.12" y="0">e</tspan><tspan class="g" x="123.04" y="0">s</tspan></text><g><path class="k" d="M32.77,71.53l96.69-25.58s4.91,21.78,1.48,28.31c-2.79,5.31-24.53,12.84-32.59,9.08-7.07-3.29-13.74-19.14-13.74-19.14l-5.3,1.4s1.52,17.01-.91,22.57c-2.43,5.56-25.8,12.81-32.99,8.73-7.2-4.08-12.64-25.37-12.64-25.37Z"/><path d="M37.22,73.92l38.47-9.83s2.22,16.62-.74,22.34c-2.96,5.72-22.66,11.5-28.53,7.09-5.87-4.41-9.2-19.6-9.2-19.6Z"/><path d="M125.98,50.44l-38.3,10.48s6.29,15.55,11.69,19.05c5.4,3.5,25.38-1.21,28.3-7.95,2.92-6.74-1.69-21.58-1.69-21.58Z"/></g></g></g></g></svg>