<?xml version="1.0" encoding="utf-8"?>
<!-- Generator: Adobe Illustrator 26.3.1, SVG Export Plug-In . SVG Version: 6.00 Build 0)  -->
<svg version="1.1" id="Layer_1" xmlns="http://www.w3.org/2000/svg" xmlns:xlink="http://www.w3.org/1999/xlink" x="0px" y="0px"
	 viewBox="0 0 277.2 114" style="enable-background:new 0 0 277.2 114;" xml:space="preserve">
<style type="text/css">
	.st0{fill:#E9A72D;}
	.st1{opacity:0.2;}
	.st2{fill:#FBEDD5;}
	.st3{enable-background:new    ;}
	.st4{fill:#19192D;}
</style>
<g id="a">
</g>
<g id="b">
	<g id="c">
		<g>
			<path class="st0" d="M58.8,27.3h161.1c16.4,0,29.7,13.3,29.7,29.7l0,0c0,16.4-13.3,29.7-29.7,29.7H58.8C42.3,86.7,29,73.4,29,57
				l0,0C29,40.6,42.3,27.3,58.8,27.3z"/>
			<g class="st1">
				<path class="st2" d="M220.2,17c22.1,0,40,17.9,40,40l0,0c0,22.1-17.9,40-40,40H57c-22.1,0-40-17.9-40-40l0,0
					c0-22.1,17.9-40,40-40H220.2 M220.2,0H57C25.6,0,0,25.6,0,57s25.6,57,57,57h163.2c31.4,0,57-25.6,57-57S251.6,0,220.2,0L220.2,0
					z"/>
			</g>
			<g class="st3">
				<path class="st4" d="M76.1,71.2c-2.6,0-4.9-0.6-6.7-1.8c-1.8-1.2-3.1-2.8-3.8-4.8l4.5-2.6c1,2.7,3.1,4.1,6.2,4.1
					c1.5,0,2.6-0.3,3.2-0.8c0.7-0.5,1-1.2,1-2c0-0.9-0.4-1.7-1.3-2.2c-0.8-0.5-2.3-1.1-4.5-1.7c-1.2-0.4-2.2-0.7-3-1.1
					c-0.8-0.4-1.7-0.8-2.5-1.4c-0.8-0.6-1.5-1.4-1.9-2.3c-0.4-0.9-0.6-2-0.6-3.2c0-2.4,0.9-4.3,2.6-5.8c1.7-1.4,3.8-2.2,6.2-2.2
					c2.2,0,4.1,0.5,5.7,1.6s2.9,2.5,3.8,4.4L80.6,52c-1.1-2.3-2.8-3.4-5.1-3.4c-1.1,0-2,0.2-2.6,0.7c-0.6,0.5-0.9,1.1-0.9,1.9
					c0,0.8,0.3,1.5,1.1,2c0.7,0.5,2,1.1,4,1.7c0.8,0.3,1.4,0.5,1.9,0.6c0.4,0.1,1,0.4,1.7,0.6c0.7,0.3,1.3,0.6,1.7,0.8
					c0.4,0.3,0.8,0.6,1.4,1c0.5,0.4,0.9,0.9,1.2,1.3c0.3,0.5,0.5,1,0.7,1.7s0.3,1.4,0.3,2.1c0,2.5-0.9,4.4-2.7,5.9
					C81.3,70.5,79,71.2,76.1,71.2z"/>
			</g>
			<g class="st3">
				<path class="st4" d="M98.2,65.6h11.3v5H92.9V43.9h16.3v5H98.2v5.7h10.1v5H98.2V65.6z"/>
				<path class="st4" d="M122.2,65.6h10.2v5H117V43.9h5.3V65.6z"/>
			</g>
			<g class="st3">
				<path class="st4" d="M144.5,65.6h11.3v5h-16.5V43.9h16.3v5h-11.1v5.7h10.1v5h-10.1V65.6z"/>
			</g>
			<g class="st3">
				<path class="st4" d="M175.8,71.2c-4,0-7.3-1.3-10-4c-2.6-2.7-3.9-6-3.9-9.9c0-3.9,1.3-7.3,3.9-9.9c2.6-2.7,5.9-4,10-4
					c2.4,0,4.7,0.6,6.7,1.7c2,1.1,3.6,2.7,4.8,4.6l-4.5,2.6c-0.7-1.2-1.6-2.1-2.8-2.8c-1.2-0.7-2.6-1-4.1-1c-2.6,0-4.7,0.8-6.3,2.4
					s-2.4,3.7-2.4,6.3c0,2.6,0.8,4.7,2.4,6.3c1.6,1.6,3.7,2.4,6.3,2.4c1.5,0,2.9-0.3,4.1-1c1.2-0.7,2.2-1.6,2.8-2.8l4.5,2.6
					c-1.1,1.9-2.7,3.5-4.8,4.6C180.5,70.6,178.2,71.2,175.8,71.2z"/>
			</g>
			<g class="st3">
				<path class="st4" d="M211.9,43.9v5h-7.2v21.7h-5.3V49h-7.2v-5H211.9z"/>
			</g>
		</g>
	</g>
</g>
</svg>
