<?xml version="1.0" encoding="UTF-8"?><svg xmlns="http://www.w3.org/2000/svg" viewBox="0 0 833.72 833.72"><defs><style>.d{fill:#fbedd5;opacity:.1;}.e{fill:#19192d;}.f{fill:#54b5b1;}.g{fill:none;stroke:#fff;stroke-miterlimit:10;}</style></defs><g id="a"/><g id="b"><g id="c"><circle class="g" cx="416.86" cy="416.86" r="416.36"/><circle class="g" cx="416.86" cy="416.86" r="219.63"/><path class="d" d="M419.44,205.91l-.16-164.36c-22.47,.09-44.61,2.16-66.23,6.08l28.99,162.97c12.19-2.62,24.69-4.2,37.41-4.68Z"/><path class="d" d="M382.03,210.59l-28.99-162.97c-21.98,3.98-43.4,9.86-64.08,17.49l57.28,156.45c11.53-4.65,23.5-8.34,35.79-10.98Z"/><path class="d" d="M206.55,379.78l-160.31-28.27c-3.84,21.25-5.88,43.12-6,65.45H201.86c.49-12.71,2.08-25.13,4.69-37.18Z"/><path class="d" d="M217.53,344.21l-154.01-56.06c-7.53,20.35-13.35,41.52-17.29,63.35l160.31,28.27c2.65-12.28,6.35-24.17,10.99-35.57Z"/><path class="d" d="M234.38,311.29L91.59,228.85c-10.99,18.8-20.41,38.62-28.06,59.31l154.01,56.06c4.68-11.5,10.34-22.51,16.85-32.92Z"/><path class="d" d="M256.45,281.9l-126.98-106.55c-14.11,16.66-26.8,34.55-37.88,53.5l142.8,82.44c6.52-10.43,13.91-20.26,22.06-29.39Z"/><path class="d" d="M346.37,221.78l-57.35-157.57c-20.69,7.49-40.54,16.72-59.37,27.55l83.61,144.81c10.53-5.82,21.6-10.78,33.11-14.79Z"/><path class="d" d="M313.26,236.57L229.65,91.76c-19.01,10.93-36.96,23.48-53.7,37.45l107.05,127.58c9.47-7.55,19.59-14.32,30.26-20.21Z"/><path class="d" d="M283,256.78l-107.05-127.58c-16.8,14.01-32.35,29.46-46.48,46.15l126.98,106.55c8.12-9.1,17.01-17.51,26.55-25.12Z"/><path class="d" d="M419.44,205.91l-.16-164.36c-22.47,.09-44.61,2.16-66.23,6.08l28.99,162.97c12.19-2.62,24.69-4.2,37.41-4.68Z"/><path class="d" d="M382.03,210.59l-28.99-162.97c-21.98,3.98-43.4,9.86-64.08,17.49l57.28,156.45c11.53-4.65,23.5-8.34,35.79-10.98Z"/><path class="d" d="M206.55,379.78l-160.31-28.27c-3.84,21.25-5.88,43.12-6,65.45H201.86c.49-12.71,2.08-25.13,4.69-37.18Z"/><path class="d" d="M217.53,344.21l-154.01-56.06c-7.53,20.35-13.35,41.52-17.29,63.35l160.31,28.27c2.65-12.28,6.35-24.17,10.99-35.57Z"/><path class="d" d="M234.38,311.29L91.59,228.85c-10.99,18.8-20.41,38.62-28.06,59.31l154.01,56.06c4.68-11.5,10.34-22.51,16.85-32.92Z"/><path class="d" d="M256.45,281.9l-126.98-106.55c-14.11,16.66-26.8,34.55-37.88,53.5l142.8,82.44c6.52-10.43,13.91-20.26,22.06-29.39Z"/><path class="d" d="M346.37,221.78l-57.35-157.57c-20.69,7.49-40.54,16.72-59.37,27.55l83.61,144.81c10.53-5.82,21.6-10.78,33.11-14.79Z"/><path class="d" d="M313.26,236.57L229.65,91.76c-19.01,10.93-36.96,23.48-53.7,37.45l107.05,127.58c9.47-7.55,19.59-14.32,30.26-20.21Z"/><path class="d" d="M283,256.78l-107.05-127.58c-16.8,14.01-32.35,29.46-46.48,46.15l126.98,106.55c8.12-9.1,17.01-17.51,26.55-25.12Z"/><path class="d" d="M419.5,205.91l.16-164.36c22.47,.09,44.61,2.16,66.23,6.08l-28.99,162.97c-12.19-2.62-24.69-4.2-37.41-4.68Z"/><path class="d" d="M456.91,210.59l28.99-162.97c21.98,3.98,43.4,9.86,64.08,17.49l-57.28,156.45c-11.53-4.65-23.5-8.34-35.79-10.98Z"/><path class="d" d="M632.39,379.78l160.31-28.27c3.84,21.25,5.88,43.12,6,65.45h-161.63c-.49-12.71-2.08-25.13-4.69-37.18Z"/><path class="d" d="M621.4,344.21l154.01-56.06c7.53,20.35,13.35,41.52,17.29,63.35l-160.31,28.27c-2.65-12.28-6.35-24.17-10.99-35.57Z"/><path class="d" d="M604.55,311.29l142.8-82.44c10.99,18.8,20.41,38.62,28.06,59.31l-154.01,56.06c-4.68-11.5-10.34-22.51-16.85-32.92Z"/><path class="d" d="M582.49,281.9l126.98-106.55c14.11,16.66,26.8,34.55,37.88,53.5l-142.8,82.44c-6.52-10.43-13.91-20.26-22.06-29.39Z"/><path class="d" d="M492.57,221.78l57.35-157.57c20.69,7.49,40.54,16.72,59.37,27.55l-83.61,144.81c-10.53-5.82-21.6-10.78-33.11-14.79Z"/><path class="d" d="M525.68,236.57l83.61-144.81c19.01,10.93,36.96,23.48,53.7,37.45l-107.05,127.58c-9.47-7.55-19.59-14.32-30.26-20.21Z"/><path class="d" d="M555.94,256.78l107.05-127.58c16.8,14.01,32.35,29.46,46.48,46.15l-126.98,106.55c-8.12-9.1-17.01-17.51-26.55-25.12Z"/><path class="d" d="M634.45,416.61l164.36,.16c-.09,22.47-2.16,44.61-6.08,66.23l-162.97-28.99c2.62-12.19,4.2-24.69,4.68-37.41Z"/><path class="d" d="M629.76,454.02l162.97,28.99c-3.98,21.98-9.86,43.4-17.49,64.08l-156.45-57.28c4.65-11.53,8.34-23.5,10.98-35.79Z"/><path class="d" d="M496.14,618.52l56.06,154.01c-20.35,7.53-41.52,13.35-63.35,17.29l-28.27-160.31c12.28-2.65,24.17-6.35,35.57-10.99Z"/><path class="d" d="M529.06,601.67l82.44,142.8c-18.8,10.99-38.62,20.41-59.31,28.06l-56.06-154.01c11.5-4.68,22.51-10.34,32.92-16.85Z"/><path class="d" d="M558.45,579.6l106.55,126.98c-16.66,14.11-34.55,26.8-53.5,37.88l-82.44-142.8c10.43-6.52,20.26-13.91,29.39-22.06Z"/><path class="d" d="M618.57,489.68l157.57,57.35c-7.49,20.69-16.72,40.54-27.55,59.37l-144.81-83.61c5.82-10.53,10.78-21.6,14.79-33.11Z"/><path class="d" d="M603.78,522.79l144.81,83.61c-10.93,19.01-23.48,36.96-37.45,53.7l-127.58-107.05c7.55-9.47,14.32-19.59,20.21-30.26Z"/><path class="d" d="M583.57,553.05l127.58,107.05c-14.01,16.8-29.46,32.35-46.15,46.48l-106.55-126.98c9.1-8.12,17.51-17.01,25.12-26.55Z"/><path class="e" d="M94.45,380.15l-7.06,1.81-1.38,15.61,6.64,2.88-.72,8.09-36.83-16.67,.82-9.28,39.19-10.04-.67,7.6Zm-15.22,14.36l.95-10.7-16.01,4.11,15.07,6.59Z"/><path class="e" d="M87.09,319.44c2.73-2.72,5.98-3.58,9.73-2.56,3.12,.85,5.38,2.65,6.78,5.4,1.4,2.75,1.66,5.74,.79,8.97l-4.24,15.62-36.82-9.99,3.94-14.52c.86-3.16,2.55-5.55,5.08-7.18,2.53-1.63,5.31-2.03,8.32-1.22,3.05,.83,5.19,2.65,6.42,5.47Zm-13.04,4.76l-1.97,7.26,8.1,2.2,1.97-7.26c.3-1.12,.17-2.16-.39-3.13-.57-.96-1.43-1.6-2.59-1.92-1.16-.31-2.22-.21-3.19,.32-.97,.53-1.61,1.37-1.93,2.53Zm23.55,5.2c.33-1.23,.2-2.36-.41-3.39-.6-1.03-1.54-1.72-2.8-2.06-1.23-.33-2.36-.21-3.41,.38-1.04,.58-1.73,1.49-2.06,2.72l-2.27,8.36,8.68,2.36,2.27-8.36Z"/><path class="e" d="M125.45,278.16c-2.49,5.18-6.26,8.62-11.32,10.35-5.06,1.72-10.11,1.37-15.16-1.05-5.08-2.44-8.52-6.17-10.32-11.18-1.8-5.02-1.46-10.11,1.02-15.29,1.49-3.11,3.6-5.63,6.33-7.57,2.72-1.94,5.68-3.05,8.88-3.32l.58,7.48c-1.95,.11-3.73,.75-5.36,1.9-1.62,1.16-2.91,2.72-3.85,4.68-1.6,3.34-1.85,6.54-.74,9.59,1.11,3.05,3.34,5.38,6.68,6.99,3.31,1.59,6.5,1.86,9.58,.82,3.08-1.04,5.42-3.23,7.03-6.57,.94-1.97,1.36-3.95,1.26-5.96-.1-2-.71-3.78-1.83-5.32l6.2-4.22c1.78,2.67,2.77,5.67,2.97,8.99,.2,3.32-.46,6.55-1.97,9.7Z"/><path class="e" d="M124.33,205.18c3.11-4.21,7.19-6.63,12.22-7.26,5.04-.64,9.72,.65,14.04,3.84,4.32,3.2,6.92,7.3,7.78,12.3,.87,5-.26,9.61-3.37,13.81l-9.01,12.18-30.67-22.69,9.01-12.18Zm24.89,18.41c1.97-2.66,2.68-5.47,2.15-8.45-.54-2.97-2.22-5.51-5.05-7.6-2.83-2.1-5.75-2.96-8.75-2.61-3,.36-5.48,1.87-7.45,4.52l-4.54,6.14,19.1,14.13,4.54-6.14Z"/><path class="e" d="M178.32,182.22l11.65-11.08,4.96,5.21-17.1,16.27-26.3-27.65,16.9-16.08,4.96,5.21-11.45,10.89,5.6,5.88,10.47-9.95,4.88,5.13-10.47,9.96,5.9,6.2Z"/><path class="e" d="M224.88,118.22l-12.57,8.66,5.13,7.45,12.21-8.41,4.08,5.93-12.21,8.41,8.35,12.12-6.2,4.27-21.64-31.43,18.77-12.92,4.08,5.93Z"/><path class="e" d="M292.25,97.74l1.21,2.68c2.24,4.97,2.46,9.71,.67,14.22-1.79,4.51-5.2,7.91-10.24,10.18-5.37,2.42-10.6,2.68-15.7,.77-5.1-1.9-8.79-5.37-11.06-10.41-2.28-5.07-2.47-10.14-.56-15.23,1.91-5.09,5.45-8.8,10.62-11.13,3.25-1.46,6.54-2.06,9.89-1.8,3.35,.27,6.32,1.29,8.92,3.07l-4.34,6.02c-1.47-1.05-3.24-1.65-5.32-1.79-2.08-.14-4.14,.25-6.19,1.18-3.31,1.49-5.55,3.81-6.71,6.94-1.16,3.13-.99,6.36,.5,9.67,1.48,3.28,3.78,5.5,6.92,6.66,3.13,1.16,6.49,.93,10.07-.68,2.65-1.19,4.58-2.77,5.79-4.73,1.21-1.96,1.66-4.11,1.37-6.45l-10.53,4.75-2.73-6.06,17.44-7.86Z"/><path class="e" d="M332.74,65.81l7.27-1.71,8.74,37.14-7.27,1.71-3.62-15.39-13.79,3.25,3.62,15.39-7.32,1.72-8.74-37.14,7.32-1.72,3.47,14.75,13.79-3.25-3.47-14.75Z"/><path class="e" d="M381.82,59.43l7.5-.61,3.11,38.03-7.5,.61-3.12-38.03Z"/><path class="e" d="M441.16,97.29c-5.99-.34-10.04-2.99-12.16-7.95l6.68-3.34c1.06,2.46,3.03,3.78,5.89,3.94,2,.11,3.51-.28,4.54-1.16,1.03-.89,1.6-2.15,1.69-3.78l1.48-26.23,7.46,.42-1.48,26.23c-.23,3.99-1.65,7.02-4.28,9.09-2.63,2.07-5.9,3-9.82,2.78Z"/><path class="e" d="M516.26,108.89l-8.45-1.93-9.3-20.46-3.99,17.42-7.33-1.68,8.51-37.19,7.33,1.68-3.75,16.39,16.5-13.47,8.45,1.93-17.89,14.92,9.92,22.4Z"/><path class="e" d="M553.52,116.58l13.47,5.51-2.72,6.66-20.43-8.36,14.45-35.31,6.96,2.85-11.72,28.65Z"/><path class="e" d="M640.96,135.17l-23.83,29.8-5.83-4.66,15.45-19.33-19.46,7.11-.7-.52,2.65-20.46-15.39,19.26-5.87-4.7,23.83-29.8,6.04,4.83-2.7,20.9,19.75-7.27,6.07,4.85Z"/><path class="e" d="M676.66,168.5l5.44,5.19-26.33,27.61-4.14-3.95,4.26-28.17-16.1,16.88-5.44-5.19,26.33-27.61,4.14,3.94-4.2,28.11,16.04-16.82Z"/><path class="e" d="M691.34,245.43c-5.36-.92-9.63-3.63-12.83-8.13-3.2-4.5-4.35-9.43-3.44-14.77,.9-5.35,3.62-9.63,8.15-12.85,4.53-3.22,9.47-4.38,14.82-3.47,5.35,.91,9.62,3.61,12.82,8.11,3.2,4.5,4.35,9.43,3.46,14.79-.9,5.36-3.61,9.65-8.14,12.87-4.53,3.22-9.48,4.37-14.83,3.45Zm-9.05-21.58c-.54,3.28,.2,6.34,2.22,9.19,2.02,2.84,4.67,4.55,7.95,5.12,3.28,.57,6.4-.2,9.36-2.3,2.96-2.11,4.72-4.81,5.28-8.1,.56-3.29-.17-6.36-2.19-9.21-2.02-2.84-4.68-4.54-7.97-5.1-3.29-.56-6.42,.22-9.38,2.32-2.96,2.1-4.72,4.8-5.26,8.08Z"/><path class="e" d="M753.47,349.1c-4.79,1.2-9.33,.73-13.61-1.41l-3.02,4.8-5.9-4.03,3.19-5.07c-2.32-2.45-3.9-5.35-4.74-8.7-1.34-5.32-.61-10.32,2.17-14.99,2.78-4.67,6.87-7.68,12.26-9.03,5.39-1.35,10.42-.63,15.07,2.17,4.66,2.8,7.65,6.87,8.99,12.19,1.34,5.32,.61,10.33-2.16,15.01-2.78,4.69-6.86,7.71-12.25,9.06Zm-16.93-16.19c.35,1.38,.91,2.7,1.69,3.97l4.85-7.7,5.9,4.03-5.14,8.17c2.49,.97,5.09,1.12,7.8,.44,3.52-.88,6.14-2.76,7.86-5.63,1.72-2.87,2.15-5.99,1.3-9.37-.85-3.38-2.71-5.93-5.57-7.65-2.87-1.72-6.06-2.13-9.59-1.25-3.49,.88-6.09,2.75-7.81,5.62-1.72,2.87-2.15,6-1.3,9.39Z"/><path class="e" d="M740.31,398.57l12.53-8.83-.49-5.67-13.19,1.14-.65-7.49,38.01-3.29,1.32,15.2c.31,3.51-.67,6.6-2.92,9.28-2.25,2.67-5.11,4.16-8.59,4.46-2.35,.2-4.59-.28-6.72-1.44-2.13-1.17-3.79-2.81-4.99-4.93l-13.61,9.65-.7-8.09Zm29.85-16.04l-11.24,.97,.67,7.71c.12,1.41,.78,2.58,1.97,3.5,1.19,.92,2.57,1.31,4.12,1.17,1.56-.13,2.83-.75,3.83-1.86,1-1.11,1.44-2.37,1.31-3.78l-.67-7.71Z"/><path class="e" d="M738.63,447.54c.41-3.76,1.6-6.82,3.56-9.21,1.96-2.38,4.44-3.94,7.45-4.67l3.04,6.8c-4.03,1.06-6.28,3.75-6.75,8.09-.23,2.09-.02,3.67,.63,4.73,.65,1.06,1.56,1.65,2.71,1.78,1.34,.15,2.44-.34,3.31-1.45,.87-1.11,1.91-3.15,3.11-6.13,.69-1.64,1.36-3.02,1.99-4.14,.63-1.12,1.44-2.22,2.42-3.3,.98-1.08,2.15-1.86,3.52-2.33s2.92-.61,4.65-.42c3.43,.38,6.03,1.9,7.81,4.56,1.77,2.66,2.47,5.71,2.1,9.14-.34,3.07-1.38,5.69-3.14,7.85-1.76,2.17-4.04,3.75-6.86,4.76l-2.94-6.68c3.42-1.16,5.31-3.4,5.67-6.72,.17-1.55-.05-2.81-.66-3.77-.61-.96-1.47-1.5-2.59-1.63-1.19-.13-2.21,.26-3.06,1.17-.85,.91-1.86,2.73-3.04,5.45-.49,1.12-.86,1.96-1.13,2.54-.26,.57-.66,1.35-1.19,2.34-.53,.98-1,1.74-1.43,2.26-.42,.52-.98,1.11-1.67,1.76-.69,.65-1.38,1.14-2.08,1.44-.69,.31-1.51,.55-2.46,.72-.95,.17-1.97,.2-3.05,.08-3.5-.38-6.15-1.96-7.93-4.74-1.78-2.77-2.44-6.2-2-10.28Z"/><path class="e" d="M760.04,525.39l-6.93-1.92,2.75-9.93-29.84-8.25,2-7.25,29.84,8.25,2.73-9.88,6.94,1.92-7.48,27.06Z"/><path class="e" d="M707.23,556.84c1.82-3.85,4.39-6.49,7.72-7.93,3.33-1.44,6.82-1.3,10.47,.42l23.22,10.96-3.19,6.75-22.67-10.7c-1.81-.85-3.48-1.01-5.02-.47-1.54,.54-2.83,1.91-3.87,4.11-1.04,2.2-1.28,4.07-.71,5.6,.56,1.53,1.75,2.72,3.55,3.58l22.67,10.7-3.21,6.8-23.22-10.96c-3.65-1.72-5.97-4.33-6.98-7.82-1.01-3.49-.59-7.17,1.24-11.05Z"/><path class="e" d="M684.66,603.2l38.49,11.76-4.75,6.65-29.29-9.46,18.49,24.59-4.79,6.7-23.56-32.65,5.42-7.58Z"/><path class="e" d="M657.88,635.53l33.59,20.72-5.71,5.42-24.8-15.47,13.7,26-4.73,4.49-25.22-14.96,14.17,25.45-5.25,4.99-19-34.58,6.21-5.89,22.67,13.39-12.22-23.3,6.58-6.24Z"/><path class="e" d="M590.17,692.12l7.16-4.69,13.02,6.34-.63-14.47,7.11-4.66,.99,22.77,19.44,9.46-7.11,4.66-11.97-5.81,.58,13.28-7.11,4.66-.93-21.57-20.54-9.97Z"/><path class="e" d="M556.24,753.34l1.94-26.63-6.33-13.47,6.76-3.18,6.33,13.46,21.69,15.53-7.7,3.62-14.24-10.86-.76,17.91-7.7,3.62Z"/><path class="e" d="M508.98,736.08l-15.62,4.24-1.89-6.94,24.82-6.74,1.58,5.8-8.79,28.24,14.94-4.06,1.89,6.94-24.14,6.56-1.55-5.7,8.76-28.35Z"/><path class="e" d="M744.5,269.64c1.54,3.33,1.71,6.65,.52,9.97-1.2,3.31-3.42,5.72-6.69,7.23-3.27,1.51-6.55,1.64-9.84,.4-3.29-1.24-5.71-3.53-7.25-6.86l-2.81-6.09-11.38,5.25-3.15-6.83,34.65-15.99,5.96,12.92Zm-16.88,7.79c.67,1.45,1.73,2.42,3.18,2.92,1.45,.49,2.92,.4,4.4-.29,1.52-.7,2.55-1.76,3.1-3.17,.55-1.41,.49-2.85-.18-4.3l-2.81-6.09-10.49,4.84,2.81,6.09Z"/><g><path class="f" d="M423.65,191.77c-13.28-.11-26.32,.93-39.02,3.05-12.94,2.16-25.52,5.43-37.65,9.71-12.23,4.32-23.99,9.67-35.18,15.95-11.2,6.29-21.82,13.51-31.76,21.57-9.89,8.03-19.1,16.88-27.52,26.46-8.35,9.5-15.9,19.73-22.58,30.57-6.59,10.7-12.31,22-17.07,33.81-2.66,6.61-5.03,13.38-7.07,20.29l-14.74,13.41-41.33,37.59,37.59,41.33,13.41,14.74c1.38,7.08,3.1,14.03,5.12,20.87,3.62,12.21,8.25,24,13.79,35.27,5.62,11.42,12.18,22.32,19.59,32.57,7.47,10.33,15.8,20.02,24.9,28.94,9.13,8.96,19.02,17.15,29.58,24.47,10.54,7.31,21.74,13.75,33.51,19.2,11.67,5.41,23.89,9.85,36.56,13.22,12.44,3.31,25.33,5.58,38.56,6.72,2.95,.25,5.91,.46,8.9,.6,10.32,.49,20.5,.26,30.51-.61,13.37-1.17,26.43-3.51,39.07-6.93,12.97-3.51,25.5-8.16,37.46-13.83,12.16-5.77,23.75-12.59,34.61-20.37,10.97-7.85,21.2-16.67,30.6-26.33,9.41-9.68,17.98-20.21,25.55-31.48,7.53-11.21,14.08-23.15,19.53-35.69,5.37-12.35,9.68-25.29,12.79-38.72,3.02-13.06,4.93-26.57,5.58-40.43,.66-13.87,.04-27.5-1.74-40.78-1.83-13.66-4.89-26.95-9.07-39.75-4.24-13-9.63-25.51-16.07-37.38-6.47-11.93-14.01-23.22-22.46-33.75-8.44-10.51-17.8-20.25-27.97-29.1-10.09-8.77-20.97-16.66-32.54-23.55-11.37-6.78-23.41-12.59-35.99-17.31-12.26-4.6-25.04-8.17-38.24-10.59-9.88-1.82-20-3-30.32-3.49-2.98-.14-5.95-.22-8.91-.24Z"/><path class="e" d="M603.24,427.76l9.32-9.32-9.21-9.21,8.25-10.09-9.72-7.94,6.97-10.43-9.82-6.56,5.65-10.38-11.21-6.1c-.25-.72-.5-1.44-.76-2.15l4.83-11.8-11.03-4.51,3.49-11.39-12.06-3.69c-.27-.45-.53-.91-.8-1.36l2.4-12.36-11.6-2.25,1.2-11.75-12.42-1.26c-.23-.26-.46-.52-.7-.78v-12.47h-12.4c-.23-.21-.46-.43-.7-.64l-1.24-12.33-12.25,1.23c-.09-.07-.19-.14-.28-.21l-2.4-12.08-11.59,2.31-3.34-11.33-11.68,3.44c-.94-.46-1.9-.91-2.85-1.36l-4.71-11.22-10.98,4.61-5.59-10.52-10.67,5.67c-.75-.19-1.51-.37-2.26-.55l-6.77-10.03-9.79,6.61-7.47-9.16-9.39,7.66c-.52-.03-1.04-.05-1.57-.08l-8.57-8.57-8.57,8.57c-.45,.02-.9,.04-1.35,.06l-9.38-7.67-7.66,9.37c-.22,.03-.44,.06-.65,.09l-10.06-6.72-6.56,9.82-10.38-5.65-5.79,10.64c-1.02,.35-2.04,.71-3.05,1.08l-11.21-4.58-4.51,11.03-11.39-3.49-3.58,11.7c-.61,.36-1.21,.72-1.81,1.09l-12.02-2.33-2.25,11.6-11.75-1.2-1.25,12.33c-.29,.26-.58,.52-.86,.78h-12.4v12.47c-.18,.2-.36,.41-.55,.62l-12.42,1.25,1.25,12.48h0l-12.3,2.45,2.31,11.59-11.33,3.34,3.58,12.14c-.35,.73-.68,1.46-1.02,2.19l-11.69,4.9,4.61,10.98-10.52,5.59,6.04,11.36c-.09,.38-.19,.76-.28,1.14l-10.67,7.2,6.61,9.79-9.16,7.47,8.29,10.17v.08l-9.29,9.28,9.21,9.21-8.25,10.09,9.72,7.94-6.97,10.43,9.82,6.56-5.65,10.38,11.83,6.44c.14,.38,.27,.77,.41,1.16l-5.1,12.46,11.03,4.51-3.49,11.39,13.06,4-2.6,13.41,11.6,2.25-1.2,11.75,13.11,1.33v13.18h13.03l1.3,12.97,12.49-1.25,2.45,12.31,11.59-2.31,3.34,11.33,13.5-3.98c.09,.04,.19,.09,.28,.13l5.45,12.99,10.98-4.61,5.59,10.52,12.06-6.41,7.64,11.32,9.79-6.61,7.47,9.16,10.22-8.33,9.32,9.32,9.21-9.21,10.09,8.25,7.94-9.72,10.43,6.97,6.56-9.82,10.38,5.65,6.75-12.4c.08-.03,.16-.06,.24-.09l13.06,5.34,4.51-11.03,11.39,3.49,4-13.06,13.41,2.6,2.25-11.6,11.75,1.2,1.33-13.11h13.18v-13.03l12.97-1.3-1.25-12.49,12.31-2.45-2.31-11.59,11.33-3.34-3.84-13.02c.16-.32,.3-.64,.46-.97l12.52-5.25-4.61-10.98,10.52-5.59-6.28-11.81c.03-.14,.07-.28,.1-.41l11.09-7.48-6.61-9.79,9.16-7.47-8.33-10.22Z"/></g></g></g></svg>