<?xml version="1.0" encoding="utf-8"?>
<!-- Generator: Adobe Illustrator 26.3.1, SVG Export Plug-In . SVG Version: 6.00 Build 0)  -->
<svg version="1.1" id="Layer_1" xmlns="http://www.w3.org/2000/svg" xmlns:xlink="http://www.w3.org/1999/xlink" x="0px" y="0px"
	 viewBox="0 0 833.7 833.7" style="enable-background:new 0 0 833.7 833.7;" xml:space="preserve">
<style type="text/css">
	.st0{fill:none;stroke:#FFFFFF;stroke-miterlimit:10;}
	.st1{opacity:0.1;fill:#FBEDD5;enable-background:new    ;}
	.st2{fill:#F6F6F6;}
	.st3{fill:#54B5B1;}
	.st4{fill:#19192D;}
	.st5{enable-background:new    ;}
</style>
<g id="a">
</g>
<g id="b">
	<g id="c">
		<circle class="st0" cx="416.9" cy="416.9" r="416.4"/>
		<circle class="st0" cx="416.9" cy="416.9" r="219.6"/>
		<path class="st1" d="M419.4,205.9l-0.2-164.4c-22.5,0.1-44.6,2.2-66.2,6.1l29,163C394.2,208,406.7,206.4,419.4,205.9L419.4,205.9z
			"/>
		<path class="st1" d="M382,210.6l-29-163c-22,4-43.4,9.9-64.1,17.5l57.3,156.5C357.8,216.9,369.7,213.2,382,210.6L382,210.6z"/>
		<path class="st2" d="M206.6,379.8L46.2,351.5c-3.8,21.2-5.9,43.1-6,65.5h161.6C202.4,404.3,203.9,391.8,206.6,379.8L206.6,379.8z"
			/>
		<path class="st1" d="M217.5,344.2l-154-56.1c-7.5,20.4-13.3,41.5-17.3,63.4l160.3,28.3C209.2,367.5,212.9,355.6,217.5,344.2
			L217.5,344.2z"/>
		<path class="st1" d="M234.4,311.3L91.6,228.9c-11,18.8-20.4,38.6-28.1,59.3l154,56.1C222.2,332.7,227.9,321.7,234.4,311.3
			L234.4,311.3z"/>
		<path class="st1" d="M256.5,281.9l-127-106.6c-14.1,16.7-26.8,34.6-37.9,53.5l142.8,82.4C240.9,300.9,248.3,291,256.5,281.9
			L256.5,281.9z"/>
		<path class="st1" d="M346.4,221.8L289,64.2c-20.7,7.5-40.5,16.7-59.4,27.6l83.6,144.8C323.8,230.7,334.9,225.8,346.4,221.8z"/>
		<path class="st1" d="M313.3,236.6L229.6,91.8c-19,10.9-37,23.5-53.7,37.5L283,256.8C292.5,249.2,302.6,242.5,313.3,236.6
			L313.3,236.6z"/>
		<path class="st1" d="M283,256.8L175.9,129.2c-16.8,14-32.3,29.5-46.5,46.2l127,106.6C264.6,272.8,273.5,264.4,283,256.8L283,256.8
			z"/>
		<path class="st1" d="M419.5,205.9l0.2-164.4c22.5,0.1,44.6,2.2,66.2,6.1l-29,163C444.7,208,432.2,206.4,419.5,205.9L419.5,205.9z"
			/>
		<g>
			<path class="st3" d="M427.5,192.2c-13.3-0.3-26.3,0.5-39.1,2.4c-13,1.9-25.6,5-37.8,9.1c-12.3,4.1-24.2,9.2-35.5,15.3
				c-11.3,6.1-22.1,13.1-32.1,21c-10,7.9-19.4,16.5-28,26c-8.5,9.4-16.2,19.5-23.1,30.2c-6.8,10.6-12.7,21.8-17.6,33.5
				c-2.8,6.6-5.3,13.3-7.4,20.2L192,363l-42,36.9l36.9,42l13.1,15c1.2,7.1,2.9,14.1,4.8,21c3.4,12.3,7.8,24.1,13.2,35.5
				c5.4,11.5,11.8,22.5,19,32.9c7.3,10.5,15.4,20.3,24.4,29.4c9,9.1,18.7,17.5,29.1,25c10.4,7.5,21.5,14.1,33.2,19.8
				c11.6,5.6,23.7,10.3,36.3,13.8c12.4,3.5,25.2,6,38.4,7.4c2.9,0.3,5.9,0.6,8.9,0.8c10.3,0.7,20.5,0.6,30.5-0.1
				c13.4-0.9,26.5-3,39.2-6.2c13-3.3,25.6-7.7,37.7-13.2c12.3-5.6,24-12.2,35-19.8c11.1-7.7,21.5-16.3,31-25.8
				c9.6-9.5,18.3-19.9,26.1-31c7.7-11.1,14.5-22.9,20.1-35.4c5.6-12.3,10.1-25.1,13.5-38.5c3.2-13,5.4-26.5,6.3-40.3
				c0.9-13.9,0.5-27.5-1-40.8c-1.6-13.7-4.4-27-8.4-39.9c-4-13.1-9.2-25.7-15.4-37.6c-6.3-12-13.6-23.5-21.9-34.1
				c-8.2-10.6-17.4-20.6-27.5-29.6c-9.9-8.9-20.7-17-32.1-24.1c-11.2-7-23.2-13-35.7-17.9c-12.2-4.8-24.9-8.6-38-11.2
				c-9.9-2-20-3.4-30.2-4C433.5,192.4,430.5,192.3,427.5,192.2L427.5,192.2z"/>
			<path class="st4" d="M603.2,427.8l9.3-9.3l-9.2-9.2l8.2-10.1l-9.7-7.9l7-10.4l-9.8-6.6l5.7-10.4l-11.2-6.1
				c-0.2-0.7-0.5-1.4-0.8-2.1l4.8-11.8l-11-4.5l3.5-11.4l-12.1-3.7c-0.3-0.5-0.5-0.9-0.8-1.4l2.4-12.4l-11.6-2.2l1.2-11.8l-12.4-1.3
				c-0.2-0.3-0.5-0.5-0.7-0.8V282h-12.4c-0.2-0.2-0.5-0.4-0.7-0.6l-1.2-12.3l-12.2,1.2c-0.1-0.1-0.2-0.1-0.3-0.2l-2.4-12.1
				l-11.6,2.3l-3.3-11.3l-11.7,3.4c-0.9-0.5-1.9-0.9-2.9-1.4l-4.7-11.2l-11,4.6l-5.6-10.5l-10.7,5.7c-0.8-0.2-1.5-0.4-2.3-0.6
				l-6.8-10l-9.8,6.6l-7.5-9.2l-9.4,7.7c-0.5,0-1-0.1-1.6-0.1l-8.6-8.6l-8.6,8.6c-0.5,0-0.9,0-1.4,0.1l-9.4-7.7l-7.7,9.4
				c-0.2,0-0.4,0.1-0.6,0.1l-10.1-6.7l-6.6,9.8l-10.4-5.6l-5.8,10.6c-1,0.4-2,0.7-3,1.1l-11.2-4.6l-4.5,11L329,248l-3.6,11.7
				c-0.6,0.4-1.2,0.7-1.8,1.1l-12-2.3l-2.2,11.6l-11.8-1.2l-1.2,12.3c-0.3,0.3-0.6,0.5-0.9,0.8H283v12.5c-0.2,0.2-0.4,0.4-0.5,0.6
				l-12.4,1.2l1.2,12.5l0,0l-12.3,2.5l2.3,11.6l-11.3,3.3l3.6,12.1c-0.4,0.7-0.7,1.5-1,2.2l-11.7,4.9l4.6,11l-10.5,5.6l6,11.4
				c-0.1,0.4-0.2,0.8-0.3,1.1l-10.7,7.2l6.6,9.8l-9.2,7.5l8.3,10.2v0.1l-9.3,9.3l9.2,9.2l-8.2,10.1l9.7,7.9l-7,10.4l9.8,6.6
				l-5.6,10.4l11.8,6.4c0.1,0.4,0.3,0.8,0.4,1.2l-5.1,12.5l11,4.5l-3.5,11.4l13.1,4l-2.6,13.4l11.6,2.2l-1.2,11.8l13.1,1.3v13.2h13
				l1.3,13l12.5-1.2l2.5,12.3l11.6-2.3l3.3,11.3l13.5-4c0.1,0,0.2,0.1,0.3,0.1l5.5,13l11-4.6L363,603l12.1-6.4l7.6,11.3l9.8-6.6
				l7.5,9.2l10.2-8.3l9.3,9.3l9.2-9.2l10.1,8.2l7.9-9.7l10.4,7l6.6-9.8l10.4,5.7l6.8-12.4c0.1,0,0.2-0.1,0.2-0.1l13.1,5.3l4.5-11
				l11.4,3.5l4-13.1l13.4,2.6l2.2-11.6l11.8,1.2l1.3-13.1H556v-13l13-1.3l-1.2-12.5l12.3-2.5l-2.3-11.6l11.3-3.3l-3.8-13
				c0.2-0.3,0.3-0.6,0.5-1l12.5-5.2l-4.6-11l10.5-5.6l-6.3-11.8c0-0.1,0.1-0.3,0.1-0.4l11.1-7.5l-6.6-9.8l9.2-7.5L603.2,427.8
				L603.2,427.8z"/>
		</g>
		<g class="st5">
			<path class="st4" d="M56.3,387.3l0.6-6.5l37.8,3.5l-0.7,7.5L64.1,389l1.3,7.3l-6.5,1.2L56.3,387.3z"/>
		</g>
		<g class="st5">
			<path class="st4" d="M100.8,346.3l-5.4-1.5l-9.3-16.1c-2.1-3.6-4.2-5.7-6.1-6.3c-1.4-0.4-2.7-0.3-3.8,0.4
				c-1.1,0.6-1.9,1.7-2.3,3.1c-0.8,2.8,0.1,5.2,2.6,7.3l-5.3,5.1c-2.2-1.9-3.6-4.1-4.3-6.6c-0.7-2.5-0.7-5.1,0-7.7
				c0.9-3.3,2.8-5.9,5.5-7.6c2.7-1.8,5.9-2.2,9.4-1.2c3.8,1.1,7.1,4.2,10,9.3l5.1,9.2l3.9-13.7l6.9,2L100.8,346.3z"/>
		</g>
		<g class="st5">
			<path class="st4" d="M105.8,267.1c1.8-2,3.9-3.3,6.4-3.9c2.4-0.6,4.8-0.3,7.2,0.9c3.5,1.7,5.7,4.3,6.5,7.6
				c0.8,3.3,0.4,6.7-1.3,10.1c-1.3,2.7-3.1,4.7-5.3,6.2c-2.2,1.5-4.8,2.1-7.6,1.9l-0.5-7.4c3,0.5,5.3-0.9,6.9-4
				c0.8-1.7,1.1-3.3,0.7-4.6c-0.4-1.4-1.2-2.4-2.7-3.1c-1.4-0.7-2.8-0.8-4.1-0.2c-1.3,0.5-2.4,1.7-3.2,3.4l-0.7,1.5l-5.2,0.7
				l-5.4-11l-6.6,13.3l-6.3-3.1l10.6-21.4l5.5,2.7L105.8,267.1z"/>
		</g>
		<g class="st5">
			<path class="st4" d="M149.4,213l5.7,4l-2.3,3.3l5.3,3.7l-4.3,6.2l-5.3-3.7l-10.2,14.8l-5.7-4l-13-24.4l4.6-6.6l13,24.4l5.6-8.1
				l-7.4-5.1l4.3-6.2l7.4,5.1L149.4,213z"/>
		</g>
		<g class="st5">
			<path class="st4" d="M170.1,167.8c2.6-2.5,5.6-3.9,8.9-4c3.3-0.2,6.3,1.2,9,4s3.9,5.9,3.5,9.3c-0.4,3.4-1.9,6.4-4.6,9.1
				c-2.2,2.1-4.6,3.5-7.3,4.2c-2.6,0.6-5.3,0.4-7.9-0.8l2-7.1c2.8,1.5,5.5,1.1,8.1-1.5c1.4-1.3,2.1-2.7,2.3-4.1
				c0.1-1.4-0.4-2.7-1.5-3.8c-1.1-1.1-2.3-1.7-3.7-1.6c-1.4,0.1-2.8,0.7-4.1,2l-8.3,8L153,165l15.5-14.9l4.9,5l-10.5,10.1l4.4,5.3
				L170.1,167.8z"/>
		</g>
		<g class="st5">
			<path class="st4" d="M217.6,128.5c3.3-2.1,6.7-2.8,10.1-2.2c3.4,0.7,6.2,2.6,8.3,5.7c2.2,3.2,2.8,6.6,2.1,10.1
				c-0.8,3.5-2.8,6.4-6.2,8.6c-3.4,2.3-6.8,3.1-10.3,2.4c-3.5-0.6-6.3-2.6-8.5-5.8c-1.6-2.4-2.4-4.9-2.4-7.6l-0.1-21.4l7.1-4.8
				L217.6,128.5z M223.2,146c1.6,0.3,3.2-0.1,4.7-1.1c1.5-1,2.5-2.3,2.8-3.9c0.4-1.6,0.1-3.2-1-4.8c-1-1.5-2.4-2.4-4-2.7
				c-1.6-0.3-3.2,0.1-4.7,1.1c-1.5,1-2.4,2.3-2.8,3.9c-0.4,1.6,0,3.2,1,4.7C220.3,144.8,221.6,145.7,223.2,146z"/>
		</g>
		<g class="st5">
			<path class="st4" d="M256.6,92.1l22.2-10.6l2.7,5.7l2,34.1l-7.2,3.4l-2-33.2l-14.6,7L256.6,92.1z"/>
		</g>
		<g class="st5">
			<path class="st4" d="M341.3,79.4c3.9,1.3,6.3,3.9,7.1,7.8c0.8,3.4,0.2,6.4-1.8,8.9c-1.9,2.5-5,4.2-9.1,5.1
				c-4.1,0.9-7.6,0.6-10.4-0.8c-2.8-1.5-4.6-3.9-5.3-7.3c-0.9-3.9,0.2-7.3,3.1-10.1c-3-1.3-4.8-3.6-5.6-6.8
				c-0.8-3.4-0.2-6.4,1.7-8.8c1.9-2.4,4.6-4,8-4.8c3.4-0.8,6.5-0.4,9.2,1s4.5,3.8,5.2,7.2C344.2,74.1,343.5,77,341.3,79.4z
				 M334.3,70c-1.1-0.6-2.3-0.7-3.7-0.4c-1.4,0.3-2.5,1-3.2,1.9c-0.7,1-0.9,2.1-0.6,3.5c0.3,1.3,1,2.3,2,2.9
				c1.1,0.6,2.3,0.7,3.7,0.4c1.4-0.3,2.5-1,3.2-2c0.7-1,0.9-2.2,0.6-3.5C336,71.5,335.3,70.5,334.3,70z M331.4,94
				c1.3,0.7,2.9,0.8,4.7,0.4c1.8-0.4,3.2-1.2,4.1-2.3c0.9-1.1,1.2-2.5,0.8-4.2c-0.4-1.6-1.2-2.7-2.5-3.4c-1.3-0.7-2.9-0.8-4.7-0.4
				c-1.8,0.4-3.2,1.2-4.1,2.3c-0.9,1.1-1.2,2.5-0.8,4.1C329.2,92.2,330.1,93.3,331.4,94z"/>
		</g>
		<g class="st5">
			<path class="st4" d="M408.3,65.3c0.1,2.9-0.5,5.5-1.9,7.8h0l-11,18.4l-8.6,0.4l7.9-12.7c-3.9,0.1-7.2-1-9.8-3.3
				c-2.6-2.3-4-5.4-4.1-9.2c-0.2-3.9,1-7.1,3.4-9.7s5.7-3.9,9.7-4.1c4.1-0.2,7.5,0.9,10.1,3.2C406.7,58.3,408.1,61.4,408.3,65.3z
				 M388.2,66.2c0.1,1.9,0.8,3.4,2,4.4c1.3,1.1,2.8,1.6,4.5,1.5c1.8-0.1,3.3-0.7,4.5-1.9c1.1-1.2,1.7-2.7,1.6-4.6s-0.7-3.3-2-4.4
				c-1.2-1-2.8-1.5-4.6-1.4c-1.8,0.1-3.2,0.7-4.4,1.9C388.7,62.9,388.2,64.4,388.2,66.2z"/>
		</g>
		<g class="st5">
			<path class="st4" d="M451.9,93.2c-4.7-0.7-8.1-3-10.3-6.9c-2.2-3.9-2.8-8.9-2-14.8c0.8-5.9,2.8-10.5,6-13.7
				c3.2-3.2,7.1-4.5,11.8-3.8c4.7,0.7,8.2,3,10.3,6.9c2.2,3.9,2.8,8.9,2,14.8c-0.8,5.9-2.8,10.5-6,13.7
				C460.6,92.5,456.6,93.8,451.9,93.2z M447.6,82c1,2.3,2.8,3.6,5.3,3.9c2.5,0.4,4.6-0.4,6.2-2.4c1.6-1.9,2.7-4.9,3.2-8.9
				c0.6-4,0.3-7.2-0.7-9.5s-2.8-3.6-5.3-4c-2.5-0.4-4.6,0.4-6.1,2.4c-1.6,1.9-2.7,4.9-3.2,8.9C446.4,76.5,446.6,79.7,447.6,82z"/>
		</g>
	</g>
</g>
</svg>
