<?xml version="1.0" encoding="UTF-8"?><svg xmlns="http://www.w3.org/2000/svg" xmlns:xlink="http://www.w3.org/1999/xlink" viewBox="0 0 578.93 606.91"><defs><style>.e,.f,.g,.h,.i{fill:none;}.j{letter-spacing:.03em;}.k{letter-spacing:.09em;}.l{letter-spacing:.1em;}.f,.g,.h,.i,.m{stroke-miterlimit:10;}.f,.m{stroke:#0f0f0f;stroke-width:3px;}.n{letter-spacing:.1em;}.o{letter-spacing:.1em;}.p,.q,.r{letter-spacing:.1em;}.s{letter-spacing:.02em;}.t,.u{fill:#32325b;}.v{fill:#19192f;}.g{stroke-width:5px;}.g,.h,.i{stroke:#fff;}.w{font-size:32px;}.w,.r,.x,.y{fill:#fff;}.a`,.q{fill:#e9a72d;}.a`,.q,.r{font-size:15.59px;}.u{opacity:.2;}.h{stroke-width:2px;}.aa{letter-spacing:.06em;}.ab{letter-spacing:0em;}.ac{letter-spacing:0em;}.ad{letter-spacing:0em;}.ae{clip-path:url(#d);}.m{fill:#cfd0d1;}.af{letter-spacing:0em;}.x{font-size:41.84px;}.x,.ag{font-family:Gilroy-Bold, Gilroy-Bold;}.ah{letter-spacing:.01em;}.y{opacity:.5;}.ai{letter-spacing:.02em;}</style><clipPath id="d"><rect class="e" x="5.73" y="137.46" width="568.24" height="237.21"/></clipPath></defs><g id="a"/><g id="b"><g id="c"><g><rect class="y" x="5.73" y="137.46" width="568.24" height="237.21"/><rect class="y" x="5.73" y="140.49" width="568.24" height="163.31"/><circle class="u" cx="95.09" cy="232.94" r="44.6"/><circle class="u" cx="290.43" cy="232.94" r="44.6"/><circle class="u" cx="485.77" cy="232.94" r="44.6"/><text class="ag" transform="translate(45.88 417.47)"><tspan class="q"><tspan x="0" y="0">GOOD FOR</tspan></tspan><tspan class="w"><tspan class="ad" x="0" y="38.4">R</tspan><tspan class="s" x="19.65" y="38.4">em</tspan><tspan class="af" x="67.1" y="38.4">o</tspan><tspan class="j" x="86.27" y="38.4">ving HEX bol</tspan><tspan class="ac" x="280.03" y="38.4">t</tspan><tspan class="j" x="292.54" y="38.4">s</tspan></tspan><tspan class="r"><tspan x="0" y="75.83"></tspan></tspan><tspan class="a`"><tspan class="p" x="0" y="94.54">U</tspan><tspan class="k" x="11.74" y="94.54">S</tspan><tspan class="l" x="22.32" y="94.54">ED FOR</tspan></tspan><tspan class="w"><tspan class="ad" x="0" y="132.94">R</tspan><tspan class="s" x="19.65" y="132.94">epai</tspan><tspan class="ab" x="89.41" y="132.94">r</tspan><tspan class="s" x="101.09" y="132.94">s in </tspan><tspan class="ai" x="162.33" y="132.94">t</tspan><tspan class="j" x="175.2" y="132.94">he na</tspan><tspan class="ah" x="262.75" y="132.94">c</tspan><tspan class="s" x="280.32" y="132.94">elle</tspan></tspan></text><text class="x" transform="translate(166.56 94.93)"><tspan class="n" x="0" y="0">ALLEN KE</tspan><tspan class="aa" x="210.55" y="0">Y</tspan><tspan class="o" x="239.04" y="0">S</tspan></text><line class="i" x1="2.53" y1="483.01" x2="573.96" y2="483.01"/><line class="h" x1="2.53" y1="138.49" x2="573.96" y2="138.49"/><circle class="m" cx="95.09" cy="219.55" r="44.6"/><polygon class="v" points="102.86 206.94 87.32 206.94 79.55 220.39 87.32 233.85 102.86 233.85 110.62 220.39 102.86 206.94"/><circle class="m" cx="290.43" cy="219.55" r="44.6"/><polygon class="v" points="298.19 206.94 282.66 206.94 274.89 220.39 282.66 233.85 298.19 233.85 305.96 220.39 298.19 206.94"/><circle class="m" cx="485.77" cy="219.55" r="44.6"/><polygon class="v" points="493.53 206.94 478 206.94 470.23 220.39 478 233.85 493.53 233.85 501.3 220.39 493.53 206.94"/><line class="f" x1="2.53" y1="303.8" x2="573.96" y2="303.8"/><g class="ae"><g><path class="v" d="M337.1,591.37L139.3,247.81c-2.87-4.98-1.17-11.34,3.81-14.21l79.3-45.78,.56-9.55-4.81-8.33-8.79-4.69-85.73,49.49c-15.4,8.89-20.68,28.58-11.79,43.98l199.59,346.66,9.84,1.54,10.76-6.21,5.05-9.33Z"/><path class="t" d="M321.81,606.61L120.51,256.98c-7.34-12.71-2.98-28.96,14.3-38.94l83.37-48.13,4.79,8.35-87.01,50.23c-7.96,4.59-10.68,14.77-6.09,22.73l201.46,349.9-9.52,5.5Z"/></g></g><rect class="g" x="2.5" y="2.5" width="573.93" height="593.9" rx="43.98" ry="43.98"/><line class="h" x1="2.53" y1="374.68" x2="573.96" y2="374.68"/></g></g></g></svg>