<?xml version="1.0" encoding="UTF-8"?><svg xmlns="http://www.w3.org/2000/svg" viewBox="0 0 578.93 598.9"><defs><style>.d,.e,.f,.g,.h,.i{fill:none;}.j{letter-spacing:.03em;}.e{stroke-width:6px;}.e,.f,.g{stroke:#fff;}.e,.f,.g,.h{stroke-miterlimit:10;}.k{letter-spacing:.02em;}.l{letter-spacing:.02em;}.m{letter-spacing:0em;}.n,.o{fill:#f9b438;}.p{fill:#32325b;}.q{fill:#cfd0d1;}.r{fill:#19192d;}.s{fill:#19192f;}.t{letter-spacing:.02em;}.f{stroke-width:5px;}.u{letter-spacing:.02em;}.v{letter-spacing:0em;}.g{stroke-width:2px;}.h{stroke:#0f0f0f;stroke-width:4px;}.w{letter-spacing:0em;}.x{letter-spacing:0em;}.y{opacity:.2;}.a`{letter-spacing:.02em;}.aa{fill:#fff;opacity:.5;}.i{stroke:#32325b;stroke-linecap:round;stroke-linejoin:round;stroke-width:3px;}.o{font-family:Gilroy-Bold, Gilroy-Bold;font-size:32px;}</style></defs><g id="a"/><g id="b"><g id="c"><g><rect class="aa" x=".07" y="2.5" width="573.93" height="593.9" rx="43.98" ry="43.98"/><g class="y"><path class="p" d="M361.72,195.75h-1.05c.53-55,10.66-96.39,10.66-96.39l-11.72-2.3s-6.93-2.66-9.06-2.66-7.99,1.07-9.59,0-8.53,.53-10.12,0c-1.6-.53-14.92-.38-14.92-.38,0,0-.53-.95-6.39-.02-5.86,.93-17.05-.41-17.05-.41,0,0-10.12-2.4-11.72,0-1.6,2.4-10.66,1.87-12.79,2.4-2.13,.53-14.92,1.07-14.92,1.07h-12.79c-1.6,0-9.06-1.07-10.66-1.07s-6.93-.53-9.06-.53-20.78,1.07-20.78,1.07l7.46,99.22h-1.59c-.89,0-1.61,.72-1.61,1.61v9.68h1.61v31.59h-1.61v8.67c0,.89,.72,1.61,1.61,1.61h156.09c.89,0,1.61-.72,1.61-1.61v-8.87h-1.61v-31.4h1.61v-9.68c0-.89-.72-1.61-1.61-1.61Z"/><path class="p" d="M206.68,248.92v5.33c0,5.33,8.68,4.97,8.68,4.97,46.63,0,54.77,25.4,54.77,25.4,6.51,25.58-3.8,78.86-3.8,78.86-9.76,58.61,5.95,73,5.95,73,5.98,6.39,11.94,4.8,11.94,4.8,0,0,5.96,1.6,11.94-4.8,0,0,15.71-14.39,5.95-73,0,0-10.3-53.28-3.8-78.86,0,0,8.13-25.4,54.77-25.4,0,0,8.68,.36,8.68-4.97v-5.33H206.68Z"/></g><g><rect class="q" x="257.09" y="118.97" width="53.17" height="156.09" transform="translate(480.69 -86.65) rotate(90)"/><line class="d" x1="204.01" y1="208.2" x2="204.01" y2="186.84"/><path class="d" d="M363.33,213.12v8.87c0,.89-.72,1.61-1.61,1.61H205.62c-.89,0-1.61-.72-1.61-1.61v-8.67"/><line class="d" x1="363.33" y1="186.84" x2="363.33" y2="208.2"/><path class="d" d="M204.01,181.72v-9.68c0-.89,.72-1.61,1.61-1.61h156.09c.89,0,1.61,.72,1.61,1.61v9.68"/><path class="s" d="M207.21,170.43h153.46c.53-55,10.66-96.39,10.66-96.39l-11.72-2.3s-6.93-2.66-9.06-2.66c-2.13,0-7.99,1.07-9.59,0s-8.53,.53-10.12,0c-1.6-.53-14.92-.38-14.92-.38,0,0-.53-.95-6.39-.02-5.86,.93-17.05-.41-17.05-.41,0,0-10.12-2.4-11.72,0-1.6,2.4-10.66,1.87-12.79,2.4-2.13,.53-14.92,1.07-14.92,1.07h-12.79c-1.6,0-9.06-1.07-10.66-1.07-1.6,0-6.93-.53-9.06-.53s-20.78,1.07-20.78,1.07l7.46,99.22Z"/><path class="n" d="M284.21,223.6h-77.54v5.33c0,5.33,8.68,4.97,8.68,4.97,46.63,0,54.77,25.4,54.77,25.4,6.51,25.58-3.8,78.86-3.8,78.86-9.76,58.61,5.95,73,5.95,73,5.98,6.39,11.94,4.8,11.94,4.8,0,0,5.96,1.6,11.94-4.8,0,0,15.71-14.39,5.95-73,0,0-10.3-53.28-3.8-78.86,0,0,8.13-25.4,54.77-25.4,0,0,8.68,.36,8.68-4.97v-5.33h-77.54Z"/><circle class="d" cx="227.6" cy="218.39" r="1.54"/><circle class="d" cx="283.67" cy="218.39" r="1.54"/><circle class="d" cx="346.69" cy="218.39" r="1.54"/><line class="i" x1="206.68" y1="71.74" x2="212.43" y2="149.25"/><line class="i" x1="220.53" y1="71.19" x2="221.67" y2="99.02"/><line class="i" x1="267.95" y1="71.73" x2="270.69" y2="157.78"/><line class="i" x1="309.51" y1="69.73" x2="309.76" y2="114.75"/><line class="i" x1="315.91" y1="69.75" x2="316.16" y2="92.24"/><line class="i" x1="330.83" y1="70.13" x2="328.95" y2="147.83"/><line class="i" x1="350.54" y1="70.13" x2="345.15" y2="153.52"/><line class="i" x1="359.6" y1="72.79" x2="357.36" y2="99.02"/><line class="i" x1="244.78" y1="72.79" x2="245.26" y2="85.9"/><line class="i" x1="248.33" y1="72.79" x2="249.99" y2="111.82"/><line class="i" x1="280.74" y1="69.32" x2="283.67" y2="131.25"/><line class="i" x1="288.88" y1="68.64" x2="289.54" y2="92.24"/><line class="i" x1="319.85" y1="69.73" x2="319.62" y2="82.71"/></g><g><rect class="q" x="257.09" y="118.97" width="53.17" height="156.09" transform="translate(480.69 -86.65) rotate(90)"/><line class="d" x1="204.01" y1="208.2" x2="204.01" y2="186.84"/><path class="d" d="M363.33,213.12v8.87c0,.89-.72,1.61-1.61,1.61H205.62c-.89,0-1.61-.72-1.61-1.61v-8.67"/><line class="d" x1="363.33" y1="186.84" x2="363.33" y2="208.2"/><path class="d" d="M204.01,181.72v-9.68c0-.89,.72-1.61,1.61-1.61h156.09c.89,0,1.61,.72,1.61,1.61v9.68"/><path class="s" d="M207.21,170.43h153.46c.53-55,10.66-96.39,10.66-96.39l-11.72-2.3s-6.93-2.66-9.06-2.66c-2.13,0-7.99,1.07-9.59,0s-8.53,.53-10.12,0c-1.6-.53-14.92-.38-14.92-.38,0,0-.53-.95-6.39-.02-5.86,.93-17.05-.41-17.05-.41,0,0-10.12-2.4-11.72,0-1.6,2.4-10.66,1.87-12.79,2.4-2.13,.53-14.92,1.07-14.92,1.07h-12.79c-1.6,0-9.06-1.07-10.66-1.07-1.6,0-6.93-.53-9.06-.53s-20.78,1.07-20.78,1.07l7.46,99.22Z"/><path class="n" d="M284.21,223.6h-77.54v5.33c0,5.33,8.68,4.97,8.68,4.97,46.63,0,54.77,25.4,54.77,25.4,6.51,25.58-3.8,78.86-3.8,78.86-9.76,58.61,5.95,73,5.95,73,5.98,6.39,11.94,4.8,11.94,4.8,0,0,5.96,1.6,11.94-4.8,0,0,15.71-14.39,5.95-73,0,0-10.3-53.28-3.8-78.86,0,0,8.13-25.4,54.77-25.4,0,0,8.68,.36,8.68-4.97v-5.33h-77.54Z"/><circle class="d" cx="227.6" cy="218.39" r="1.54"/><circle class="d" cx="283.67" cy="218.39" r="1.54"/><circle class="d" cx="346.69" cy="218.39" r="1.54"/><line class="i" x1="206.68" y1="71.74" x2="212.43" y2="149.25"/><line class="i" x1="220.53" y1="71.19" x2="221.67" y2="99.02"/><line class="i" x1="267.95" y1="71.73" x2="270.69" y2="157.78"/><line class="i" x1="309.51" y1="69.73" x2="309.76" y2="114.75"/><line class="i" x1="315.91" y1="69.75" x2="316.16" y2="92.24"/><line class="i" x1="330.83" y1="70.13" x2="328.95" y2="147.83"/><line class="i" x1="350.54" y1="70.13" x2="345.15" y2="153.52"/><line class="i" x1="359.6" y1="72.79" x2="357.36" y2="99.02"/><line class="i" x1="244.78" y1="72.79" x2="245.26" y2="85.9"/><line class="i" x1="248.33" y1="72.79" x2="249.99" y2="111.82"/><line class="i" x1="280.74" y1="69.32" x2="283.67" y2="131.25"/><line class="i" x1="288.88" y1="68.64" x2="289.54" y2="92.24"/><line class="i" x1="319.85" y1="69.73" x2="319.62" y2="82.71"/></g><g><path class="h" d="M361.72,170.43h-1.05c.53-55,10.66-96.39,10.66-96.39l-11.72-2.3s-6.93-2.66-9.06-2.66-7.99,1.07-9.59,0-8.53,.53-10.12,0c-1.6-.53-14.92-.38-14.92-.38,0,0-.53-.95-6.39-.02-5.86,.93-17.05-.41-17.05-.41,0,0-10.12-2.4-11.72,0-1.6,2.4-10.66,1.87-12.79,2.4-2.13,.53-14.92,1.07-14.92,1.07h-12.79c-1.6,0-9.06-1.07-10.66-1.07s-6.93-.53-9.06-.53-20.78,1.07-20.78,1.07l7.46,99.22h-1.59c-.89,0-1.61,.72-1.61,1.61v9.68h1.61v31.59h-1.61v8.67c0,.89,.72,1.61,1.61,1.61h156.09c.89,0,1.61-.72,1.61-1.61v-8.87h-1.61v-31.4h1.61v-9.68c0-.89-.72-1.61-1.61-1.61Z"/><path class="h" d="M206.68,223.6v5.33c0,5.33,8.68,4.97,8.68,4.97,46.63,0,54.77,25.4,54.77,25.4,6.51,25.58-3.8,78.86-3.8,78.86-9.76,58.61,5.95,73,5.95,73,5.98,6.39,11.94,4.8,11.94,4.8,0,0,5.96,1.6,11.94-4.8,0,0,15.71-14.39,5.95-73,0,0-10.3-53.28-3.8-78.86,0,0,8.13-25.4,54.77-25.4,0,0,8.68,.36,8.68-4.97v-5.33H206.68Z"/></g><line class="e" x1="564.56" y1="16.14" x2="4.04" y2="461.29"/><line class="e" x1="13.23" y1="19.1" x2="573.75" y2="464.24"/><path class="r" d="M575.81,460.13v92.28c0,24.29-19.69,43.98-43.98,43.98H45.86c-24.29,0-43.98-19.69-43.98-43.98v-92.28"/><rect class="f" x="2.5" y="2.5" width="573.93" height="593.9" rx="43.98" ry="43.98"/><line class="g" x1="2.26" y1="461.29" x2="573.69" y2="461.29"/><text class="o" transform="translate(111.78 521.26)"><tspan class="k" x="0" y="0">The turbine </tspan><tspan class="u" x="187.1" y="0">i</tspan><tspan class="k" x="195.68" y="0">s al</tspan><tspan class="v" x="249.69" y="0">r</tspan><tspan class="t" x="261.28" y="0">e</tspan><tspan class="l" x="280.54" y="0">ady </tspan><tspan class="k" x="52.8" y="38.4">f</tspan><tspan class="x" x="64.1" y="38.4">r</tspan><tspan class="w" x="75.68" y="38.4">e</tspan><tspan class="a`" x="94.43" y="38.4">s</tspan><tspan class="j" x="109.95" y="38.4">hly pain</tspan><tspan class="m" x="233.95" y="38.4">t</tspan><tspan class="t" x="246.33" y="38.4">e</tspan><tspan class="j" x="265.6" y="38.4">d!</tspan></text></g></g></g></svg>