<?xml version="1.0" encoding="UTF-8"?><svg xmlns="http://www.w3.org/2000/svg" xmlns:xlink="http://www.w3.org/1999/xlink" viewBox="0 0 750.79 866.95"><defs><style>.e,.f,.g,.h,.i,.j{fill:none;}.k{letter-spacing:.05em;}.l{letter-spacing:.03em;}.m{letter-spacing:.09em;}.n{letter-spacing:.1em;}.f,.g,.h,.i,.o{stroke-miterlimit:10;}.f,.o{stroke:#0f0f0f;}.f,.o,.j{stroke-width:3px;}.p{letter-spacing:.1em;}.q{letter-spacing:.1em;}.r,.s{letter-spacing:.1em;}.t{letter-spacing:.02em;}.u{letter-spacing:0em;}.v{fill:#f9b438;}.w,.x{fill:#32325b;}.y,.a`{fill:#19192f;}.aa{letter-spacing:.02em;}.g{stroke-width:5px;}.g,.h,.i{stroke:#fff;}.ab{font-size:32px;}.ab,.ac,.ad{fill:#fff;}.ae,.s{fill:#e9a72d;font-size:15.59px;}.af{letter-spacing:0em;}.a`,.x{opacity:.2;}.h{stroke-width:2px;}.ag{letter-spacing:.06em;}.ah{letter-spacing:0em;}.ai{letter-spacing:.09em;}.aj{letter-spacing:.02em;}.ak{letter-spacing:0em;}.al{clip-path:url(#d);}.o{fill:#cfd0d1;}.am{letter-spacing:0em;}.ac{font-size:41.84px;}.ac,.an{font-family:Gilroy-Bold, Gilroy-Bold;}.ad{opacity:.5;}.j{stroke:#19192f;stroke-linecap:round;stroke-linejoin:round;}.ao{letter-spacing:.02em;}</style><clipPath id="d"><rect class="e" x="5.73" y="137.46" width="568.24" height="237.21"/></clipPath></defs><g id="a"/><g id="b"><g id="c"><g><rect class="ad" x="5.73" y="137.46" width="568.24" height="237.21"/><text class="an" transform="translate(45.88 417.47)"><tspan class="s"><tspan x="0" y="0">GOOD FOR</tspan></tspan><tspan class="ab"><tspan class="ak" x="0" y="38.4">R</tspan><tspan class="t" x="19.65" y="38.4">em</tspan><tspan class="am" x="67.1" y="38.4">o</tspan><tspan class="l" x="86.27" y="38.4">ving la</tspan><tspan class="ah" x="191.26" y="38.4">r</tspan><tspan class="t" x="202.85" y="38.4">ge bol</tspan><tspan class="ah" x="301.21" y="38.4">t</tspan><tspan class="l" x="313.72" y="38.4">s</tspan></tspan><tspan class="ae"><tspan class="r" x="0" y="95.51">U</tspan><tspan class="m" x="11.74" y="95.51">S</tspan><tspan class="n" x="22.32" y="95.51">ED FOR</tspan></tspan><tspan class="ab"><tspan class="ak" x="0" y="133.91">R</tspan><tspan class="t" x="19.65" y="133.91">em</tspan><tspan class="am" x="67.1" y="133.91">o</tspan><tspan class="l" x="86.27" y="133.91">ving </tspan><tspan class="ao" x="161.73" y="133.91">t</tspan><tspan class="t" x="174.59" y="133.91">he gene</tspan><tspan class="af" x="300.93" y="133.91">r</tspan><tspan class="t" x="312.51" y="133.91">a</tspan><tspan class="u" x="333.34" y="133.91">t</tspan><tspan class="t" x="345.73" y="133.91">or ho</tspan><tspan class="aa" x="425.6" y="133.91">u</tspan><tspan class="aj" x="444.73" y="133.91">s</tspan><tspan class="t" x="460.25" y="133.91">ing</tspan></tspan></text><text class="ac" transform="translate(192.97 94.93)"><tspan class="p" x="0" y="0">R</tspan><tspan class="k" x="29.88" y="0">A</tspan><tspan class="ag" x="59.88" y="0">T</tspan><tspan class="ai" x="84.98" y="0">C</tspan><tspan class="q" x="119.21" y="0">HET</tspan></text><rect class="g" x="2.5" y="2.5" width="573.93" height="593.9" rx="43.98" ry="43.98"/><line class="i" x1="2.53" y1="483.01" x2="573.96" y2="483.01"/><line class="h" x1="2.53" y1="138.49" x2="573.96" y2="138.49"/><path class="x" d="M301.11,287.28l18.97-18.97c2.12-2.12,2.94-5.2,2.17-8.09l-6.94-25.91c-.77-2.89-3.03-5.15-5.92-5.92l-25.91-6.94c-2.89-.77-5.98,.05-8.09,2.17l-18.97,18.97c-2.12,2.12-2.94,5.2-2.17,8.09l6.94,25.91c.77,2.89,3.03,5.15,5.92,5.92l25.91,6.94c2.89,.77,5.98-.05,8.09-2.17Z"/><path class="o" d="M301.11,275.14l18.97-18.97c2.12-2.12,2.94-5.2,2.17-8.09l-6.94-25.91c-.77-2.89-3.03-5.15-5.92-5.92l-25.91-6.94c-2.89-.77-5.98,.05-8.09,2.17l-18.97,18.97c-2.12,2.12-2.94,5.2-2.17,8.09l6.94,25.91c.77,2.89,3.03,5.15,5.92,5.92l25.91,6.94c2.89,.77,5.98-.05,8.09-2.17Z"/><path class="x" d="M474.89,287.28l18.97-18.97c2.12-2.12,2.94-5.2,2.17-8.09l-6.94-25.91c-.77-2.89-3.03-5.15-5.92-5.92l-25.91-6.94c-2.89-.77-5.98,.05-8.09,2.17l-18.97,18.97c-2.12,2.12-2.94,5.2-2.17,8.09l6.94,25.91c.77,2.89,3.03,5.15,5.92,5.92l25.91,6.94c2.89,.77,5.98-.05,8.09-2.17Z"/><path class="o" d="M474.89,275.14l18.97-18.97c2.12-2.12,2.94-5.2,2.17-8.09l-6.94-25.91c-.77-2.89-3.03-5.15-5.92-5.92l-25.91-6.94c-2.89-.77-5.98,.05-8.09,2.17l-18.97,18.97c-2.12,2.12-2.94,5.2-2.17,8.09l6.94,25.91c.77,2.89,3.03,5.15,5.92,5.92l25.91,6.94c2.89,.77,5.98-.05,8.09-2.17Z"/><line class="f" x1="576.43" y1="191.78" x2="2.5" y2="191.78"/><line class="f" x1="576.43" y1="307.78" x2="2.5" y2="307.78"/><g class="al"><g><path class="y" d="M85.64,292.4c-25.61-25.72-25.53-67.34,.19-92.95,25.37-25.27,65.66-25.77,91.62-1.11,16.21,15.4,22.79,36.95,19.76,57.36-1.16,7.81,1.24,15.71,6.81,21.31l25.17,25.28-41.13,40.96-25.17-25.28c-5.42-5.44-13.09-8.15-20.68-6.98-20.02,3.07-41.18-3.12-56.57-18.58Z"/><circle class="w" cx="132.21" cy="246.02" r="52.79"/><path class="y" d="M98.06,232.82l21.09-21c1.95-1.94,4.78-2.69,7.43-1.97l28.73,7.76c2.65,.72,4.72,2.79,5.42,5.45l7.64,28.76c.71,2.65-.06,5.48-2,7.42l-21.09,21c-1.95,1.94-4.78,2.69-7.43,1.97l-28.73-7.76c-2.65-.72-4.72-2.79-5.42-5.45l-7.64-28.76c-.71-2.65,.06-5.48,2-7.42Z"/><rect class="y" x="304.68" y="272.93" width="49.18" height="341.95" transform="translate(875.82 526.11) rotate(135.12)"/><rect class="a`" x="190.59" y="320.05" width="49.18" height="18.57" transform="translate(600.04 410.86) rotate(135.12)"/><path class="v" d="M723.93,788.74l-240.83-241.84c-4.11-4.13-10.8-4.14-14.93-.03l-36.51,36.36c-4.13,4.11-4.14,10.8-.03,14.93l240.51,241.51"/><path class="v" d="M700.21,864.63l48.23-48.03c3.11-3.1,3.13-8.14,.02-11.26l-23.05-18.08-59.51,59.27,23.05,18.08c3.1,3.11,8.14,3.13,11.26,.02Z"/><path class="j" d="M485.93,554.82l-7.24,7.21c-3.72,3.71-3.73,9.73-.03,13.45l228.75,229.71,16.51-16.45"/><path class="j" d="M440.37,600.19l6.4-6.37c3.72-3.71,9.74-3.69,13.45,.03l228.75,229.71-13.14,13.08"/></g></g><line class="h" x1="2.53" y1="374.68" x2="573.96" y2="374.68"/></g></g></g></svg>