<?xml version="1.0" encoding="UTF-8"?><svg xmlns="http://www.w3.org/2000/svg" xmlns:xlink="http://www.w3.org/1999/xlink" viewBox="0 0 580.13 598.9"><defs><style>.e,.f,.g,.h,.i,.j{fill:none;}.k{letter-spacing:.03em;}.l{letter-spacing:.1em;}.m{letter-spacing:.09em;}.n{letter-spacing:.1em;}.f,.o,.g,.h,.i,.p{stroke-miterlimit:10;}.f,.o,.p{stroke:#0f0f0f;}.f,.p,.j{stroke-width:3px;}.q{letter-spacing:.1em;}.r{letter-spacing:.1em;}.s,.t,.u{letter-spacing:.1em;}.v{letter-spacing:.09em;}.w{letter-spacing:.02em;}.x{letter-spacing:0em;}.y{fill:#19192f;}.a`{letter-spacing:.02em;}.o{fill:#f9b438;stroke-width:4px;}.g{stroke-width:5px;}.g,.h,.i{stroke:#fff;}.aa{font-size:32px;}.aa,.u,.ab,.ac{fill:#fff;}.ad,.t{fill:#e9a72d;}.ad,.t,.u{font-size:15.59px;}.ae{letter-spacing:0em;}.af{fill:#32325b;opacity:.2;}.h{stroke-width:2px;}.ag{letter-spacing:0em;}.ah{letter-spacing:0em;}.ai{letter-spacing:.09em;}.aj{letter-spacing:0em;}.ak{clip-path:url(#d);}.p{fill:#cfd0d1;}.al{letter-spacing:0em;}.am{letter-spacing:0em;}.ab{font-size:41.84px;}.ab,.an{font-family:Gilroy-Bold, Gilroy-Bold;}.ao{letter-spacing:.01em;}.ac{opacity:.5;}.j{stroke:#19192f;stroke-linecap:round;stroke-linejoin:round;}.ap{letter-spacing:.02em;}</style><clipPath id="d"><rect class="e" x="3.2" y="137.26" width="568.24" height="237.21"/></clipPath></defs><g id="a"/><g id="b"><g id="c"><g><path class="ac" d="M66.31,137.29h448.87v145.71c0,11.37-9.23,20.6-20.6,20.6H86.91c-11.37,0-20.6-9.23-20.6-20.6V137.29h0Z"/><rect class="ac" x="3.2" y="137.26" width="568.24" height="237.21"/><text class="an" transform="translate(43.35 417.27)"><tspan class="t"><tspan x="0" y="0">GOOD FOR</tspan></tspan><tspan class="aa"><tspan class="aj" x="0" y="38.4">R</tspan><tspan class="w" x="19.65" y="38.4">em</tspan><tspan class="am" x="67.1" y="38.4">o</tspan><tspan class="k" x="86.27" y="38.4">ving </tspan><tspan class="ao" x="161.73" y="38.4">s</tspan><tspan class="k" x="177.02" y="38.4">c</tspan><tspan class="ae" x="194.97" y="38.4">r</tspan><tspan class="am" x="206.56" y="38.4">e</tspan><tspan class="x" x="225.31" y="38.4">w</tspan><tspan class="w" x="249.76" y="38.4">s</tspan></tspan><tspan class="u"><tspan x="0" y="75.83"></tspan></tspan><tspan class="ad"><tspan class="s" x="0" y="94.54">U</tspan><tspan class="m" x="11.74" y="94.54">S</tspan><tspan class="n" x="22.32" y="94.54">ED FOR</tspan></tspan><tspan class="aa"><tspan class="w" x="0" y="132.94">Opening </tspan><tspan class="ap" x="143.23" y="132.94">t</tspan><tspan class="w" x="156.09" y="132.94">he g</tspan><tspan class="a`" x="224.38" y="132.94">e</tspan><tspan class="k" x="243.65" y="132.94">arb</tspan><tspan class="al" x="297.5" y="132.94">o</tspan><tspan class="w" x="316.19" y="132.94">x </tspan><tspan class="ae" x="342.59" y="132.94">f</tspan><tspan class="w" x="353.28" y="132.94">or </tspan><tspan class="ah" x="394.08" y="132.94">r</tspan><tspan class="k" x="405.66" y="132.94">epai</tspan><tspan class="ag" x="475.42" y="132.94">r</tspan><tspan class="w" x="487.1" y="132.94">s</tspan></tspan></text><text class="ab" transform="translate(116.44 94.73)"><tspan class="l" x="0" y="0">S</tspan><tspan class="ai" x="28.37" y="0">C</tspan><tspan class="r" x="62.6" y="0">REWDRIVE</tspan><tspan class="v" x="301.72" y="0">R</tspan><tspan class="q" x="331.14" y="0">S</tspan></text><rect class="g" x="3.7" y="2.5" width="573.93" height="593.9" rx="43.98" ry="43.98"/><line class="i" y1="482.81" x2="571.43" y2="482.81"/><line class="h" y1="137.29" x2="571.43" y2="137.29"/><circle class="af" cx="114.48" cy="263.95" r="20.61"/><circle class="af" cx="470.48" cy="266.02" r="20.61"/><circle class="p" cx="114.48" cy="253.35" r="20.61"/><line class="f" x1="93.88" y1="253.35" x2="135.09" y2="253.35"/><circle class="p" cx="470.48" cy="253.35" r="20.61"/><line class="f" x1="449.88" y1="253.35" x2="491.09" y2="253.35"/><g class="ak"><g><g><polygon class="y" points="403.21 185.75 418.37 167.88 412.68 160.72 391.85 171.44 391.73 171.58 391.7 171.55 382.43 180.63 268.07 272.09 277.76 284.3 392.13 192.84 403.07 185.86 403.04 185.83 403.21 185.75"/><path class="o" d="M195.98,381.02c14.23-16.97,30.08-32.51,47.42-46.29l34.33-27.26c6.24-4.96,3.91-18.28-5.21-29.77-9.12-11.48-21.57-16.78-27.81-11.82l-34.33,27.26c-17.34,13.77-36.07,25.69-55.83,35.71-23.07,11.7-44.31,24.65-53.13,31.66-21.73,17.26-27.77,45.82-13.5,63.79,14.27,17.97,43.46,18.56,65.19,1.3,8.82-7.01,26.24-24.76,42.87-44.58Z"/><line class="e" x1="391.73" y1="171.58" x2="403.07" y2="185.86"/><line class="e" x1="382.43" y1="180.63" x2="392.13" y2="192.84"/></g><line class="j" x1="234.98" y1="282.18" x2="259.66" y2="313.25"/></g></g><line class="h" y1="374.48" x2="571.43" y2="374.48"/></g></g></g></svg>