<?xml version="1.0" encoding="UTF-8"?><svg xmlns="http://www.w3.org/2000/svg" xmlns:xlink="http://www.w3.org/1999/xlink" viewBox="0 0 580.22 598.9"><defs><style>.e,.f,.g,.h,.i{fill:none;}.j{letter-spacing:.03em;}.k{letter-spacing:.1em;}.l{letter-spacing:.09em;}.m{letter-spacing:.1em;}.n{letter-spacing:.1em;}.o,.p,.q{letter-spacing:.1em;}.r{letter-spacing:.02em;}.s{letter-spacing:.02em;}.t{letter-spacing:0em;}.u,.v,.w,.x,.y,.f,.g,.h,.i{stroke-miterlimit:10;}.u,.v,.w,.x,.y,.g{stroke:#0f0f0f;}.u,.w,.x,.y{stroke-width:4px;}.u,.a`,.p{fill:#e9a72d;}.v,.y{fill:#19192d;}.v,.g,.h{stroke-width:2px;}.w{fill:#545454;}.x{fill:#bc1e44;}.aa{letter-spacing:.02em;}.f{stroke-width:5px;}.f,.h,.i{stroke:#fff;}.ab{letter-spacing:.02em;}.ac{font-size:32px;}.ac,.q,.ad,.ae{fill:#fff;}.a`,.p,.q{font-size:15.59px;}.af{letter-spacing:.04em;}.ag{letter-spacing:0em;}.ah{clip-path:url(#d);}.ai{letter-spacing:.01em;}.aj{letter-spacing:-.07em;}.ak{letter-spacing:.01em;}.al{letter-spacing:0em;}.ad{font-size:41.84px;}.ad,.am{font-family:Gilroy-Bold, Gilroy-Bold;}.ae{opacity:.5;}.an{letter-spacing:.02em;}</style><clipPath id="d"><rect class="e" y="137.46" width="515.67" height="237.21"/></clipPath></defs><g id="a"/><g id="b"><g id="c"><g><rect class="ae" x="7.02" y="137.46" width="568.24" height="237.21"/><text class="am" transform="translate(47.17 417.47)"><tspan class="p"><tspan x="0" y="0">GOOD FOR</tspan></tspan><tspan class="ac"><tspan class="ai" x="0" y="38.4">E</tspan><tspan class="j" x="17.41" y="38.4">a</tspan><tspan class="an" x="38.24" y="38.4">t</tspan><tspan class="s" x="51.1" y="38.4">ing and </tspan><tspan class="al" x="178.43" y="38.4">w</tspan><tspan class="r" x="203.23" y="38.4">arming </tspan><tspan class="ag" x="321.92" y="38.4">y</tspan><tspan class="r" x="338.88" y="38.4">ou up</tspan></tspan><tspan class="q"><tspan x="0" y="75.83"></tspan></tspan><tspan class="a`"><tspan class="o" x="0" y="94.54">U</tspan><tspan class="l" x="11.74" y="94.54">S</tspan><tspan class="m" x="22.32" y="94.54">ED FOR</tspan></tspan><tspan class="ac"><tspan class="r" x="0" y="132.94">Hung</tspan><tspan class="af" x="81.44" y="132.94">r</tspan><tspan class="aj" x="93.98" y="132.94">y</tspan><tspan class="s" x="108.67" y="132.94">, </tspan><tspan class="ak" x="127.17" y="132.94">c</tspan><tspan class="r" x="144.73" y="132.94">old </tspan><tspan class="t" x="202.88" y="132.94">t</tspan><tspan class="ab" x="215.26" y="132.94">ec</tspan><tspan class="r" x="252.35" y="132.94">hni</tspan><tspan class="aa" x="299.58" y="132.94">c</tspan><tspan class="r" x="317.41" y="132.94">ians</tspan></tspan></text><g class="ah"><g><path class="u" d="M228.47,270.88c-6.76,9.78-2.23,51.53-2.23,51.53h-19.51c0-47.65,17-57.66,17-57.66l4.74,6.13Z"/><path class="w" d="M167.15,331.08s-1.02,20.65,8.41,68.33c0,0,2.43,5.09,35.39,5.34h0c.44,.01,.87,0,1.3,0,.43,0,.86,0,1.3,0h0c32.96-.27,35.38-5.35,35.38-5.35,9.43-47.68,8.41-68.33,8.41-68.33,3.31-3.57,3.06-8.67,3.06-8.67-11.52,.43-84.8,.43-96.32,0,0,0-.25,5.1,3.06,8.67Z"/><path class="v" d="M257.35,331.08c-58.39,4.07-90.21,0-90.21,0"/><g><path class="x" d="M320.45,141.45l-17.18,11.49s-5.69-2.31-12.36,2.15l-46.91,31.37s-10.17,4.04-5.54,16.12l24.14,36.1,2.01,3,24.14,36.1c9.4,8.9,17.02,1.04,17.02,1.04l46.91-31.37c6.68-4.46,6.71-10.6,6.71-10.6l17.18-11.49c9.33,.56,21.51-8.07,21.51-8.07l137.83-92.16c11.92-7.55-8.05-44.25-14.4-55.24l.17-.11s-.38-.53-1.08-1.45c-.59-1-.93-1.55-.93-1.55l-.17,.11c-7.72-10.06-34.01-42.54-45.54-34.41l-137.83,92.16s-12.63,7.95-15.68,16.79Z"/><path class="g" d="M376.57,225.39c-22.28-59.47-56.12-83.93-56.12-83.93"/><path class="g" d="M303.28,152.94c15.81,14.67,15.45,30.65,15.45,30.65,1.71,8.75,6.81,15.69,6.81,15.69l-.46-.69s4.46,7.36,11.9,12.29c0,0,14.9,5.78,22.42,25.99"/><polygon class="v" points="257.11 147.13 251.86 160.19 409.66 54.68 394.33 55.38 257.11 147.13"/><g><path class="v" d="M258.34,176.87c-1.35-2.02-.81-4.76,1.21-6.11"/><path class="v" d="M257.07,177.72c-1.82-2.73-1.09-6.41,1.64-8.24,.97-.65,2.06-.97,3.14-1"/><path class="v" d="M283.18,156.93l-20.02,16.51c-.99,.81-2.46,.67-3.27-.31h0c-.81-.99-.67-2.46,.31-3.27l11.74-9.68"/><rect class="v" x="266.74" y="142.9" width="4.65" height="30.6" rx="2.32" ry="2.32" transform="translate(186.93 459.33) rotate(-105.2)"/></g><g><path class="v" d="M423.2,66.44c-1.35-2.02-4.09-2.57-6.11-1.21"/><path class="v" d="M424.48,65.59c-1.82-2.73-5.51-3.46-8.24-1.64-.97,.65-1.69,1.53-2.13,2.52"/><path class="v" d="M395.29,81.77l22.9-12.2c1.13-.6,1.56-2.01,.96-3.14h0c-.6-1.13-2.01-1.56-3.14-.96l-13.43,7.15"/><rect class="v" x="399.53" y="53.91" width="4.65" height="30.6" rx="2.32" ry="2.32" transform="translate(677.7 369.52) rotate(-142.34)"/></g><line class="v" x1="397.25" y1="71.66" x2="273.05" y2="154.71"/><path class="v" d="M260.92,162.82l-4.99,3.33c-1.03,.69-2.43,.41-3.12-.62l-1.49-2.23c-.69-1.03-.41-2.43,.62-3.12L409.09,55.11c1.03-.69,2.43-.41,3.12,.62l1.49,2.23c.69,1.03,.41,2.43-.62,3.12l-4.16,2.78"/><polygon class="y" points="288.76 277.79 247.69 271.68 228.77 243.4 238.47 202.58 288.76 277.79"/><rect class="y" x="208.37" y="253.83" width="46.28" height="15.88" rx="5.02" ry="5.02" transform="translate(142.58 599.71) rotate(-123.77)"/></g></g></g><text class="ad" transform="translate(233.27 94.93)"><tspan class="k" x="0" y="0">SO</tspan><tspan class="n" x="65.48" y="0">UP</tspan></text><rect class="f" x="3.79" y="2.5" width="573.93" height="593.9" rx="43.98" ry="43.98"/><line class="i" x1="3.82" y1="483.01" x2="575.25" y2="483.01"/><line class="h" x1="3.82" y1="374.68" x2="575.25" y2="374.68"/><line class="h" x1="3.82" y1="137.49" x2="575.25" y2="137.49"/></g></g></g></svg>