<?xml version="1.0" encoding="UTF-8"?><svg xmlns="http://www.w3.org/2000/svg" viewBox="0 0 578.93 598.9"><defs><style>.d{letter-spacing:.03em;}.e{stroke-width:6px;}.e,.f,.g,.h,.i{stroke-miterlimit:10;}.e,.h,.i{fill:none;stroke:#fff;}.j{letter-spacing:.02em;}.k{letter-spacing:0em;}.l{fill:#efefef;}.m{fill:#32325b;}.n{fill:#19192d;}.f{fill:#e29820;}.f,.g{stroke:#0f0f0f;}.f,.i{stroke-width:2px;}.g{stroke-width:4px;}.g,.o{fill:#f9b438;}.h{stroke-width:5px;}.p{letter-spacing:0em;}.q{opacity:.2;}.r{letter-spacing:.01em;}.s{letter-spacing:-.04em;}.t{fill:#fff;opacity:.5;}.u{letter-spacing:-.03em;}.v{letter-spacing:.02em;}.o{font-family:Gilroy-Bold, Gilroy-Bold;font-size:32px;}</style></defs><g id="a"/><g id="b"><g id="c"><g><rect class="t" x="2.5" y="2.5" width="573.93" height="593.9" rx="43.98" ry="43.98"/><g class="q"><path class="m" d="M302.36,389.07c78.03-9.51,110.94-3.69,122.57-.16,2.21,.67,4.26-1.43,3.55-3.63l-5.49-16.94c-.79-2.44-2.96-3.9-5.4-4.66-22.94-7.19-54.99-1.86-54.99-1.86"/><path class="m" d="M279.79,160.28c-54.58,0-98.83,44.25-98.83,98.83s44.25,98.83,98.83,98.83,98.83-44.25,98.83-98.83-44.25-98.83-98.83-98.83Zm0,187.76c-49.12,0-88.94-39.82-88.94-88.94s39.82-88.94,88.94-88.94,88.94,39.82,88.94,88.94-39.82,88.94-88.94,88.94Z"/><path class="m" d="M279.79,127.19c-72.85,0-131.92,59.06-131.92,131.92s59.06,131.92,131.92,131.92,131.92-59.06,131.92-131.92-59.06-131.92-131.92-131.92Zm0,230.74c-54.58,0-98.83-44.25-98.83-98.83s44.25-98.83,98.83-98.83,98.83,44.25,98.83,98.83-44.25,98.83-98.83,98.83Z"/></g><path class="n" d="M576.43,460.13v92.28c0,24.29-19.69,43.98-43.98,43.98H46.48c-24.29,0-43.98-19.69-43.98-43.98v-92.28"/><g><path class="f" d="M302.36,361.07c78.03-9.51,110.94-3.69,122.57-.16,2.21,.67,4.26-1.43,3.55-3.63l-5.49-16.94c-.79-2.44-2.96-3.9-5.4-4.66-22.94-7.19-54.99-1.86-54.99-1.86"/><path class="l" d="M279.79,132.28c-54.58,0-98.83,44.25-98.83,98.83s44.25,98.83,98.83,98.83,98.83-44.25,98.83-98.83-44.25-98.83-98.83-98.83Zm0,187.76c-49.12,0-88.94-39.82-88.94-88.94s39.82-88.94,88.94-88.94,88.94,39.82,88.94,88.94-39.82,88.94-88.94,88.94Z"/><path class="g" d="M279.79,99.19c-72.85,0-131.92,59.06-131.92,131.92s59.06,131.92,131.92,131.92,131.92-59.06,131.92-131.92-59.06-131.92-131.92-131.92Zm0,230.74c-54.58,0-98.83-44.25-98.83-98.83s44.25-98.83,98.83-98.83,98.83,44.25,98.83,98.83-44.25,98.83-98.83,98.83Z"/></g><text class="o" transform="translate(152.54 520.23)"><tspan class="s" x="0" y="0">W</tspan><tspan class="j" x="30.85" y="0">e </tspan><tspan class="r" x="59.04" y="0">c</tspan><tspan class="d" x="76.61" y="0">a</tspan><tspan class="u" x="97.44" y="0">n</tspan><tspan class="d" x="115.07" y="0">’t </tspan><tspan class="p" x="146.69" y="0">r</tspan><tspan class="d" x="158.27" y="0">epair a </tspan><tspan class="j" x="-41.92" y="38.4">wind turbine wi</tspan><tspan class="v" x="196.83" y="38.4">t</tspan><tspan class="j" x="209.69" y="38.4">h </tspan><tspan class="k" x="237.76" y="38.4">t</tspan><tspan class="d" x="250.14" y="38.4">ape!</tspan></text><line class="e" x1="563.92" y1="16.14" x2="3.39" y2="461.29"/><line class="e" x1="12.58" y1="19.1" x2="576.43" y2="461.29"/><rect class="h" x="2.5" y="2.5" width="573.93" height="593.9" rx="43.98" ry="43.98"/><line class="i" x1="3.75" y1="461.29" x2="575.18" y2="461.29"/></g></g></g></svg>