<?xml version="1.0" encoding="UTF-8"?><svg xmlns="http://www.w3.org/2000/svg" viewBox="0 0 389.91 380.52"><defs><style>.d,.e,.f{stroke:#fff;stroke-miterlimit:10;}.d,.f,.g{fill:none;}.d,.g{stroke-width:3px;}.e{fill:#54b5b1;stroke-width:5px;}.h{fill:#fff;}.g{stroke:#e9a72d;stroke-linecap:round;stroke-linejoin:round;}</style></defs><g id="a"/><g id="b"><g id="c"><g><rect class="e" x="7.2" y="-2.2" width="375.52" height="384.91" rx="17.11" ry="17.11" transform="translate(4.7 385.22) rotate(-90)"/><g><path class="h" d="M137.45,56.54v34.3h-6.71v-22.25l-9.67,15.91-.79,.03-9.63-15.86v22.16h-6.76V56.54h6.96l9.83,16.2,9.79-16.2h6.99Z"/><path class="h" d="M165.63,87.78c-2.52,2.5-5.59,3.75-9.21,3.75s-6.69-1.25-9.19-3.75c-2.5-2.5-3.75-5.56-3.75-9.19s1.25-6.69,3.75-9.19c2.5-2.5,5.56-3.75,9.19-3.75s6.7,1.25,9.21,3.75c2.52,2.5,3.77,5.56,3.77,9.19s-1.26,6.69-3.77,9.19Zm-13.94-4.34c1.26,1.27,2.83,1.91,4.73,1.91s3.48-.64,4.75-1.91c1.27-1.27,1.91-2.89,1.91-4.85s-.64-3.58-1.91-4.85c-1.27-1.27-2.86-1.91-4.75-1.91s-3.47,.64-4.73,1.91c-1.26,1.27-1.89,2.89-1.89,4.85s.63,3.58,1.89,4.85Z"/><path class="h" d="M188.71,65.66c2.68,0,4.89,.9,6.64,2.69,1.75,1.8,2.62,4.28,2.62,7.45v15.04h-6.32v-14.26c0-1.63-.44-2.88-1.32-3.75-.88-.87-2.06-1.3-3.53-1.3-1.63,0-2.94,.51-3.92,1.52-.98,1.01-1.47,2.53-1.47,4.56v13.23h-6.32v-24.5h6.32v2.74c1.54-2.29,3.97-3.43,7.3-3.43Z"/><path class="h" d="M223.15,56.54h6.32v34.3h-6.32v-2.89c-1.86,2.38-4.51,3.58-7.94,3.58s-6.12-1.25-8.45-3.75c-2.34-2.5-3.5-5.56-3.5-9.19s1.17-6.69,3.5-9.19c2.34-2.5,5.15-3.75,8.45-3.75s6.08,1.19,7.94,3.58v-12.69Zm-11.64,27.02c1.29,1.29,2.92,1.94,4.88,1.94s3.58-.64,4.85-1.94c1.27-1.29,1.91-2.95,1.91-4.97s-.64-3.68-1.91-4.97c-1.27-1.29-2.89-1.94-4.85-1.94s-3.59,.65-4.88,1.94-1.94,2.95-1.94,4.97,.64,3.68,1.94,4.97Z"/><path class="h" d="M255.1,66.34h6.32v24.5h-6.32v-2.89c-1.9,2.38-4.56,3.58-7.99,3.58s-6.07-1.25-8.4-3.75c-2.34-2.5-3.5-5.56-3.5-9.19s1.17-6.69,3.5-9.19c2.33-2.5,5.14-3.75,8.4-3.75,3.43,0,6.09,1.19,7.99,3.58v-2.89Zm-11.66,17.22c1.27,1.29,2.89,1.94,4.85,1.94s3.58-.64,4.88-1.94,1.94-2.95,1.94-4.97-.65-3.68-1.94-4.97c-1.29-1.29-2.92-1.94-4.88-1.94s-3.58,.65-4.85,1.94c-1.27,1.29-1.91,2.95-1.91,4.97s.64,3.68,1.91,4.97Z"/><path class="h" d="M284.35,66.34h6.76l-8.93,24.54c-1.27,3.5-2.96,6.04-5.07,7.63-2.1,1.59-4.72,2.3-7.85,2.13v-5.88c1.7,.03,3.05-.33,4.04-1.08,1-.75,1.79-1.96,2.38-3.63l-10.04-23.72h6.91l6.39,16.47,5.42-16.47Z"/></g><g><path class="h" d="M143.83,306.93c-1.4,0-2.58-.31-3.54-.94-.96-.63-1.63-1.48-2.02-2.56l2.38-1.39c.55,1.44,1.64,2.16,3.25,2.16,.78,0,1.35-.14,1.72-.42,.36-.28,.54-.64,.54-1.07,0-.5-.22-.88-.67-1.16-.44-.28-1.24-.58-2.38-.9-.63-.19-1.17-.38-1.61-.57-.44-.19-.88-.44-1.31-.76-.44-.32-.77-.72-1-1.2-.23-.49-.34-1.05-.34-1.7,0-1.28,.45-2.3,1.36-3.06,.91-.76,2-1.14,3.28-1.14,1.14,0,2.15,.28,3.02,.84,.87,.56,1.55,1.34,2.03,2.33l-2.34,1.35c-.57-1.21-1.47-1.82-2.71-1.82-.58,0-1.03,.13-1.36,.39s-.49,.6-.49,1.02c0,.45,.18,.81,.55,1.08,.37,.28,1.08,.58,2.13,.9,.43,.13,.76,.24,.98,.31,.22,.07,.53,.19,.91,.34,.38,.16,.68,.3,.89,.43s.45,.32,.72,.54c.27,.23,.47,.46,.62,.71s.26,.54,.36,.88c.1,.34,.15,.72,.15,1.12,0,1.31-.47,2.34-1.42,3.11-.95,.77-2.18,1.15-3.71,1.15Z"/><path class="h" d="M157.83,296.55h2.61v10.1h-2.61v-1.13c-.63,.94-1.64,1.41-3.01,1.41-1.1,0-2.02-.37-2.74-1.11s-1.08-1.76-1.08-3.07v-6.2h2.61v5.88c0,.67,.18,1.19,.55,1.54,.36,.36,.85,.54,1.45,.54,.67,0,1.21-.21,1.62-.63,.4-.42,.61-1.04,.61-1.88v-5.45Z"/><path class="h" d="M168.94,296.27c1.1,0,2.02,.37,2.74,1.11,.72,.74,1.08,1.76,1.08,3.07v6.2h-2.61v-5.88c0-.67-.18-1.19-.54-1.55-.36-.36-.85-.54-1.46-.54-.67,0-1.21,.21-1.62,.63-.4,.42-.61,1.04-.61,1.88v5.45h-2.61v-10.1h2.61v1.13c.63-.94,1.64-1.41,3.01-1.41Z"/><path class="h" d="M181.1,296.27c1.1,0,2.02,.37,2.74,1.11,.72,.74,1.08,1.76,1.08,3.07v6.2h-2.61v-5.88c0-.67-.18-1.19-.55-1.55-.36-.36-.85-.54-1.45-.54-.67,0-1.21,.21-1.62,.63-.4,.42-.61,1.04-.61,1.88v5.45h-2.61v-10.1h2.61v1.13c.63-.94,1.64-1.41,3.01-1.41Z"/><path class="h" d="M194.01,296.55h2.79l-3.68,10.12c-.53,1.44-1.22,2.49-2.09,3.14-.87,.65-1.95,.95-3.24,.88v-2.42c.7,.01,1.26-.13,1.67-.44,.41-.31,.74-.81,.98-1.5l-4.14-9.78h2.85l2.63,6.79,2.23-6.79Z"/><path class="h" d="M215.46,296.55h2.5l-2.95,10.1h-2.55l-1.91-6.12-1.91,6.12h-2.55l-2.97-10.1h2.75l1.73,6.2,1.84-6.2h2.47l1.84,6.22,1.71-6.22Z"/><path class="h" d="M221.44,295.34c-.43,0-.8-.16-1.12-.47s-.47-.69-.47-1.12,.16-.81,.47-1.13,.69-.49,1.12-.49,.83,.16,1.14,.49,.47,.7,.47,1.13-.16,.8-.47,1.12-.7,.47-1.14,.47Zm-1.29,11.31v-10.1h2.61v10.1h-2.61Z"/><path class="h" d="M231.42,299.05h-2.28v4.2c0,.35,.09,.61,.26,.77,.17,.16,.43,.25,.77,.27s.75,.02,1.25,0v2.36c-1.79,.2-3.05,.03-3.79-.5-.73-.54-1.1-1.5-1.1-2.89v-4.2h-1.76v-2.5h1.76v-2.04l2.61-.79v2.83h2.28v2.5Z"/><path class="h" d="M239.38,296.27c1.1,0,2.02,.37,2.74,1.11,.72,.74,1.08,1.76,1.08,3.07v6.2h-2.61v-5.88c0-.67-.18-1.19-.55-1.55-.36-.36-.85-.54-1.45-.54-.67,0-1.21,.21-1.62,.63-.4,.42-.61,1.04-.61,1.88v5.45h-2.61v-14.14h2.61v5.17c.63-.94,1.64-1.41,3.01-1.41Z"/><path class="h" d="M145.42,320.14c1.1,0,2.02,.37,2.74,1.11,.72,.74,1.08,1.76,1.08,3.07v6.2h-2.61v-5.88c0-.67-.18-1.19-.55-1.55-.36-.36-.85-.54-1.45-.54-.67,0-1.21,.21-1.62,.63-.4,.42-.61,1.04-.61,1.88v5.45h-2.61v-14.14h2.61v5.17c.63-.94,1.64-1.41,3.01-1.41Z"/><path class="h" d="M153.25,319.21c-.43,0-.81-.16-1.12-.47-.32-.32-.48-.69-.48-1.12s.16-.81,.48-1.13c.32-.32,.69-.49,1.12-.49s.82,.16,1.14,.49,.47,.7,.47,1.13-.16,.8-.47,1.12-.7,.47-1.14,.47Zm-1.29,11.31v-10.1h2.61v10.1h-2.61Z"/><path class="h" d="M165.19,320.42h2.54v9.62c0,1.56-.51,2.75-1.54,3.58s-2.27,1.23-3.73,1.23c-1.09,0-2.05-.21-2.88-.63-.83-.42-1.46-1.03-1.91-1.84l2.22-1.27c.51,.94,1.39,1.41,2.65,1.41,.82,0,1.47-.22,1.94-.65,.47-.43,.71-1.04,.71-1.84v-1.09c-.77,1.02-1.85,1.54-3.23,1.54s-2.62-.5-3.59-1.5c-.96-1-1.44-2.23-1.44-3.67s.49-2.65,1.46-3.66,2.16-1.51,3.58-1.51,2.46,.51,3.23,1.54v-1.25Zm-4.86,6.88c.53,.52,1.21,.78,2.03,.78s1.5-.26,2.03-.78c.53-.52,.8-1.18,.8-1.99s-.27-1.45-.8-1.97c-.53-.52-1.21-.78-2.03-.78s-1.5,.26-2.03,.78c-.53,.52-.8,1.18-.8,1.97s.27,1.47,.8,1.99Z"/><path class="h" d="M176.22,320.14c1.1,0,2.02,.37,2.74,1.11,.72,.74,1.08,1.76,1.08,3.07v6.2h-2.61v-5.88c0-.67-.18-1.19-.55-1.55-.36-.36-.85-.54-1.45-.54-.67,0-1.21,.21-1.62,.63-.4,.42-.61,1.04-.61,1.88v5.45h-2.61v-14.14h2.61v5.17c.63-.94,1.64-1.41,3.01-1.41Z"/><path class="h" d="M199.69,320.42h2.5l-2.95,10.1h-2.55l-1.91-6.12-1.91,6.12h-2.55l-2.97-10.1h2.75l1.73,6.2,1.84-6.2h2.47l1.84,6.22,1.71-6.22Z"/><path class="h" d="M205.67,319.21c-.43,0-.81-.16-1.12-.47-.32-.32-.48-.69-.48-1.12s.16-.81,.48-1.13c.32-.32,.69-.49,1.12-.49s.82,.16,1.14,.49,.47,.7,.47,1.13-.16,.8-.47,1.12-.7,.47-1.14,.47Zm-1.29,11.31v-10.1h2.61v10.1h-2.61Z"/><path class="h" d="M215.49,320.14c1.1,0,2.02,.37,2.74,1.11,.72,.74,1.08,1.76,1.08,3.07v6.2h-2.61v-5.88c0-.67-.18-1.19-.54-1.55-.36-.36-.85-.54-1.46-.54-.67,0-1.21,.21-1.62,.63-.4,.42-.61,1.04-.61,1.88v5.45h-2.61v-10.1h2.61v1.13c.63-.94,1.64-1.41,3.01-1.41Z"/><path class="h" d="M229.69,316.38h2.61v14.14h-2.61v-1.19c-.77,.98-1.86,1.47-3.27,1.47s-2.52-.52-3.48-1.55c-.96-1.03-1.44-2.29-1.44-3.79s.48-2.76,1.44-3.79c.96-1.03,2.12-1.54,3.48-1.54s2.5,.49,3.27,1.47v-5.23Zm-4.8,11.14c.53,.53,1.2,.8,2.01,.8s1.47-.27,2-.8c.53-.53,.79-1.21,.79-2.05s-.26-1.52-.79-2.05-1.19-.8-2-.8-1.48,.27-2.01,.8-.8,1.22-.8,2.05,.27,1.52,.8,2.05Z"/><path class="h" d="M237.51,323.29c0,.27,.18,.49,.54,.66,.36,.17,.79,.32,1.3,.44,.51,.13,1.02,.29,1.54,.48,.51,.2,.95,.52,1.3,.98,.36,.46,.54,1.03,.54,1.72,0,1.04-.39,1.83-1.16,2.39-.77,.56-1.74,.84-2.9,.84-2.07,0-3.49-.8-4.24-2.4l2.26-1.27c.3,.88,.96,1.31,1.98,1.31,.93,0,1.39-.29,1.39-.87,0-.27-.18-.49-.54-.66-.36-.17-.79-.32-1.3-.46-.51-.13-1.02-.3-1.54-.5s-.95-.52-1.3-.96c-.36-.44-.54-.99-.54-1.65,0-1,.37-1.78,1.1-2.35s1.65-.86,2.74-.86c.82,0,1.57,.18,2.24,.56,.67,.37,1.21,.9,1.6,1.58l-2.22,1.21c-.32-.69-.86-1.03-1.62-1.03-.34,0-.62,.07-.84,.22-.22,.15-.33,.35-.33,.61Z"/></g><line class="f" x1="9.25" y1="134.59" x2="380.66" y2="134.59"/><g><g><path class="d" d="M234.25,208.26c5.9,0,10.69,4.78,10.69,10.69s-4.78,10.69-10.69,10.69h-63"/><path class="d" d="M259.4,218.95c5.9,0,10.69,4.78,10.69,10.69s-4.78,10.69-9.15,10.69h-89.68"/><path class="d" d="M252.98,272.4c5.9,0,10.69-4.78,10.69-10.69s-4.78-10.69-10.69-10.69h-81.73"/></g><g><path class="g" d="M149.9,248.24c-8.16-6.65-13.38-16.79-13.38-28.14,0-20.04,16.25-36.29,36.29-36.29,16.9,0,31.1,11.55,35.14,27.18"/><line class="g" x1="172.82" y1="156.41" x2="172.82" y2="173.27"/><line class="g" x1="140.98" y1="164.95" x2="149.41" y2="179.54"/><line class="g" x1="117.67" y1="188.25" x2="132.27" y2="196.68"/><line class="g" x1="109.14" y1="220.1" x2="125.99" y2="220.1"/><line class="g" x1="117.67" y1="251.94" x2="132.27" y2="243.51"/><line class="g" x1="227.97" y1="188.25" x2="213.37" y2="196.68"/><line class="g" x1="204.66" y1="164.95" x2="196.23" y2="179.54"/></g></g></g></g></g></svg>