<?xml version="1.0" encoding="UTF-8"?><svg xmlns="http://www.w3.org/2000/svg" viewBox="0 0 389.91 380.52"><defs><style>.d{fill:#fff;}.e,.f{stroke-miterlimit:10;}.e,.f,.g{opacity:.2;}.e,.f,.h{stroke:#fff;}.e,.h{fill:none;}.f{fill:#19192d;stroke-width:5px;}.h{stroke-linecap:round;stroke-linejoin:round;stroke-width:3px;}</style></defs><g id="a"/><g id="b"><g id="c"><g><line class="e" x1="11.01" y1="134.59" x2="382.42" y2="134.59"/><rect class="f" x="7.2" y="-2.2" width="375.52" height="384.91" rx="17.11" ry="17.11" transform="translate(4.7 385.22) rotate(-90)"/><g class="g"><g><path class="d" d="M125.07,56.54v6.47h-9.26v27.83h-6.76v-27.83h-9.21v-6.47h25.23Z"/><path class="d" d="M142.02,66.34h6.32v24.5h-6.32v-2.74c-1.54,2.29-3.97,3.43-7.3,3.43-2.68,0-4.89-.9-6.64-2.69-1.75-1.8-2.62-4.28-2.62-7.45v-15.04h6.32v14.26c0,1.63,.44,2.88,1.32,3.75s2.06,1.3,3.53,1.3c1.63,0,2.94-.51,3.92-1.52s1.47-2.53,1.47-4.56v-13.23Z"/><path class="d" d="M160.69,81.19c.85,3.07,3.15,4.61,6.91,4.61,2.42,0,4.25-.82,5.49-2.45l5.1,2.94c-2.42,3.5-5.98,5.24-10.68,5.24-4.05,0-7.3-1.22-9.75-3.67s-3.67-5.54-3.67-9.26,1.21-6.77,3.63-9.24c2.42-2.47,5.52-3.7,9.31-3.7,3.59,0,6.56,1.24,8.89,3.72,2.34,2.48,3.5,5.55,3.5,9.21,0,.82-.08,1.68-.25,2.6h-18.47Zm-.1-4.9h12.5c-.36-1.67-1.1-2.91-2.23-3.72-1.13-.82-2.41-1.22-3.85-1.22-1.7,0-3.1,.43-4.21,1.3-1.11,.87-1.85,2.08-2.21,3.65Z"/><path class="d" d="M189.9,73.3c0,.65,.43,1.18,1.3,1.59,.87,.41,1.92,.77,3.16,1.08,1.24,.31,2.48,.7,3.72,1.18,1.24,.47,2.29,1.27,3.16,2.38,.87,1.11,1.3,2.5,1.3,4.17,0,2.52-.94,4.45-2.82,5.81-1.88,1.36-4.22,2.03-7.03,2.03-5.03,0-8.46-1.94-10.29-5.83l5.49-3.09c.72,2.12,2.32,3.19,4.8,3.19,2.25,0,3.38-.7,3.38-2.11,0-.65-.43-1.18-1.3-1.59-.87-.41-1.92-.78-3.16-1.1-1.24-.33-2.48-.74-3.72-1.23-1.24-.49-2.3-1.27-3.16-2.33-.87-1.06-1.3-2.39-1.3-3.99,0-2.42,.89-4.32,2.67-5.71,1.78-1.39,3.99-2.08,6.64-2.08,1.99,0,3.81,.45,5.44,1.35,1.63,.9,2.92,2.18,3.87,3.85l-5.39,2.94c-.78-1.67-2.09-2.5-3.92-2.5-.82,0-1.49,.18-2.03,.54-.54,.36-.81,.85-.81,1.47Z"/><path class="d" d="M226.06,56.54h6.32v34.3h-6.32v-2.89c-1.86,2.38-4.51,3.58-7.94,3.58s-6.12-1.25-8.45-3.75c-2.34-2.5-3.5-5.56-3.5-9.19s1.17-6.69,3.5-9.19c2.34-2.5,5.15-3.75,8.45-3.75s6.08,1.19,7.94,3.58v-12.69Zm-11.64,27.02c1.29,1.29,2.92,1.94,4.88,1.94s3.58-.64,4.85-1.94c1.27-1.29,1.91-2.95,1.91-4.97s-.64-3.68-1.91-4.97c-1.27-1.29-2.89-1.94-4.85-1.94s-3.59,.65-4.88,1.94-1.94,2.95-1.94,4.97,.64,3.68,1.94,4.97Z"/><path class="d" d="M258.01,66.34h6.32v24.5h-6.32v-2.89c-1.9,2.38-4.56,3.58-7.99,3.58s-6.07-1.25-8.4-3.75c-2.34-2.5-3.5-5.56-3.5-9.19s1.17-6.69,3.5-9.19c2.33-2.5,5.14-3.75,8.4-3.75,3.43,0,6.09,1.19,7.99,3.58v-2.89Zm-11.66,17.22c1.27,1.29,2.89,1.94,4.85,1.94s3.58-.64,4.88-1.94,1.94-2.95,1.94-4.97-.65-3.68-1.94-4.97c-1.29-1.29-2.92-1.94-4.88-1.94s-3.58,.65-4.85,1.94c-1.27,1.29-1.91,2.95-1.91,4.97s.64,3.68,1.91,4.97Z"/><path class="d" d="M287.26,66.34h6.76l-8.93,24.54c-1.27,3.5-2.96,6.04-5.07,7.63-2.1,1.59-4.72,2.3-7.85,2.13v-5.88c1.7,.03,3.05-.33,4.04-1.08,1-.75,1.79-1.96,2.38-3.63l-10.04-23.72h6.91l6.39,16.47,5.42-16.47Z"/></g></g><g class="g"><g><path class="d" d="M153.04,302.79h1.86v14.14h-1.86v-6.36h-6.87v6.36h-1.88v-14.14h1.88v6h6.87v-6Z"/><path class="d" d="M159.48,312.68c.17,.9,.59,1.6,1.24,2.1,.65,.5,1.46,.75,2.41,.75,1.33,0,2.3-.49,2.91-1.47l1.5,.85c-.98,1.52-2.46,2.28-4.44,2.28-1.6,0-2.91-.5-3.91-1.5-1-1-1.5-2.27-1.5-3.81s.49-2.79,1.47-3.8c.98-1.01,2.26-1.52,3.82-1.52,1.48,0,2.69,.52,3.63,1.57,.94,1.04,1.4,2.3,1.4,3.77,0,.26-.02,.52-.06,.79h-8.46Zm3.5-4.46c-.94,0-1.72,.27-2.34,.8s-1,1.24-1.15,2.13h6.75c-.15-.96-.53-1.68-1.13-2.18-.61-.5-1.31-.75-2.12-.75Z"/><path class="d" d="M178.87,306.83h1.76v10.1h-1.76v-1.74c-.88,1.33-2.15,2-3.82,2-1.41,0-2.62-.52-3.62-1.55-1-1.03-1.5-2.29-1.5-3.77s.5-2.74,1.5-3.77c1-1.03,2.2-1.55,3.62-1.55,1.67,0,2.94,.67,3.82,2v-1.74Zm-3.6,8.67c1.02,0,1.88-.35,2.57-1.04,.69-.69,1.03-1.55,1.03-2.58s-.34-1.88-1.03-2.58c-.69-.69-1.54-1.04-2.57-1.04s-1.86,.35-2.54,1.04c-.69,.69-1.03,1.55-1.03,2.58s.34,1.88,1.03,2.58,1.54,1.04,2.54,1.04Z"/><path class="d" d="M190.87,306.83h1.9l-4.04,10.1h-2.06l-4.04-10.1h1.9l3.17,8.2,3.17-8.2Z"/><path class="d" d="M201.82,306.83h1.88l-4.12,10.73c-.43,1.14-1.03,2.02-1.81,2.62-.77,.6-1.67,.87-2.68,.8v-1.64c1.23,.09,2.14-.59,2.72-2.07l.19-.38-4.4-10.06h1.88l3.37,7.74,2.98-7.74Z"/><path class="d" d="M216.43,304.22c-1.78-.15-2.67,.62-2.67,2.3v.3h2.67v1.7h-2.67v8.4h-1.76v-8.4h-1.62v-1.7h1.62v-.3c0-1.36,.38-2.39,1.14-3.09,.76-.7,1.85-1,3.28-.91v1.7Z"/><path class="d" d="M226.24,315.65c-1.04,1.02-2.3,1.54-3.78,1.54s-2.74-.51-3.77-1.54-1.54-2.28-1.54-3.78,.51-2.75,1.54-3.78c1.03-1.02,2.29-1.54,3.77-1.54s2.74,.51,3.78,1.54c1.04,1.02,1.56,2.28,1.56,3.78s-.52,2.75-1.56,3.78Zm-3.78-.18c1.01,0,1.86-.34,2.54-1.03s1.03-1.54,1.03-2.57-.34-1.88-1.03-2.57c-.69-.69-1.54-1.03-2.54-1.03s-1.84,.34-2.53,1.03-1.03,1.54-1.03,2.57,.34,1.88,1.03,2.57c.69,.69,1.53,1.03,2.53,1.03Z"/><path class="d" d="M238.77,306.83h1.74v9.68c0,1.49-.5,2.66-1.52,3.48-1.01,.83-2.22,1.24-3.64,1.24-1.13,0-2.11-.21-2.93-.64-.82-.42-1.44-1.03-1.86-1.83l1.54-.87c.55,1.13,1.65,1.7,3.29,1.7,1.05,0,1.88-.28,2.47-.83,.6-.55,.9-1.31,.9-2.26v-1.43c-.89,1.35-2.16,2.02-3.8,2.02-1.44,0-2.66-.51-3.66-1.54-1-1.02-1.5-2.27-1.5-3.74s.5-2.71,1.5-3.73c1-1.02,2.21-1.53,3.66-1.53,1.66,0,2.92,.67,3.8,2v-1.74Zm-6.16,7.56c.69,.69,1.54,1.03,2.57,1.03s1.88-.34,2.57-1.03c.69-.69,1.03-1.54,1.03-2.57s-.34-1.86-1.03-2.55c-.69-.69-1.54-1.03-2.57-1.03s-1.88,.34-2.57,1.03c-.69,.69-1.03,1.54-1.03,2.55s.34,1.88,1.03,2.57Z"/></g></g><g class="g"><path class="h" d="M223.52,244.81h25.01c8.12,0,14.7-6.58,14.7-14.7,0-5.94-3.54-11.05-8.61-13.37,.58-1.82,.89-3.76,.89-5.77,0-10.57-8.57-19.14-19.14-19.14-3.03,0-5.89,.72-8.44,1.98-3.55-13.21-15.6-22.94-29.93-22.94-15.78,0-28.79,11.79-30.74,27.03-2.46-1.41-5.3-2.23-8.34-2.23-9.28,0-16.81,7.53-16.81,16.81"/><line class="h" x1="202.66" y1="228.44" x2="127.96" y2="228.44"/><line class="h" x1="230.22" y1="261.17" x2="155.52" y2="261.17"/><line class="h" x1="205.61" y1="244.81" x2="106.94" y2="244.81"/></g></g></g></g></svg>