<?xml version="1.0" encoding="UTF-8"?><svg xmlns="http://www.w3.org/2000/svg" viewBox="0 0 332.89 386.84"><defs><style>.d{letter-spacing:0em;}.e{font-size:23.16px;}.e,.f,.g,.h,.i{fill:#fff;}.e,.h,.j{font-family:Gilroy-Bold, Gilroy-Bold;}.k{letter-spacing:.1em;}.l{letter-spacing:-.01em;}.m{letter-spacing:.02em;}.f,.i{font-family:Gilroy-Medium, Gilroy-Medium;font-size:25.99px;}.n{fill:#e9a72d;}.o{fill:#fbedd5;}.p{fill:#32325b;}.q{letter-spacing:.02em;}.r{letter-spacing:.01em;}.s{letter-spacing:.04em;}.h{font-size:44.34px;}.t{letter-spacing:0em;}.i,.u{letter-spacing:.03em;}.v{letter-spacing:.03em;}.w{stroke-width:2px;}.w,.x{stroke:#fff;stroke-miterlimit:10;}.w,.x,.y{fill:none;}.a`{letter-spacing:.03em;}.aa{letter-spacing:.03em;}.ab{letter-spacing:.03em;}.ac{letter-spacing:.01em;}.ad{opacity:.2;}.ae{letter-spacing:-.05em;}.af{letter-spacing:.04em;}.j{fill:#19192d;font-size:18.39px;}.ag{letter-spacing:.03em;}.y{stroke:#111;stroke-linecap:round;stroke-linejoin:round;stroke-width:3px;}.ah{letter-spacing:0em;}.ai{fill:#232323;opacity:.3;}</style></defs><g id="a"/><g id="b"><g id="c"><g><path class="p" d="M320.09,45.87V358.17c0,17.6-14.27,28.12-31.86,28.12H31.86c-17.6,0-31.86-14.27-31.86-31.86V45.87C0,28.28,14.27,14.01,31.86,14.01H288.23c17.6,0,31.86,14.27,31.86,31.86Z"/><path class="ai" d="M320.09,126.6v233.75c0,14.63-11.86,26.5-26.5,26.5H26.5c-14.63,0-26.5-11.86-26.5-26.5V126.6"/><line class="w" x1=".7" y1="125.61" x2="320.09" y2="125.61"/><line class="x" x1=".7" y1="185.07" x2="320.09" y2="185.07"/><text class="i" transform="translate(228.89 165.94)"><tspan x="0" y="0">5MW</tspan></text><text class="f" transform="translate(34.35 224.83)"><tspan class="s" x="0" y="0">S</tspan><tspan class="u" x="16.11" y="0">om</tspan><tspan class="ac" x="55.39" y="0">e</tspan><tspan class="v" x="70.93" y="0">t</tspan><tspan class="ab" x="81.46" y="0">hing</tspan><tspan class="ae" x="136.06" y="0">’</tspan><tspan class="ab" x="141.34" y="0">s w</tspan><tspan class="d" x="182.09" y="0">r</tspan><tspan class="u" x="190.7" y="0">ong. </tspan><tspan class="r" x="4.08" y="31.19">L</tspan><tspan class="ac" x="17.02" y="31.19">e</tspan><tspan class="af" x="32.57" y="31.19">t</tspan><tspan class="ae" x="43.46" y="31.19">’</tspan><tspan class="ab" x="48.73" y="31.19">s find out mo</tspan><tspan class="d" x="212.22" y="31.19">r</tspan><tspan class="l" x="220.82" y="31.19">e</tspan><tspan class="u" x="235.71" y="31.19">. </tspan></text><text class="h" transform="translate(30.29 88.38)"><tspan class="aa" x="0" y="0">B</tspan><tspan class="ah" x="28.16" y="0">B</tspan><tspan class="a`" x="55.2" y="0">13</tspan></text><text class="e" transform="translate(32.63 165.94)"><tspan class="q" x="0" y="0">P</tspan><tspan class="t" x="14.13" y="0">O</tspan><tspan class="m" x="32.33" y="0">WER:</tspan></text><circle class="g" cx="281.16" cy="72.54" r="14.67"/><circle class="n" cx="281.16" cy="72.54" r="11.12"/><g><g class="ad"><path class="o" d="M253.18,295.92c14.59,0,26.41,11.83,26.41,26.41h0c0,14.59-11.83,26.41-26.41,26.41H66.91c-14.59,0-26.41-11.83-26.41-26.41h0c0-14.59,11.83-26.41,26.41-26.41H253.18m0-17H66.91c-23.94,0-43.41,19.48-43.41,43.41s19.48,43.41,43.41,43.41H253.18c23.94,0,43.41-19.48,43.41-43.41s-19.48-43.41-43.41-43.41h0Z"/></g><g><rect class="n" x="52.35" y="302.72" width="216.78" height="39.23" rx="19.61" ry="19.61"/><text class="j" transform="translate(73.36 329.48)"><tspan class="k" x="0" y="0">MARK FOR RE</tspan><tspan class="ag" x="135.71" y="0">P</tspan><tspan class="k" x="147.1" y="0">AIR</tspan></text></g></g><g><circle class="g" cx="312.29" cy="20.6" r="20.6"/><line class="y" x1="305.21" y1="27.68" x2="319.36" y2="13.53"/><line class="y" x1="319.36" y1="27.68" x2="305.21" y2="13.53"/></g></g></g></g></svg>