<?xml version="1.0" encoding="UTF-8"?><svg xmlns="http://www.w3.org/2000/svg" viewBox="0 0 1238.8 927.71"><defs><style>.d{fill:none;stroke:#fff;stroke-miterlimit:10;stroke-width:5px;}</style></defs><g id="a"/><g id="b"><g id="c"><path class="d" d="M2.5,132.69V46.06c0-24.06,19.5-43.56,43.56-43.56H232.64c24.65,0,44.64,19.98,44.64,44.64h0c0,17.57,14.25,31.82,31.82,31.82h506.33c18.73,0,33.91-15.18,33.91-33.91h0c0-23.5,19.05-42.54,42.54-42.54h43.98l51.02,.26h205.87c24.06,0,43.56,19.5,43.56,43.56V881.65c0,24.06-19.5,43.56-43.56,43.56H46.06c-24.06,0-43.56-19.5-43.56-43.56V120.65"/></g></g></svg>