<?xml version="1.0" encoding="utf-8"?>
<!-- Generator: Adobe Illustrator 26.3.1, SVG Export Plug-In . SVG Version: 6.00 Build 0)  -->
<svg version="1.1" id="Layer_1" xmlns="http://www.w3.org/2000/svg" xmlns:xlink="http://www.w3.org/1999/xlink" x="0px" y="0px"
	 viewBox="0 0 1924.6 1081" style="enable-background:new 0 0 1924.6 1081;" xml:space="preserve">
<style type="text/css">
	.st0{clip-path:url(#SVGID_00000068678398404809580080000005187682453030538383_);}
	.st1{fill:none;stroke:#FFFFFF;stroke-width:6;stroke-miterlimit:10;}
	.st2{fill:none;stroke:#FFFFFF;stroke-miterlimit:10;}
	.st3{fill:#FFFFFF;}
	.st4{fill:#19192D;}
	.st5{opacity:0.2;}
	.st6{fill:#FBEDD5;}
	.st7{fill:#54B5B1;stroke:#FFFFFF;stroke-width:5;stroke-miterlimit:10;}
	.st8{clip-path:url(#SVGID_00000017517277170287594050000012930090414702078129_);}
	.st9{fill:none;stroke:#FFFFFF;stroke-width:0.5;stroke-miterlimit:10;}
	.st10{fill:none;stroke:#FFFFFF;stroke-width:5;stroke-miterlimit:10;}
	.st11{opacity:0.2;fill:#19192D;enable-background:new    ;}
	.st12{fill:#E9A72D;}
	.st13{enable-background:new    ;}
	.st14{fill:#00E737;}
	.st15{fill:#E78D00;}
	.st16{fill:#B91300;}
	.st17{fill:#00E7FF;}
	.st18{fill:#32325B;}
</style>
<g>
	<g id="a">
	</g>
	<g id="b">
		<g id="c">
			<g>
				<defs>
					<polygon id="SVGID_1_" points="24.2,26.8 24.5,26.8 24.2,27 					"/>
				</defs>
				<defs>
					<polygon id="SVGID_00000180341897187141152660000013065625821657098122_" points="23.8,26.3 23.5,26.3 23.8,26 					"/>
				</defs>
				<clipPath id="SVGID_00000023263996147164064510000002281499527100991131_">
					<use xlink:href="#SVGID_1_"  style="overflow:visible;"/>
				</clipPath>
				
					<clipPath id="SVGID_00000134969615928206980670000015137892278182937767_" style="clip-path:url(#SVGID_00000023263996147164064510000002281499527100991131_);">
					<use xlink:href="#SVGID_00000180341897187141152660000013065625821657098122_"  style="overflow:visible;"/>
				</clipPath>
				<g style="clip-path:url(#SVGID_00000134969615928206980670000015137892278182937767_);enable-background:new    ;">
					
						<image style="overflow:visible;" width="7798" height="4264" xlink:href="A820B9125B23F1E6.png"  transform="matrix(0.24 0 0 0.24 -911.75 -485.17)">
					</image>
				</g>
			</g>
			<path class="st1" d="M126.2,83.3h1675.5c24.1,0,43.6,19.5,43.6,43.6v826.3c0,24.1-19.5,43.6-43.6,43.6H126.2
				c-24.1,0-43.6-19.5-43.6-43.6V126.8C82.7,102.8,102.2,83.3,126.2,83.3z"/>
			<g>
				<g>
					<line class="st2" x1="964" y1="0" x2="964" y2="83.3"/>
					<line class="st2" x1="964" y1="997.7" x2="964" y2="1080.9"/>
				</g>
				<line class="st2" x1="1.6" y1="540.5" x2="84.9" y2="540.5"/>
				<line class="st2" x1="1841.4" y1="540.5" x2="1924.6" y2="540.5"/>
			</g>
			<g>
				<g>
					<circle class="st3" cx="52.6" cy="63.9" r="6.8"/>
					<circle class="st3" cx="52.6" cy="1019.9" r="6.8"/>
				</g>
				<g>
					<circle class="st3" cx="1884.1" cy="63.9" r="6.8"/>
					<circle class="st3" cx="1884.1" cy="1019.9" r="6.8"/>
				</g>
			</g>
			<rect y="1" class="st4" width="1916.7" height="1080"/>
			<g class="st5">
				<path class="st6" d="M229.2,36.2c15.3,0,27.8,12.4,27.8,27.8v67.1c0,15.3-12.4,27.8-27.8,27.8H61.8c-15.3,0-27.8-12.4-27.8-27.8
					V64c0-15.3,12.4-27.8,27.8-27.8L229.2,36.2 M229.2,19.2H61.8c-24.7,0-44.8,20.1-44.8,44.8v67.1c0,24.7,20.1,44.8,44.8,44.8
					h167.4c24.7,0,44.8-20.1,44.8-44.8V64C274,39.3,253.9,19.2,229.2,19.2L229.2,19.2L229.2,19.2z"/>
			</g>
			<path class="st7" d="M82.7,213.2v-86.6c0-24.1,19.5-43.6,43.6-43.6h186.6c24.6,0,44.6,20,44.6,44.6l0,0
				c0,17.6,14.2,31.8,31.8,31.8h506.3c18.7,0,33.9-15.2,33.9-33.9l0,0c0-23.5,19-42.5,42.5-42.5h-99.2l69.5,0.3h330.6
				c24.1,0,43.6,19.5,43.6,43.6v835.3c0,24.1-19.5,43.6-43.6,43.6H126.2c-24.1,0-43.6-19.5-43.6-43.6v-761"/>
			<g>
				<defs>
					<path id="SVGID_00000107554804973625153730000003299475820011415455_" d="M82.7,213.2v-86.6c0-24.1,19.5-43.6,43.6-43.6h186.6
						c24.6,0,44.6,20,44.6,44.6l0,0c0,17.6,14.2,31.8,31.8,31.8h506.3c18.7,0,33.9-15.2,33.9-33.9l0,0c0-23.5,19-42.5,42.5-42.5
						h-99.2l69.5,0.3h330.6c24.1,0,43.6,19.5,43.6,43.6v835.3c0,24.1-19.5,43.6-43.6,43.6H126.2c-24.1,0-43.6-19.5-43.6-43.6v-761"
						/>
				</defs>
				<clipPath id="SVGID_00000043459153685942807670000004454244592971986320_">
					<use xlink:href="#SVGID_00000107554804973625153730000003299475820011415455_"  style="overflow:visible;"/>
				</clipPath>
				<g style="clip-path:url(#SVGID_00000043459153685942807670000004454244592971986320_);">
					<g>
						<g>
							<line class="st9" x1="56.1" y1="86.3" x2="56.1" y2="1003.7"/>
							<line class="st9" x1="84.1" y1="86.3" x2="84.1" y2="1003.7"/>
							<line class="st9" x1="112" y1="86.3" x2="112" y2="1003.7"/>
							<line class="st9" x1="140" y1="86.3" x2="140" y2="1003.7"/>
							<line class="st9" x1="168" y1="86.3" x2="168" y2="1003.7"/>
							<line class="st9" x1="196" y1="86.3" x2="196" y2="1003.7"/>
							<line class="st9" x1="223.9" y1="86.3" x2="223.9" y2="1003.7"/>
							<line class="st9" x1="251.9" y1="86.3" x2="251.9" y2="1003.7"/>
							<line class="st9" x1="307.9" y1="86.3" x2="307.9" y2="1003.7"/>
							<line class="st9" x1="363.8" y1="86.3" x2="363.8" y2="1003.7"/>
							<line class="st9" x1="419.8" y1="86.3" x2="419.8" y2="1003.7"/>
							<line class="st9" x1="503.7" y1="86.3" x2="503.7" y2="1003.7"/>
							<line class="st9" x1="587.7" y1="86.3" x2="587.7" y2="1003.7"/>
							<line class="st9" x1="671.6" y1="86.3" x2="671.6" y2="1003.7"/>
							<line class="st9" x1="755.5" y1="86.3" x2="755.5" y2="1003.7"/>
							<line class="st9" x1="839.5" y1="86.3" x2="839.5" y2="1003.7"/>
							<line class="st9" x1="279.9" y1="86.3" x2="279.9" y2="1003.7"/>
							<line class="st9" x1="335.9" y1="86.3" x2="335.9" y2="1003.7"/>
							<line class="st9" x1="391.8" y1="86.3" x2="391.8" y2="1003.7"/>
							<line class="st9" x1="475.7" y1="86.3" x2="475.7" y2="1003.7"/>
							<line class="st9" x1="559.7" y1="86.3" x2="559.7" y2="1003.7"/>
							<line class="st9" x1="615.6" y1="86.3" x2="615.6" y2="1003.7"/>
							<line class="st9" x1="727.5" y1="86.3" x2="727.5" y2="1003.7"/>
							<line class="st9" x1="811.5" y1="86.3" x2="811.5" y2="1003.7"/>
							<line class="st9" x1="895.4" y1="86.3" x2="895.4" y2="1003.7"/>
							<line class="st9" x1="951.4" y1="86.3" x2="951.4" y2="1003.7"/>
							<line class="st9" x1="1007.3" y1="86.3" x2="1007.3" y2="1003.7"/>
							<line class="st9" x1="1091.3" y1="86.3" x2="1091.3" y2="1003.7"/>
							<line class="st9" x1="1175.2" y1="86.3" x2="1175.2" y2="1003.7"/>
							<line class="st9" x1="1231.2" y1="86.3" x2="1231.2" y2="1003.7"/>
							<line class="st9" x1="1343.1" y1="86.3" x2="1343.1" y2="1003.7"/>
							<line class="st9" x1="1427" y1="86.3" x2="1427" y2="1003.7"/>
							<line class="st9" x1="447.8" y1="86.3" x2="447.8" y2="1003.7"/>
							<line class="st9" x1="531.7" y1="86.3" x2="531.7" y2="1003.7"/>
							<line class="st9" x1="643.6" y1="86.3" x2="643.6" y2="1003.7"/>
							<line class="st9" x1="699.6" y1="86.3" x2="699.6" y2="1003.7"/>
							<line class="st9" x1="783.5" y1="86.3" x2="783.5" y2="1003.7"/>
							<line class="st9" x1="867.4" y1="86.3" x2="867.4" y2="1003.7"/>
							<line class="st9" x1="923.4" y1="86.3" x2="923.4" y2="1003.7"/>
							<line class="st9" x1="979.3" y1="86.3" x2="979.3" y2="1003.7"/>
							<line class="st9" x1="1063.3" y1="86.3" x2="1063.3" y2="1003.7"/>
							<line class="st9" x1="1147.2" y1="86.3" x2="1147.2" y2="1003.7"/>
							<line class="st9" x1="1259.1" y1="86.3" x2="1259.1" y2="1003.7"/>
							<line class="st9" x1="1315.1" y1="86.3" x2="1315.1" y2="1003.7"/>
							<line class="st9" x1="1399" y1="86.3" x2="1399" y2="1003.7"/>
							<line class="st9" x1="1482.9" y1="86.3" x2="1482.9" y2="1003.7"/>
							<line class="st9" x1="1538.9" y1="86.3" x2="1538.9" y2="1003.7"/>
							<line class="st9" x1="1594.9" y1="86.3" x2="1594.9" y2="1003.7"/>
							<line class="st9" x1="1035.3" y1="86.3" x2="1035.3" y2="1003.7"/>
							<line class="st9" x1="1119.2" y1="86.3" x2="1119.2" y2="1003.7"/>
							<line class="st9" x1="1203.2" y1="86.3" x2="1203.2" y2="1003.7"/>
							<line class="st9" x1="1287.1" y1="86.3" x2="1287.1" y2="1003.7"/>
							<line class="st9" x1="1371" y1="86.3" x2="1371" y2="1003.7"/>
							<line class="st9" x1="1455" y1="86.3" x2="1455" y2="1003.7"/>
							<line class="st9" x1="1510.9" y1="86.3" x2="1510.9" y2="1003.7"/>
							<line class="st9" x1="1566.9" y1="86.3" x2="1566.9" y2="1003.7"/>
							<line class="st9" x1="1622.8" y1="86.3" x2="1622.8" y2="1003.7"/>
							<line class="st9" x1="1650.8" y1="86.3" x2="1650.8" y2="1003.7"/>
							<line class="st9" x1="1678.8" y1="86.3" x2="1678.8" y2="1003.7"/>
							<line class="st9" x1="1706.8" y1="86.3" x2="1706.8" y2="1003.7"/>
							<line class="st9" x1="1734.8" y1="86.3" x2="1734.8" y2="1003.7"/>
							<line class="st9" x1="1762.7" y1="86.3" x2="1762.7" y2="1003.7"/>
							<line class="st9" x1="1790.7" y1="86.3" x2="1790.7" y2="1003.7"/>
							<line class="st9" x1="1818.7" y1="86.3" x2="1818.7" y2="1003.7"/>
						</g>
						<g>
							<line class="st9" x1="52.6" y1="559.3" x2="1818.7" y2="559.3"/>
							<line class="st9" x1="52.6" y1="475.3" x2="1818.7" y2="475.3"/>
							<line class="st9" x1="52.6" y1="643.2" x2="1818.7" y2="643.2"/>
							<line class="st9" x1="52.6" y1="587.2" x2="1818.7" y2="587.2"/>
							<line class="st9" x1="52.6" y1="503.3" x2="1818.7" y2="503.3"/>
							<line class="st9" x1="52.6" y1="419.4" x2="1818.7" y2="419.4"/>
							<line class="st9" x1="52.6" y1="363.4" x2="1818.7" y2="363.4"/>
							<line class="st9" x1="52.6" y1="307.5" x2="1818.7" y2="307.5"/>
							<line class="st9" x1="52.6" y1="615.2" x2="1818.7" y2="615.2"/>
							<line class="st9" x1="52.6" y1="531.3" x2="1818.7" y2="531.3"/>
							<line class="st9" x1="52.6" y1="447.4" x2="1818.7" y2="447.4"/>
							<line class="st9" x1="52.6" y1="391.4" x2="1818.7" y2="391.4"/>
							<line class="st9" x1="52.6" y1="335.4" x2="1818.7" y2="335.4"/>
							<line class="st9" x1="52.6" y1="279.5" x2="1818.7" y2="279.5"/>
							<line class="st9" x1="52.6" y1="251.5" x2="1818.7" y2="251.5"/>
							<line class="st9" x1="52.6" y1="223.5" x2="1818.7" y2="223.5"/>
							<line class="st9" x1="52.6" y1="195.5" x2="1818.7" y2="195.5"/>
							<line class="st9" x1="52.6" y1="167.6" x2="1818.7" y2="167.6"/>
							<line class="st9" x1="52.6" y1="139.6" x2="1818.7" y2="139.6"/>
							<line class="st9" x1="52.6" y1="111.6" x2="1818.7" y2="111.6"/>
							<line class="st9" x1="52.6" y1="83.6" x2="1818.7" y2="83.6"/>
						</g>
						<g>
							<line class="st9" x1="52.6" y1="1062.9" x2="1818.7" y2="1062.9"/>
							<line class="st9" x1="52.6" y1="1006.9" x2="1818.7" y2="1006.9"/>
							<line class="st9" x1="52.6" y1="951" x2="1818.7" y2="951"/>
							<line class="st9" x1="52.6" y1="895" x2="1818.7" y2="895"/>
							<line class="st9" x1="52.6" y1="1034.9" x2="1818.7" y2="1034.9"/>
							<line class="st9" x1="52.6" y1="978.9" x2="1818.7" y2="978.9"/>
							<line class="st9" x1="52.6" y1="923" x2="1818.7" y2="923"/>
							<line class="st9" x1="52.6" y1="867" x2="1818.7" y2="867"/>
							<line class="st9" x1="52.6" y1="839" x2="1818.7" y2="839"/>
							<line class="st9" x1="52.6" y1="811.1" x2="1818.7" y2="811.1"/>
							<line class="st9" x1="52.6" y1="783.1" x2="1818.7" y2="783.1"/>
							<line class="st9" x1="52.6" y1="755.1" x2="1818.7" y2="755.1"/>
							<line class="st9" x1="52.6" y1="727.1" x2="1818.7" y2="727.1"/>
							<line class="st9" x1="52.6" y1="699.2" x2="1818.7" y2="699.2"/>
							<line class="st9" x1="52.6" y1="671.2" x2="1818.7" y2="671.2"/>
						</g>
					</g>
				</g>
			</g>
			<g>
				<line class="st10" x1="980.7" y1="83" x2="873" y2="83"/>
				<line class="st10" x1="873" y1="55.2" x2="873" y2="110.5"/>
			</g>
			<path class="st11" d="M54.3,55.2h163.3c11.2,0,20.2,9.1,20.2,20.2v62c0,11.2-9.1,20.2-20.2,20.2H54.3c-11.2,0-20.2-9.1-20.2-20.2
				v-62C34,64.3,43.1,55.2,54.3,55.2z"/>
			<path class="st12" d="M63.2,46.3h166.9c11.2,0,20.2,9.1,20.2,20.2v62c0,11.2-9.1,20.2-20.2,20.2H63.2c-11.2,0-20.2-9.1-20.2-20.2
				v-62C43,55.3,52,46.3,63.2,46.3z"/>
			<g class="st13">
				<path class="st3" d="M459.4,96.1h10.9v5.4h-16.5V72.9h5.6V96.1z"/>
			</g>
			<g class="st13">
				<path class="st3" d="M499.9,97.7c-2.9,2.9-6.4,4.3-10.5,4.3c-4.1,0-7.6-1.4-10.5-4.3c-2.9-2.9-4.3-6.4-4.3-10.6
					c0-4.2,1.4-7.7,4.3-10.6c2.9-2.9,6.4-4.3,10.5-4.3c4.1,0,7.6,1.4,10.5,4.3c2.9,2.9,4.3,6.4,4.3,10.6
					C504.2,91.3,502.7,94.8,499.9,97.7z M482.8,93.9c1.8,1.8,4,2.6,6.6,2.6c2.6,0,4.8-0.9,6.6-2.6c1.8-1.8,2.7-4,2.7-6.7
					c0-2.7-0.9-5-2.7-6.7c-1.8-1.8-4-2.7-6.6-2.7c-2.6,0-4.8,0.9-6.6,2.7c-1.8,1.8-2.7,4-2.7,6.7C480.1,89.9,481,92.1,482.8,93.9z"
					/>
			</g>
			<g class="st13">
				<path class="st3" d="M525.8,102c-4.3,0-7.9-1.4-10.7-4.3c-2.8-2.9-4.2-6.4-4.2-10.6c0-4.2,1.4-7.7,4.2-10.6
					c2.8-2.8,6.4-4.3,10.7-4.3c2.6,0,5,0.6,7.2,1.8c2.2,1.2,3.9,2.9,5.1,4.9l-4.9,2.8c-0.7-1.3-1.7-2.3-3-3
					c-1.3-0.7-2.8-1.1-4.4-1.1c-2.8,0-5,0.9-6.7,2.6c-1.7,1.7-2.6,4-2.6,6.8c0,2.7,0.9,5,2.6,6.7c1.7,1.7,3.9,2.6,6.7,2.6
					c1.6,0,3.1-0.4,4.4-1.1s2.3-1.7,3-3l4.9,2.8c-1.2,2.1-2.9,3.7-5.1,4.9S528.4,102,525.8,102z"/>
			</g>
			<g class="st13">
				<path class="st3" d="M564.3,101.4l-1.8-5.1h-11.7l-1.7,5.1h-6.1l10-28.6h7l10.1,28.6H564.3z M552.6,91h8l-4.1-11.7L552.6,91z"/>
			</g>
			<g class="st13">
				<path class="st3" d="M593.7,72.9v5.4h-7.7v23.2h-5.6V78.3h-7.7v-5.4H593.7z"/>
				<path class="st3" d="M600.9,72.9h5.6v28.6h-5.6V72.9z"/>
				<path class="st3" d="M632.4,72.9h5.6v28.6h-4.3L621.5,84v17.5h-5.6V72.9h4.3l12.3,17.4V72.9z"/>
				<path class="st3" d="M675.5,86.1v2.2c0,4.1-1.3,7.4-3.9,9.9c-2.6,2.5-6,3.8-10.1,3.8c-4.4,0-8.1-1.4-11-4.3
					c-2.9-2.9-4.3-6.4-4.3-10.5c0-4.2,1.4-7.7,4.3-10.6c2.9-2.9,6.4-4.3,10.7-4.3c2.7,0,5.1,0.6,7.3,1.8s3.9,2.8,5.1,4.8l-4.8,2.8
					c-0.7-1.2-1.7-2.1-3.1-2.9c-1.4-0.7-2.9-1.1-4.6-1.1c-2.7,0-5,0.9-6.7,2.7c-1.8,1.8-2.6,4-2.6,6.8c0,2.7,0.9,4.9,2.7,6.7
					c1.8,1.8,4.1,2.6,7.1,2.6c2.2,0,4-0.5,5.4-1.4c1.4-1,2.4-2.3,2.9-4h-8.7v-5H675.5z"/>
			</g>
			<g class="st13">
				<path class="st3" d="M714.9,78.3h-11.4V85h11.1v5.4h-11.1v11h-5.6V72.9h17.1V78.3z"/>
			</g>
			<g class="st13">
				<path class="st3" d="M740.6,101.4l-1.8-5.1h-11.7l-1.7,5.1h-6.1l10-28.6h7l10.1,28.6H740.6z M728.9,91h8l-4.1-11.7L728.9,91z"/>
			</g>
			<g class="st13">
				<path class="st3" d="M763,102c-3.2,0-5.8-0.9-7.8-2.7c-2-1.8-3.1-4.2-3.1-7.2V72.9h5.6v18.8c0,1.5,0.4,2.7,1.3,3.6
					s2.2,1.3,4,1.3s3.2-0.4,4-1.3s1.3-2.1,1.3-3.6V72.9h5.6v19.2c0,3-1,5.4-3.1,7.2C768.9,101.1,766.3,102,763,102z"/>
			</g>
			<g class="st13">
				<path class="st3" d="M788.8,96.1h10.9v5.4h-16.5V72.9h5.6V96.1z"/>
			</g>
			<g class="st13">
				<path class="st3" d="M822.9,72.9v5.4h-7.7v23.2h-5.6V78.3h-7.7v-5.4H822.9z"/>
			</g>
			<g class="st13">
				<path class="st3" d="M839.1,102c-2.8,0-5.2-0.6-7.1-1.9c-1.9-1.3-3.3-3-4.1-5.2l4.8-2.8c1.1,2.9,3.3,4.4,6.6,4.4
					c1.6,0,2.7-0.3,3.5-0.9c0.7-0.6,1.1-1.3,1.1-2.2c0-1-0.4-1.8-1.3-2.3s-2.5-1.2-4.8-1.8c-1.3-0.4-2.4-0.8-3.2-1.1
					c-0.9-0.4-1.8-0.9-2.7-1.5c-0.9-0.6-1.6-1.4-2-2.4c-0.5-1-0.7-2.1-0.7-3.4c0-2.6,0.9-4.6,2.8-6.2s4-2.3,6.6-2.3
					c2.3,0,4.3,0.6,6.1,1.7c1.8,1.1,3.1,2.7,4.1,4.7l-4.7,2.7c-1.1-2.4-3-3.7-5.5-3.7c-1.2,0-2.1,0.3-2.8,0.8c-0.7,0.5-1,1.2-1,2.1
					c0,0.9,0.4,1.6,1.1,2.2c0.7,0.6,2.2,1.2,4.3,1.8c0.9,0.3,1.5,0.5,2,0.6c0.4,0.2,1.1,0.4,1.8,0.7c0.8,0.3,1.4,0.6,1.8,0.9
					c0.4,0.3,0.9,0.6,1.4,1.1c0.5,0.5,1,0.9,1.2,1.4c0.3,0.5,0.5,1.1,0.7,1.8c0.2,0.7,0.3,1.4,0.3,2.3c0,2.6-1,4.7-2.9,6.3
					C844.7,101.2,842.2,102,839.1,102z"/>
			</g>
			<g>
				<line class="st10" x1="308.8" y1="83" x2="416.6" y2="83"/>
				<line class="st10" x1="416.6" y1="55.2" x2="416.6" y2="110.5"/>
			</g>
			<g>
				<g>
					<line class="st2" x1="964" y1="0" x2="964" y2="83.3"/>
					<line class="st2" x1="964" y1="997.7" x2="964" y2="1080.9"/>
				</g>
				<line class="st2" x1="1.6" y1="540.5" x2="84.9" y2="540.5"/>
				<line class="st2" x1="1841.4" y1="540.5" x2="1924.6" y2="540.5"/>
			</g>
			<g class="st5">
				<path class="st6" d="M1867.9,36.2c12.7,0,23,10.3,23,23v76.7c0,12.7-10.3,23-23,23h-69.5c-12.7,0-23-10.3-23-23V59.2
					c0-12.7,10.3-23,23-23H1867.9 M1867.9,19.2h-69.5c-22,0-40,17.9-40,40v76.7c0,22,17.9,40,40,40h69.5c22,0,40-17.9,40-40V59.2
					C1907.9,37.1,1889.9,19.2,1867.9,19.2L1867.9,19.2z"/>
			</g>
			<path class="st1" d="M1370.9,330.9V126.8c0-24.1,19.5-43.6,43.6-43.6h387.3c24.1,0,43.6,19.5,43.6,43.6v835.3
				c0,24.1-19.5,43.6-43.6,43.6h-387.3c-24.1,0-43.6-19.5-43.6-43.6v-368"/>
			<circle class="st3" cx="52.6" cy="1019.9" r="6.8"/>
			<circle class="st3" cx="1884.1" cy="1019.9" r="6.8"/>
			<path class="st11" d="M1795.7,55.2h61.2c11.2,0,20.2,9.1,20.2,20.2v62c0,11.2-9.1,20.2-20.2,20.2h-61.2
				c-11.2,0-20.2-9.1-20.2-20.2v-62C1775.5,64.3,1784.5,55.2,1795.7,55.2z"/>
			<path class="st12" d="M1802.9,46.3h61.2c11.2,0,20.2,9.1,20.2,20.2v62c0,11.2-9.1,20.2-20.2,20.2h-61.2
				c-11.2,0-20.2-9.1-20.2-20.2v-62C1782.7,55.3,1791.7,46.3,1802.9,46.3z"/>
			<path class="st4" d="M1860.7,90.3c-0.3,0.8-1.1,1.4-2,1.4h-4.2V119c0,3.5-2.8,6.3-6.3,6.3h-6.3c-1.2,0-2.1-0.9-2.1-2.1v-12.6
				c0-3.5-2.8-6.3-6.3-6.3s-6.3,2.8-6.3,6.3v12.6c0,1.2-0.9,2.1-2.1,2.1h-6.3c-3.5,0-6.3-2.8-6.3-6.3V91.7h-4.2
				c-0.9,0-1.7-0.6-2-1.4c-0.3-0.8-0.1-1.8,0.6-2.3l25.2-21c0.8-0.7,1.9-0.7,2.7,0l25.2,21C1860.7,88.5,1861,89.4,1860.7,90.3
				L1860.7,90.3z"/>
			<g class="st13">
				<path class="st3" d="M1432,379.9v2.4h-5.6v16.5h-2.5v-16.5h-5.6v-2.4H1432z"/>
			</g>
			<g class="st13">
				<path class="st3" d="M1442.1,385.3h2.3v13.5h-2.3v-1.9c-1,1.5-2.4,2.3-4.4,2.3c-1.6,0-2.9-0.5-3.8-1.5c-1-1-1.4-2.4-1.4-4.1
					v-8.3h2.3v8.2c0,1.1,0.3,1.9,0.9,2.6c0.6,0.6,1.4,0.9,2.5,0.9c1.2,0,2.1-0.4,2.8-1.1c0.7-0.7,1.1-1.8,1.1-3.4V385.3z"/>
				<path class="st3" d="M1451.2,387.6c0.8-1.7,2.2-2.5,4.2-2.5v2.5c-1.2-0.1-2.1,0.3-3,0.9c-0.8,0.7-1.2,1.7-1.2,3.2v7.2h-2.3
					v-13.5h2.3V387.6z"/>
				<path class="st3" d="M1465.9,385c1.9,0,3.5,0.7,4.8,2.1s2,3.1,2,5c0,2-0.7,3.7-2,5s-2.9,2.1-4.8,2.1c-2.2,0-3.9-0.9-5.1-2.7v2.3
					h-2.3v-18.9h2.3v7.7C1462,385.9,1463.7,385,1465.9,385z M1465.6,396.9c1.3,0,2.5-0.5,3.4-1.4c0.9-0.9,1.4-2.1,1.4-3.4
					s-0.5-2.5-1.4-3.4s-2.1-1.4-3.4-1.4c-1.4,0-2.5,0.5-3.4,1.4s-1.4,2.1-1.4,3.4s0.5,2.5,1.4,3.4
					C1463.1,396.4,1464.3,396.9,1465.6,396.9z"/>
				<path class="st3" d="M1477.6,382.9c-0.5,0-0.8-0.2-1.1-0.5c-0.3-0.3-0.5-0.7-0.5-1.1c0-0.4,0.2-0.8,0.5-1.1
					c0.3-0.3,0.7-0.5,1.1-0.5c0.4,0,0.8,0.2,1.1,0.5c0.3,0.3,0.5,0.7,0.5,1.1c0,0.4-0.2,0.8-0.5,1.1
					C1478.4,382.7,1478,382.9,1477.6,382.9z M1476.4,398.8v-13.5h2.3v13.5H1476.4z"/>
				<path class="st3" d="M1489.8,385c1.6,0,2.9,0.5,3.8,1.5c1,1,1.4,2.4,1.4,4.1v8.3h-2.3v-8.2c0-1.1-0.3-1.9-0.9-2.6
					c-0.6-0.6-1.4-0.9-2.5-0.9c-1.2,0-2.1,0.4-2.8,1.1c-0.7,0.7-1.1,1.8-1.1,3.4v7.2h-2.3v-13.5h2.3v1.9
					C1486.4,385.7,1487.9,385,1489.8,385z"/>
				<path class="st3" d="M1500.8,393.1c0.2,1.2,0.8,2.1,1.7,2.8c0.9,0.7,1.9,1,3.2,1c1.8,0,3.1-0.7,3.9-2l2,1.1
					c-1.3,2-3.3,3.1-5.9,3.1c-2.1,0-3.9-0.7-5.2-2c-1.3-1.3-2-3-2-5.1c0-2,0.7-3.7,2-5.1c1.3-1.3,3-2,5.1-2c2,0,3.6,0.7,4.8,2.1
					c1.3,1.4,1.9,3.1,1.9,5c0,0.3,0,0.7-0.1,1.1H1500.8z M1505.5,387.2c-1.3,0-2.3,0.4-3.1,1.1s-1.3,1.7-1.5,2.8h9
					c-0.2-1.3-0.7-2.2-1.5-2.9C1507.5,387.5,1506.6,387.2,1505.5,387.2z"/>
			</g>
			<g class="st13">
				<path class="st3" d="M1538.2,385.3h2.2l-3.9,13.5h-2.4l-3.2-10.1l-3.2,10.1h-2.5l-4-13.5h2.5l3,10.3l3.2-10.3h2.3l3.2,10.3
					L1538.2,385.3z"/>
			</g>
			<g class="st13">
				<path class="st3" d="M1554.7,397.1c-1.4,1.4-3.1,2.1-5,2.1c-2,0-3.7-0.7-5-2.1c-1.4-1.4-2.1-3.1-2.1-5s0.7-3.7,2.1-5
					s3.1-2.1,5-2.1c2,0,3.7,0.7,5,2.1c1.4,1.4,2.1,3.1,2.1,5S1556,395.7,1554.7,397.1z M1549.6,396.9c1.3,0,2.5-0.5,3.4-1.4
					s1.4-2.1,1.4-3.4s-0.5-2.5-1.4-3.4s-2.1-1.4-3.4-1.4c-1.3,0-2.5,0.5-3.4,1.4s-1.4,2.1-1.4,3.4s0.5,2.5,1.4,3.4
					S1548.3,396.9,1549.6,396.9z"/>
				<path class="st3" d="M1562.4,387.6c0.8-1.7,2.2-2.5,4.2-2.5v2.5c-1.2-0.1-2.1,0.3-3,0.9s-1.2,1.7-1.2,3.2v7.2h-2.3v-13.5h2.3
					V387.6z"/>
				<path class="st3" d="M1580.8,398.8h-2.9l-6.2-6.4v6.4h-2.3v-18.9h2.3v11.3l5.8-5.9h3l-6.5,6.5L1580.8,398.8z"/>
				<path class="st3" d="M1584.7,382.9c-0.5,0-0.8-0.2-1.1-0.5c-0.3-0.3-0.5-0.7-0.5-1.1c0-0.4,0.2-0.8,0.5-1.1
					c0.3-0.3,0.7-0.5,1.1-0.5c0.4,0,0.8,0.2,1.1,0.5c0.3,0.3,0.5,0.7,0.5,1.1c0,0.4-0.2,0.8-0.5,1.1
					C1585.5,382.7,1585.1,382.9,1584.7,382.9z M1583.5,398.8v-13.5h2.3v13.5H1583.5z"/>
				<path class="st3" d="M1596.7,385c1.6,0,2.9,0.5,3.8,1.5s1.4,2.4,1.4,4.1v8.3h-2.3v-8.2c0-1.1-0.3-1.9-0.9-2.6
					c-0.6-0.6-1.4-0.9-2.5-0.9c-1.2,0-2.1,0.4-2.8,1.1c-0.7,0.7-1.1,1.8-1.1,3.4v7.2h-2.3v-13.5h2.3v1.9
					C1593.3,385.7,1594.7,385,1596.7,385z"/>
				<path class="st3" d="M1616.9,385.3h2.3v12.9c0,2-0.7,3.6-2,4.7c-1.4,1.1-3,1.7-4.9,1.7c-1.5,0-2.8-0.3-3.9-0.9
					c-1.1-0.6-1.9-1.4-2.5-2.4l2.1-1.2c0.7,1.5,2.2,2.3,4.4,2.3c1.4,0,2.5-0.4,3.3-1.1s1.2-1.7,1.2-3v-1.9c-1.2,1.8-2.9,2.7-5.1,2.7
					c-1.9,0-3.6-0.7-4.9-2.1s-2-3-2-5s0.7-3.6,2-5c1.3-1.4,3-2,4.9-2c2.2,0,3.9,0.9,5.1,2.7V385.3z M1608.7,395.4
					c0.9,0.9,2.1,1.4,3.4,1.4c1.4,0,2.5-0.5,3.4-1.4s1.4-2.1,1.4-3.4c0-1.3-0.5-2.5-1.4-3.4s-2.1-1.4-3.4-1.4
					c-1.4,0-2.5,0.5-3.4,1.4s-1.4,2.1-1.4,3.4C1607.3,393.3,1607.8,394.5,1608.7,395.4z"/>
				<path class="st3" d="M1637.3,385c1.6,0,2.9,0.5,3.8,1.5c1,1,1.4,2.4,1.4,4.1v8.3h-2.3v-8.2c0-1.1-0.3-1.9-0.9-2.6
					c-0.6-0.6-1.4-0.9-2.5-0.9c-1.2,0-2.1,0.4-2.8,1.1c-0.7,0.7-1.1,1.8-1.1,3.4v7.2h-2.3v-13.5h2.3v1.9
					C1633.9,385.7,1635.3,385,1637.3,385z"/>
				<path class="st3" d="M1657.7,397.1c-1.4,1.4-3.1,2.1-5,2.1s-3.7-0.7-5-2.1c-1.4-1.4-2.1-3.1-2.1-5s0.7-3.7,2.1-5s3.1-2.1,5-2.1
					s3.7,0.7,5,2.1c1.4,1.4,2.1,3.1,2.1,5S1659.1,395.7,1657.7,397.1z M1652.7,396.9c1.4,0,2.5-0.5,3.4-1.4s1.4-2.1,1.4-3.4
					s-0.5-2.5-1.4-3.4s-2.1-1.4-3.4-1.4c-1.3,0-2.5,0.5-3.4,1.4s-1.4,2.1-1.4,3.4s0.5,2.5,1.4,3.4S1651.3,396.9,1652.7,396.9z"/>
				<path class="st3" d="M1665.4,387.6c0.8-1.7,2.2-2.5,4.2-2.5v2.5c-1.2-0.1-2.1,0.3-3,0.9c-0.8,0.7-1.2,1.7-1.2,3.2v7.2h-2.3
					v-13.5h2.3V387.6z"/>
				<path class="st3" d="M1687,385c1.5,0,2.7,0.5,3.7,1.5c0.9,1,1.4,2.3,1.4,4v8.4h-2.3v-8.3c0-1-0.3-1.9-0.8-2.4
					c-0.5-0.6-1.3-0.9-2.2-0.9c-1,0-1.8,0.3-2.4,1s-0.9,1.7-0.9,3.1v7.5h-2.3v-8.3c0-1-0.3-1.9-0.8-2.4s-1.2-0.9-2.1-0.9
					c-1,0-1.8,0.3-2.5,1c-0.7,0.7-1,1.7-1,3.1v7.5h-2.3v-13.5h2.3v1.8c0.9-1.4,2.3-2.2,4-2.2c1.8,0,3.1,0.8,4,2.3
					C1683.7,385.7,1685.1,385,1687,385z"/>
				<path class="st3" d="M1707.1,385.3h2.3v13.5h-2.3v-2.3c-1.2,1.8-2.9,2.7-5.1,2.7c-1.9,0-3.5-0.7-4.8-2.1s-2-3.1-2-5
					c0-2,0.7-3.7,2-5s2.9-2.1,4.8-2.1c2.2,0,3.9,0.9,5.1,2.7V385.3z M1702.3,396.9c1.4,0,2.5-0.5,3.4-1.4c0.9-0.9,1.4-2.1,1.4-3.4
					s-0.5-2.5-1.4-3.4s-2.1-1.4-3.4-1.4c-1.3,0-2.5,0.5-3.4,1.4s-1.4,2.1-1.4,3.4s0.5,2.5,1.4,3.4
					C1699.8,396.4,1700.9,396.9,1702.3,396.9z"/>
				<path class="st3" d="M1713.5,398.8v-19.7h2.3v19.7H1713.5z"/>
				<path class="st3" d="M1719.9,398.8v-19.7h2.3v19.7H1719.9z"/>
				<path class="st3" d="M1735.8,385.3h2.5l-5.5,14.3c-0.6,1.5-1.4,2.7-2.4,3.5c-1,0.8-2.2,1.2-3.6,1.1V402c1.6,0.1,2.9-0.8,3.6-2.8
					l0.3-0.5l-5.9-13.4h2.5l4.5,10.3L1735.8,385.3z"/>
			</g>
			<g class="st13">
				<path class="st3" d="M1432,419.9v2.4h-5.6v16.5h-2.5v-16.5h-5.6v-2.4H1432z"/>
			</g>
			<g class="st13">
				<path class="st3" d="M1442.1,425.3h2.3v13.5h-2.3v-1.9c-1,1.5-2.4,2.3-4.4,2.3c-1.6,0-2.9-0.5-3.8-1.5c-1-1-1.4-2.4-1.4-4.1
					v-8.3h2.3v8.2c0,1.1,0.3,1.9,0.9,2.6c0.6,0.6,1.4,0.9,2.5,0.9c1.2,0,2.1-0.4,2.8-1.1c0.7-0.7,1.1-1.8,1.1-3.4V425.3z"/>
				<path class="st3" d="M1451.2,427.6c0.8-1.7,2.2-2.5,4.2-2.5v2.5c-1.2-0.1-2.1,0.3-3,0.9c-0.8,0.7-1.2,1.7-1.2,3.2v7.2h-2.3
					v-13.5h2.3V427.6z"/>
				<path class="st3" d="M1465.9,425c1.9,0,3.5,0.7,4.8,2.1s2,3.1,2,5c0,2-0.7,3.7-2,5s-2.9,2.1-4.8,2.1c-2.2,0-3.9-0.9-5.1-2.7v2.3
					h-2.3v-18.9h2.3v7.7C1462,425.9,1463.7,425,1465.9,425z M1465.6,436.9c1.3,0,2.5-0.5,3.4-1.4c0.9-0.9,1.4-2.1,1.4-3.4
					s-0.5-2.5-1.4-3.4s-2.1-1.4-3.4-1.4c-1.4,0-2.5,0.5-3.4,1.4s-1.4,2.1-1.4,3.4s0.5,2.5,1.4,3.4
					C1463.1,436.4,1464.3,436.9,1465.6,436.9z"/>
				<path class="st3" d="M1477.6,422.9c-0.5,0-0.8-0.2-1.1-0.5c-0.3-0.3-0.5-0.7-0.5-1.1c0-0.4,0.2-0.8,0.5-1.1
					c0.3-0.3,0.7-0.5,1.1-0.5c0.4,0,0.8,0.2,1.1,0.5c0.3,0.3,0.5,0.7,0.5,1.1c0,0.4-0.2,0.8-0.5,1.1
					C1478.4,422.7,1478,422.9,1477.6,422.9z M1476.4,438.8v-13.5h2.3v13.5H1476.4z"/>
				<path class="st3" d="M1489.8,425c1.6,0,2.9,0.5,3.8,1.5c1,1,1.4,2.4,1.4,4.1v8.3h-2.3v-8.2c0-1.1-0.3-1.9-0.9-2.6
					c-0.6-0.6-1.4-0.9-2.5-0.9c-1.2,0-2.1,0.4-2.8,1.1c-0.7,0.7-1.1,1.8-1.1,3.4v7.2h-2.3v-13.5h2.3v1.9
					C1486.4,425.7,1487.9,425,1489.8,425z"/>
				<path class="st3" d="M1500.8,433.1c0.2,1.2,0.8,2.1,1.7,2.8c0.9,0.7,1.9,1,3.2,1c1.8,0,3.1-0.7,3.9-2l2,1.1
					c-1.3,2-3.3,3.1-5.9,3.1c-2.1,0-3.9-0.7-5.2-2c-1.3-1.3-2-3-2-5.1c0-2,0.7-3.7,2-5.1c1.3-1.3,3-2,5.1-2c2,0,3.6,0.7,4.8,2.1
					c1.3,1.4,1.9,3.1,1.9,5c0,0.3,0,0.7-0.1,1.1H1500.8z M1505.5,427.2c-1.3,0-2.3,0.4-3.1,1.1s-1.3,1.7-1.5,2.8h9
					c-0.2-1.3-0.7-2.2-1.5-2.9C1507.5,427.5,1506.6,427.2,1505.5,427.2z"/>
			</g>
			<g class="st13">
				<path class="st3" d="M1523.5,422.9c-0.5,0-0.8-0.2-1.1-0.5c-0.3-0.3-0.5-0.7-0.5-1.1c0-0.4,0.2-0.8,0.5-1.1
					c0.3-0.3,0.7-0.5,1.1-0.5c0.4,0,0.8,0.2,1.1,0.5c0.3,0.3,0.5,0.7,0.5,1.1c0,0.4-0.2,0.8-0.5,1.1
					C1524.3,422.7,1524,422.9,1523.5,422.9z M1522.3,438.8v-13.5h2.3v13.5H1522.3z"/>
			</g>
			<g class="st13">
				<path class="st3" d="M1530.9,428.9c0,0.5,0.3,0.9,0.8,1.2c0.5,0.3,1.2,0.6,1.9,0.8c0.7,0.2,1.5,0.4,2.2,0.6
					c0.7,0.2,1.4,0.6,1.9,1.2c0.5,0.6,0.8,1.4,0.8,2.3c0,1.2-0.5,2.2-1.4,2.9c-0.9,0.7-2.2,1.1-3.6,1.1c-1.3,0-2.4-0.3-3.4-0.9
					c-0.9-0.6-1.6-1.3-2-2.3l2-1.2c0.2,0.6,0.6,1.2,1.2,1.5c0.6,0.4,1.3,0.6,2.1,0.6c0.8,0,1.4-0.1,1.9-0.4s0.8-0.8,0.8-1.4
					c0-0.5-0.3-0.9-0.8-1.3s-1.2-0.6-1.9-0.8c-0.7-0.2-1.5-0.4-2.2-0.7c-0.7-0.2-1.4-0.6-1.9-1.2c-0.5-0.6-0.8-1.3-0.8-2.2
					c0-1.2,0.5-2.1,1.4-2.9c0.9-0.8,2-1.1,3.4-1.1c1.1,0,2.1,0.2,2.9,0.7c0.9,0.5,1.5,1.2,1.9,2.1l-2,1.1c-0.5-1.2-1.4-1.7-2.9-1.7
					c-0.7,0-1.2,0.2-1.7,0.5C1531.2,427.9,1530.9,428.4,1530.9,428.9z"/>
				<path class="st3" d="M1556.5,425c1.9,0,3.5,0.7,4.8,2.1s2,3.1,2,5c0,2-0.7,3.7-2,5s-2.9,2.1-4.8,2.1c-2.2,0-3.9-0.9-5.1-2.7v2.3
					h-2.3v-18.9h2.3v7.7C1552.6,425.9,1554.3,425,1556.5,425z M1556.2,436.9c1.3,0,2.5-0.5,3.4-1.4c0.9-0.9,1.4-2.1,1.4-3.4
					s-0.5-2.5-1.4-3.4s-2.1-1.4-3.4-1.4c-1.4,0-2.5,0.5-3.4,1.4s-1.4,2.1-1.4,3.4s0.5,2.5,1.4,3.4
					C1553.7,436.4,1554.9,436.9,1556.2,436.9z"/>
				<path class="st3" d="M1568.3,433.1c0.2,1.2,0.8,2.1,1.7,2.8c0.9,0.7,1.9,1,3.2,1c1.8,0,3.1-0.7,3.9-2l2,1.1
					c-1.3,2-3.3,3.1-5.9,3.1c-2.1,0-3.9-0.7-5.2-2s-2-3-2-5.1c0-2,0.7-3.7,2-5.1c1.3-1.3,3-2,5.1-2c2,0,3.6,0.7,4.8,2.1
					c1.3,1.4,1.9,3.1,1.9,5c0,0.3,0,0.7-0.1,1.1H1568.3z M1573,427.2c-1.3,0-2.3,0.4-3.1,1.1s-1.3,1.7-1.5,2.8h9
					c-0.2-1.3-0.7-2.2-1.5-2.9C1575,427.5,1574.1,427.2,1573,427.2z"/>
				<path class="st3" d="M1584.1,422.9c-0.5,0-0.8-0.2-1.1-0.5c-0.3-0.3-0.5-0.7-0.5-1.1c0-0.4,0.2-0.8,0.5-1.1
					c0.3-0.3,0.7-0.5,1.1-0.5c0.4,0,0.8,0.2,1.1,0.5c0.3,0.3,0.5,0.7,0.5,1.1c0,0.4-0.2,0.8-0.5,1.1
					C1584.9,422.7,1584.5,422.9,1584.1,422.9z M1582.9,438.8v-13.5h2.3v13.5H1582.9z"/>
				<path class="st3" d="M1596.1,425c1.6,0,2.9,0.5,3.8,1.5c1,1,1.4,2.4,1.4,4.1v8.3h-2.3v-8.2c0-1.1-0.3-1.9-0.9-2.6
					c-0.6-0.6-1.4-0.9-2.5-0.9c-1.2,0-2.1,0.4-2.8,1.1c-0.7,0.7-1.1,1.8-1.1,3.4v7.2h-2.3v-13.5h2.3v1.9
					C1592.7,425.7,1594.1,425,1596.1,425z"/>
				<path class="st3" d="M1616.3,425.3h2.3v12.9c0,2-0.7,3.6-2,4.7c-1.4,1.1-3,1.7-4.9,1.7c-1.5,0-2.8-0.3-3.9-0.9
					c-1.1-0.6-1.9-1.4-2.5-2.4l2.1-1.2c0.7,1.5,2.2,2.3,4.4,2.3c1.4,0,2.5-0.4,3.3-1.1s1.2-1.7,1.2-3v-1.9c-1.2,1.8-2.9,2.7-5.1,2.7
					c-1.9,0-3.6-0.7-4.9-2.1s-2-3-2-5s0.7-3.6,2-5c1.3-1.4,3-2,4.9-2c2.2,0,3.9,0.9,5.1,2.7V425.3z M1608.1,435.4
					c0.9,0.9,2.1,1.4,3.4,1.4s2.5-0.5,3.4-1.4s1.4-2.1,1.4-3.4c0-1.3-0.5-2.5-1.4-3.4s-2.1-1.4-3.4-1.4s-2.5,0.5-3.4,1.4
					s-1.4,2.1-1.4,3.4C1606.7,433.3,1607.2,434.5,1608.1,435.4z"/>
			</g>
			<g class="st13">
				<path class="st3" d="M1633.3,428.9c0,0.5,0.3,0.9,0.8,1.2c0.5,0.3,1.2,0.6,1.9,0.8c0.7,0.2,1.5,0.4,2.2,0.6
					c0.7,0.2,1.4,0.6,1.9,1.2c0.5,0.6,0.8,1.4,0.8,2.3c0,1.2-0.5,2.2-1.4,2.9s-2.2,1.1-3.6,1.1c-1.3,0-2.4-0.3-3.4-0.9
					c-0.9-0.6-1.6-1.3-2-2.3l2-1.2c0.2,0.6,0.6,1.2,1.2,1.5c0.6,0.4,1.3,0.6,2.1,0.6c0.8,0,1.4-0.1,1.9-0.4s0.8-0.8,0.8-1.4
					c0-0.5-0.3-0.9-0.8-1.3s-1.2-0.6-1.9-0.8c-0.7-0.2-1.5-0.4-2.2-0.7s-1.4-0.6-1.9-1.2c-0.5-0.6-0.8-1.3-0.8-2.2
					c0-1.2,0.5-2.1,1.4-2.9c0.9-0.8,2-1.1,3.4-1.1c1.1,0,2.1,0.2,2.9,0.7c0.9,0.5,1.5,1.2,1.9,2.1l-2,1.1c-0.5-1.2-1.4-1.7-2.9-1.7
					c-0.7,0-1.2,0.2-1.7,0.5S1633.3,428.4,1633.3,428.9z"/>
			</g>
			<g class="st13">
				<path class="st3" d="M1645.6,433.1c0.2,1.2,0.8,2.1,1.7,2.8c0.9,0.7,1.9,1,3.2,1c1.8,0,3.1-0.7,3.9-2l2,1.1
					c-1.3,2-3.3,3.1-5.9,3.1c-2.1,0-3.9-0.7-5.2-2s-2-3-2-5.1c0-2,0.7-3.7,2-5.1c1.3-1.3,3-2,5.1-2c2,0,3.6,0.7,4.8,2.1
					c1.3,1.4,1.9,3.1,1.9,5c0,0.3,0,0.7-0.1,1.1H1645.6z M1650.3,427.2c-1.3,0-2.3,0.4-3.1,1.1s-1.3,1.7-1.5,2.8h9
					c-0.2-1.3-0.7-2.2-1.5-2.9C1652.3,427.5,1651.3,427.2,1650.3,427.2z"/>
				<path class="st3" d="M1662.5,427.6c0.8-1.7,2.2-2.5,4.2-2.5v2.5c-1.2-0.1-2.1,0.3-3,0.9c-0.8,0.7-1.2,1.7-1.2,3.2v7.2h-2.3
					v-13.5h2.3V427.6z"/>
				<path class="st3" d="M1679,425.3h2.5l-5.4,13.5h-2.8l-5.4-13.5h2.5l4.2,11L1679,425.3z"/>
				<path class="st3" d="M1685.3,422.9c-0.5,0-0.8-0.2-1.1-0.5c-0.3-0.3-0.5-0.7-0.5-1.1c0-0.4,0.2-0.8,0.5-1.1
					c0.3-0.3,0.7-0.5,1.1-0.5c0.4,0,0.8,0.2,1.1,0.5c0.3,0.3,0.5,0.7,0.5,1.1c0,0.4-0.2,0.8-0.5,1.1
					C1686.1,422.7,1685.7,422.9,1685.3,422.9z M1684.1,438.8v-13.5h2.3v13.5H1684.1z"/>
			</g>
			<g class="st13">
				<path class="st3" d="M1697.5,439.2c-2,0-3.7-0.7-5.1-2c-1.3-1.4-2-3-2-5.1c0-2,0.7-3.7,2-5.1c1.4-1.4,3-2,5.1-2
					c1.3,0,2.5,0.3,3.6,1c1.1,0.6,1.9,1.5,2.4,2.6l-2,1.1c-0.3-0.7-0.9-1.3-1.6-1.7c-0.7-0.4-1.5-0.6-2.4-0.6
					c-1.3,0-2.5,0.5-3.4,1.4c-0.9,0.9-1.4,2.1-1.4,3.4c0,1.3,0.5,2.5,1.4,3.4c0.9,0.9,2,1.4,3.4,1.4c0.9,0,1.7-0.2,2.4-0.6
					c0.7-0.4,1.3-1,1.6-1.7l2,1.2c-0.6,1.1-1.4,1.9-2.5,2.6C1700,438.8,1698.8,439.2,1697.5,439.2z"/>
			</g>
			<g class="st13">
				<path class="st3" d="M1708,433.1c0.2,1.2,0.8,2.1,1.7,2.8c0.9,0.7,1.9,1,3.2,1c1.8,0,3.1-0.7,3.9-2l2,1.1
					c-1.3,2-3.3,3.1-5.9,3.1c-2.1,0-3.9-0.7-5.2-2s-2-3-2-5.1c0-2,0.7-3.7,2-5.1c1.3-1.3,3-2,5.1-2c2,0,3.6,0.7,4.8,2.1
					c1.3,1.4,1.9,3.1,1.9,5c0,0.3,0,0.7-0.1,1.1H1708z M1712.7,427.2c-1.3,0-2.3,0.4-3.1,1.1s-1.3,1.7-1.5,2.8h9
					c-0.2-1.3-0.7-2.2-1.5-2.9C1714.7,427.5,1713.8,427.2,1712.7,427.2z"/>
			</g>
			<g class="st13">
				<path class="st3" d="M1734,419.9h2.3v18.9h-2.3v-2.3c-1.2,1.8-2.9,2.7-5.1,2.7c-1.9,0-3.5-0.7-4.8-2.1s-2-3.1-2-5
					c0-2,0.7-3.7,2-5s2.9-2.1,4.8-2.1c2.2,0,3.9,0.9,5.1,2.7V419.9z M1729.2,436.9c1.4,0,2.5-0.5,3.4-1.4c0.9-0.9,1.4-2.1,1.4-3.4
					s-0.5-2.5-1.4-3.4s-2.1-1.4-3.4-1.4c-1.3,0-2.5,0.5-3.4,1.4s-1.4,2.1-1.4,3.4s0.5,2.5,1.4,3.4
					C1726.7,436.4,1727.8,436.9,1729.2,436.9z"/>
			</g>
			<g class="st13">
				<path class="st3" d="M1432,459.9v2.4h-5.6v16.5h-2.5v-16.5h-5.6v-2.4H1432z"/>
			</g>
			<g class="st13">
				<path class="st3" d="M1442.1,465.3h2.3v13.5h-2.3v-1.9c-1,1.5-2.4,2.3-4.4,2.3c-1.6,0-2.9-0.5-3.8-1.5c-1-1-1.4-2.4-1.4-4.1
					v-8.3h2.3v8.2c0,1.1,0.3,1.9,0.9,2.6c0.6,0.6,1.4,0.9,2.5,0.9c1.2,0,2.1-0.4,2.8-1.1c0.7-0.7,1.1-1.8,1.1-3.4V465.3z"/>
				<path class="st3" d="M1451.2,467.6c0.8-1.7,2.2-2.5,4.2-2.5v2.5c-1.2-0.1-2.1,0.3-3,0.9c-0.8,0.7-1.2,1.7-1.2,3.2v7.2h-2.3
					v-13.5h2.3V467.6z"/>
				<path class="st3" d="M1465.9,465c1.9,0,3.5,0.7,4.8,2.1s2,3.1,2,5c0,2-0.7,3.7-2,5s-2.9,2.1-4.8,2.1c-2.2,0-3.9-0.9-5.1-2.7v2.3
					h-2.3v-18.9h2.3v7.7C1462,465.9,1463.7,465,1465.9,465z M1465.6,476.9c1.3,0,2.5-0.5,3.4-1.4c0.9-0.9,1.4-2.1,1.4-3.4
					s-0.5-2.5-1.4-3.4s-2.1-1.4-3.4-1.4c-1.4,0-2.5,0.5-3.4,1.4s-1.4,2.1-1.4,3.4s0.5,2.5,1.4,3.4
					C1463.1,476.4,1464.3,476.9,1465.6,476.9z"/>
				<path class="st3" d="M1477.6,462.9c-0.5,0-0.8-0.2-1.1-0.5c-0.3-0.3-0.5-0.7-0.5-1.1c0-0.4,0.2-0.8,0.5-1.1
					c0.3-0.3,0.7-0.5,1.1-0.5c0.4,0,0.8,0.2,1.1,0.5c0.3,0.3,0.5,0.7,0.5,1.1c0,0.4-0.2,0.8-0.5,1.1
					C1478.4,462.7,1478,462.9,1477.6,462.9z M1476.4,478.8v-13.5h2.3v13.5H1476.4z"/>
				<path class="st3" d="M1489.8,465c1.6,0,2.9,0.5,3.8,1.5c1,1,1.4,2.4,1.4,4.1v8.3h-2.3v-8.2c0-1.1-0.3-1.9-0.9-2.6
					c-0.6-0.6-1.4-0.9-2.5-0.9c-1.2,0-2.1,0.4-2.8,1.1c-0.7,0.7-1.1,1.8-1.1,3.4v7.2h-2.3v-13.5h2.3v1.9
					C1486.4,465.7,1487.9,465,1489.8,465z"/>
				<path class="st3" d="M1500.8,473.1c0.2,1.2,0.8,2.1,1.7,2.8c0.9,0.7,1.9,1,3.2,1c1.8,0,3.1-0.7,3.9-2l2,1.1
					c-1.3,2-3.3,3.1-5.9,3.1c-2.1,0-3.9-0.7-5.2-2c-1.3-1.3-2-3-2-5.1c0-2,0.7-3.7,2-5.1c1.3-1.3,3-2,5.1-2c2,0,3.6,0.7,4.8,2.1
					c1.3,1.4,1.9,3.1,1.9,5c0,0.3,0,0.7-0.1,1.1H1500.8z M1505.5,467.2c-1.3,0-2.3,0.4-3.1,1.1s-1.3,1.7-1.5,2.8h9
					c-0.2-1.3-0.7-2.2-1.5-2.9C1507.5,467.5,1506.6,467.2,1505.5,467.2z"/>
				<path class="st3" d="M1530,465c1.6,0,2.9,0.5,3.8,1.5s1.4,2.4,1.4,4.1v8.3h-2.3v-8.2c0-1.1-0.3-1.9-0.9-2.6
					c-0.6-0.6-1.4-0.9-2.5-0.9c-1.2,0-2.1,0.4-2.8,1.1c-0.7,0.7-1.1,1.8-1.1,3.4v7.2h-2.3v-13.5h2.3v1.9
					C1526.6,465.7,1528,465,1530,465z"/>
			</g>
			<g class="st13">
				<path class="st3" d="M1539.9,473.1c0.2,1.2,0.8,2.1,1.7,2.8c0.9,0.7,1.9,1,3.2,1c1.8,0,3.1-0.7,3.9-2l2,1.1
					c-1.3,2-3.3,3.1-5.9,3.1c-2.1,0-3.9-0.7-5.2-2c-1.3-1.3-2-3-2-5.1c0-2,0.7-3.7,2-5.1c1.3-1.3,3-2,5.1-2c2,0,3.6,0.7,4.8,2.1
					c1.3,1.4,1.9,3.1,1.9,5c0,0.3,0,0.7-0.1,1.1H1539.9z M1544.6,467.2c-1.3,0-2.3,0.4-3.1,1.1s-1.3,1.7-1.5,2.8h9
					c-0.2-1.3-0.7-2.2-1.5-2.9C1546.6,467.5,1545.6,467.2,1544.6,467.2z"/>
				<path class="st3" d="M1556.1,473.1c0.2,1.2,0.8,2.1,1.7,2.8c0.9,0.7,1.9,1,3.2,1c1.8,0,3.1-0.7,3.9-2l2,1.1
					c-1.3,2-3.3,3.1-5.9,3.1c-2.1,0-3.9-0.7-5.2-2c-1.3-1.3-2-3-2-5.1c0-2,0.7-3.7,2-5.1c1.3-1.3,3-2,5.1-2c2,0,3.6,0.7,4.8,2.1
					c1.3,1.4,1.9,3.1,1.9,5c0,0.3,0,0.7-0.1,1.1H1556.1z M1560.8,467.2c-1.3,0-2.3,0.4-3.1,1.1s-1.3,1.7-1.5,2.8h9
					c-0.2-1.3-0.7-2.2-1.5-2.9S1561.9,467.2,1560.8,467.2z"/>
				<path class="st3" d="M1581.9,459.9h2.3v18.9h-2.3v-2.3c-1.2,1.8-2.9,2.7-5.1,2.7c-1.9,0-3.5-0.7-4.8-2.1s-2-3.1-2-5
					c0-2,0.7-3.7,2-5s2.9-2.1,4.8-2.1c2.2,0,3.9,0.9,5.1,2.7V459.9z M1577.1,476.9c1.4,0,2.5-0.5,3.4-1.4c0.9-0.9,1.4-2.1,1.4-3.4
					s-0.5-2.5-1.4-3.4s-2.1-1.4-3.4-1.4c-1.3,0-2.5,0.5-3.4,1.4s-1.4,2.1-1.4,3.4s0.5,2.5,1.4,3.4
					C1574.6,476.4,1575.7,476.9,1577.1,476.9z"/>
			</g>
			<g class="st13">
				<path class="st3" d="M1590.8,468.9c0,0.5,0.3,0.9,0.8,1.2c0.5,0.3,1.2,0.6,1.9,0.8c0.7,0.2,1.5,0.4,2.2,0.6
					c0.7,0.2,1.4,0.6,1.9,1.2c0.5,0.6,0.8,1.4,0.8,2.3c0,1.2-0.5,2.2-1.4,2.9c-0.9,0.7-2.2,1.1-3.6,1.1c-1.3,0-2.4-0.3-3.4-0.9
					c-0.9-0.6-1.6-1.3-2-2.3l2-1.2c0.2,0.6,0.6,1.2,1.2,1.5c0.6,0.4,1.3,0.6,2.1,0.6c0.8,0,1.4-0.1,1.9-0.4s0.8-0.8,0.8-1.4
					c0-0.5-0.3-0.9-0.8-1.3s-1.2-0.6-1.9-0.8c-0.7-0.2-1.5-0.4-2.2-0.7c-0.7-0.2-1.4-0.6-1.9-1.2c-0.5-0.6-0.8-1.3-0.8-2.2
					c0-1.2,0.5-2.1,1.4-2.9c0.9-0.8,2-1.1,3.4-1.1c1.1,0,2.1,0.2,2.9,0.7c0.9,0.5,1.5,1.2,1.9,2.1l-2,1.1c-0.5-1.2-1.4-1.7-2.9-1.7
					c-0.7,0-1.2,0.2-1.7,0.5C1591,467.9,1590.8,468.4,1590.8,468.9z"/>
				<path class="st3" d="M1620.1,465.3h2.3v13.5h-2.3v-2.3c-1.2,1.8-2.9,2.7-5.1,2.7c-1.9,0-3.5-0.7-4.8-2.1s-2-3.1-2-5
					c0-2,0.7-3.7,2-5s2.9-2.1,4.8-2.1c2.2,0,3.9,0.9,5.1,2.7V465.3z M1615.3,476.9c1.4,0,2.5-0.5,3.4-1.4c0.9-0.9,1.4-2.1,1.4-3.4
					s-0.5-2.5-1.4-3.4s-2.1-1.4-3.4-1.4c-1.3,0-2.5,0.5-3.4,1.4s-1.4,2.1-1.4,3.4s0.5,2.5,1.4,3.4
					C1612.8,476.4,1613.9,476.9,1615.3,476.9z"/>
			</g>
			<g class="st13">
				<path class="st3" d="M1634.3,467.6h-3.6v7.3c0,0.7,0.1,1.1,0.4,1.4s0.7,0.4,1.2,0.4s1.2,0,2,0v2.1c-2.1,0.3-3.6,0.1-4.5-0.5
					c-1-0.6-1.4-1.7-1.4-3.4v-7.3h-2.7v-2.3h2.7v-3.1l2.3-0.7v3.8h3.6V467.6z"/>
			</g>
			<g class="st13">
				<path class="st3" d="M1644.4,467.6h-3.6v7.3c0,0.7,0.1,1.1,0.4,1.4s0.7,0.4,1.2,0.4s1.2,0,2,0v2.1c-2.1,0.3-3.6,0.1-4.5-0.5
					c-1-0.6-1.4-1.7-1.4-3.4v-7.3h-2.7v-2.3h2.7v-3.1l2.3-0.7v3.8h3.6V467.6z"/>
			</g>
			<g class="st13">
				<path class="st3" d="M1648.9,473.1c0.2,1.2,0.8,2.1,1.7,2.8c0.9,0.7,1.9,1,3.2,1c1.8,0,3.1-0.7,3.9-2l2,1.1
					c-1.3,2-3.3,3.1-5.9,3.1c-2.1,0-3.9-0.7-5.2-2c-1.3-1.3-2-3-2-5.1c0-2,0.7-3.7,2-5.1c1.3-1.3,3-2,5.1-2c2,0,3.6,0.7,4.8,2.1
					c1.3,1.4,1.9,3.1,1.9,5c0,0.3,0,0.7-0.1,1.1H1648.9z M1653.5,467.2c-1.3,0-2.3,0.4-3.1,1.1s-1.3,1.7-1.5,2.8h9
					c-0.2-1.3-0.7-2.2-1.5-2.9C1655.6,467.5,1654.6,467.2,1653.5,467.2z"/>
				<path class="st3" d="M1670.2,465c1.6,0,2.9,0.5,3.8,1.5c1,1,1.4,2.4,1.4,4.1v8.3h-2.3v-8.2c0-1.1-0.3-1.9-0.9-2.6
					c-0.6-0.6-1.4-0.9-2.5-0.9c-1.2,0-2.1,0.4-2.8,1.1c-0.7,0.7-1.1,1.8-1.1,3.4v7.2h-2.3v-13.5h2.3v1.9
					C1666.8,465.7,1668.2,465,1670.2,465z"/>
			</g>
			<g class="st13">
				<path class="st3" d="M1686.9,467.6h-3.6v7.3c0,0.7,0.1,1.1,0.4,1.4c0.3,0.3,0.7,0.4,1.2,0.4s1.2,0,2,0v2.1
					c-2.1,0.3-3.6,0.1-4.5-0.5c-1-0.6-1.4-1.7-1.4-3.4v-7.3h-2.7v-2.3h2.7v-3.1l2.3-0.7v3.8h3.6V467.6z"/>
			</g>
			<g class="st13">
				<path class="st3" d="M1691.5,462.9c-0.5,0-0.8-0.2-1.1-0.5c-0.3-0.3-0.5-0.7-0.5-1.1c0-0.4,0.2-0.8,0.5-1.1
					c0.3-0.3,0.7-0.5,1.1-0.5c0.4,0,0.8,0.2,1.1,0.5c0.3,0.3,0.5,0.7,0.5,1.1c0,0.4-0.2,0.8-0.5,1.1
					C1692.3,462.7,1692,462.9,1691.5,462.9z M1690.3,478.8v-13.5h2.3v13.5H1690.3z"/>
				<path class="st3" d="M1708.5,477.1c-1.4,1.4-3.1,2.1-5,2.1c-2,0-3.7-0.7-5-2.1c-1.4-1.4-2.1-3.1-2.1-5s0.7-3.7,2.1-5
					s3.1-2.1,5-2.1c2,0,3.7,0.7,5,2.1c1.4,1.4,2.1,3.1,2.1,5S1709.9,475.7,1708.5,477.1z M1703.4,476.9c1.3,0,2.5-0.5,3.4-1.4
					s1.4-2.1,1.4-3.4s-0.5-2.5-1.4-3.4s-2.1-1.4-3.4-1.4c-1.3,0-2.5,0.5-3.4,1.4s-1.4,2.1-1.4,3.4s0.5,2.5,1.4,3.4
					S1702.1,476.9,1703.4,476.9z"/>
				<path class="st3" d="M1720.9,465c1.6,0,2.9,0.5,3.8,1.5c1,1,1.4,2.4,1.4,4.1v8.3h-2.3v-8.2c0-1.1-0.3-1.9-0.9-2.6
					c-0.6-0.6-1.4-0.9-2.5-0.9c-1.2,0-2.1,0.4-2.8,1.1c-0.7,0.7-1.1,1.8-1.1,3.4v7.2h-2.3v-13.5h2.3v1.9
					C1717.4,465.7,1718.9,465,1720.9,465z"/>
			</g>
			<g class="st13">
				<path class="st3" d="M1422.4,516.4h8.2v2.4h-10.7v-18.9h2.5V516.4z"/>
			</g>
			<g class="st13">
				<path class="st3" d="M1444.4,517.1c-1.4,1.4-3.1,2.1-5,2.1s-3.7-0.7-5-2.1c-1.4-1.4-2.1-3.1-2.1-5s0.7-3.7,2.1-5s3.1-2.1,5-2.1
					s3.7,0.7,5,2.1c1.4,1.4,2.1,3.1,2.1,5S1445.8,515.7,1444.4,517.1z M1439.3,516.9c1.4,0,2.5-0.5,3.4-1.4s1.4-2.1,1.4-3.4
					s-0.5-2.5-1.4-3.4s-2.1-1.4-3.4-1.4c-1.3,0-2.5,0.5-3.4,1.4s-1.4,2.1-1.4,3.4s0.5,2.5,1.4,3.4S1438,516.9,1439.3,516.9z"/>
			</g>
			<g class="st13">
				<path class="st3" d="M1451.6,508.9c0,0.5,0.3,0.9,0.8,1.2c0.5,0.3,1.2,0.6,1.9,0.8c0.7,0.2,1.5,0.4,2.2,0.6
					c0.7,0.2,1.4,0.6,1.9,1.2c0.5,0.6,0.8,1.4,0.8,2.3c0,1.2-0.5,2.2-1.4,2.9c-0.9,0.7-2.2,1.1-3.6,1.1c-1.3,0-2.4-0.3-3.4-0.9
					c-0.9-0.6-1.6-1.3-2-2.3l2-1.2c0.2,0.6,0.6,1.2,1.2,1.5c0.6,0.4,1.3,0.6,2.1,0.6c0.8,0,1.4-0.1,1.9-0.4s0.8-0.8,0.8-1.4
					c0-0.5-0.3-0.9-0.8-1.3s-1.2-0.6-1.9-0.8c-0.7-0.2-1.5-0.4-2.2-0.7c-0.7-0.2-1.4-0.6-1.9-1.2c-0.5-0.6-0.8-1.3-0.8-2.2
					c0-1.2,0.5-2.1,1.4-2.9c0.9-0.8,2-1.1,3.4-1.1c1.1,0,2.1,0.2,2.9,0.7c0.9,0.5,1.5,1.2,1.9,2.1l-2,1.1c-0.5-1.2-1.4-1.7-2.9-1.7
					c-0.7,0-1.2,0.2-1.7,0.5C1451.9,507.9,1451.6,508.4,1451.6,508.9z"/>
			</g>
			<g class="st13">
				<path class="st3" d="M1469.5,507.6h-3.6v7.3c0,0.7,0.1,1.1,0.4,1.4s0.7,0.4,1.2,0.4s1.2,0,2,0v2.1c-2.1,0.3-3.6,0.1-4.5-0.5
					c-1-0.6-1.4-1.7-1.4-3.4v-7.3h-2.7v-2.3h2.7v-3.1l2.3-0.7v3.8h3.6V507.6z"/>
			</g>
			<g class="st13">
				<path class="st3" d="M1486.8,519.2c-2,0-3.7-0.7-5.1-2c-1.3-1.4-2-3-2-5.1c0-2,0.7-3.7,2-5.1c1.3-1.4,3-2,5.1-2
					c1.3,0,2.5,0.3,3.6,1c1.1,0.6,1.9,1.5,2.4,2.6l-2,1.1c-0.3-0.7-0.9-1.3-1.6-1.7c-0.7-0.4-1.5-0.6-2.4-0.6
					c-1.4,0-2.5,0.5-3.4,1.4s-1.4,2.1-1.4,3.4c0,1.3,0.5,2.5,1.4,3.4s2,1.4,3.4,1.4c0.9,0,1.7-0.2,2.4-0.6s1.3-1,1.6-1.7l2,1.2
					c-0.6,1.1-1.4,1.9-2.5,2.6S1488.1,519.2,1486.8,519.2z"/>
			</g>
			<g class="st13">
				<path class="st3" d="M1507.1,517.1c-1.4,1.4-3.1,2.1-5,2.1s-3.7-0.7-5-2.1c-1.4-1.4-2.1-3.1-2.1-5s0.7-3.7,2.1-5s3.1-2.1,5-2.1
					s3.7,0.7,5,2.1c1.4,1.4,2.1,3.1,2.1,5S1508.4,515.7,1507.1,517.1z M1502,516.9c1.4,0,2.5-0.5,3.4-1.4s1.4-2.1,1.4-3.4
					s-0.5-2.5-1.4-3.4s-2.1-1.4-3.4-1.4c-1.3,0-2.5,0.5-3.4,1.4s-1.4,2.1-1.4,3.4s0.5,2.5,1.4,3.4S1500.7,516.9,1502,516.9z"/>
				<path class="st3" d="M1519.2,505c1.6,0,2.9,0.5,3.8,1.5c1,1,1.4,2.4,1.4,4.1v8.3h-2.3v-8.2c0-1.1-0.3-1.9-0.9-2.6
					c-0.6-0.6-1.4-0.9-2.5-0.9c-1.2,0-2.1,0.4-2.8,1.1c-0.7,0.7-1.1,1.8-1.1,3.4v7.2h-2.3v-13.5h2.3v1.9
					C1515.7,505.7,1517.2,505,1519.2,505z"/>
			</g>
			<g class="st13">
				<path class="st3" d="M1535.8,507.6h-3.6v7.3c0,0.7,0.1,1.1,0.4,1.4c0.3,0.3,0.7,0.4,1.2,0.4s1.2,0,2,0v2.1
					c-2.1,0.3-3.6,0.1-4.5-0.5c-1-0.6-1.4-1.7-1.4-3.4v-7.3h-2.7v-2.3h2.7v-3.1l2.3-0.7v3.8h3.6V507.6z"/>
			</g>
			<g class="st13">
				<path class="st3" d="M1549.8,505.3h2.3v13.5h-2.3v-2.3c-1.2,1.8-2.9,2.7-5.1,2.7c-1.9,0-3.5-0.7-4.8-2.1s-2-3.1-2-5
					c0-2,0.7-3.7,2-5s2.9-2.1,4.8-2.1c2.2,0,3.9,0.9,5.1,2.7V505.3z M1545,516.9c1.4,0,2.5-0.5,3.4-1.4c0.9-0.9,1.4-2.1,1.4-3.4
					s-0.5-2.5-1.4-3.4s-2.1-1.4-3.4-1.4c-1.3,0-2.5,0.5-3.4,1.4s-1.4,2.1-1.4,3.4s0.5,2.5,1.4,3.4
					C1542.5,516.4,1543.6,516.9,1545,516.9z"/>
			</g>
			<g class="st13">
				<path class="st3" d="M1562.7,519.2c-2,0-3.7-0.7-5.1-2c-1.3-1.4-2-3-2-5.1c0-2,0.7-3.7,2-5.1c1.4-1.4,3-2,5.1-2
					c1.3,0,2.5,0.3,3.6,1c1.1,0.6,1.9,1.5,2.4,2.6l-2,1.1c-0.3-0.7-0.9-1.3-1.6-1.7c-0.7-0.4-1.5-0.6-2.4-0.6
					c-1.3,0-2.5,0.5-3.4,1.4c-0.9,0.9-1.4,2.1-1.4,3.4c0,1.3,0.5,2.5,1.4,3.4c0.9,0.9,2,1.4,3.4,1.4c0.9,0,1.7-0.2,2.4-0.6
					c0.7-0.4,1.3-1,1.6-1.7l2,1.2c-0.6,1.1-1.4,1.9-2.5,2.6C1565.2,518.8,1564,519.2,1562.7,519.2z"/>
			</g>
			<g class="st13">
				<path class="st3" d="M1579.1,507.6h-3.6v7.3c0,0.7,0.1,1.1,0.4,1.4s0.7,0.4,1.2,0.4c0.5,0,1.2,0,2,0v2.1
					c-2.1,0.3-3.6,0.1-4.5-0.5c-1-0.6-1.4-1.7-1.4-3.4v-7.3h-2.7v-2.3h2.7v-3.1l2.3-0.7v3.8h3.6V507.6z"/>
				<path class="st3" d="M1605.7,505.3h2.2l-3.9,13.5h-2.4l-3.2-10.1l-3.2,10.1h-2.5l-4-13.5h2.5l3,10.3l3.2-10.3h2.3l3.2,10.3
					L1605.7,505.3z"/>
				<path class="st3" d="M1612.3,502.9c-0.5,0-0.8-0.2-1.1-0.5c-0.3-0.3-0.5-0.7-0.5-1.1c0-0.4,0.2-0.8,0.5-1.1
					c0.3-0.3,0.7-0.5,1.1-0.5c0.4,0,0.8,0.2,1.1,0.5c0.3,0.3,0.5,0.7,0.5,1.1c0,0.4-0.2,0.8-0.5,1.1
					C1613.1,502.7,1612.7,502.9,1612.3,502.9z M1611.1,518.8v-13.5h2.3v13.5H1611.1z"/>
			</g>
			<g class="st13">
				<path class="st3" d="M1625.5,507.6h-3.6v7.3c0,0.7,0.1,1.1,0.4,1.4s0.7,0.4,1.2,0.4s1.2,0,2,0v2.1c-2.1,0.3-3.6,0.1-4.5-0.5
					c-1-0.6-1.4-1.7-1.4-3.4v-7.3h-2.7v-2.3h2.7v-3.1l2.3-0.7v3.8h3.6V507.6z"/>
			</g>
			<g class="st13">
				<path class="st3" d="M1635.7,505c1.6,0,2.9,0.5,3.8,1.5s1.4,2.4,1.4,4.1v8.3h-2.3v-8.2c0-1.1-0.3-1.9-0.9-2.6
					c-0.6-0.6-1.4-0.9-2.5-0.9c-1.2,0-2.1,0.4-2.8,1.1c-0.7,0.7-1.1,1.8-1.1,3.4v7.2h-2.3v-18.9h2.3v7.3
					C1632.3,505.7,1633.7,505,1635.7,505z"/>
				<path class="st3" d="M1659.3,507.6h-3.6v7.3c0,0.7,0.1,1.1,0.4,1.4s0.7,0.4,1.2,0.4s1.2,0,2,0v2.1c-2.1,0.3-3.6,0.1-4.5-0.5
					c-1-0.6-1.4-1.7-1.4-3.4v-7.3h-2.7v-2.3h2.7v-3.1l2.3-0.7v3.8h3.6V507.6z"/>
				<path class="st3" d="M1672,505.3h2.3v13.5h-2.3v-1.9c-1,1.5-2.4,2.3-4.4,2.3c-1.6,0-2.9-0.5-3.8-1.5c-1-1-1.4-2.4-1.4-4.1v-8.3
					h2.3v8.2c0,1.1,0.3,1.9,0.9,2.6c0.6,0.6,1.4,0.9,2.5,0.9c1.2,0,2.1-0.4,2.8-1.1c0.7-0.7,1.1-1.8,1.1-3.4V505.3z"/>
				<path class="st3" d="M1680.8,507.6c0.8-1.7,2.2-2.5,4.2-2.5v2.5c-1.2-0.1-2.1,0.3-3,0.9s-1.2,1.7-1.2,3.2v7.2h-2.3v-13.5h2.3
					V507.6z"/>
				<path class="st3" d="M1695.3,505c1.9,0,3.5,0.7,4.8,2.1s2,3.1,2,5c0,2-0.7,3.7-2,5s-2.9,2.1-4.8,2.1c-2.2,0-3.9-0.9-5.1-2.7v2.3
					h-2.3v-18.9h2.3v7.7C1691.3,505.9,1693,505,1695.3,505z M1695,516.9c1.4,0,2.5-0.5,3.4-1.4c0.9-0.9,1.4-2.1,1.4-3.4
					s-0.5-2.5-1.4-3.4s-2.1-1.4-3.4-1.4c-1.4,0-2.5,0.5-3.4,1.4s-1.4,2.1-1.4,3.4s0.5,2.5,1.4,3.4
					C1692.5,516.4,1693.6,516.9,1695,516.9z"/>
				<path class="st3" d="M1706.6,502.9c-0.5,0-0.8-0.2-1.1-0.5c-0.3-0.3-0.5-0.7-0.5-1.1c0-0.4,0.2-0.8,0.5-1.1
					c0.3-0.3,0.7-0.5,1.1-0.5c0.4,0,0.8,0.2,1.1,0.5c0.3,0.3,0.5,0.7,0.5,1.1c0,0.4-0.2,0.8-0.5,1.1
					C1707.4,502.7,1707,502.9,1706.6,502.9z M1705.4,518.8v-13.5h2.3v13.5H1705.4z"/>
				<path class="st3" d="M1718.6,505c1.6,0,2.9,0.5,3.8,1.5s1.4,2.4,1.4,4.1v8.3h-2.3v-8.2c0-1.1-0.3-1.9-0.9-2.6
					c-0.6-0.6-1.4-0.9-2.5-0.9c-1.2,0-2.1,0.4-2.8,1.1c-0.7,0.7-1.1,1.8-1.1,3.4v7.2h-2.3v-13.5h2.3v1.9
					C1715.2,505.7,1716.6,505,1718.6,505z"/>
				<path class="st3" d="M1729.3,513.1c0.2,1.2,0.8,2.1,1.7,2.8c0.9,0.7,1.9,1,3.2,1c1.8,0,3.1-0.7,3.9-2l2,1.1
					c-1.3,2-3.3,3.1-5.9,3.1c-2.1,0-3.9-0.7-5.2-2c-1.3-1.3-2-3-2-5.1c0-2,0.7-3.7,2-5.1c1.3-1.3,3-2,5.1-2c2,0,3.6,0.7,4.8,2.1
					c1.3,1.4,1.9,3.1,1.9,5c0,0.3,0,0.7-0.1,1.1H1729.3z M1733.9,507.2c-1.3,0-2.3,0.4-3.1,1.1s-1.3,1.7-1.5,2.8h9
					c-0.2-1.3-0.7-2.2-1.5-2.9C1736,507.5,1735,507.2,1733.9,507.2z"/>
			</g>
			<g class="st13">
				<path class="st3" d="M1432,539.9v2.4h-5.6v16.5h-2.5v-16.5h-5.6v-2.4H1432z"/>
			</g>
			<g class="st13">
				<path class="st3" d="M1442.1,545.3h2.3v13.5h-2.3v-1.9c-1,1.5-2.4,2.3-4.4,2.3c-1.6,0-2.9-0.5-3.8-1.5c-1-1-1.4-2.4-1.4-4.1
					v-8.3h2.3v8.2c0,1.1,0.3,1.9,0.9,2.6c0.6,0.6,1.4,0.9,2.5,0.9c1.2,0,2.1-0.4,2.8-1.1c0.7-0.7,1.1-1.8,1.1-3.4V545.3z"/>
				<path class="st3" d="M1451.2,547.6c0.8-1.7,2.2-2.5,4.2-2.5v2.5c-1.2-0.1-2.1,0.3-3,0.9c-0.8,0.7-1.2,1.7-1.2,3.2v7.2h-2.3
					v-13.5h2.3V547.6z"/>
				<path class="st3" d="M1465.2,545c1.6,0,2.9,0.5,3.8,1.5c1,1,1.4,2.4,1.4,4.1v8.3h-2.3v-8.2c0-1.1-0.3-1.9-0.9-2.6
					c-0.6-0.6-1.4-0.9-2.5-0.9c-1.2,0-2.1,0.4-2.8,1.1c-0.7,0.7-1.1,1.8-1.1,3.4v7.2h-2.3v-13.5h2.3v1.9
					C1461.8,545.7,1463.2,545,1465.2,545z"/>
			</g>
			<g class="st13">
				<path class="st3" d="M1475.8,553.1c0.2,1.2,0.8,2.1,1.7,2.8c0.9,0.7,1.9,1,3.2,1c1.8,0,3.1-0.7,3.9-2l2,1.1
					c-1.3,2-3.3,3.1-5.9,3.1c-2.1,0-3.9-0.7-5.2-2c-1.3-1.3-2-3-2-5.1c0-2,0.7-3.7,2-5.1c1.3-1.3,3-2,5.1-2c2,0,3.6,0.7,4.8,2.1
					c1.3,1.4,1.9,3.1,1.9,5c0,0.3,0,0.7-0.1,1.1H1475.8z M1480.4,547.2c-1.3,0-2.3,0.4-3.1,1.1s-1.3,1.7-1.5,2.8h9
					c-0.2-1.3-0.7-2.2-1.5-2.9C1482.5,547.5,1481.5,547.2,1480.4,547.2z"/>
			</g>
			<g class="st13">
				<path class="st3" d="M1501.7,539.9h2.3v18.9h-2.3v-2.3c-1.2,1.8-2.9,2.7-5.1,2.7c-1.9,0-3.5-0.7-4.8-2.1s-2-3.1-2-5
					c0-2,0.7-3.7,2-5s2.9-2.1,4.8-2.1c2.2,0,3.9,0.9,5.1,2.7V539.9z M1496.9,556.9c1.4,0,2.5-0.5,3.4-1.4c0.9-0.9,1.4-2.1,1.4-3.4
					s-0.5-2.5-1.4-3.4s-2.1-1.4-3.4-1.4c-1.3,0-2.5,0.5-3.4,1.4s-1.4,2.1-1.4,3.4s0.5,2.5,1.4,3.4
					C1494.4,556.4,1495.5,556.9,1496.9,556.9z"/>
			</g>
			<g class="st13">
				<path class="st3" d="M1527.1,557.1c-1.4,1.4-3.1,2.1-5,2.1c-2,0-3.7-0.7-5-2.1c-1.4-1.4-2.1-3.1-2.1-5s0.7-3.7,2.1-5
					s3.1-2.1,5-2.1c2,0,3.7,0.7,5,2.1c1.4,1.4,2.1,3.1,2.1,5S1528.5,555.7,1527.1,557.1z M1522,556.9c1.3,0,2.5-0.5,3.4-1.4
					s1.4-2.1,1.4-3.4s-0.5-2.5-1.4-3.4s-2.1-1.4-3.4-1.4c-1.3,0-2.5,0.5-3.4,1.4s-1.4,2.1-1.4,3.4s0.5,2.5,1.4,3.4
					S1520.7,556.9,1522,556.9z"/>
			</g>
			<g class="st13">
				<path class="st3" d="M1546.4,541.6c-2.4-0.2-3.5,0.8-3.5,3.1v0.7h3.5v2.3h-3.5v11.2h-2.3v-11.2h-5v11.2h-2.3v-11.2h-2.2v-2.3
					h2.2v-0.4c0-1.8,0.5-3.2,1.5-4.1c1-0.9,2.5-1.3,4.4-1.2v2.3c-2.4-0.2-3.6,0.8-3.6,3.1v0.4h5v-0.7c0-1.8,0.5-3.2,1.5-4.1
					c1-0.9,2.5-1.3,4.4-1.2V541.6z"/>
			</g>
			<circle class="st14" cx="1369.3" cy="380.9" r="14.2"/>
			<circle cx="1369.3" cy="422.8" r="14.2"/>
			<circle class="st15" cx="1369.3" cy="464.8" r="14.2"/>
			<circle class="st16" cx="1370.9" cy="506.7" r="14.3"/>
			<circle class="st17" cx="1369.3" cy="548.6" r="14.2"/>
			<line class="st1" x1="1346.7" y1="335" x2="1395.4" y2="335"/>
			<line class="st1" x1="1348.2" y1="596.4" x2="1396.9" y2="596.4"/>
			<g class="st13">
				<path class="st3" d="M1501.4,241.3c-4.1,0-7.5-0.9-10.3-2.7c-2.8-1.8-4.8-4.3-5.9-7.5l7-4.1c1.6,4.2,4.8,6.3,9.5,6.3
					c2.3,0,4-0.4,5-1.2s1.6-1.9,1.6-3.1c0-1.5-0.6-2.6-1.9-3.4c-1.3-0.8-3.6-1.7-7-2.6c-1.9-0.5-3.4-1.1-4.7-1.7
					c-1.3-0.6-2.6-1.3-3.8-2.2c-1.3-0.9-2.3-2.1-2.9-3.5c-0.7-1.4-1-3.1-1-5c0-3.7,1.3-6.7,4-8.9c2.7-2.2,5.9-3.3,9.6-3.3
					c3.3,0,6.3,0.8,8.8,2.4c2.5,1.6,4.5,3.9,5.9,6.8l-6.8,4c-1.7-3.5-4.3-5.3-7.9-5.3c-1.7,0-3,0.4-4,1.2c-1,0.8-1.4,1.8-1.4,3
					c0,1.3,0.5,2.4,1.6,3.2c1.1,0.8,3.2,1.7,6.2,2.6c1.3,0.4,2.2,0.7,2.9,0.9c0.6,0.2,1.5,0.6,2.7,1c1.1,0.5,2,0.9,2.6,1.3
					c0.6,0.4,1.3,0.9,2.1,1.6s1.4,1.4,1.8,2.1s0.8,1.6,1.1,2.6c0.3,1,0.4,2.1,0.4,3.3c0,3.8-1.4,6.8-4.2,9.1
					C1509.4,240.2,1505.8,241.3,1501.4,241.3z"/>
			</g>
			<g class="st13">
				<path class="st3" d="M1553.4,199.1v7.8h-11.2v33.5h-8.1v-33.5H1523v-7.8H1553.4z"/>
				<path class="st3" d="M1585.1,240.5l-2.6-7.4h-17l-2.5,7.4h-8.8l14.5-41.3h10.1l14.6,41.3H1585.1z M1568.1,225.4h11.6l-6-16.9
					L1568.1,225.4z"/>
			</g>
			<g class="st13">
				<path class="st3" d="M1630.5,199.1v7.8h-11.2v33.5h-8.1v-33.5h-11.1v-7.8H1630.5z"/>
				<path class="st3" d="M1656.4,241.3c-4.6,0-8.4-1.3-11.3-3.9c-3-2.6-4.4-6.1-4.4-10.4v-27.8h8.1v27.1c0,2.2,0.6,3.9,1.9,5.1
					c1.2,1.3,3.2,1.9,5.8,1.9c2.6,0,4.6-0.6,5.8-1.9c1.2-1.3,1.9-3,1.9-5.1v-27.1h8.1v27.8c0,4.4-1.5,7.8-4.4,10.4
					C1664.8,240,1661,241.3,1656.4,241.3z"/>
				<path class="st3" d="M1699.5,241.3c-4.1,0-7.5-0.9-10.3-2.7c-2.8-1.8-4.8-4.3-5.9-7.5l7-4.1c1.6,4.2,4.8,6.3,9.5,6.3
					c2.3,0,4-0.4,5-1.2s1.6-1.9,1.6-3.1c0-1.5-0.6-2.6-1.9-3.4c-1.3-0.8-3.6-1.7-7-2.6c-1.8-0.5-3.4-1.1-4.7-1.7
					c-1.3-0.6-2.6-1.3-3.8-2.2c-1.3-0.9-2.3-2.1-2.9-3.5c-0.7-1.4-1-3.1-1-5c0-3.7,1.3-6.7,4-8.9c2.7-2.2,5.9-3.3,9.6-3.3
					c3.3,0,6.3,0.8,8.8,2.4c2.5,1.6,4.5,3.9,5.9,6.8l-6.8,4c-1.7-3.5-4.3-5.3-7.9-5.3c-1.7,0-3,0.4-4,1.2c-1,0.8-1.4,1.8-1.4,3
					c0,1.3,0.5,2.4,1.6,3.2s3.2,1.7,6.2,2.6c1.3,0.4,2.2,0.7,2.9,0.9c0.6,0.2,1.5,0.6,2.7,1c1.1,0.5,2,0.9,2.6,1.3s1.3,0.9,2.1,1.6
					c0.8,0.7,1.4,1.4,1.8,2.1s0.8,1.6,1.1,2.6c0.3,1,0.4,2.1,0.4,3.3c0,3.8-1.4,6.8-4.2,9.1C1707.6,240.2,1703.9,241.3,1699.5,241.3
					z"/>
			</g>
			<line class="st2" x1="1372.6" y1="293.5" x2="1841.4" y2="293.5"/>
			<line class="st2" x1="1372.6" y1="643.5" x2="1841.4" y2="643.5"/>
			<g class="st13">
				<path class="st3" d="M1454.9,734h-7.1v4.2h6.9v3.3h-6.9v6.8h-3.5v-17.7h10.6V734z"/>
			</g>
			<g class="st13">
				<path class="st3" d="M1470.2,748.4l-1.1-3.2h-7.3l-1.1,3.2h-3.8l6.2-17.7h4.3l6.3,17.7H1470.2z M1462.9,742h5l-2.6-7.2
					L1462.9,742z"/>
			</g>
			<g class="st13">
				<path class="st3" d="M1483.5,748.8c-2,0-3.6-0.6-4.9-1.7s-1.9-2.6-1.9-4.5v-11.9h3.5v11.7c0,0.9,0.3,1.7,0.8,2.2
					c0.5,0.5,1.4,0.8,2.5,0.8c1.1,0,2-0.3,2.5-0.8c0.5-0.5,0.8-1.3,0.8-2.2v-11.7h3.5v11.9c0,1.9-0.6,3.4-1.9,4.5
					C1487.1,748.2,1485.5,748.8,1483.5,748.8z"/>
			</g>
			<g class="st13">
				<path class="st3" d="M1498.8,745.1h6.8v3.3h-10.3v-17.7h3.5V745.1z"/>
			</g>
			<g class="st13">
				<path class="st3" d="M1519.4,730.7v3.3h-4.8v14.4h-3.5V734h-4.8v-3.3H1519.4z"/>
				<path class="st3" d="M1537.4,730.7l-6.1,10.8v6.9h-3.5v-6.9l-6.1-10.8h4l3.8,7.4l3.9-7.4H1537.4z"/>
				<path class="st3" d="M1561.2,730.7v3.3h-4.8v14.4h-3.5V734h-4.8v-3.3H1561.2z"/>
				<path class="st3" d="M1571.8,748.8c-2,0-3.6-0.6-4.9-1.7c-1.3-1.1-1.9-2.6-1.9-4.5v-11.9h3.5v11.7c0,0.9,0.3,1.7,0.8,2.2
					c0.5,0.5,1.4,0.8,2.5,0.8c1.1,0,2-0.3,2.5-0.8c0.5-0.5,0.8-1.3,0.8-2.2v-11.7h3.5v11.9c0,1.9-0.6,3.4-1.9,4.5
					C1575.4,748.2,1573.8,748.8,1571.8,748.8z"/>
				<path class="st3" d="M1593.5,748.4l-3.6-6.2h-2.6v6.2h-3.5v-17.7h7.1c1.6,0,3,0.6,4.2,1.7c1.1,1.1,1.7,2.5,1.7,4.2
					c0,1.1-0.3,2.1-0.9,3.1c-0.6,0.9-1.5,1.6-2.5,2.1l3.9,6.7H1593.5z M1587.2,734v5.2h3.6c0.7,0,1.2-0.3,1.7-0.8
					c0.5-0.5,0.7-1.1,0.7-1.9c0-0.7-0.2-1.3-0.7-1.8c-0.5-0.5-1-0.8-1.7-0.8H1587.2z"/>
				<path class="st3" d="M1612,739.2c1.6,0.9,2.3,2.2,2.3,4.1c0,1.5-0.5,2.7-1.6,3.7c-1.1,1-2.4,1.4-3.9,1.4h-7.5v-17.7h7
					c1.5,0,2.8,0.5,3.8,1.4c1,0.9,1.6,2.1,1.6,3.6C1613.7,737.2,1613.2,738.3,1612,739.2z M1608.3,734h-3.5v3.9h3.5
					c0.5,0,1-0.2,1.4-0.6c0.4-0.4,0.5-0.8,0.5-1.4c0-0.6-0.2-1-0.5-1.4C1609.3,734.2,1608.9,734,1608.3,734z M1608.8,745.2
					c0.6,0,1.1-0.2,1.5-0.6c0.4-0.4,0.6-0.9,0.6-1.5c0-0.6-0.2-1.1-0.6-1.5c-0.4-0.4-0.9-0.6-1.5-0.6h-4v4.2H1608.8z"/>
				<path class="st3" d="M1618.7,730.7h3.5v17.7h-3.5V730.7z"/>
				<path class="st3" d="M1637.8,730.7h3.5v17.7h-2.7l-7.6-10.8v10.8h-3.5v-17.7h2.7l7.6,10.8V730.7z"/>
				<path class="st3" d="M1650.1,745.1h7.5v3.3h-11v-17.7h10.8v3.3h-7.3v3.8h6.7v3.3h-6.7V745.1z"/>
				<path class="st3" d="M1668.1,748.8c-1.8,0-3.2-0.4-4.4-1.2s-2-1.9-2.5-3.2l3-1.7c0.7,1.8,2.1,2.7,4.1,2.7c1,0,1.7-0.2,2.2-0.5
					s0.7-0.8,0.7-1.3c0-0.6-0.3-1.1-0.8-1.5c-0.6-0.3-1.6-0.7-3-1.1c-0.8-0.2-1.5-0.5-2-0.7c-0.5-0.2-1.1-0.6-1.6-0.9
					c-0.5-0.4-1-0.9-1.3-1.5c-0.3-0.6-0.4-1.3-0.4-2.1c0-1.6,0.6-2.9,1.7-3.8c1.1-1,2.5-1.4,4.1-1.4c1.4,0,2.7,0.4,3.8,1.1
					c1.1,0.7,1.9,1.7,2.5,2.9l-2.9,1.7c-0.7-1.5-1.8-2.3-3.4-2.3c-0.7,0-1.3,0.2-1.7,0.5c-0.4,0.3-0.6,0.8-0.6,1.3
					c0,0.6,0.2,1,0.7,1.4c0.5,0.3,1.4,0.7,2.7,1.1c0.5,0.2,0.9,0.3,1.2,0.4c0.3,0.1,0.7,0.2,1.1,0.4s0.9,0.4,1.1,0.5
					c0.3,0.2,0.6,0.4,0.9,0.7s0.6,0.6,0.8,0.9c0.2,0.3,0.3,0.7,0.5,1.1s0.2,0.9,0.2,1.4c0,1.6-0.6,2.9-1.8,3.9
					C1671.5,748.3,1670,748.8,1668.1,748.8z"/>
				<path class="st3" d="M1697.8,734h-7.1v4.2h6.9v3.3h-6.9v6.8h-3.5v-17.7h10.6V734z"/>
			</g>
			<g class="st13">
				<path class="st3" d="M1715.6,746.1c-1.8,1.8-4,2.7-6.5,2.7c-2.6,0-4.7-0.9-6.5-2.7s-2.7-4-2.7-6.5c0-2.6,0.9-4.8,2.7-6.5
					s4-2.7,6.5-2.7c2.6,0,4.7,0.9,6.5,2.7s2.7,4,2.7,6.5C1718.3,742.1,1717.4,744.3,1715.6,746.1z M1705,743.7
					c1.1,1.1,2.5,1.6,4.1,1.6s3-0.5,4.1-1.6c1.1-1.1,1.6-2.5,1.6-4.2s-0.5-3.1-1.6-4.2c-1.1-1.1-2.5-1.6-4.1-1.6s-3,0.5-4.1,1.6
					c-1.1,1.1-1.6,2.5-1.6,4.2S1703.9,742.6,1705,743.7z"/>
			</g>
			<g class="st13">
				<path class="st3" d="M1729.2,748.8c-2,0-3.6-0.6-4.9-1.7c-1.3-1.1-1.9-2.6-1.9-4.5v-11.9h3.5v11.7c0,0.9,0.3,1.7,0.8,2.2
					c0.5,0.5,1.4,0.8,2.5,0.8c1.1,0,2-0.3,2.5-0.8c0.5-0.5,0.8-1.3,0.8-2.2v-11.7h3.5v11.9c0,1.9-0.6,3.4-1.9,4.5
					C1732.8,748.2,1731.2,748.8,1729.2,748.8z"/>
				<path class="st3" d="M1751.1,730.7h3.5v17.7h-2.7l-7.6-10.8v10.8h-3.5v-17.7h2.7l7.6,10.8V730.7z"/>
				<path class="st3" d="M1766.7,730.7c2.4,0,4.5,0.9,6.1,2.6c1.6,1.7,2.4,3.8,2.4,6.3s-0.8,4.6-2.4,6.3c-1.6,1.7-3.7,2.6-6.1,2.6
					h-7v-17.7H1766.7z M1766.7,745.1c1.5,0,2.8-0.5,3.7-1.5c1-1,1.4-2.4,1.4-4s-0.5-3-1.4-4c-1-1-2.2-1.5-3.7-1.5h-3.5v11H1766.7z"
					/>
			</g>
			<path class="st18" d="M1441.8,775h338.5c12.9,0,23.4,10.5,23.4,23.4v134.7c0,12.9-10.5,23.4-23.4,23.4h-338.5
				c-12.9,0-23.4-10.5-23.4-23.4V798.4C1418.4,785.5,1428.9,775,1441.8,775z"/>
		</g>
	</g>
</g>
</svg>
