<?xml version="1.0" encoding="UTF-8"?><svg xmlns="http://www.w3.org/2000/svg" xmlns:xlink="http://www.w3.org/1999/xlink" viewBox="0 0 1233.8 922.71"><defs><style>.e,.f{fill:none;}.g{clip-path:url(#d);}.f{stroke:#fff;stroke-miterlimit:10;stroke-width:.5px;}</style><clipPath id="d"><path class="e" d="M0,130.19V43.56C0,19.5,19.5,0,43.56,0H230.14c24.65,0,44.64,19.98,44.64,44.64h0c0,17.57,14.25,31.82,31.82,31.82h506.33c18.73,0,33.91-15.18,33.91-33.91h0C846.83,19.05,865.88,0,889.38,0h-99.24l69.49,.26h330.62c24.06,0,43.56,19.5,43.56,43.56V879.15c0,24.06-19.5,43.56-43.56,43.56H43.56c-24.06,0-43.56-19.5-43.56-43.56V118.15"/></clipPath></defs><g id="a"/><g id="b"><g id="c"><g class="g"><g><g><line class="f" x1="1.37" y1="3.26" x2="1.37" y2="920.66"/><line class="f" x1="29.35" y1="3.26" x2="29.35" y2="920.66"/><line class="f" x1="57.32" y1="3.26" x2="57.32" y2="920.66"/><line class="f" x1="85.3" y1="3.26" x2="85.3" y2="920.66"/><line class="f" x1="113.28" y1="3.26" x2="113.28" y2="920.66"/><line class="f" x1="141.26" y1="3.26" x2="141.26" y2="920.66"/><line class="f" x1="169.24" y1="3.26" x2="169.24" y2="920.66"/><line class="f" x1="225.19" y1="3.26" x2="225.19" y2="920.66"/><line class="f" x1="281.15" y1="3.26" x2="281.15" y2="920.66"/><line class="f" x1="337.1" y1="3.26" x2="337.1" y2="920.66"/><line class="f" x1="421.04" y1="3.26" x2="421.04" y2="920.66"/><line class="f" x1="504.97" y1="3.26" x2="504.97" y2="920.66"/><line class="f" x1="588.9" y1="3.26" x2="588.9" y2="920.66"/><line class="f" x1="672.84" y1="3.26" x2="672.84" y2="920.66"/><line class="f" x1="756.77" y1="3.26" x2="756.77" y2="920.66"/><line class="f" x1="197.21" y1="3.26" x2="197.21" y2="920.66"/><line class="f" x1="253.17" y1="3.26" x2="253.17" y2="920.66"/><line class="f" x1="309.12" y1="3.26" x2="309.12" y2="920.66"/><line class="f" x1="393.06" y1="3.26" x2="393.06" y2="920.66"/><line class="f" x1="476.99" y1="3.26" x2="476.99" y2="920.66"/><line class="f" x1="532.95" y1="3.26" x2="532.95" y2="920.66"/><line class="f" x1="644.86" y1="3.26" x2="644.86" y2="920.66"/><line class="f" x1="728.79" y1="3.26" x2="728.79" y2="920.66"/><line class="f" x1="812.73" y1="3.26" x2="812.73" y2="920.66"/><line class="f" x1="868.68" y1="3.26" x2="868.68" y2="920.66"/><line class="f" x1="924.64" y1="3.26" x2="924.64" y2="920.66"/><line class="f" x1="1008.57" y1="3.26" x2="1008.57" y2="920.66"/><line class="f" x1="1092.51" y1="3.26" x2="1092.51" y2="920.66"/><line class="f" x1="1148.46" y1="3.26" x2="1148.46" y2="920.66"/><line class="f" x1="365.08" y1="3.26" x2="365.08" y2="920.66"/><line class="f" x1="449.01" y1="3.26" x2="449.01" y2="920.66"/><line class="f" x1="560.93" y1="3.26" x2="560.93" y2="920.66"/><line class="f" x1="616.88" y1="3.26" x2="616.88" y2="920.66"/><line class="f" x1="700.82" y1="3.26" x2="700.82" y2="920.66"/><line class="f" x1="784.75" y1="3.26" x2="784.75" y2="920.66"/><line class="f" x1="840.71" y1="3.26" x2="840.71" y2="920.66"/><line class="f" x1="896.66" y1="3.26" x2="896.66" y2="920.66"/><line class="f" x1="980.59" y1="3.26" x2="980.59" y2="920.66"/><line class="f" x1="1064.53" y1="3.26" x2="1064.53" y2="920.66"/><line class="f" x1="1176.44" y1="3.26" x2="1176.44" y2="920.66"/><line class="f" x1="1232.4" y1="3.26" x2="1232.4" y2="920.66"/><line class="f" x1="952.62" y1="3.26" x2="952.62" y2="920.66"/><line class="f" x1="1036.55" y1="3.26" x2="1036.55" y2="920.66"/><line class="f" x1="1120.48" y1="3.26" x2="1120.48" y2="920.66"/><line class="f" x1="1204.42" y1="3.26" x2="1204.42" y2="920.66"/></g><g><line class="f" x1="-30.07" y1="476.24" x2="1736" y2="476.24"/><line class="f" x1="-30.07" y1="392.31" x2="1736" y2="392.31"/><line class="f" x1="-30.07" y1="560.17" x2="1736" y2="560.17"/><line class="f" x1="-30.07" y1="504.22" x2="1736" y2="504.22"/><line class="f" x1="-30.07" y1="420.29" x2="1736" y2="420.29"/><line class="f" x1="-30.07" y1="336.35" x2="1736" y2="336.35"/><line class="f" x1="-30.07" y1="280.4" x2="1736" y2="280.4"/><line class="f" x1="-30.07" y1="224.44" x2="1736" y2="224.44"/><line class="f" x1="-30.07" y1="532.2" x2="1736" y2="532.2"/><line class="f" x1="-30.07" y1="448.26" x2="1736" y2="448.26"/><line class="f" x1="-30.07" y1="364.33" x2="1736" y2="364.33"/><line class="f" x1="-30.07" y1="308.37" x2="1736" y2="308.37"/><line class="f" x1="-30.07" y1="252.42" x2="1736" y2="252.42"/><line class="f" x1="-30.07" y1="196.46" x2="1736" y2="196.46"/><line class="f" x1="-30.07" y1="168.48" x2="1736" y2="168.48"/><line class="f" x1="-30.07" y1="140.51" x2="1736" y2="140.51"/><line class="f" x1="-30.07" y1="112.53" x2="1736" y2="112.53"/><line class="f" x1="-30.07" y1="84.55" x2="1736" y2="84.55"/><line class="f" x1="-30.07" y1="56.57" x2="1736" y2="56.57"/><line class="f" x1="-30.07" y1="28.59" x2="1736" y2="28.59"/><line class="f" x1="-30.07" y1=".62" x2="1736" y2=".62"/></g><g><line class="f" x1="-30.07" y1="867.93" x2="1736" y2="867.93"/><line class="f" x1="-30.07" y1="811.98" x2="1736" y2="811.98"/><line class="f" x1="-30.07" y1="895.91" x2="1736" y2="895.91"/><line class="f" x1="-30.07" y1="839.95" x2="1736" y2="839.95"/><line class="f" x1="-30.07" y1="784" x2="1736" y2="784"/><line class="f" x1="-30.07" y1="756.02" x2="1736" y2="756.02"/><line class="f" x1="-30.07" y1="728.04" x2="1736" y2="728.04"/><line class="f" x1="-30.07" y1="700.06" x2="1736" y2="700.06"/><line class="f" x1="-30.07" y1="672.09" x2="1736" y2="672.09"/><line class="f" x1="-30.07" y1="644.11" x2="1736" y2="644.11"/><line class="f" x1="-30.07" y1="616.13" x2="1736" y2="616.13"/><line class="f" x1="-30.07" y1="588.15" x2="1736" y2="588.15"/></g></g></g></g></g></svg>