<?xml version="1.0" encoding="utf-8"?>
<!-- Generator: Adobe Illustrator 26.3.1, SVG Export Plug-In . SVG Version: 6.00 Build 0)  -->
<svg version="1.1" id="Layer_1" xmlns="http://www.w3.org/2000/svg" xmlns:xlink="http://www.w3.org/1999/xlink" x="0px" y="0px"
	 viewBox="0 0 1924.9 1087.5" style="enable-background:new 0 0 1924.9 1087.5;" xml:space="preserve">
<style type="text/css">
	.st0{fill:#19192D;}
	.st1{clip-path:url(#SVGID_00000133496722788694970450000014079806233001664161_);}
	.st2{fill:none;stroke:#FFFFFF;stroke-width:6;stroke-miterlimit:10;}
	.st3{fill:none;stroke:#FFFFFF;stroke-miterlimit:10;}
	.st4{fill:#FFFFFF;}
	.st5{fill:#323244;}
	.st6{enable-background:new    ;}
	.st7{fill:none;stroke:#FFFFFF;stroke-width:5;stroke-miterlimit:10;}
	.st8{fill:#19192D;stroke:#FFFFFF;stroke-width:5;stroke-miterlimit:10;}
	.st9{opacity:0.1;fill:#FBEDD5;enable-background:new    ;}
	.st10{fill:#19192D;stroke:#E9A72D;stroke-width:5;stroke-miterlimit:10;}
	.st11{fill:#E9A72D;}
	.st12{opacity:0.2;}
	.st13{fill:#FBEDD5;}
</style>
<g>
	<g id="a">
	</g>
	<g id="b">
		<g id="c">
			<rect x="4.2" y="6.6" class="st0" width="1920" height="1080"/>
			<g>
				<defs>
					<polygon id="SVGID_1_" points="24.5,33.3 24.7,33.3 24.5,33.5 					"/>
				</defs>
				<defs>
					<polygon id="SVGID_00000147196795566962002010000017495788395984912006_" points="24,32.8 23.8,32.8 24,32.6 					"/>
				</defs>
				<clipPath id="SVGID_00000012446369229851406770000007101927335126323613_">
					<use xlink:href="#SVGID_1_"  style="overflow:visible;"/>
				</clipPath>
				
					<clipPath id="SVGID_00000175319516704604390080000004880283289993095847_" style="clip-path:url(#SVGID_00000012446369229851406770000007101927335126323613_);">
					<use xlink:href="#SVGID_00000147196795566962002010000017495788395984912006_"  style="overflow:visible;"/>
				</clipPath>
				<g style="clip-path:url(#SVGID_00000175319516704604390080000004880283289993095847_);enable-background:new    ;">
					
						<image style="overflow:visible;" width="7798" height="4264" xlink:href="9060DDCA2C0FBBE0.png"  transform="matrix(0.24 0 0 0.24 -911.52 -478.62)">
					</image>
				</g>
			</g>
			<path class="st2" d="M126.5,89.8H1802c24.1,0,43.6,19.5,43.6,43.6v826.3c0,24.1-19.5,43.6-43.6,43.6H126.5
				c-24.1,0-43.6-19.5-43.6-43.6V133.4C82.9,109.3,102.4,89.8,126.5,89.8z"/>
			<g>
				<g>
					<line class="st3" x1="964.2" y1="6.6" x2="964.2" y2="89.8"/>
					<line class="st3" x1="964.2" y1="1004.2" x2="964.2" y2="1087.5"/>
				</g>
				<line class="st3" x1="1.8" y1="547" x2="85.1" y2="547"/>
				<line class="st3" x1="1841.6" y1="547" x2="1924.9" y2="547"/>
			</g>
			<g>
				<g>
					<circle class="st4" cx="52.8" cy="70.5" r="6.8"/>
					<circle class="st4" cx="52.8" cy="1026.5" r="6.8"/>
				</g>
				<g>
					<circle class="st4" cx="1884.3" cy="70.5" r="6.8"/>
					<circle class="st4" cx="1884.3" cy="1026.5" r="6.8"/>
				</g>
			</g>
			<rect class="st0" width="1920" height="1080"/>
			<path class="st5" d="M1819.2,341.9v396.3h-776.4V341.9c0-24.1,19.6-43.6,43.6-43.6h689.2C1799.7,298.3,1819.2,317.9,1819.2,341.9
				L1819.2,341.9z"/>
			<path class="st2" d="M126.5,89.8H1802c24.1,0,43.6,19.5,43.6,43.6v826.3c0,24.1-19.5,43.6-43.6,43.6H126.5
				c-24.1,0-43.6-19.5-43.6-43.6V133.4C82.9,109.3,102.4,89.8,126.5,89.8z"/>
			<circle class="st3" cx="550.7" cy="547.2" r="416.4"/>
			<g class="st6">
				<path class="st4" d="M1119.4,168.3v6.3h-9v27h-6.6v-27h-8.9v-6.3H1119.4z"/>
			</g>
			<g class="st6">
				<path class="st4" d="M1134.4,195.3h14v6.3h-20.6v-33.3h20.4v6.3h-13.8v7.1h12.6v6.2h-12.6V195.3z"/>
			</g>
			<g class="st6">
				<path class="st4" d="M1173.4,202.2c-5,0-9.1-1.7-12.4-5s-4.9-7.4-4.9-12.3c0-4.9,1.6-9,4.9-12.3c3.3-3.3,7.4-5,12.4-5
					c3,0,5.8,0.7,8.3,2.1c2.6,1.4,4.5,3.3,6,5.7l-5.7,3.3c-0.8-1.5-2-2.7-3.5-3.5s-3.2-1.3-5.1-1.3c-3.2,0-5.8,1-7.8,3
					c-2,2-3,4.7-3,7.9c0,3.2,1,5.8,3,7.8c2,2,4.6,3,7.8,3c1.9,0,3.6-0.4,5.2-1.3s2.7-2,3.5-3.4l5.7,3.3c-1.4,2.4-3.4,4.3-5.9,5.7
					C1179.2,201.5,1176.4,202.2,1173.4,202.2z"/>
			</g>
			<g class="st6">
				<path class="st4" d="M1215.4,168.3h6.5v33.3h-6.5v-13.8H1203v13.8h-6.6v-33.3h6.6v13.2h12.4V168.3z"/>
				<path class="st4" d="M1252.1,168.3h6.6v33.3h-5l-14.3-20.4v20.4h-6.6v-33.3h5l14.3,20.3V168.3z"/>
				<path class="st4" d="M1269.6,168.3h6.6v33.3h-6.6V168.3z"/>
			</g>
			<g class="st6">
				<path class="st4" d="M1302.9,202.2c-5,0-9.1-1.7-12.4-5s-4.9-7.4-4.9-12.3c0-4.9,1.6-9,4.9-12.3c3.3-3.3,7.4-5,12.4-5
					c3,0,5.8,0.7,8.3,2.1c2.6,1.4,4.5,3.3,6,5.7l-5.7,3.3c-0.8-1.5-2-2.7-3.5-3.5s-3.2-1.3-5.1-1.3c-3.2,0-5.8,1-7.8,3
					c-2,2-3,4.7-3,7.9c0,3.2,1,5.8,3,7.8c2,2,4.6,3,7.8,3c1.9,0,3.6-0.4,5.2-1.3s2.7-2,3.5-3.4l5.7,3.3c-1.4,2.4-3.4,4.3-5.9,5.7
					C1308.7,201.5,1306,202.2,1302.9,202.2z"/>
			</g>
			<g class="st6">
				<path class="st4" d="M1326,168.3h6.6v33.3h-6.6V168.3z"/>
				<path class="st4" d="M1365.4,201.6l-2.1-6h-13.7l-2,6h-7.1l11.7-33.3h8.1l11.7,33.3H1365.4z M1351.8,189.4h9.4l-4.8-13.6
					L1351.8,189.4z"/>
				<path class="st4" d="M1399.3,168.3h6.6v33.3h-5l-14.3-20.4v20.4h-6.6v-33.3h5l14.3,20.3V168.3z"/>
			</g>
			<g class="st6">
				<path class="st4" d="M1449.2,202.2c-5,0-9.1-1.7-12.4-5s-4.9-7.4-4.9-12.3c0-4.9,1.6-9,4.9-12.3c3.3-3.3,7.4-5,12.4-5
					c3,0,5.8,0.7,8.3,2.1c2.6,1.4,4.5,3.3,6,5.7l-5.7,3.3c-0.8-1.5-2-2.7-3.5-3.5s-3.2-1.3-5.1-1.3c-3.2,0-5.8,1-7.8,3
					c-2,2-3,4.7-3,7.9c0,3.2,1,5.8,3,7.8c2,2,4.6,3,7.8,3c1.9,0,3.6-0.4,5.2-1.3s2.7-2,3.5-3.4l5.7,3.3c-1.4,2.4-3.4,4.3-5.9,5.7
					C1455.1,201.5,1452.3,202.2,1449.2,202.2z"/>
			</g>
			<g class="st6">
				<path class="st4" d="M1500,197.2c-3.4,3.3-7.5,5-12.3,5c-4.8,0-8.9-1.7-12.2-5c-3.3-3.3-5-7.4-5-12.3c0-4.9,1.7-8.9,5-12.3
					c3.3-3.3,7.4-5,12.2-5c4.8,0,8.9,1.7,12.3,5c3.4,3.3,5,7.4,5,12.3C1505.1,189.8,1503.4,193.9,1500,197.2z M1480.1,192.7
					c2.1,2,4.6,3.1,7.7,3.1c3,0,5.6-1,7.7-3.1c2.1-2,3.1-4.7,3.1-7.8c0-3.2-1-5.8-3.1-7.8c-2.1-2.1-4.6-3.1-7.7-3.1
					c-3,0-5.6,1-7.7,3.1c-2.1,2.1-3.1,4.7-3.1,7.8C1477,188.1,1478,190.7,1480.1,192.7z"/>
				<path class="st4" d="M1527.7,168.3c4.6,0,8.4,1.6,11.4,4.8c3.1,3.2,4.6,7.2,4.6,11.8c0,4.7-1.5,8.6-4.6,11.8
					c-3.1,3.2-6.9,4.8-11.4,4.8h-13.2v-33.3H1527.7z M1527.7,195.3c2.9,0,5.2-1,7-2.9c1.8-1.9,2.7-4.4,2.7-7.5
					c0-3.1-0.9-5.6-2.7-7.5c-1.8-1.9-4.2-2.9-7-2.9h-6.7v20.7H1527.7z"/>
				<path class="st4" d="M1559.7,195.3h14v6.3h-20.6v-33.3h20.4v6.3h-13.8v7.1h12.6v6.2h-12.6V195.3z"/>
				<path class="st4" d="M1619,168.3h6.6v33.3h-5l-14.3-20.4v20.4h-6.6v-33.3h5l14.3,20.3V168.3z"/>
				<path class="st4" d="M1658.4,201.6l-2.1-6h-13.7l-2,6h-7.1l11.7-33.3h8.1l11.7,33.3H1658.4z M1644.7,189.4h9.4l-4.8-13.6
					L1644.7,189.4z"/>
				<path class="st4" d="M1705.6,168.3v33.3h-6.5V180l-9.4,15.4l-0.8,0l-9.3-15.4v21.5h-6.6v-33.3h6.8l9.5,15.7l9.5-15.7H1705.6z"/>
				<path class="st4" d="M1723.1,195.3h14v6.3h-20.6v-33.3h20.4v6.3h-13.8v7.1h12.6v6.2h-12.6V195.3z"/>
			</g>
			<line class="st3" x1="550.7" y1="963.6" x2="550.7" y2="1003.9"/>
			<line class="st3" x1="550.7" y1="90.5" x2="550.7" y2="130.8"/>
			<line class="st7" x1="1017.1" y1="90.5" x2="1017.1" y2="1003.9"/>
			<line class="st3" x1="85.6" y1="547.2" x2="134.4" y2="547.2"/>
			<line class="st3" x1="967.1" y1="547.2" x2="1016" y2="547.2"/>
			<line class="st7" x1="1018.2" y1="274" x2="1845.5" y2="274"/>
			<path class="st0" d="M228.3,513.5l-7.1,1.8l-1.4,15.6l6.6,2.9l-0.7,8.1L189,525.2l0.8-9.3l39.2-10L228.3,513.5L228.3,513.5z
				 M213.1,527.8l0.9-10.7l-16,4.1L213.1,527.8L213.1,527.8z"/>
			<path class="st0" d="M220.9,452.8c2.7-2.7,6-3.6,9.7-2.6c3.1,0.9,5.4,2.6,6.8,5.4s1.7,5.7,0.8,9l-4.2,15.6l-36.8-10l3.9-14.5
				c0.9-3.2,2.6-5.5,5.1-7.2s5.3-2,8.3-1.2C217.6,448.1,219.7,450,220.9,452.8L220.9,452.8z M207.9,457.5l-2,7.3l8.1,2.2l2-7.3
				c0.3-1.1,0.2-2.2-0.4-3.1c-0.6-1-1.4-1.6-2.6-1.9c-1.2-0.3-2.2-0.2-3.2,0.3S208.2,456.4,207.9,457.5L207.9,457.5z M231.5,462.7
				c0.3-1.2,0.2-2.4-0.4-3.4c-0.6-1-1.5-1.7-2.8-2.1c-1.2-0.3-2.4-0.2-3.4,0.4c-1,0.6-1.7,1.5-2.1,2.7l-2.3,8.4l8.7,2.4L231.5,462.7
				L231.5,462.7z"/>
			<path class="st0" d="M259.3,411.5c-2.5,5.2-6.3,8.6-11.3,10.4c-5.1,1.7-10.1,1.4-15.2-1c-5.1-2.4-8.5-6.2-10.3-11.2
				c-1.8-5-1.5-10.1,1-15.3c1.5-3.1,3.6-5.6,6.3-7.6c2.7-1.9,5.7-3,8.9-3.3l0.6,7.5c-1.9,0.1-3.7,0.8-5.4,1.9
				c-1.6,1.2-2.9,2.7-3.9,4.7c-1.6,3.3-1.9,6.5-0.7,9.6s3.3,5.4,6.7,7c3.3,1.6,6.5,1.9,9.6,0.8c3.1-1,5.4-3.2,7-6.6
				c0.9-2,1.4-4,1.3-6c-0.1-2-0.7-3.8-1.8-5.3l6.2-4.2c1.8,2.7,2.8,5.7,3,9C261.5,405.1,260.8,408.4,259.3,411.5L259.3,411.5z"/>
			<path class="st0" d="M258.2,338.5c3.1-4.2,7.2-6.6,12.2-7.3c5-0.6,9.7,0.6,14,3.8c4.3,3.2,6.9,7.3,7.8,12.3
				c0.9,5-0.3,9.6-3.4,13.8l-9,12.2l-30.7-22.7L258.2,338.5L258.2,338.5z M283.1,356.9c2-2.7,2.7-5.5,2.1-8.5c-0.5-3-2.2-5.5-5-7.6
				c-2.8-2.1-5.8-3-8.8-2.6c-3,0.4-5.5,1.9-7.5,4.5l-4.5,6.1l19.1,14.1L283.1,356.9L283.1,356.9z"/>
			<path class="st0" d="M312.2,315.6l11.6-11.1l5,5.2L311.7,326l-26.3-27.6l16.9-16.1l5,5.2l-11.5,10.9l5.6,5.9l10.5-10l4.9,5.1
				l-10.5,10L312.2,315.6L312.2,315.6z"/>
			<path class="st0" d="M358.7,251.6l-12.6,8.7l5.1,7.5l12.2-8.4l4.1,5.9l-12.2,8.4l8.4,12.1l-6.2,4.3l-21.6-31.4l18.8-12.9
				L358.7,251.6L358.7,251.6z"/>
			<path class="st0" d="M426.1,231.1l1.2,2.7c2.2,5,2.5,9.7,0.7,14.2c-1.8,4.5-5.2,7.9-10.2,10.2c-5.4,2.4-10.6,2.7-15.7,0.8
				c-5.1-1.9-8.8-5.4-11.1-10.4c-2.3-5.1-2.5-10.1-0.6-15.2s5.5-8.8,10.6-11.1c3.2-1.5,6.5-2.1,9.9-1.8c3.4,0.3,6.3,1.3,8.9,3.1
				l-4.3,6c-1.5-1.1-3.2-1.6-5.3-1.8c-2.1-0.1-4.1,0.2-6.2,1.2c-3.3,1.5-5.5,3.8-6.7,6.9s-1,6.4,0.5,9.7c1.5,3.3,3.8,5.5,6.9,6.7
				c3.1,1.2,6.5,0.9,10.1-0.7c2.6-1.2,4.6-2.8,5.8-4.7c1.2-2,1.7-4.1,1.4-6.4l-10.5,4.8l-2.7-6.1L426.1,231.1L426.1,231.1z"/>
			<path class="st0" d="M466.6,199.1l7.3-1.7l8.7,37.1l-7.3,1.7l-3.6-15.4l-13.8,3.2l3.6,15.4l-7.3,1.7l-8.7-37.1l7.3-1.7l3.5,14.8
				l13.8-3.2L466.6,199.1z"/>
			<path class="st0" d="M515.7,192.8l7.5-0.6l3.1,38l-7.5,0.6L515.7,192.8L515.7,192.8z"/>
			<path class="st0" d="M575,230.6c-6-0.3-10-3-12.2-7.9l6.7-3.3c1.1,2.5,3,3.8,5.9,3.9c2,0.1,3.5-0.3,4.5-1.2
				c1-0.9,1.6-2.1,1.7-3.8l1.5-26.2l7.5,0.4l-1.5,26.2c-0.2,4-1.7,7-4.3,9.1C582.2,229.9,578.9,230.9,575,230.6z"/>
			<path class="st0" d="M650.1,242.2l-8.5-1.9l-9.3-20.5l-4,17.4l-7.3-1.7l8.5-37.2l7.3,1.7l-3.8,16.4l16.5-13.5l8.5,1.9l-17.9,14.9
				L650.1,242.2L650.1,242.2z"/>
			<path class="st0" d="M687.4,249.9l13.5,5.5l-2.7,6.7l-20.4-8.4l14.5-35.3l7,2.9L687.4,249.9L687.4,249.9z"/>
			<path class="st0" d="M774.8,268.5L751,298.3l-5.8-4.7l15.5-19.3l-19.5,7.1l-0.7-0.5l2.7-20.5l-15.4,19.3l-5.9-4.7l23.8-29.8
				l6,4.8l-2.7,20.9l19.8-7.3L774.8,268.5L774.8,268.5z"/>
			<path class="st0" d="M810.5,301.9l5.4,5.2l-26.3,27.6l-4.1-4l4.3-28.2l-16.1,16.9l-5.4-5.2l26.3-27.6l4.1,3.9l-4.2,28.1
				L810.5,301.9L810.5,301.9z"/>
			<path class="st0" d="M825.2,378.8c-5.4-0.9-9.6-3.6-12.8-8.1s-4.3-9.4-3.4-14.8c0.9-5.4,3.6-9.6,8.2-12.9s9.5-4.4,14.8-3.5
				c5.3,0.9,9.6,3.6,12.8,8.1s4.3,9.4,3.5,14.8c-0.9,5.4-3.6,9.6-8.1,12.9S830.6,379.7,825.2,378.8L825.2,378.8z M816.1,357.2
				c-0.5,3.3,0.2,6.3,2.2,9.2c2,2.8,4.7,4.5,8,5.1s6.4-0.2,9.4-2.3c3-2.1,4.7-4.8,5.3-8.1c0.6-3.3-0.2-6.4-2.2-9.2
				c-2-2.8-4.7-4.5-8-5.1s-6.4,0.2-9.4,2.3S816.7,353.9,816.1,357.2L816.1,357.2z"/>
			<path class="st0" d="M887.3,482.5c-4.8,1.2-9.3,0.7-13.6-1.4l-3,4.8l-5.9-4l3.2-5.1c-2.3-2.5-3.9-5.4-4.7-8.7
				c-1.3-5.3-0.6-10.3,2.2-15c2.8-4.7,6.9-7.7,12.3-9s10.4-0.6,15.1,2.2c4.7,2.8,7.7,6.9,9,12.2c1.3,5.3,0.6,10.3-2.2,15
				C896.8,478.1,892.7,481.1,887.3,482.5z M870.4,466.3c0.3,1.4,0.9,2.7,1.7,4l4.8-7.7l5.9,4l-5.1,8.2c2.5,1,5.1,1.1,7.8,0.4
				c3.5-0.9,6.1-2.8,7.9-5.6s2.2-6,1.3-9.4c-0.8-3.4-2.7-5.9-5.6-7.6c-2.9-1.7-6.1-2.1-9.6-1.2c-3.5,0.9-6.1,2.8-7.8,5.6
				S869.5,462.9,870.4,466.3L870.4,466.3z"/>
			<path class="st0" d="M874.2,531.9l12.5-8.8l-0.5-5.7l-13.2,1.1l-0.7-7.5l38-3.3l1.3,15.2c0.3,3.5-0.7,6.6-2.9,9.3
				c-2.2,2.7-5.1,4.2-8.6,4.5c-2.3,0.2-4.6-0.3-6.7-1.4c-2.1-1.2-3.8-2.8-5-4.9l-13.6,9.7L874.2,531.9L874.2,531.9z M904,515.9
				l-11.2,1l0.7,7.7c0.1,1.4,0.8,2.6,2,3.5c1.2,0.9,2.6,1.3,4.1,1.2c1.6-0.1,2.8-0.8,3.8-1.9s1.4-2.4,1.3-3.8L904,515.9L904,515.9z"
				/>
			<path class="st0" d="M872.5,580.9c0.4-3.8,1.6-6.8,3.6-9.2c2-2.4,4.4-3.9,7.5-4.7l3,6.8c-4,1.1-6.3,3.8-6.8,8.1
				c-0.2,2.1,0,3.7,0.6,4.7s1.6,1.7,2.7,1.8c1.3,0.2,2.4-0.3,3.3-1.5s1.9-3.2,3.1-6.1c0.7-1.6,1.4-3,2-4.1s1.4-2.2,2.4-3.3
				s2.2-1.9,3.5-2.3s2.9-0.6,4.7-0.4c3.4,0.4,6,1.9,7.8,4.6c1.8,2.7,2.5,5.7,2.1,9.1c-0.3,3.1-1.4,5.7-3.1,7.8
				c-1.8,2.2-4,3.8-6.9,4.8l-2.9-6.7c3.4-1.2,5.3-3.4,5.7-6.7c0.2-1.5,0-2.8-0.7-3.8s-1.5-1.5-2.6-1.6c-1.2-0.1-2.2,0.3-3.1,1.2
				s-1.9,2.7-3,5.5c-0.5,1.1-0.9,2-1.1,2.5c-0.3,0.6-0.7,1.3-1.2,2.3c-0.5,1-1,1.7-1.4,2.3c-0.4,0.5-1,1.1-1.7,1.8s-1.4,1.1-2.1,1.4
				c-0.7,0.3-1.5,0.5-2.5,0.7s-2,0.2-3,0.1c-3.5-0.4-6.2-2-7.9-4.7C872.7,588.4,872,585,872.5,580.9L872.5,580.9z"/>
			<path class="st0" d="M893.9,658.7l-6.9-1.9l2.8-9.9l-29.8-8.2l2-7.2l29.8,8.2l2.7-9.9l6.9,1.9L893.9,658.7L893.9,658.7z"/>
			<path class="st0" d="M841.1,690.2c1.8-3.8,4.4-6.5,7.7-7.9c3.3-1.4,6.8-1.3,10.5,0.4l23.2,11l-3.2,6.8l-22.7-10.7
				c-1.8-0.8-3.5-1-5-0.5c-1.5,0.5-2.8,1.9-3.9,4.1s-1.3,4.1-0.7,5.6c0.6,1.5,1.8,2.7,3.5,3.6l22.7,10.7L870,720l-23.2-11
				c-3.7-1.7-6-4.3-7-7.8S839.3,694,841.1,690.2L841.1,690.2z"/>
			<path class="st0" d="M818.5,736.5l38.5,11.8l-4.8,6.7l-29.3-9.5l18.5,24.6l-4.8,6.7l-23.6-32.7L818.5,736.5L818.5,736.5z"/>
			<path class="st0" d="M791.7,768.9l33.6,20.7l-5.7,5.4l-24.8-15.5l13.7,26l-4.7,4.5l-25.2-15l14.2,25.5l-5.2,5l-19-34.6l6.2-5.9
				l22.7,13.4l-12.2-23.3L791.7,768.9L791.7,768.9z"/>
			<path class="st0" d="M724,825.5l7.2-4.7l13,6.3l-0.6-14.5l7.1-4.7l1,22.8l19.4,9.5l-7.1,4.7l-12-5.8l0.6,13.3l-7.1,4.7l-0.9-21.6
				L724,825.5L724,825.5z"/>
			<path class="st0" d="M690.1,886.7L692,860l-6.3-13.5l6.8-3.2l6.3,13.5l21.7,15.5l-7.7,3.6l-14.2-10.9l-0.8,17.9L690.1,886.7
				L690.1,886.7z"/>
			<path class="st0" d="M642.8,869.4l-15.6,4.2l-1.9-6.9l24.8-6.7l1.6,5.8l-8.8,28.2l14.9-4.1l1.9,6.9l-24.1,6.6l-1.5-5.7
				L642.8,869.4L642.8,869.4z"/>
			<g>
				<circle class="st4" cx="52.8" cy="70.5" r="6.8"/>
				<circle class="st4" cx="52.8" cy="1026.5" r="6.8"/>
			</g>
			<g>
				<circle class="st4" cx="1884.3" cy="70.5" r="6.8"/>
				<circle class="st4" cx="1884.3" cy="1026.5" r="6.8"/>
			</g>
			<line class="st3" x1="1018.2" y1="734.4" x2="1845.5" y2="734.4"/>
			<circle class="st8" cx="1163.6" cy="734.4" r="59.9"/>
			<circle class="st9" cx="1163.6" cy="734.4" r="46.8"/>
			<circle class="st8" cx="1297.4" cy="734.4" r="59.9"/>
			<circle class="st8" cx="1431.2" cy="734.4" r="59.9"/>
			<circle class="st10" cx="1565" cy="734.4" r="59.9"/>
			<circle class="st10" cx="1698.8" cy="734.4" r="59.9"/>
			<g>
				
					<rect x="354" y="527.8" transform="matrix(0.7071 -0.7071 0.7071 0.7071 -276.1461 420.8785)" class="st0" width="32" height="32"/>
				
					<rect x="694.7" y="527.8" transform="matrix(0.7071 -0.7071 0.7071 0.7071 -176.3331 661.8585)" class="st0" width="32" height="32"/>
			</g>
			<g>
				<g>
					<circle class="st4" cx="571" cy="110.7" r="3.4"/>
					<circle class="st4" cx="530.7" cy="110.7" r="3.4"/>
				</g>
				<g>
					<circle class="st4" cx="571" cy="983.8" r="3.4"/>
					<circle class="st4" cx="530.7" cy="983.8" r="3.4"/>
				</g>
			</g>
			<g>
				<g>
					<circle class="st4" cx="114.3" cy="527.1" r="3.4"/>
					<circle class="st4" cx="114.3" cy="567.3" r="3.4"/>
				</g>
				<g>
					<circle class="st4" cx="987.4" cy="527.1" r="3.4"/>
					<circle class="st4" cx="987.4" cy="567.3" r="3.4"/>
				</g>
			</g>
			<circle class="st9" cx="1431.2" cy="734.4" r="46.8"/>
			<circle class="st9" cx="1565" cy="734.4" r="46.8"/>
			<circle class="st9" cx="1699.5" cy="734.4" r="46.8"/>
			<g>
				<path class="st11" d="M1342.5,863.7h161.1c16.4,0,29.7,13.3,29.7,29.7l0,0c0,16.4-13.3,29.7-29.7,29.7h-161.1
					c-16.4,0-29.7-13.3-29.7-29.7l0,0C1312.8,877,1326.1,863.7,1342.5,863.7z"/>
				<g class="st12">
					<path class="st13" d="M1503.9,853.4c22.1,0,40,17.9,40,40l0,0c0,22.1-17.9,40-40,40h-163.2c-22.1,0-40-17.9-40-40l0,0
						c0-22.1,17.9-40,40-40H1503.9 M1503.9,836.4h-163.2c-31.4,0-57,25.6-57,57s25.6,57,57,57h163.2c31.4,0,57-25.6,57-57
						S1535.4,836.4,1503.9,836.4L1503.9,836.4z"/>
				</g>
				<g class="st6">
					<path class="st0" d="M1381.4,893.2c2.3,1.3,3.5,3.4,3.5,6.1c0,2.3-0.8,4.1-2.4,5.6c-1.6,1.5-3.6,2.2-5.9,2.2h-11.3v-26.7h10.5
						c2.3,0,4.2,0.7,5.8,2.1c1.6,1.4,2.3,3.2,2.3,5.4C1383.9,890.1,1383.1,891.9,1381.4,893.2z M1375.8,885.3h-5.3v5.9h5.3
						c0.8,0,1.5-0.3,2-0.8s0.8-1.3,0.8-2.1c0-0.8-0.3-1.5-0.8-2.1C1377.3,885.6,1376.6,885.3,1375.8,885.3z M1376.6,902.2
						c0.9,0,1.6-0.3,2.2-0.9s0.9-1.4,0.9-2.3c0-0.9-0.3-1.6-0.9-2.2s-1.3-0.9-2.2-0.9h-6.1v6.3H1376.6z"/>
				</g>
				<g class="st6">
					<path class="st0" d="M1397.4,902h11.3v5h-16.5v-26.7h16.3v5h-11.1v5.7h10.1v5h-10.1V902z"/>
				</g>
				<g class="st6">
					<path class="st0" d="M1442.3,892.7v2.1c0,3.8-1.2,6.9-3.7,9.3c-2.4,2.4-5.6,3.6-9.5,3.6c-4.1,0-7.5-1.3-10.3-4
						c-2.7-2.7-4.1-6-4.1-9.8c0-3.9,1.3-7.2,4-9.9s6-4,10-4c2.5,0,4.8,0.6,6.8,1.7c2.1,1.1,3.7,2.6,4.8,4.5l-4.5,2.6
						c-0.6-1.1-1.6-2-2.9-2.7c-1.3-0.7-2.7-1-4.3-1c-2.5,0-4.6,0.8-6.3,2.5c-1.6,1.7-2.5,3.8-2.5,6.3c0,2.5,0.8,4.6,2.5,6.2
						c1.7,1.6,3.9,2.5,6.6,2.5c2,0,3.7-0.5,5.1-1.4c1.3-0.9,2.2-2.1,2.7-3.7h-8.1v-4.7H1442.3z"/>
					<path class="st0" d="M1449.8,880.3h5.3v26.7h-5.3V880.3z"/>
					<path class="st0" d="M1479.3,880.3h5.3v26.7h-4l-11.5-16.3v16.3h-5.3v-26.7h4l11.5,16.3V880.3z"/>
				</g>
			</g>
			<g>
				<g>
					<line class="st3" x1="964.2" y1="6.6" x2="964.2" y2="89.8"/>
					<line class="st3" x1="964.2" y1="1004.2" x2="964.2" y2="1087.5"/>
				</g>
				<line class="st3" x1="1.8" y1="547" x2="85.1" y2="547"/>
				<line class="st3" x1="1841.6" y1="547" x2="1924.9" y2="547"/>
			</g>
			<path class="st0" d="M878.4,403c1.5,3.3,1.7,6.6,0.5,10c-1.2,3.3-3.4,5.7-6.7,7.2s-6.5,1.6-9.8,0.4c-3.3-1.2-5.7-3.5-7.2-6.9
				l-2.8-6.1l-11.4,5.2l-3.2-6.8l34.7-16L878.4,403L878.4,403z M861.5,410.8c0.7,1.5,1.7,2.4,3.2,2.9c1.5,0.5,2.9,0.4,4.4-0.3
				c1.5-0.7,2.5-1.8,3.1-3.2s0.5-2.9-0.2-4.3l-2.8-6.1l-10.5,4.8L861.5,410.8L861.5,410.8z"/>
		</g>
	</g>
</g>
</svg>
