<?xml version="1.0" encoding="UTF-8"?><svg xmlns="http://www.w3.org/2000/svg" viewBox="0 0 145.18 147.24"><defs><style>.d{stroke:#fff;stroke-miterlimit:10;stroke-width:5px;}.d,.e{fill:#19192d;}.f{letter-spacing:.03em;}.g{fill:#f7f7f7;}.h{fill:#ff6d00;}.i{fill:#32373a;}.j{fill:#54b5b1;}.k{letter-spacing:0em;}.e{font-family:Gilroy-Medium, Gilroy-Medium;font-size:25.37px;}</style></defs><g id="a"/><g id="b"><g id="c"><g><circle class="d" cx="72.59" cy="72.59" r="70.09"/><circle class="j" cx="73.03" cy="73.09" r="59.2"/><g><g><path class="h" d="M108.82,81.82l-.19-.45c-1.13-2.6-4.16-3.78-6.75-2.65l-43.25,18.85,4.29,9.85,43.25-18.85c2.6-1.13,3.78-4.16,2.65-6.75Z"/><path class="h" d="M107.07,43.12l-.37-.31c-2.18-1.81-5.41-1.51-7.22,.67l-30.12,36.31,8.27,6.86,30.12-36.31c1.81-2.18,1.51-5.41-.67-7.22Z"/><path class="h" d="M90.9,28.05l-.45-.19c-2.6-1.13-5.62,.05-6.75,2.65l-18.88,43.24,9.85,4.3,18.88-43.24c1.13-2.6-.05-5.62-2.65-6.75Z"/><path class="h" d="M76.65,28.51c.59-2.77-1.18-5.49-3.96-6.08l-.48-.1c-2.77-.59-5.49,1.18-6.08,3.96l-9.77,46.16,10.51,2.23,9.77-46.16Z"/><path class="h" d="M58.3,36.99c.03-2.83-2.25-5.15-5.08-5.18h-.49c-2.83-.03-5.15,2.24-5.18,5.07l-.47,47.18,10.75,.11,.47-47.18Z"/><polygon class="h" points="65.22 117.17 86.94 75.41 48.88 66.83 44.36 109.84 65.22 117.17"/></g><path class="i" d="M48.36,43.59l-.24,11.95c-.02,1.05,.82,1.91,1.87,1.92l5.48,.05c1.05,0,1.9-.84,1.9-1.89l-.04-12c0-1.04-.85-1.88-1.89-1.88h-5.21c-1.03,0-1.86,.83-1.88,1.85Z"/><path class="i" d="M64.85,34.79l-2.04,10.05c-.21,1.01,.44,2,1.46,2.22l5.51,1.17c1.02,.22,2.02-.43,2.23-1.45l2.18-10.26c.22-1.05-.47-2.07-1.53-2.25l-5.65-.96c-1-.17-1.96,.49-2.16,1.48Z"/><path class="i" d="M80.34,39.28l-4.45,10.13c-.42,.95,.01,2.06,.96,2.48l5.52,2.44c.95,.42,2.06,0,2.49-.96l4.5-10.18c.42-.96-.02-2.08-.98-2.49l-5.58-2.39c-.95-.41-2.05,.03-2.47,.97Z"/><path class="i" d="M94.67,50.3l-7.41,8.84c-.66,.78-.57,1.94,.19,2.62l4.28,3.8c.8,.71,2.02,.61,2.7-.2l7.59-9.1c.68-.81,.55-2.03-.28-2.68l-4.46-3.53c-.8-.63-1.96-.51-2.61,.27Z"/><path class="i" d="M95.54,82.16l-10.4,4.64c-.91,.41-1.35,1.45-.99,2.39l1.9,5.02c.38,1,1.51,1.48,2.49,1.07l11.09-4.68c1.01-.43,1.45-1.63,.94-2.61l-2.59-4.98c-.46-.88-1.53-1.26-2.44-.85Z"/><path class="i" d="M50.6,64.82l6.55-.11c.23,0,.46,.03,.68,.11l25.44,9.27c1.07,.39,1.55,1.63,1.03,2.64l-13.63,26.35c-.43,.82-1.39,1.21-2.27,.92l-19.93-6.59c-.81-.27-1.34-1.05-1.29-1.9l1.05-17.5,.5-11.39c.04-1,.86-1.79,1.85-1.8Z"/></g><rect class="g" x="12.95" y="107.68" width="119.27" height="39.56" rx="19.78" ry="19.78"/><text class="e" transform="translate(29.88 135.79)"><tspan class="f" x="0" y="0">Gl</tspan><tspan class="k" x="26.84" y="0">ove</tspan><tspan class="f" x="70.42" y="0">s</tspan></text></g></g></g></svg>