<?xml version="1.0" encoding="UTF-8"?><svg xmlns="http://www.w3.org/2000/svg" viewBox="0 0 145.18 147.24"><defs><style>.d{stroke:#f7f7f7;stroke-miterlimit:10;stroke-width:5px;}.d,.e{fill:#19192d;}.f{letter-spacing:.03em;}.g{fill:#f7f7f7;}.h{fill:#f2f2f2;}.i{fill:#32373a;}.j{fill:#c4c4c4;}.k{fill:#54b5b1;}.l{letter-spacing:0em;}.e{font-family:Gilroy-Medium, Gilroy-Medium;font-size:25.37px;}</style></defs><g id="a"/><g id="b"><g id="c"><g><circle class="d" cx="72.59" cy="72.59" r="70.09"/><circle class="k" cx="72.6" cy="72.09" r="59.2"/><g><path class="j" d="M32.63,94.23s20.44,8.46,42.66,3.12c0,0,.78-.67,2.5-1.28,1.72-.61,4.39-1.17,8.17-.94,0,0,25.11-5.33,37.56-20,0,0-21.28-14.95-46.64-7.59-25.36,7.37-39.36,10.67-44.25,26.69Z"/><g><path class="h" d="M123.67,75.06s-14.27-7.21-47.54,.37c-33.27,7.58-43.72,18.81-43.72,18.81l-.98-4.67c-6.11-29.09,9.36-56.96,34.56-62.25h0c25.2-5.3,50.59,13.99,56.7,43.07l.98,4.67Z"/><rect class="i" x="60.91" y="51.12" width="22.01" height="15.36" transform="translate(-10.56 16.05) rotate(-11.87)"/><path class="i" d="M116.25,52.3c-2.17-.46-23.02-4.76-45.23,.36-22.21,5.13-39.81,16.29-41.73,18.52-1.43,6.09,.65,13.73,.65,13.73,0,0,18.91-15.55,43.2-20.66,24.29-5.11,48.65,1.51,48.65,1.51,0,0-2.12-9.31-5.54-13.46Z"/></g></g><rect class="g" x="4.68" y="107.68" width="139.26" height="39.56" rx="19.78" ry="19.78"/><text class="e" transform="translate(20.6 135.79)"><tspan class="f" x="0" y="0">Ha</tspan><tspan class="l" x="34.45" y="0">r</tspan><tspan class="f" x="42.72" y="0">d hat</tspan></text></g></g></g></svg>