<?xml version="1.0" encoding="UTF-8"?><svg xmlns="http://www.w3.org/2000/svg" viewBox="0 0 145.18 153.01"><defs><style>.d{stroke:#fff;stroke-width:5px;}.d,.e{stroke-miterlimit:10;}.d,.f{fill:#19192d;}.g{letter-spacing:.03em;}.h{letter-spacing:0em;}.i{fill:#f7f7f7;}.j{fill:#eaeaea;}.k{fill:#32373a;}.l{fill:#54b5b1;}.e{fill:none;stroke:#ff4800;stroke-width:9px;}.m{letter-spacing:0em;}.f{font-family:Gilroy-Medium, Gilroy-Medium;font-size:25.37px;}</style></defs><g id="a"/><g id="b"><g id="c"><g><circle class="d" cx="72.59" cy="72.59" r="70.09"/><circle class="l" cx="73.6" cy="72.59" r="59.2"/><ellipse class="e" cx="73.71" cy="66.53" rx="8.8" ry="9.5" transform="translate(-2.32 130.39) rotate(-82.1)"/><path class="k" d="M27.38,106.06s33.87,.57,42.92,1.71c9.06,1.14,39.9,10.07,39.9,10.07l2.03-12.21-6.04-37.64,12.01-34.25-12.86-3.13-11.98,32.07-11.6-2.41-1.56,9.87,12.18,2.31,2.79,.56,4.67,29.67s-17.18-5.38-27.13-6.77c-9.95-1.39-32.55-.8-32.55-.8l17.09-26.82,14.3,.47,1.28-9.7-14.69-1.26-1.4-34.26-13.49-.19,2.55,38.04-16.91,33.17-1.52,11.51Z"/><polygon class="j" points="78.18 96.36 75.84 109.49 91.18 113.36 93.7 100.45 78.18 96.36"/><rect class="i" x="2.53" y="113.46" width="132.36" height="39.56" rx="19.78" ry="19.78"/><text class="f" transform="translate(20.58 141.57)"><tspan class="g" x="0" y="0">Harn</tspan><tspan class="m" x="58.35" y="0">e</tspan><tspan class="h" x="73.26" y="0">s</tspan><tspan class="g" x="84.73" y="0">s</tspan></text></g></g></g></svg>