<?xml version="1.0" encoding="UTF-8"?><svg xmlns="http://www.w3.org/2000/svg" viewBox="0 0 145.18 159.47"><defs><style>.d{letter-spacing:.02em;}.e{stroke:#fff;stroke-miterlimit:10;stroke-width:5px;}.e,.f{fill:#19192d;}.g{letter-spacing:.03em;}.h{letter-spacing:.02em;}.i{letter-spacing:.01em;}.j{letter-spacing:0em;}.k{fill:#f7f7f7;}.l{fill:#c1d9e5;}.m{fill:#dfecf2;}.n{fill:#54b5b1;}.o{letter-spacing:.04em;}.p{letter-spacing:0em;}.q{letter-spacing:.03em;}.r{letter-spacing:0em;}.s{letter-spacing:0em;}.f{font-family:Gilroy-Medium, Gilroy-Medium;font-size:25.37px;}</style></defs><g id="a"/><g id="b"><g id="c"><g><circle class="e" cx="72.59" cy="72.59" r="70.09"/><circle class="n" cx="72.59" cy="72.59" r="59.2"/><rect class="k" x="14.36" y="89.56" width="114.88" height="69.91" rx="19.78" ry="19.78"/><text class="f" transform="translate(30.61 119.67)"><tspan class="o" x="0" y="0">S</tspan><tspan class="h" x="15.6" y="0">a</tspan><tspan class="r" x="32.29" y="0">f</tspan><tspan class="p" x="40.44" y="0">e</tspan><tspan class="q" x="55.48" y="0">t</tspan><tspan class="g" x="65.91" y="0">y </tspan><tspan class="h" x="-1.76" y="26">gl</tspan><tspan class="d" x="21.14" y="26">a</tspan><tspan class="j" x="37.81" y="26">s</tspan><tspan class="i" x="49.28" y="26">s</tspan><tspan class="s" x="61.18" y="26">e</tspan><tspan class="g" x="76.09" y="26">s</tspan></text><g><path class="l" d="M28.81,47.09l93.72,19.35s-5.28,21.72-11.06,26.09c-4.69,3.55-26.54,.79-31.79-6.11-4.6-6.06-3.94-16.91-3.94-16.91l-6.64-1.16s-4.07,9.75-8.57,13.68c-4.5,3.93-27.61,.21-31.98-6.6-4.37-6.82,.25-28.34,.25-28.34Z"/><path class="m" d="M31.57,51.19l37.14,8.01s-5.34,15.91-10.36,19.75-24.36,.41-27.45-6.12c-3.09-6.54,.67-21.64,.67-21.64Z"/><path class="m" d="M117.6,68.96l-37.28-7.36s-1.39,16.73,1.7,22.24c3.09,5.52,22.2,10.03,27.63,5.25,5.43-4.78,7.95-20.14,7.95-20.14Z"/></g></g></g></g></svg>