<?xml version="1.0" encoding="UTF-8"?><svg xmlns="http://www.w3.org/2000/svg" viewBox="0 0 320.09 312.83"><defs><style>.d,.e,.f{fill:none;}.g{fill:#f9b438;}.h{fill:#fff;}.i{fill:#e9a72d;}.j{fill:#cfd0d1;}.e{opacity:.6;stroke:#fff;stroke-miterlimit:10;stroke-width:2px;}.k{fill:#32325b;opacity:.5;}.f{stroke:#19192f;stroke-linecap:round;stroke-linejoin:round;stroke-width:3px;}.l{fill:#232323;opacity:.3;}</style></defs><g id="a"/><g id="b"><g id="c"><g><rect class="d" x="3.91" y="-3.91" width="312.28" height="320.09" rx="31.86" ry="31.86" transform="translate(3.91 316.19) rotate(-90)"/><rect class="k" x="3.91" y="-3.91" width="312.28" height="320.09" rx="31.86" ry="31.86" transform="translate(3.91 316.19) rotate(-90)"/><path class="l" d="M320.09,143.58v142.75c0,14.63-11.86,26.5-26.5,26.5H26.5c-14.63,0-26.5-11.86-26.5-26.5V143.58"/><line class="e" x1=".7" y1="143.58" x2="320.09" y2="143.58"/><g><path class="h" d="M73.79,233.1v18.19h-2.39v-14.22l-5.95,9.9h-.29l-5.97-9.92v14.23h-2.42v-18.19h2.73l5.82,9.66,5.77-9.66h2.7Z"/><path class="h" d="M89,238.3h2.26v13h-2.26v-2.24c-1.13,1.72-2.76,2.57-4.91,2.57-1.82,0-3.37-.66-4.65-1.99s-1.92-2.94-1.92-4.85,.64-3.52,1.92-4.85c1.28-1.33,2.83-1.99,4.65-1.99,2.15,0,3.79,.86,4.91,2.57v-2.24Zm-4.63,11.15c1.32,0,2.42-.45,3.3-1.34s1.33-2,1.33-3.31-.44-2.42-1.33-3.31-1.98-1.34-3.3-1.34-2.39,.45-3.28,1.34-1.33,2-1.33,3.31,.44,2.42,1.33,3.31,1.98,1.34,3.28,1.34Z"/><path class="h" d="M96.61,235.94c-.43,0-.8-.15-1.09-.44-.29-.29-.44-.65-.44-1.07s.15-.78,.44-1.08c.29-.3,.66-.46,1.09-.46s.77,.15,1.07,.46c.29,.3,.44,.66,.44,1.08s-.15,.77-.44,1.07c-.29,.29-.65,.44-1.07,.44Zm-1.14,15.36v-13h2.26v13h-2.26Z"/><path class="h" d="M108.44,237.96c1.52,0,2.75,.48,3.67,1.44,.92,.96,1.38,2.27,1.38,3.91v7.98h-2.26v-7.85c0-1.06-.29-1.88-.86-2.46-.57-.58-1.36-.87-2.37-.87-1.13,0-2.04,.35-2.73,1.05-.69,.7-1.04,1.78-1.04,3.24v6.89h-2.26v-13h2.26v1.87c.92-1.47,2.32-2.21,4.21-2.21Z"/><path class="h" d="M124.47,240.48h-3.46v7.04c0,.64,.13,1.1,.38,1.36s.64,.41,1.16,.42c.52,0,1.16,0,1.92-.04v2.03c-1.98,.26-3.42,.1-4.34-.48-.92-.58-1.38-1.68-1.38-3.29v-7.04h-2.57v-2.18h2.57v-2.96l2.26-.68v3.64h3.46v2.18Z"/><path class="h" d="M128.87,245.84c.23,1.16,.76,2.06,1.6,2.7,.84,.64,1.88,.96,3.11,.96,1.71,0,2.96-.63,3.74-1.9l1.92,1.09c-1.27,1.96-3.17,2.94-5.72,2.94-2.06,0-3.74-.65-5.03-1.94-1.29-1.29-1.94-2.92-1.94-4.9s.63-3.59,1.9-4.89c1.26-1.3,2.9-1.95,4.91-1.95,1.91,0,3.46,.67,4.67,2.01s1.81,2.96,1.81,4.85c0,.33-.03,.67-.08,1.01h-10.89Zm4.5-5.74c-1.21,0-2.22,.34-3.02,1.03s-1.29,1.6-1.48,2.74h8.68c-.19-1.23-.68-2.17-1.46-2.81-.78-.64-1.69-.96-2.73-.96Z"/><path class="h" d="M149.69,237.96c1.52,0,2.75,.48,3.67,1.44,.92,.96,1.38,2.27,1.38,3.91v7.98h-2.26v-7.85c0-1.06-.29-1.88-.86-2.46-.57-.58-1.36-.87-2.37-.87-1.13,0-2.04,.35-2.73,1.05-.69,.7-1.04,1.78-1.04,3.24v6.89h-2.26v-13h2.26v1.87c.92-1.47,2.32-2.21,4.21-2.21Z"/><path class="h" d="M169.41,238.3h2.26v13h-2.26v-2.24c-1.13,1.72-2.76,2.57-4.91,2.57-1.82,0-3.37-.66-4.65-1.99s-1.92-2.94-1.92-4.85,.64-3.52,1.92-4.85c1.28-1.33,2.83-1.99,4.65-1.99,2.15,0,3.79,.86,4.91,2.57v-2.24Zm-4.63,11.15c1.32,0,2.42-.45,3.3-1.34s1.33-2,1.33-3.31-.44-2.42-1.33-3.31-1.98-1.34-3.3-1.34-2.39,.45-3.28,1.34-1.33,2-1.33,3.31,.44,2.42,1.33,3.31,1.98,1.34,3.28,1.34Z"/><path class="h" d="M182.36,237.96c1.52,0,2.75,.48,3.67,1.44,.92,.96,1.38,2.27,1.38,3.91v7.98h-2.26v-7.85c0-1.06-.29-1.88-.86-2.46-.57-.58-1.36-.87-2.37-.87-1.13,0-2.04,.35-2.73,1.05-.69,.7-1.04,1.78-1.04,3.24v6.89h-2.26v-13h2.26v1.87c.92-1.47,2.32-2.21,4.21-2.21Z"/><path class="h" d="M197.43,251.64c-1.96,0-3.59-.65-4.89-1.96-1.3-1.31-1.95-2.93-1.95-4.87s.65-3.56,1.95-4.87c1.3-1.31,2.93-1.96,4.89-1.96,1.28,0,2.43,.31,3.46,.92,1.02,.62,1.78,1.44,2.29,2.48l-1.9,1.09c-.33-.69-.84-1.25-1.52-1.66-.68-.42-1.46-.62-2.33-.62-1.3,0-2.39,.44-3.26,1.33s-1.31,1.98-1.31,3.3,.44,2.39,1.31,3.28,1.96,1.33,3.26,1.33c.87,0,1.65-.2,2.34-.61,.69-.41,1.22-.96,1.58-1.65l1.92,1.12c-.55,1.02-1.35,1.84-2.39,2.46-1.04,.62-2.19,.92-3.46,.92Z"/><path class="h" d="M207.7,245.84c.23,1.16,.76,2.06,1.6,2.7,.84,.64,1.88,.96,3.11,.96,1.71,0,2.96-.63,3.74-1.9l1.92,1.09c-1.27,1.96-3.17,2.94-5.72,2.94-2.06,0-3.74-.65-5.03-1.94-1.29-1.29-1.94-2.92-1.94-4.9s.63-3.59,1.9-4.89c1.26-1.3,2.9-1.95,4.91-1.95,1.91,0,3.46,.67,4.67,2.01s1.81,2.96,1.81,4.85c0,.33-.03,.67-.08,1.01h-10.89Zm4.5-5.74c-1.21,0-2.22,.34-3.02,1.03s-1.29,1.6-1.48,2.74h8.68c-.19-1.23-.68-2.17-1.46-2.81-.78-.64-1.69-.96-2.73-.96Z"/><path class="h" d="M240.29,249.66c-1.33,1.32-2.95,1.98-4.86,1.98s-3.52-.66-4.85-1.98c-1.33-1.32-1.99-2.94-1.99-4.86s.66-3.54,1.99-4.86c1.33-1.32,2.94-1.98,4.85-1.98s3.53,.66,4.86,1.98c1.33,1.32,2,2.94,2,4.86s-.67,3.54-2,4.86Zm-4.86-.23c1.3,0,2.39-.44,3.28-1.33s1.33-1.98,1.33-3.3-.44-2.42-1.33-3.3-1.98-1.33-3.28-1.33-2.37,.44-3.25,1.33-1.33,1.98-1.33,3.3,.44,2.42,1.33,3.3,1.97,1.33,3.25,1.33Z"/><path class="h" d="M252.22,237.96c1.52,0,2.75,.48,3.67,1.44,.92,.96,1.38,2.27,1.38,3.91v7.98h-2.26v-7.85c0-1.06-.29-1.88-.86-2.46-.57-.58-1.36-.87-2.37-.87-1.13,0-2.04,.35-2.73,1.05-.69,.7-1.04,1.78-1.04,3.24v6.89h-2.26v-13h2.26v1.87c.92-1.47,2.32-2.21,4.21-2.21Z"/><path class="h" d="M57.33,280.85c-1.33,1.32-2.95,1.98-4.86,1.98s-3.52-.66-4.85-1.98c-1.33-1.32-1.99-2.94-1.99-4.86s.66-3.54,1.99-4.86c1.33-1.32,2.94-1.98,4.85-1.98s3.53,.66,4.86,1.98c1.33,1.32,2,2.94,2,4.86s-.67,3.54-2,4.86Zm-4.86-.23c1.3,0,2.39-.44,3.28-1.33s1.33-1.98,1.33-3.3-.44-2.42-1.33-3.3-1.98-1.33-3.28-1.33-2.37,.44-3.25,1.33-1.33,1.98-1.33,3.3,.44,2.42,1.33,3.3,1.97,1.33,3.25,1.33Z"/><path class="h" d="M71.36,269.49h2.44l-5.2,13h-2.65l-5.2-13h2.44l4.08,10.55,4.08-10.55Z"/><path class="h" d="M77.57,277.03c.23,1.16,.76,2.06,1.6,2.7,.84,.64,1.88,.96,3.11,.96,1.71,0,2.96-.63,3.74-1.9l1.92,1.09c-1.27,1.96-3.17,2.94-5.72,2.94-2.06,0-3.74-.65-5.03-1.94-1.29-1.29-1.94-2.92-1.94-4.9s.63-3.59,1.9-4.89c1.26-1.3,2.9-1.95,4.91-1.95,1.91,0,3.46,.67,4.67,2.01s1.81,2.96,1.81,4.85c0,.33-.03,.67-.08,1.01h-10.89Zm4.5-5.74c-1.21,0-2.22,.34-3.02,1.03s-1.29,1.6-1.48,2.74h8.68c-.19-1.23-.68-2.17-1.46-2.81-.78-.64-1.69-.96-2.73-.96Z"/><path class="h" d="M94.18,271.67c.75-1.61,2.1-2.42,4.05-2.42v2.37c-1.11-.05-2.06,.24-2.86,.88-.8,.64-1.2,1.67-1.2,3.09v6.89h-2.26v-13h2.26v2.18Z"/><path class="h" d="M107.7,269.15c1.52,0,2.75,.48,3.67,1.44,.92,.96,1.38,2.27,1.38,3.91v7.98h-2.26v-7.85c0-1.06-.29-1.88-.86-2.46-.57-.58-1.36-.87-2.37-.87-1.13,0-2.04,.35-2.73,1.05-.69,.7-1.04,1.78-1.04,3.24v6.89h-2.26v-18.19h2.26v7.07c.92-1.47,2.32-2.21,4.21-2.21Z"/><path class="h" d="M118.25,277.03c.23,1.16,.76,2.06,1.6,2.7,.84,.64,1.88,.96,3.11,.96,1.71,0,2.96-.63,3.74-1.9l1.92,1.09c-1.27,1.96-3.17,2.94-5.72,2.94-2.06,0-3.74-.65-5.03-1.94-1.29-1.29-1.94-2.92-1.94-4.9s.63-3.59,1.9-4.89c1.26-1.3,2.9-1.95,4.91-1.95,1.91,0,3.46,.67,4.67,2.01s1.81,2.96,1.81,4.85c0,.33-.03,.67-.08,1.01h-10.89Zm4.5-5.74c-1.21,0-2.22,.34-3.02,1.03s-1.29,1.6-1.48,2.74h8.68c-.19-1.23-.68-2.17-1.46-2.81-.78-.64-1.69-.96-2.73-.96Z"/><path class="h" d="M143.33,269.49h2.26v13h-2.26v-2.24c-1.13,1.72-2.76,2.57-4.91,2.57-1.82,0-3.37-.66-4.65-1.99s-1.92-2.94-1.92-4.85,.64-3.52,1.92-4.85c1.28-1.33,2.83-1.99,4.65-1.99,2.15,0,3.79,.86,4.91,2.57v-2.24Zm-4.63,11.15c1.32,0,2.42-.45,3.3-1.34s1.33-2,1.33-3.31-.44-2.42-1.33-3.31-1.98-1.34-3.3-1.34-2.39,.45-3.28,1.34-1.33,2-1.33,3.31,.44,2.42,1.33,3.31,1.98,1.34,3.28,1.34Z"/><path class="h" d="M156.88,271.67h-3.46v7.04c0,.64,.13,1.1,.38,1.36s.64,.41,1.16,.42c.52,0,1.16,0,1.92-.04v2.03c-1.98,.26-3.42,.1-4.34-.48-.92-.58-1.38-1.68-1.38-3.29v-7.04h-2.57v-2.18h2.57v-2.96l2.26-.68v3.64h3.46v2.18Z"/><path class="h" d="M161.48,267.13c-.43,0-.8-.15-1.09-.44-.29-.29-.44-.65-.44-1.07s.15-.78,.44-1.08c.29-.3,.66-.46,1.09-.46s.77,.15,1.07,.46c.29,.3,.44,.66,.44,1.08s-.15,.77-.44,1.07c-.29,.29-.65,.44-1.07,.44Zm-1.14,15.36v-13h2.26v13h-2.26Z"/><path class="h" d="M173.3,269.15c1.52,0,2.75,.48,3.67,1.44,.92,.96,1.38,2.27,1.38,3.91v7.98h-2.26v-7.85c0-1.06-.29-1.88-.86-2.46-.57-.58-1.36-.87-2.37-.87-1.13,0-2.04,.35-2.73,1.05-.69,.7-1.04,1.78-1.04,3.24v6.89h-2.26v-13h2.26v1.87c.92-1.47,2.32-2.21,4.21-2.21Z"/><path class="h" d="M193.05,269.49h2.24v12.45c0,1.92-.65,3.42-1.95,4.48s-2.86,1.6-4.68,1.6c-1.46,0-2.71-.27-3.77-.82-1.06-.55-1.85-1.33-2.39-2.35l1.98-1.12c.71,1.46,2.12,2.18,4.24,2.18,1.35,0,2.41-.36,3.18-1.07,.77-.71,1.16-1.68,1.16-2.91v-1.85c-1.14,1.73-2.77,2.6-4.89,2.6-1.85,0-3.42-.66-4.7-1.98-1.28-1.32-1.92-2.92-1.92-4.81s.64-3.49,1.92-4.79,2.85-1.96,4.7-1.96c2.13,0,3.76,.86,4.89,2.57v-2.24Zm-7.93,9.72c.88,.88,1.98,1.33,3.3,1.33s2.42-.44,3.3-1.33c.88-.88,1.33-1.98,1.33-3.3s-.44-2.39-1.33-3.27-1.98-1.33-3.3-1.33-2.42,.44-3.3,1.33-1.33,1.98-1.33,3.27,.44,2.42,1.33,3.3Z"/><path class="h" d="M217.56,269.49h2.24v12.45c0,1.92-.65,3.42-1.95,4.48s-2.86,1.6-4.68,1.6c-1.46,0-2.71-.27-3.77-.82-1.06-.55-1.85-1.33-2.39-2.35l1.98-1.12c.71,1.46,2.12,2.18,4.24,2.18,1.35,0,2.41-.36,3.18-1.07,.77-.71,1.16-1.68,1.16-2.91v-1.85c-1.14,1.73-2.77,2.6-4.89,2.6-1.85,0-3.42-.66-4.7-1.98-1.28-1.32-1.92-2.92-1.92-4.81s.64-3.49,1.92-4.79,2.85-1.96,4.7-1.96c2.13,0,3.76,.86,4.89,2.57v-2.24Zm-7.93,9.72c.88,.88,1.98,1.33,3.3,1.33s2.42-.44,3.3-1.33c.88-.88,1.33-1.98,1.33-3.3s-.44-2.39-1.33-3.27-1.98-1.33-3.3-1.33-2.42,.44-3.3,1.33-1.33,1.98-1.33,3.27,.44,2.42,1.33,3.3Z"/><path class="h" d="M225.59,277.03c.23,1.16,.76,2.06,1.6,2.7,.84,.64,1.88,.96,3.11,.96,1.71,0,2.96-.63,3.74-1.9l1.92,1.09c-1.27,1.96-3.17,2.94-5.72,2.94-2.06,0-3.74-.65-5.03-1.94-1.29-1.29-1.94-2.92-1.94-4.9s.63-3.59,1.9-4.89c1.26-1.3,2.9-1.95,4.91-1.95,1.91,0,3.46,.67,4.67,2.01s1.81,2.96,1.81,4.85c0,.33-.03,.67-.08,1.01h-10.89Zm4.5-5.74c-1.21,0-2.22,.34-3.02,1.03s-1.29,1.6-1.48,2.74h8.68c-.19-1.23-.68-2.17-1.46-2.81-.78-.64-1.69-.96-2.73-.96Z"/><path class="h" d="M250.68,269.49h2.26v13h-2.26v-2.24c-1.13,1.72-2.76,2.57-4.91,2.57-1.82,0-3.37-.66-4.65-1.99s-1.92-2.94-1.92-4.85,.64-3.52,1.92-4.85c1.28-1.33,2.83-1.99,4.65-1.99,2.15,0,3.79,.86,4.91,2.57v-2.24Zm-4.63,11.15c1.32,0,2.42-.45,3.3-1.34s1.33-2,1.33-3.31-.44-2.42-1.33-3.31-1.98-1.34-3.3-1.34-2.39,.45-3.28,1.34-1.33,2-1.33,3.31,.44,2.42,1.33,3.31,1.98,1.34,3.28,1.34Z"/><path class="h" d="M259.41,271.67c.75-1.61,2.1-2.42,4.05-2.42v2.37c-1.11-.05-2.06,.24-2.86,.88-.8,.64-1.2,1.67-1.2,3.09v6.89h-2.26v-13h2.26v2.18Z"/><path class="h" d="M267.91,272.96c0,.49,.25,.88,.77,1.18,.51,.3,1.12,.55,1.82,.76s1.42,.42,2.13,.63c.71,.21,1.32,.6,1.81,1.18,.5,.58,.74,1.32,.74,2.22,0,1.18-.46,2.12-1.36,2.83-.91,.71-2.08,1.07-3.5,1.07-1.26,0-2.35-.28-3.25-.83-.9-.55-1.54-1.29-1.92-2.21l1.95-1.12c.21,.62,.6,1.12,1.17,1.48,.57,.36,1.26,.55,2.05,.55,.75,0,1.36-.14,1.85-.43,.48-.29,.73-.73,.73-1.34,0-.5-.25-.9-.75-1.21s-1.11-.56-1.81-.77c-.71-.21-1.42-.43-2.13-.64-.71-.21-1.32-.6-1.83-1.15-.5-.55-.75-1.26-.75-2.13,0-1.13,.44-2.05,1.31-2.78,.87-.73,1.97-1.09,3.29-1.09,1.06,0,2,.24,2.82,.71s1.44,1.14,1.86,1.99l-1.9,1.07c-.47-1.11-1.39-1.66-2.78-1.66-.64,0-1.19,.15-1.64,.45-.45,.3-.68,.72-.68,1.26Z"/></g><g><path class="i" d="M114.38,113.92c-3.12,3.13-6.92,4.7-11.42,4.7s-8.29-1.57-11.4-4.7c-3.1-3.13-4.66-6.93-4.66-11.4s1.55-8.3,4.66-11.42c3.1-3.12,6.9-4.68,11.4-4.68s8.3,1.56,11.42,4.68c3.12,3.12,4.68,6.92,4.68,11.42s-1.56,8.26-4.68,11.4Zm-19.95-2.82c2.29,2.32,5.14,3.48,8.54,3.48s6.24-1.16,8.54-3.48c2.29-2.32,3.44-5.18,3.44-8.58s-1.15-6.3-3.44-8.62c-2.29-2.32-5.14-3.48-8.54-3.48s-6.25,1.16-8.54,3.48c-2.29,2.32-3.44,5.2-3.44,8.62s1.14,6.26,3.44,8.58Z"/><path class="i" d="M122.73,118.05v-3.37l10.95-11.17c2.93-2.93,4.39-5.44,4.39-7.54,0-1.74-.53-3.1-1.6-4.08s-2.37-1.46-3.9-1.46c-2.93,0-5.05,1.39-6.38,4.17l-3.46-2.04c.97-2.01,2.33-3.53,4.06-4.57,1.73-1.03,3.64-1.55,5.74-1.55,2.6,0,4.86,.86,6.78,2.57,1.92,1.71,2.88,4.02,2.88,6.92,0,3.13-1.85,6.55-5.54,10.25l-7.92,7.89h14.03v3.99h-20.04Z"/><path class="i" d="M153.28,114.14h14.41v3.9h-18.54v-31.04h18.31v3.9h-14.19v9.53h13.08v3.86h-13.08v9.84Z"/><path class="i" d="M188.76,101.99c1.51,.77,2.69,1.8,3.55,3.1,.86,1.3,1.29,2.78,1.29,4.43,0,2.84-.99,5.06-2.97,6.67s-4.54,2.42-7.67,2.42-5.65-.8-7.63-2.42c-1.98-1.61-2.97-3.84-2.97-6.67,0-1.66,.43-3.13,1.29-4.43s2.04-2.33,3.55-3.1c-2.54-1.6-3.81-3.86-3.81-6.78s.94-4.97,2.82-6.5c1.88-1.52,4.13-2.28,6.76-2.28s4.93,.76,6.81,2.28c1.88,1.52,2.82,3.69,2.82,6.5s-1.27,5.19-3.81,6.78Zm-5.81,12.68c1.98,0,3.57-.47,4.77-1.4,1.2-.93,1.8-2.27,1.8-4.01s-.6-3.04-1.8-3.97c-1.2-.93-2.79-1.4-4.77-1.4s-3.53,.47-4.72,1.4c-1.2,.93-1.8,2.25-1.8,3.97s.6,3.08,1.8,4.01c1.2,.93,2.77,1.4,4.72,1.4Zm0-24.3c-1.57,0-2.88,.42-3.92,1.24-1.05,.83-1.57,2.05-1.57,3.68s.53,2.79,1.6,3.66c1.06,.87,2.36,1.31,3.9,1.31s2.84-.44,3.9-1.31c1.06-.87,1.6-2.09,1.6-3.66s-.52-2.85-1.55-3.68c-1.04-.83-2.35-1.24-3.95-1.24Z"/><path class="i" d="M197.32,118.05v-3.37l10.95-11.17c2.93-2.93,4.39-5.44,4.39-7.54,0-1.74-.53-3.1-1.6-4.08s-2.37-1.46-3.9-1.46c-2.93,0-5.05,1.39-6.38,4.17l-3.46-2.04c.97-2.01,2.33-3.53,4.06-4.57,1.73-1.03,3.64-1.55,5.74-1.55,2.6,0,4.86,.86,6.78,2.57,1.92,1.71,2.88,4.02,2.88,6.92,0,3.13-1.85,6.55-5.54,10.25l-7.92,7.89h14.03v3.99h-20.04Z"/><path class="i" d="M228.97,87.01h3.55v31.04h-4.08v-26.6l-6.61,1.95-1.02-3.55,8.16-2.84Z"/></g><g><path class="h" d="M66.76,36.11h-12.42v7.36h12.06v5.85h-12.06v11.97h-6.12V30.26h18.54v5.85Z"/><path class="h" d="M89.15,39.13h5.72v22.17h-5.72v-2.62c-1.71,2.16-4.12,3.24-7.23,3.24s-5.49-1.13-7.6-3.39c-2.11-2.26-3.17-5.03-3.17-8.31s1.06-6.05,3.17-8.31c2.11-2.26,4.65-3.39,7.6-3.39,3.1,0,5.51,1.08,7.23,3.24v-2.62Zm-10.55,15.58c1.15,1.17,2.62,1.75,4.39,1.75s3.24-.58,4.41-1.75c1.17-1.17,1.75-2.67,1.75-4.5s-.58-3.33-1.75-4.5c-1.17-1.17-2.64-1.75-4.41-1.75s-3.24,.58-4.39,1.75c-1.15,1.17-1.73,2.67-1.73,4.5s.58,3.33,1.73,4.5Z"/><path class="h" d="M116.02,39.13h5.72v22.17h-5.72v-2.48c-1.39,2.07-3.59,3.1-6.61,3.1-2.42,0-4.43-.81-6.01-2.44-1.58-1.62-2.37-3.87-2.37-6.74v-13.61h5.72v12.9c0,1.48,.4,2.61,1.2,3.39s1.86,1.17,3.19,1.17c1.48,0,2.66-.46,3.55-1.37s1.33-2.29,1.33-4.12v-11.97Z"/><path class="h" d="M128.3,61.3V28.93h5.72V61.3h-5.72Z"/><path class="h" d="M153.26,44.63h-5.01v9.22c0,.77,.19,1.33,.58,1.68,.38,.36,.95,.55,1.69,.6,.74,.04,1.65,.04,2.75-.02v5.19c-3.93,.44-6.7,.07-8.31-1.11s-2.42-3.3-2.42-6.34v-9.22h-3.86v-5.5h3.86v-4.48l5.72-1.73v6.21h5.01v5.5Z"/><path class="h" d="M181.95,61.92c-3.34,0-6.13-1.12-8.36-3.37-2.23-2.25-3.35-5.03-3.35-8.34s1.12-6.09,3.35-8.34c2.23-2.25,5.02-3.37,8.36-3.37,2.16,0,4.12,.52,5.9,1.55,1.77,1.04,3.12,2.42,4.04,4.17l-4.92,2.88c-.44-.92-1.12-1.64-2.02-2.17-.9-.53-1.91-.8-3.04-.8-1.71,0-3.13,.57-4.26,1.71-1.12,1.14-1.68,2.59-1.68,4.37s.56,3.19,1.68,4.32c1.12,1.14,2.54,1.71,4.26,1.71,1.15,0,2.18-.26,3.08-.78,.9-.52,1.57-1.23,2.02-2.15l4.97,2.84c-.98,1.74-2.35,3.14-4.12,4.19s-3.74,1.57-5.9,1.57Z"/><path class="h" d="M214.85,58.53c-2.28,2.26-5.05,3.39-8.34,3.39s-6.05-1.13-8.31-3.39c-2.26-2.26-3.39-5.03-3.39-8.31s1.13-6.05,3.39-8.31,5.03-3.39,8.31-3.39,6.06,1.13,8.34,3.39c2.28,2.26,3.42,5.03,3.42,8.31s-1.14,6.05-3.42,8.31Zm-12.61-3.92c1.14,1.15,2.56,1.73,4.28,1.73s3.15-.58,4.3-1.73c1.15-1.15,1.73-2.62,1.73-4.39s-.58-3.24-1.73-4.39-2.59-1.73-4.3-1.73-3.14,.58-4.28,1.73c-1.14,1.15-1.71,2.62-1.71,4.39s.57,3.24,1.71,4.39Z"/><path class="h" d="M240.44,30.26h5.72v31.04h-5.72v-2.62c-1.68,2.16-4.08,3.24-7.18,3.24s-5.54-1.13-7.65-3.39c-2.11-2.26-3.17-5.03-3.17-8.31s1.06-6.05,3.17-8.31c2.11-2.26,4.66-3.39,7.65-3.39s5.5,1.08,7.18,3.24v-11.48Zm-10.53,24.45c1.17,1.17,2.64,1.75,4.41,1.75s3.24-.58,4.39-1.75c1.15-1.17,1.73-2.67,1.73-4.5s-.58-3.33-1.73-4.5c-1.15-1.17-2.62-1.75-4.39-1.75s-3.24,.58-4.41,1.75-1.75,2.67-1.75,4.5,.58,3.33,1.75,4.5Z"/><path class="h" d="M257.55,52.56c.77,2.78,2.85,4.17,6.25,4.17,2.19,0,3.84-.74,4.97-2.22l4.61,2.66c-2.19,3.16-5.41,4.75-9.67,4.75-3.67,0-6.61-1.11-8.82-3.33-2.22-2.22-3.33-5.01-3.33-8.38s1.09-6.13,3.28-8.36c2.19-2.23,5-3.35,8.42-3.35,3.25,0,5.93,1.12,8.05,3.37s3.17,5.03,3.17,8.34c0,.74-.07,1.52-.22,2.35h-16.72Zm-.09-4.43h11.31c-.33-1.51-1-2.63-2.02-3.37-1.02-.74-2.18-1.11-3.48-1.11-1.54,0-2.81,.39-3.81,1.17s-1.67,1.88-2,3.3Z"/></g><g><g><polygon class="j" points="48.23 179.95 37.12 182.16 37.12 186.58 48.23 188.79 48.32 188.77 48.32 188.79 54.57 188.14 168.94 188.14 168.94 180.6 54.57 180.6 48.32 179.95 48.32 179.96 48.23 179.95"/><path class="g" d="M229.02,168.56c-10.5,2.15-21.18,3.27-31.89,3.27h-21.21c-3.86,0-6.98,5.75-6.98,12.85,0,7.09,3.13,12.85,6.98,12.85h21.21c10.71,0,21.39,1.12,31.89,3.27,12.26,2.51,24.2,3.99,29.65,3.99,13.42,0,24.3-9,24.3-20.1,0-11.1-10.88-20.1-24.3-20.1-5.45,0-17.39,1.48-29.65,3.99Z"/><line class="d" x1="48.32" y1="188.77" x2="48.32" y2="179.95"/><line class="d" x1="54.57" y1="188.14" x2="54.57" y2="180.6"/></g><line class="f" x1="184.51" y1="194.27" x2="184.51" y2="175.08"/></g></g></g></g></svg>