<?xml version="1.0" encoding="UTF-8"?><svg xmlns="http://www.w3.org/2000/svg" viewBox="0 0 278.23 225.41"><defs><style>.d{fill:#19192d;font-size:22.73px;}.d,.e{font-family:Gilroy-Bold, Gilroy-Bold;}.f{letter-spacing:.1em;}.g{letter-spacing:.1em;}.h{font-family:Gilroy-Medium, Gilroy-Medium;font-size:31.28px;}.h,.i{fill:#e9a72d;}.j{letter-spacing:.01em;}.k{letter-spacing:0em;}.l{fill:#fff;}.m{fill:#fbedd5;}.n{fill:#2e2e4f;}.o{letter-spacing:.02em;}.p{letter-spacing:.03em;}.q{letter-spacing:.03em;}.r{letter-spacing:.03em;}.e{fill:#fcfcfc;font-size:33.99px;}.s{letter-spacing:.03em;}.t{opacity:.2;}.u{letter-spacing:.03em;}.v{fill:none;stroke:#111;stroke-linecap:round;stroke-linejoin:round;stroke-width:3px;}</style></defs><g id="a"/><g id="b"><g id="c"><g><g><rect class="n" x="23.17" y="-16.44" width="218.68" height="265.02" rx="31.86" ry="31.86" transform="translate(16.44 248.58) rotate(-90)"/><text class="h" transform="translate(75.54 97.4)"><tspan class="r" x="0" y="0">O6N</tspan><tspan class="o" x="65.87" y="0">2</tspan><tspan class="p" x="82.98" y="0">0</tspan><tspan class="s" x="103.53" y="0">5</tspan></text><text class="e" transform="translate(50.48 59.73)"><tspan class="q" x="0" y="0">Gene</tspan><tspan class="j" x="89.88" y="0">r</tspan><tspan class="q" x="102.36" y="0">a</tspan><tspan class="k" x="124.66" y="0">t</tspan><tspan class="q" x="137.98" y="0">or</tspan></text></g><g><rect class="i" x="36.92" y="146.92" width="195.26" height="35.34" rx="16.42" ry="16.42"/><g class="t"><path class="m" d="M215.25,140.8c12.21,0,22.12,9.9,22.12,22.12v3.35c0,12.21-9.9,22.12-22.12,22.12H52.6c-12.21,0-22.12-9.9-22.12-22.12v-3.35c0-12.21,9.9-22.12,22.12-22.12H215.25m0-17H52.6c-21.57,0-39.12,17.55-39.12,39.12v3.35c0,21.57,17.55,39.12,39.12,39.12H215.25c21.57,0,39.12-17.55,39.12-39.12v-3.35c0-21.57-17.55-39.12-39.12-39.12h0Z"/></g><text class="d" transform="translate(91.8 172.74)"><tspan class="g" x="0" y="0">RE</tspan><tspan class="u" x="30.54" y="0">P</tspan><tspan class="f" x="44.61" y="0">AIR</tspan></text></g><g><circle class="l" cx="257.63" cy="20.6" r="20.6"/><line class="v" x1="250.55" y1="27.68" x2="264.7" y2="13.53"/><line class="v" x1="264.7" y1="27.68" x2="250.55" y2="13.53"/></g></g></g></g></svg>