<?xml version="1.0" encoding="UTF-8"?><svg xmlns="http://www.w3.org/2000/svg" viewBox="0 0 320.1 312.4"><defs><style>.e{fill:#fff;}.f{fill:#e9a72d;}.g{fill:#32325b;}.h{fill:none;stroke:#fff;stroke-linecap:round;stroke-linejoin:round;stroke-width:3.12px;}.i{fill:#232323;isolation:isolate;opacity:.5;}</style></defs><g id="a"/><g id="b"><g id="c"><g id="d"><g><path class="g" d="M320.1,31.9v248.6c0,17.6-14.3,31.9-31.9,31.9H31.9c-17.6-.1-31.9-14.4-31.9-32V31.9C0,14.3,14.3,0,31.9,0H288.3c17.5,0,31.8,14.3,31.8,31.9Z"/><path class="i" d="M320.1,31.9v248.6c0,17.6-14.3,31.9-31.9,31.9H31.9c-17.6-.1-31.9-14.4-31.9-32V31.9C0,14.3,14.3,0,31.9,0H288.3c17.5,0,31.8,14.3,31.8,31.9Z"/><g><path class="e" d="M70.5,241l-1.2-3.4h-6.8l-1.2,3.4h-2.1l5.6-15.1h2.3l5.6,15.1h-2.2Zm-7.3-5.2h5.4l-2.7-7.4-2.7,7.4Z"/><path class="e" d="M86.9,230c1.5,0,2.8,.5,3.8,1.6,1.1,1.1,1.6,2.4,1.6,4s-.5,2.9-1.6,4-2.3,1.6-3.8,1.6c-1.8,0-3.1-.7-4.1-2.1v1.8h-1.9v-14.9h1.9v6.2c.9-1.5,2.3-2.2,4.1-2.2Zm-.3,9.5c1.1,0,2-.4,2.7-1.1s1.1-1.7,1.1-2.7-.4-2-1.1-2.7-1.6-1.1-2.7-1.1-2,.4-2.7,1.1-1.1,1.7-1.1,2.7,.4,2,1.1,2.7,1.6,1.1,2.7,1.1Z"/><path class="e" d="M104.3,239.7c-1.1,1.1-2.4,1.6-4,1.6s-2.9-.5-4-1.6-1.6-2.4-1.6-4,.5-2.9,1.6-4,2.4-1.6,4-1.6,2.9,.5,4,1.6,1.7,2.4,1.7,4-.6,2.9-1.7,4Zm-4.1-.2c1.1,0,2-.4,2.7-1.1s1.1-1.6,1.1-2.7-.4-2-1.1-2.7-1.6-1.1-2.7-1.1-2,.4-2.7,1.1-1.1,1.6-1.1,2.7,.4,2,1.1,2.7,1.7,1.1,2.7,1.1Z"/><path class="e" d="M108.8,241v-15.7h1.9v15.7h-1.9Z"/><path class="e" d="M120,232.1h-2.9v5.8c0,.5,.1,.9,.3,1.1s.5,.3,1,.3h1.6v1.7c-1.6,.2-2.8,.1-3.6-.4-.8-.5-1.1-1.4-1.1-2.7v-5.8h-2.1v-1.8h2.1v-2.5l1.9-.6v3h2.9v1.9h-.1Z"/><path class="e" d="M134.3,230c1.3,0,2.3,.4,3,1.2s1.1,1.9,1.1,3.2v6.6h-1.9v-6.5c0-.9-.2-1.6-.7-2-.5-.5-1.1-.7-2-.7s-1.7,.3-2.3,.9c-.6,.6-.9,1.5-.9,2.7v5.7h-1.6v-15.1h1.9v5.9c.7-1.3,1.8-1.9,3.4-1.9Z"/><path class="e" d="M150.6,230.3h1.9v10.7h-1.9v-1.8c-.9,1.4-2.3,2.1-4.1,2.1-1.5,0-2.8-.5-3.8-1.6-1.1-1.1-1.6-2.4-1.6-4s.5-2.9,1.6-4,2.3-1.6,3.8-1.6c1.8,0,3.1,.7,4.1,2.1v-1.9Zm-3.8,9.2c1.1,0,2-.4,2.7-1.1s1.1-1.7,1.1-2.7-.4-2-1.1-2.7-1.6-1.1-2.7-1.1-2,.4-2.7,1.1-1.1,1.7-1.1,2.7,.4,2,1.1,2.7,1.6,1.1,2.7,1.1Z"/><path class="e" d="M157.6,233.1c0,.4,.2,.7,.6,1,.4,.2,.9,.5,1.5,.6,.6,.2,1.2,.3,1.8,.5s1.1,.5,1.5,1,.6,1.1,.6,1.8c0,1-.4,1.8-1.1,2.3-.8,.6-1.7,.9-2.9,.9-1,0-1.9-.2-2.7-.7-.7-.5-1.3-1.1-1.6-1.8l1.6-.9c.2,.5,.5,.9,1,1.2s1,.5,1.7,.5c.6,0,1.1-.1,1.5-.4s.6-.6,.6-1.1c0-.4-.2-.7-.6-1-.4-.3-.9-.5-1.5-.6-.6-.2-1.2-.4-1.8-.5-.6-.2-1.1-.5-1.5-1s-.6-1-.6-1.8c0-.9,.4-1.7,1.1-2.3,.7-.6,1.6-.9,2.7-.9,.9,0,1.7,.2,2.3,.6,.7,.4,1.2,.9,1.5,1.6l-1.6,.9c-.4-.9-1.2-1.4-2.3-1.4-.5,0-1,.1-1.4,.4-.2,.3-.4,.7-.4,1.1Z"/><path class="e" d="M174.1,233.1c0,.4,.2,.7,.6,1,.4,.2,.9,.5,1.5,.6,.6,.2,1.2,.3,1.8,.5s1.1,.5,1.5,1,.6,1.1,.6,1.8c0,1-.4,1.8-1.1,2.3-.8,.6-1.7,.9-2.9,.9-1,0-1.9-.2-2.7-.7-.7-.5-1.3-1.1-1.6-1.8l1.6-.9c.2,.5,.5,.9,1,1.2s1,.5,1.7,.5c.6,0,1.1-.1,1.5-.4s.6-.6,.6-1.1c0-.4-.2-.7-.6-1-.4-.3-.9-.5-1.5-.6-.6-.2-1.2-.4-1.8-.5-.6-.2-1.1-.5-1.5-1s-.6-1-.6-1.8c0-.9,.4-1.7,1.1-2.3,.7-.6,1.6-.9,2.7-.9,.9,0,1.7,.2,2.3,.6,.7,.4,1.2,.9,1.5,1.6l-1.6,.9c-.4-.9-1.2-1.4-2.3-1.4-.5,0-1,.1-1.4,.4-.2,.3-.4,.7-.4,1.1Z"/><path class="e" d="M188.3,230c1.3,0,2.3,.4,3,1.2s1.1,1.9,1.1,3.2v6.6h-1.9v-6.5c0-.9-.2-1.6-.7-2-.5-.5-1.1-.7-2-.7s-1.7,.3-2.3,.9c-.6,.6-.9,1.5-.9,2.7v5.7h-1.6v-10.8h1.9v1.5c.7-1.2,1.9-1.8,3.4-1.8Z"/><path class="e" d="M204.7,230.3h1.9v10.7h-1.9v-1.8c-.9,1.4-2.3,2.1-4.1,2.1-1.5,0-2.8-.5-3.8-1.6-1.1-1.1-1.6-2.4-1.6-4s.5-2.9,1.6-4,2.3-1.6,3.8-1.6c1.8,0,3.1,.7,4.1,2.1v-1.9Zm-3.9,9.2c1.1,0,2-.4,2.7-1.1s1.1-1.7,1.1-2.7-.4-2-1.1-2.7-1.6-1.1-2.7-1.1-2,.4-2.7,1.1-1.1,1.7-1.1,2.7,.4,2,1.1,2.7,1.7,1.1,2.7,1.1Z"/><path class="e" d="M216,230c1.5,0,2.8,.5,3.8,1.6,1.1,1.1,1.6,2.4,1.6,4s-.5,2.9-1.6,4-2.3,1.6-3.8,1.6c-1.8,0-3.1-.7-4.1-2.1v6.2h-1.9v-15.1h1.9v1.8c.9-1.3,2.3-2,4.1-2Zm-.3,9.5c1.1,0,2-.4,2.7-1.1s1.1-1.7,1.1-2.7-.4-2-1.1-2.7-1.6-1.1-2.7-1.1-2,.4-2.7,1.1-1.1,1.7-1.1,2.7,.4,2,1.1,2.7,1.6,1.1,2.7,1.1Z"/><path class="e" d="M230.2,230c1.5,0,2.8,.5,3.8,1.6,1.1,1.1,1.6,2.4,1.6,4s-.5,2.9-1.6,4-2.3,1.6-3.8,1.6c-1.8,0-3.1-.7-4.1-2.1v6.2h-1.9v-15.1h1.9v1.8c1-1.3,2.3-2,4.1-2Zm-.2,9.5c1.1,0,2-.4,2.7-1.1s1.1-1.7,1.1-2.7-.4-2-1.1-2.7-1.6-1.1-2.7-1.1-2,.4-2.7,1.1-1.1,1.7-1.1,2.7,.4,2,1.1,2.7,1.6,1.1,2.7,1.1Z"/><path class="e" d="M239.8,236.5c.2,1,.6,1.7,1.3,2.2s1.6,.8,2.6,.8c1.4,0,2.5-.5,3.1-1.6l1.6,.9c-1,1.6-2.6,2.4-4.7,2.4-1.7,0-3.1-.5-4.2-1.6-1.1-1.1-1.6-2.4-1.6-4.1,0-1.6,.5-3,1.6-4,1-1.1,2.4-1.6,4.1-1.6,1.6,0,2.9,.6,3.9,1.7,1,1.1,1.5,2.4,1.5,4,0,.3,0,.6-.1,.8h-9.1v.1Zm3.8-4.7c-1,0-1.8,.3-2.5,.8-.7,.6-1.1,1.3-1.2,2.3h7.2c-.2-1-.6-1.8-1.2-2.3-.7-.6-1.5-.8-2.3-.8Z"/><path class="e" d="M260.6,226h1.9v15h-1.9v-1.8c-.9,1.4-2.3,2.1-4.1,2.1-1.5,0-2.8-.5-3.8-1.6-1.1-1.1-1.6-2.4-1.6-4s.5-2.9,1.6-4,2.3-1.6,3.8-1.6c1.8,0,3.1,.7,4.1,2.1v-6.2Zm-3.8,13.5c1.1,0,2-.4,2.7-1.1s1.1-1.7,1.1-2.7-.4-2-1.1-2.7-1.6-1.1-2.7-1.1-2,.4-2.7,1.1-1.1,1.7-1.1,2.7,.4,2,1.1,2.7,1.6,1.1,2.7,1.1Z"/><path class="e" d="M61.6,265.5c-1.1,1.1-2.4,1.6-4,1.6s-2.9-.5-4-1.6-1.6-2.4-1.6-4,.5-2.9,1.6-4,2.4-1.6,4-1.6,2.9,.5,4,1.6,1.7,2.4,1.7,4-.6,2.9-1.7,4Zm-4-.2c1.1,0,2-.4,2.7-1.1s1.1-1.6,1.1-2.7-.4-2-1.1-2.7-1.6-1.1-2.7-1.1-2,.4-2.7,1.1-1.1,1.6-1.1,2.7,.4,2,1.1,2.7,1.6,1.1,2.7,1.1Z"/><path class="e" d="M71.5,255.8c1.3,0,2.3,.4,3,1.2s1.1,1.9,1.1,3.2v6.6h-1.9v-6.5c0-.9-.2-1.6-.7-2-.5-.5-1.1-.7-2-.7s-1.7,.3-2.3,.9c-.6,.6-.9,1.5-.9,2.7v5.7h-1.9v-10.8h2.1v1.5c.8-1.2,1.9-1.8,3.5-1.8Z"/><path class="e" d="M90.8,257.9h-2.9v5.8c0,.5,.1,.9,.3,1.1s.5,.3,1,.3h1.6v1.7c-1.6,.2-2.8,.1-3.6-.4-.8-.5-1.1-1.4-1.1-2.7v-5.8h-2.1v-1.8h2v-2.5l1.9-.6v3h2.9v1.9Z"/><path class="e" d="M99,255.8c1.3,0,2.3,.4,3,1.2s1.1,1.9,1.1,3.2v6.6h-1.9v-6.5c0-.9-.2-1.6-.7-2-.5-.5-1.1-.7-2-.7s-1.7,.3-2.3,.9c-.6,.6-.9,1.5-.9,2.7v5.7h-1.9v-15.1h1.9v5.9c1-1.3,2.1-1.9,3.7-1.9Z"/><path class="e" d="M107.7,262.3c.2,1,.6,1.7,1.3,2.2,.7,.5,1.6,.8,2.6,.8,1.4,0,2.5-.5,3.1-1.6l1.6,.9c-1,1.6-2.6,2.4-4.7,2.4-1.7,0-3.1-.5-4.2-1.6s-1.6-2.4-1.6-4.1c0-1.6,.5-3,1.6-4,1-1.1,2.4-1.6,4.1-1.6,1.6,0,2.9,.6,3.9,1.7s1.5,2.4,1.5,4c0,.3,0,.6-.1,.8h-9.1v.1Zm3.7-4.7c-1,0-1.8,.3-2.5,.8-.7,.6-1.1,1.3-1.2,2.3h7.2c-.2-1-.6-1.8-1.2-2.3-.6-.6-1.4-.8-2.3-.8Z"/><path class="e" d="M127.5,257.9c.6-1.3,1.7-2,3.4-2v2c-.9,0-1.7,.2-2.4,.7s-1,1.4-1,2.6v5.7h-1.9v-10.8h1.9v1.8Z"/><path class="e" d="M141.8,265.5c-1.1,1.1-2.4,1.6-4,1.6s-2.9-.5-4-1.6-1.6-2.4-1.6-4,.5-2.9,1.6-4,2.4-1.6,4-1.6,2.9,.5,4,1.6,1.7,2.4,1.7,4-.6,2.9-1.7,4Zm-4-.2c1.1,0,2-.4,2.7-1.1s1.1-1.6,1.1-2.7-.4-2-1.1-2.7-1.6-1.1-2.7-1.1-2,.4-2.7,1.1-1.1,1.6-1.1,2.7,.4,2,1.1,2.7,1.6,1.1,2.7,1.1Z"/><path class="e" d="M151.9,257.9h-2.9v5.8c0,.5,.1,.9,.3,1.1s.5,.3,1,.3h1.6v1.7c-1.6,.2-2.8,.1-3.6-.4s-1.1-1.4-1.1-2.7v-5.8h-2.1v-1.8h2.1v-2.5l1.9-.6v3h2.9v1.9h-.1Z"/><path class="e" d="M163.3,265.5c-1.1,1.1-2.4,1.6-4,1.6s-2.9-.5-4-1.6-1.6-2.4-1.6-4,.5-2.9,1.6-4,2.4-1.6,4-1.6,2.9,.5,4,1.6,1.7,2.4,1.7,4-.5,2.9-1.7,4Zm-4-.2c1.1,0,2-.4,2.7-1.1s1.1-1.6,1.1-2.7-.4-2-1.1-2.7-1.6-1.1-2.7-1.1-2,.4-2.7,1.1-1.1,1.6-1.1,2.7,.4,2,1.1,2.7,1.7,1.1,2.7,1.1Z"/><path class="e" d="M169.7,257.9c.6-1.3,1.7-2,3.4-2v2c-.9,0-1.7,.2-2.4,.7s-1,1.4-1,2.6v5.7h-1.9v-10.8h1.9v1.8Z"/><path class="e" d="M187.5,255.8c1.5,0,2.8,.5,3.8,1.6,1.1,1.1,1.6,2.4,1.6,4s-.5,2.9-1.6,4-2.3,1.6-3.8,1.6c-1.8,0-3.1-.7-4.1-2.1v1.8h-1.9v-15.1h1.9v6.2c1-1.3,2.3-2,4.1-2Zm-.2,9.5c1.1,0,2-.4,2.7-1.1s1.1-1.7,1.1-2.7-.4-2-1.1-2.7-1.6-1.1-2.7-1.1-2,.4-2.7,1.1-1.1,1.7-1.1,2.7,.4,2,1.1,2.7,1.6,1.1,2.7,1.1Z"/><path class="e" d="M197.2,262.3c.2,1,.6,1.7,1.3,2.2s1.6,.8,2.6,.8c1.4,0,2.5-.5,3.1-1.6l1.6,.9c-1,1.6-2.6,2.4-4.7,2.4-1.7,0-3.1-.5-4.2-1.6-1.1-1.1-1.6-2.4-1.6-4.1,0-1.6,.5-3,1.6-4,1-1.1,2.4-1.6,4.1-1.6,1.6,0,2.9,.6,3.9,1.7s1.5,2.4,1.5,4c0,.3,0,.6-.1,.8h-9.1v.1Zm3.7-4.7c-1,0-1.8,.3-2.5,.8-.7,.6-1.1,1.3-1.2,2.3h7.2c-.2-1-.6-1.8-1.2-2.3-.7-.6-1.5-.8-2.3-.8Z"/><path class="e" d="M217.9,256.1h1.9v10.8h-1.9v-1.9c-.9,1.4-2.3,2.1-4.1,2.1-1.5,0-2.8-.5-3.8-1.6-1.1-1.1-1.6-2.4-1.6-4s.5-2.9,1.6-4,2.3-1.6,3.8-1.6c1.8,0,3.1,.7,4.1,2.1v-1.9Zm-3.8,9.2c1.1,0,2-.4,2.7-1.1s1.1-1.7,1.1-2.7-.4-2-1.1-2.7-1.6-1.1-2.7-1.1-2,.4-2.7,1.1-1.1,1.7-1.1,2.7,.4,2,1.1,2.7,1.6,1.1,2.7,1.1Z"/><path class="e" d="M225.1,257.9c.6-1.3,1.7-2,3.4-2v2c-.9,0-1.7,.2-2.4,.7s-1,1.4-1,2.6v5.7h-1.9v-10.8h1.9v1.8Z"/><path class="e" d="M231.9,254.1c-.4,0-.7-.1-.9-.4-.2-.2-.4-.5-.4-.9,0-.3,.1-.6,.4-.9,.2-.2,.5-.4,.9-.4,.3,0,.6,.1,.9,.4,.2,.3,.4,.5,.4,.9,0,.3-.1,.6-.4,.9-.2,.3-.5,.4-.9,.4Zm-.9,12.7v-10.8h1.9v10.8h-1.9Z"/><path class="e" d="M241.7,255.8c1.3,0,2.3,.4,3,1.2s1.1,1.9,1.1,3.2v6.6h-1.8v-6.5c0-.9-.2-1.6-.7-2-.5-.5-1.1-.7-2-.7s-1.7,.3-2.3,.9-.9,1.5-.9,2.7v5.7h-1.9v-10.8h1.9v1.5c.9-1.2,2-1.8,3.6-1.8Z"/><path class="e" d="M258,256.1h1.8v10.3c0,1.6-.5,2.8-1.6,3.7s-2.4,1.3-3.9,1.3c-1.2,0-2.2-.2-3.1-.7-.9-.5-1.5-1.1-2-1.9l1.6-.9c.6,1.2,1.8,1.8,3.5,1.8,1.1,0,2-.3,2.6-.9s1-1.4,1-2.4v-1.5c-.9,1.4-2.3,2.2-4,2.2-1.5,0-2.8-.5-3.9-1.6-1.1-1.1-1.6-2.4-1.6-4s.5-2.9,1.6-4,2.4-1.6,3.9-1.6c1.8,0,3.1,.7,4,2.1v-1.9h.1Zm-6.5,8c.7,.7,1.6,1.1,2.7,1.1s2-.4,2.7-1.1,1.1-1.6,1.1-2.7-.4-2-1.1-2.7-1.6-1.1-2.7-1.1-2,.4-2.7,1.1-1.1,1.6-1.1,2.7,.4,2,1.1,2.7Z"/><path class="e" d="M265,258.9c0,.4,.2,.7,.6,1,.4,.2,.9,.5,1.5,.6,.6,.2,1.2,.3,1.8,.5,.6,.2,1.1,.5,1.5,1s.6,1.1,.6,1.8c0,1-.4,1.8-1.1,2.3-.8,.6-1.7,.9-2.9,.9-1,0-1.9-.2-2.7-.7-.7-.5-1.3-1.1-1.6-1.8l1.6-.9c.2,.5,.5,.9,1,1.2,.5,.3,1,.5,1.7,.5,.6,0,1.1-.1,1.5-.4s.6-.6,.6-1.1c0-.4-.2-.7-.6-1s-.9-.5-1.5-.6c-.6-.2-1.2-.4-1.8-.5-.6-.2-1.1-.5-1.5-1s-.6-1-.6-1.8c0-.9,.4-1.7,1.1-2.3,.7-.6,1.6-.9,2.7-.9,.9,0,1.7,.2,2.3,.6,.7,.4,1.2,.9,1.5,1.6l-1.6,.9c-.4-.9-1.2-1.4-2.3-1.4-.5,0-1,.1-1.4,.4-.2,.4-.4,.7-.4,1.1Z"/></g><g><path class="f" d="M110.3,194.3c-2.9,2.9-6.5,4.4-10.7,4.4s-7.8-1.5-10.7-4.4c-2.9-2.9-4.4-6.5-4.4-10.7s1.5-7.8,4.4-10.7,6.5-4.4,10.7-4.4,7.8,1.5,10.7,4.4c2.9,2.9,4.4,6.5,4.4,10.7,0,4.1-1.5,7.7-4.4,10.7Zm-18.8-2.7c2.2,2.2,4.8,3.3,8,3.3s5.9-1.1,8-3.3c2.2-2.2,3.2-4.9,3.2-8.1s-1.1-5.9-3.2-8.1c-2.2-2.2-4.8-3.3-8-3.3s-5.9,1.1-8,3.3c-2.2,2.2-3.2,4.9-3.2,8.1s1,5.9,3.2,8.1Z"/><path class="f" d="M140.8,189v3.6h-3.5v5.5h-3.9v-5.5h-14.9v-3.6l10.5-20h4.2l-10.5,20h10.7v-8.3h3.9v8.3h3.5Z"/><path class="f" d="M157.4,168.9c4,0,7.3,1.4,9.9,4.2,2.6,2.8,3.9,6.3,3.9,10.4s-1.3,7.5-3.9,10.4c-2.6,2.8-5.9,4.2-9.9,4.2h-11.4v-29.2h11.4Zm0,25.6c3,0,5.4-1,7.3-3.1s2.8-4.7,2.8-7.8-.9-5.7-2.8-7.8-4.3-3.1-7.3-3.1h-7.5v21.9h7.5v-.1Z"/><path class="f" d="M186.4,180.9c2.2,.4,4.1,1.4,5.5,2.9s2.1,3.4,2.1,5.7c0,2.8-1,5.1-2.9,6.7s-4.3,2.5-7.1,2.5c-2.2,0-4.2-.5-5.9-1.5s-2.9-2.5-3.7-4.4l3.3-1.9c.9,2.7,3,4,6.3,4,1.8,0,3.3-.5,4.4-1.4,1.1-.9,1.7-2.3,1.7-4s-.6-3-1.7-4c-1.1-1-2.6-1.4-4.4-1.4h-1l-1.5-2.4,6.8-9.1h-13v-3.6h17.5v3.4l-6.4,8.5Z"/><path class="f" d="M208,179c2.9,0,5.3,.9,7.2,2.7s2.8,4.2,2.8,7.1-.9,5.3-2.8,7.1-4.3,2.8-7.2,2.8-5.4-.9-7.2-2.8c-1.9-1.8-2.8-4.2-2.8-7.1,0-2.3,.6-4.2,1.8-5.8l9.4-14.1h4.4l-6.9,10.2c.6,0,1-.1,1.3-.1Zm-4.4,14.3c1.2,1.1,2.6,1.7,4.5,1.7s3.3-.6,4.5-1.7c1.2-1.1,1.7-2.6,1.7-4.4s-.6-3.3-1.7-4.4c-1.2-1.1-2.6-1.7-4.5-1.7s-3.4,.6-4.5,1.7c-1.1,1.1-1.7,2.6-1.7,4.4s.5,3.3,1.7,4.4Z"/><path class="f" d="M218.8,168.9h18.2v3.5l-10.6,25.7h-4l10.5-25.5h-14.1v-3.7h0Z"/></g><g><path class="e" d="M58.1,126.4h-11.7v6.9h11.3v5.5h-11.3v11.3h-5.8v-29.2h17.4v5.5h.1Z"/><path class="e" d="M79.1,129.3h5.4v20.9h-5.4v-2.5c-1.6,2-3.9,3-6.8,3s-5.2-1.1-7.2-3.2c-2-2.1-3-4.7-3-7.8s1-5.7,3-7.8,4.4-3.2,7.2-3.2,5.2,1,6.8,3v-2.4Zm-9.9,14.6c1.1,1.1,2.5,1.6,4.1,1.6s3.1-.5,4.1-1.6c1.1-1.1,1.6-2.5,1.6-4.2s-.5-3.1-1.6-4.2-2.5-1.6-4.1-1.6-3,.5-4.1,1.6-1.6,2.5-1.6,4.2,.5,3.1,1.6,4.2Z"/><path class="e" d="M104.4,129.3h5.4v20.9h-5.4v-2.3c-1.3,1.9-3.4,2.9-6.2,2.9-2.3,0-4.2-.8-5.7-2.3s-2.2-3.6-2.2-6.3v-12.8h5.4v12.1c0,1.4,.4,2.5,1.1,3.2,.8,.7,1.8,1.1,3,1.1,1.4,0,2.5-.4,3.3-1.3,.8-.9,1.3-2.2,1.3-3.9v-11.3h0Z"/><path class="e" d="M116,150.1v-30.4h5.4v30.4h-5.4Z"/><path class="e" d="M139.4,134.4h-4.7v8.7c0,.7,.2,1.3,.5,1.6,.4,.3,.9,.5,1.6,.6h2.6v4.9c-3.7,.4-6.3,.1-7.8-1s-2.3-3.1-2.3-6v-8.7h-3.6v-5.2h3.6v-4.2l5.4-1.6v5.8h4.7v5.1Z"/><path class="e" d="M167.7,125.5c-2.9-.2-4.4,1-4.4,3.5v.2h4.4v5.2h-4.4v15.7h-5.4v-15.7h-3v-5.2h3v-.2c0-2.9,.8-5.2,2.5-6.7,1.6-1.5,4.1-2.2,7.3-2v5.2h0Z"/><path class="e" d="M188.4,147.5c-2.1,2.1-4.8,3.2-7.8,3.2s-5.7-1.1-7.8-3.2-3.2-4.7-3.2-7.8,1.1-5.7,3.2-7.8,4.7-3.2,7.8-3.2,5.7,1.1,7.8,3.2,3.2,4.7,3.2,7.8-1.1,5.7-3.2,7.8Zm-11.9-3.7c1.1,1.1,2.4,1.6,4,1.6s3-.5,4-1.6c1.1-1.1,1.6-2.5,1.6-4.1s-.5-3-1.6-4.1-2.4-1.6-4-1.6-3,.5-4,1.6c-1.1,1.1-1.6,2.5-1.6,4.1s.6,3,1.6,4.1Z"/><path class="e" d="M210.4,129.3h5.4v20.9h-5.4v-2.3c-1.3,1.9-3.4,2.9-6.2,2.9-2.3,0-4.2-.8-5.7-2.3s-2.2-3.6-2.2-6.3v-12.8h5.4v12.1c0,1.4,.4,2.5,1.1,3.2,.8,.7,1.8,1.1,3,1.1,1.4,0,2.5-.4,3.3-1.3,.8-.9,1.3-2.2,1.3-3.9v-11.3h0Z"/><path class="e" d="M233.6,128.7c2.3,0,4.2,.8,5.7,2.3s2.2,3.6,2.2,6.3v12.8h-5.4v-12.1c0-1.4-.4-2.5-1.1-3.2-.8-.7-1.8-1.1-3-1.1-1.4,0-2.5,.4-3.3,1.3-.8,.9-1.3,2.2-1.3,3.9v11.3h-5.4v-20.9h5.4v2.3c1.3-1.9,3.3-2.9,6.2-2.9Z"/><path class="e" d="M263.1,120.9h5.4v29.2h-5.4v-2.5c-1.6,2-3.8,3-6.8,3-2.8,0-5.2-1.1-7.2-3.2-2-2.1-3-4.7-3-7.8s1-5.7,3-7.8,4.4-3.2,7.2-3.2,5.2,1,6.8,3v-10.7Zm-9.9,23c1.1,1.1,2.5,1.6,4.1,1.6s3-.5,4.1-1.6,1.6-2.5,1.6-4.2-.5-3.1-1.6-4.2-2.5-1.6-4.1-1.6-3.1,.5-4.1,1.6c-1.1,1.1-1.6,2.5-1.6,4.2-.1,1.7,.5,3.1,1.6,4.2Z"/><path class="e" d="M280.3,149.6c-.7,.7-1.5,1-2.5,1s-1.8-.3-2.5-1-1-1.5-1-2.5,.3-1.8,1-2.5,1.5-1,2.5-1,1.8,.3,2.5,1,1,1.5,1,2.5-.3,1.8-1,2.5Zm-4.7-9.3l-1.1-11.1v-8.3h6.5v8.3l-1.1,11.1h-4.3Z"/></g><circle class="f" cx="161.4" cy="61.9" r="30.7"/><polyline class="h" points="147.8 64.6 155 71.9 175 51.9"/></g></g></g></g></svg>