<?xml version="1.0" encoding="utf-8"?>
<!-- Generator: Adobe Illustrator 26.3.1, SVG Export Plug-In . SVG Version: 6.00 Build 0)  -->
<svg version="1.1" xmlns="http://www.w3.org/2000/svg" xmlns:xlink="http://www.w3.org/1999/xlink" x="0px" y="0px"
	 viewBox="0 0 326.1 318.3" style="enable-background:new 0 0 326.1 318.3;" xml:space="preserve">
<style type="text/css">
	.st0{fill:#323244;}
	.st1{fill:#19192D;}
	.st2{fill:#54B5B1;stroke:#FFFFFF;stroke-width:5;stroke-miterlimit:10;}
	.st3{fill:none;stroke:#FFFFFF;stroke-width:6;stroke-miterlimit:10;}
	.st4{fill:none;stroke:#FFFFFF;stroke-miterlimit:10;}
	.st5{fill:#FFFFFF;}
	.st6{opacity:0.2;fill:#1C1C1C;}
	.st7{opacity:0.1;}
	.st8{fill:#FBEDD5;}
	.st9{fill:#6B5237;}
	.st10{fill:#B7854F;}
	.st11{fill:#996D41;}
	.st12{fill:#FF6D00;}
	.st13{fill:#32373A;}
	.st14{fill:#CFD0D1;}
	.st15{fill:#EDCF21;}
	.st16{fill:#2A66BC;}
	.st17{fill:#DB5C05;}
	.st18{fill:#FF6D00;stroke:#000000;stroke-width:4;stroke-miterlimit:10;}
	.st19{fill:none;stroke:#FF4800;stroke-width:9;stroke-miterlimit:10;}
	.st20{fill:#EAEAEA;}
	.st21{fill:#E6E6E6;}
	.st22{fill:#333333;}
	.st23{fill:#FF4800;}
	.st24{stroke:#808080;stroke-miterlimit:10;}
	.st25{fill:#222628;}
	.st26{fill:#808080;}
	.st27{fill:#C1D9E5;}
	.st28{fill:#F2F2F2;}
	.st29{fill:none;stroke:#996D41;stroke-width:2;stroke-linecap:round;stroke-linejoin:round;stroke-miterlimit:10;}
	.st30{opacity:0.42;}
	.st31{fill:none;stroke:#6B5237;stroke-width:4;stroke-miterlimit:10;}
	.st32{fill:#D6B48B;}
	.st33{fill:#BC9871;}
	.st34{fill:none;stroke:#BC9871;stroke-width:2;stroke-linecap:round;stroke-linejoin:round;stroke-miterlimit:10;}
	.st35{fill:none;stroke:#6B5237;stroke-width:2;stroke-miterlimit:10;}
	.st36{fill:#E9A72D;}
	.st37{opacity:0.2;}
	.st38{opacity:0.2;fill:#19192D;}
	.st39{opacity:0.4;}
	.st40{fill:none;stroke:#FFFFFF;stroke-width:5;stroke-miterlimit:10;}
	.st41{fill:#54B5B1;}
	.st42{opacity:5.000000e-02;}
	.st43{fill:none;stroke:#19192D;stroke-width:4;stroke-miterlimit:10;}
	.st44{opacity:0.1;fill:#FBEDD5;}
	.st45{opacity:0.5;fill:#FBEDD5;}
	.st46{fill:#F4D192;}
	.st47{opacity:0.2;fill:#FBEDD5;}
	.st48{fill:#19192D;stroke:#FFFFFF;stroke-width:5;stroke-miterlimit:10;}
	.st49{fill:#19192D;stroke:#E9A72D;stroke-width:5;stroke-miterlimit:10;}
	.st50{clip-path:url(#SVGID_00000104667585593317404120000003649013828761334678_);}
	.st51{fill:none;stroke:#FFFFFF;stroke-width:0.5;stroke-miterlimit:10;}
	.st52{clip-path:url(#SVGID_00000125586629112856128770000017582323373149907370_);}
	.st53{fill:none;stroke:#FFFFFF;stroke-width:3;stroke-linecap:round;stroke-linejoin:round;stroke-miterlimit:10;}
	.st54{opacity:0.8;fill:#19192D;}
	.st55{fill:#B91300;}
	.st56{fill:#E7FF00;}
	.st57{fill:#E78D00;}
	.st58{clip-path:url(#SVGID_00000055704164233858154600000001676063535058750652_);}
	.st59{fill:#00E737;}
	.st60{clip-path:url(#SVGID_00000175298647824829230780000010638825934909637290_);}
	.st61{fill:#00E7FF;}
	.st62{opacity:0.2;fill:#32373A;}
	.st63{fill:#493A30;}
	.st64{fill:#723424;}
	.st65{fill:#2B2B3E;}
	.st66{fill:#19192D;stroke:#32325B;stroke-width:5;stroke-miterlimit:10;}
	.st67{fill:#32325B;}
	.st68{fill:#19192D;stroke:#F7F7F7;stroke-width:5;stroke-miterlimit:10;}
	.st69{fill:#E5E5E5;}
	.st70{fill:none;stroke:#F46245;stroke-width:4;stroke-miterlimit:10;}
	.st71{fill:#C4C4C4;}
	.st72{opacity:0.67;fill:#FFFFFF;}
	.st73{fill:#F7F7F7;}
	.st74{fill:#54B5B1;stroke:#FFFFFF;stroke-width:6;stroke-miterlimit:10;}
	.st75{fill:none;}
	.st76{fill:#E9A72D;stroke:#FFFFFF;stroke-width:5;stroke-miterlimit:10;}
	.st77{opacity:0.26;fill:#19192D;}
	.st78{stroke:#111111;stroke-width:2;stroke-miterlimit:10;}
	.st79{fill:#3E3E56;stroke:#111111;stroke-width:2;stroke-miterlimit:10;}
	.st80{fill:#19192D;stroke:#111111;stroke-width:2;stroke-miterlimit:10;}
	.st81{opacity:0.5;fill:#FFFFFF;}
	.st82{clip-path:url(#SVGID_00000007416289778585697780000016246841532022470045_);}
	.st83{fill:#E9A72D;stroke:#0F0F0F;stroke-width:4;stroke-miterlimit:10;}
	.st84{fill:#545454;stroke:#0F0F0F;stroke-width:4;stroke-miterlimit:10;}
	.st85{fill:#19192D;stroke:#0F0F0F;stroke-width:2;stroke-miterlimit:10;}
	.st86{fill:#BC1E44;stroke:#0F0F0F;stroke-width:4;stroke-miterlimit:10;}
	.st87{fill:none;stroke:#0F0F0F;stroke-width:2;stroke-miterlimit:10;}
	.st88{fill:#19192D;stroke:#0F0F0F;stroke-width:4;stroke-miterlimit:10;}
	.st89{fill:#E9A72D;stroke:#19192D;stroke-width:6;stroke-miterlimit:10;}
	.st90{fill:none;stroke:#FFFFFF;stroke-width:2;stroke-miterlimit:10;}
	.st91{clip-path:url(#SVGID_00000181051231993437856250000002251870826617111474_);}
	.st92{fill:#4E5051;}
	.st93{fill:#3B3C3D;}
	.st94{fill:none;stroke:#000000;stroke-width:4;stroke-miterlimit:10;}
	.st95{fill:none;stroke:#E9A72D;stroke-width:3;stroke-linecap:round;stroke-linejoin:round;stroke-miterlimit:10;}
	.st96{fill:none;stroke:#FFFFFF;stroke-width:3;stroke-miterlimit:10;}
	.st97{opacity:0.2;fill:none;stroke:#FFFFFF;stroke-miterlimit:10;}
	.st98{opacity:0.2;fill:#19192D;stroke:#FFFFFF;stroke-width:5;stroke-miterlimit:10;}
	.st99{fill:none;stroke:#005DD0;stroke-width:3;stroke-linecap:round;stroke-linejoin:round;stroke-miterlimit:10;}
	.st100{opacity:0.23;fill:#19192D;stroke:#19192D;stroke-width:28;stroke-miterlimit:10;}
	.st101{opacity:0.23;fill:#19192D;}
	.st102{fill:none;stroke:#54B5B1;stroke-width:5;stroke-miterlimit:10;}
	.st103{clip-path:url(#SVGID_00000111168282282509915240000000929757805393725314_);}
	.st104{opacity:0.5;fill:#32325B;}
	.st105{opacity:0.3;fill:#232323;}
	.st106{opacity:0.6;fill:none;stroke:#FFFFFF;stroke-width:2;stroke-miterlimit:10;}
	.st107{fill:#F9B438;}
	.st108{fill:none;stroke:#19192F;stroke-width:3;stroke-linecap:round;stroke-linejoin:round;stroke-miterlimit:10;}
	.st109{opacity:0.4;fill:#32325B;}
	.st110{clip-path:url(#SVGID_00000096738943575249258350000016850090762972462745_);}
	.st111{fill:#E9A72D;stroke:#000000;stroke-width:5;stroke-miterlimit:10;}
	.st112{opacity:0.5;fill:#19192D;stroke:#000000;stroke-width:6;stroke-miterlimit:10;}
	.st113{fill:#19192D;stroke:#000000;stroke-width:6;stroke-miterlimit:10;}
	.st114{fill:#19192D;stroke:#000000;stroke-width:2;stroke-miterlimit:10;}
	.st115{fill:#BC1E44;}
	.st116{fill:none;stroke:#000000;stroke-miterlimit:10;}
	.st117{fill:#2E2E4F;}
	.st118{fill:none;stroke:#111111;stroke-width:3;stroke-linecap:round;stroke-linejoin:round;stroke-miterlimit:10;}
	.st119{fill:#E9A72D;stroke:#0F0F0F;stroke-width:2;stroke-miterlimit:10;}
	.st120{clip-path:url(#SVGID_00000000201147479832463370000001466646526051760040_);}
	.st121{fill:#19192F;}
	.st122{fill:#E29820;stroke:#0F0F0F;stroke-width:2;stroke-miterlimit:10;}
	.st123{fill:#EFEFEF;}
	.st124{fill:#F9B438;stroke:#0F0F0F;stroke-width:4;stroke-miterlimit:10;}
	.st125{fill:none;stroke:#32325B;stroke-width:3;stroke-linecap:round;stroke-linejoin:round;stroke-miterlimit:10;}
	.st126{fill:none;stroke:#0F0F0F;stroke-width:4;stroke-miterlimit:10;}
	.st127{opacity:0.2;fill:#32325B;}
	.st128{fill:#19192F;stroke:#19192F;stroke-width:2;stroke-miterlimit:10;}
	.st129{opacity:0.3;fill:#32325B;}
	.st130{fill:none;stroke:#32325B;stroke-width:4;stroke-linecap:round;stroke-linejoin:round;stroke-miterlimit:10;}
	.st131{fill:#A3A3A3;}
	.st132{fill:#DFECF2;}
	.st133{fill:#232323;}
	.st134{fill:none;stroke:#232323;stroke-width:0.75;stroke-miterlimit:10;}
	.st135{fill:#CFD0D1;stroke:#0F0F0F;stroke-width:3;stroke-miterlimit:10;}
	.st136{fill:none;stroke:#0F0F0F;stroke-width:3;stroke-miterlimit:10;}
	.st137{clip-path:url(#SVGID_00000031188719345814258650000006803955135993637049_);}
	.st138{fill:#A5A5A5;stroke:#0F0F0F;stroke-width:4;stroke-miterlimit:10;}
	.st139{clip-path:url(#SVGID_00000140711298003326631100000006523148564535988142_);}
	.st140{clip-path:url(#SVGID_00000146458644693870354440000017262595254757282472_);}
	.st141{clip-path:url(#SVGID_00000065782705963880884050000006334626747355774134_);}
	.st142{opacity:0.2;fill:#19192F;}
	.st143{fill:#BC1E44;stroke:#FFFFFF;stroke-width:5;stroke-miterlimit:10;}
	.st144{opacity:0.67;fill:#FCFCFC;}
	.st145{fill:#E08D3B;}
	.st146{fill:none;stroke:#E08D3B;stroke-width:4;stroke-miterlimit:10;}
	.st147{opacity:0.8;fill:none;stroke:#19192D;stroke-width:2;stroke-miterlimit:10;}
	.st148{opacity:0.8;fill:#BC1E44;}
	.st149{fill:#E29820;}
</style>
<g id="Layer_1">
	<g>
		<g>
			<path class="st67" d="M322,34.9v248.6c0,17.6-14.3,31.9-31.9,31.9H33.7c-17.6,0-31.9-14.3-31.9-31.9V34.9C1.9,17.3,16.2,3,33.7,3
				h256.4C307.7,3,322,17.3,322,34.9z"/>
			<path class="st105" d="M322,146.6v142.8c0,14.6-11.9,26.5-26.5,26.5H28.4c-14.6,0-26.5-11.9-26.5-26.5V146.6"/>
			<line class="st90" x1="2.6" y1="146.6" x2="322" y2="146.6"/>
			<g>
				<g>
					<path class="st5" d="M70.4,281.1l-4.1-7H62v7h-2.4v-18.2h7.3c1.6,0,2.9,0.6,4,1.7c1.1,1.1,1.7,2.4,1.7,4c0,1.2-0.4,2.3-1.1,3.2
						c-0.7,1-1.6,1.7-2.7,2.1l4.3,7.3H70.4z M62,265.2v6.8h4.9c0.9,0,1.7-0.3,2.3-1c0.6-0.7,0.9-1.5,0.9-2.4s-0.3-1.7-0.9-2.4
						c-0.6-0.7-1.4-1-2.3-1H62z"/>
					<path class="st5" d="M76.9,275.6c0.2,1.2,0.8,2.1,1.6,2.7c0.8,0.6,1.9,1,3.1,1c1.7,0,3-0.6,3.7-1.9l1.9,1.1
						c-1.3,2-3.2,2.9-5.7,2.9c-2.1,0-3.7-0.6-5-1.9c-1.3-1.3-1.9-2.9-1.9-4.9c0-2,0.6-3.6,1.9-4.9c1.3-1.3,2.9-1.9,4.9-1.9
						c1.9,0,3.5,0.7,4.7,2s1.8,3,1.8,4.8c0,0.3,0,0.7-0.1,1H76.9z M81.4,269.9c-1.2,0-2.2,0.3-3,1s-1.3,1.6-1.5,2.7h8.7
						c-0.2-1.2-0.7-2.2-1.5-2.8C83.4,270.2,82.5,269.9,81.4,269.9z"/>
					<path class="st5" d="M98.4,267.8c1.8,0,3.4,0.7,4.7,2c1.3,1.3,1.9,2.9,1.9,4.8s-0.6,3.5-1.9,4.8c-1.3,1.3-2.8,2-4.7,2
						c-2.1,0-3.8-0.9-4.9-2.6v7.4h-2.3v-18.2h2.3v2.2C94.7,268.6,96.3,267.8,98.4,267.8z M98.2,279.3c1.3,0,2.4-0.4,3.3-1.3
						s1.3-2,1.3-3.3c0-1.3-0.4-2.4-1.3-3.3s-2-1.3-3.3-1.3c-1.3,0-2.4,0.4-3.3,1.3c-0.9,0.9-1.3,2-1.3,3.3c0,1.3,0.4,2.4,1.3,3.3
						C95.7,278.8,96.8,279.3,98.2,279.3z"/>
					<path class="st5" d="M119.3,268.1h2.3v13h-2.3v-2.2c-1.1,1.7-2.8,2.6-4.9,2.6c-1.8,0-3.4-0.7-4.7-2s-1.9-2.9-1.9-4.8
						s0.6-3.5,1.9-4.8c1.3-1.3,2.8-2,4.7-2c2.1,0,3.8,0.9,4.9,2.6V268.1z M114.6,279.3c1.3,0,2.4-0.4,3.3-1.3s1.3-2,1.3-3.3
						c0-1.3-0.4-2.4-1.3-3.3s-2-1.3-3.3-1.3c-1.3,0-2.4,0.4-3.3,1.3s-1.3,2-1.3,3.3c0,1.3,0.4,2.4,1.3,3.3S113.3,279.3,114.6,279.3z
						"/>
					<path class="st5" d="M126.9,265.7c-0.4,0-0.8-0.1-1.1-0.4c-0.3-0.3-0.4-0.7-0.4-1.1c0-0.4,0.1-0.8,0.4-1.1
						c0.3-0.3,0.7-0.5,1.1-0.5c0.4,0,0.8,0.2,1.1,0.5c0.3,0.3,0.4,0.7,0.4,1.1c0,0.4-0.1,0.8-0.4,1.1
						C127.7,265.6,127.3,265.7,126.9,265.7z M125.7,281.1v-13h2.3v13H125.7z"/>
					<path class="st5" d="M134.5,270.3c0.7-1.6,2.1-2.4,4.1-2.4v2.4c-1.1-0.1-2.1,0.2-2.9,0.9c-0.8,0.6-1.2,1.7-1.2,3.1v6.9h-2.3
						v-13h2.3V270.3z"/>
					<path class="st5" d="M156,267.8c1.8,0,3.4,0.7,4.7,2c1.3,1.3,1.9,2.9,1.9,4.8s-0.6,3.5-1.9,4.8c-1.3,1.3-2.8,2-4.7,2
						c-2.1,0-3.8-0.9-4.9-2.6v2.2h-2.3v-18.2h2.3v7.4C152.2,268.6,153.8,267.8,156,267.8z M155.7,279.3c1.3,0,2.4-0.4,3.3-1.3
						s1.3-2,1.3-3.3c0-1.3-0.4-2.4-1.3-3.3s-2-1.3-3.3-1.3c-1.3,0-2.4,0.4-3.3,1.3c-0.9,0.9-1.3,2-1.3,3.3c0,1.3,0.4,2.4,1.3,3.3
						C153.3,278.8,154.4,279.3,155.7,279.3z"/>
					<path class="st5" d="M177,279.5c-1.3,1.3-3,2-4.9,2s-3.5-0.7-4.8-2c-1.3-1.3-2-2.9-2-4.9c0-1.9,0.7-3.5,2-4.9
						c1.3-1.3,2.9-2,4.8-2s3.5,0.7,4.9,2c1.3,1.3,2,2.9,2,4.9C179,276.5,178.4,278.1,177,279.5z M172.2,279.2c1.3,0,2.4-0.4,3.3-1.3
						s1.3-2,1.3-3.3c0-1.3-0.4-2.4-1.3-3.3s-2-1.3-3.3-1.3c-1.3,0-2.4,0.4-3.2,1.3s-1.3,2-1.3,3.3c0,1.3,0.4,2.4,1.3,3.3
						S170.9,279.2,172.2,279.2z"/>
					<path class="st5" d="M182.5,281.1v-19h2.3v19H182.5z"/>
					<path class="st5" d="M196,270.3h-3.5v7c0,0.6,0.1,1.1,0.4,1.4s0.6,0.4,1.2,0.4c0.5,0,1.2,0,1.9,0v2c-2,0.3-3.4,0.1-4.3-0.5
						c-0.9-0.6-1.4-1.7-1.4-3.3v-7h-2.6v-2.2h2.6v-3l2.3-0.7v3.6h3.5V270.3z"/>
					<path class="st5" d="M208.8,271.6c0,0.5,0.3,0.9,0.8,1.2c0.5,0.3,1.1,0.5,1.8,0.8s1.4,0.4,2.1,0.6c0.7,0.2,1.3,0.6,1.8,1.2
						c0.5,0.6,0.7,1.3,0.7,2.2c0,1.2-0.5,2.1-1.4,2.8c-0.9,0.7-2.1,1.1-3.5,1.1c-1.3,0-2.3-0.3-3.2-0.8c-0.9-0.6-1.5-1.3-1.9-2.2
						l1.9-1.1c0.2,0.6,0.6,1.1,1.2,1.5c0.6,0.4,1.3,0.5,2.1,0.5c0.7,0,1.4-0.1,1.8-0.4c0.5-0.3,0.7-0.7,0.7-1.3
						c0-0.5-0.3-0.9-0.8-1.2s-1.1-0.6-1.8-0.8c-0.7-0.2-1.4-0.4-2.1-0.6c-0.7-0.2-1.3-0.6-1.8-1.2c-0.5-0.6-0.8-1.3-0.8-2.1
						c0-1.1,0.4-2.1,1.3-2.8c0.9-0.7,2-1.1,3.3-1.1c1.1,0,2,0.2,2.8,0.7s1.4,1.1,1.9,2l-1.9,1.1c-0.5-1.1-1.4-1.7-2.8-1.7
						c-0.6,0-1.2,0.1-1.6,0.4C209,270.6,208.8,271,208.8,271.6z"/>
					<path class="st5" d="M226,267.8c1.5,0,2.7,0.5,3.7,1.4c0.9,1,1.4,2.3,1.4,3.9v8h-2.3v-7.8c0-1.1-0.3-1.9-0.9-2.5
						c-0.6-0.6-1.4-0.9-2.4-0.9c-1.1,0-2,0.4-2.7,1.1c-0.7,0.7-1,1.8-1,3.2v6.9h-2.3v-13h2.3v1.9C222.7,268.5,224.1,267.8,226,267.8
						z"/>
					<path class="st5" d="M245.7,268.1h2.3v13h-2.3v-2.2c-1.1,1.7-2.8,2.6-4.9,2.6c-1.8,0-3.4-0.7-4.7-2s-1.9-2.9-1.9-4.8
						s0.6-3.5,1.9-4.8c1.3-1.3,2.8-2,4.7-2c2.1,0,3.8,0.9,4.9,2.6V268.1z M241.1,279.3c1.3,0,2.4-0.4,3.3-1.3s1.3-2,1.3-3.3
						c0-1.3-0.4-2.4-1.3-3.3s-2-1.3-3.3-1.3c-1.3,0-2.4,0.4-3.3,1.3s-1.3,2-1.3,3.3c0,1.3,0.4,2.4,1.3,3.3S239.8,279.3,241.1,279.3z
						"/>
					<path class="st5" d="M259.4,267.8c1.8,0,3.4,0.7,4.7,2c1.3,1.3,1.9,2.9,1.9,4.8s-0.6,3.5-1.9,4.8c-1.3,1.3-2.8,2-4.7,2
						c-2.1,0-3.8-0.9-4.9-2.6v7.4h-2.3v-18.2h2.3v2.2C255.6,268.6,257.2,267.8,259.4,267.8z M259.1,279.3c1.3,0,2.4-0.4,3.3-1.3
						s1.3-2,1.3-3.3c0-1.3-0.4-2.4-1.3-3.3s-2-1.3-3.3-1.3c-1.3,0-2.4,0.4-3.3,1.3c-0.9,0.9-1.3,2-1.3,3.3c0,1.3,0.4,2.4,1.3,3.3
						C256.7,278.8,257.8,279.3,259.1,279.3z"/>
				</g>
			</g>
			<g>
				<g>
					<path class="st36" d="M108.9,116.9c-3.1,3.1-6.9,4.7-11.4,4.7c-4.5,0-8.3-1.6-11.4-4.7c-3.1-3.1-4.7-6.9-4.7-11.4
						c0-4.5,1.6-8.3,4.7-11.4c3.1-3.1,6.9-4.7,11.4-4.7c4.5,0,8.3,1.6,11.4,4.7c3.1,3.1,4.7,6.9,4.7,11.4
						C113.6,110,112,113.8,108.9,116.9z M89,114.1c2.3,2.3,5.1,3.5,8.5,3.5s6.2-1.2,8.5-3.5c2.3-2.3,3.4-5.2,3.4-8.6
						c0-3.4-1.1-6.3-3.4-8.6c-2.3-2.3-5.1-3.5-8.5-3.5s-6.2,1.2-8.5,3.5c-2.3,2.3-3.4,5.2-3.4,8.6C85.5,108.9,86.7,111.8,89,114.1z"
						/>
					<path class="st36" d="M141.4,111.3v3.9h-3.8v5.9h-4.1v-5.9h-15.8v-3.9L128.8,90h4.4l-11.1,21.3h11.4v-8.8h4.1v8.8H141.4z"/>
					<path class="st36" d="M159.1,90c4.2,0,7.7,1.5,10.5,4.5c2.8,3,4.2,6.7,4.2,11c0,4.3-1.4,8-4.2,11c-2.8,3-6.3,4.5-10.5,4.5
						h-12.1V90H159.1z M159.1,117.1c3.2,0,5.7-1.1,7.8-3.3c2-2.2,3-5,3-8.3c0-3.3-1-6.1-3-8.3c-2-2.2-4.6-3.3-7.8-3.3h-8v23.2H159.1
						z"/>
					<path class="st36" d="M189.9,102.7c2.4,0.4,4.3,1.5,5.8,3.1c1.5,1.6,2.3,3.6,2.3,6.1c0,3-1,5.4-3.1,7.1
						c-2.1,1.7-4.6,2.6-7.5,2.6c-2.4,0-4.5-0.5-6.3-1.6c-1.8-1.1-3.1-2.6-3.9-4.7l3.5-2c0.9,2.9,3.2,4.3,6.7,4.3
						c1.9,0,3.5-0.5,4.7-1.5s1.8-2.4,1.8-4.2s-0.6-3.2-1.8-4.2c-1.2-1-2.8-1.5-4.7-1.5h-1.1l-1.6-2.5l7.2-9.7H178V90h18.6l0,3.6
						L189.9,102.7z"/>
					<path class="st36" d="M212.9,100.7c3.1,0,5.7,1,7.7,2.9c2,1.9,3,4.4,3,7.5s-1,5.6-3,7.5c-2,2-4.6,2.9-7.7,2.9
						c-3.1,0-5.7-1-7.7-2.9c-2-2-3-4.5-3-7.5c0-2.4,0.6-4.5,1.9-6.2L214,90h4.7l-7.3,10.8C212.1,100.8,212.6,100.7,212.9,100.7z
						 M208.1,115.9c1.2,1.2,2.8,1.8,4.8,1.8s3.5-0.6,4.8-1.8s1.8-2.8,1.8-4.7s-0.6-3.5-1.8-4.7s-2.8-1.8-4.8-1.8
						c-2,0-3.6,0.6-4.8,1.8s-1.8,2.7-1.8,4.7S206.9,114.7,208.1,115.9z"/>
					<path class="st36" d="M224.3,90h19.4v3.7L232.3,121H228l11.2-27.1h-15V90z"/>
				</g>
			</g>
			<g>
				<g>
					<path class="st5" d="M68.6,39.1H56.2v7.4h12.1v5.9H56.2v12h-6.1v-31h18.5V39.1z"/>
					<path class="st5" d="M91,42.1h5.7v22.2H91v-2.6c-1.7,2.2-4.1,3.2-7.2,3.2c-3,0-5.5-1.1-7.6-3.4c-2.1-2.3-3.2-5-3.2-8.3
						s1.1-6.1,3.2-8.3c2.1-2.3,4.6-3.4,7.6-3.4c3.1,0,5.5,1.1,7.2,3.2V42.1z M80.5,57.7c1.2,1.2,2.6,1.8,4.4,1.8
						c1.8,0,3.2-0.6,4.4-1.8c1.2-1.2,1.8-2.7,1.8-4.5s-0.6-3.3-1.8-4.5c-1.2-1.2-2.6-1.8-4.4-1.8c-1.8,0-3.2,0.6-4.4,1.8
						c-1.2,1.2-1.7,2.7-1.7,4.5S79.3,56.5,80.5,57.7z"/>
					<path class="st5" d="M117.9,42.1h5.7v22.2h-5.7v-2.5c-1.4,2.1-3.6,3.1-6.6,3.1c-2.4,0-4.4-0.8-6-2.4c-1.6-1.6-2.4-3.9-2.4-6.7
						V42.1h5.7V55c0,1.5,0.4,2.6,1.2,3.4s1.9,1.2,3.2,1.2c1.5,0,2.7-0.5,3.5-1.4s1.3-2.3,1.3-4.1V42.1z"/>
					<path class="st5" d="M130.2,64.3V31.9h5.7v32.4H130.2z"/>
					<path class="st5" d="M155.2,47.6h-5v9.2c0,0.8,0.2,1.3,0.6,1.7c0.4,0.4,0.9,0.6,1.7,0.6c0.7,0,1.7,0,2.7,0v5.2
						c-3.9,0.4-6.7,0.1-8.3-1.1s-2.4-3.3-2.4-6.3v-9.2h-3.9v-5.5h3.9v-4.5l5.7-1.7v6.2h5V47.6z"/>
					<path class="st5" d="M183.8,64.9c-3.3,0-6.1-1.1-8.4-3.4c-2.2-2.2-3.3-5-3.3-8.3s1.1-6.1,3.3-8.3c2.2-2.2,5-3.4,8.4-3.4
						c2.2,0,4.1,0.5,5.9,1.6c1.8,1,3.1,2.4,4,4.2l-4.9,2.9c-0.4-0.9-1.1-1.6-2-2.2c-0.9-0.5-1.9-0.8-3-0.8c-1.7,0-3.1,0.6-4.3,1.7
						c-1.1,1.1-1.7,2.6-1.7,4.4c0,1.7,0.6,3.2,1.7,4.3c1.1,1.1,2.5,1.7,4.3,1.7c1.2,0,2.2-0.3,3.1-0.8c0.9-0.5,1.6-1.2,2-2.2l5,2.8
						c-1,1.7-2.4,3.1-4.1,4.2S186,64.9,183.8,64.9z"/>
					<path class="st5" d="M216.7,61.5c-2.3,2.3-5.1,3.4-8.3,3.4s-6.1-1.1-8.3-3.4c-2.3-2.3-3.4-5-3.4-8.3s1.1-6.1,3.4-8.3
						c2.3-2.3,5-3.4,8.3-3.4s6.1,1.1,8.3,3.4c2.3,2.3,3.4,5,3.4,8.3S219,59.3,216.7,61.5z M204.1,57.6c1.1,1.2,2.6,1.7,4.3,1.7
						c1.7,0,3.1-0.6,4.3-1.7c1.2-1.2,1.7-2.6,1.7-4.4s-0.6-3.2-1.7-4.4c-1.2-1.2-2.6-1.7-4.3-1.7c-1.7,0-3.1,0.6-4.3,1.7
						c-1.1,1.2-1.7,2.6-1.7,4.4S203,56.5,204.1,57.6z"/>
					<path class="st5" d="M242.3,33.3h5.7v31h-5.7v-2.6c-1.7,2.2-4.1,3.2-7.2,3.2c-3,0-5.5-1.1-7.6-3.4c-2.1-2.3-3.2-5-3.2-8.3
						s1.1-6.1,3.2-8.3c2.1-2.3,4.7-3.4,7.6-3.4c3.1,0,5.5,1.1,7.2,3.2V33.3z M231.8,57.7c1.2,1.2,2.6,1.8,4.4,1.8
						c1.8,0,3.2-0.6,4.4-1.8c1.2-1.2,1.7-2.7,1.7-4.5s-0.6-3.3-1.7-4.5c-1.2-1.2-2.6-1.8-4.4-1.8c-1.8,0-3.2,0.6-4.4,1.8
						c-1.2,1.2-1.8,2.7-1.8,4.5S230.6,56.5,231.8,57.7z"/>
					<path class="st5" d="M259.4,55.6c0.8,2.8,2.9,4.2,6.3,4.2c2.2,0,3.8-0.7,5-2.2l4.6,2.7c-2.2,3.2-5.4,4.7-9.7,4.7
						c-3.7,0-6.6-1.1-8.8-3.3c-2.2-2.2-3.3-5-3.3-8.4c0-3.3,1.1-6.1,3.3-8.4c2.2-2.2,5-3.3,8.4-3.3c3.3,0,5.9,1.1,8,3.4
						s3.2,5,3.2,8.3c0,0.7-0.1,1.5-0.2,2.3H259.4z M259.4,51.1h11.3c-0.3-1.5-1-2.6-2-3.4c-1-0.7-2.2-1.1-3.5-1.1
						c-1.5,0-2.8,0.4-3.8,1.2S259.7,49.7,259.4,51.1z"/>
				</g>
			</g>
			<g>
				<path class="st14" d="M226.6,195.6l-128.9,0c-4.6-12.4-16.5-21.1-30.5-21.1c-10.4,0-19.6,4.9-25.6,12.5c-0.6,0.8-0.1,2,1,2
					l27.8,0l4,7l4.5,7.7c1.2,2,1.2,4.5,0,6.6l-4.5,7.7l-4,7l-27.8,0c-1.1,0-1.6,1.2-1,2c6,7.6,15.2,12.5,25.6,12.5
					c14,0,25.9-8.8,30.5-21.1l128.9,0c4.6,12.4,16.5,21.1,30.5,21.1c10.6,0,20-5.1,25.9-12.9c0.5-0.7,0-1.6-0.8-1.6l-30.5,0
					l-4.5-7.8l-3.7-6.5c-1.3-2.3-1.3-5.2,0-7.5l3.7-6.5l4.5-7.8l30.5,0c0.8,0,1.3-0.9,0.8-1.6c-5.9-7.8-15.3-12.9-25.9-12.9
					C243.1,174.4,231.2,183.2,226.6,195.6z"/>
				<path class="st108" d="M222.8,206.9L222.8,206.9c0,4.4-3.6,8-8,8l-105.8,0c-4.4,0-8-3.6-8-8v0c0-4.4,3.6-8,8-8l105.8,0
					C219.2,198.9,222.8,202.5,222.8,206.9z"/>
			</g>
		</g>
		<path class="st148" d="M322,34.9v248.6c0,17.6-14.3,31.9-31.9,31.9H33.7c-17.6,0-31.9-14.3-31.9-31.9V34.9C1.9,17.3,16.2,3,33.7,3
			h256.4C307.7,3,322,17.3,322,34.9z"/>
		<path class="st3" d="M323.1,34.9v248.6c0,17.6-14.3,31.9-31.9,31.9H34.9C17.3,315.3,3,301,3,283.4V34.9C3,17.3,17.3,3,34.9,3
			h256.4C308.8,3,323.1,17.3,323.1,34.9z"/>
		<g>
			<g>
				<path class="st5" d="M85.9,145.7H91v25.8h-5.1V145.7z"/>
				<path class="st5" d="M107,152.6c2,0,3.7,0.7,5,2c1.3,1.4,2,3.2,2,5.6v11.3h-4.8v-10.7c0-1.2-0.3-2.2-1-2.8s-1.6-1-2.7-1
					c-1.2,0-2.2,0.4-3,1.1c-0.7,0.8-1.1,1.9-1.1,3.4v10h-4.8v-18.5h4.8v2.1C102.6,153.4,104.5,152.6,107,152.6z"/>
				<path class="st5" d="M127.9,172.1c-2.8,0-5.1-0.9-7-2.8c-1.9-1.9-2.8-4.2-2.8-6.9s0.9-5.1,2.8-6.9c1.9-1.9,4.2-2.8,7-2.8
					c1.8,0,3.4,0.4,4.9,1.3c1.5,0.9,2.6,2,3.4,3.5l-4.1,2.4c-0.4-0.8-0.9-1.4-1.7-1.8s-1.6-0.7-2.5-0.7c-1.4,0-2.6,0.5-3.5,1.4
					c-0.9,0.9-1.4,2.2-1.4,3.6c0,1.5,0.5,2.7,1.4,3.6c0.9,0.9,2.1,1.4,3.5,1.4c1,0,1.8-0.2,2.6-0.6s1.3-1,1.7-1.8l4.1,2.4
					c-0.8,1.5-2,2.6-3.4,3.5C131.3,171.6,129.7,172.1,127.9,172.1z"/>
				<path class="st5" d="M155.3,169.2c-1.9,1.9-4.2,2.8-6.9,2.8c-2.7,0-5-0.9-6.9-2.8c-1.9-1.9-2.8-4.2-2.8-6.9c0-2.7,0.9-5,2.8-6.9
					c1.9-1.9,4.2-2.8,6.9-2.8c2.7,0,5,0.9,6.9,2.8c1.9,1.9,2.8,4.2,2.8,6.9C158.2,165,157.2,167.3,155.3,169.2z M144.8,166
					c0.9,1,2.1,1.4,3.6,1.4c1.4,0,2.6-0.5,3.6-1.4c1-1,1.4-2.2,1.4-3.7c0-1.5-0.5-2.7-1.4-3.7c-1-1-2.2-1.4-3.6-1.4
					c-1.4,0-2.6,0.5-3.6,1.4c-0.9,1-1.4,2.2-1.4,3.7C143.4,163.8,143.9,165,144.8,166z"/>
				<path class="st5" d="M167.4,156.3c0.4-1.2,1.2-2.1,2.2-2.7c1-0.6,2.2-0.9,3.4-0.9v5.3c-1.5-0.2-2.8,0.1-3.9,0.9s-1.7,2-1.7,3.8
					v8.8h-4.8v-18.5h4.8V156.3z"/>
				<path class="st5" d="M181.6,156.3c0.4-1.2,1.2-2.1,2.2-2.7c1-0.6,2.2-0.9,3.4-0.9v5.3c-1.5-0.2-2.8,0.1-3.9,0.9s-1.7,2-1.7,3.8
					v8.8h-4.8v-18.5h4.8V156.3z"/>
				<path class="st5" d="M194.5,164.3c0.6,2.3,2.4,3.5,5.2,3.5c1.8,0,3.2-0.6,4.1-1.8l3.8,2.2c-1.8,2.6-4.5,4-8,4
					c-3.1,0-5.5-0.9-7.3-2.8c-1.8-1.8-2.8-4.2-2.8-7c0-2.8,0.9-5.1,2.7-7c1.8-1.9,4.2-2.8,7-2.8c2.7,0,4.9,0.9,6.7,2.8
					c1.8,1.9,2.6,4.2,2.6,6.9c0,0.6-0.1,1.3-0.2,2H194.5z M194.4,160.6h9.4c-0.3-1.3-0.8-2.2-1.7-2.8s-1.8-0.9-2.9-0.9
					c-1.3,0-2.3,0.3-3.2,1C195.2,158.5,194.6,159.4,194.4,160.6z"/>
				<path class="st5" d="M221.6,172.1c-2.8,0-5.1-0.9-7-2.8c-1.9-1.9-2.8-4.2-2.8-6.9s0.9-5.1,2.8-6.9c1.9-1.9,4.2-2.8,7-2.8
					c1.8,0,3.4,0.4,4.9,1.3c1.5,0.9,2.6,2,3.4,3.5l-4.1,2.4c-0.4-0.8-0.9-1.4-1.7-1.8s-1.6-0.7-2.5-0.7c-1.4,0-2.6,0.5-3.5,1.4
					c-0.9,0.9-1.4,2.2-1.4,3.6c0,1.5,0.5,2.7,1.4,3.6c0.9,0.9,2.1,1.4,3.5,1.4c1,0,1.8-0.2,2.6-0.6s1.3-1,1.7-1.8l4.1,2.4
					c-0.8,1.5-2,2.6-3.4,3.5C225.1,171.6,223.4,172.1,221.6,172.1z"/>
				<path class="st5" d="M244.2,157.7H240v7.7c0,0.6,0.2,1.1,0.5,1.4c0.3,0.3,0.8,0.5,1.4,0.5s1.4,0,2.3,0v4.3
					c-3.3,0.4-5.6,0.1-6.9-0.9c-1.3-1-2-2.7-2-5.3v-7.7H232v-4.6h3.2v-3.7l4.8-1.4v5.2h4.2V157.7z"/>
				<path class="st5" d="M79.1,190.6c-2.6-0.2-3.9,0.8-3.9,3.1v0.2h3.9v4.6h-3.9v13.9h-4.8v-13.9h-2.7v-4.6h2.7v-0.2
					c0-2.6,0.7-4.6,2.2-5.9c1.5-1.4,3.6-1.9,6.5-1.8V190.6z"/>
				<path class="st5" d="M95.7,193.9h4.8v18.5h-4.8v-2.2c-1.4,1.8-3.4,2.7-6,2.7c-2.5,0-4.6-0.9-6.3-2.8c-1.8-1.9-2.6-4.2-2.6-6.9
					c0-2.7,0.9-5,2.6-6.9c1.8-1.9,3.9-2.8,6.3-2.8c2.6,0,4.6,0.9,6,2.7V193.9z M86.9,206.9c1,1,2.2,1.5,3.7,1.5
					c1.5,0,2.7-0.5,3.7-1.5c1-1,1.5-2.2,1.5-3.7s-0.5-2.8-1.5-3.7c-1-1-2.2-1.5-3.7-1.5c-1.5,0-2.7,0.5-3.7,1.5
					c-1,1-1.4,2.2-1.4,3.7S85.9,205.9,86.9,206.9z"/>
				<path class="st5" d="M118.1,193.9h4.8v18.5h-4.8v-2.1c-1.2,1.7-3,2.6-5.5,2.6c-2,0-3.7-0.7-5-2c-1.3-1.4-2-3.2-2-5.6v-11.3h4.8
					v10.7c0,1.2,0.3,2.2,1,2.8c0.7,0.7,1.6,1,2.7,1c1.2,0,2.2-0.4,3-1.1c0.7-0.8,1.1-1.9,1.1-3.4V193.9z"/>
				<path class="st5" d="M128.3,212.3v-27h4.8v27H128.3z"/>
				<path class="st5" d="M149.1,198.5h-4.2v7.7c0,0.6,0.2,1.1,0.5,1.4c0.3,0.3,0.8,0.5,1.4,0.5s1.4,0,2.3,0v4.3
					c-3.3,0.4-5.6,0.1-6.9-0.9c-1.3-1-2-2.7-2-5.3v-7.7h-3.2v-4.6h3.2v-3.7l4.8-1.4v5.2h4.2V198.5z"/>
				<path class="st5" d="M173,212.9c-2.8,0-5.1-0.9-7-2.8c-1.9-1.9-2.8-4.2-2.8-6.9s0.9-5.1,2.8-6.9c1.9-1.9,4.2-2.8,7-2.8
					c1.8,0,3.4,0.4,4.9,1.3c1.5,0.9,2.6,2,3.4,3.5l-4.1,2.4c-0.4-0.8-0.9-1.4-1.7-1.8s-1.6-0.7-2.5-0.7c-1.4,0-2.6,0.5-3.5,1.4
					c-0.9,0.9-1.4,2.2-1.4,3.6c0,1.5,0.5,2.7,1.4,3.6c0.9,0.9,2.1,1.4,3.5,1.4c1,0,1.8-0.2,2.6-0.6s1.3-1,1.7-1.8l4.1,2.4
					c-0.8,1.5-2,2.6-3.4,3.5C176.4,212.4,174.8,212.9,173,212.9z"/>
				<path class="st5" d="M200.4,210c-1.9,1.9-4.2,2.8-6.9,2.8c-2.7,0-5-0.9-6.9-2.8c-1.9-1.9-2.8-4.2-2.8-6.9c0-2.7,0.9-5,2.8-6.9
					c1.9-1.9,4.2-2.8,6.9-2.8c2.7,0,5,0.9,6.9,2.8c1.9,1.9,2.8,4.2,2.8,6.9C203.2,205.8,202.3,208.2,200.4,210z M189.9,206.8
					c0.9,1,2.1,1.4,3.6,1.4c1.4,0,2.6-0.5,3.6-1.4c1-1,1.4-2.2,1.4-3.7c0-1.5-0.5-2.7-1.4-3.7c-1-1-2.2-1.4-3.6-1.4
					c-1.4,0-2.6,0.5-3.6,1.4c-0.9,1-1.4,2.2-1.4,3.7C188.5,204.6,188.9,205.8,189.9,206.8z"/>
				<path class="st5" d="M221.7,186.5h4.8v25.8h-4.8v-2.2c-1.4,1.8-3.4,2.7-6,2.7c-2.5,0-4.6-0.9-6.4-2.8c-1.8-1.9-2.6-4.2-2.6-6.9
					c0-2.7,0.9-5,2.6-6.9c1.8-1.9,3.9-2.8,6.4-2.8c2.6,0,4.6,0.9,6,2.7V186.5z M212.9,206.9c1,1,2.2,1.5,3.7,1.5
					c1.5,0,2.7-0.5,3.7-1.5c1-1,1.4-2.2,1.4-3.7s-0.5-2.8-1.4-3.7c-1-1-2.2-1.5-3.7-1.5c-1.5,0-2.7,0.5-3.7,1.5
					c-1,1-1.5,2.2-1.5,3.7S211.9,205.9,212.9,206.9z"/>
				<path class="st5" d="M235.9,205.1c0.6,2.3,2.4,3.5,5.2,3.5c1.8,0,3.2-0.6,4.1-1.8l3.8,2.2c-1.8,2.6-4.5,4-8,4
					c-3.1,0-5.5-0.9-7.3-2.8c-1.8-1.8-2.8-4.2-2.8-7c0-2.8,0.9-5.1,2.7-7c1.8-1.9,4.2-2.8,7-2.8c2.7,0,4.9,0.9,6.7,2.8
					c1.8,1.9,2.6,4.2,2.6,6.9c0,0.6-0.1,1.3-0.2,2H235.9z M235.9,201.4h9.4c-0.3-1.3-0.8-2.2-1.7-2.8s-1.8-0.9-2.9-0.9
					c-1.3,0-2.3,0.3-3.2,1C236.7,199.3,236.1,200.2,235.9,201.4z"/>
				<path class="st5" d="M259.5,211.9c-0.6,0.6-1.4,0.9-2.2,0.9c-0.9,0-1.6-0.3-2.2-0.9s-0.9-1.4-0.9-2.2c0-0.9,0.3-1.6,0.9-2.2
					s1.4-0.9,2.2-0.9c0.9,0,1.6,0.3,2.2,0.9c0.6,0.6,0.9,1.4,0.9,2.2C260.4,210.6,260.1,211.3,259.5,211.9z M255.4,203.7l-1-9.8
					v-7.4h5.7v7.4l-1,9.8H255.4z"/>
			</g>
		</g>
		<g>
			<circle class="st36" cx="165.9" cy="103" r="26.4"/>
			<g>
				<path class="st5" d="M167.8,112.8c-0.5,0.5-1.2,0.8-1.9,0.8c-0.7,0-1.4-0.3-1.9-0.8s-0.8-1.1-0.8-1.9c0-0.7,0.3-1.4,0.8-1.9
					c0.5-0.5,1.1-0.8,1.9-0.8c0.7,0,1.4,0.3,1.9,0.8c0.5,0.5,0.8,1.2,0.8,1.9C168.6,111.7,168.3,112.3,167.8,112.8z M164.3,105.8
					l-0.8-8.3v-6.3h4.9v6.3l-0.8,8.3H164.3z"/>
			</g>
		</g>
	</g>
</g>
<g id="Tools">
</g>
</svg>
