<?xml version="1.0" encoding="utf-8"?>
<!-- Generator: Adobe Illustrator 26.3.1, SVG Export Plug-In . SVG Version: 6.00 Build 0)  -->
<svg version="1.1" xmlns="http://www.w3.org/2000/svg" xmlns:xlink="http://www.w3.org/1999/xlink" x="0px" y="0px"
	 viewBox="0 0 326.1 318.3" style="enable-background:new 0 0 326.1 318.3;" xml:space="preserve">
<style type="text/css">
	.st0{fill:#323244;}
	.st1{fill:#19192D;}
	.st2{fill:#54B5B1;stroke:#FFFFFF;stroke-width:5;stroke-miterlimit:10;}
	.st3{fill:none;stroke:#FFFFFF;stroke-width:6;stroke-miterlimit:10;}
	.st4{fill:none;stroke:#FFFFFF;stroke-miterlimit:10;}
	.st5{fill:#FFFFFF;}
	.st6{opacity:0.2;fill:#1C1C1C;}
	.st7{opacity:0.1;}
	.st8{fill:#FBEDD5;}
	.st9{fill:#6B5237;}
	.st10{fill:#B7854F;}
	.st11{fill:#996D41;}
	.st12{fill:#FF6D00;}
	.st13{fill:#32373A;}
	.st14{fill:#CFD0D1;}
	.st15{fill:#EDCF21;}
	.st16{fill:#2A66BC;}
	.st17{fill:#DB5C05;}
	.st18{fill:#FF6D00;stroke:#000000;stroke-width:4;stroke-miterlimit:10;}
	.st19{fill:none;stroke:#FF4800;stroke-width:9;stroke-miterlimit:10;}
	.st20{fill:#EAEAEA;}
	.st21{fill:#E6E6E6;}
	.st22{fill:#333333;}
	.st23{fill:#FF4800;}
	.st24{stroke:#808080;stroke-miterlimit:10;}
	.st25{fill:#222628;}
	.st26{fill:#808080;}
	.st27{fill:#C1D9E5;}
	.st28{fill:#F2F2F2;}
	.st29{fill:none;stroke:#996D41;stroke-width:2;stroke-linecap:round;stroke-linejoin:round;stroke-miterlimit:10;}
	.st30{opacity:0.42;}
	.st31{fill:none;stroke:#6B5237;stroke-width:4;stroke-miterlimit:10;}
	.st32{fill:#D6B48B;}
	.st33{fill:#BC9871;}
	.st34{fill:none;stroke:#BC9871;stroke-width:2;stroke-linecap:round;stroke-linejoin:round;stroke-miterlimit:10;}
	.st35{fill:none;stroke:#6B5237;stroke-width:2;stroke-miterlimit:10;}
	.st36{fill:#E9A72D;}
	.st37{opacity:0.2;}
	.st38{opacity:0.2;fill:#19192D;}
	.st39{opacity:0.4;}
	.st40{fill:none;stroke:#FFFFFF;stroke-width:5;stroke-miterlimit:10;}
	.st41{fill:#54B5B1;}
	.st42{opacity:5.000000e-02;}
	.st43{fill:none;stroke:#19192D;stroke-width:4;stroke-miterlimit:10;}
	.st44{opacity:0.1;fill:#FBEDD5;}
	.st45{opacity:0.5;fill:#FBEDD5;}
	.st46{fill:#F4D192;}
	.st47{opacity:0.2;fill:#FBEDD5;}
	.st48{fill:#19192D;stroke:#FFFFFF;stroke-width:5;stroke-miterlimit:10;}
	.st49{fill:#19192D;stroke:#E9A72D;stroke-width:5;stroke-miterlimit:10;}
	.st50{clip-path:url(#SVGID_00000114773985672614216280000013448436196442467761_);}
	.st51{fill:none;stroke:#FFFFFF;stroke-width:0.5;stroke-miterlimit:10;}
	.st52{clip-path:url(#SVGID_00000093137828317121131580000016993552508793018794_);}
	.st53{fill:none;stroke:#FFFFFF;stroke-width:3;stroke-linecap:round;stroke-linejoin:round;stroke-miterlimit:10;}
	.st54{opacity:0.8;fill:#19192D;}
	.st55{fill:#B91300;}
	.st56{fill:#E7FF00;}
	.st57{fill:#E78D00;}
	.st58{clip-path:url(#SVGID_00000136399610706981451380000010476073093133435794_);}
	.st59{fill:#00E737;}
	.st60{clip-path:url(#SVGID_00000000921900898450610240000012894427330905596301_);}
	.st61{fill:#00E7FF;}
	.st62{opacity:0.2;fill:#32373A;}
	.st63{fill:#493A30;}
	.st64{fill:#723424;}
	.st65{fill:#2B2B3E;}
	.st66{fill:#19192D;stroke:#32325B;stroke-width:5;stroke-miterlimit:10;}
	.st67{fill:#32325B;}
	.st68{fill:#19192D;stroke:#F7F7F7;stroke-width:5;stroke-miterlimit:10;}
	.st69{fill:#E5E5E5;}
	.st70{fill:none;stroke:#F46245;stroke-width:4;stroke-miterlimit:10;}
	.st71{fill:#C4C4C4;}
	.st72{opacity:0.67;fill:#FFFFFF;}
	.st73{fill:#F7F7F7;}
	.st74{fill:#54B5B1;stroke:#FFFFFF;stroke-width:6;stroke-miterlimit:10;}
	.st75{fill:none;}
	.st76{fill:#E9A72D;stroke:#FFFFFF;stroke-width:5;stroke-miterlimit:10;}
	.st77{opacity:0.26;fill:#19192D;}
	.st78{stroke:#111111;stroke-width:2;stroke-miterlimit:10;}
	.st79{fill:#3E3E56;stroke:#111111;stroke-width:2;stroke-miterlimit:10;}
	.st80{fill:#19192D;stroke:#111111;stroke-width:2;stroke-miterlimit:10;}
	.st81{opacity:0.5;fill:#FFFFFF;}
	.st82{clip-path:url(#SVGID_00000033350034368008857490000000096442637711216800_);}
	.st83{fill:#E9A72D;stroke:#0F0F0F;stroke-width:4;stroke-miterlimit:10;}
	.st84{fill:#545454;stroke:#0F0F0F;stroke-width:4;stroke-miterlimit:10;}
	.st85{fill:#19192D;stroke:#0F0F0F;stroke-width:2;stroke-miterlimit:10;}
	.st86{fill:#BC1E44;stroke:#0F0F0F;stroke-width:4;stroke-miterlimit:10;}
	.st87{fill:none;stroke:#0F0F0F;stroke-width:2;stroke-miterlimit:10;}
	.st88{fill:#19192D;stroke:#0F0F0F;stroke-width:4;stroke-miterlimit:10;}
	.st89{fill:#E9A72D;stroke:#19192D;stroke-width:6;stroke-miterlimit:10;}
	.st90{fill:none;stroke:#FFFFFF;stroke-width:2;stroke-miterlimit:10;}
	.st91{clip-path:url(#SVGID_00000003827174399322894920000015508392581694207885_);}
	.st92{fill:#4E5051;}
	.st93{fill:#3B3C3D;}
	.st94{fill:none;stroke:#000000;stroke-width:4;stroke-miterlimit:10;}
	.st95{fill:none;stroke:#E9A72D;stroke-width:3;stroke-linecap:round;stroke-linejoin:round;stroke-miterlimit:10;}
	.st96{fill:none;stroke:#FFFFFF;stroke-width:3;stroke-miterlimit:10;}
	.st97{opacity:0.2;fill:none;stroke:#FFFFFF;stroke-miterlimit:10;}
	.st98{opacity:0.2;fill:#19192D;stroke:#FFFFFF;stroke-width:5;stroke-miterlimit:10;}
	.st99{fill:none;stroke:#005DD0;stroke-width:3;stroke-linecap:round;stroke-linejoin:round;stroke-miterlimit:10;}
	.st100{opacity:0.23;fill:#19192D;stroke:#19192D;stroke-width:28;stroke-miterlimit:10;}
	.st101{opacity:0.23;fill:#19192D;}
	.st102{fill:none;stroke:#54B5B1;stroke-width:5;stroke-miterlimit:10;}
	.st103{clip-path:url(#SVGID_00000021819570292493592970000010937325244842695067_);}
	.st104{opacity:0.5;fill:#32325B;}
	.st105{opacity:0.3;fill:#232323;}
	.st106{opacity:0.6;fill:none;stroke:#FFFFFF;stroke-width:2;stroke-miterlimit:10;}
	.st107{fill:#F9B438;}
	.st108{fill:none;stroke:#19192F;stroke-width:3;stroke-linecap:round;stroke-linejoin:round;stroke-miterlimit:10;}
	.st109{opacity:0.4;fill:#32325B;}
	.st110{clip-path:url(#SVGID_00000154420991177963499570000013748399139970447544_);}
	.st111{fill:#E9A72D;stroke:#000000;stroke-width:5;stroke-miterlimit:10;}
	.st112{opacity:0.5;fill:#19192D;stroke:#000000;stroke-width:6;stroke-miterlimit:10;}
	.st113{fill:#19192D;stroke:#000000;stroke-width:6;stroke-miterlimit:10;}
	.st114{fill:#19192D;stroke:#000000;stroke-width:2;stroke-miterlimit:10;}
	.st115{fill:#BC1E44;}
	.st116{fill:none;stroke:#000000;stroke-miterlimit:10;}
	.st117{fill:#2E2E4F;}
	.st118{fill:none;stroke:#111111;stroke-width:3;stroke-linecap:round;stroke-linejoin:round;stroke-miterlimit:10;}
	.st119{fill:#E9A72D;stroke:#0F0F0F;stroke-width:2;stroke-miterlimit:10;}
	.st120{clip-path:url(#SVGID_00000181081782230118704700000011093310030433611181_);}
	.st121{fill:#19192F;}
	.st122{fill:#E29820;stroke:#0F0F0F;stroke-width:2;stroke-miterlimit:10;}
	.st123{fill:#EFEFEF;}
	.st124{fill:#F9B438;stroke:#0F0F0F;stroke-width:4;stroke-miterlimit:10;}
	.st125{fill:none;stroke:#32325B;stroke-width:3;stroke-linecap:round;stroke-linejoin:round;stroke-miterlimit:10;}
	.st126{fill:none;stroke:#0F0F0F;stroke-width:4;stroke-miterlimit:10;}
	.st127{opacity:0.2;fill:#32325B;}
	.st128{fill:#19192F;stroke:#19192F;stroke-width:2;stroke-miterlimit:10;}
	.st129{opacity:0.3;fill:#32325B;}
	.st130{fill:none;stroke:#32325B;stroke-width:4;stroke-linecap:round;stroke-linejoin:round;stroke-miterlimit:10;}
	.st131{fill:#A3A3A3;}
	.st132{fill:#DFECF2;}
	.st133{fill:#232323;}
	.st134{fill:none;stroke:#232323;stroke-width:0.75;stroke-miterlimit:10;}
	.st135{fill:#CFD0D1;stroke:#0F0F0F;stroke-width:3;stroke-miterlimit:10;}
	.st136{fill:none;stroke:#0F0F0F;stroke-width:3;stroke-miterlimit:10;}
	.st137{clip-path:url(#SVGID_00000085953938171087451840000007112686662592857216_);}
	.st138{fill:#A5A5A5;stroke:#0F0F0F;stroke-width:4;stroke-miterlimit:10;}
	.st139{clip-path:url(#SVGID_00000121993070448386427870000011392539935260305053_);}
	.st140{clip-path:url(#SVGID_00000160184547937938711460000010763039802495693736_);}
	.st141{clip-path:url(#SVGID_00000012442167619428665720000016730049696898214320_);}
	.st142{opacity:0.2;fill:#19192F;}
	.st143{fill:#BC1E44;stroke:#FFFFFF;stroke-width:5;stroke-miterlimit:10;}
	.st144{opacity:0.67;fill:#FCFCFC;}
	.st145{fill:#E08D3B;}
	.st146{fill:none;stroke:#E08D3B;stroke-width:4;stroke-miterlimit:10;}
	.st147{opacity:0.8;fill:none;stroke:#19192D;stroke-width:2;stroke-miterlimit:10;}
	.st148{opacity:0.8;fill:#BC1E44;}
	.st149{font-family:'Gilroy-Medium';}
	.st150{font-size:25.9916px;}
	.st151{font-size:44.3408px;}
	.st152{letter-spacing:1;}
	.st153{font-family:'Gilroy-Bold';}
	.st154{fill:#E29820;}
</style>
<g id="Layer_1">
	<g>
		<g>
			<path class="st75" d="M322.5,35.1v248.6c0,17.6-14.3,31.9-31.9,31.9H34.3c-17.6,0-31.9-14.3-31.9-31.9V35.1
				c0-17.6,14.3-31.9,31.9-31.9h256.4C308.3,3.3,322.5,17.5,322.5,35.1z"/>
			<path class="st67" d="M322.5,35.1v248.6c0,17.6-14.3,31.9-31.9,31.9H34.3c-17.6,0-31.9-14.3-31.9-31.9V35.1
				c0-17.6,14.3-31.9,31.9-31.9h256.4C308.3,3.3,322.5,17.5,322.5,35.1z"/>
			<path class="st105" d="M322.5,146.9v142.8c0,14.6-11.9,26.5-26.5,26.5H28.9c-14.6,0-26.5-11.9-26.5-26.5V146.9"/>
			<line class="st106" x1="3.1" y1="146.9" x2="322.5" y2="146.9"/>
			<g>
				<text transform="matrix(1 0 0 1 56.7947 254.5741)"><tspan x="0" y="0" class="st5 st149 st150">Maintenance on  </tspan><tspan x="-10.5" y="31.2" class="st5 st149 st150">overheating gears</tspan></text>
			</g>
			<g>
				<text transform="matrix(1 0 0 1 86.6697 121.3221)" class="st36 st149 st151 st152">O2E821</text>
			</g>
			<g>
				<text transform="matrix(1 0 0 1 47.5174 64.577)" class="st5 st153 st151 st152">Fault code</text>
			</g>
			<g>
				<g>
					<polygon class="st14" points="50.7,183.2 39.6,185.4 39.6,189.9 50.7,192.1 50.8,192 50.8,192.1 57,191.4 171.4,191.4 
						171.4,183.9 57,183.9 50.8,183.2 50.8,183.2 					"/>
					<path class="st107" d="M231.5,171.8c-10.5,2.1-21.2,3.3-31.9,3.3l-21.2,0c-3.9,0-7,5.8-7,12.8c0,7.1,3.1,12.8,7,12.8l21.2,0
						c10.7,0,21.4,1.1,31.9,3.3c12.3,2.5,24.2,4,29.7,4c13.4,0,24.3-9,24.3-20.1c0-11.1-10.9-20.1-24.3-20.1
						C255.7,167.8,243.7,169.3,231.5,171.8z"/>
					<line class="st75" x1="50.8" y1="192" x2="50.8" y2="183.2"/>
					<line class="st75" x1="57" y1="191.4" x2="57" y2="183.9"/>
				</g>
				<line class="st108" x1="187" y1="197.5" x2="187" y2="178.4"/>
			</g>
		</g>
		<g>
			<g>
				<path class="st148" d="M323.1,34.6v248.6c0,17.6-14.3,31.9-31.9,31.9H34.9C17.3,315,3,300.7,3,283.1V34.6
					C3,17,17.3,2.7,34.9,2.7h256.4C308.8,2.7,323.1,17,323.1,34.6z"/>
				<g>
					<g>
						<path class="st5" d="M87,145.4h5.1v25.8H87V145.4z"/>
						<path class="st5" d="M108.1,152.3c2,0,3.7,0.7,5,2c1.3,1.4,2,3.2,2,5.6v11.3h-4.8v-10.7c0-1.2-0.3-2.2-1-2.8s-1.6-1-2.7-1
							c-1.2,0-2.2,0.4-3,1.1c-0.7,0.8-1.1,1.9-1.1,3.4v10h-4.8v-18.5h4.8v2.1C103.7,153.1,105.6,152.3,108.1,152.3z"/>
						<path class="st5" d="M129,171.8c-2.8,0-5.1-0.9-7-2.8c-1.9-1.9-2.8-4.2-2.8-6.9s0.9-5.1,2.8-6.9c1.9-1.9,4.2-2.8,7-2.8
							c1.8,0,3.4,0.4,4.9,1.3c1.5,0.9,2.6,2,3.4,3.5l-4.1,2.4c-0.4-0.8-0.9-1.4-1.7-1.8s-1.6-0.7-2.5-0.7c-1.4,0-2.6,0.5-3.5,1.4
							c-0.9,0.9-1.4,2.2-1.4,3.6c0,1.5,0.5,2.7,1.4,3.6c0.9,0.9,2.1,1.4,3.5,1.4c1,0,1.8-0.2,2.6-0.6s1.3-1,1.7-1.8l4.1,2.4
							c-0.8,1.5-2,2.6-3.4,3.5C132.5,171.3,130.8,171.8,129,171.8z"/>
						<path class="st5" d="M156.4,169c-1.9,1.9-4.2,2.8-6.9,2.8c-2.7,0-5-0.9-6.9-2.8c-1.9-1.9-2.8-4.2-2.8-6.9c0-2.7,0.9-5,2.8-6.9
							c1.9-1.9,4.2-2.8,6.9-2.8c2.7,0,5,0.9,6.9,2.8c1.9,1.9,2.8,4.2,2.8,6.9C159.3,164.8,158.3,167.1,156.4,169z M145.9,165.7
							c0.9,1,2.1,1.4,3.6,1.4c1.4,0,2.6-0.5,3.6-1.4c1-1,1.4-2.2,1.4-3.7c0-1.5-0.5-2.7-1.4-3.7c-1-1-2.2-1.4-3.6-1.4
							c-1.4,0-2.6,0.5-3.6,1.4c-0.9,1-1.4,2.2-1.4,3.7C144.5,163.5,145,164.7,145.9,165.7z"/>
						<path class="st5" d="M168.5,156c0.4-1.2,1.2-2.1,2.2-2.7c1-0.6,2.2-0.9,3.4-0.9v5.3c-1.5-0.2-2.8,0.1-3.9,0.9s-1.7,2-1.7,3.8
							v8.8h-4.8v-18.5h4.8V156z"/>
						<path class="st5" d="M182.7,156c0.4-1.2,1.2-2.1,2.2-2.7c1-0.6,2.2-0.9,3.4-0.9v5.3c-1.5-0.2-2.8,0.1-3.9,0.9s-1.7,2-1.7,3.8
							v8.8H178v-18.5h4.8V156z"/>
						<path class="st5" d="M195.6,164c0.6,2.3,2.4,3.5,5.2,3.5c1.8,0,3.2-0.6,4.1-1.8l3.8,2.2c-1.8,2.6-4.5,4-8,4
							c-3.1,0-5.5-0.9-7.3-2.8c-1.8-1.8-2.8-4.2-2.8-7c0-2.8,0.9-5.1,2.7-7c1.8-1.9,4.2-2.8,7-2.8c2.7,0,4.9,0.9,6.7,2.8
							c1.8,1.9,2.6,4.2,2.6,6.9c0,0.6-0.1,1.3-0.2,2H195.6z M195.5,160.3h9.4c-0.3-1.3-0.8-2.2-1.7-2.8s-1.8-0.9-2.9-0.9
							c-1.3,0-2.3,0.3-3.2,1C196.3,158.2,195.8,159.1,195.5,160.3z"/>
						<path class="st5" d="M222.7,171.8c-2.8,0-5.1-0.9-7-2.8c-1.9-1.9-2.8-4.2-2.8-6.9s0.9-5.1,2.8-6.9c1.9-1.9,4.2-2.8,7-2.8
							c1.8,0,3.4,0.4,4.9,1.3c1.5,0.9,2.6,2,3.4,3.5l-4.1,2.4c-0.4-0.8-0.9-1.4-1.7-1.8s-1.6-0.7-2.5-0.7c-1.4,0-2.6,0.5-3.5,1.4
							c-0.9,0.9-1.4,2.2-1.4,3.6c0,1.5,0.5,2.7,1.4,3.6c0.9,0.9,2.1,1.4,3.5,1.4c1,0,1.8-0.2,2.6-0.6s1.3-1,1.7-1.8l4.1,2.4
							c-0.8,1.5-2,2.6-3.4,3.5C226.2,171.3,224.5,171.8,222.7,171.8z"/>
						<path class="st5" d="M245.3,157.4h-4.2v7.7c0,0.6,0.2,1.1,0.5,1.4c0.3,0.3,0.8,0.5,1.4,0.5s1.4,0,2.3,0v4.3
							c-3.3,0.4-5.6,0.1-6.9-0.9c-1.3-1-2-2.7-2-5.3v-7.7h-3.2v-4.6h3.2v-3.7l4.8-1.4v5.2h4.2V157.4z"/>
						<path class="st5" d="M80.2,190.3c-2.6-0.2-3.9,0.8-3.9,3.1v0.2h3.9v4.6h-3.9v13.9h-4.8v-13.9h-2.7v-4.6h2.7v-0.2
							c0-2.6,0.7-4.6,2.2-5.9c1.5-1.4,3.6-1.9,6.5-1.8V190.3z"/>
						<path class="st5" d="M96.8,193.6h4.8v18.5h-4.8v-2.2c-1.4,1.8-3.4,2.7-6,2.7c-2.5,0-4.6-0.9-6.3-2.8c-1.8-1.9-2.6-4.2-2.6-6.9
							c0-2.7,0.9-5,2.6-6.9c1.8-1.9,3.9-2.8,6.3-2.8c2.6,0,4.6,0.9,6,2.7V193.6z M88,206.6c1,1,2.2,1.5,3.7,1.5
							c1.5,0,2.7-0.5,3.7-1.5c1-1,1.5-2.2,1.5-3.7s-0.5-2.8-1.5-3.7c-1-1-2.2-1.5-3.7-1.5c-1.5,0-2.7,0.5-3.7,1.5
							c-1,1-1.4,2.2-1.4,3.7S87.1,205.6,88,206.6z"/>
						<path class="st5" d="M119.2,193.6h4.8v18.5h-4.8V210c-1.2,1.7-3,2.6-5.5,2.6c-2,0-3.7-0.7-5-2c-1.3-1.4-2-3.2-2-5.6v-11.3h4.8
							v10.7c0,1.2,0.3,2.2,1,2.8c0.7,0.7,1.6,1,2.7,1c1.2,0,2.2-0.4,3-1.1c0.7-0.8,1.1-1.9,1.1-3.4V193.6z"/>
						<path class="st5" d="M129.4,212.1v-27h4.8v27H129.4z"/>
						<path class="st5" d="M150.2,198.2H146v7.7c0,0.6,0.2,1.1,0.5,1.4c0.3,0.3,0.8,0.5,1.4,0.5s1.4,0,2.3,0v4.3
							c-3.3,0.4-5.6,0.1-6.9-0.9c-1.3-1-2-2.7-2-5.3v-7.7h-3.2v-4.6h3.2v-3.7l4.8-1.4v5.2h4.2V198.2z"/>
						<path class="st5" d="M174.1,212.6c-2.8,0-5.1-0.9-7-2.8c-1.9-1.9-2.8-4.2-2.8-6.9s0.9-5.1,2.8-6.9c1.9-1.9,4.2-2.8,7-2.8
							c1.8,0,3.4,0.4,4.9,1.3c1.5,0.9,2.6,2,3.4,3.5l-4.1,2.4c-0.4-0.8-0.9-1.4-1.7-1.8s-1.6-0.7-2.5-0.7c-1.4,0-2.6,0.5-3.5,1.4
							c-0.9,0.9-1.4,2.2-1.4,3.6c0,1.5,0.5,2.7,1.4,3.6c0.9,0.9,2.1,1.4,3.5,1.4c1,0,1.8-0.2,2.6-0.6s1.3-1,1.7-1.8l4.1,2.4
							c-0.8,1.5-2,2.6-3.4,3.5C177.5,212.2,175.9,212.6,174.1,212.6z"/>
						<path class="st5" d="M201.5,209.8c-1.9,1.9-4.2,2.8-6.9,2.8c-2.7,0-5-0.9-6.9-2.8c-1.9-1.9-2.8-4.2-2.8-6.9
							c0-2.7,0.9-5,2.8-6.9c1.9-1.9,4.2-2.8,6.9-2.8c2.7,0,5,0.9,6.9,2.8c1.9,1.9,2.8,4.2,2.8,6.9
							C204.3,205.6,203.4,207.9,201.5,209.8z M191,206.5c0.9,1,2.1,1.4,3.6,1.4c1.4,0,2.6-0.5,3.6-1.4c1-1,1.4-2.2,1.4-3.7
							c0-1.5-0.5-2.7-1.4-3.7c-1-1-2.2-1.4-3.6-1.4c-1.4,0-2.6,0.5-3.6,1.4c-0.9,1-1.4,2.2-1.4,3.7C189.6,204.3,190,205.5,191,206.5
							z"/>
						<path class="st5" d="M222.8,186.2h4.8v25.8h-4.8v-2.2c-1.4,1.8-3.4,2.7-6,2.7c-2.5,0-4.6-0.9-6.4-2.8
							c-1.8-1.9-2.6-4.2-2.6-6.9c0-2.7,0.9-5,2.6-6.9c1.8-1.9,3.9-2.8,6.4-2.8c2.6,0,4.6,0.9,6,2.7V186.2z M214,206.6
							c1,1,2.2,1.5,3.7,1.5c1.5,0,2.7-0.5,3.7-1.5c1-1,1.4-2.2,1.4-3.7s-0.5-2.8-1.4-3.7c-1-1-2.2-1.5-3.7-1.5
							c-1.5,0-2.7,0.5-3.7,1.5c-1,1-1.5,2.2-1.5,3.7S213.1,205.6,214,206.6z"/>
						<path class="st5" d="M237.1,204.8c0.6,2.3,2.4,3.5,5.2,3.5c1.8,0,3.2-0.6,4.1-1.8l3.8,2.2c-1.8,2.6-4.5,4-8,4
							c-3.1,0-5.5-0.9-7.3-2.8c-1.8-1.8-2.8-4.2-2.8-7c0-2.8,0.9-5.1,2.7-7c1.8-1.9,4.2-2.8,7-2.8c2.7,0,4.9,0.9,6.7,2.8
							c1.8,1.9,2.6,4.2,2.6,6.9c0,0.6-0.1,1.3-0.2,2H237.1z M237,201.1h9.4c-0.3-1.3-0.8-2.2-1.7-2.8s-1.8-0.9-2.9-0.9
							c-1.3,0-2.3,0.3-3.2,1C237.8,199,237.2,199.9,237,201.1z"/>
						<path class="st5" d="M260.6,211.6c-0.6,0.6-1.4,0.9-2.2,0.9c-0.9,0-1.6-0.3-2.2-0.9s-0.9-1.4-0.9-2.2c0-0.9,0.3-1.6,0.9-2.2
							s1.4-0.9,2.2-0.9c0.9,0,1.6,0.3,2.2,0.9c0.6,0.6,0.9,1.4,0.9,2.2C261.5,210.3,261.2,211,260.6,211.6z M256.5,203.4l-1-9.8
							v-7.4h5.7v7.4l-1,9.8H256.5z"/>
					</g>
				</g>
				<g>
					<circle class="st36" cx="167" cy="102.7" r="26.4"/>
					<g>
						<path class="st5" d="M168.9,112.5c-0.5,0.5-1.2,0.8-1.9,0.8c-0.7,0-1.4-0.3-1.9-0.8s-0.8-1.1-0.8-1.9c0-0.7,0.3-1.4,0.8-1.9
							c0.5-0.5,1.1-0.8,1.9-0.8c0.7,0,1.4,0.3,1.9,0.8c0.5,0.5,0.8,1.2,0.8,1.9C169.7,111.4,169.4,112,168.9,112.5z M165.4,105.5
							l-0.8-8.3V91h4.9v6.3l-0.8,8.3H165.4z"/>
					</g>
				</g>
			</g>
			<path class="st3" d="M323.1,34.9v248.6c0,17.6-14.3,31.9-31.9,31.9H34.9C17.3,315.3,3,301,3,283.4V34.9C3,17.3,17.3,3,34.9,3
				h256.4C308.8,3,323.1,17.3,323.1,34.9z"/>
		</g>
	</g>
</g>
<g id="Tools">
</g>
</svg>
