<?xml version="1.0" encoding="UTF-8"?><svg xmlns="http://www.w3.org/2000/svg" viewBox="0 0 478.5 279.71"><defs><style>.d{letter-spacing:.03em;}.e{fill:#bc1e44;stroke:#fff;stroke-miterlimit:10;stroke-width:5px;}.f,.g,.h,.i,.j,.k,.l{font-family:Gilroy-Medium, Gilroy-Medium;}.f,.m{letter-spacing:.03em;}.n,.o,.l{letter-spacing:.03em;}.n,.p,.q{font-family:Gilroy-Bold, Gilroy-Bold;}.r{letter-spacing:-.06em;}.s,.t,.q{fill:#fff;}.u{fill:#e9a72d;}.v{letter-spacing:.01em;}.g{letter-spacing:.02em;}.w{letter-spacing:.02em;}.t,.q{font-size:31.36px;}.i{letter-spacing:.02em;}.x{letter-spacing:.03em;}.y{letter-spacing:.03em;}.a`{letter-spacing:.03em;}.aa,.q,.k{letter-spacing:.03em;}.ab{letter-spacing:-.05em;}.j,.ac{letter-spacing:.02em;}.ad{letter-spacing:.03em;}.ae{letter-spacing:.02em;}</style></defs><g id="a"/><g id="b"><g id="c"><g><g><rect class="e" x="2.5" y="2.5" width="421.2" height="274.71" rx="43.56" ry="43.56"/><text class="t" transform="translate(132.78 121.57)"><tspan class="p"><tspan class="v" x="0" y="0">V</tspan><tspan class="ad" x="20.6" y="0">i</tspan><tspan class="d" x="29.16" y="0">s</tspan><tspan class="a`" x="44.53" y="0">ibili</tspan><tspan class="y" x="99.85" y="0">t</tspan><tspan class="aa" x="112.96" y="0">y </tspan><tspan class="ad" x="139.14" y="0">i</tspan><tspan class="o" x="147.7" y="0">s</tspan></tspan><tspan class="p"><tspan class="aa" x="-48.94" y="37.63">poor on </tspan><tspan class="ab" x="79.04" y="37.63">T</tspan><tspan class="aa" x="94.41" y="37.63">u</tspan><tspan class="v" x="113.44" y="37.63">e</tspan><tspan class="w" x="131.98" y="37.63">s</tspan><tspan class="aa" x="147.12" y="37.63">da</tspan><tspan class="r" x="188.27" y="37.63">y</tspan><tspan class="aa" x="202.82" y="37.63">.</tspan></tspan><tspan class="h"><tspan class="o" x="-98.33" y="75.26">I’m n</tspan><tspan class="ac" x="-25.92" y="75.26">o</tspan><tspan class="o" x="-6.44" y="75.26">t pil</tspan><tspan class="ae" x="51.6" y="75.26">o</tspan><tspan class="m" x="71.08" y="75.26">t</tspan><tspan class="o" x="83.78" y="75.26">ing </tspan><tspan class="x" x="139.82" y="75.26">t</tspan><tspan class="aa" x="152.52" y="75.26">he </tspan><tspan class="d" x="199.15" y="75.26">s</tspan><tspan class="aa" x="214.29" y="75.26">hip</tspan></tspan><tspan class="l" x="-75.51" y="112.89">in </tspan><tspan class="f" x="-40.26" y="112.89">t</tspan><tspan class="l" x="-27.56" y="112.89">h</tspan><tspan class="j" x="-8.94" y="112.89">o</tspan><tspan class="g" x="10.54" y="112.89">s</tspan><tspan class="k" x="25.4" y="112.89">e </tspan><tspan class="i" x="53.41" y="112.89">c</tspan><tspan class="k" x="71.25" y="112.89">ondi</tspan><tspan class="f" x="138.33" y="112.89">t</tspan><tspan class="l" x="151.03" y="112.89">ions!</tspan><tspan class="n" x="221.18" y="112.89" xml:space="preserve">  </tspan></text><path class="s" d="M422.96,97.57s59.35-25.3,55.34-86.36c-.22-3.28-4.24-4.7-6.46-2.27-8.54,9.38-23.26,26.45-47.34,30.67"/></g><g><circle class="u" cx="210.3" cy="53.64" r="26.41"/><text class="q" transform="translate(206.1 63.86)"><tspan x="0" y="0">!</tspan></text></g></g></g></g></svg>