<?xml version="1.0" encoding="UTF-8"?><svg xmlns="http://www.w3.org/2000/svg" viewBox="0 0 1096.7 163.6"><defs><style>.d{fill:#fff;}.e{fill:#19192d;}.f{stroke-width:5px;}.f,.g{fill:none;stroke:#fff;stroke-miterlimit:10;}.h{isolation:isolate;}</style></defs><g id="a"/><g id="b"><g id="c"><g><path class="e" d="M0,87.2H186.6c24.7,0,44.6,20,44.6,44.6h0c0,17.6,14.2,31.8,31.8,31.8h506.3c18.7,0,33.9-15.2,33.9-33.9h0c0-23.5,19-42.5,42.5-42.5l250.9,.3V1H0V87.2Z"/><g><line class="f" x1="1096.7" y1="87.4" x2="746.3" y2="87.4"/><line class="f" x1="746.3" y1="59.6" x2="746.3" y2="114.9"/></g><g class="h"><path class="d" d="M332.77,96.05h10.9v5.39h-16.53v-28.57h5.63v23.18Z"/><path class="d" d="M373.1,97.7c-2.88,2.87-6.4,4.31-10.53,4.31s-7.64-1.43-10.51-4.31c-2.87-2.87-4.31-6.39-4.31-10.55s1.44-7.68,4.31-10.55c2.87-2.87,6.37-4.31,10.51-4.31s7.65,1.44,10.53,4.31c2.88,2.87,4.33,6.39,4.33,10.55s-1.44,7.68-4.33,10.55Zm-17.1-3.84c1.77,1.75,3.96,2.63,6.57,2.63s4.8-.88,6.57-2.63c1.77-1.76,2.65-3.99,2.65-6.71s-.88-4.97-2.65-6.73c-1.77-1.77-3.96-2.65-6.57-2.65s-4.8,.88-6.57,2.65c-1.77,1.77-2.65,4.01-2.65,6.73s.88,4.96,2.65,6.71Z"/><path class="d" d="M398.9,102.01c-4.3,0-7.85-1.43-10.65-4.29-2.8-2.86-4.2-6.38-4.2-10.57s1.4-7.75,4.2-10.59c2.8-2.84,6.35-4.27,10.65-4.27,2.58,0,4.97,.61,7.16,1.82,2.19,1.21,3.9,2.85,5.12,4.92l-4.86,2.82c-.71-1.28-1.71-2.28-3.02-3-1.31-.72-2.78-1.08-4.41-1.08-2.78,0-5.01,.87-6.71,2.61-1.7,1.74-2.55,4-2.55,6.78s.85,4.99,2.55,6.73c1.7,1.74,3.94,2.61,6.71,2.61,1.63,0,3.11-.36,4.43-1.08,1.32-.72,2.32-1.71,3-2.96l4.86,2.82c-1.22,2.07-2.93,3.71-5.1,4.92-2.18,1.21-4.57,1.82-7.18,1.82Z"/><path class="d" d="M437.27,101.43l-1.82-5.14h-11.74l-1.71,5.14h-6.08l10-28.57h6.98l10.08,28.57h-5.71Zm-11.72-10.41h8.04l-4.12-11.67-3.92,11.67Z"/><path class="d" d="M466.53,72.86v5.39h-7.71v23.18h-5.63v-23.18h-7.67v-5.39h21.02Z"/><path class="d" d="M473.64,72.86h5.63v28.57h-5.63v-28.57Z"/><path class="d" d="M505.07,72.86h5.63v28.57h-4.29l-12.25-17.47v17.47h-5.63v-28.57h4.28l12.25,17.4v-17.4Z"/><path class="d" d="M548,86.09v2.2c0,4.08-1.31,7.39-3.92,9.92s-5.99,3.8-10.12,3.8c-4.41,0-8.06-1.43-10.96-4.31-2.9-2.87-4.35-6.37-4.35-10.51s1.43-7.69,4.31-10.57c2.87-2.88,6.43-4.33,10.67-4.33,2.67,0,5.1,.61,7.31,1.82,2.2,1.21,3.92,2.82,5.14,4.84l-4.82,2.78c-.68-1.17-1.71-2.12-3.08-2.86-1.38-.74-2.91-1.1-4.59-1.1-2.72,0-4.96,.89-6.71,2.67s-2.63,4.03-2.63,6.76,.89,4.92,2.67,6.67c1.78,1.75,4.14,2.63,7.08,2.63,2.18,0,3.98-.48,5.41-1.45s2.4-2.29,2.92-3.98h-8.65v-4.98h14.33Z"/><path class="d" d="M587.19,78.25h-11.43v6.77h11.1v5.39h-11.1v11.02h-5.63v-28.57h17.06v5.39Z"/><path class="d" d="M612.79,101.43l-1.82-5.14h-11.74l-1.71,5.14h-6.08l10-28.57h6.98l10.08,28.57h-5.71Zm-11.72-10.41h8.04l-4.12-11.67-3.92,11.67Z"/><path class="d" d="M635.07,102.01c-3.18,0-5.8-.9-7.84-2.69-2.04-1.8-3.06-4.21-3.06-7.23v-19.22h5.59v18.78c0,1.5,.43,2.68,1.29,3.55,.86,.87,2.2,1.31,4.02,1.31s3.16-.43,4.02-1.31c.86-.87,1.29-2.05,1.29-3.55v-18.78h5.63v19.22c0,3.02-1.02,5.43-3.06,7.23-2.04,1.8-4.67,2.69-7.88,2.69Z"/><path class="d" d="M660.66,96.05h10.9v5.39h-16.53v-28.57h5.63v23.18Z"/><path class="d" d="M694.71,72.86v5.39h-7.71v23.18h-5.63v-23.18h-7.67v-5.39h21.02Z"/><path class="d" d="M710.75,102.01c-2.83,0-5.21-.63-7.14-1.9-1.93-1.27-3.29-2.99-4.08-5.16l4.82-2.82c1.12,2.91,3.31,4.37,6.57,4.37,1.58,0,2.74-.29,3.47-.86,.74-.57,1.1-1.29,1.1-2.16,0-1.01-.45-1.79-1.35-2.35-.9-.56-2.5-1.16-4.82-1.82-1.28-.38-2.36-.76-3.25-1.14-.88-.38-1.77-.89-2.65-1.53-.88-.64-1.56-1.45-2.02-2.43-.46-.98-.69-2.12-.69-3.43,0-2.58,.92-4.65,2.75-6.18,1.84-1.54,4.05-2.31,6.63-2.31,2.31,0,4.35,.57,6.1,1.69,1.76,1.13,3.12,2.7,4.1,4.71l-4.74,2.73c-1.14-2.45-2.97-3.67-5.47-3.67-1.17,0-2.09,.27-2.76,.8-.67,.53-1,1.22-1,2.06,0,.9,.37,1.63,1.12,2.18,.75,.56,2.18,1.16,4.31,1.82,.87,.27,1.53,.48,1.98,.63,.45,.15,1.06,.38,1.84,.69s1.37,.61,1.8,.88c.42,.27,.91,.64,1.45,1.1s.96,.94,1.25,1.43c.29,.49,.53,1.08,.73,1.78s.31,1.45,.31,2.27c0,2.64-.96,4.73-2.88,6.29-1.92,1.55-4.42,2.33-7.49,2.33Z"/></g><g><line class="f" x1="1" y1="87" x2="290" y2="87"/><line class="f" x1="290" y1="59.2" x2="290" y2="114.5"/></g><line class="g" x1="837.4" x2="837.4" y2="83.3"/></g></g></g></svg>