<?xml version="1.0" encoding="UTF-8"?><svg xmlns="http://www.w3.org/2000/svg" xmlns:xlink="http://www.w3.org/1999/xlink" viewBox="0 0 1238.8 927.71"><defs><style>.e,.f{fill:none;}.g{fill:#54b5b1;stroke-width:5px;}.g,.f{stroke:#fff;stroke-miterlimit:10;}.h{clip-path:url(#d);}.f{stroke-width:.5px;}</style><clipPath id="d"><path class="e" d="M2.5,132.69V46.06c0-24.06,19.5-43.56,43.56-43.56H232.64c24.65,0,44.64,19.98,44.64,44.64h0c0,17.57,14.25,31.82,31.82,31.82h506.33c18.73,0,33.91-15.18,33.91-33.91h0c0-23.5,19.05-42.54,42.54-42.54h-99.24l69.49,.26h330.62c24.06,0,43.56,19.5,43.56,43.56V881.65c0,24.06-19.5,43.56-43.56,43.56H46.06c-24.06,0-43.56-19.5-43.56-43.56V120.65"/></clipPath></defs><g id="a"/><g id="b"><g id="c"><path class="g" d="M2.5,132.69V46.06c0-24.06,19.5-43.56,43.56-43.56H232.64c24.65,0,44.64,19.98,44.64,44.64h0c0,17.57,14.25,31.82,31.82,31.82h506.33c18.73,0,33.91-15.18,33.91-33.91h0c0-23.5,19.05-42.54,42.54-42.54h-99.24l69.49,.26h330.62c24.06,0,43.56,19.5,43.56,43.56V881.65c0,24.06-19.5,43.56-43.56,43.56H46.06c-24.06,0-43.56-19.5-43.56-43.56V120.65"/><g class="h"><g><g><line class="f" x1="3.87" y1="5.76" x2="3.87" y2="923.16"/><line class="f" x1="31.85" y1="5.76" x2="31.85" y2="923.16"/><line class="f" x1="59.82" y1="5.76" x2="59.82" y2="923.16"/><line class="f" x1="87.8" y1="5.76" x2="87.8" y2="923.16"/><line class="f" x1="115.78" y1="5.76" x2="115.78" y2="923.16"/><line class="f" x1="143.76" y1="5.76" x2="143.76" y2="923.16"/><line class="f" x1="171.74" y1="5.76" x2="171.74" y2="923.16"/><line class="f" x1="227.69" y1="5.76" x2="227.69" y2="923.16"/><line class="f" x1="283.65" y1="5.76" x2="283.65" y2="923.16"/><line class="f" x1="339.6" y1="5.76" x2="339.6" y2="923.16"/><line class="f" x1="423.54" y1="5.76" x2="423.54" y2="923.16"/><line class="f" x1="507.47" y1="5.76" x2="507.47" y2="923.16"/><line class="f" x1="591.4" y1="5.76" x2="591.4" y2="923.16"/><line class="f" x1="675.34" y1="5.76" x2="675.34" y2="923.16"/><line class="f" x1="759.27" y1="5.76" x2="759.27" y2="923.16"/><line class="f" x1="199.71" y1="5.76" x2="199.71" y2="923.16"/><line class="f" x1="255.67" y1="5.76" x2="255.67" y2="923.16"/><line class="f" x1="311.62" y1="5.76" x2="311.62" y2="923.16"/><line class="f" x1="395.56" y1="5.76" x2="395.56" y2="923.16"/><line class="f" x1="479.49" y1="5.76" x2="479.49" y2="923.16"/><line class="f" x1="535.45" y1="5.76" x2="535.45" y2="923.16"/><line class="f" x1="647.36" y1="5.76" x2="647.36" y2="923.16"/><line class="f" x1="731.29" y1="5.76" x2="731.29" y2="923.16"/><line class="f" x1="815.23" y1="5.76" x2="815.23" y2="923.16"/><line class="f" x1="871.18" y1="5.76" x2="871.18" y2="923.16"/><line class="f" x1="927.14" y1="5.76" x2="927.14" y2="923.16"/><line class="f" x1="1011.07" y1="5.76" x2="1011.07" y2="923.16"/><line class="f" x1="1095.01" y1="5.76" x2="1095.01" y2="923.16"/><line class="f" x1="1150.96" y1="5.76" x2="1150.96" y2="923.16"/><line class="f" x1="367.58" y1="5.76" x2="367.58" y2="923.16"/><line class="f" x1="451.51" y1="5.76" x2="451.51" y2="923.16"/><line class="f" x1="563.43" y1="5.76" x2="563.43" y2="923.16"/><line class="f" x1="619.38" y1="5.76" x2="619.38" y2="923.16"/><line class="f" x1="703.32" y1="5.76" x2="703.32" y2="923.16"/><line class="f" x1="787.25" y1="5.76" x2="787.25" y2="923.16"/><line class="f" x1="843.21" y1="5.76" x2="843.21" y2="923.16"/><line class="f" x1="899.16" y1="5.76" x2="899.16" y2="923.16"/><line class="f" x1="983.09" y1="5.76" x2="983.09" y2="923.16"/><line class="f" x1="1067.03" y1="5.76" x2="1067.03" y2="923.16"/><line class="f" x1="1178.94" y1="5.76" x2="1178.94" y2="923.16"/><line class="f" x1="1234.9" y1="5.76" x2="1234.9" y2="923.16"/><line class="f" x1="955.12" y1="5.76" x2="955.12" y2="923.16"/><line class="f" x1="1039.05" y1="5.76" x2="1039.05" y2="923.16"/><line class="f" x1="1122.98" y1="5.76" x2="1122.98" y2="923.16"/><line class="f" x1="1206.92" y1="5.76" x2="1206.92" y2="923.16"/></g><g><line class="f" x1="-27.57" y1="478.74" x2="1738.5" y2="478.74"/><line class="f" x1="-27.57" y1="394.81" x2="1738.5" y2="394.81"/><line class="f" x1="-27.57" y1="562.67" x2="1738.5" y2="562.67"/><line class="f" x1="-27.57" y1="506.72" x2="1738.5" y2="506.72"/><line class="f" x1="-27.57" y1="422.79" x2="1738.5" y2="422.79"/><line class="f" x1="-27.57" y1="338.85" x2="1738.5" y2="338.85"/><line class="f" x1="-27.57" y1="282.9" x2="1738.5" y2="282.9"/><line class="f" x1="-27.57" y1="226.94" x2="1738.5" y2="226.94"/><line class="f" x1="-27.57" y1="534.7" x2="1738.5" y2="534.7"/><line class="f" x1="-27.57" y1="450.76" x2="1738.5" y2="450.76"/><line class="f" x1="-27.57" y1="366.83" x2="1738.5" y2="366.83"/><line class="f" x1="-27.57" y1="310.87" x2="1738.5" y2="310.87"/><line class="f" x1="-27.57" y1="254.92" x2="1738.5" y2="254.92"/><line class="f" x1="-27.57" y1="198.96" x2="1738.5" y2="198.96"/><line class="f" x1="-27.57" y1="170.98" x2="1738.5" y2="170.98"/><line class="f" x1="-27.57" y1="143.01" x2="1738.5" y2="143.01"/><line class="f" x1="-27.57" y1="115.03" x2="1738.5" y2="115.03"/><line class="f" x1="-27.57" y1="87.05" x2="1738.5" y2="87.05"/><line class="f" x1="-27.57" y1="59.07" x2="1738.5" y2="59.07"/><line class="f" x1="-27.57" y1="31.09" x2="1738.5" y2="31.09"/><line class="f" x1="-27.57" y1="3.12" x2="1738.5" y2="3.12"/></g><g><line class="f" x1="-27.57" y1="926.39" x2="1738.5" y2="926.39"/><line class="f" x1="-27.57" y1="870.43" x2="1738.5" y2="870.43"/><line class="f" x1="-27.57" y1="814.48" x2="1738.5" y2="814.48"/><line class="f" x1="-27.57" y1="898.41" x2="1738.5" y2="898.41"/><line class="f" x1="-27.57" y1="842.45" x2="1738.5" y2="842.45"/><line class="f" x1="-27.57" y1="786.5" x2="1738.5" y2="786.5"/><line class="f" x1="-27.57" y1="758.52" x2="1738.5" y2="758.52"/><line class="f" x1="-27.57" y1="730.54" x2="1738.5" y2="730.54"/><line class="f" x1="-27.57" y1="702.56" x2="1738.5" y2="702.56"/><line class="f" x1="-27.57" y1="674.59" x2="1738.5" y2="674.59"/><line class="f" x1="-27.57" y1="646.61" x2="1738.5" y2="646.61"/><line class="f" x1="-27.57" y1="618.63" x2="1738.5" y2="618.63"/><line class="f" x1="-27.57" y1="590.65" x2="1738.5" y2="590.65"/></g></g></g></g></g></svg>