<?xml version="1.0" encoding="UTF-8"?><svg xmlns="http://www.w3.org/2000/svg" viewBox="0 0 237.05 118.22"><defs><style>.d{opacity:.05;}.e{fill:#e9a72d;}.f{fill:#fbedd5;}.g{fill:#19192d;}.h{fill:none;stroke:#19192d;stroke-miterlimit:10;stroke-width:4px;}</style></defs><g id="a"/><g id="b"><g id="c"><g><g><g class="d"><path class="f" d="M180.46,30c14.69,0,26.59,11.91,26.59,26.59v5.04c0,14.69-11.91,26.59-26.59,26.59H56.59c-14.69,0-26.59-11.91-26.59-26.59v-5.04c0-14.69,11.91-26.59,26.59-26.59h123.87m0-30H56.59C25.39,0,0,25.39,0,56.59v5.04c0,31.2,25.39,56.59,56.59,56.59h123.87c31.2,0,56.59-25.39,56.59-56.59v-5.04c0-31.2-25.39-56.59-56.59-56.59h0Z"/></g><rect class="e" x="38.77" y="37.49" width="160.53" height="43.23" rx="19.75" ry="19.75"/></g><g><rect class="g" x="108.68" y="56.15" width="23.66" height="17.6" rx="2.07" ry="2.07"/><path class="h" d="M113.2,58.65v-7.51c0-4.03,3.27-7.3,7.3-7.3s7.3,3.27,7.3,7.3v7.97"/></g></g></g></g></svg>