<?xml version="1.0" encoding="utf-8"?>
<!-- Generator: Adobe Illustrator 26.3.1, SVG Export Plug-In . SVG Version: 6.00 Build 0)  -->
<svg version="1.1" id="Layer_1" xmlns="http://www.w3.org/2000/svg" xmlns:xlink="http://www.w3.org/1999/xlink" x="0px" y="0px"
	 viewBox="0 0 235.4 43.2" style="enable-background:new 0 0 235.4 43.2;" xml:space="preserve">
<style type="text/css">
	.st0{fill:#54B5B1;}
	.st1{enable-background:new    ;}
	.st2{fill:#19192D;}
</style>
<g id="a">
</g>
<g id="b">
	<g id="c">
		<g>
			<path class="st0" d="M19.8,0h195.9c10.9,0,19.8,8.8,19.8,19.8v3.7c0,10.9-8.8,19.8-19.8,19.8H19.8C8.8,43.2,0,34.4,0,23.5v-3.7
				C0,8.8,8.8,0,19.8,0z"/>
			<g class="st1">
				<path class="st2" d="M49.1,32c-2.9,0-5.3-1-7.3-2.9c-1.9-1.9-2.9-4.3-2.9-7.2c0-2.9,1-5.3,2.9-7.2c1.9-1.9,4.3-2.9,7.3-2.9
					c1.8,0,3.4,0.4,4.9,1.2c1.5,0.8,2.7,1.9,3.5,3.4l-3.3,1.9c-0.5-0.9-1.2-1.6-2.1-2c-0.9-0.5-1.9-0.7-3-0.7
					c-1.9,0-3.4,0.6-4.6,1.8s-1.7,2.7-1.7,4.6c0,1.9,0.6,3.4,1.7,4.6s2.7,1.8,4.6,1.8c1.1,0,2.1-0.2,3-0.7c0.9-0.5,1.6-1.2,2-2
					l3.3,1.9c-0.8,1.4-2,2.5-3.5,3.4C52.5,31.6,50.9,32,49.1,32z"/>
			</g>
			<g class="st1">
				<path class="st2" d="M78.8,29c-2,2-4.4,2.9-7.2,2.9c-2.8,0-5.2-1-7.2-2.9c-2-2-2.9-4.4-2.9-7.2s1-5.2,2.9-7.2
					c2-2,4.3-2.9,7.2-2.9c2.8,0,5.2,1,7.2,2.9c2,2,2.9,4.4,2.9,7.2S80.8,27.1,78.8,29z M67.2,26.4c1.2,1.2,2.7,1.8,4.5,1.8
					s3.3-0.6,4.5-1.8c1.2-1.2,1.8-2.7,1.8-4.6c0-1.9-0.6-3.4-1.8-4.6c-1.2-1.2-2.7-1.8-4.5-1.8s-3.3,0.6-4.5,1.8s-1.8,2.7-1.8,4.6
					C65.3,23.7,66,25.2,67.2,26.4z"/>
				<path class="st2" d="M106.3,12.1v19.5h-3.8V19L97,28l-0.4,0l-5.5-9v12.6h-3.8V12.1h3.9l5.6,9.2l5.6-9.2H106.3z"/>
				<path class="st2" d="M119.9,12.1c1.9,0,3.4,0.6,4.7,1.9c1.3,1.3,1.9,2.8,1.9,4.6s-0.6,3.4-1.9,4.6s-2.9,1.9-4.7,1.9h-3.4v6.4
					h-3.8V12.1H119.9z M119.9,21.6c0.8,0,1.5-0.3,2-0.8s0.8-1.3,0.8-2.1c0-0.9-0.3-1.6-0.8-2.1c-0.5-0.6-1.2-0.8-2-0.8h-3.4v5.9
					H119.9z"/>
				<path class="st2" d="M135.7,27.9h7.4v3.7h-11.3V12.1h3.8V27.9z"/>
				<path class="st2" d="M151.9,27.9h8.2v3.7h-12V12.1H160v3.7h-8.1v4.1h7.4v3.6h-7.4V27.9z"/>
				<path class="st2" d="M178.5,12.1v3.7h-5.3v15.8h-3.8V15.8h-5.2v-3.7H178.5z"/>
				<path class="st2" d="M187.2,27.9h8.2v3.7h-12V12.1h11.9v3.7h-8.1v4.1h7.4v3.6h-7.4V27.9z"/>
			</g>
		</g>
	</g>
</g>
</svg>
