<?xml version="1.0" encoding="UTF-8"?><svg xmlns="http://www.w3.org/2000/svg" viewBox="0 0 389.91 380.52"><defs><style>.d,.e,.f{stroke:#fff;stroke-miterlimit:10;}.d,.e,.g{fill:none;}.d,.g{stroke-width:3px;}.h{fill:#fff;}.e,.f,.i{opacity:.2;}.f{fill:#19192d;stroke-width:5px;}.g{stroke:#e9a72d;stroke-linecap:round;stroke-linejoin:round;}</style></defs><g id="a"/><g id="b"><g id="c"><g><rect class="f" x="7.2" y="-2.2" width="375.52" height="384.91" rx="17.11" ry="17.11" transform="translate(4.7 385.22) rotate(-90)"/><g class="i"><path class="h" d="M137.45,56.54v34.3h-6.71v-22.25l-9.67,15.91-.79,.03-9.63-15.86v22.16h-6.76V56.54h6.96l9.83,16.2,9.79-16.2h6.99Z"/><path class="h" d="M165.63,87.78c-2.52,2.5-5.59,3.75-9.21,3.75s-6.69-1.25-9.19-3.75c-2.5-2.5-3.75-5.56-3.75-9.19s1.25-6.69,3.75-9.19c2.5-2.5,5.56-3.75,9.19-3.75s6.7,1.25,9.21,3.75c2.52,2.5,3.77,5.56,3.77,9.19s-1.26,6.69-3.77,9.19Zm-13.94-4.34c1.26,1.27,2.83,1.91,4.73,1.91s3.48-.64,4.75-1.91c1.27-1.27,1.91-2.89,1.91-4.85s-.64-3.58-1.91-4.85c-1.27-1.27-2.86-1.91-4.75-1.91s-3.47,.64-4.73,1.91c-1.26,1.27-1.89,2.89-1.89,4.85s.63,3.58,1.89,4.85Z"/><path class="h" d="M188.71,65.66c2.68,0,4.89,.9,6.64,2.69,1.75,1.8,2.62,4.28,2.62,7.45v15.04h-6.32v-14.26c0-1.63-.44-2.88-1.32-3.75-.88-.87-2.06-1.3-3.53-1.3-1.63,0-2.94,.51-3.92,1.52-.98,1.01-1.47,2.53-1.47,4.56v13.23h-6.32v-24.5h6.32v2.74c1.54-2.29,3.97-3.43,7.3-3.43Z"/><path class="h" d="M223.15,56.54h6.32v34.3h-6.32v-2.89c-1.86,2.38-4.51,3.58-7.94,3.58s-6.12-1.25-8.45-3.75c-2.34-2.5-3.5-5.56-3.5-9.19s1.17-6.69,3.5-9.19c2.34-2.5,5.15-3.75,8.45-3.75s6.08,1.19,7.94,3.58v-12.69Zm-11.64,27.02c1.29,1.29,2.92,1.94,4.88,1.94s3.58-.64,4.85-1.94c1.27-1.29,1.91-2.95,1.91-4.97s-.64-3.68-1.91-4.97c-1.27-1.29-2.89-1.94-4.85-1.94s-3.59,.65-4.88,1.94-1.94,2.95-1.94,4.97,.64,3.68,1.94,4.97Z"/><path class="h" d="M255.1,66.34h6.32v24.5h-6.32v-2.89c-1.9,2.38-4.56,3.58-7.99,3.58s-6.07-1.25-8.4-3.75c-2.34-2.5-3.5-5.56-3.5-9.19s1.17-6.69,3.5-9.19c2.33-2.5,5.14-3.75,8.4-3.75,3.43,0,6.09,1.19,7.99,3.58v-2.89Zm-11.66,17.22c1.27,1.29,2.89,1.94,4.85,1.94s3.58-.64,4.88-1.94,1.94-2.95,1.94-4.97-.65-3.68-1.94-4.97c-1.29-1.29-2.92-1.94-4.88-1.94s-3.58,.65-4.85,1.94c-1.27,1.29-1.91,2.95-1.91,4.97s.64,3.68,1.91,4.97Z"/><path class="h" d="M284.35,66.34h6.76l-8.93,24.54c-1.27,3.5-2.96,6.04-5.07,7.63-2.1,1.59-4.72,2.3-7.85,2.13v-5.88c1.7,.03,3.05-.33,4.04-1.08,1-.75,1.79-1.96,2.38-3.63l-10.04-23.72h6.91l6.39,16.47,5.42-16.47Z"/></g><line class="e" x1="9.25" y1="134.59" x2="380.66" y2="134.59"/><g class="i"><g><path class="h" d="M153.92,306.91c-1.32,0-2.45-.31-3.38-.93-.94-.62-1.59-1.47-1.97-2.54l1.62-.93c.55,1.71,1.81,2.57,3.78,2.57,.97,0,1.71-.2,2.22-.6s.77-.93,.77-1.59-.26-1.18-.77-1.52c-.51-.34-1.37-.69-2.56-1.07-.59-.2-1.04-.36-1.35-.46s-.7-.28-1.17-.51c-.46-.24-.81-.48-1.04-.73-.23-.25-.43-.58-.62-.98-.18-.4-.27-.86-.27-1.37,0-1.23,.43-2.2,1.29-2.92,.86-.72,1.91-1.08,3.15-1.08,1.12,0,2.09,.28,2.92,.85s1.45,1.31,1.87,2.24l-1.58,.91c-.61-1.45-1.68-2.18-3.21-2.18-.77,0-1.39,.19-1.86,.57s-.71,.89-.71,1.53,.22,1.09,.67,1.41,1.21,.66,2.3,1.01c.38,.13,.66,.23,.82,.29,.17,.06,.42,.15,.76,.27s.6,.22,.76,.3c.16,.08,.38,.2,.66,.34,.28,.15,.48,.29,.62,.43,.13,.13,.29,.3,.47,.5,.18,.2,.31,.39,.39,.6,.08,.2,.15,.44,.21,.7,.06,.26,.09,.54,.09,.84,0,1.24-.45,2.23-1.35,2.96-.9,.73-2.08,1.1-3.53,1.1Z"/><path class="h" d="M168.33,296.55h1.76v10.1h-1.76v-1.45c-.71,1.14-1.8,1.72-3.27,1.72-1.19,0-2.13-.37-2.85-1.12s-1.07-1.76-1.07-3.04v-6.2h1.76v6.1c0,.82,.22,1.46,.67,1.91s1.06,.68,1.84,.68c.88,0,1.58-.27,2.12-.82,.54-.54,.81-1.38,.81-2.51v-5.35Z"/><path class="h" d="M178.28,296.29c1.18,0,2.13,.37,2.85,1.12,.71,.75,1.07,1.76,1.07,3.04v6.2h-1.76v-6.1c0-.82-.22-1.46-.67-1.91s-1.06-.68-1.84-.68c-.88,0-1.58,.27-2.12,.82-.54,.55-.81,1.38-.81,2.51v5.35h-1.76v-10.1h1.76v1.46c.71-1.14,1.8-1.72,3.27-1.72Z"/><path class="h" d="M190.18,296.29c1.18,0,2.13,.37,2.85,1.12,.71,.75,1.07,1.76,1.07,3.04v6.2h-1.76v-6.1c0-.82-.22-1.46-.67-1.91s-1.06-.68-1.84-.68c-.88,0-1.58,.27-2.12,.82-.54,.55-.81,1.38-.81,2.51v5.35h-1.76v-10.1h1.76v1.46c.71-1.14,1.8-1.72,3.27-1.72Z"/><path class="h" d="M203.88,296.55h1.88l-4.12,10.73c-.43,1.14-1.03,2.02-1.81,2.62-.77,.6-1.67,.87-2.68,.8v-1.64c1.23,.09,2.14-.59,2.72-2.07l.19-.38-4.4-10.06h1.88l3.37,7.74,2.97-7.74Z"/><path class="h" d="M225.19,296.55h1.65l-2.94,10.1h-1.8l-2.41-7.57-2.39,7.57h-1.88l-2.97-10.1h1.84l2.22,7.68,2.38-7.68h1.73l2.38,7.68,2.19-7.68Z"/><path class="h" d="M230.24,294.71c-.34,0-.62-.11-.85-.34s-.34-.5-.34-.83,.11-.6,.34-.84c.23-.24,.51-.35,.85-.35s.6,.12,.83,.35c.23,.24,.34,.51,.34,.84s-.11,.6-.34,.83c-.23,.23-.5,.34-.83,.34Zm-.89,11.94v-10.1h1.76v10.1h-1.76Z"/><path class="h" d="M239.79,298.25h-2.69v5.47c0,.5,.1,.85,.29,1.06,.19,.21,.49,.32,.9,.32s.9,0,1.5-.03v1.58c-1.54,.2-2.66,.08-3.37-.37s-1.07-1.3-1.07-2.55v-5.47h-2v-1.7h2v-2.3l1.76-.53v2.83h2.69v1.7Z"/><path class="h" d="M247.41,296.29c1.18,0,2.13,.37,2.85,1.12,.71,.75,1.07,1.76,1.07,3.04v6.2h-1.76v-6.1c0-.82-.22-1.46-.67-1.91s-1.06-.68-1.84-.68c-.88,0-1.58,.27-2.12,.82-.54,.55-.81,1.38-.81,2.51v5.35h-1.76v-14.14h1.76v5.5c.71-1.14,1.8-1.72,3.27-1.72Z"/><path class="h" d="M154.99,320.16c1.18,0,2.13,.37,2.85,1.12,.71,.75,1.07,1.76,1.07,3.04v6.2h-1.76v-6.1c0-.82-.22-1.46-.67-1.91s-1.06-.68-1.84-.68c-.88,0-1.58,.27-2.12,.82-.54,.55-.81,1.38-.81,2.51v5.35h-1.76v-14.14h1.76v5.5c.71-1.14,1.8-1.72,3.27-1.72Z"/><path class="h" d="M162.75,318.58c-.34,0-.62-.11-.85-.34s-.34-.5-.34-.83,.11-.6,.34-.84c.23-.24,.51-.35,.85-.35s.6,.12,.83,.35c.23,.24,.34,.51,.34,.84s-.11,.6-.34,.83c-.23,.23-.5,.34-.83,.34Zm-.89,11.94v-10.1h1.76v10.1h-1.76Z"/><path class="h" d="M175.19,320.42h1.74v9.68c0,1.49-.5,2.66-1.52,3.48-1.01,.83-2.22,1.24-3.64,1.24-1.13,0-2.11-.21-2.93-.64-.82-.42-1.44-1.03-1.86-1.83l1.54-.87c.55,1.13,1.65,1.7,3.29,1.7,1.05,0,1.88-.28,2.47-.83,.6-.55,.9-1.31,.9-2.26v-1.43c-.89,1.35-2.16,2.02-3.8,2.02-1.44,0-2.66-.51-3.66-1.54-1-1.02-1.5-2.27-1.5-3.74s.5-2.71,1.5-3.73c1-1.02,2.21-1.53,3.66-1.53,1.66,0,2.92,.67,3.8,2v-1.74Zm-6.16,7.56c.69,.69,1.54,1.03,2.57,1.03s1.88-.34,2.57-1.03c.69-.69,1.03-1.54,1.03-2.57s-.34-1.86-1.03-2.55c-.69-.69-1.54-1.03-2.57-1.03s-1.88,.34-2.57,1.03c-.69,.69-1.03,1.54-1.03,2.55s.34,1.88,1.03,2.57Z"/><path class="h" d="M185.13,320.16c1.18,0,2.13,.37,2.85,1.12,.71,.75,1.07,1.76,1.07,3.04v6.2h-1.76v-6.1c0-.82-.22-1.46-.67-1.91s-1.06-.68-1.84-.68c-.88,0-1.58,.27-2.12,.82-.54,.55-.81,1.38-.81,2.51v5.35h-1.76v-14.14h1.76v5.5c.71-1.14,1.8-1.72,3.27-1.72Z"/><path class="h" d="M209.45,320.42h1.65l-2.94,10.1h-1.8l-2.41-7.57-2.39,7.57h-1.88l-2.97-10.1h1.84l2.22,7.68,2.38-7.68h1.73l2.38,7.68,2.19-7.68Z"/><path class="h" d="M214.5,318.58c-.34,0-.62-.11-.85-.34s-.34-.5-.34-.83,.11-.6,.34-.84c.23-.24,.51-.35,.85-.35s.6,.12,.83,.35c.23,.24,.34,.51,.34,.84s-.11,.6-.34,.83c-.23,.23-.5,.34-.83,.34Zm-.89,11.94v-10.1h1.76v10.1h-1.76Z"/><path class="h" d="M223.59,320.16c1.18,0,2.13,.37,2.85,1.12,.71,.75,1.07,1.76,1.07,3.04v6.2h-1.76v-6.1c0-.82-.22-1.46-.67-1.91s-1.06-.68-1.84-.68c-.88,0-1.58,.27-2.12,.82-.54,.55-.81,1.38-.81,2.51v5.35h-1.76v-10.1h1.76v1.46c.71-1.14,1.8-1.72,3.27-1.72Z"/><path class="h" d="M238.82,316.38h1.76v14.14h-1.76v-1.74c-.88,1.33-2.15,2-3.82,2-1.41,0-2.62-.52-3.62-1.55-1-1.03-1.5-2.29-1.5-3.77s.5-2.74,1.5-3.77c1-1.03,2.2-1.55,3.62-1.55,1.67,0,2.94,.67,3.82,2v-5.78Zm-3.6,12.71c1.02,0,1.88-.35,2.57-1.04,.69-.69,1.03-1.55,1.03-2.58s-.34-1.88-1.03-2.58c-.69-.69-1.54-1.04-2.57-1.04s-1.86,.35-2.54,1.04c-.69,.69-1.03,1.55-1.03,2.58s.34,1.88,1.03,2.58,1.54,1.04,2.54,1.04Z"/><path class="h" d="M245.25,323.12c0,.38,.2,.69,.6,.92,.4,.23,.87,.43,1.42,.59s1.1,.32,1.66,.49c.56,.16,1.03,.47,1.41,.92s.58,1.02,.58,1.73c0,.92-.35,1.65-1.06,2.2s-1.61,.83-2.72,.83c-.98,0-1.83-.22-2.53-.65s-1.2-1-1.49-1.72l1.51-.87c.16,.49,.46,.87,.91,1.15,.44,.28,.98,.42,1.6,.42,.58,0,1.06-.11,1.43-.33s.57-.57,.57-1.04c0-.39-.2-.7-.59-.94-.39-.24-.86-.44-1.41-.6-.55-.17-1.1-.33-1.66-.5-.55-.17-1.03-.47-1.42-.9s-.59-.98-.59-1.66c0-.88,.34-1.6,1.02-2.16,.68-.57,1.53-.85,2.55-.85,.82,0,1.55,.19,2.19,.56,.64,.37,1.12,.89,1.44,1.55l-1.47,.83c-.36-.86-1.08-1.29-2.16-1.29-.5,0-.92,.12-1.27,.35s-.53,.56-.53,.98Z"/></g></g><g class="i"><g><path class="d" d="M243.43,208.26c5.9,0,10.69,4.78,10.69,10.69s-4.78,10.69-10.69,10.69h-63"/><path class="d" d="M268.58,218.95c5.9,0,10.69,4.78,10.69,10.69s-4.78,10.69-9.15,10.69h-89.68"/><path class="d" d="M262.17,272.4c5.9,0,10.69-4.78,10.69-10.69s-4.78-10.69-10.69-10.69h-81.73"/></g><g><path class="g" d="M159.09,248.24c-8.16-6.65-13.38-16.79-13.38-28.14,0-20.04,16.25-36.29,36.29-36.29,16.9,0,31.1,11.55,35.14,27.18"/><line class="g" x1="182" y1="156.41" x2="182" y2="173.27"/><line class="g" x1="150.16" y1="164.95" x2="158.59" y2="179.54"/><line class="g" x1="126.85" y1="188.25" x2="141.45" y2="196.68"/><line class="g" x1="118.32" y1="220.1" x2="135.18" y2="220.1"/><line class="g" x1="126.85" y1="251.94" x2="141.45" y2="243.51"/><line class="g" x1="237.15" y1="188.25" x2="222.55" y2="196.68"/><line class="g" x1="213.84" y1="164.95" x2="205.41" y2="179.54"/></g></g></g></g></g></svg>