<?xml version="1.0" encoding="UTF-8"?><svg xmlns="http://www.w3.org/2000/svg" viewBox="0 0 389.91 380.52"><defs><style>.d{fill:#54b5b1;stroke-width:5px;}.d,.e{stroke-miterlimit:10;}.d,.e,.f{stroke:#fff;}.g{fill:#fff;}.e,.f{fill:none;}.f{stroke-linecap:round;stroke-linejoin:round;stroke-width:3px;}</style></defs><g id="a"/><g id="b"><g id="c"><g><rect class="d" x="7.2" y="-2.2" width="375.52" height="384.91" rx="17.11" ry="17.11" transform="translate(4.7 385.22) rotate(-90)"/><g><path class="g" d="M125.13,56.54v6.47h-9.26v27.83h-6.76v-27.83h-9.21v-6.47h25.23Z"/><path class="g" d="M142.08,66.34h6.32v24.5h-6.32v-2.74c-1.54,2.29-3.97,3.43-7.3,3.43-2.68,0-4.89-.9-6.64-2.69-1.75-1.8-2.62-4.28-2.62-7.45v-15.04h6.32v14.26c0,1.63,.44,2.88,1.32,3.75s2.06,1.3,3.53,1.3c1.63,0,2.94-.51,3.92-1.52s1.47-2.53,1.47-4.56v-13.23Z"/><path class="g" d="M160.75,81.19c.85,3.07,3.15,4.61,6.91,4.61,2.42,0,4.25-.82,5.49-2.45l5.1,2.94c-2.42,3.5-5.98,5.24-10.68,5.24-4.05,0-7.3-1.22-9.75-3.67s-3.67-5.54-3.67-9.26,1.21-6.77,3.63-9.24c2.42-2.47,5.52-3.7,9.31-3.7,3.59,0,6.56,1.24,8.89,3.72,2.34,2.48,3.5,5.55,3.5,9.21,0,.82-.08,1.68-.25,2.6h-18.47Zm-.1-4.9h12.5c-.36-1.67-1.1-2.91-2.23-3.72-1.13-.82-2.41-1.22-3.85-1.22-1.7,0-3.1,.43-4.21,1.3-1.11,.87-1.85,2.08-2.21,3.65Z"/><path class="g" d="M189.95,73.3c0,.65,.43,1.18,1.3,1.59,.87,.41,1.92,.77,3.16,1.08,1.24,.31,2.48,.7,3.72,1.18,1.24,.47,2.29,1.27,3.16,2.38,.87,1.11,1.3,2.5,1.3,4.17,0,2.52-.94,4.45-2.82,5.81s-4.22,2.03-7.03,2.03c-5.03,0-8.46-1.94-10.29-5.83l5.49-3.09c.72,2.12,2.32,3.19,4.8,3.19,2.25,0,3.38-.7,3.38-2.11,0-.65-.43-1.18-1.3-1.59-.87-.41-1.92-.78-3.16-1.1-1.24-.33-2.48-.74-3.72-1.23-1.24-.49-2.3-1.27-3.16-2.33-.87-1.06-1.3-2.39-1.3-3.99,0-2.42,.89-4.32,2.67-5.71,1.78-1.39,3.99-2.08,6.64-2.08,1.99,0,3.81,.45,5.44,1.35,1.63,.9,2.92,2.18,3.87,3.85l-5.39,2.94c-.78-1.67-2.09-2.5-3.92-2.5-.82,0-1.49,.18-2.03,.54-.54,.36-.81,.85-.81,1.47Z"/><path class="g" d="M226.12,56.54h6.32v34.3h-6.32v-2.89c-1.86,2.38-4.51,3.58-7.94,3.58s-6.12-1.25-8.45-3.75c-2.34-2.5-3.5-5.56-3.5-9.19s1.17-6.69,3.5-9.19c2.33-2.5,5.15-3.75,8.45-3.75s6.08,1.19,7.94,3.58v-12.69Zm-11.64,27.02c1.29,1.29,2.92,1.94,4.88,1.94s3.58-.64,4.85-1.94c1.27-1.29,1.91-2.95,1.91-4.97s-.64-3.68-1.91-4.97c-1.27-1.29-2.89-1.94-4.85-1.94s-3.59,.65-4.88,1.94-1.94,2.95-1.94,4.97,.64,3.68,1.94,4.97Z"/><path class="g" d="M258.06,66.34h6.32v24.5h-6.32v-2.89c-1.89,2.38-4.56,3.58-7.99,3.58s-6.07-1.25-8.4-3.75c-2.34-2.5-3.5-5.56-3.5-9.19s1.17-6.69,3.5-9.19c2.33-2.5,5.14-3.75,8.4-3.75,3.43,0,6.09,1.19,7.99,3.58v-2.89Zm-11.66,17.22c1.27,1.29,2.89,1.94,4.85,1.94s3.58-.64,4.88-1.94,1.94-2.95,1.94-4.97-.65-3.68-1.94-4.97c-1.29-1.29-2.92-1.94-4.88-1.94s-3.58,.65-4.85,1.94c-1.27,1.29-1.91,2.95-1.91,4.97s.64,3.68,1.91,4.97Z"/><path class="g" d="M287.32,66.34h6.76l-8.93,24.54c-1.27,3.5-2.96,6.04-5.07,7.63-2.1,1.59-4.72,2.3-7.85,2.13v-5.88c1.7,.03,3.05-.33,4.04-1.08,1-.75,1.79-1.96,2.38-3.63l-10.04-23.72h6.91l6.39,16.47,5.42-16.47Z"/></g><line class="e" x1="11.01" y1="134.59" x2="382.42" y2="134.59"/><g><path class="g" d="M152.18,302.79h2.77v14.14h-2.77v-5.86h-5.25v5.86h-2.79v-14.14h2.79v5.62h5.25v-5.62Z"/><path class="g" d="M160.16,312.95c.35,1.27,1.3,1.9,2.85,1.9,1,0,1.75-.34,2.26-1.01l2.1,1.21c-1,1.44-2.46,2.16-4.4,2.16-1.67,0-3.01-.51-4.02-1.52-1.01-1.01-1.51-2.28-1.51-3.82s.5-2.79,1.5-3.81c1-1.02,2.28-1.52,3.84-1.52,1.48,0,2.7,.51,3.67,1.54s1.44,2.29,1.44,3.8c0,.34-.03,.69-.1,1.07h-7.62Zm-.04-2.02h5.15c-.15-.69-.46-1.2-.92-1.54-.46-.34-.99-.5-1.59-.5-.7,0-1.28,.18-1.74,.54-.46,.36-.76,.86-.91,1.5Z"/><path class="g" d="M177.79,306.83h2.61v10.1h-2.61v-1.19c-.78,.98-1.88,1.47-3.29,1.47s-2.5-.52-3.46-1.55-1.44-2.29-1.44-3.79,.48-2.76,1.44-3.79,2.12-1.54,3.46-1.54c1.41,0,2.51,.49,3.29,1.47v-1.19Zm-4.81,7.1c.52,.53,1.19,.8,2,.8s1.48-.27,2.01-.8,.8-1.21,.8-2.05-.27-1.52-.8-2.05c-.53-.53-1.2-.8-2.01-.8s-1.47,.27-2,.8c-.53,.53-.79,1.22-.79,2.05s.26,1.52,.79,2.05Z"/><path class="g" d="M189.91,306.83h2.87l-3.84,10.1h-2.97l-3.84-10.1h2.87l2.45,7.07,2.46-7.07Z"/><path class="g" d="M201.12,306.83h2.79l-3.68,10.12c-.53,1.44-1.22,2.49-2.09,3.14-.87,.65-1.95,.95-3.24,.88v-2.42c.7,.01,1.25-.13,1.67-.44,.41-.31,.74-.81,.98-1.5l-4.14-9.78h2.85l2.63,6.79,2.23-6.79Z"/><path class="g" d="M216.64,305.01c-1.43-.11-2.14,.46-2.14,1.72v.1h2.14v2.5h-2.14v7.6h-2.61v-7.6h-1.45v-2.5h1.45v-.1c0-1.43,.4-2.51,1.19-3.25,.79-.74,1.98-1.06,3.56-.97v2.5Z"/><path class="g" d="M226.55,315.66c-1.04,1.03-2.3,1.55-3.8,1.55s-2.76-.52-3.79-1.55-1.55-2.29-1.55-3.79,.52-2.76,1.55-3.79,2.29-1.54,3.79-1.54,2.76,.51,3.8,1.54,1.56,2.29,1.56,3.79-.52,2.76-1.56,3.79Zm-5.75-1.79c.52,.52,1.17,.79,1.95,.79s1.43-.26,1.96-.79c.53-.53,.79-1.19,.79-2s-.26-1.47-.79-2-1.18-.79-1.96-.79-1.43,.26-1.95,.79-.78,1.19-.78,2,.26,1.47,.78,2Z"/><path class="g" d="M238.19,306.83h2.54v9.62c0,1.56-.51,2.75-1.54,3.58s-2.27,1.23-3.73,1.23c-1.09,0-2.05-.21-2.88-.63-.83-.42-1.46-1.03-1.91-1.84l2.22-1.27c.51,.94,1.39,1.41,2.65,1.41,.82,0,1.47-.22,1.94-.65,.47-.43,.71-1.04,.71-1.84v-1.09c-.77,1.02-1.85,1.54-3.23,1.54s-2.62-.5-3.59-1.5c-.96-1-1.44-2.23-1.44-3.67s.49-2.65,1.46-3.66,2.16-1.51,3.58-1.51,2.46,.51,3.23,1.54v-1.25Zm-4.86,6.88c.53,.52,1.21,.78,2.03,.78s1.5-.26,2.03-.78c.53-.52,.8-1.18,.8-1.99s-.27-1.45-.8-1.97c-.53-.52-1.21-.78-2.03-.78s-1.5,.26-2.03,.78c-.53,.52-.8,1.18-.8,1.97s.27,1.47,.8,1.99Z"/></g><g><path class="f" d="M223.58,244.81h25.01c8.12,0,14.7-6.58,14.7-14.7,0-5.94-3.54-11.05-8.61-13.37,.58-1.82,.89-3.76,.89-5.77,0-10.57-8.57-19.14-19.14-19.14-3.03,0-5.89,.72-8.44,1.98-3.55-13.21-15.6-22.94-29.93-22.94-15.78,0-28.79,11.79-30.74,27.03-2.46-1.41-5.3-2.23-8.34-2.23-9.28,0-16.81,7.53-16.81,16.81"/><line class="f" x1="202.72" y1="228.44" x2="128.02" y2="228.44"/><line class="f" x1="230.28" y1="261.17" x2="155.58" y2="261.17"/><line class="f" x1="205.67" y1="244.81" x2="107" y2="244.81"/></g></g></g></g></svg>