<?xml version="1.0" encoding="UTF-8"?><svg xmlns="http://www.w3.org/2000/svg" viewBox="0 0 389.91 380.52"><defs><style>.d,.e,.f{stroke:#fff;stroke-miterlimit:10;}.d,.e,.g{fill:none;}.d,.g{stroke-width:3px;}.h{fill:#fff;}.e,.f,.i{opacity:.2;}.f{fill:#19192d;stroke-width:5px;}.g{stroke:#e9a72d;stroke-linecap:round;stroke-linejoin:round;}</style></defs><g id="a"/><g id="b"><g id="c"><g><g class="i"><path class="h" d="M61.66,90.84l-9.08-34.3h7.07l6.6,25.43,7.15-25.43h5.86l7.18,25.37,6.51-25.37h6.51l-9.01,34.3h-7.69l-6.5-22.76-6.45,22.76h-8.15Z"/><path class="h" d="M107.31,81.19c.85,3.07,3.15,4.61,6.91,4.61,2.42,0,4.25-.82,5.49-2.45l5.1,2.94c-2.42,3.5-5.98,5.24-10.68,5.24-4.05,0-7.3-1.22-9.75-3.67s-3.67-5.54-3.67-9.26,1.21-6.77,3.63-9.24c2.42-2.47,5.52-3.7,9.31-3.7,3.59,0,6.56,1.24,8.89,3.72,2.33,2.48,3.5,5.55,3.5,9.21,0,.82-.08,1.68-.25,2.6h-18.47Zm-.1-4.9h12.5c-.36-1.67-1.1-2.91-2.23-3.72-1.13-.82-2.41-1.22-3.85-1.22-1.7,0-3.1,.43-4.21,1.3-1.11,.87-1.85,2.08-2.21,3.65Z"/><path class="h" d="M150.04,56.54h6.32v34.3h-6.32v-2.89c-1.86,2.38-4.51,3.58-7.94,3.58s-6.12-1.25-8.45-3.75-3.5-5.56-3.5-9.19,1.17-6.69,3.5-9.19,5.15-3.75,8.45-3.75,6.08,1.19,7.94,3.58v-12.69Zm-11.64,27.02c1.29,1.29,2.92,1.94,4.88,1.94s3.58-.64,4.85-1.94c1.27-1.29,1.91-2.95,1.91-4.97s-.64-3.68-1.91-4.97c-1.27-1.29-2.89-1.94-4.85-1.94s-3.58,.65-4.88,1.94-1.94,2.95-1.94,4.97,.64,3.68,1.94,4.97Z"/><path class="h" d="M176.99,65.66c2.68,0,4.89,.9,6.64,2.69,1.75,1.8,2.62,4.28,2.62,7.45v15.04h-6.32v-14.26c0-1.63-.44-2.88-1.32-3.75-.88-.87-2.06-1.3-3.53-1.3-1.63,0-2.94,.51-3.92,1.52-.98,1.01-1.47,2.53-1.47,4.56v13.23h-6.32v-24.5h6.32v2.74c1.54-2.29,3.97-3.43,7.3-3.43Z"/><path class="h" d="M198.2,81.19c.85,3.07,3.15,4.61,6.91,4.61,2.42,0,4.25-.82,5.49-2.45l5.1,2.94c-2.42,3.5-5.98,5.24-10.68,5.24-4.05,0-7.3-1.22-9.75-3.67s-3.67-5.54-3.67-9.26,1.21-6.77,3.63-9.24c2.42-2.47,5.52-3.7,9.31-3.7,3.59,0,6.56,1.24,8.89,3.72s3.5,5.55,3.5,9.21c0,.82-.08,1.68-.25,2.6h-18.47Zm-.1-4.9h12.5c-.36-1.67-1.1-2.91-2.23-3.72-1.13-.82-2.41-1.22-3.85-1.22-1.7,0-3.1,.43-4.21,1.3s-1.85,2.08-2.21,3.65Z"/><path class="h" d="M227.41,73.3c0,.65,.43,1.18,1.3,1.59,.87,.41,1.92,.77,3.16,1.08,1.24,.31,2.48,.7,3.72,1.18s2.29,1.27,3.16,2.38c.87,1.11,1.3,2.5,1.3,4.17,0,2.52-.94,4.45-2.82,5.81s-4.22,2.03-7.03,2.03c-5.03,0-8.46-1.94-10.29-5.83l5.49-3.09c.72,2.12,2.32,3.19,4.8,3.19,2.25,0,3.38-.7,3.38-2.11,0-.65-.43-1.18-1.3-1.59-.87-.41-1.92-.78-3.16-1.1s-2.48-.74-3.72-1.23c-1.24-.49-2.3-1.27-3.16-2.33-.87-1.06-1.3-2.39-1.3-3.99,0-2.42,.89-4.32,2.67-5.71,1.78-1.39,3.99-2.08,6.64-2.08,1.99,0,3.81,.45,5.44,1.35,1.63,.9,2.92,2.18,3.87,3.85l-5.39,2.94c-.78-1.67-2.09-2.5-3.92-2.5-.82,0-1.49,.18-2.03,.54s-.81,.85-.81,1.47Z"/><path class="h" d="M263.57,56.54h6.32v34.3h-6.32v-2.89c-1.86,2.38-4.51,3.58-7.94,3.58s-6.12-1.25-8.45-3.75c-2.34-2.5-3.5-5.56-3.5-9.19s1.17-6.69,3.5-9.19c2.33-2.5,5.15-3.75,8.45-3.75s6.08,1.19,7.94,3.58v-12.69Zm-11.64,27.02c1.29,1.29,2.92,1.94,4.88,1.94s3.58-.64,4.85-1.94c1.27-1.29,1.91-2.95,1.91-4.97s-.64-3.68-1.91-4.97c-1.27-1.29-2.89-1.94-4.85-1.94s-3.59,.65-4.88,1.94-1.94,2.95-1.94,4.97,.64,3.68,1.94,4.97Z"/><path class="h" d="M295.52,66.34h6.32v24.5h-6.32v-2.89c-1.9,2.38-4.56,3.58-7.99,3.58s-6.07-1.25-8.4-3.75c-2.34-2.5-3.5-5.56-3.5-9.19s1.17-6.69,3.5-9.19c2.33-2.5,5.14-3.75,8.4-3.75,3.43,0,6.09,1.19,7.99,3.58v-2.89Zm-11.66,17.22c1.27,1.29,2.89,1.94,4.85,1.94s3.58-.64,4.88-1.94,1.94-2.95,1.94-4.97-.65-3.68-1.94-4.97c-1.29-1.29-2.92-1.94-4.88-1.94s-3.58,.65-4.85,1.94c-1.27,1.29-1.91,2.95-1.91,4.97s.64,3.68,1.91,4.97Z"/><path class="h" d="M324.77,66.34h6.76l-8.93,24.54c-1.27,3.5-2.96,6.04-5.07,7.63-2.1,1.59-4.72,2.3-7.85,2.13v-5.88c1.7,.03,3.05-.33,4.04-1.08,1-.75,1.79-1.96,2.38-3.63l-10.04-23.72h6.91l6.39,16.47,5.42-16.47Z"/></g><g class="i"><g><path class="g" d="M145.41,240.15c-8.16-6.65-13.38-16.79-13.38-28.14,0-20.04,16.25-36.29,36.29-36.29,16.9,0,31.1,11.55,35.14,27.18"/><path class="d" d="M264.66,248.42c.58-1.82,.89-3.76,.89-5.77,0-10.57-8.57-19.14-19.14-19.14-3.03,0-5.89,.72-8.44,1.98-3.55-13.21-15.6-22.94-29.93-22.94-15.78,0-28.79,11.79-30.74,27.03-2.46-1.41-5.3-2.23-8.34-2.23-9.28,0-16.81,7.53-16.81,16.81,0,1,.1,1.97,.27,2.92h-1.25c-8.12,0-14.7,6.58-14.7,14.7s6.58,14.7,14.7,14.7h107.41c8.12,0,14.7-6.58,14.7-14.7,0-5.94-3.54-11.05-8.61-13.37Z"/><line class="g" x1="168.32" y1="148.32" x2="168.32" y2="165.18"/><line class="g" x1="136.48" y1="156.86" x2="144.91" y2="171.45"/><line class="g" x1="113.17" y1="180.16" x2="127.77" y2="188.59"/><line class="g" x1="104.64" y1="212" x2="121.5" y2="212"/><line class="g" x1="113.17" y1="243.84" x2="127.77" y2="235.42"/><line class="g" x1="223.47" y1="180.16" x2="208.87" y2="188.59"/><line class="g" x1="200.16" y1="156.86" x2="191.74" y2="171.45"/></g></g><line class="e" x1="9.25" y1="134.59" x2="380.66" y2="134.59"/><rect class="f" x="7.2" y="-2.2" width="375.52" height="384.91" rx="17.11" ry="17.11" transform="translate(4.7 385.22) rotate(-90)"/><g class="i"><g><path class="h" d="M124.27,315.22h6.1v1.78h-7.98v-14.14h1.88v12.36Z"/><path class="h" d="M133.46,305.06c-.34,0-.62-.11-.85-.34s-.34-.5-.34-.83,.11-.6,.34-.84c.23-.24,.51-.35,.85-.35s.6,.12,.83,.35c.23,.24,.34,.51,.34,.84s-.11,.6-.34,.83c-.23,.23-.5,.34-.83,.34Zm-.89,11.94v-10.1h1.76v10.1h-1.76Z"/><path class="h" d="M145.9,306.9h1.74v9.68c0,1.49-.5,2.66-1.52,3.48-1.01,.83-2.22,1.24-3.64,1.24-1.13,0-2.11-.21-2.93-.64-.82-.42-1.44-1.03-1.86-1.83l1.54-.87c.55,1.13,1.65,1.7,3.29,1.7,1.05,0,1.88-.28,2.47-.83,.6-.55,.9-1.31,.9-2.26v-1.43c-.89,1.35-2.16,2.02-3.8,2.02-1.44,0-2.66-.51-3.66-1.54-1-1.02-1.5-2.27-1.5-3.74s.5-2.71,1.5-3.73c1-1.02,2.21-1.53,3.66-1.53,1.66,0,2.92,.67,3.8,2v-1.74Zm-6.16,7.56c.69,.69,1.54,1.03,2.57,1.03s1.88-.34,2.57-1.03c.69-.69,1.03-1.54,1.03-2.57s-.34-1.86-1.03-2.55c-.69-.69-1.54-1.03-2.57-1.03s-1.88,.34-2.57,1.03c-.69,.69-1.03,1.54-1.03,2.55s.34,1.88,1.03,2.57Z"/><path class="h" d="M155.84,306.63c1.18,0,2.13,.37,2.85,1.12,.71,.75,1.07,1.76,1.07,3.04v6.2h-1.76v-6.1c0-.82-.22-1.46-.67-1.91s-1.06-.68-1.84-.68c-.88,0-1.58,.27-2.12,.82-.54,.55-.81,1.38-.81,2.51v5.35h-1.76v-14.14h1.76v5.5c.71-1.14,1.8-1.72,3.27-1.72Z"/><path class="h" d="M168.21,308.59h-2.69v5.47c0,.5,.1,.85,.29,1.06s.5,.32,.9,.32c.4,0,.9,0,1.49-.03v1.58c-1.54,.2-2.66,.08-3.37-.37s-1.07-1.3-1.07-2.55v-5.47h-2v-1.7h2v-2.3l1.76-.53v2.83h2.69v1.7Z"/><path class="h" d="M181.15,317.26c-1.52,0-2.79-.51-3.8-1.53-1.01-1.02-1.52-2.28-1.52-3.79s.5-2.77,1.52-3.79c1.01-1.02,2.28-1.53,3.8-1.53,1,0,1.89,.24,2.69,.72,.79,.48,1.39,1.12,1.78,1.93l-1.47,.85c-.26-.54-.65-.97-1.18-1.29-.53-.32-1.13-.48-1.81-.48-1.01,0-1.86,.34-2.54,1.03-.68,.69-1.02,1.54-1.02,2.57s.34,1.86,1.02,2.54c.68,.69,1.52,1.03,2.54,1.03,.67,0,1.28-.16,1.82-.47,.54-.32,.95-.74,1.23-1.28l1.5,.87c-.43,.79-1.05,1.43-1.86,1.91-.81,.48-1.7,.72-2.69,.72Z"/><path class="h" d="M187.94,317v-14.75h1.76v14.75h-1.76Z"/><path class="h" d="M201.42,315.72c-1.04,1.02-2.3,1.54-3.78,1.54s-2.74-.51-3.77-1.54-1.55-2.28-1.55-3.78,.52-2.75,1.55-3.78c1.03-1.02,2.29-1.54,3.77-1.54s2.74,.51,3.78,1.54c1.04,1.02,1.55,2.28,1.55,3.78s-.52,2.75-1.55,3.78Zm-3.78-.18c1.01,0,1.86-.34,2.54-1.03,.69-.69,1.03-1.54,1.03-2.57s-.34-1.88-1.03-2.57c-.69-.69-1.54-1.03-2.54-1.03s-1.84,.34-2.53,1.03c-.69,.69-1.03,1.54-1.03,2.57s.34,1.88,1.03,2.57c.69,.69,1.53,1.03,2.53,1.03Z"/><path class="h" d="M212.52,306.9h1.76v10.1h-1.76v-1.45c-.71,1.14-1.8,1.72-3.27,1.72-1.18,0-2.13-.37-2.85-1.12s-1.07-1.76-1.07-3.04v-6.2h1.76v6.1c0,.82,.22,1.46,.67,1.91s1.06,.68,1.84,.68c.88,0,1.58-.27,2.12-.82,.54-.54,.81-1.38,.81-2.51v-5.35Z"/><path class="h" d="M225.82,302.86h1.76v14.14h-1.76v-1.74c-.88,1.33-2.15,2-3.82,2-1.41,0-2.62-.52-3.62-1.55-1-1.03-1.5-2.29-1.5-3.77s.5-2.74,1.5-3.77c1-1.03,2.2-1.55,3.62-1.55,1.67,0,2.94,.67,3.82,2v-5.78Zm-3.6,12.71c1.02,0,1.88-.35,2.57-1.04,.69-.69,1.03-1.55,1.03-2.58s-.34-1.88-1.03-2.58c-.69-.69-1.54-1.04-2.57-1.04s-1.86,.35-2.54,1.04c-.69,.69-1.03,1.55-1.03,2.58s.34,1.88,1.03,2.58,1.54,1.04,2.54,1.04Z"/><path class="h" d="M248.2,306.9h1.65l-2.94,10.1h-1.8l-2.41-7.57-2.39,7.57h-1.88l-2.97-10.1h1.84l2.22,7.68,2.38-7.68h1.73l2.38,7.68,2.19-7.68Z"/><path class="h" d="M253.25,305.06c-.34,0-.62-.11-.85-.34-.23-.23-.34-.5-.34-.83s.11-.6,.34-.84c.23-.24,.51-.35,.85-.35s.6,.12,.83,.35c.23,.24,.34,.51,.34,.84s-.11,.6-.34,.83-.5,.34-.83,.34Zm-.89,11.94v-10.1h1.76v10.1h-1.76Z"/><path class="h" d="M262.8,308.59h-2.69v5.47c0,.5,.1,.85,.29,1.06s.5,.32,.9,.32c.4,0,.9,0,1.49-.03v1.58c-1.54,.2-2.66,.08-3.37-.37s-1.07-1.3-1.07-2.55v-5.47h-2v-1.7h2v-2.3l1.76-.53v2.83h2.69v1.7Z"/><path class="h" d="M270.42,306.63c1.18,0,2.13,.37,2.85,1.12,.71,.75,1.07,1.76,1.07,3.04v6.2h-1.76v-6.1c0-.82-.22-1.46-.67-1.91s-1.06-.68-1.84-.68c-.88,0-1.58,.27-2.12,.82-.54,.55-.81,1.38-.81,2.51v5.35h-1.76v-14.14h1.76v5.5c.71-1.14,1.8-1.72,3.27-1.72Z"/><path class="h" d="M131.75,330.77h1.76v10.1h-1.76v-1.74c-.88,1.33-2.15,2-3.82,2-1.41,0-2.62-.52-3.62-1.55-1-1.03-1.5-2.29-1.5-3.77s.5-2.74,1.5-3.77c1-1.03,2.2-1.55,3.62-1.55,1.67,0,2.94,.67,3.82,2v-1.74Zm-3.6,8.67c1.02,0,1.88-.35,2.57-1.04,.69-.69,1.03-1.55,1.03-2.58s-.34-1.88-1.03-2.58c-.69-.69-1.54-1.04-2.57-1.04s-1.86,.35-2.55,1.04c-.69,.69-1.03,1.55-1.03,2.58s.34,1.88,1.03,2.58c.69,.69,1.54,1.04,2.55,1.04Z"/><path class="h" d="M150.62,330.77h1.74v9.68c0,1.49-.5,2.66-1.52,3.48-1.01,.83-2.22,1.24-3.64,1.24-1.13,0-2.11-.21-2.93-.64-.82-.42-1.44-1.03-1.86-1.83l1.54-.87c.55,1.13,1.65,1.7,3.29,1.7,1.05,0,1.88-.28,2.47-.83,.6-.55,.9-1.31,.9-2.26v-1.43c-.89,1.35-2.16,2.02-3.8,2.02-1.44,0-2.66-.51-3.66-1.54-1-1.02-1.5-2.27-1.5-3.74s.5-2.71,1.5-3.73c1-1.02,2.21-1.53,3.66-1.53,1.66,0,2.92,.67,3.8,2v-1.74Zm-6.16,7.56c.69,.69,1.54,1.03,2.57,1.03s1.88-.34,2.57-1.03c.69-.69,1.03-1.54,1.03-2.57s-.34-1.86-1.03-2.55c-.69-.69-1.54-1.03-2.57-1.03s-1.88,.34-2.57,1.03c-.69,.69-1.03,1.54-1.03,2.55s.34,1.88,1.03,2.57Z"/><path class="h" d="M156.76,336.63c.17,.9,.59,1.6,1.24,2.1,.65,.5,1.46,.75,2.41,.75,1.33,0,2.3-.49,2.91-1.47l1.49,.85c-.98,1.52-2.46,2.28-4.44,2.28-1.6,0-2.91-.5-3.91-1.5-1-1-1.5-2.27-1.5-3.81s.49-2.79,1.47-3.8c.98-1.01,2.25-1.52,3.82-1.52,1.48,0,2.69,.52,3.63,1.57,.94,1.04,1.4,2.3,1.4,3.77,0,.26-.02,.52-.06,.79h-8.46Zm3.49-4.46c-.94,0-1.72,.27-2.34,.8-.62,.53-1,1.24-1.15,2.13h6.75c-.15-.96-.53-1.68-1.13-2.18-.61-.5-1.31-.75-2.12-.75Z"/><path class="h" d="M172.84,330.51c1.18,0,2.13,.37,2.85,1.12,.71,.75,1.07,1.76,1.07,3.04v6.2h-1.76v-6.1c0-.82-.22-1.46-.67-1.91s-1.06-.68-1.84-.68c-.88,0-1.58,.27-2.12,.82-.54,.55-.81,1.38-.81,2.51v5.35h-1.76v-10.1h1.76v1.46c.71-1.14,1.8-1.72,3.27-1.72Z"/><path class="h" d="M185.2,332.47h-2.69v5.47c0,.5,.1,.85,.29,1.06,.19,.21,.49,.32,.9,.32s.9,0,1.5-.03v1.58c-1.54,.2-2.66,.08-3.37-.37s-1.07-1.3-1.07-2.55v-5.47h-2v-1.7h2v-2.3l1.76-.53v2.83h2.69v1.7Z"/><path class="h" d="M187.79,340.87v-14.75h1.76v14.75h-1.76Z"/><path class="h" d="M193.97,336.63c.17,.9,.59,1.6,1.24,2.1,.65,.5,1.46,.75,2.41,.75,1.33,0,2.3-.49,2.91-1.47l1.49,.85c-.98,1.52-2.46,2.28-4.44,2.28-1.6,0-2.91-.5-3.91-1.5-1-1-1.5-2.27-1.5-3.81s.49-2.79,1.47-3.8c.98-1.01,2.25-1.52,3.82-1.52,1.48,0,2.69,.52,3.63,1.57,.94,1.04,1.4,2.3,1.4,3.77,0,.26-.02,.52-.06,.79h-8.46Zm3.49-4.46c-.94,0-1.72,.27-2.34,.8-.62,.53-1,1.24-1.15,2.13h6.75c-.15-.96-.53-1.68-1.13-2.18-.61-.5-1.31-.75-2.12-.75Z"/><path class="h" d="M216.15,330.51c1.41,0,2.62,.52,3.62,1.55,1,1.03,1.5,2.29,1.5,3.77s-.5,2.74-1.5,3.77c-1,1.03-2.2,1.55-3.62,1.55-1.67,0-2.94-.67-3.82-2v1.74h-1.76v-14.14h1.76v5.78c.88-1.33,2.15-2,3.82-2Zm-.22,8.93c1.01,0,1.86-.35,2.54-1.04s1.03-1.55,1.03-2.58-.34-1.88-1.03-2.58c-.69-.69-1.54-1.04-2.54-1.04s-1.88,.35-2.57,1.04c-.69,.69-1.03,1.55-1.03,2.58s.34,1.88,1.03,2.58c.69,.69,1.54,1.04,2.57,1.04Z"/><path class="h" d="M225.63,332.47c.58-1.25,1.63-1.88,3.15-1.88v1.84c-.86-.04-1.6,.19-2.22,.69s-.93,1.3-.93,2.4v5.35h-1.76v-10.1h1.76v1.7Z"/><path class="h" d="M231.68,336.63c.17,.9,.59,1.6,1.24,2.1,.65,.5,1.46,.75,2.41,.75,1.33,0,2.3-.49,2.91-1.47l1.5,.85c-.98,1.52-2.46,2.28-4.44,2.28-1.6,0-2.91-.5-3.91-1.5-1-1-1.5-2.27-1.5-3.81s.49-2.79,1.47-3.8c.98-1.01,2.26-1.52,3.82-1.52,1.48,0,2.69,.52,3.63,1.57,.94,1.04,1.4,2.3,1.4,3.77,0,.26-.02,.52-.06,.79h-8.46Zm3.5-4.46c-.94,0-1.72,.27-2.34,.8s-1,1.24-1.15,2.13h6.75c-.15-.96-.53-1.68-1.13-2.18-.61-.5-1.31-.75-2.12-.75Z"/><path class="h" d="M243.95,336.63c.17,.9,.59,1.6,1.24,2.1,.65,.5,1.46,.75,2.41,.75,1.33,0,2.3-.49,2.91-1.47l1.5,.85c-.98,1.52-2.46,2.28-4.44,2.28-1.6,0-2.91-.5-3.91-1.5-1-1-1.5-2.27-1.5-3.81s.49-2.79,1.47-3.8c.98-1.01,2.26-1.52,3.82-1.52,1.48,0,2.69,.52,3.63,1.57,.94,1.04,1.4,2.3,1.4,3.77,0,.26-.02,.52-.06,.79h-8.46Zm3.5-4.46c-.94,0-1.72,.27-2.34,.8s-1,1.24-1.15,2.13h6.75c-.15-.96-.53-1.68-1.13-2.18-.61-.5-1.31-.75-2.12-.75Z"/><path class="h" d="M256.44,339.19h5.37v1.68h-7.76v-1.18l5.16-7.24h-4.95v-1.68h7.35v1.16l-5.18,7.27Z"/><path class="h" d="M265.06,336.63c.17,.9,.59,1.6,1.24,2.1,.65,.5,1.46,.75,2.41,.75,1.33,0,2.3-.49,2.91-1.47l1.5,.85c-.98,1.52-2.46,2.28-4.44,2.28-1.6,0-2.91-.5-3.91-1.5-1-1-1.5-2.27-1.5-3.81s.49-2.79,1.47-3.8c.98-1.01,2.26-1.52,3.82-1.52,1.48,0,2.69,.52,3.63,1.57,.94,1.04,1.4,2.3,1.4,3.77,0,.26-.02,.52-.06,.79h-8.46Zm3.5-4.46c-.94,0-1.72,.27-2.34,.8s-1,1.24-1.15,2.13h6.75c-.15-.96-.53-1.68-1.13-2.18-.61-.5-1.31-.75-2.12-.75Z"/></g></g></g></g></g></svg>