<?xml version="1.0" encoding="UTF-8"?><svg xmlns="http://www.w3.org/2000/svg" viewBox="0 0 630.22 785.84"><defs><style>.d{stroke:gray;}.d,.e,.f,.g,.h,.i{stroke-miterlimit:10;}.j{fill:#f2f2f2;}.k{fill:#eaeaea;}.l{fill:#e6e6e6;}.m{fill:#edcf21;}.n{fill:#e5e5e5;}.o{fill:#ff4800;}.p,.e{fill:#ff6d00;}.q{fill:#996d41;}.r{fill:#c1d9e5;}.s{fill:#b7854f;}.t,.u{fill:#32373a;}.v{fill:#333;}.w{fill:#bc9871;}.x{fill:#cfd0d1;}.y{fill:#c4c4c4;}.a`{fill:#e08d3b;}.aa{fill:#db5c05;}.ab{fill:#d6b48b;}.ac{fill:#222628;}.ad{fill:gray;}.ae{fill:#2a66bc;}.af{fill:#493a30;}.e{stroke:#000;}.e,.f,.g,.h{stroke-width:4px;}.ag{stroke:#996d41;}.ag,.ah{stroke-linecap:round;stroke-linejoin:round;stroke-width:2px;}.ag,.ah,.f,.g,.h,.i{fill:none;}.ah{stroke:#bc9871;}.u{opacity:.2;}.f{stroke:#f46245;}.g{stroke:#6b5237;}.h{stroke:#e08d3b;}.ai{opacity:.42;}.i{stroke:#ff4800;stroke-width:9px;}.aj{fill:#fff;opacity:.67;}</style></defs><g id="a"/><g id="b"><g id="c"><circle class="aj" cx="118.63" cy="52.64" r="52.64"/><g><g><path class="s" d="M50.55,402.45c-.06-.17-.02-5.3-.06-.17,0,.27-.77,.48-1.2,1.86-2.33,7.38,.41,19.91,.41,19.91,0,0,1.4,7.99,3.72,11.69,2.32,3.71,.8,8.49-3.41,5.98-4.21-2.51-14.68-15.66-18.18-31.89-1.18-5.47-1.15-11.14-.6-16.26,.15-1.41,.34-2.77,.56-4.08l18.48-4.7,.12,5.26"/><polygon class="u" points="31.19 393.25 31.72 389.5 50.26 384.79 50.26 390.8 31.19 393.25"/></g><path class="af" d="M156.38,52.64s2.65-15.09-5.3-26.55c-7.95-11.46-13.68-17.46-25.98-17.46h-12.68c-12.3,0-18.03,6-25.98,17.46-7.95,11.46-5.3,26.55-5.3,26.55"/><polygon class="af" points="81.14 52.64 81.53 61.11 156.99 60.46 156.86 50.29 117.76 43.51 81.14 52.64"/><path class="s" d="M150.9,59.53s1.82-1.96,5.17-1.42c4.82,.78,.65,13.55,.65,13.55,0,0,.52,6.26-2.22,7.3s-5.21-6.39-5.21-6.39l1.61-13.05Z"/><path class="s" d="M86.81,59.53s-1.82-1.96-5.17-1.42c-4.82,.78-.65,13.55-.65,13.55,0,0-.52,6.26,2.22,7.3,2.74,1.04,5.21-6.39,5.21-6.39l-1.61-13.05Z"/><rect class="q" x="96.89" y="100.22" width="45.26" height="37.15"/><polygon class="p" points="124.64 670.49 181.11 673.61 189.25 401.85 120.25 402.67 124.64 670.49"/><path class="t" d="M176.26,685.58s6.3-7.03,7.03-12.23c.73-5.2,1.32-98.07,1.32-98.07l-61.69,.37s.5,94.32,1.47,98.48c.97,4.16,7.03,9.63,7.03,9.63l44.84,1.82Z"/><polygon class="x" points="184.4 609.93 184.24 635.71 123.35 635.6 123.14 609.82 184.4 609.93"/><polygon class="x" points="186.92 494.89 185.9 522.31 122.2 521.95 121.69 494.52 186.92 494.89"/><path d="M178.09,683.34s-1.37,20.36-3.84,42.79c-2.46,22.43-40.23,17.65-41.33,2.65-1.1-15-3.22-46.45-3.22-46.45l48.38,1.01Z"/><path d="M127.2,710.22h53.47v24.77c0,14.76-11.98,26.73-26.73,26.73h0c-14.76,0-26.73-11.98-26.73-26.73v-24.77h0Z" transform="translate(307.87 1471.95) rotate(180)"/><path class="p" d="M187.92,389.97l-141.4,.36,5.42-82.45-2.41-118.97c0-33.31,1.2-58.96,39.66-58.96l57.85,.42c46.63,1.7,38.19,25.23,38.19,58.54l-2.38,118.97,5.06,82.09Z"/><path class="p" d="M215.79,392.18l-33.9-10.43s19.74-84.48,16.72-99.44c-1.64-8.14-9.51-58.73-22.31-96.43-12.05-35.51-29.74-50.71-29.74-50.71l23.23-.99c26.69-1.13,49.97,17.95,54.13,44.33l16.12,110.59-24.26,103.08Z"/><path class="p" d="M88.03,131.94l-1.27-20.98s23.32,5.47,33.5,5.47,30.1-4.56,30.1-4.56l.42,20.07-33.92,5.47-28.83-5.47Z"/><polygon class="p" points="189.25 403.41 50.3 410.69 50.6 382.06 189.51 378.68 189.25 403.41"/><polygon class="p" points="114.97 671.87 58.49 674.99 50.41 400.68 119.35 404.05 114.97 671.87"/><polygon class="t" points="187.92 389.97 182.86 307.88 121.02 292.33 51.94 307.88 46.52 390.34 187.92 389.97"/><polygon class="x" points="182.86 307.88 121.02 292.33 51.94 307.88 51.58 290.16 120.29 273.89 183.31 290.62 182.86 307.88"/><polygon class="x" points="186.21 362.43 121.02 344.44 48.33 361.49 49.74 342.73 120.29 326 185.04 344.14 186.21 362.43"/><path class="x" d="M180.14,133.96l4.56,81.56s17.25-68.54,18.39-73.38c-11.1-7.4-22.95-8.18-22.95-8.18Z"/><polygon class="t" points="218.93 286.74 198.95 283.97 182.92 383.5 201.92 388.05 218.93 286.74"/><polygon class="x" points="190.2 239.27 193.31 256.7 234.17 247.37 231.4 228.57 190.2 239.27"/><polygon class="x" points="191.3 324.95 187.96 340.08 227.3 347.96 230.54 332.24 191.3 324.95"/><path class="p" d="M24.26,392.18l33.9-10.43s-19.74-84.48-16.72-99.44c1.64-8.14,9.51-58.73,22.31-96.43,12.05-35.51,29.74-50.71,29.74-50.71l-23.23-.99c-26.69-1.13-49.97,17.95-54.13,44.33L0,289.1l24.26,103.08Z"/><path class="x" d="M59.91,133.96l-4.56,81.56s-17.25-68.54-18.39-73.38c11.1-7.4,22.95-8.18,22.95-8.18Z"/><polygon class="t" points="21.11 286.74 41.1 283.97 57.13 383.5 38.13 388.05 21.11 286.74"/><polygon class="x" points="49.84 239.27 46.74 256.7 5.88 247.37 8.65 228.57 49.84 239.27"/><polygon class="x" points="48.74 324.95 52.09 340.08 12.75 347.96 9.51 332.24 48.74 324.95"/><path class="t" d="M63.34,686.96s-6.3-7.03-7.03-12.23c-.73-5.2-1.32-98.07-1.32-98.07l61.69,.37s-.5,94.32-1.47,98.48c-.97,4.16-7.03,9.63-7.03,9.63l-44.84,1.82Z"/><polygon class="x" points="55.2 611.3 55.36 637.08 116.26 636.98 116.46 611.19 55.2 611.3"/><polygon class="x" points="52.68 496.26 53.7 523.69 117.4 523.32 117.91 495.9 52.68 496.26"/><path class="aa" d="M77.21,422.74l-27.53,59.65s2.09,1.79,7.76,2.39c5.67,.6,22.49-2.94,22.49-2.94l.34-58.24-3.07-.85Z"/><path class="p" d="M41.54,423.45l3.88,57.93s2.09,1.79,7.76,2.39c5.67,.6,23.59-3.28,23.59-3.28l.6-58.52-35.83,1.49Z"/><path d="M61.51,684.72s1.37,20.36,3.84,42.79c2.46,22.43,40.23,17.65,41.33,2.65,1.1-15,3.22-46.45,3.22-46.45l-48.38,1.01Z"/><path d="M85.67,711.6h0c14.76,0,26.73,11.98,26.73,26.73v24.77H58.93v-24.77c0-14.76,11.98-26.73,26.73-26.73Z"/><path class="t" d="M87.17,117.92l-.41-6.96s23.32,5.47,33.5,5.47,30.1-4.56,30.1-4.56l.14,6.75s-15.83,5.22-30.66,5.22-32.67-5.93-32.67-5.93Z"/><line class="e" x1="119.23" y1="116.71" x2="119.95" y2="389.88"/><path class="ac" d="M135.76,317.77l.58,46.51,38.37,5.23,.84-6.27-4.88-8.87-32.59-38.37s-2.31,2.36-2.31,1.78Z"/><path class="t" d="M137.15,313.44l.58,46.51,38.37,5.23v-45.64s-38.95-5.52-38.95-6.1Z"/><polygon class="x" points="137.5 329.64 137.73 347.28 176.06 356.7 176.13 338.98 137.5 329.64"/><path class="ac" d="M104.27,317.09l-.58,46.51-38.37,5.23-.84-6.27,4.88-8.87,32.59-38.37s2.31,2.36,2.31,1.78Z"/><path class="t" d="M102.88,312.75l-.58,46.51-38.37,5.23v-45.64s38.95-5.52,38.95-6.1Z"/><polygon class="x" points="102.53 328.95 102.3 346.59 63.97 356.02 63.9 338.29 102.53 328.95"/><ellipse class="s" cx="118.9" cy="68.71" rx="34.25" ry="47.11"/><path class="ag" d="M117.24,63.97s-4.95,16.03-3.39,19.94c1.56,3.91,9.25,0,9.25,0"/><path class="ag" d="M112.42,91.6s7.69,4.17,13.68-.78"/><path class="af" d="M148.16,39.07s-28.92,4.56-37.96-19l20.29-.89,13.44,7,4.78,13.24"/></g><path class="x" d="M479.11,489.63c-2.76,0-8.74,3.45-14.71,8.28-12.64,25.98,1.38,48.74,1.38,48.74l19.54-.23s-17.93-16.32-6.21-56.79Z"/><path class="n" d="M525.06,705.53l3.77,44.31s-1.32,10.22,12.22,10.77c13.54,.55,70.35,1.69,70.35,1.69,0,0,4.15-9.84-3.02-11.67s-44-8.22-49.33-12.67l-.67-33.78-33.33,1.35Z"/><polygon class="ab" points="525.06 705.53 523.98 693.86 558.38 692.21 558.38 704.18 525.06 705.53"/><line class="f" x1="558.52" y1="711.13" x2="525.65" y2="712.48"/><line class="f" x1="558.52" y1="718.08" x2="526.24" y2="719.4"/><path class="n" d="M419.58,731.29l-1.84,37.11s6.46,4.9,6.21,9.23-1.5,8.22-6.21,8.22h-38.65c-4.7,0-3.96-3.89-4.21-8.22-.25-4.33,12.12-9.23,12.12-9.23l-1.97-37.11"/><path class="y" d="M392.98,767.9c6.06-3.05,13.68-2.82,19.79,0-6.71-.06-13.04-.33-19.79,0h0Z"/><polygon class="ab" points="385.04 731.29 383.71 710.04 420.51 708.34 419.62 731.29 385.04 731.29"/><line class="f" x1="419.37" y1="740.37" x2="385.84" y2="740.87"/><path class="s" d="M189.15,402.73c.06-.17,.02-5.3,.06-.17,0,.27,.77,.48,1.2,1.86,2.33,7.38-.41,19.91-.41,19.91,0,0-1.4,7.99-3.72,11.69-2.32,3.71-.8,8.49,3.41,5.98,4.21-2.51,14.68-15.66,18.18-31.89,1.18-5.47,1.15-11.14,.6-16.26-.15-1.41-.34-2.77-.56-4.08l-18.48-4.7-.12,5.26"/><circle class="aj" cx="577.58" cy="537.83" r="52.64"/><circle class="aj" cx="86.44" cy="722.81" r="52.64"/><line class="f" x1="418.82" y1="746.86" x2="386.32" y2="747.34"/><polygon class="u" points="208.51 393.53 207.98 389.78 189.44 385.06 189.44 391.08 208.51 393.53"/><g><g><path class="t" d="M542.86,544.33s12.32,3.37,21.85,5.58c9.53,2.22,17.53,2.61,19.4,1.82,1.87-.79,5.03-3.94,.37-6.46-4.66-2.52-20.73-4.08-13.67-5.28,7.06-1.21,17.88,3.33,17.88,3.33,0,0,6.96,2.55,9.9,5.38,2.94,2.83,7.51,2.04,5.98-2.47-1.53-4.52-11.58-16.76-25.61-22.59-14.03-5.83-34.25-1.77-34.25-1.77l-1.87,22.46Z"/><path class="p" d="M568.33,550.68c7.88,1.53,14.16,1.74,15.79,1.05,1.87-.79,5.1-4.34-.13-5.02-3.8-.49-9.95-1.48-13.51-2.43"/><path class="p" d="M543.84,532.55l.89-10.68s12.63-2.64,23.19-.93l-1.14,8.73-22.94,2.88Z"/><path class="p" d="M591.26,530.89c-3.57-2.77-7.71-5.35-12.28-7.25-1.3-.54-2.65-1-4.04-1.38l-1.96,8.48,15.46,5.69,2.82-5.54c1.4,1.09,0,0,0,0Z"/><path class="p" d="M603.27,550.22c1.32-.41,2.08-1.73,1.32-3.99-.84-2.47-4.21-7.24-9.39-12.01l-3.14,4.7,11.22,11.31Z"/></g><path class="p" d="M567.16,522.51l-40.32,5.71s-13.82-99.24-16.42-112.94c-1.41-7.45-7.87-53.76-19.61-88.29-11.05-32.52-28.28-46.47-28.28-46.47l23.21-.85c26.66-.97,49.38,16.53,52.8,40.68l13.05,101.23,15.57,100.93Z"/><polygon class="t" points="522.69 409.82 510.42 415.27 526.84 528.21 540.08 526.34 522.69 409.82"/><polygon class="x" points="504.75 382.21 507.55 398.14 547.48 389.55 545.27 372.05 504.75 382.21"/><polygon class="x" points="516.69 457.23 518.77 471.23 558.35 464.67 555.97 450.2 516.69 457.23"/><path class="p" d="M361.64,417.66c.32-7.71,4.32-55.07,13.77-91.05,8.89-33.89,25.17-49.59,25.17-49.59l-23.21,1.28c-26.67,1.48-48.18,21.27-50,46l-6.37,103.53"/><polygon class="x" points="366.25 377.16 364.69 393.53 323.19 388.78 324.3 371.18 366.25 377.16"/><polygon class="a`" points="397.03 194.33 397.42 202.8 472.88 202.15 472.75 191.99 433.65 185.21 397.03 194.33"/><path class="ab" d="M466.79,201.22s1.82-1.96,5.17-1.42c4.82,.78,.65,13.55,.65,13.55,0,0,.52,6.26-2.22,7.3-2.74,1.04-5.21-6.39-5.21-6.39l1.61-13.05Z"/><path class="ab" d="M402.7,201.22s-1.82-1.96-5.17-1.42c-4.82,.78-.65,13.55-.65,13.55,0,0-.52,6.26,2.22,7.3,2.74,1.04,5.21-6.39,5.21-6.39l-1.61-13.05Z"/><rect class="w" x="412.77" y="241.92" width="45.26" height="37.15"/><polygon class="x" points="502.81 499.82 501.79 525.24 438.09 524.9 437.58 499.49 502.81 499.82"/><path class="p" d="M503.81,513.24l-141.4,.34,5.42-76.39-2.41-110.22c0-30.86,1.2-54.63,39.66-54.63l57.85,.39c46.63,1.57,38.19,23.37,38.19,54.23l-2.38,110.22,5.06,76.06Z"/><path class="p" d="M403.92,274.17l-1.27-19.44s23.32,5.07,33.5,5.07,30.1-4.23,30.1-4.23l.42,18.6-33.92,5.07-28.83-5.07Z"/><polygon class="p" points="504.65 546.43 366.19 546.84 366.49 507.43 505.4 502.77 504.65 546.43"/><polygon class="t" points="503.81 513.24 498.74 437.18 436.9 422.77 367.83 437.18 362.41 513.57 503.81 513.24"/><polygon class="x" points="498.74 437.18 436.9 422.77 367.83 437.18 367.47 420.76 436.18 405.68 499.2 421.18 498.74 437.18"/><polygon class="x" points="502.1 487.72 436.9 471.05 364.22 486.85 365.63 469.47 436.18 453.96 500.93 470.77 502.1 487.72"/><path class="t" d="M403.06,261.17l-.41-6.45s23.32,5.07,33.5,5.07,30.1-4.23,30.1-4.23l.14,6.26s-15.83,4.84-30.66,4.84-32.67-5.49-32.67-5.49Z"/><path class="x" d="M485.74,279.66l13.35,74.73s9.92-66.01,10.43-70.55c-11.94-5.14-23.78-4.18-23.78-4.18Z"/><line class="e" x1="435.12" y1="260.05" x2="435.84" y2="513.15"/><path class="ac" d="M451.65,446.34l.58,43.09,38.37,4.85,.84-5.81-4.88-8.22-32.59-35.55s-2.31,2.18-2.31,1.64Z"/><path class="t" d="M453.04,442.33l.58,43.09,38.37,4.85v-42.28s-38.95-5.12-38.95-5.66Z"/><polygon class="x" points="453.39 457.34 453.62 473.68 491.94 482.41 492.01 465.99 453.39 457.34"/><path class="ac" d="M420.16,445.71l-.58,43.09-38.37,4.85-.84-5.81,4.88-8.22,32.59-35.55s2.31,2.18,2.31,1.64Z"/><path class="t" d="M418.77,441.69l-.58,43.09-38.37,4.85v-42.28s38.95-5.12,38.95-5.66Z"/><polygon class="x" points="418.41 456.7 418.19 473.04 379.86 481.77 379.79 465.35 418.41 456.7"/><ellipse class="ab" cx="434.79" cy="210.41" rx="34.25" ry="47.11"/><path class="ah" d="M433.13,205.67s-4.95,16.03-3.39,19.94,9.25,0,9.25,0"/><ellipse class="ai" cx="419.61" cy="204.48" rx="2.13" ry="3.4"/><ellipse class="ai" cx="449.5" cy="204.38" rx="2.13" ry="3.4"/><path class="h" d="M407.97,197.46s7.17-5.08,18.11-4.69"/><path class="h" d="M460.36,197.46s-7.17-5.08-18.11-4.69"/><path class="ah" d="M428.31,233.3s7.69,4.17,13.68-.78"/><path class="p" d="M509.34,681.56l56.53-1.88s-7.48-138.8-9.5-150.95c-13.68-104.75-117.66-11.31-117.66-11.31l56.15,23.42,14.49,140.71Z"/><path class="t" d="M562.1,692.03s5.66-7.56,5.92-12.8c.26-5.25-7.35-97.8-7.35-97.8l-61.41,5.82s8.83,93.9,10.16,97.96,7.85,8.97,7.85,8.97l44.83-2.15Z"/><polygon class="x" points="563.53 615.96 565.64 641.65 504.97 646.92 502.49 621.26 563.53 615.96"/><path class="p" d="M320.54,426.93l78.13,82.78,26.35-27.56s-64.12-58.36-63.83-65.39"/><polygon class="t" points="341.35 422.76 361.09 417.19 425.05 482.09 410.9 497.2 341.35 422.76"/><polygon class="x" points="379.32 435.08 389.88 444.9 362.06 471.87 351.29 461.53 379.32 435.08"/><g><path class="t" d="M394.23,490.88s7.59,10.28,13.7,17.92c6.11,7.64,12.15,12.91,14.1,13.45,1.96,.54,6.39,.02,4.29-4.84-2.1-4.86-13.75-16.04-7.45-12.61,6.29,3.43,11.98,13.69,11.98,13.69,0,0,3.88,6.31,4.44,10.36s4.63,6.26,6.23,1.76c1.6-4.49,1.29-20.33-6.11-33.59-7.4-13.27-25.79-22.61-25.79-22.61l-15.38,16.48Z"/><path class="p" d="M410.29,511.64c5.24,6.08,10.04,10.14,11.74,10.6,1.96,.54,6.69-.25,3.01-4.02-2.68-2.74-6.89-7.32-9.11-10.28"/><path class="p" d="M402.3,482.24l7.31-7.83s11.55,5.75,18.78,13.63l-6.3,6.15-19.79-11.95Z"/><path class="p" d="M440.56,510.31c-1.08-4.38-2.74-8.98-5.15-13.3-.69-1.23-1.47-2.42-2.32-3.58l-6.79,5.44,8.62,14.04,5.64-2.6c.43,1.73,0,0,0,0Z"/><path class="p" d="M438.01,532.93c1.29,.5,2.71-.07,3.51-2.32,.87-2.45,1.18-8.29,.07-15.25l-5.38,1.74,1.8,15.83Z"/></g><path class="p" d="M431.16,695.12l-56.47,3.12s-7.59-116.82-8.35-153.77c-5.71-75.05,67.43-87.24,77.33-26.67,1.9,19.05-12.5,177.31-12.5,177.31Z"/><path class="t" d="M379.53,710.21s-6.3-7.03-7.03-12.23c-.73-5.2-3.87-98.22-3.87-98.22l70.63-1.5s-6.89,96.34-7.86,100.51c-.97,4.16-7.03,9.63-7.03,9.63l-44.84,1.82Z"/><polygon class="x" points="369.38 634.57 370.13 660.87 434.75 660.37 436.75 634.07 369.38 634.57"/><path class="x" d="M367.05,279.07l2.6,75.66s-23.18-61.59-24.73-65.94c10.41-7.88,22.14-9.71,22.14-9.71Z"/></g><g><g><path class="r" d="M83.39,54.29l70.71,.22s-.63,16.51-4.17,20.52c-2.88,3.26-19.1,4.48-23.92,.25-4.22-3.71-5.34-11.67-5.34-11.67l-4.98,.13s-1.51,7.66-4.19,11.17c-2.68,3.51-19.96,4.22-24.13-.07-4.17-4.29-3.99-20.56-3.99-20.56Z"/><path class="r" d="M86,56.85l28.07,.33s-1.52,12.31-4.59,15.83c-3.07,3.52-17.58,3.89-20.78-.39-3.2-4.28-2.7-15.77-2.7-15.77Z"/><path class="r" d="M150.9,57.05l-28.08,.16s1.46,12.32,4.5,15.86c3.05,3.54,17.56,3.99,20.78-.26s2.79-15.75,2.79-15.75Z"/></g><ellipse class="ai" cx="103.73" cy="62.79" rx="2.13" ry="3.4"/><ellipse class="ai" cx="133.61" cy="62.68" rx="2.13" ry="3.4"/><path class="g" d="M92.09,55.76s7.17-5.08,18.11-4.69"/><path class="g" d="M144.48,55.76s-7.17-5.08-18.11-4.69"/></g><g><path d="M178.09,683.34s-1.37,20.36-3.84,42.79c-2.46,22.43-40.23,17.65-41.33,2.65-1.1-15-3.22-46.45-3.22-46.45l48.38,1.01Z"/><path d="M127.2,710.22h53.47v24.77c0,14.76-11.98,26.73-26.73,26.73h0c-14.76,0-26.73-11.98-26.73-26.73v-24.77h0Z" transform="translate(307.87 1471.95) rotate(180)"/></g><g><path d="M61.51,684.72s1.37,20.36,3.84,42.79c2.46,22.43,40.23,17.65,41.33,2.65,1.1-15,3.22-46.45,3.22-46.45l-48.38,1.01Z"/><path d="M85.67,711.6h0c14.76,0,26.73,11.98,26.73,26.73v24.77H58.93v-24.77c0-14.76,11.98-26.73,26.73-26.73Z"/></g><circle class="aj" cx="56.6" cy="416.76" r="52.64"/><circle class="aj" cx="158.4" cy="346.98" r="52.64"/><circle class="aj" cx="436.21" cy="174.73" r="52.64"/><circle class="aj" cx="471.54" cy="307.88" r="52.64"/><g><rect x="65.76" y="151.01" width="23.8" height="50.16" transform="translate(-17.03 8.54) rotate(-5.67)"/><rect class="l" x="67.76" y="155.65" width="16.69" height="9.35" transform="translate(-15.48 8.31) rotate(-5.67)"/><circle class="v" cx="71.41" cy="171.8" r="1.87"/><circle class="o" cx="78.29" cy="180.21" r="3.54"/><circle class="v" cx="77.25" cy="171.22" r="1.87"/><circle class="v" cx="83.1" cy="170.64" r="1.87"/><rect x="81.88" y="125.84" width="2.95" height="25.73" transform="translate(-13.31 8.92) rotate(-5.67)"/><line class="d" x1="71.81" y1="190.62" x2="86.21" y2="189.19"/><line class="d" x1="72.04" y1="192.89" x2="86.44" y2="191.46"/><line class="d" x1="72.26" y1="195.16" x2="86.66" y2="193.72"/><line class="d" x1="72.49" y1="197.42" x2="86.89" y2="195.99"/></g><g><rect class="m" x="50.39" y="383.04" width="10.2" height="19.07" transform="translate(-23.32 4.01) rotate(-3.42)"/><rect class="ae" x="42.05" y="397.13" width="30.14" height="53.31" rx="9.14" ry="9.14" transform="translate(-25.18 4.16) rotate(-3.42)"/><ellipse class="m" cx="56.6" cy="412.79" rx="7.44" ry="8.32" transform="translate(-24.53 4.11) rotate(-3.42)"/></g><g><polygon class="ad" points="167.55 371.25 158.21 321.6 155.43 321.79 165.62 370.87 167.55 371.25"/><g><path class="ad" d="M164.68,315.46l2.88,55.8s-12.47,.18-15.64-2.44c-2.58-2.14-4.2-14.89-1.22-18.86,2.61-3.48,12.04-5.31,12.04-5.31l-.16-3.06s-9.47-1.12-12.24-3.09c-2.76-1.97-4.04-15.57-.98-19.04,3.06-3.46,15.32-3.99,15.32-3.99Z"/><path d="M162.86,317.62l.96,22.16s-9.34-.7-12.13-2.97c-2.79-2.28-3.68-13.71-.6-16.41,3.09-2.7,11.77-2.78,11.77-2.78Z"/><path d="M165.5,368.84l-1.33-22.14s-9.22,1.65-11.76,4.2c-2.54,2.55-2.26,14.01,1.09,16.38,3.35,2.37,11.99,1.55,11.99,1.55Z"/></g></g><g><path class="j" d="M476.74,196.66s-11.01-8.81-41.09-8.3-41.14,8.3-41.14,8.3v-4.21c0-26.21,18.41-47.45,41.11-47.45h0c22.71,0,41.11,21.25,41.11,47.45v4.21Z"/><rect class="t" x="425.32" y="166.48" width="19.41" height="13.54"/><path class="t" d="M474.47,175.68c-1.79-.79-19-8.28-39.1-7.89-20.1,.39-37.31,6.84-39.37,8.42-2.34,5-1.93,11.97-1.93,11.97,0,0,19.14-9.99,41.02-9.99s41.71,10.12,41.71,10.12c0,0-.14-8.42-2.34-12.62Z"/></g><g><ellipse class="i" cx="435.4" cy="333.04" rx="15.04" ry="13.94"/><path class="t" d="M367.06,408.94s53.25-6.47,67.7-6.66,64.78,7.1,64.78,7.1l.53-19.59-17.67-57.73,11.38-56.34-20.85-2.12-11.8,52.91-18.71-1.25-.3,15.82,19.61,.97,4.49,.28,13.78,45.52s-28.12-4.7-44.04-4.72c-15.92-.02-51.23,5.83-51.23,5.83l20.97-45.8,22.53-2.38-.11-15.49-23.33,1.22-9.65-53.43-21.2,2.64,12.28,59.12-19.3,55.72,.12,18.39Z"/><polygon class="k" points="444.63 382.65 443.81 403.76 468.72 406.49 469.87 385.68 444.63 382.65"/></g></g></g></svg>