<?xml version="1.0" encoding="UTF-8"?><svg xmlns="http://www.w3.org/2000/svg" viewBox="0 0 248.87 288.46"><defs><style>.f{fill:#54b5b1;stroke-miterlimit:10;stroke-width:5px;}.f,.g{stroke:#fff;}.h{fill:#fff;}.i,.j{fill:#19192d;}.j{opacity:.23;}.j,.k{isolation:isolate;}.g{fill:none;stroke-linecap:round;stroke-linejoin:round;stroke-width:3px;}</style></defs><g id="a"/><g id="b"><g id="c"><g id="d"><g id="e"><g><rect class="i" y="28.16" width="248.87" height="260.3" rx="23.44" ry="23.44"/><circle class="j" cx="124.44" cy="158.31" r="120.67"/><circle class="f" cx="124.44" cy="158.31" r="79.74"/><path class="i" d="M182.11,161.24l2.93-2.93-2.89-2.89,2.59-3.17-3.05-2.49,2.19-3.27-3.08-2.06,1.77-3.26-3.52-1.92c-.08-.23-.16-.45-.24-.67l1.52-3.71-3.46-1.42,1.09-3.58-3.78-1.16c-.08-.14-.17-.28-.25-.43l.75-3.88-3.64-.71,.38-3.69-3.9-.4c-.07-.08-.14-.16-.22-.25v-3.91h-3.89c-.07-.07-.15-.13-.22-.2l-.39-3.87-3.84,.39-.09-.06-.75-3.79-3.64,.72-1.05-3.56-3.66,1.08c-.3-.14-.59-.29-.89-.43l-1.48-3.52-3.45,1.45-1.75-3.3-3.35,1.78c-.24-.06-.47-.12-.71-.17l-2.12-3.15-3.07,2.07-2.34-2.87-2.95,2.4c-.16,0-.33-.02-.49-.02l-2.69-2.69-2.69,2.69c-.14,0-.28,.01-.42,.02l-2.94-2.41-2.4,2.94c-.07,0-.14,.02-.21,.03l-3.16-2.11-2.06,3.08-3.26-1.77-1.82,3.34c-.32,.11-.64,.22-.96,.34l-3.52-1.44-1.42,3.46-3.58-1.09-1.12,3.67c-.19,.11-.38,.23-.57,.34l-3.77-.73-.71,3.64-3.69-.38-.39,3.87c-.09,.08-.18,.16-.27,.25h-3.89v3.91c-.06,.06-.11,.13-.17,.19l-3.9,.39,.39,3.92h0l-3.86,.77,.72,3.64-3.56,1.05,1.12,3.81c-.11,.23-.21,.46-.32,.69l-3.67,1.54,1.45,3.45-3.3,1.75,1.9,3.57-.09,.36-3.35,2.26,2.07,3.07-2.87,2.34,2.6,3.19v.02l-2.91,2.91,2.89,2.89-2.59,3.17,3.05,2.49-2.19,3.27,3.08,2.06-1.77,3.26,3.71,2.02c.04,.12,.08,.24,.13,.36l-1.6,3.91,3.46,1.42-1.09,3.58,4.1,1.26-.82,4.21,3.64,.71-.38,3.69,4.12,.42v4.14h4.09l.41,4.07,3.92-.39,.77,3.86,3.64-.72,1.05,3.56,4.24-1.25,.09,.04,1.71,4.08,3.45-1.45,1.75,3.3,3.79-2.01,2.4,3.55,3.07-2.07,2.34,2.87,3.21-2.61,2.93,2.93,2.89-2.89,3.17,2.59,2.49-3.05,3.28,2.19,2.06-3.08,3.26,1.77,2.12-3.89,.08-.03,4.1,1.68,1.42-3.46,3.58,1.09,1.26-4.1,4.21,.82,.71-3.64,3.69,.38,.42-4.12h4.14v-4.09l4.07-.41-.39-3.92,3.86-.77-.72-3.64,3.56-1.05-1.21-4.09c.05-.1,.1-.2,.14-.3l3.93-1.65-1.45-3.45,3.3-1.75-1.97-3.71s.02-.09,.03-.13l3.48-2.35-2.07-3.07,2.87-2.34-2.61-3.21-.07,.02Z"/><path class="g" d="M25.92,129.27c9.87-34.7,37.51-61.92,72.46-71.19"/><path class="g" d="M104.1,258.16c-39.71-8.13-71.08-39.15-79.71-78.67"/><path class="g" d="M223.87,185.03c-10.21,36.75-40.33,65.22-78,73.06"/><path class="g" d="M150.09,57.78c34.62,8.75,62.25,35.07,72.84,68.92"/><g><path class="h" d="M152.31,145.74c-.21,1.07-.83,2.07-1.81,2.72l-47.76,32.18c-1.96,1.32-4.61,.8-5.93-1.15-1.32-1.96-.8-4.61,1.15-5.93l47.76-32.18c1.96-1.32,4.61-.8,5.93,1.15,.66,.98,.86,2.13,.65,3.2h.01Z"/><path class="h" d="M152.71,145.48l-5.98,30.67c-.45,2.32-2.69,3.83-5.01,3.38-2.32-.45-3.83-2.69-3.38-5.01l5.16-26.48-26.48-5.16c-2.32-.45-3.83-2.69-3.38-5.01s2.69-3.83,5.01-3.38l30.67,5.98c2.32,.45,3.83,2.69,3.38,5.01h0Z"/></g><g class="k" transform="translate(117.63 69.25)"><g class="k"><path class="h" d="M130.98,47.12h3.92v19.88h-2.98l-8.52-12.16v12.16h-3.92v-19.88h2.98l8.52,12.11v-12.11Z"/></g></g><g class="k" transform="translate(117.63 271.13)"><g class="k"><path class="h" d="M126.26,269.28c-1.97,0-3.63-.44-4.97-1.32-1.34-.88-2.29-2.08-2.84-3.59l3.35-1.96c.78,2.03,2.3,3.04,4.57,3.04,1.1,0,1.9-.2,2.41-.6,.51-.4,.77-.9,.77-1.5,0-.7-.31-1.25-.94-1.63s-1.74-.81-3.35-1.26c-.89-.27-1.64-.53-2.26-.8-.62-.26-1.23-.62-1.85-1.06-.62-.44-1.08-1.01-1.41-1.69-.32-.68-.48-1.48-.48-2.39,0-1.8,.64-3.23,1.92-4.3,1.28-1.07,2.82-1.6,4.62-1.6,1.61,0,3.02,.39,4.25,1.18,1.22,.79,2.17,1.88,2.85,3.28l-3.29,1.9c-.8-1.7-2.06-2.56-3.81-2.56-.81,0-1.45,.18-1.92,.55-.46,.37-.7,.85-.7,1.43,0,.62,.26,1.13,.78,1.52,.52,.39,1.52,.81,3,1.26,.61,.19,1.07,.34,1.38,.44,.31,.1,.74,.27,1.28,.48,.54,.22,.96,.42,1.25,.61,.29,.19,.63,.45,1.01,.77,.38,.32,.67,.65,.87,.99,.2,.34,.37,.75,.51,1.24,.14,.48,.21,1.01,.21,1.58,0,1.84-.67,3.29-2,4.37-1.33,1.08-3.07,1.62-5.21,1.62Z"/></g></g><g class="k" transform="translate(10.42 167.82)"><g class="k"><path class="h" d="M16.11,165.57l-5.26-19.88h4.1l3.82,14.74,4.15-14.74h3.39l4.16,14.7,3.77-14.7h3.77l-5.22,19.88h-4.46l-3.77-13.19-3.74,13.19h-4.72Z"/></g></g><g class="k" transform="translate(102.46 12.75)"><g class="k"><path class="h" d="M105.47,10.5l-2.78-10.5h2.17l2.02,7.79,2.19-7.79h1.79l2.2,7.76,1.99-7.76h1.99l-2.76,10.5h-2.35l-1.99-6.97-1.98,6.97h-2.5Z"/><path class="h" d="M119.47,0h2.07V10.5h-2.07V0Z"/><path class="h" d="M130.62,0h2.07V10.5h-1.58l-4.5-6.42v6.42h-2.07V0h1.57l4.5,6.4V0Z"/><path class="h" d="M139.85,0c1.44,0,2.64,.5,3.61,1.51,.96,1.01,1.45,2.26,1.45,3.74s-.48,2.72-1.45,3.74c-.96,1.01-2.17,1.51-3.61,1.51h-4.17V0h4.17Zm0,8.52c.91,0,1.65-.3,2.22-.91,.57-.6,.85-1.39,.85-2.36s-.29-1.76-.85-2.36c-.57-.61-1.31-.91-2.22-.91h-2.1v6.54h2.1Z"/></g></g><polygon class="h" points="177.53 100.22 207.2 102.15 197.82 130.36 177.53 100.22"/></g></g></g></g></g></svg>