<?xml version="1.0" encoding="UTF-8"?><svg xmlns="http://www.w3.org/2000/svg" viewBox="0 0 274.15 135.63"><defs><style>.d{fill:#54b5b1;stroke:#fff;stroke-miterlimit:10;stroke-width:5px;}.e{letter-spacing:.03em;}.f{letter-spacing:0em;}.g{fill:#e9a72d;}.h{fill:#19192d;}.i{letter-spacing:.07em;}.j{letter-spacing:-.02em;}.k{letter-spacing:.06em;}.l{letter-spacing:.07em;}.m{font-size:28.64px;}.m,.n{fill:#fff;font-family:Gilroy-Bold, Gilroy-Bold;}.n{font-size:15px;}</style></defs><g id="a"/><g id="b"><g id="c"><rect class="h" y="24.22" width="274.15" height="111.41" rx="23.44" ry="23.44"/><text class="n" transform="translate(101.36 12.75)"><tspan class="i" x="0" y="0">V</tspan><tspan class="k" x="10.83" y="0">I</tspan><tspan class="l" x="15.81" y="0">S</tspan><tspan class="i" x="25.6" y="0">IBILITY</tspan></text><g><rect class="d" x="53.31" y="48.27" width="175.74" height="32.89" rx="16.45" ry="16.45"/><path class="h" d="M207.37,69.52c3.53,0,6.39-1.97,6.39-4.39s-2.86-4.39-6.39-4.39H106.85v8.79h100.52Z"/><path class="g" d="M105.26,60.73h-37.18c-1.35,0-2.44,1.97-2.44,4.39s1.09,4.39,2.44,4.39h37.18v-8.79Z"/><circle class="g" cx="101.36" cy="65.59" r="16.45"/></g><text class="m" transform="translate(110.99 116.35)"><tspan class="j" x="0" y="0">L</tspan><tspan class="f" x="13.32" y="0">O</tspan><tspan class="e" x="35.83" y="0">W</tspan></text></g></g></svg>