<?xml version="1.0" encoding="UTF-8"?><svg xmlns="http://www.w3.org/2000/svg" viewBox="0 0 478.5 279.71"><defs><style>.d{fill:#bc1e44;stroke:#fff;stroke-miterlimit:10;stroke-width:5px;}.e{fill:#fff;}.f{fill:#e9a72d;}</style></defs><g id="a"/><g id="b"><g id="c"><g><g><rect class="d" x="2.5" y="2.5" width="421.2" height="274.71" rx="43.56" ry="43.56"/><g><path class="e" d="M89.67,112.62v4.14h-5.93v17.81h-4.33v-17.81h-5.9v-4.14h16.15Z"/><path class="e" d="M101.56,118.45c1.71,0,3.13,.57,4.25,1.72s1.68,2.74,1.68,4.77v9.63h-4.04v-9.13c0-1.04-.28-1.84-.85-2.4-.56-.55-1.32-.83-2.26-.83-1.04,0-1.88,.32-2.51,.97-.63,.65-.94,1.62-.94,2.92v8.47h-4.04v-21.95h4.04v8.03c.98-1.46,2.54-2.2,4.67-2.2Z"/><path class="e" d="M115.29,128.39c.54,1.96,2.02,2.95,4.42,2.95,1.55,0,2.72-.52,3.51-1.57l3.26,1.88c-1.55,2.24-3.83,3.36-6.84,3.36-2.59,0-4.67-.79-6.24-2.35-1.57-1.57-2.35-3.54-2.35-5.93s.77-4.33,2.32-5.91c1.55-1.58,3.53-2.37,5.96-2.37,2.3,0,4.2,.79,5.69,2.38,1.49,1.59,2.24,3.55,2.24,5.9,0,.52-.05,1.08-.16,1.66h-11.82Zm-.06-3.14h8c-.23-1.07-.71-1.86-1.43-2.38-.72-.52-1.54-.79-2.46-.79-1.09,0-1.99,.28-2.7,.83-.71,.55-1.18,1.33-1.41,2.34Z"/><path class="e" d="M135.08,121.59c.38-1,1-1.76,1.87-2.26,.87-.5,1.83-.75,2.9-.75v4.52c-1.23-.15-2.34,.11-3.31,.75-.97,.65-1.46,1.72-1.46,3.23v7.5h-4.04v-15.68h4.04v2.7Z"/><path class="e" d="M145.96,128.39c.54,1.96,2.02,2.95,4.42,2.95,1.55,0,2.72-.52,3.51-1.57l3.26,1.88c-1.55,2.24-3.83,3.36-6.84,3.36-2.59,0-4.67-.79-6.24-2.35-1.57-1.57-2.35-3.54-2.35-5.93s.77-4.33,2.32-5.91c1.55-1.58,3.53-2.37,5.96-2.37,2.3,0,4.2,.79,5.69,2.38,1.49,1.59,2.24,3.55,2.24,5.9,0,.52-.05,1.08-.16,1.66h-11.82Zm-.06-3.14h8c-.23-1.07-.71-1.86-1.43-2.38-.72-.52-1.54-.79-2.46-.79-1.09,0-1.99,.28-2.7,.83-.71,.55-1.18,1.33-1.41,2.34Z"/><path class="e" d="M165.16,112.59l-2.35,8.72h-3.29l1.25-8.72h4.39Z"/><path class="e" d="M170.71,123.34c0,.42,.28,.76,.83,1.02,.55,.26,1.23,.49,2.02,.69s1.59,.45,2.38,.75c.79,.3,1.47,.81,2.02,1.52,.55,.71,.83,1.6,.83,2.67,0,1.61-.6,2.85-1.8,3.71-1.2,.87-2.7,1.3-4.5,1.3-3.22,0-5.42-1.24-6.58-3.73l3.51-1.98c.46,1.36,1.48,2.04,3.07,2.04,1.44,0,2.16-.45,2.16-1.35,0-.42-.28-.76-.83-1.02s-1.23-.5-2.02-.71c-.79-.21-1.59-.47-2.38-.78-.79-.31-1.47-.81-2.02-1.49-.55-.68-.83-1.53-.83-2.55,0-1.55,.57-2.77,1.71-3.65s2.56-1.33,4.25-1.33c1.27,0,2.43,.29,3.48,.86,1.04,.58,1.87,1.4,2.48,2.46l-3.45,1.88c-.5-1.07-1.34-1.6-2.51-1.6-.52,0-.96,.12-1.3,.35s-.52,.54-.52,.94Z"/><path class="e" d="M203.19,118.89h4.05v15.68h-4.05v-1.85c-1.21,1.53-2.92,2.29-5.11,2.29s-3.88-.8-5.38-2.4c-1.5-1.6-2.24-3.56-2.24-5.88s.75-4.28,2.24-5.88c1.49-1.6,3.29-2.4,5.38-2.4,2.2,0,3.9,.76,5.11,2.29v-1.85Zm-7.46,11.02c.81,.83,1.85,1.24,3.1,1.24s2.29-.41,3.12-1.24c.83-.82,1.24-1.88,1.24-3.18s-.41-2.36-1.24-3.18c-.83-.83-1.87-1.24-3.12-1.24s-2.29,.41-3.1,1.24c-.82,.83-1.22,1.89-1.22,3.18s.41,2.36,1.22,3.18Z"/><path class="e" d="M220.63,134.57v-22.89h4.04v22.89h-4.04Z"/><path class="e" d="M242.68,132.61c-1.61,1.6-3.57,2.4-5.9,2.4s-4.28-.8-5.88-2.4c-1.6-1.6-2.4-3.56-2.4-5.88s.8-4.28,2.4-5.88c1.6-1.6,3.56-2.4,5.88-2.4s4.29,.8,5.9,2.4c1.61,1.6,2.42,3.56,2.42,5.88s-.8,4.28-2.42,5.88Zm-8.92-2.78c.8,.82,1.81,1.22,3.03,1.22s2.23-.41,3.04-1.22c.82-.81,1.22-1.85,1.22-3.1s-.41-2.29-1.22-3.11c-.82-.81-1.83-1.22-3.04-1.22s-2.22,.41-3.03,1.22c-.81,.82-1.21,1.85-1.21,3.11s.4,2.29,1.21,3.1Z"/><path class="e" d="M257.51,122.78h-3.54v6.52c0,.54,.14,.94,.41,1.19,.27,.25,.67,.39,1.19,.42,.52,.03,1.17,.03,1.94-.02v3.67c-2.78,.31-4.74,.05-5.88-.79-1.14-.84-1.71-2.33-1.71-4.48v-6.52h-2.73v-3.89h2.73v-3.17l4.04-1.22v4.39h3.54v3.89Z"/><path class="e" d="M283.69,132.61c-1.61,1.6-3.57,2.4-5.9,2.4s-4.28-.8-5.88-2.4c-1.6-1.6-2.4-3.56-2.4-5.88s.8-4.28,2.4-5.88c1.6-1.6,3.56-2.4,5.88-2.4s4.29,.8,5.9,2.4c1.61,1.6,2.42,3.56,2.42,5.88s-.8,4.28-2.42,5.88Zm-8.92-2.78c.8,.82,1.81,1.22,3.03,1.22s2.23-.41,3.04-1.22c.82-.81,1.22-1.85,1.22-3.1s-.41-2.29-1.22-3.11c-.82-.81-1.83-1.22-3.04-1.22s-2.22,.41-3.03,1.22c-.81,.82-1.21,1.85-1.21,3.11s.4,2.29,1.21,3.1Z"/><path class="e" d="M297.84,116.07c-2.22-.17-3.32,.72-3.32,2.66v.16h3.32v3.89h-3.32v11.79h-4.05v-11.79h-2.26v-3.89h2.26v-.16c0-2.21,.62-3.9,1.85-5.05,1.23-1.15,3.07-1.65,5.52-1.5v3.89Z"/><path class="e" d="M317.85,116.07c-2.22-.17-3.32,.72-3.32,2.66v.16h3.32v3.89h-3.32v11.79h-4.05v-11.79h-2.26v-3.89h2.26v-.16c0-2.21,.62-3.9,1.85-5.05,1.23-1.15,3.07-1.65,5.52-1.5v3.89Z"/><path class="e" d="M333.4,132.61c-1.61,1.6-3.57,2.4-5.9,2.4s-4.28-.8-5.88-2.4c-1.6-1.6-2.4-3.56-2.4-5.88s.8-4.28,2.4-5.88c1.6-1.6,3.56-2.4,5.88-2.4s4.29,.8,5.9,2.4c1.61,1.6,2.42,3.56,2.42,5.88s-.8,4.28-2.42,5.88Zm-8.92-2.78c.8,.82,1.81,1.22,3.03,1.22s2.23-.41,3.04-1.22c.82-.81,1.22-1.85,1.22-3.1s-.41-2.29-1.22-3.11c-.82-.81-1.83-1.22-3.04-1.22s-2.22,.41-3.03,1.22c-.81,.82-1.21,1.85-1.21,3.11s.4,2.29,1.21,3.1Z"/><path class="e" d="M351.62,118.89h3.95v14.93c0,2.43-.8,4.28-2.4,5.55s-3.53,1.91-5.79,1.91c-1.69,0-3.18-.32-4.47-.97-1.29-.65-2.27-1.6-2.96-2.85l3.45-1.98c.79,1.46,2.16,2.2,4.11,2.2,1.27,0,2.28-.33,3.01-1,.73-.67,1.1-1.62,1.1-2.86v-1.69c-1.19,1.59-2.87,2.38-5.02,2.38s-4.07-.78-5.57-2.34c-1.5-1.56-2.24-3.45-2.24-5.69s.75-4.11,2.26-5.68c1.5-1.57,3.36-2.35,5.55-2.35s3.83,.79,5.02,2.38v-1.94Zm-7.54,10.68c.83,.8,1.88,1.21,3.15,1.21s2.33-.4,3.15-1.21,1.24-1.83,1.24-3.09-.41-2.25-1.24-3.06-1.88-1.21-3.15-1.21-2.33,.4-3.15,1.21c-.83,.8-1.24,1.82-1.24,3.06s.41,2.29,1.24,3.09Z"/><path class="e" d="M364.41,134.19c-.52,.52-1.15,.78-1.88,.78s-1.36-.26-1.88-.78c-.52-.52-.78-1.15-.78-1.88s.26-1.36,.78-1.88c.52-.52,1.15-.78,1.88-.78s1.36,.26,1.88,.78c.52,.52,.78,1.15,.78,1.88s-.26,1.36-.78,1.88Z"/><path class="e" d="M99.54,150.25v2.76h-6.49v19.19h-2.88v-19.19h-6.46v-2.76h15.84Z"/><path class="e" d="M110.89,156.11c1.84,0,3.31,.58,4.42,1.74,1.11,1.16,1.66,2.73,1.66,4.72v9.63h-2.73v-9.47c0-1.27-.34-2.26-1.03-2.96-.69-.7-1.64-1.05-2.85-1.05-1.36,0-2.46,.42-3.29,1.27-.84,.85-1.25,2.15-1.25,3.9v8.31h-2.73v-21.95h2.73v8.53c1.11-1.78,2.8-2.67,5.08-2.67Z"/><path class="e" d="M123.62,165.61c.27,1.4,.92,2.49,1.93,3.26s2.26,1.16,3.75,1.16c2.07,0,3.57-.76,4.52-2.29l2.32,1.32c-1.53,2.36-3.83,3.54-6.9,3.54-2.49,0-4.51-.78-6.07-2.34-1.56-1.56-2.34-3.53-2.34-5.91s.76-4.33,2.29-5.89c1.53-1.57,3.5-2.35,5.93-2.35,2.3,0,4.18,.81,5.63,2.43,1.45,1.62,2.18,3.57,2.18,5.85,0,.4-.03,.8-.09,1.22h-13.14Zm5.43-6.93c-1.46,0-2.68,.41-3.64,1.24-.96,.83-1.56,1.93-1.79,3.31h10.47c-.23-1.48-.82-2.61-1.76-3.39-.94-.77-2.04-1.16-3.29-1.16Z"/><path class="e" d="M157.08,172.61c-2.36,0-4.33-.79-5.9-2.37-1.57-1.58-2.35-3.54-2.35-5.88s.78-4.3,2.35-5.88c1.57-1.58,3.53-2.37,5.9-2.37,1.55,0,2.94,.37,4.17,1.11,1.23,.74,2.15,1.74,2.76,3l-2.29,1.32c-.4-.84-1.01-1.51-1.83-2.01-.83-.5-1.76-.75-2.81-.75-1.57,0-2.88,.53-3.94,1.6-1.06,1.07-1.58,2.39-1.58,3.98s.53,2.88,1.58,3.95c1.05,1.07,2.37,1.6,3.94,1.6,1.04,0,1.99-.25,2.82-.74,.84-.49,1.47-1.15,1.91-1.99l2.32,1.35c-.67,1.23-1.63,2.22-2.88,2.96-1.25,.74-2.65,1.11-4.17,1.11Z"/><path class="e" d="M180.54,156.52h2.73v15.68h-2.73v-2.7c-1.36,2.07-3.33,3.11-5.93,3.11-2.2,0-4.07-.8-5.61-2.4-1.55-1.6-2.32-3.55-2.32-5.85s.77-4.25,2.32-5.85c1.55-1.6,3.42-2.4,5.61-2.4,2.59,0,4.57,1.04,5.93,3.11v-2.7Zm-5.58,13.45c1.59,0,2.92-.54,3.98-1.62,1.07-1.08,1.6-2.41,1.6-4s-.53-2.92-1.6-4-2.39-1.62-3.98-1.62-2.88,.54-3.95,1.62-1.6,2.41-1.6,4,.53,2.92,1.6,4c1.07,1.08,2.38,1.62,3.95,1.62Z"/><path class="e" d="M197,156.11c2.2,0,4.07,.8,5.61,2.4,1.55,1.6,2.32,3.55,2.32,5.85s-.77,4.25-2.32,5.85c-1.55,1.6-3.42,2.4-5.61,2.4-2.59,0-4.57-1.04-5.93-3.11v8.97h-2.73v-21.95h2.73v2.7c1.36-2.07,3.33-3.11,5.93-3.11Zm-.34,13.86c1.57,0,2.89-.54,3.95-1.62,1.07-1.08,1.6-2.41,1.6-4s-.53-2.92-1.6-4c-1.07-1.08-2.38-1.62-3.95-1.62s-2.92,.54-3.98,1.62-1.6,2.41-1.6,4,.53,2.92,1.6,4c1.07,1.08,2.39,1.62,3.98,1.62Z"/><path class="e" d="M217.32,159.16h-4.17v8.5c0,.77,.15,1.32,.46,1.65,.3,.32,.77,.49,1.4,.5,.63,0,1.4,0,2.32-.05v2.45c-2.38,.31-4.13,.12-5.24-.58-1.11-.7-1.66-2.02-1.66-3.97v-8.5h-3.1v-2.63h3.1v-3.57l2.73-.82v4.39h4.17v2.63Z"/><path class="e" d="M233.69,156.52h2.73v15.68h-2.73v-2.7c-1.36,2.07-3.33,3.11-5.93,3.11-2.2,0-4.07-.8-5.61-2.4-1.55-1.6-2.32-3.55-2.32-5.85s.77-4.25,2.32-5.85c1.55-1.6,3.42-2.4,5.61-2.4,2.59,0,4.57,1.04,5.93,3.11v-2.7Zm-5.58,13.45c1.59,0,2.92-.54,3.98-1.62,1.07-1.08,1.6-2.41,1.6-4s-.53-2.92-1.6-4-2.39-1.62-3.98-1.62-2.88,.54-3.95,1.62-1.6,2.41-1.6,4,.53,2.92,1.6,4c1.07,1.08,2.38,1.62,3.95,1.62Z"/><path class="e" d="M242.88,153.67c-.52,0-.96-.18-1.32-.53-.36-.36-.53-.78-.53-1.29s.18-.94,.53-1.3c.35-.37,.79-.55,1.32-.55s.93,.18,1.29,.55c.36,.37,.53,.8,.53,1.3s-.18,.93-.53,1.29-.78,.53-1.29,.53Zm-1.38,18.53v-15.68h2.73v15.68h-2.73Z"/><path class="e" d="M257.15,156.11c1.84,0,3.31,.58,4.42,1.74,1.11,1.16,1.66,2.73,1.66,4.72v9.63h-2.73v-9.47c0-1.27-.34-2.26-1.03-2.96-.69-.7-1.64-1.05-2.85-1.05-1.36,0-2.46,.42-3.29,1.27-.84,.85-1.25,2.15-1.25,3.9v8.31h-2.73v-15.68h2.73v2.26c1.11-1.78,2.8-2.67,5.08-2.67Z"/><path class="e" d="M295.22,156.52h2.56l-4.57,15.68h-2.79l-3.74-11.76-3.72,11.76h-2.92l-4.61-15.68h2.86l3.45,11.92,3.7-11.92h2.69l3.69,11.92,3.4-11.92Z"/><path class="e" d="M314.44,170.23c-1.61,1.59-3.56,2.38-5.86,2.38s-4.25-.79-5.85-2.38c-1.6-1.59-2.4-3.54-2.4-5.87s.8-4.28,2.4-5.86c1.6-1.59,3.55-2.38,5.85-2.38s4.25,.79,5.86,2.38c1.61,1.59,2.41,3.54,2.41,5.86s-.8,4.28-2.41,5.87Zm-5.86-.28c1.57,0,2.88-.53,3.95-1.6s1.6-2.39,1.6-3.98-.53-2.92-1.6-3.98-2.38-1.6-3.95-1.6-2.85,.53-3.92,1.6-1.6,2.39-1.6,3.98,.53,2.92,1.6,3.98,2.37,1.6,3.92,1.6Z"/><path class="e" d="M328.84,156.11c1.84,0,3.31,.58,4.42,1.74,1.11,1.16,1.66,2.73,1.66,4.72v9.63h-2.73v-9.47c0-1.27-.34-2.26-1.03-2.96-.69-.7-1.64-1.05-2.85-1.05-1.36,0-2.46,.42-3.29,1.27-.84,.85-1.25,2.15-1.25,3.9v8.31h-2.73v-15.68h2.73v2.26c1.11-1.78,2.8-2.67,5.08-2.67Z"/><path class="e" d="M342.13,150.22l-2.04,7.62h-2.35l1.25-7.62h3.14Z"/><path class="e" d="M355.46,159.16h-4.17v8.5c0,.77,.15,1.32,.46,1.65,.3,.32,.77,.49,1.4,.5,.63,0,1.4,0,2.32-.05v2.45c-2.38,.31-4.13,.12-5.24-.58-1.11-.7-1.66-2.02-1.66-3.97v-8.5h-3.1v-2.63h3.1v-3.57l2.73-.82v4.39h4.17v2.63Z"/><path class="e" d="M71,193.75c2.2,0,4.07,.8,5.61,2.4,1.55,1.6,2.32,3.55,2.32,5.85s-.77,4.25-2.32,5.85c-1.55,1.6-3.42,2.4-5.61,2.4-2.59,0-4.57-1.03-5.93-3.1v2.7h-2.73v-21.95h2.73v8.97c1.36-2.07,3.33-3.11,5.93-3.11Zm-.34,13.86c1.57,0,2.89-.54,3.95-1.62,1.07-1.08,1.6-2.41,1.6-4s-.53-2.92-1.6-4c-1.07-1.08-2.38-1.62-3.95-1.62s-2.92,.54-3.98,1.62c-1.07,1.08-1.6,2.41-1.6,4s.53,2.92,1.6,4,2.39,1.62,3.98,1.62Z"/><path class="e" d="M85.05,203.25c.27,1.4,.92,2.49,1.93,3.26s2.26,1.16,3.75,1.16c2.07,0,3.57-.76,4.52-2.29l2.32,1.32c-1.53,2.36-3.83,3.54-6.9,3.54-2.49,0-4.51-.78-6.07-2.34-1.56-1.56-2.34-3.53-2.34-5.91s.76-4.33,2.29-5.9,3.5-2.35,5.93-2.35c2.3,0,4.18,.81,5.63,2.43,1.45,1.62,2.18,3.57,2.18,5.85,0,.4-.03,.8-.09,1.22h-13.14Zm5.43-6.93c-1.46,0-2.68,.41-3.64,1.24-.96,.83-1.56,1.93-1.79,3.31h10.47c-.23-1.48-.82-2.61-1.76-3.39-.94-.77-2.04-1.16-3.29-1.16Z"/><path class="e" d="M124.12,194.15h2.73v15.68h-2.73v-2.7c-1.36,2.07-3.33,3.1-5.93,3.1-2.2,0-4.07-.8-5.61-2.4-1.55-1.6-2.32-3.55-2.32-5.85s.77-4.25,2.32-5.85c1.55-1.6,3.42-2.4,5.61-2.4,2.59,0,4.57,1.04,5.93,3.11v-2.7Zm-5.58,13.45c1.59,0,2.92-.54,3.98-1.62s1.6-2.41,1.6-4-.53-2.92-1.6-4c-1.07-1.08-2.39-1.62-3.98-1.62s-2.88,.54-3.95,1.62c-1.07,1.08-1.6,2.41-1.6,4s.53,2.92,1.6,4,2.38,1.62,3.95,1.62Z"/><path class="e" d="M140.59,193.75c2.2,0,4.07,.8,5.61,2.4,1.55,1.6,2.32,3.55,2.32,5.85s-.77,4.25-2.32,5.85c-1.55,1.6-3.42,2.4-5.61,2.4-2.59,0-4.57-1.03-5.93-3.1v2.7h-2.73v-21.95h2.73v8.97c1.36-2.07,3.33-3.11,5.93-3.11Zm-.34,13.86c1.57,0,2.89-.54,3.95-1.62,1.07-1.08,1.6-2.41,1.6-4s-.53-2.92-1.6-4c-1.07-1.08-2.38-1.62-3.95-1.62s-2.92,.54-3.98,1.62c-1.07,1.08-1.6,2.41-1.6,4s.53,2.92,1.6,4,2.39,1.62,3.98,1.62Z"/><path class="e" d="M152.72,209.83v-22.89h2.73v22.89h-2.73Z"/><path class="e" d="M162.47,203.25c.27,1.4,.92,2.49,1.93,3.26s2.26,1.16,3.75,1.16c2.07,0,3.57-.76,4.52-2.29l2.32,1.32c-1.53,2.36-3.83,3.54-6.9,3.54-2.49,0-4.51-.78-6.07-2.34-1.56-1.56-2.34-3.53-2.34-5.91s.76-4.33,2.29-5.9,3.5-2.35,5.93-2.35c2.3,0,4.18,.81,5.63,2.43,1.45,1.62,2.18,3.57,2.18,5.85,0,.4-.03,.8-.09,1.22h-13.14Zm5.43-6.93c-1.46,0-2.68,.41-3.64,1.24-.96,.83-1.56,1.93-1.79,3.31h10.47c-.23-1.48-.82-2.61-1.76-3.39-.94-.77-2.04-1.16-3.29-1.16Z"/><path class="e" d="M197.1,196.79h-4.17v8.5c0,.77,.15,1.32,.46,1.65,.3,.32,.77,.49,1.4,.5,.63,.01,1.4,0,2.32-.05v2.45c-2.38,.31-4.13,.12-5.24-.58-1.11-.7-1.66-2.02-1.66-3.97v-8.5h-3.1v-2.63h3.1v-3.58l2.73-.81v4.39h4.17v2.63Z"/><path class="e" d="M213.72,207.86c-1.61,1.59-3.56,2.38-5.86,2.38s-4.25-.79-5.85-2.38c-1.6-1.59-2.4-3.54-2.4-5.86s.8-4.28,2.4-5.87c1.6-1.59,3.55-2.38,5.85-2.38s4.25,.79,5.86,2.38c1.61,1.59,2.41,3.54,2.41,5.87s-.8,4.28-2.41,5.86Zm-5.86-.28c1.57,0,2.88-.53,3.95-1.6s1.6-2.39,1.6-3.98-.53-2.92-1.6-3.98c-1.07-1.07-2.38-1.6-3.95-1.6s-2.85,.53-3.92,1.6c-1.07,1.06-1.6,2.39-1.6,3.98s.53,2.92,1.6,3.98,2.37,1.6,3.92,1.6Z"/><path class="e" d="M231.43,198.34c0,.59,.31,1.07,.92,1.43,.62,.36,1.35,.66,2.2,.91,.85,.25,1.71,.5,2.57,.76,.86,.25,1.59,.73,2.19,1.42,.6,.7,.9,1.59,.9,2.68,0,1.42-.55,2.56-1.65,3.42s-2.5,1.29-4.22,1.29c-1.53,0-2.83-.33-3.92-1-1.09-.67-1.86-1.56-2.32-2.67l2.35-1.35c.25,.75,.72,1.35,1.41,1.79,.69,.44,1.52,.66,2.48,.66,.9,0,1.64-.17,2.23-.52,.58-.34,.88-.88,.88-1.61,0-.61-.3-1.09-.91-1.46-.61-.37-1.34-.68-2.19-.93-.85-.26-1.71-.51-2.57-.77-.86-.26-1.6-.72-2.2-1.39s-.91-1.53-.91-2.57c0-1.36,.53-2.48,1.58-3.36,1.05-.88,2.38-1.32,3.97-1.32,1.27,0,2.41,.29,3.4,.86,.99,.58,1.74,1.38,2.24,2.4l-2.29,1.29c-.56-1.34-1.68-2.01-3.36-2.01-.77,0-1.43,.18-1.98,.54-.54,.36-.82,.87-.82,1.52Z"/><path class="e" d="M245.86,203.25c.27,1.4,.92,2.49,1.93,3.26s2.26,1.16,3.75,1.16c2.07,0,3.57-.76,4.52-2.29l2.32,1.32c-1.53,2.36-3.83,3.54-6.9,3.54-2.49,0-4.51-.78-6.07-2.34-1.56-1.56-2.34-3.53-2.34-5.91s.76-4.33,2.29-5.9,3.5-2.35,5.93-2.35c2.3,0,4.18,.81,5.63,2.43,1.45,1.62,2.18,3.57,2.18,5.85,0,.4-.03,.8-.09,1.22h-13.14Zm5.43-6.93c-1.46,0-2.68,.41-3.64,1.24-.96,.83-1.56,1.93-1.79,3.31h10.47c-.23-1.48-.82-2.61-1.76-3.39-.94-.77-2.04-1.16-3.29-1.16Z"/><path class="e" d="M265.05,203.25c.27,1.4,.92,2.49,1.93,3.26s2.26,1.16,3.75,1.16c2.07,0,3.57-.76,4.52-2.29l2.32,1.32c-1.53,2.36-3.83,3.54-6.9,3.54-2.49,0-4.51-.78-6.07-2.34-1.56-1.56-2.34-3.53-2.34-5.91s.76-4.33,2.29-5.9,3.5-2.35,5.93-2.35c2.3,0,4.18,.81,5.63,2.43,1.45,1.62,2.18,3.57,2.18,5.85,0,.4-.03,.8-.09,1.22h-13.14Zm5.43-6.93c-1.46,0-2.68,.41-3.64,1.24-.96,.83-1.56,1.93-1.79,3.31h10.47c-.23-1.48-.82-2.61-1.76-3.39-.94-.77-2.04-1.16-3.29-1.16Z"/><path class="e" d="M308.08,193.75c1.76,0,3.18,.57,4.26,1.71,1.09,1.14,1.63,2.68,1.63,4.62v9.75h-2.73v-9.66c0-1.21-.31-2.15-.94-2.82-.63-.67-1.46-1-2.51-1-1.17,0-2.11,.39-2.81,1.18-.7,.78-1.05,1.98-1.05,3.59v8.72h-2.73v-9.66c0-1.21-.3-2.15-.89-2.82-.6-.67-1.41-1-2.43-1-1.15,0-2.11,.4-2.87,1.19-.76,.79-1.14,1.99-1.14,3.57v8.72h-2.73v-15.68h2.73v2.1c1.07-1.67,2.62-2.51,4.67-2.51s3.65,.89,4.61,2.67c1.09-1.78,2.73-2.67,4.92-2.67Z"/><path class="e" d="M329.53,194.15h2.73v15.68h-2.73v-2.26c-1.11,1.78-2.8,2.66-5.08,2.66-1.84,0-3.31-.58-4.42-1.74s-1.66-2.73-1.66-4.72v-9.63h2.73v9.47c0,1.28,.34,2.26,1.04,2.96,.69,.7,1.64,1.05,2.85,1.05,1.36,0,2.46-.42,3.29-1.27,.84-.85,1.25-2.15,1.25-3.9v-8.31Z"/><path class="e" d="M344.7,210.24c-2.36,0-4.33-.79-5.9-2.37-1.57-1.58-2.35-3.54-2.35-5.88s.78-4.3,2.35-5.88c1.57-1.58,3.53-2.37,5.9-2.37,1.55,0,2.94,.37,4.17,1.11,1.23,.74,2.15,1.74,2.76,2.99l-2.29,1.32c-.4-.84-1.01-1.51-1.83-2.01-.83-.5-1.76-.75-2.81-.75-1.57,0-2.88,.53-3.94,1.6-1.06,1.06-1.58,2.39-1.58,3.98s.53,2.88,1.58,3.95c1.05,1.07,2.37,1.6,3.94,1.6,1.04,0,1.99-.25,2.82-.74,.84-.49,1.47-1.15,1.91-1.99l2.32,1.35c-.67,1.23-1.63,2.22-2.88,2.96-1.25,.74-2.65,1.11-4.17,1.11Z"/><path class="e" d="M363.21,193.75c1.84,0,3.31,.58,4.42,1.74s1.66,2.73,1.66,4.72v9.63h-2.73v-9.47c0-1.28-.34-2.26-1.03-2.96-.69-.7-1.64-1.05-2.85-1.05-1.36,0-2.46,.42-3.29,1.27-.84,.85-1.25,2.15-1.25,3.9v8.31h-2.73v-21.95h2.73v8.53c1.11-1.78,2.8-2.67,5.08-2.67Z"/><path class="e" d="M375.75,210.18c-.56,0-1.05-.2-1.44-.6-.4-.4-.6-.88-.6-1.44s.2-1.04,.6-1.44c.4-.4,.88-.6,1.44-.6s1.07,.2,1.46,.6c.39,.4,.58,.88,.58,1.44s-.19,1.04-.58,1.44c-.39,.4-.87,.6-1.46,.6Z"/></g><path class="e" d="M422.96,97.57s59.35-25.3,55.34-86.36c-.22-3.28-4.24-4.7-6.46-2.27-8.54,9.38-23.26,26.45-47.34,30.67"/></g><g><circle class="f" cx="210.3" cy="53.64" r="26.41"/><path class="e" d="M212.19,63.49c-.52,.52-1.15,.78-1.88,.78s-1.36-.26-1.88-.78-.78-1.15-.78-1.88,.26-1.36,.78-1.88c.52-.52,1.15-.78,1.88-.78s1.36,.26,1.88,.78c.52,.52,.78,1.15,.78,1.88s-.26,1.36-.78,1.88Zm-3.48-6.99l-.85-8.31v-6.27h4.86v6.27l-.82,8.31h-3.2Z"/></g></g></g></g></svg>