<?xml version="1.0" encoding="UTF-8"?><svg xmlns="http://www.w3.org/2000/svg" viewBox="0 0 332.89 309.84"><defs><style>.d{fill:#e7ff00;}.e{fill:#fff;}.f{fill:#32325b;}.g{stroke-width:2px;}.g,.h{stroke:#fff;stroke-miterlimit:10;}.g,.h,.i{fill:none;}.i{stroke:#111;stroke-linecap:round;stroke-linejoin:round;stroke-width:3px;}.j{fill:#232323;opacity:.3;}</style></defs><g id="a"/><g id="b"><g id="c"><g><path class="f" d="M320.09,45.87v235.29c0,17.6-14.27,28.12-31.86,28.12H31.86c-17.6,0-31.86-14.27-31.86-31.86V45.87C0,28.28,14.27,14.01,31.86,14.01H288.23c17.6,0,31.86,14.27,31.86,31.86Z"/><path class="j" d="M320.09,126.6v156.75c0,14.63-11.86,26.5-26.5,26.5H26.5c-14.63,0-26.5-11.86-26.5-26.5V126.6"/><line class="g" x1=".7" y1="125.61" x2="320.09" y2="125.61"/><line class="h" x1=".7" y1="185.07" x2="320.09" y2="185.07"/><g><path class="e" d="M241.25,163.7c-1.23,1.72-2.95,2.57-5.17,2.57s-3.94-.86-5.17-2.57-1.84-4-1.84-6.86,.61-5.15,1.84-6.86c1.23-1.71,2.95-2.57,5.17-2.57s3.94,.86,5.17,2.57c1.23,1.72,1.85,4,1.85,6.86s-.62,5.15-1.85,6.86Zm-8.58-1.64c.8,1.23,1.93,1.85,3.41,1.85s2.61-.62,3.42-1.85c.81-1.23,1.21-2.97,1.21-5.22s-.4-4-1.21-5.24c-.81-1.24-1.95-1.86-3.42-1.86s-2.61,.62-3.41,1.84c-.8,1.23-1.2,2.98-1.2,5.25s.4,3.99,1.2,5.22Z"/><path class="e" d="M264.02,147.74v18.19h-2.39v-14.22l-5.95,9.9h-.29l-5.97-9.92v14.23h-2.42v-18.19h2.73l5.82,9.66,5.77-9.66h2.7Z"/><path class="e" d="M272.49,165.94l-5.09-18.19h2.54l4.16,14.97,4.42-14.97h2.44l4.42,14.97,4.16-14.97h2.41l-5.08,18.19h-2.81l-4.33-14.57-4.33,14.57h-2.91Z"/></g><g><path class="e" d="M111.88,218.95v2.29h-5.38v15.91h-2.39v-15.91h-5.35v-2.29h13.13Z"/><path class="e" d="M121.71,224.15h2.26v13h-2.26v-1.87c-.92,1.47-2.32,2.21-4.21,2.21-1.52,0-2.75-.48-3.67-1.44-.92-.96-1.38-2.27-1.38-3.91v-7.98h2.26v7.85c0,1.06,.29,1.88,.86,2.46,.57,.58,1.36,.87,2.37,.87,1.13,0,2.04-.35,2.73-1.05,.69-.7,1.04-1.78,1.04-3.24v-6.89Z"/><path class="e" d="M130.44,226.34c.75-1.61,2.1-2.42,4.05-2.42v2.37c-1.11-.05-2.06,.24-2.86,.88-.8,.64-1.2,1.67-1.2,3.09v6.89h-2.26v-13h2.26v2.18Z"/><path class="e" d="M144.66,223.82c1.82,0,3.37,.66,4.65,1.99,1.28,1.33,1.92,2.94,1.92,4.85s-.64,3.52-1.92,4.85c-1.28,1.32-2.83,1.99-4.65,1.99-2.15,0-3.79-.86-4.91-2.57v2.24h-2.26v-18.2h2.26v7.43c1.13-1.71,2.76-2.57,4.91-2.57Zm-.29,11.49c1.3,0,2.39-.45,3.27-1.34s1.33-2,1.33-3.31-.44-2.42-1.33-3.31-1.98-1.34-3.27-1.34-2.42,.45-3.3,1.34c-.88,.89-1.33,2-1.33,3.31s.44,2.42,1.33,3.31c.88,.89,1.98,1.34,3.3,1.34Z"/><path class="e" d="M155.86,221.79c-.43,0-.8-.15-1.09-.44-.29-.29-.44-.65-.44-1.07s.15-.78,.44-1.08c.29-.3,.66-.46,1.09-.46s.77,.15,1.07,.46c.29,.3,.44,.66,.44,1.08s-.15,.77-.44,1.07c-.29,.29-.65,.44-1.07,.44Zm-1.14,15.36v-13h2.26v13h-2.26Z"/><path class="e" d="M167.69,223.82c1.52,0,2.75,.48,3.67,1.44,.92,.96,1.38,2.27,1.38,3.91v7.98h-2.26v-7.85c0-1.06-.29-1.88-.86-2.46-.57-.58-1.36-.87-2.37-.87-1.13,0-2.04,.35-2.73,1.05-.69,.7-1.04,1.78-1.04,3.24v6.89h-2.26v-13h2.26v1.87c.92-1.47,2.32-2.21,4.21-2.21Z"/><path class="e" d="M178.24,231.69c.23,1.16,.76,2.06,1.6,2.7,.84,.64,1.88,.96,3.11,.96,1.71,0,2.96-.63,3.74-1.9l1.92,1.09c-1.27,1.96-3.17,2.94-5.72,2.94-2.06,0-3.74-.65-5.03-1.94-1.29-1.29-1.94-2.92-1.94-4.9s.63-3.59,1.9-4.89,2.9-1.95,4.91-1.95c1.91,0,3.46,.67,4.67,2.01,1.2,1.34,1.81,2.96,1.81,4.85,0,.33-.03,.67-.08,1.01h-10.89Zm4.5-5.74c-1.21,0-2.22,.34-3.02,1.03-.8,.68-1.29,1.6-1.48,2.74h8.68c-.19-1.23-.68-2.17-1.46-2.81-.78-.64-1.69-.96-2.73-.96Z"/><path class="e" d="M201.01,221.79c-.43,0-.8-.15-1.09-.44-.29-.29-.44-.65-.44-1.07s.15-.78,.44-1.08c.29-.3,.66-.46,1.09-.46s.77,.15,1.07,.46c.29,.3,.44,.66,.44,1.08s-.15,.77-.44,1.07c-.29,.29-.65,.44-1.07,.44Zm-1.14,15.36v-13h2.26v13h-2.26Z"/><path class="e" d="M208.28,227.62c0,.49,.25,.88,.77,1.18,.51,.3,1.12,.55,1.82,.76s1.42,.42,2.13,.62c.71,.21,1.32,.6,1.81,1.18,.5,.58,.74,1.32,.74,2.22,0,1.18-.46,2.12-1.36,2.83-.91,.71-2.08,1.07-3.5,1.07-1.26,0-2.35-.28-3.25-.83-.9-.55-1.54-1.29-1.92-2.21l1.95-1.12c.21,.62,.6,1.12,1.17,1.48,.57,.36,1.26,.55,2.05,.55,.75,0,1.36-.14,1.85-.43,.48-.29,.73-.73,.73-1.34,0-.5-.25-.9-.75-1.21s-1.11-.56-1.81-.77-1.42-.43-2.13-.64c-.71-.21-1.32-.6-1.83-1.15-.5-.55-.75-1.27-.75-2.13,0-1.13,.44-2.05,1.31-2.78,.87-.73,1.97-1.09,3.29-1.09,1.06,0,2,.24,2.82,.71s1.44,1.14,1.86,1.99l-1.9,1.07c-.47-1.11-1.39-1.66-2.78-1.66-.64,0-1.19,.15-1.64,.45-.45,.29-.68,.71-.68,1.26Z"/><path class="e" d="M70.22,255.01c1.82,0,3.37,.66,4.65,1.99,1.28,1.33,1.92,2.94,1.92,4.85s-.64,3.52-1.92,4.85c-1.28,1.32-2.83,1.99-4.65,1.99-2.15,0-3.79-.86-4.91-2.57v2.24h-2.26v-18.2h2.26v7.43c1.13-1.71,2.76-2.57,4.91-2.57Zm-.29,11.49c1.3,0,2.39-.45,3.27-1.34s1.33-2,1.33-3.31-.44-2.42-1.33-3.31-1.98-1.34-3.27-1.34-2.42,.45-3.3,1.34c-.88,.89-1.33,2-1.33,3.31s.44,2.42,1.33,3.31c.88,.89,1.98,1.34,3.3,1.34Z"/><path class="e" d="M81.86,262.88c.23,1.16,.76,2.06,1.6,2.7,.84,.64,1.88,.96,3.11,.96,1.71,0,2.96-.63,3.74-1.9l1.92,1.09c-1.27,1.96-3.17,2.94-5.72,2.94-2.06,0-3.74-.65-5.03-1.94-1.29-1.29-1.94-2.92-1.94-4.9s.63-3.59,1.9-4.89,2.9-1.95,4.91-1.95c1.91,0,3.46,.67,4.67,2.01,1.2,1.34,1.81,2.96,1.81,4.85,0,.33-.03,.67-.08,1.01h-10.89Zm4.5-5.74c-1.21,0-2.22,.34-3.02,1.03-.8,.68-1.29,1.6-1.48,2.74h8.68c-.19-1.23-.68-2.17-1.46-2.81-.78-.64-1.69-.96-2.73-.96Z"/><path class="e" d="M97.35,252.98c-.43,0-.8-.15-1.09-.44-.29-.29-.44-.65-.44-1.07s.15-.78,.44-1.08c.29-.3,.66-.46,1.09-.46s.77,.15,1.07,.46c.29,.3,.44,.66,.44,1.08s-.15,.77-.44,1.07c-.29,.29-.65,.44-1.07,.44Zm-1.14,15.36v-13h2.26v13h-2.26Z"/><path class="e" d="M109.18,255.01c1.52,0,2.75,.48,3.67,1.44,.92,.96,1.38,2.27,1.38,3.91v7.98h-2.26v-7.85c0-1.06-.29-1.88-.86-2.46-.57-.58-1.36-.87-2.37-.87-1.13,0-2.04,.35-2.73,1.05-.69,.7-1.04,1.78-1.04,3.24v6.89h-2.26v-13h2.26v1.87c.92-1.47,2.32-2.21,4.21-2.21Z"/><path class="e" d="M128.93,255.34h2.24v12.45c0,1.92-.65,3.42-1.95,4.48-1.3,1.06-2.86,1.6-4.68,1.6-1.46,0-2.71-.27-3.77-.82-1.06-.54-1.85-1.33-2.39-2.35l1.98-1.12c.71,1.46,2.12,2.18,4.24,2.18,1.35,0,2.41-.36,3.18-1.06,.77-.71,1.16-1.68,1.16-2.91v-1.85c-1.14,1.73-2.77,2.6-4.89,2.6-1.85,0-3.42-.66-4.7-1.97s-1.92-2.92-1.92-4.81,.64-3.49,1.92-4.79,2.85-1.96,4.7-1.96c2.13,0,3.76,.86,4.89,2.57v-2.23Zm-7.93,9.72c.88,.88,1.98,1.33,3.3,1.33s2.42-.44,3.3-1.33,1.33-1.98,1.33-3.3-.44-2.39-1.33-3.28c-.88-.88-1.98-1.33-3.3-1.33s-2.42,.44-3.3,1.33c-.88,.88-1.33,1.98-1.33,3.28s.44,2.42,1.33,3.3Z"/><path class="e" d="M144.61,258.81c0,.49,.25,.88,.77,1.18,.51,.3,1.12,.55,1.82,.76s1.42,.42,2.13,.62c.71,.21,1.32,.6,1.81,1.18,.5,.58,.74,1.32,.74,2.22,0,1.18-.46,2.12-1.36,2.83-.91,.71-2.08,1.07-3.5,1.07-1.26,0-2.35-.28-3.25-.83-.9-.55-1.54-1.29-1.92-2.21l1.95-1.12c.21,.62,.6,1.12,1.17,1.48,.57,.36,1.26,.55,2.05,.55,.75,0,1.36-.14,1.85-.43,.48-.29,.73-.73,.73-1.34,0-.5-.25-.9-.75-1.21s-1.11-.56-1.81-.77-1.42-.43-2.13-.64c-.71-.21-1.32-.6-1.83-1.15-.5-.55-.75-1.27-.75-2.13,0-1.13,.44-2.05,1.31-2.78,.87-.73,1.97-1.09,3.29-1.09,1.06,0,2,.24,2.82,.71s1.44,1.14,1.86,1.99l-1.9,1.07c-.47-1.11-1.39-1.66-2.78-1.66-.64,0-1.19,.15-1.64,.45-.45,.29-.68,.71-.68,1.26Z"/><path class="e" d="M156.56,262.88c.23,1.16,.76,2.06,1.6,2.7,.84,.64,1.88,.96,3.11,.96,1.71,0,2.96-.63,3.74-1.9l1.92,1.09c-1.27,1.96-3.17,2.94-5.72,2.94-2.06,0-3.74-.65-5.03-1.94-1.29-1.29-1.94-2.92-1.94-4.9s.63-3.59,1.9-4.89,2.9-1.95,4.91-1.95c1.91,0,3.46,.67,4.67,2.01,1.2,1.34,1.81,2.96,1.81,4.85,0,.33-.03,.67-.08,1.01h-10.89Zm4.5-5.74c-1.21,0-2.22,.34-3.02,1.03-.8,.68-1.29,1.6-1.48,2.74h8.68c-.19-1.23-.68-2.17-1.46-2.81-.78-.64-1.69-.96-2.73-.96Z"/><path class="e" d="M173.17,257.53c.75-1.61,2.1-2.42,4.05-2.42v2.37c-1.11-.05-2.06,.24-2.86,.88-.8,.64-1.2,1.67-1.2,3.09v6.89h-2.26v-13h2.26v2.18Z"/><path class="e" d="M189.31,255.34h2.44l-5.2,13h-2.65l-5.2-13h2.44l4.08,10.55,4.08-10.55Z"/><path class="e" d="M195.6,252.98c-.43,0-.8-.15-1.09-.44-.29-.29-.44-.65-.44-1.07s.15-.78,.44-1.08c.29-.3,.66-.46,1.09-.46s.77,.15,1.07,.46c.29,.3,.44,.66,.44,1.08s-.15,.77-.44,1.07c-.29,.29-.65,.44-1.07,.44Zm-1.14,15.36v-13h2.26v13h-2.26Z"/><path class="e" d="M207.06,268.68c-1.96,0-3.59-.65-4.89-1.96-1.3-1.31-1.95-2.93-1.95-4.87s.65-3.56,1.95-4.87c1.3-1.31,2.93-1.96,4.89-1.96,1.28,0,2.43,.31,3.46,.92,1.02,.62,1.78,1.44,2.29,2.48l-1.9,1.09c-.33-.69-.84-1.25-1.52-1.66-.68-.41-1.46-.62-2.33-.62-1.3,0-2.39,.44-3.26,1.33-.88,.88-1.31,1.98-1.31,3.3s.44,2.39,1.31,3.28c.88,.88,1.96,1.32,3.26,1.32,.87,0,1.65-.2,2.34-.61,.69-.41,1.22-.96,1.58-1.65l1.92,1.12c-.55,1.02-1.35,1.84-2.39,2.46-1.04,.62-2.19,.92-3.46,.92Z"/><path class="e" d="M217.33,262.88c.23,1.16,.76,2.06,1.6,2.7,.84,.64,1.88,.96,3.11,.96,1.71,0,2.96-.63,3.74-1.9l1.92,1.09c-1.27,1.96-3.17,2.94-5.72,2.94-2.06,0-3.74-.65-5.03-1.94-1.29-1.29-1.94-2.92-1.94-4.9s.63-3.59,1.9-4.89,2.9-1.95,4.91-1.95c1.91,0,3.46,.67,4.67,2.01,1.2,1.34,1.81,2.96,1.81,4.85,0,.33-.03,.67-.08,1.01h-10.89Zm4.5-5.74c-1.21,0-2.22,.34-3.02,1.03-.8,.68-1.29,1.6-1.48,2.74h8.68c-.19-1.23-.68-2.17-1.46-2.81-.78-.64-1.69-.96-2.73-.96Z"/><path class="e" d="M242.41,250.14h2.26v18.2h-2.26v-2.24c-1.13,1.72-2.76,2.57-4.91,2.57-1.82,0-3.37-.66-4.65-1.99-1.28-1.33-1.92-2.94-1.92-4.85s.64-3.52,1.92-4.85,2.83-1.99,4.65-1.99c2.15,0,3.79,.86,4.91,2.57v-7.43Zm-4.63,16.35c1.32,0,2.42-.45,3.3-1.34s1.33-2,1.33-3.31-.44-2.42-1.33-3.31-1.98-1.34-3.3-1.34-2.39,.45-3.28,1.34-1.33,2-1.33,3.31,.44,2.42,1.33,3.31,1.98,1.34,3.28,1.34Z"/><path class="e" d="M250.31,268.62c-.47,0-.87-.16-1.2-.49-.33-.33-.49-.73-.49-1.2s.17-.87,.49-1.2c.33-.33,.73-.49,1.2-.49s.89,.17,1.21,.49c.32,.33,.48,.73,.48,1.2s-.16,.87-.48,1.2c-.32,.33-.72,.49-1.21,.49Z"/></g><g><path class="e" d="M54.27,72.28c2.72,1.57,4.08,3.93,4.08,7.1,0,2.63-.93,4.79-2.79,6.47-1.86,1.69-4.15,2.53-6.87,2.53h-13.17v-31.04h12.24c2.66,0,4.9,.82,6.72,2.46,1.82,1.64,2.73,3.73,2.73,6.28s-.98,4.64-2.93,6.21Zm-6.52-9.22h-6.12v6.83h6.12c.95,0,1.74-.32,2.37-.97s.95-1.46,.95-2.44-.31-1.79-.93-2.44-1.42-.98-2.39-.98Zm.93,19.6c1.03,0,1.89-.35,2.57-1.04,.68-.69,1.02-1.57,1.02-2.64s-.34-1.9-1.02-2.59c-.68-.69-1.54-1.04-2.57-1.04h-7.05v7.32h7.05Z"/><path class="e" d="M82.43,72.28c2.72,1.57,4.08,3.93,4.08,7.1,0,2.63-.93,4.79-2.79,6.47-1.86,1.69-4.15,2.53-6.87,2.53h-13.17v-31.04h12.24c2.66,0,4.9,.82,6.72,2.46,1.82,1.64,2.73,3.73,2.73,6.28s-.98,4.64-2.93,6.21Zm-6.52-9.22h-6.12v6.83h6.12c.95,0,1.74-.32,2.37-.97s.95-1.46,.95-2.44-.31-1.79-.93-2.44-1.42-.98-2.39-.98Zm.93,19.6c1.03,0,1.89-.35,2.57-1.04,.68-.69,1.02-1.57,1.02-2.64s-.34-1.9-1.02-2.59c-.68-.69-1.54-1.04-2.57-1.04h-7.05v7.32h7.05Z"/><path class="e" d="M104.6,69.93c2.1,.62,3.81,1.71,5.12,3.26,1.32,1.55,1.97,3.42,1.97,5.61,0,3.19-1.07,5.69-3.21,7.49-2.14,1.8-4.77,2.71-7.87,2.71-2.42,0-4.59-.55-6.5-1.66-1.91-1.11-3.29-2.74-4.15-4.9l5.23-3.02c.77,2.39,2.57,3.59,5.41,3.59,1.57,0,2.79-.38,3.66-1.13s1.31-1.78,1.31-3.08-.44-2.29-1.31-3.06c-.87-.77-2.09-1.15-3.66-1.15h-1.33l-2.35-3.55,6.12-7.98h-12.15v-5.72h19.51v5.05l-5.81,7.54Z"/></g><g><path class="e" d="M40.2,149.72c1.56,0,2.88,.53,3.95,1.58,1.07,1.05,1.6,2.34,1.6,3.87s-.53,2.82-1.6,3.87c-1.07,1.05-2.38,1.58-3.95,1.58h-2.85v5.33h-3.2v-16.21h6.06Zm0,7.9c.68,0,1.25-.24,1.7-.71,.45-.47,.67-1.05,.67-1.75s-.22-1.3-.67-1.76c-.45-.46-1.01-.69-1.7-.69h-2.85v4.91h2.85Z"/><path class="e" d="M61.97,163.82c-1.64,1.63-3.64,2.44-5.99,2.44s-4.34-.81-5.98-2.44-2.45-3.62-2.45-5.99,.82-4.36,2.45-5.99,3.62-2.44,5.98-2.44,4.35,.81,5.99,2.44,2.46,3.62,2.46,5.99-.82,4.36-2.46,5.99Zm-9.73-2.18c1.01,1,2.25,1.49,3.74,1.49s2.73-.5,3.74-1.49c1-1,1.51-2.27,1.51-3.81s-.5-2.82-1.51-3.82c-1.01-1-2.25-1.51-3.74-1.51s-2.73,.5-3.74,1.51-1.51,2.28-1.51,3.82,.5,2.81,1.51,3.81Z"/><path class="e" d="M69.69,165.94l-4.3-16.21h3.35l3.13,12.02,3.39-12.02h2.78l3.4,11.99,3.08-11.99h3.09l-4.27,16.21h-3.64l-3.08-10.76-3.06,10.76h-3.86Z"/><path class="e" d="M93.52,162.88h6.85v3.06h-10.05v-16.21h9.94v3.06h-6.73v3.45h6.15v3.01h-6.15v3.64Z"/><path class="e" d="M112.11,165.94l-3.28-5.63h-2.43v5.63h-3.2v-16.21h6.5c1.5,0,2.78,.53,3.83,1.58s1.58,2.32,1.58,3.8c0,1-.29,1.93-.86,2.79-.57,.86-1.33,1.5-2.27,1.93l3.6,6.11h-3.46Zm-5.71-13.22v4.79h3.3c.6,0,1.12-.24,1.56-.71,.43-.47,.65-1.04,.65-1.7s-.22-1.23-.65-1.69c-.43-.46-.95-.69-1.56-.69h-3.3Z"/><path class="e" d="M121.03,157.37c-.39,.39-.85,.58-1.39,.58s-1.01-.19-1.39-.58c-.39-.39-.58-.85-.58-1.39s.19-1,.58-1.39c.39-.38,.85-.58,1.39-.58s1.01,.19,1.39,.58c.39,.39,.58,.85,.58,1.39s-.19,1-.58,1.39Zm0,8.29c-.39,.39-.85,.58-1.39,.58s-1.01-.19-1.39-.58-.58-.85-.58-1.39,.19-1,.58-1.39,.85-.58,1.39-.58,1.01,.19,1.39,.58c.39,.39,.58,.85,.58,1.39s-.19,1-.58,1.39Z"/></g><circle class="e" cx="281.16" cy="72.54" r="14.67"/><circle class="d" cx="281.16" cy="72.54" r="11.12"/><g><circle class="e" cx="312.29" cy="20.6" r="20.6"/><line class="i" x1="305.21" y1="27.68" x2="319.36" y2="13.53"/><line class="i" x1="319.36" y1="27.68" x2="305.21" y2="13.53"/></g></g></g></g></svg>